<?xml version="1.0" encoding="us-ascii" standalone="no"?><svg xmlns="http://www.w3.org/2000/svg" xmlns:xlink="http://www.w3.org/1999/xlink" contentStyleType="text/css" height="259px" preserveAspectRatio="none" style="width:368px;height:259px;background:#FFFFFF;" version="1.1" viewBox="0 0 368 259" width="368px" zoomAndPan="magnify"><defs/><g><rect fill="none" height="83.118" style="stroke:#000000;stroke-width:1.5;" width="203" x="10" y="56.0679"/><rect fill="none" height="51.412" style="stroke:#000000;stroke-width:1.5;" width="209" x="153" y="153.186"/><line style="stroke:#181818;stroke-width:0.5;stroke-dasharray:5.0,5.0;" x1="43" x2="43" y1="39.0679" y2="221.598"/><line style="stroke:#181818;stroke-width:0.5;stroke-dasharray:5.0,5.0;" x1="183" x2="183" y1="39.0679" y2="221.598"/><line style="stroke:#181818;stroke-width:0.5;stroke-dasharray:5.0,5.0;" x1="320" x2="320" y1="39.0679" y2="221.598"/><rect fill="#E2E2F0" height="33.0679" rx="2.5" ry="2.5" style="stroke:#181818;stroke-width:0.5;" width="46" x="20" y="5"/><text fill="#000000" font-family="sans-serif" font-size="14" lengthAdjust="spacing" textLength="32" x="27" y="26.9659">Alice</text><rect fill="#E2E2F0" height="33.0679" rx="2.5" ry="2.5" style="stroke:#181818;stroke-width:0.5;" width="46" x="20" y="220.598"/><text fill="#000000" font-family="sans-serif" font-size="14" lengthAdjust="spacing" textLength="32" x="27" y="242.5639">Alice</text><rect fill="#E2E2F0" height="33.0679" rx="2.5" ry="2.5" style="stroke:#181818;stroke-width:0.5;" width="40" x="163" y="5"/><text fill="#000000" font-family="sans-serif" font-size="14" lengthAdjust="spacing" textLength="26" x="170" y="26.9659">Bob</text><rect fill="#E2E2F0" height="33.0679" rx="2.5" ry="2.5" style="stroke:#181818;stroke-width:0.5;" width="40" x="163" y="220.598"/><text fill="#000000" font-family="sans-serif" font-size="14" lengthAdjust="spacing" textLength="26" x="170" y="242.5639">Bob</text><rect fill="#E2E2F0" height="33.0679" rx="2.5" ry="2.5" style="stroke:#181818;stroke-width:0.5;" width="64" x="288" y="5"/><text fill="#000000" font-family="sans-serif" font-size="14" lengthAdjust="spacing" textLength="50" x="295" y="26.9659">Mallory</text><rect fill="#E2E2F0" height="33.0679" rx="2.5" ry="2.5" style="stroke:#181818;stroke-width:0.5;" width="64" x="288" y="220.598"/><text fill="#000000" font-family="sans-serif" font-size="14" lengthAdjust="spacing" textLength="50" x="295" y="242.5639">Mallory</text><path d="M10,56.0679 L83,56.0679 L83,65.7739 L73,75.7739 L10,75.7739 L10,56.0679 " fill="#EEEEEE" style="stroke:#000000;stroke-width:1.5;"/><rect fill="none" height="83.118" style="stroke:#000000;stroke-width:1.5;" width="203" x="10" y="56.0679"/><text fill="#000000" font-family="sans-serif" font-size="13" font-weight="bold" lengthAdjust="spacing" textLength="28" x="25" y="70.9649">loop</text><text fill="#000000" font-family="sans-serif" font-size="11" font-weight="bold" lengthAdjust="spacing" textLength="76" x="98" y="69.8268">[every 200ms]</text><polygon fill="#181818" points="171,95.4799,181,99.4799,171,103.4799,175,99.4799" style="stroke:#181818;stroke-width:1.0;"/><line style="stroke:#181818;stroke-width:1.0;" x1="43" x2="177" y1="99.4799" y2="99.4799"/><text fill="#000000" font-family="sans-serif" font-size="13" lengthAdjust="spacing" textLength="104" x="50" y="93.6709">Standard request</text><polygon fill="#181818" points="54,127.186,44,131.186,54,135.186,50,131.186" style="stroke:#181818;stroke-width:1.0;"/><line style="stroke:#181818;stroke-width:1.0;stroke-dasharray:2.0,2.0;" x1="48" x2="182" y1="131.186" y2="131.186"/><text fill="#000000" font-family="sans-serif" font-size="13" lengthAdjust="spacing" textLength="116" x="60" y="125.377">Standard Response</text><path d="M153,153.186 L226,153.186 L226,162.892 L216,172.892 L153,172.892 L153,153.186 " fill="#EEEEEE" style="stroke:#000000;stroke-width:1.5;"/><rect fill="none" height="51.412" style="stroke:#000000;stroke-width:1.5;" width="209" x="153" y="153.186"/><text fill="#000000" font-family="sans-serif" font-size="13" font-weight="bold" lengthAdjust="spacing" textLength="28" x="168" y="168.083">loop</text><text fill="#000000" font-family="sans-serif" font-size="11" font-weight="bold" lengthAdjust="spacing" textLength="64" x="241" y="166.9449">[every 1ms]</text><polygon fill="#181818" points="194,192.598,184,196.598,194,200.598,190,196.598" style="stroke:#181818;stroke-width:1.0;"/><line style="stroke:#181818;stroke-width:1.0;" x1="188" x2="319" y1="196.598" y2="196.598"/><text fill="#000000" font-family="sans-serif" font-size="13" lengthAdjust="spacing" textLength="113" x="200" y="190.789">DoS attack request</text><!--SRC=[oydFBr18BKijgbGmCZ38BUPI00B7dCpaL0LTEmMd_2GhXU2InBoKnA8KXQBKmjBKuXAm4g2CWYvG1LWfafgWrEA2_BpYLAxKl1Ik78JXXb2ZVHDpSlA1V9ZXBld12eab9Od9sN3ZWJe1]--></g></svg>