G04 ================== begin FILE IDENTIFICATION RECORD ==================*
G04 Layout Name:  LAUNCHXL-CC1312R1.brd*
G04 Film Name:    WCS042D_LAUNCHXL-CC1312R1_D_Bottom*
G04 File Format:  Gerber RS274X*
G04 File Origin:  Cadence Allegro 17.2-S024*
G04 Origin Date:  Wed Oct 10 12:29:49 2018*
G04 *
G04 Layer:  DRAWING FORMAT/TITLE_BLOCK*
G04 Layer:  BOARD GEOMETRY/LAYER4*
G04 Layer:  BOARD GEOMETRY/OUTLINE*
G04 Layer:  VIA CLASS/BOTTOM*
G04 Layer:  PIN/BOTTOM*
G04 Layer:  ETCH/BOTTOM*
G04 *
G04 Offset:    (0.0000 0.0000)*
G04 Mirror:    No*
G04 Mode:      Positive*
G04 Rotation:  0*
G04 FullContactRelief:  No*
G04 UndefLineWidth:     0.0990*
G04 ================== end FILE IDENTIFICATION RECORD ====================*
%FSLAX25Y25*MOMM*%
%IR0*IPPOS*OFA0.00000B0.00000*MIA0B0*SFA1.00000B1.00000*%
%ADD16C,.1*%
%ADD12C,.4*%
%ADD19C,.5*%
%ADD17C,.8*%
%ADD18O,1.4X2.1*%
%ADD11C,1.27*%
%ADD10C,3.8*%
%ADD13C,1.65*%
%ADD14C,.099*%
%ADD15C,1.699*%
%ADD20C,.3*%
%ADD21C,.6*%
%ADD22C,.15*%
%ADD23C,.7*%
%ADD24C,1.*%
%ADD26C,.704*%
%ADD25C,1.324*%
%ADD27C,1.954*%
G75*
%LPD*%
G75*
G36*
G01X20060100Y20255000D02*
G02X20050100Y20265000I0J10000D01*
G01Y24450100D01*
G02X20149200Y24733800I455929J-103D01*
G03X20243400Y24909700I-435199J346236D01*
G01Y24909800D01*
G02X20250000Y24916200I9475J-3168D01*
G01X20268000Y24921900D01*
X20272700Y24921000D01*
X20274700Y24919500D01*
G03X20295500Y25035400I40262J52591D01*
G01X20293300Y25034700D01*
X20288400Y25035500D01*
X20271400Y25048600D01*
X20269500Y25053000D01*
X20269600Y25055500D01*
G03X20268800Y25118500I-555610J24450D01*
G01X20268600Y25121000D01*
X20270600Y25125500D01*
X20285700Y25137300D01*
G02X20294800Y25139000I6171J-7829D01*
G01X20294900D01*
G03X20271900Y25252300I20111J63067D01*
G01X20270000Y25250600D01*
X20265300Y25249600D01*
X20244200Y25255300D01*
X20240600Y25258700D01*
X20239800Y25261000D01*
G03X20161600Y25410000I-525850J-180962D01*
G03X20149200Y25426200I-447719J-329853D01*
G02X20112400Y25480000I356945J283642D01*
G01X20108000Y25487600D01*
G02X20107900Y25487800I8841J4546D01*
G02X20050100Y25709900I398136J222183D01*
G01Y25729000D01*
X20050000Y25730000D01*
X20050100Y27728700D01*
G02X20056200Y27737900I10006J-12D01*
G01X20059100Y27739100D01*
X20064900Y27738000D01*
X20071900Y27731000D01*
G02X20074800Y27724200I-7097J-7045D01*
G03X20142900Y27737600I35203J840D01*
G01X20142000Y27739900D01*
X20142500Y27744600D01*
X20154400Y27762500D01*
X20158600Y27764800D01*
X20161100D01*
G03X20172400Y27767100I-1274J35169D01*
G01X20172600D01*
X20172700Y27767200D01*
G02X20179000Y27767300I3301J-9440D01*
G01X20192500Y27763200D01*
X20195200Y27761200D01*
X20196100Y27759800D01*
G03X20250500Y27804300I28790J20307D01*
G02X20247700Y27811200I7188J6935D01*
G01Y27838500D01*
G02X20250600Y27845500I10000J-42D01*
G01X20362000Y27956900D01*
G02X20368800Y27959800I7045J-7097D01*
G03X20389800Y27967300I-736J35212D01*
G01X20392000Y27969100D01*
X20397800Y27969700D01*
X20416700Y27960500D01*
G02X20422300Y27951500I-4394J-8977D01*
G01Y27604700D01*
G03X20425200Y27597700I10000J42D01*
G01X20472700Y27550200D01*
G03X20479700Y27547300I7042J7100D01*
G01X20508800D01*
G02X20515700Y27544500I-36J-9991D01*
G03X20537500Y27534900I24252J25519D01*
G01X20539700Y27534800D01*
X20543500Y27532700D01*
X20554000Y27518600D01*
G02X20555700Y27510400I-8054J-5946D01*
G03X20615500Y27526900I34326J-7792D01*
G02X20612700Y27533800I7192J6936D01*
G01Y27635100D01*
G03X20609800Y27642100I-10000J-42D01*
G01X20593100Y27658800D01*
G02X20590200Y27665800I7100J7042D01*
G01Y28065700D01*
G02X20594500Y28073900I10008J-21D01*
G01X20608200Y28083300D01*
G02X20617400Y28084400I5649J-8227D01*
G01X20617500D01*
G03Y28150200I12500J32900D01*
G01X20617400D01*
G02X20608200Y28151300I-3551J9327D01*
G01X20594500Y28160700D01*
G02X20590200Y28168900I5708J8221D01*
G01Y28323200D01*
G02X20593100Y28330200I10000J-42D01*
G01X20605800Y28342900D01*
G02X20614600Y28345700I7086J-7041D01*
G01X20633300Y28342600D01*
X20637100Y28339700D01*
X20638200Y28337400D01*
G03X20669200Y28317300I31804J15095D01*
G01X20671200Y28317200D01*
X20674600Y28315800D01*
X20678200Y28312200D01*
G02Y28298000I-7042J-7100D01*
G01X20676900Y28296700D01*
X20673800Y28295300D01*
X20672000Y28295100D01*
G03X20682700Y28225700I2950J-35070D01*
G01X20682800D01*
G02X20691100Y28223800I2129J-9778D01*
G01X20703400Y28213900D01*
G02X20707200Y28206100I-6192J-7842D01*
G01Y28156300D01*
G02X20704400Y28149400I-9992J37D01*
G03X20723200Y28090500I25479J-24318D01*
G01X20725300Y28090100D01*
X20728800Y28087700D01*
X20737700Y28073000D01*
G02X20738700Y28065100I-8610J-5103D01*
G03X20737200Y28055800I33685J-10204D01*
G02X20734300Y28049000I-9997J245D01*
G01X20660200Y27974900D01*
G03X20657300Y27967900I7100J-7042D01*
G01Y27624700D01*
G03X20660200Y27617700I10000J42D01*
G01X20684400Y27593500D01*
G02X20687300Y27586500I-7100J-7042D01*
G01Y27521200D01*
G02X20684500Y27514300I-9991J36D01*
G03X20735500I25500J-24300D01*
G02X20732700Y27521200I7191J6936D01*
G01Y27581000D01*
G02X20738900Y27590200I9985J-40D01*
G01Y27590300D01*
G02X20749800Y27588100I3802J-9266D01*
G01X20752700Y27585200D01*
G03X20759700Y27582300I7042J7100D01*
G01X20875300D01*
G03X20882300Y27585200I-42J10000D01*
G01X20929800Y27632700D01*
G03X20932700Y27639700I-7100J7042D01*
G01Y28077300D01*
X20931200Y28080900D01*
X20930200Y28081900D01*
Y28082100D01*
X20892100Y28120200D01*
X20891900D01*
X20888100Y28124000D01*
G02X20885200Y28131000I7100J7042D01*
G01Y28377800D01*
G03X20882300Y28384800I-10000J-42D01*
G01X20711900Y28555200D01*
G02X20709700Y28566100I7066J7098D01*
G01X20709800D01*
G02X20719000Y28572300I9240J-3785D01*
G01X20874000D01*
G02X20881000Y28569400I-42J-10000D01*
G01X20921900Y28528500D01*
G02X20924800Y28521500I-7100J-7042D01*
G01Y28227200D01*
G03X20927700Y28220200I10000J42D01*
G01X21187700Y27960200D01*
G03X21194700Y27957300I7042J7100D01*
G01X21866000D01*
G02X21875200Y27951100I-40J-9985D01*
G01X21875300D01*
G02X21873100Y27940200I-9266J-3802D01*
G01X21848500Y27915600D01*
G02X21841500Y27912700I-7042J7100D01*
G01X21590600D01*
G03X21583600Y27909800I41J-9998D01*
G01X21552500Y27878800D01*
G02X21538300I-7100J7036D01*
G01X21512300Y27904800D01*
G03X21505300Y27907700I-7042J-7100D01*
G01X21374500D01*
G03X21367500Y27904800I42J-10000D01*
G01X21330200Y27867500D01*
G03X21327300Y27860500I7100J-7042D01*
G01Y27846200D01*
G02X21324500Y27839300I-9990J36D01*
G03X21364300Y27782800I25469J-24327D01*
G02X21370800Y27783400I4118J-9104D01*
G01X21377000Y27781800D01*
G02X21382400Y27778300I-2457J-9706D01*
G03X21384600Y27775700I27938J21409D01*
G02X21387400Y27768800I-7195J-6938D01*
G01Y27749600D01*
G03X21390300Y27742600I10000J42D01*
G01X21439600Y27693300D01*
G02X21439700Y27679300I-7091J-7051D01*
G03X21464300Y27619800I25427J-24323D01*
G01X21466300Y27619700D01*
X21469700Y27618300D01*
X21492800Y27595200D01*
G03X21499800Y27592300I7042J7100D01*
G01X22856500D01*
G02X22863500Y27589400I-42J-10000D01*
G01X22929400Y27523500D01*
G02X22932300Y27516500I-7100J-7042D01*
G01Y26907100D01*
G03X22935200Y26900100I10000J42D01*
G01X22979300Y26856000D01*
G02X22982200Y26849200I-7097J-7045D01*
G03X23018200Y26885200I35200J800D01*
G01X23016200Y26885300D01*
X23012800Y26886700D01*
X22980600Y26918900D01*
G02X22977700Y26925900I7100J7042D01*
G01Y27535300D01*
G03X22974800Y27542300I-10000J-42D01*
G01X22882300Y27634800D01*
G03X22875300Y27637700I-7042J-7100D01*
G01X21518600D01*
G02X21511600Y27640600I42J10000D01*
G01X21503200Y27649000D01*
G02X21500300Y27655800I7097J7045D01*
G03X21499800Y27661200I-35224J-538D01*
G01X21499400Y27663300D01*
X21500500Y27667700D01*
X21511800Y27681200D01*
G02X21519500Y27684800I7682J-6397D01*
G01X22889000D01*
G02X22896000Y27681900I-42J-10000D01*
G01X23032700Y27545200D01*
G03X23039700Y27542300I7042J7100D01*
G01X23176500D01*
G02X23183500Y27539400I-42J-10000D01*
G01X23199400Y27523500D01*
G02X23202300Y27516500I-7100J-7042D01*
G01Y27309700D01*
G03X23205200Y27302700I10000J42D01*
G01X23232700Y27275200D01*
G03X23239700Y27272300I7042J7100D01*
G01X23258800D01*
G02X23265700Y27269500I-36J-9991D01*
G03Y27320500I24289J25500D01*
G01X23264200Y27319100D01*
X23260800Y27317700D01*
X23258500D01*
G02X23251500Y27320600I42J10000D01*
G01X23250600Y27321500D01*
G02X23247700Y27328500I7100J7042D01*
G01Y27535300D01*
G03X23244800Y27542300I-10000J-42D01*
G01X23202300Y27584800D01*
G03X23195300Y27587700I-7042J-7100D01*
G01X23058500D01*
G02X23051500Y27590600I42J10000D01*
G01X22914800Y27727300D01*
G03X22907800Y27730200I-7042J-7100D01*
G01X22474600D01*
G02X22465900Y27735400I64J9985D01*
G01X22457400Y27750900D01*
G02X22457700Y27761100I8730J4848D01*
G03X22459800Y27764900I-29702J18894D01*
G01X22460700Y27766800D01*
X22463700Y27769500D01*
X22479600Y27774700D01*
G02X22487300Y27774000I3016J-9521D01*
G01X22487400D01*
G03X22539100Y27808100I16634J31022D01*
G01X22538900Y27810300D01*
X22540400Y27814600D01*
X22554400Y27828600D01*
X22558700Y27830100D01*
X22560900Y27829900D01*
G03X22589500Y27889300I3125J35080D01*
G02X22586700Y27896200I7192J6937D01*
G01Y27941500D01*
G02X22589600Y27948500I10000J-42D01*
G01X22600500Y27959400D01*
G02X22607500Y27962300I7042J-7100D01*
G01X22885300D01*
G03X22892300Y27965200I-42J10000D01*
G01X22989800Y28062700D01*
G03X22992700Y28069700I-7100J7042D01*
G01Y28476500D01*
G02X22995600Y28483500I10000J-42D01*
G01X22996500Y28484400D01*
G02X23003500Y28487300I7042J-7100D01*
G01X23270300D01*
G03X23277300Y28490200I-42J10000D01*
G01X23391500Y28604400D01*
G02X23398500Y28607300I7042J-7100D01*
G01X24295200D01*
G02X24302700Y28603900I-14J-10003D01*
G01X24314200Y28590800D01*
X24315400Y28586800D01*
X24315100Y28584600D01*
G03X24314800Y28580800I34893J-4667D01*
G02X24311900Y28574000I-9997J245D01*
G01X24296000Y28558100D01*
G02X24289000Y28555200I-7042J7100D01*
G01X23517200D01*
G03X23510200Y28552300I42J-10000D01*
G01X23190200Y28232300D01*
G03X23187300Y28225300I7100J-7042D01*
G01Y27943500D01*
G02X23184400Y27936500I-10000J42D01*
G01X23163500Y27915600D01*
G02X23156500Y27912700I-7042J7100D01*
G01X22679700D01*
G03X22672700Y27909800I42J-10000D01*
G01X22661000Y27898100D01*
G02X22654200Y27895200I-7045J7097D01*
G03X22690100Y27857900I773J-35182D01*
G01X22690200Y27859500D01*
G02X22693200Y27866100I9973J-552D01*
G01X22694400Y27867300D01*
X23175300D01*
G03X23182300Y27870200I-42J10000D01*
G01X23229800Y27917700D01*
G03X23232700Y27924700I-7100J7042D01*
G01Y28206500D01*
G02X23235600Y28213500I10000J-42D01*
G01X23529000Y28506900D01*
G02X23536000Y28509800I7042J-7100D01*
G01X24307800D01*
G03X24314800Y28512700I-42J10000D01*
G01X24344000Y28541900D01*
G02X24350800Y28544800I7045J-7097D01*
G03X24384900Y28584600I-801J35195D01*
G01X24384600Y28586800D01*
X24385800Y28590800D01*
X24398800Y28605600D01*
X24402600Y28607300D01*
X24404400D01*
X24549000Y28751900D01*
G02X24555800Y28754800I7045J-7097D01*
G03X24519800Y28790800I-800J35200D01*
G01X24519700Y28788800D01*
X24518300Y28785400D01*
X24506300Y28773400D01*
G02X24492200I-7050J7104D01*
G01X24492100Y28773500D01*
G02X24489400Y28782600I7090J7054D01*
G01Y28782700D01*
G03X24419800Y28790800I-34416J7346D01*
G01X24419700Y28788800D01*
X24418300Y28785400D01*
X24401000Y28768100D01*
G02X24394000Y28765200I-7042J7100D01*
G01X23202000D01*
G03X23195000Y28762300I42J-10000D01*
G01X23090900Y28658200D01*
G02X23083900Y28655300I-7042J7100D01*
G01X22970900D01*
G02X22963900Y28658200I42J10000D01*
G01X22907300Y28714800D01*
G03X22900300Y28717700I-7042J-7100D01*
G01X22679700D01*
G03X22672700Y28714800I42J-10000D01*
G01X22647700Y28689800D01*
G03X22644800Y28682800I7100J-7042D01*
G01Y28111000D01*
G02X22641900Y28104000I-10000J42D01*
G01X22633500Y28095600D01*
G02X22626500Y28092700I-7042J7100D01*
G01X22549700D01*
G03X22542700Y28089800I42J-10000D01*
G01X22519800Y28066900D01*
G02X22508900Y28064700I-7098J7066D01*
G01Y28064800D01*
G02X22502700Y28074000I3785J9240D01*
G01Y28366500D01*
G02X22505600Y28373500I10000J-42D01*
G01X22569800Y28437700D01*
G03X22572700Y28444700I-7100J7042D01*
G01Y28686500D01*
G02X22575600Y28693500I10000J-42D01*
G01X22706500Y28824400D01*
G02X22713500Y28827300I7042J-7100D01*
G01X23485300D01*
G03X23492300Y28830200I-42J10000D01*
G01X23654000Y28991900D01*
G02X23661000Y28994800I7042J-7100D01*
G01X23711700D01*
G02X23719700Y28990900I72J-10007D01*
G01X23729400Y28978100D01*
G02X23731100Y28969400I-7940J-6068D01*
G03X23764200Y28924800I33914J-9413D01*
G01X23766200Y28924700D01*
X23769600Y28923300D01*
X23832700Y28860200D01*
G03X23839700Y28857300I7042J7100D01*
G01X24721500D01*
G02X24728500Y28854400I-42J-10000D01*
G01X24804400Y28778500D01*
G02X24807300Y28771500I-7100J-7042D01*
G01Y28304700D01*
G03X24810200Y28297700I10000J42D01*
G01X25049400Y28058500D01*
G02X25052300Y28051500I-7100J-7042D01*
G01Y27989700D01*
G03X25055200Y27982700I10000J42D01*
G01X25093700Y27944200D01*
G02X25096100Y27933700I-7033J-7132D01*
G01X25089900Y27916600D01*
G02X25081600Y27910000I-9426J3335D01*
G01X25081500D01*
G03X25120000Y27871500I3500J-35000D01*
G01Y27871600D01*
G02X25126600Y27879900I9935J-1126D01*
G01X25143700Y27886100D01*
G02X25154200Y27883700I3368J-9433D01*
G01X25214400Y27823500D01*
G02X25217300Y27816500I-7100J-7042D01*
G01Y27674700D01*
G03X25220200Y27667700I10000J42D01*
G01X25244400Y27643500D01*
G02X25247300Y27636500I-7100J-7042D01*
G01Y26703100D01*
G02X25242300Y26694500I-9994J57D01*
G01X25227200Y26685700D01*
G02X25217300Y26685600I-5038J8626D01*
G03Y26624400I-17300J-30600D01*
G01X25219700Y26625700D01*
X25224900D01*
X25242300Y26615500D01*
G02X25247300Y26606900I-4994J-8657D01*
G01Y26328500D01*
G02X25244400Y26321500I-10000J42D01*
G01X25183600Y26260700D01*
G02X25175000Y26257900I-7061J7080D01*
G01X25156300Y26260900D01*
X25152500Y26263600D01*
X25151400Y26265700D01*
Y26265800D01*
G03X25144200Y26275600I-31531J-15621D01*
G01X25142800Y26276900D01*
X25141200Y26280300D01*
X25140000Y26297800D01*
X25141200Y26301300D01*
X25142400Y26302800D01*
G03Y26347100I-27386J22150D01*
G01X25140900Y26349000D01*
X25139900Y26353300D01*
X25144600Y26373500D01*
X25147600Y26377100D01*
X25149700Y26378000D01*
G03X25107600Y26387900I-14690J31994D01*
G01X25109100Y26386000D01*
X25110100Y26381700D01*
X25105400Y26361500D01*
X25102400Y26357900D01*
X25100300Y26357000D01*
G03X25090700Y26350500I14672J-32009D01*
G02X25083800Y26347700I-6937J7193D01*
G01X23826500D01*
X23822900Y26349200D01*
X23822700Y26349400D01*
Y26350300D01*
G03X23819800Y26357300I-10000J-42D01*
G01X23765600Y26411500D01*
G02X23762700Y26418500I7100J7042D01*
G01Y26875300D01*
G03X23759800Y26882300I-10000J-42D01*
G01X23727300Y26914800D01*
G03X23720300Y26917700I-7042J-7100D01*
G01X23279700D01*
G03X23272700Y26914800I42J-10000D01*
G01X23148500Y26790600D01*
G02X23141500Y26787700I-7042J7100D01*
G01X22918500D01*
G02X22911500Y26790600I42J10000D01*
G01X22860600Y26841500D01*
G02X22857700Y26848500I7100J7042D01*
G01Y27350300D01*
G03X22854800Y27357300I-10000J-42D01*
G01X22697300Y27514800D01*
G03X22690300Y27517700I-7042J-7100D01*
G01X21468500D01*
G02X21461500Y27520600I42J10000D01*
G01X21320600Y27661500D01*
G02X21317700Y27668500I7100J7042D01*
G01Y27760300D01*
G03X21314800Y27767300I-10000J-42D01*
G01X21273100Y27809000D01*
G02X21270200Y27815800I7097J7045D01*
G03X21234200Y27779800I-35200J-800D01*
G01X21236200Y27779700D01*
X21239600Y27778300D01*
X21269400Y27748500D01*
G02X21272300Y27741500I-7100J-7042D01*
G01Y27649700D01*
G03X21275200Y27642700I10000J42D01*
G01X21442700Y27475200D01*
G03X21449700Y27472300I7042J7100D01*
G01X22671500D01*
G02X22678500Y27469400I-42J-10000D01*
G01X22809400Y27338500D01*
G02X22812300Y27331500I-7100J-7042D01*
G01Y26829700D01*
G03X22815200Y26822700I10000J42D01*
G01X22892700Y26745200D01*
G03X22899700Y26742300I7042J7100D01*
G01X22904400D01*
G02X22914400Y26732300I0J-10000D01*
G02X22910000Y26724000I-10000J-15D01*
G03X22905700Y26720500I20010J-28975D01*
G02X22898800Y26717700I-6938J7195D01*
G01X22888500D01*
G02X22881500Y26720600I42J10000D01*
G01X22790600Y26811500D01*
G02X22787700Y26818500I7100J7042D01*
G01Y27290300D01*
G03X22784800Y27297300I-10000J-42D01*
G01X22677300Y27404800D01*
G03X22670300Y27407700I-7042J-7100D01*
G01X21418500D01*
G02X21411500Y27410600I42J10000D01*
G01X21225600Y27596500D01*
G02X21222700Y27603500I7100J7042D01*
G01Y27668800D01*
G02X21225500Y27675700I9991J-36D01*
G03X21174500I-25500J24300D01*
G02X21177300Y27668800I-7191J-6936D01*
G01Y27584700D01*
G03X21180200Y27577700I10000J42D01*
G01X21392700Y27365200D01*
G03X21399700Y27362300I7042J7100D01*
G01X22076500D01*
G02X22085500Y27356600I-21J-9989D01*
G01X22094700Y27337600D01*
X22094000Y27332000D01*
X22092200Y27329700D01*
G03X22147200I27500J-22000D01*
G01X22145400Y27332000D01*
X22144700Y27337600D01*
X22153900Y27356600D01*
G02X22162900Y27362300I9021J-4289D01*
G01X22651500D01*
G02X22658500Y27359400I-42J-10000D01*
G01X22659300Y27358600D01*
G02X22662100Y27350000I-7080J-7061D01*
G01X22659100Y27331300D01*
X22656400Y27327500D01*
X22654200Y27326400D01*
G03X22645700Y27320400I15810J-31418D01*
G02X22638800Y27317700I-6839J7311D01*
G01X22232200D01*
G03X22225200Y27314800I42J-10000D01*
G01X22163500Y27253100D01*
G02X22156500Y27250200I-7042J7100D01*
G01X20311000D01*
G02X20304000Y27253100I42J10000D01*
G01X20303100Y27254000D01*
G02X20300200Y27260800I7097J7045D01*
G03X20230000Y27264100I-35210J-681D01*
G01X20229800Y27261900D01*
X20227300Y27258000D01*
X20211600Y27248500D01*
G02X20202800Y27247800I-5112J8604D01*
G03X20225000Y27210900I-12779J-32816D01*
G01X20225200Y27213100D01*
X20227700Y27217000D01*
X20243400Y27226500D01*
G02X20252200Y27227200I5112J-8604D01*
G03X20264200Y27224800I12800J32800D01*
G01X20266200Y27224700D01*
X20269600Y27223300D01*
X20285200Y27207700D01*
G03X20292200Y27204800I7042J7100D01*
G01X22175300D01*
G03X22182300Y27207700I-42J10000D01*
G01X22244000Y27269400D01*
G02X22251000Y27272300I7042J-7100D01*
G01X22326900D01*
G02X22335500Y27267300I-57J-9994D01*
G01X22344300Y27252200D01*
G02X22344400Y27242300I-8626J-5038D01*
G03X22349500Y27200700I30614J-17359D01*
G02X22352300Y27193800I-7190J-6936D01*
G01Y27174100D01*
G02X22342300Y27164100I-10000J0D01*
G01X22339600D01*
X22335200Y27166600D01*
X22333800Y27168800D01*
G03X22322000Y27119700I-29783J-18810D01*
G01X22324300Y27121100D01*
X22329700Y27121200D01*
X22347200Y27111200D01*
G02X22352300Y27102500I-4899J-8717D01*
G01Y27058500D01*
G02X22349400Y27051500I-10000J42D01*
G01X22241000Y26943100D01*
G02X22234000Y26940200I-7042J7100D01*
G01X20657300D01*
G03X20650300Y26937300I42J-10000D01*
G01X20581000Y26868000D01*
G02X20574200Y26865100I-7045J7097D01*
G03X20610200Y26829100I800J-35200D01*
G01X20610300Y26831100D01*
X20611700Y26834500D01*
X20669100Y26891900D01*
G02X20676100Y26894800I7042J-7100D01*
G01X22252800D01*
G03X22259800Y26897700I-42J10000D01*
G01X22394800Y27032700D01*
G03X22397700Y27039700I-7100J7042D01*
G01Y27170600D01*
G02X22407700Y27180600I10000J0D01*
G01X22407800D01*
G02X22417600Y27172700I23J-10000D01*
G03X22426500Y27155700I34453J7207D01*
G02X22429300Y27148800I-7189J-6936D01*
G01Y27015500D01*
G02X22426400Y27008500I-10000J42D01*
G01X22288500Y26870600D01*
G02X22281500Y26867700I-7042J7100D01*
G01X21514700D01*
G03X21507700Y26864800I42J-10000D01*
G01X21478500Y26835600D01*
G02X21471500Y26832700I-7042J7100D01*
G01X20664700D01*
G03X20657700Y26829800I42J-10000D01*
G01X20578500Y26750600D01*
G02X20571500Y26747700I-7042J7100D01*
G01X20561200D01*
G02X20554300Y26750500I35J9989D01*
G03X20539700Y26758800I-24193J-25566D01*
G01X20539600D01*
G02X20534300Y26762600I2860J9584D01*
G01X20526000Y26774000D01*
X20525000Y26777100D01*
X20525100Y26778800D01*
G03X20480200Y26746100I-35176J1124D01*
G01X20480300D01*
G02X20485600Y26742300I-2860J-9584D01*
G01X20493900Y26730900D01*
X20494900Y26727800D01*
X20494800Y26726100D01*
G03X20501800Y26703900I35195J-1106D01*
G01X20503100Y26702200D01*
X20504000Y26698200D01*
X20500500Y26679500D01*
X20498100Y26676000D01*
X20496400Y26674900D01*
G03X20539300Y26619500I18648J-29870D01*
G02X20546200Y26622300I6936J-7191D01*
G01X21035300D01*
G03X21042300Y26625200I-42J10000D01*
G01X21126500Y26709400D01*
G02X21133500Y26712300I7042J-7100D01*
G01X21218300D01*
G02X21226700Y26707600I-72J-9986D01*
G01X21237200Y26690900D01*
X21237500Y26685700D01*
X21236300Y26683400D01*
G03X21229800Y26655000I58793J-28400D01*
G01Y26457100D01*
G03X21232700Y26450100I10000J42D01*
G01X21332200Y26350600D01*
G02X21335100Y26343600I-7100J-7042D01*
G01Y26060200D01*
G02X21325100Y26050200I-10000J0D01*
G01X21169400D01*
X21167100Y26050800D01*
X21166100Y26051300D01*
G03Y25988700I-16100J-31300D01*
G01X21167100Y25989200D01*
X21169400Y25989800D01*
X21325100D01*
G02X21335100Y25979800I0J-10000D01*
G01Y25793100D01*
G02X21332100Y25786000I-9999J41D01*
G03X21468500I68200J-70000D01*
G02X21465500Y25793100I6999J7141D01*
G01Y26397600D01*
G03X21462600Y26404600I-10000J-42D01*
G01X21363100Y26504100D01*
G02X21360200Y26511100I7100J7042D01*
G01Y26655000D01*
G03X21353700Y26683400I-65293J0D01*
G01X21352500Y26685700D01*
X21352800Y26690900D01*
X21363300Y26707600D01*
G02X21371700Y26712300I8472J-5286D01*
G01X21925300D01*
G03X21932300Y26715200I-42J10000D01*
G01X21956500Y26739400D01*
G02X21963500Y26742300I7042J-7100D01*
G01X22122500D01*
G02X22129900Y26739100I62J-10014D01*
G01X22141300Y26726600D01*
X22142700Y26722600D01*
X22142500Y26720500D01*
G03X22212700I35100J-2900D01*
G01X22212500Y26722600D01*
X22213900Y26726600D01*
X22225300Y26739100D01*
G02X22232700Y26742300I7338J-6814D01*
G01X22535300D01*
G03X22542300Y26745200I-42J10000D01*
G01X22629800Y26832700D01*
G03X22632700Y26839700I-7100J7042D01*
G01Y27198800D01*
G02X22635500Y27205700I9991J-36D01*
G03X22644600Y27236400I-25510J24260D01*
G01X22644200Y27238700D01*
X22645500Y27243200D01*
X22658000Y27256800D01*
G02X22666400Y27260000I7379J-6745D01*
G03X22701400Y27279200I3568J34997D01*
G01X22702500Y27281400D01*
X22706300Y27284100D01*
X22725000Y27287100D01*
G02X22733600Y27284300I1539J-9880D01*
G01X22739400Y27278500D01*
G02X22742300Y27271500I-7100J-7042D01*
G01Y26799700D01*
G03X22745200Y26792700I10000J42D01*
G01X22863100Y26674800D01*
G02X22865300Y26663900I-7066J-7098D01*
G01X22865200D01*
G02X22856000Y26657700I-9240J3785D01*
G01X21974700D01*
G03X21967700Y26654800I42J-10000D01*
G01X21863500Y26550600D01*
G02X21856500Y26547700I-7042J7100D01*
G01X21456200D01*
G02X21449300Y26550500I36J9991D01*
G03Y26499500I-24300J-25500D01*
G02X21456200Y26502300I6936J-7191D01*
G01X21875300D01*
G03X21882300Y26505200I-42J10000D01*
G01X21986500Y26609400D01*
G02X21993500Y26612300I7042J-7100D01*
G01X22194700D01*
G02X22201900Y26609200I-29J-9979D01*
G01X22213500Y26597300D01*
X22214900Y26593500D01*
X22214800Y26591400D01*
G03X22224500Y26565700I35188J-1399D01*
G02X22227300Y26558800I-7192J-6937D01*
G01Y26418700D01*
G03X22230200Y26411700I10000J42D01*
G01X22285900Y26356000D01*
G02X22288800Y26349200I-7097J-7045D01*
G03X22349400Y26325600I35201J785D01*
G02X22355900Y26328700I7263J-6865D01*
G01X22366700Y26329500D01*
G03X22367200Y26329100I22238J27285D01*
G02X22370500Y26321900I-6700J-7427D01*
G01X22370800Y26307400D01*
G02X22367900Y26300100I-9994J-256D01*
G01X22355100Y26287300D01*
G03X22352200Y26280300I7100J-7042D01*
G01Y25906200D01*
G02X22349400Y25899300I-9991J36D01*
G03X22400400I25500J-24300D01*
G02X22397600Y25906200I7191J6936D01*
G01Y26261500D01*
G02X22400500Y26268500I10000J-42D01*
G01X22580800Y26448800D01*
G03X22583700Y26455800I-7100J7042D01*
G01Y26569300D01*
G03X22580800Y26576300I-10000J-42D01*
G01X22570600Y26586500D01*
G02X22567700Y26593300I7097J7045D01*
G03X22566900Y26600100I-35206J-695D01*
G01X22566600Y26601200D01*
Y26602300D01*
G02X22576600Y26612300I10000J0D01*
G01X22989700D01*
G02X22996900Y26609200I-29J-9979D01*
G01X23008500Y26597300D01*
X23009900Y26593500D01*
X23009800Y26591400D01*
G03X23013400Y26574400I35203J-1426D01*
G02Y26565600I-8965J-4400D01*
G03X23076600I31600J-15600D01*
G02Y26574400I8971J4400D01*
G03X23071600Y26613100I-31584J15592D01*
G02X23069100Y26620000I7511J6624D01*
G01X23069700Y26633800D01*
G02X23072600Y26640500I9979J-342D01*
G01X23096500Y26664400D01*
G02X23103500Y26667300I7042J-7100D01*
G01X23109400D01*
G02X23119400Y26657300I0J-10000D01*
G02X23115000Y26649000I-10000J-15D01*
G03X23138400Y26585000I19993J-28968D01*
G02X23146800Y26581800I1021J-9945D01*
G01X23159300Y26568200D01*
X23160600Y26563700D01*
X23160200Y26561400D01*
G03X23191400Y26590100I34607J-6313D01*
G02X23183000Y26593300I-1021J9945D01*
G01X23170500Y26606900D01*
X23169200Y26611400D01*
X23169600Y26613700D01*
G03X23166800Y26635000I-34610J6284D01*
G02X23166200Y26642000I9037J4300D01*
G01X23170400Y26656600D01*
X23172500Y26659400D01*
X23174100Y26660400D01*
G03X23174900Y26719100I-19075J29615D01*
G01X23173000Y26720400D01*
X23170800Y26724100D01*
X23169100Y26741800D01*
G02X23171900Y26749800I9934J1013D01*
G01X23291500Y26869400D01*
G02X23298500Y26872300I7042J-7100D01*
G01X23701500D01*
G02X23708500Y26869400I-42J-10000D01*
G01X23714400Y26863500D01*
G02X23717300Y26856500I-7100J-7042D01*
G01Y26399700D01*
G03X23720200Y26392700I10000J42D01*
G01X23774400Y26338500D01*
G02X23777300Y26331500I-7100J-7042D01*
G01Y26330600D01*
X23802700Y26305200D01*
G03X23809700Y26302300I7042J7100D01*
G01X25083800D01*
G02X25090700Y26299500I-40J-10001D01*
G01X25090800Y26299400D01*
X25092200Y26298100D01*
X25093800Y26294700D01*
X25095000Y26277200D01*
X25093800Y26273700D01*
X25092600Y26272200D01*
G03X25095300Y26224900I27380J-22164D01*
G01X25096700Y26223500D01*
X25098300Y26219800D01*
Y26217700D01*
G02X25088300Y26207700I-10000J0D01*
G01X25084200D01*
X25080800Y26209100D01*
X25079300Y26210500D01*
G03Y26159500I-24289J-25500D01*
G02X25086200Y26162300I6936J-7191D01*
G01X25145300D01*
G03X25152300Y26165200I-42J10000D01*
G01X25289800Y26302700D01*
G03X25292700Y26309700I-7100J7042D01*
G01Y27655300D01*
G03X25289800Y27662300I-10000J-42D01*
G01X25265600Y27686500D01*
G02X25262700Y27693500I7100J7042D01*
G01Y27835300D01*
G03X25259800Y27842300I-10000J-42D01*
G01X25100600Y28001500D01*
G02X25097700Y28008500I7100J7042D01*
G01Y28070300D01*
G03X25094800Y28077300I-10000J-42D01*
G01X24855600Y28316500D01*
G02X24852700Y28323500I7100J7042D01*
G01Y28790300D01*
G03X24849800Y28797300I-10000J-42D01*
G01X24747300Y28899800D01*
G03X24740300Y28902700I-7042J-7100D01*
G01X23858500D01*
G02X23851500Y28905600I42J10000D01*
G01X23803100Y28954000D01*
G02X23800200Y28960800I7097J7045D01*
G03X23798900Y28969400I-35184J-920D01*
G02X23800600Y28978100I9640J2632D01*
G01X23810300Y28990900D01*
G02X23818300Y28994800I7928J-6107D01*
G01X24460900D01*
G02X24470700Y28987000I45J-10000D01*
G03X24532200Y29017300I34280J7985D01*
G01X24532100Y29017400D01*
G02X24532800Y29030800I7777J6312D01*
G01X24532900Y29030900D01*
G02X24547000I7050J-7108D01*
G01X24566900Y29011000D01*
G02X24569800Y29004200I-7097J-7045D01*
G03X24605800Y29040200I35200J800D01*
G01X24603800Y29040300D01*
X24600400Y29041700D01*
X24564400Y29077700D01*
G02X24562200Y29088600I7066J7098D01*
G01X24562300D01*
G02X24571500Y29094800I9240J-3785D01*
G01X24617800D01*
G02X24624800Y29091900I-42J-10000D01*
G01X24666900Y29049800D01*
G02X24669800Y29043000I-7097J-7045D01*
G03X24705800Y29079000I35200J800D01*
G01X24703800Y29079100D01*
X24700400Y29080500D01*
X24643600Y29137300D01*
G03X24636600Y29140200I-7042J-7100D01*
G01X23151600D01*
G02X23143400Y29144500I21J10008D01*
G01X23134000Y29158200D01*
G02X23132900Y29167400I8227J5649D01*
G01Y29167500D01*
G03X23067100I-32900J12500D01*
G01Y29167400D01*
G02X23066000Y29158200I-9327J-3551D01*
G01X23056600Y29144500D01*
G02X23048400Y29140200I-8221J5708D01*
G01X22657200D01*
G03X22650200Y29137300I42J-10000D01*
G01X22225200Y28712300D01*
G03X22222300Y28705300I7100J-7042D01*
G01Y28258500D01*
G02X22219400Y28251500I-10000J42D01*
G01X22172700Y28204800D01*
G03X22169800Y28197800I7100J-7042D01*
G01Y27989500D01*
G02X22165100Y27981000I-9998J-21D01*
G01X22150400Y27971900D01*
G02X22140700Y27971500I-5210J8537D01*
G03X22100700Y27965500I-15725J-31500D01*
G02X22093800Y27962700I-6936J7191D01*
G01X21892800D01*
G02X21883600Y27968900I40J9985D01*
G01X21883500D01*
G02X21885700Y27979800I9266J3802D01*
G01X21967800Y28061900D01*
G02X21974600Y28064800I7045J-7097D01*
G03X21938600Y28100800I-800J35200D01*
G01X21938500Y28098800D01*
X21937100Y28095400D01*
X21847300Y28005600D01*
G02X21840300Y28002700I-7042J7100D01*
G01X21213500D01*
G02X21206500Y28005600I42J10000D01*
G01X20973100Y28239000D01*
G02X20970200Y28246000I7100J7042D01*
G01Y28540300D01*
G03X20967300Y28547300I-10000J-42D01*
G01X20899800Y28614800D01*
G03X20892800Y28617700I-7042J-7100D01*
G01X20806800D01*
G02X20799300Y28621100I14J10003D01*
G01X20787800Y28634200D01*
X20786600Y28638200D01*
X20786900Y28640400D01*
G03X20718800Y28656700I-34899J4604D01*
G01Y28656500D01*
G02X20711600Y28650200I-9387J3463D01*
G01X20694900Y28646300D01*
G02X20685600Y28649000I-2206J9767D01*
G01X20684400Y28650200D01*
X20600000D01*
X20596400Y28648700D01*
X20595600Y28647900D01*
X20572200Y28651500D01*
X20568300Y28654300D01*
X20567200Y28656400D01*
G03X20500800Y28640800I-31189J-16359D01*
G01X20500700Y28638800D01*
X20499300Y28635400D01*
X20406100Y28542200D01*
G02X20399100Y28539300I-7042J7100D01*
G01X20384000D01*
G02X20374600Y28546000I38J9998D01*
G01X20372900Y28550900D01*
G02X20375400Y28561400I9450J3298D01*
G03X20366600Y28647600I-38413J39628D01*
G02X20362000Y28656000I5394J8413D01*
G01Y28673000D01*
G02X20366600Y28681400I9994J-14D01*
G03X20384000Y28757000I-29588J46612D01*
G02X20383200Y28765800I8516J5211D01*
G01X20388800Y28780700D01*
G02X20395400Y28786800I9367J-3514D01*
G03X20325800Y28906500I-20416J68214D01*
G01X20324300Y28905000D01*
X20320500Y28903600D01*
X20303700Y28904500D01*
G02X20296700Y28907900I522J9981D01*
G03X20245300Y28910100I-26727J-22901D01*
G01X20244000Y28908800D01*
X20240600Y28907300D01*
X20225100Y28906700D01*
G02X20218200Y28909200I-276J10012D01*
G03X20215100Y28798300I-46189J-54202D01*
G01X20217300Y28800000D01*
X20223000Y28800600D01*
X20247300Y28788500D01*
Y28785600D01*
X20281000Y28751900D01*
G02X20283600Y28742200I-7053J-7089D01*
G03X20307400Y28681400I53371J-14166D01*
G02X20312000Y28673000I-5395J-8414D01*
G01Y28656000D01*
G02X20307400Y28647600I-9994J13D01*
G03X20290400Y28630600I29600J-46600D01*
G02X20282000Y28626000I-8413J5394D01*
G01X20265000D01*
G02X20256600Y28630600I13J9993D01*
G03X20162300Y28628700I-46573J-29612D01*
G02X20153600Y28623700I-8660J5000D01*
G01X20105700D01*
G03X20098700Y28620800I42J-10000D01*
G01X20067200Y28589300D01*
G02X20056300Y28587100I-7098J7066D01*
G01Y28587200D01*
G02X20050100Y28596400I3785J9240D01*
G01Y29134300D01*
G02X20056900Y29143800I10011J18D01*
G01X20078200Y29150900D01*
X20084200Y29149000D01*
X20086200Y29146400D01*
G03X20360600Y29442900I163782J123649D01*
G01X20357800Y29444700D01*
X20355400Y29450900D01*
X20361800Y29472700D01*
G02X20371390Y29479900I9596J-2795D01*
G01X20639900D01*
G02X20649900Y29469900I0J-10000D01*
G01Y29369900D01*
G03X20659900Y29359900I10000J0D01*
G01X20664800Y29355000D01*
Y29328800D01*
X20664300Y29327200D01*
G03X20659800Y29300000I80680J-27320D01*
G01Y29230000D01*
G03X20664300Y29202800I85180J120D01*
G01X20664800Y29201200D01*
Y28915100D01*
G02X20661600Y28907700I-10014J-62D01*
G01X20649100Y28896300D01*
X20645100Y28894900D01*
X20643000Y28895100D01*
G03X20675000Y28856600I-3030J-35067D01*
G01Y28856700D01*
G02X20678200Y28863100I9971J-986D01*
G01X20688300Y28872200D01*
G02X20695100Y28874800I6729J-7406D01*
G01X20717300D01*
G02X20727300Y28864800I0J-10000D01*
G01Y28794700D01*
G03X20730200Y28787700I10000J42D01*
G01X20767700Y28750200D01*
G03X20774700Y28747300I7042J7100D01*
G01X20916500D01*
G02X20923500Y28744400I-42J-10000D01*
G01X20965200Y28702700D01*
G03X20972200Y28699800I7042J7100D01*
G01X21014700D01*
G03X21016500Y28699900I-357J22680D01*
G01X21023800D01*
G02X21030700Y28697100I-36J-9992D01*
G03X21070100Y28690800I24281J25497D01*
G02X21075800Y28691700I4346J-9027D01*
G01X21081600Y28690800D01*
G02X21086800Y28688500I-1271J-9902D01*
G03X21137200Y28737400I23212J26499D01*
G01X21133900Y28741300D01*
X21132700Y28744500D01*
Y28745800D01*
X21161300Y28774400D01*
G02X21168300Y28777300I7042J-7100D01*
G01X21205300D01*
G03X21212300Y28780200I-42J10000D01*
G01X21244800Y28812700D01*
G03X21247700Y28819700I-7100J7042D01*
G01Y28873100D01*
G03X21249600Y28874800I-22510J27070D01*
G01X21605200D01*
G03X21615200Y28884800I0J10000D01*
G01Y29201200D01*
X21615700Y29202800D01*
G03X21620200Y29230000I-80680J27320D01*
G01Y29300000D01*
G03X21615700Y29327200I-85180J-120D01*
G01X21615200Y29328800D01*
Y29349900D01*
G02X21625200Y29359900I10000J0D01*
G01X21630100Y29364800D01*
Y29469900D01*
G02X21640100Y29479900I10000J0D01*
G01X23594710D01*
G02X23602700Y29475900I-6J-9991D01*
G01X23612400Y29463100D01*
G02X23614100Y29454500I-7946J-6039D01*
G01Y29454400D01*
G03X23681900I33900J-9400D01*
G01Y29454500D01*
G02X23683600Y29463100I9646J2561D01*
G01X23693300Y29475900D01*
G02X23701290Y29479900I7996J-5991D01*
G01X24612100D01*
G02X24621100Y29474200I-27J-9998D01*
G01X24628900Y29457800D01*
G02X24627600Y29447200I-9044J-4270D01*
G03X24682400I27400J-22200D01*
G02X24681100Y29457800I7744J6330D01*
G01X24688900Y29474200D01*
G02X24697900Y29479900I9027J-4298D01*
G01X25458610D01*
G02X25468200Y29472700I-6J-9995D01*
G01X25474600Y29450900D01*
X25472200Y29444700D01*
X25469400Y29442900D01*
G03X25762000Y29175200I110611J-172859D01*
G01X25763600Y29178300D01*
X25769900Y29181200D01*
X25792300Y29175700D01*
G02X25799900Y29166000I-2412J-9718D01*
G01X25799910Y29005000D01*
Y28954000D01*
Y28905600D01*
Y28899800D01*
Y28797300D01*
Y28790300D01*
X25799920Y28504880D01*
X25799930Y28323500D01*
Y28316500D01*
X25799940Y28077300D01*
Y28070300D01*
Y28008500D01*
Y28001500D01*
Y27842300D01*
Y27835300D01*
Y27805200D01*
X25799950Y27770000D01*
Y27693500D01*
Y27686500D01*
Y27662300D01*
Y27655300D01*
X25799960Y27345200D01*
Y27310000D01*
X25799970Y27130200D01*
Y27095000D01*
Y26870200D01*
X25799980Y26835000D01*
X25799990Y26460700D01*
Y26425490D01*
Y26398500D01*
Y26383150D01*
Y26369300D01*
Y26345010D01*
Y26330200D01*
Y26295000D01*
X25800000Y26165200D01*
Y26162300D01*
Y26159500D01*
Y26145200D01*
Y26141300D01*
Y26140800D01*
Y26137300D01*
Y26110180D01*
Y26080000D01*
Y25710600D01*
G02X25799900Y25709400I-9983J228D01*
G01X25790000Y25630400D01*
G02X25789900Y25629600I-9924J834D01*
G01X25783600Y25598000D01*
G03X25783400Y25596020I9800J-1990D01*
G01Y25588600D01*
X25783000Y25587200D01*
G02X25700800Y25426200I-439087J122696D01*
G03X25610100Y25260900I435158J-346304D01*
G01X25609400Y25258700D01*
X25605900Y25255300D01*
X25588100Y25249700D01*
G02X25579200Y25251200I-2967J9551D01*
G03X25556000Y25133700I-39228J-53295D01*
G01X25558400Y25134300D01*
X25562900Y25133200D01*
X25579200Y25119700D01*
X25581000Y25115400D01*
X25580900Y25113000D01*
G03X25580600Y25052700I555132J-32913D01*
G02X25577000Y25044500I-10003J-499D01*
G01X25564500Y25034200D01*
G02X25555700Y25032200I-6379J7709D01*
G03X25578000Y24913700I-15706J-64304D01*
G01X25580000Y24915100D01*
X25584600Y24915800D01*
X25602200Y24910000D01*
G02X25608600Y24903600I-3110J-9510D01*
G03X25700800Y24733800I527398J176441D01*
G02X25799900Y24450100I-356829J-283803D01*
G01Y20265000D01*
G02X25789900Y20255000I-10000J0D01*
G01X20060100D01*
G37*
G36*
G01X20185200Y27847100D02*
X20160600Y27871700D01*
G02X20157700Y27878700I7101J7042D01*
G01Y28096100D01*
G02X20161500Y28103900I9991J-42D01*
G01X20173800Y28113700D01*
G02X20182200Y28115700I6287J-7766D01*
G03X20185100Y28115100I8575J34140D01*
G02X20191300Y28111700I-1390J-9887D01*
G01X20200000Y28101500D01*
G02X20202300Y28094800I-7702J-6389D01*
G03X20331700Y28134000I71182J-1797D01*
G02X20330700Y28143700I8191J5746D01*
G01X20337400Y28159500D01*
G02X20345200Y28165400I9174J-4023D01*
G03X20390400Y28234200I-8170J54615D01*
G01X20390300D01*
G02X20392900Y28243800I9690J2528D01*
G01X20405200Y28256100D01*
G02X20416100Y28258300I7097J-7061D01*
G02X20422300Y28249000I-3811J-9257D01*
G01Y28038400D01*
G02X20416700Y28029400I-10012J-13D01*
G01X20400300Y28021500D01*
G02X20389800Y28022600I-4365J9001D01*
G01Y28022700D01*
G03X20332800Y27995800I-21789J-27671D01*
G02X20329900Y27989000I-9995J244D01*
G01X20205200Y27864300D01*
G03X20202300Y27857300I7099J-7042D01*
G01Y27854200D01*
G02X20196100Y27844900I-10011J-43D01*
G02X20185200Y27847100I-3803J9261D01*
G37*
G36*
G01X20491500Y27595600D02*
X20470600Y27616500D01*
G02X20467700Y27623500I7101J7042D01*
G01Y28391500D01*
G02X20470600Y28398500I10001J-42D01*
G01X20484500Y28412400D01*
G02X20491900Y28415400I7152J-7014D01*
G01X20506500Y28414900D01*
G02X20513700Y28411600I-220J-9986D01*
G03X20522600Y28404400I26295J23403D01*
G02X20527700Y28395700I-4900J-8717D01*
G01Y28368900D01*
G03X20533900Y28359700I10011J57D01*
G03X20536200Y28359100I3654J9300D01*
G01X20536300D01*
G02X20544800Y28349200I-1517J-9902D01*
G01Y27647000D01*
G03X20547700Y27640000I9999J42D01*
G01X20564400Y27623300D01*
G02X20567300Y27616300I-7101J-7042D01*
G01Y27611800D01*
G02X20557300Y27601800I-10000J0D01*
G01X20555300D01*
X20553400Y27602500D01*
G03X20515700Y27595500I-13462J-32516D01*
G02X20508800Y27592700I-6937J7192D01*
G01X20498500D01*
G02X20491500Y27595600I42J10001D01*
G37*
G36*
G01X20539300Y26670500D02*
G03X20536000Y26673300I-24394J-25406D01*
G02X20539300Y26691000I5972J8044D01*
G03X20554300Y26699500I-9338J33964D01*
G02X20561200Y26702300I6937J-7192D01*
G01X20590300D01*
G03X20597300Y26705200I-42J9999D01*
G01X20676500Y26784400D01*
G02X20683500Y26787300I7042J-7101D01*
G01X21490300D01*
G03X21497300Y26790200I-42J9999D01*
G01X21526500Y26819400D01*
G02X21533500Y26822300I7042J-7101D01*
G01X22300300D01*
G03X22307300Y26825200I-42J9999D01*
G01X22471800Y26989700D01*
G03X22474700Y26996700I-7099J7042D01*
G01Y27148800D01*
G02X22477500Y27155700I9992J-37D01*
G03X22438000Y27212300I-25475J24305D01*
G02X22428900Y27212800I-4061J9154D01*
G01X22414900Y27221000D01*
G02X22410000Y27228600I5061J8642D01*
G03X22405600Y27242300I-34986J-3680D01*
G02X22405700Y27252300I8729J4913D01*
G01X22414500Y27267300D01*
G02X22423100Y27272300I8653J-4987D01*
G01X22559400D01*
G02X22567800Y27267800I38J-10018D01*
G01X22577000Y27253600D01*
G02X22577800Y27244200I-8385J-5448D01*
G01Y27244100D01*
G03X22584500Y27205700I32216J-14163D01*
G02X22587300Y27198800I-7192J-6937D01*
G01Y26858500D01*
G02X22584400Y26851500I-10001J42D01*
G01X22523500Y26790600D01*
G02X22516500Y26787700I-7042J7101D01*
G01X21944700D01*
G03X21937700Y26784800I42J-9999D01*
G01X21913500Y26760600D01*
G02X21906500Y26757700I-7042J7101D01*
G01X21114700D01*
G03X21107700Y26754800I42J-9999D01*
G01X21023500Y26670600D01*
G02X21016500Y26667700I-7042J7101D01*
G01X20546200D01*
G02X20539300Y26670500I37J9992D01*
G37*
G36*
G01X20510000Y29469900D02*
Y29040000D01*
G02X20500000Y29030000I-10000J0D01*
G01X20060100D01*
G02X20050100Y29040000I0J10000D01*
G01Y29383800D01*
G02X20146200Y29479900I96100J0D01*
G01X20500000D01*
G02X20510000Y29469900I0J-10000D01*
G37*
G36*
G01X20256600Y28249600D02*
G03X20239600Y28266600I-46600J-29600D01*
G02X20235000Y28275000I5403J8418D01*
G01Y28292000D01*
G02X20239600Y28300400I10003J-18D01*
G03X20162300Y28374700I-29566J46601D01*
G01X20162200D01*
G02X20153600Y28369700I-8651J4985D01*
G01X20144500D01*
G03X20137500Y28366800I42J-9999D01*
G01X20121300Y28350600D01*
G02X20110400Y28348400I-7097J7061D01*
G02X20104200Y28357700I3811J9257D01*
G01Y28558000D01*
G02X20107100Y28565000I10001J-42D01*
G01X20117500Y28575400D01*
G02X20124500Y28578300I7042J-7101D01*
G01X20153600D01*
G02X20162200Y28573300I-51J-9985D01*
G01X20162300D01*
G03X20256600Y28571400I47727J27710D01*
G02X20265000Y28576000I8418J-5403D01*
G01X20282000D01*
G02X20290400Y28571400I-18J-10003D01*
G03X20307400Y28554400I46600J29600D01*
G02X20312000Y28546000I-5403J-8418D01*
G01Y28529000D01*
G02X20307400Y28520600I-10003J18D01*
G03X20359100Y28423400I29560J-46627D01*
G01X20359200D01*
G02X20368600Y28422700I4046J-9128D01*
G01X20382800Y28413400D01*
G02X20387300Y28405100I-5499J-8351D01*
G01Y28306500D01*
G02X20384400Y28299500I-10001J42D01*
G01X20360800Y28275900D01*
G02X20351200Y28273300I-7072J7090D01*
G01Y28273400D01*
G03X20290400Y28249600I-14166J-53373D01*
G02X20282000Y28245000I-8418J5403D01*
G01X20265000D01*
G02X20256600Y28249600I18J10003D01*
G37*
G36*
G01X20050100Y29371400D02*
Y29383800D01*
G02X20146200Y29479900I96100J0D01*
G01X20170100D01*
G02X20180100Y29469900I0J-10000D01*
G01Y29469800D01*
G02X20173800Y29460500I-10007J-5D01*
G03X20069000Y29366700I76161J-190538D01*
G02X20060200Y29361400I-8821J4690D01*
G01X20060100D01*
G02X20050100Y29371400I-6J9994D01*
G37*
G36*
G01X21015000Y17730000D02*
Y18430000D01*
X24615000D01*
Y18730000D01*
X21015000D01*
Y19430000D01*
X22815000D01*
Y20130000D01*
X23015000D01*
Y19230000D01*
X21215000D01*
Y18930000D01*
X24815000D01*
Y18230000D01*
X21215000D01*
Y17930000D01*
X22755000D01*
Y17730000D01*
X21015000D01*
G37*
G36*
G01X21618000Y27805700D02*
X21608000Y27816000D01*
G02X21605100Y27823100I7076J7033D01*
G01Y27823200D01*
G03X21599000Y27843700I-35213J680D01*
G02X21597200Y27849800I8184J5731D01*
G01X21597500Y27855800D01*
G02X21600400Y27862400I9995J-455D01*
G01X21602400Y27864400D01*
G02X21609400Y27867300I7042J-7101D01*
G01X21860300D01*
G03X21867300Y27870200I-42J9999D01*
G01X21911500Y27914400D01*
G02X21918500Y27917300I7042J-7101D01*
G01X22093800D01*
G02X22100700Y27914500I-37J-9992D01*
G03X22148100Y27913400I24304J25488D01*
G02X22158000Y27915300I6576J-7522D01*
G01X22163200Y27913400D01*
G02X22169800Y27904000I-3396J-9402D01*
G01Y27901000D01*
G02X22166900Y27894000I-10001J42D01*
G01X22158500Y27885600D01*
G02X22151500Y27882700I-7042J7101D01*
G01X21974700D01*
G03X21967700Y27879800I42J-9999D01*
G01X21908500Y27820600D01*
G02X21901500Y27817700I-7042J7101D01*
G01X21774700D01*
G03X21767700Y27814800I42J-9999D01*
G01X21758500Y27805600D01*
G02X21751500Y27802700I-7042J7101D01*
G01X21625200D01*
G02X21618000Y27805700I-56J10006D01*
G37*
G36*
G01X22398600Y27750900D02*
X22390100Y27735400D01*
G02X22381400Y27730200I-8764J4785D01*
G01X21471000D01*
G02X21464000Y27733100I42J10000D01*
G01X21435700Y27761400D01*
G02X21432800Y27768400I7100J7042D01*
G01Y27770800D01*
X21434200Y27774200D01*
X21435600Y27775700D01*
G03X21395800Y27832200I-25460J24333D01*
G02X21389300Y27831600I-4118J9105D01*
G01X21383100Y27833200D01*
G02X21377700Y27836700I2460J9711D01*
G03X21377200Y27837400I-28847J-20077D01*
G01X21373900Y27841300D01*
X21372700Y27844500D01*
Y27845800D01*
X21386300Y27859400D01*
G02X21393300Y27862300I7042J-7100D01*
G01X21488500D01*
X21492100Y27860800D01*
X21492300Y27860600D01*
Y27802300D01*
G03X21495200Y27795300I10000J42D01*
G01X21530300Y27760200D01*
G03X21537300Y27757300I7042J7100D01*
G01X21770300D01*
G03X21777300Y27760200I-42J10000D01*
G01X21786500Y27769400D01*
G02X21793500Y27772300I7042J-7100D01*
G01X21920300D01*
G03X21927300Y27775200I-42J10000D01*
G01X21986500Y27834400D01*
G02X21993500Y27837300I7042J-7100D01*
G01X22170300D01*
G03X22177300Y27840200I-42J10000D01*
G01X22212300Y27875200D01*
G03X22215200Y27882200I-7100J7042D01*
G01Y28179000D01*
G02X22218100Y28186000I10000J-42D01*
G01X22264800Y28232700D01*
G03X22267700Y28239700I-7100J7042D01*
G01Y28686500D01*
G02X22270600Y28693500I10000J-42D01*
G01X22669000Y29091900D01*
G02X22676000Y29094800I7042J-7100D01*
G01X23593700D01*
G02X23602900Y29088600I-40J-9985D01*
G01X23603000D01*
G02X23600800Y29077700I-9266J-3802D01*
G01X23508700Y28985600D01*
G02X23501700Y28982700I-7042J7100D01*
G01X22654700D01*
G03X22647700Y28979800I42J-10000D01*
G01X22440200Y28772300D01*
G03X22437300Y28765300I7100J-7042D01*
G01Y28603500D01*
G02X22434400Y28596500I-10000J42D01*
G01X22310200Y28472300D01*
G03X22307300Y28465300I7100J-7042D01*
G01Y27894700D01*
G03X22310200Y27887700I10000J42D01*
G01X22336900Y27861000D01*
G02X22339800Y27854200I-7097J-7045D01*
G03X22390800Y27823500I35208J777D01*
G01X22391800Y27824000D01*
X22394100Y27824600D01*
X22395300D01*
G02X22405300Y27814600I0J-10000D01*
G01Y27809200D01*
X22403900Y27805800D01*
X22402500Y27804300D01*
G03X22398300Y27761100I25496J-24283D01*
G02X22398600Y27750900I-8430J-5352D01*
G37*
G36*
G01X20680000Y28900000D02*
Y29349900D01*
G02X20690000Y29359900I10000J0D01*
G01X20799900D01*
G02X20809900Y29349900I0J-10000D01*
G01Y29159900D01*
G03X20819900Y29149900I10000J0D01*
G01X20990100D01*
G03X21000100Y29159900I0J10000D01*
G01Y29349900D01*
G02X21010100Y29359900I10000J0D01*
G01X21269900D01*
G02X21279900Y29349900I0J-10000D01*
G01Y29159900D01*
G03X21289900Y29149900I10000J0D01*
G01X21460100D01*
G03X21470100Y29159900I0J10000D01*
G01Y29349900D01*
G02X21480100Y29359900I10000J0D01*
G01X21590000D01*
G02X21600000Y29349900I0J-10000D01*
G01Y28900000D01*
G02X21590000Y28890000I-10000J0D01*
G01X21373800D01*
G02X21366300Y28893400I12J9999D01*
G03X21313700I-26300J-23400D01*
G02X21306200Y28890000I-7512J6599D01*
G01X21270200D01*
G02X21260200Y28900000I0J10000D01*
G03X21202700Y28927200I-35183J0D01*
G02X21196400Y28925000I-6259J7803D01*
G01X21183600D01*
G02X21177300Y28927200I-41J10003D01*
G03X21132100Y28926800I-22361J-27195D01*
G01Y28926700D01*
G02X21126400Y28924400I-6412J7677D01*
G01X21114500Y28923500D01*
G02X21108500Y28924900I-838J9967D01*
G03X21067500Y28922100I-18553J-29907D01*
G02X21059900Y28919900I-6346J7697D01*
G01X21045300Y28921700D01*
G02X21038500Y28925700I1250J9905D01*
G03X20974900Y28908200I-28520J-20671D01*
G02X20971700Y28901800I-9922J961D01*
G01X20961700Y28892600D01*
G02X20955000Y28890000I-6728J7404D01*
G01X20690000D01*
G02X20680000Y28900000I0J10000D01*
G37*
G36*
G01X22343300Y26379500D02*
X22343200D01*
G03X22324800Y26385200I-19219J-29493D01*
G02X22318000Y26388100I244J9995D01*
G01X22275600Y26430500D01*
G02X22272700Y26437500I7101J7042D01*
G01Y26558800D01*
G02X22275500Y26565700I9992J-37D01*
G03X22285200Y26591400I-25490J24301D01*
G02X22288000Y26598800I9981J453D01*
G01X22298000Y26609200D01*
G02X22305200Y26612300I7238J-6899D01*
G01X22477200D01*
G02X22484300Y26609400I55J-10008D01*
G01X22494400Y26599400D01*
G02X22497300Y26592300I-7119J-7050D01*
G03X22526100Y26557900I35195J210D01*
G02X22531600Y26554800I-1910J-9817D01*
G01X22535700Y26550300D01*
G02X22538300Y26543600I-7398J-6725D01*
G01Y26474600D01*
G02X22535400Y26467600I-10001J42D01*
G01X22445900Y26378200D01*
G02X22438700Y26375200I-7135J6985D01*
G01X22424100Y26375500D01*
G02X22417000Y26378800I327J9992D01*
G01X22416900D01*
G03X22367600Y26381300I-25920J-23804D01*
G02X22361700Y26378800I-6642J7464D01*
G01X22349500Y26377900D01*
G02X22343300Y26379500I-740J9944D01*
G37*
G36*
G01X22963400Y26684000D02*
X22963500D01*
G03X22960600Y26712300I-33485J10867D01*
G02X22960700Y26722300I8729J4913D01*
G01X22969500Y26737300D01*
G02X22978100Y26742300I8653J-4987D01*
G01X23138900D01*
G02X23148900Y26732300I0J-10000D01*
G01Y26732200D01*
G02X23142400Y26722900I-10005J71D01*
G03X23130700Y26715500I12608J-32884D01*
G02X23123800Y26712700I-6937J7192D01*
G01X23084700D01*
G03X23077700Y26709800I42J-9999D01*
G01X23028500Y26660600D01*
G02X23021500Y26657700I-7042J7101D01*
G01X22982500D01*
G02X22974400Y26661800I-19J10015D01*
G01X22964900Y26675000D01*
G02X22963400Y26684000I8037J5964D01*
G37*
G36*
G01X22526700Y27974000D02*
Y28005500D01*
G02X22529600Y28012500I10001J-42D01*
G01X22561500Y28044400D01*
G02X22568500Y28047300I7042J-7101D01*
G01X22645300D01*
G03X22652300Y28050200I-42J9999D01*
G01X22655100Y28053000D01*
G02X22663100Y28055900I7081J-7049D01*
G01X22678600Y28054500D01*
G02X22685900Y28050200I-951J-9962D01*
G01Y28050100D01*
G03X22712000Y28105100I29069J19898D01*
G02X22704400Y28107700I-844J9941D01*
G01X22693400Y28117700D01*
G02X22690200Y28125100I6810J7337D01*
G01Y28664000D01*
G02X22693100Y28671000I10001J-42D01*
G01X22694400Y28672300D01*
X22881500D01*
G02X22888500Y28669400I-42J-10001D01*
G01X22945100Y28612800D01*
G03X22952100Y28609900I7042J7099D01*
G01X23102700D01*
G03X23109700Y28612800I-42J9999D01*
G01X23213800Y28716900D01*
G02X23220800Y28719800I7042J-7101D01*
G01X24412800D01*
G03X24419800Y28722700I-42J9999D01*
G01X24449000Y28751900D01*
G02X24455800Y28754800I7044J-7095D01*
G03X24462300Y28755600I-1030J35172D01*
G01X24462400D01*
G02X24471500Y28752900I2044J-9796D01*
G01X24471600Y28752800D01*
G02Y28738700I-7097J-7050D01*
G01X24388500Y28655600D01*
G02X24381500Y28652700I-7042J7101D01*
G01X23379700D01*
G03X23372700Y28649800I42J-9999D01*
G01X23258500Y28535600D01*
G02X23251500Y28532700I-7042J7101D01*
G01X22984700D01*
G03X22977700Y28529800I42J-9999D01*
G01X22950200Y28502300D01*
G03X22947300Y28495300I7099J-7042D01*
G01Y28088500D01*
G02X22944400Y28081500I-10001J42D01*
G01X22873500Y28010600D01*
G02X22866500Y28007700I-7042J7101D01*
G01X22588700D01*
G03X22581700Y28004800I42J-9999D01*
G01X22543800Y27966900D01*
G02X22532900Y27964700I-7097J7061D01*
G02X22526700Y27974000I3811J9257D01*
G37*
G36*
G01X22381500Y27889600D02*
G03X22375800Y27890200I-6523J-34595D01*
G02X22369000Y27893100I244J9995D01*
G01X22355600Y27906500D01*
G02X22352700Y27913500I7101J7042D01*
G01Y28446500D01*
G02X22355600Y28453500I10001J-42D01*
G01X22405100Y28503000D01*
G02X22413600Y28505800I7043J-7079D01*
G01X22429600Y28503500D01*
G02X22437000Y28498300I-1427J-9895D01*
G03X22484700Y28546000I31000J16700D01*
G02X22479500Y28553400I4695J8827D01*
G01X22477200Y28569400D01*
G02X22480000Y28577900I9879J1457D01*
G01X22481200Y28579100D01*
X22482700Y28582700D01*
Y28746500D01*
G02X22485600Y28753500I10001J-42D01*
G01X22666500Y28934400D01*
G02X22673500Y28937300I7042J-7101D01*
G01X23511000D01*
G02X23520300Y28931100I43J-10011D01*
G02X23518100Y28920200I-9261J-3803D01*
G01X23473500Y28875600D01*
G02X23466500Y28872700I-7042J7101D01*
G01X22694700D01*
G03X22687700Y28869800I42J-9999D01*
G01X22530200Y28712300D01*
G03X22527300Y28705300I7099J-7042D01*
G01Y28463500D01*
G02X22524400Y28456500I-10001J42D01*
G01X22460200Y28392300D01*
G03X22457300Y28385300I7099J-7042D01*
G01Y28147100D01*
G02X22453700Y28139500I-9987J78D01*
G01X22441900Y28129500D01*
G02X22433700Y28127400I-6348J7729D01*
G03X22409700Y28062400I-6114J-34673D01*
G01X22409800D01*
G02X22414600Y28055000I-5148J-8596D01*
G01X22416600Y28039200D01*
G02X22413800Y28030900I-9916J-1277D01*
G01X22408200Y28025300D01*
G03X22405300Y28018300I7099J-7042D01*
G01Y27909300D01*
G02X22401700Y27901600I-10010J-11D01*
G01X22389700Y27891700D01*
G02X22381500Y27889600I-6346J7721D01*
G37*
G36*
G01X25789900Y29020000D02*
X25340000D01*
G02X25330000Y29030000I0J10000D01*
G01Y29469900D01*
G02X25340000Y29479900I10000J0D01*
G01X25703900D01*
G02X25799900Y29383800I-100J-96100D01*
G01Y29030000D01*
G02X25789900Y29020000I-10000J0D01*
G37*
G36*
G01X25703800Y29479900D02*
G02X25799900Y29383800I0J-96100D01*
G01Y29317800D01*
G02X25789900Y29307800I-10014J14D01*
G01X25789800D01*
G02X25780100Y29315600I59J10005D01*
G01Y29315700D01*
G03X25690600Y29442900I-200082J-45694D01*
G01X25690500D01*
G02X25686300Y29454100I5409J8416D01*
G01X25691700Y29472700D01*
G02X25701300Y29479900I9611J-2814D01*
G01X25703800D01*
G37*
%LPC*%
G75*
G36*
G01X21629300Y28629500D02*
G02X21570700I-29300J-19500D01*
G03Y28640500I-8374J5500D01*
G02X21629300I29300J19500D01*
G03Y28629500I8374J-5500D01*
G37*
G36*
G01X22126400Y28422000D02*
G02Y28478000I-21400J28000D01*
G03X22138600I6100J7933D01*
G02Y28422000I21400J-28000D01*
G03X22126400I-6100J-7933D01*
G37*
G36*
G01X25650100Y28630200D02*
G02X25519900Y28505000I-4787J-125322D01*
G02X25640000Y28630200I124521J755D01*
G01X25650100D01*
G37*
G36*
G01X21621800Y28209500D02*
G02Y28260500I-24300J25500D01*
G03X21628700Y28257700I6936J7191D01*
G01X22021300D01*
G03X22028300Y28260600I-42J10000D01*
G01X22028900Y28261200D01*
X22032500Y28262700D01*
X22048800D01*
G03X22055700Y28265500I-36J9991D01*
G02X22053100Y28217300I24295J-25481D01*
G01X22051300D01*
X22047700Y28215800D01*
X22047100Y28215200D01*
G02X22040100Y28212300I-7042J7100D01*
G01X21628700D01*
G03X21621800Y28209500I36J-9991D01*
G37*
G36*
G01X23480700Y27371500D02*
G02Y27428500I-20700J28500D01*
G03X23504300I11800J16238D01*
G02Y27371500I20700J-28500D01*
G03X23480700I-11800J-16238D01*
G37*
G36*
G01X24774800Y27146900D02*
X24775300Y27145900D01*
G02X24712700I-31300J-16100D01*
G01X24713200Y27146900D01*
X24713800Y27149200D01*
Y27254700D01*
G02X24716700Y27261700I10000J-42D01*
G01X24879100Y27424200D01*
G03X24881500Y27428000I-7048J7109D01*
G01Y27428100D01*
G02X24925800Y27383800I33500J-10800D01*
G01X24925700D01*
G03X24921900Y27381400I3309J-9448D01*
G01X24777100Y27236700D01*
G03X24774200Y27229700I7100J-7042D01*
G01Y27149200D01*
X24774800Y27146900D01*
G37*
G36*
G01X23894300Y26995500D02*
G02X23845700I-24300J-25500D01*
G03Y27024500I-13880J14500D01*
G02X23894300I24300J25500D01*
G03Y26995500I13880J-14500D01*
G37*
G36*
G01X20572700Y26911700D02*
G02X20536700Y26947700I-35200J800D01*
G03X20543500Y26950600I-245J9997D01*
G01X20636700Y27043800D01*
G02X20643700Y27046700I7042J-7100D01*
G01X21979800D01*
G03X21988300Y27051300I76J10012D01*
G01X21998800Y27067800D01*
X21999100Y27072800D01*
X21998000Y27075200D01*
G02X22062000I32000J14800D01*
G01X22060900Y27072800D01*
X22061200Y27067800D01*
X22071700Y27051300D01*
G03X22080200Y27046700I8424J5412D01*
G01X22197500D01*
X22201100Y27048200D01*
X22201800Y27048900D01*
X22202500Y27055800D01*
G02X22238300Y27017300I35031J-3320D01*
G01X22236300Y27017200D01*
X22232900Y27015800D01*
X22221300Y27004200D01*
G02X22214300Y27001300I-7042J7100D01*
G01X20662500D01*
G03X20655500Y26998400I42J-10000D01*
G01X20575600Y26918500D01*
G03X20572700Y26911700I7097J-7045D01*
G37*
G36*
G01X25610500Y26369300D02*
G02X25562400Y26372000I-25489J-24293D01*
G03X25564000Y26401200I-12950J15353D01*
G02X25612100Y26398500I25489J24293D01*
G03X25610500Y26369300I12950J-15353D01*
G37*
G36*
G01X23461200Y26286000D02*
Y26246000D01*
G02X23370800I-45200J0D01*
G01Y26323400D01*
G02X23373700Y26330400I10000J-42D01*
G01X23399600Y26356300D01*
G03X23402500Y26363300I-7100J7042D01*
G01Y26699400D01*
G03X23399600Y26706500I-10002J57D01*
G01X23368000Y26738000D01*
G02X23432000Y26802000I32000J32000D01*
G01X23490000Y26743900D01*
G02X23492900Y26736900I-7099J-7042D01*
G01Y26325900D01*
G02X23490000Y26318900I-10000J42D01*
G01X23464100Y26293000D01*
G03X23461200Y26286000I7100J-7042D01*
G37*
G36*
G01X22195600Y26179200D02*
G02X22146800Y26182600I-26162J-23586D01*
G03X22148800Y26211400I-12915J15366D01*
G02X22197600Y26208000I26162J23586D01*
G03X22195600Y26179200I12915J-15366D01*
G37*
G36*
G01X22589400Y26159100D02*
G02X22545300Y26165000I-25668J-24090D01*
G03X22549400Y26195900I-10525J17119D01*
G02X22593500Y26190000I25668J24090D01*
G03X22589400Y26159100I10525J-17119D01*
G37*
G36*
G01X22706700Y25806600D02*
X22706800D01*
G02X22576800Y25744300I-36504J-90612D01*
G01Y25744400D01*
G03X22575600Y25752600I-9594J2784D01*
G01X22565800Y25767500D01*
X22562100Y25769800D01*
X22559900Y25770000D01*
G02X22597700Y25815200I4100J34977D01*
G01Y25815100D01*
G03X22603400Y25808900I9528J3039D01*
G01X22619700Y25801900D01*
X22624000Y25802100D01*
X22626000Y25803100D01*
G02X22633700Y25806600I44245J-87119D01*
G01X22633900D01*
G03X22640100Y25815900I-3813J9258D01*
G01Y25853700D01*
G02X22643000Y25860700I10000J-42D01*
G01X22684600Y25902300D01*
G02X22691600Y25905200I7042J-7100D01*
G01X23143400D01*
G03X23150400Y25908100I-42J10000D01*
G01X23379600Y26137300D01*
G02X23386600Y26140200I7042J-7100D01*
G01X23595700D01*
G03X23603800Y26144400I-44J9996D01*
G01X23613300Y26157700D01*
G03X23614700Y26166600I-8091J5833D01*
G01Y26166700D01*
G02X23620200Y26199600I33313J11341D01*
G03Y26224400I-15809J12400D01*
G02X23675800I27800J21600D01*
G03Y26199600I15809J-12400D01*
G02X23681300Y26166700I-27813J-21559D01*
G01Y26166600D01*
G03X23682700Y26157700I9491J-3067D01*
G01X23692200Y26144400D01*
G03X23700300Y26140200I8144J5796D01*
G01X23976000D01*
X23978300Y26140800D01*
X23979300Y26141300D01*
G02X24011500I16100J-31300D01*
G01X24012500Y26140800D01*
X24014800Y26140200D01*
X24553400D01*
G02X24560400Y26137300I-42J-9999D01*
G01X24646900Y26050900D01*
G03X24650700Y26048500I7109J7048D01*
G01X24650900D01*
G03X24663400Y26061800I3185J9530D01*
G02X24695400Y26039800I32628J13186D01*
G01X24693300D01*
X24689400Y26038200D01*
X24676300Y26024100D01*
X24674900Y26020100D01*
X24675100Y26018000D01*
G02X24606500Y26004100I-35084J-3082D01*
G01Y26004300D01*
X24605700Y26006500D01*
X24535400Y26076900D01*
G03X24528400Y26079800I-7043J-7101D01*
G01X24014800D01*
X24012500Y26079200D01*
X24011500Y26078700D01*
G02X23979300I-16100J31300D01*
G01X23978300Y26079200D01*
X23976000Y26079800D01*
X23411600D01*
G03X23404600Y26076900I42J-10000D01*
G01X23360100Y26032400D01*
G03X23357300Y26023800I7075J-7059D01*
G01X23360200Y26005200D01*
X23362900Y26001400D01*
X23365100Y26000300D01*
G02X23317700Y25952900I-16100J-31300D01*
G01X23316600Y25955100D01*
X23312800Y25957800D01*
X23294200Y25960700D01*
G03X23285600Y25957900I-1541J-9875D01*
G01X23175400Y25847700D01*
G02X23168400Y25844800I-7042J7100D01*
G01X22716600D01*
G03X22709600Y25841900I42J-10000D01*
G01X22703400Y25835700D01*
G03X22700500Y25828700I7100J-7042D01*
G01Y25815900D01*
G03X22706700Y25806600I10013J-42D01*
G37*
G36*
G01X21742300Y25758500D02*
G02X21688000Y25807700I-87969J-42523D01*
G03X21714900Y25824700I6903J18859D01*
G02X21756600Y25786900I35077J-3205D01*
G03X21742300Y25758500I3806J-19717D01*
G37*
G36*
G01X23708600Y25155500D02*
G02X23655700Y25109500I-28614J-20512D01*
G03X23648800Y25112300I-6935J-7189D01*
G01X22774700D01*
G02X22767700Y25115200I42J10000D01*
G01X22650500Y25232400D01*
G02X22647600Y25239400I7100J7042D01*
G01Y25362700D01*
X22643800Y25367900D01*
X22640600Y25368900D01*
G02X22700000I29700J93100D01*
G01X22696800Y25367900D01*
X22693000Y25362700D01*
Y25258200D01*
G03X22695900Y25251200I10000J42D01*
G01X22786500Y25160600D01*
G03X22793500Y25157700I7042J7100D01*
G01X23648800D01*
G03X23655700Y25160500I-37J9994D01*
G02X23667400Y25167900I24307J-25482D01*
G01X23670300Y25169000D01*
X23673900Y25174100D01*
Y25177300D01*
G03X23663900Y25187300I-10000J0D01*
G01X22934700D01*
G02X22927700Y25190200I42J10000D01*
G01X22904500Y25213400D01*
G02X22901600Y25220400I7100J7042D01*
G01Y25362700D01*
X22897800Y25367900D01*
X22894600Y25368900D01*
G02X22954000I29700J93100D01*
G01X22950800Y25367900D01*
X22947000Y25362700D01*
Y25237200D01*
X22948500Y25233600D01*
X22949400Y25232700D01*
X23929200D01*
X23934700Y25237300D01*
X23935400Y25240900D01*
G02X23944500Y25258800I34628J-6341D01*
G03X23947300Y25265700I-7191J6936D01*
G01Y25513800D01*
G03X23944500Y25520700I-9991J-36D01*
G02X23995500I25500J24300D01*
G03X23992700Y25513800I7191J-6936D01*
G01Y25265800D01*
G03X23995500Y25258800I10004J-58D01*
G02X23995700Y25258600I-24792J-24992D01*
G03X23996100Y25258200I7272J6872D01*
G02X23969800Y25197400I-24086J-25669D01*
G01X23967600Y25197500D01*
X23963700Y25196100D01*
X23957800Y25190200D01*
G02X23950800Y25187300I-7042J7100D01*
G01X23724900D01*
G03X23716000Y25181900I-17J-10006D01*
G01X23707800Y25165900D01*
G03X23708600Y25155500I8901J-4546D01*
G37*
G36*
G01X21411200Y24974200D02*
G02X21375200Y25010200I-35200J800D01*
G03X21382000Y25013100I-245J9997D01*
G01X21453200Y25084300D01*
G02X21460200Y25087200I7042J-7100D01*
G01X21731000D01*
G03X21738000Y25090100I-42J10000D01*
G01X21884400Y25236500D01*
G03X21887300Y25243500I-7100J7042D01*
G01Y25346000D01*
X21885800Y25349600D01*
X21885600Y25349800D01*
Y25362700D01*
X21881800Y25367900D01*
X21878600Y25368900D01*
G02X21939500Y25369400I29688J93093D01*
G01X21936400Y25368300D01*
X21932700Y25363200D01*
Y25224700D01*
G02X21929800Y25217700I-10000J42D01*
G01X21756800Y25044700D01*
G02X21749800Y25041800I-7042J7100D01*
G01X21479000D01*
G03X21472000Y25038900I42J-10000D01*
G01X21463000Y25029900D01*
G03Y25015700I7042J-7100D01*
G01X21465500Y25013200D01*
X21472600Y25012400D01*
X21475600Y25014400D01*
G02X21460000Y24980900I19383J-29408D01*
G03X21453300Y24989300I-9953J-1067D01*
G01X21436200Y24995200D01*
G03X21425900Y24992800I-3221J-9479D01*
G01X21414100Y24981000D01*
G03X21411200Y24974200I7097J-7045D01*
G37*
G36*
G01X22441800Y24905600D02*
G02X22390800I-25500J-24300D01*
G03X22393600Y24912500I-7191J6936D01*
G01Y24987700D01*
G03X22388500Y24996400I-10003J-19D01*
G01X22373300Y25005000D01*
G03X22363200Y25004800I-4880J-8706D01*
G01X22363100D01*
G02X22320700Y25009500I-18113J30194D01*
G03X22313800Y25012300I-6936J-7192D01*
G01X22202700D01*
G02X22195700Y25015200I42J10000D01*
G01X22142500Y25068400D01*
G02X22139600Y25075400I7100J7042D01*
G01Y25362700D01*
X22135800Y25367900D01*
X22132600Y25368900D01*
G02X22192000I29700J93100D01*
G01X22188800Y25367900D01*
X22185000Y25362700D01*
Y25094200D01*
G03X22187900Y25087200I10000J42D01*
G01X22214500Y25060600D01*
G03X22221500Y25057700I7042J7100D01*
G01X22313800D01*
G03X22320700Y25060500I-36J9992D01*
G02X22363100Y25065200I24287J-25494D01*
G01X22363200D01*
G03X22373300Y25065000I5220J8506D01*
G01X22388500Y25073600D01*
G03X22393600Y25082300I-4903J8719D01*
G01Y25362700D01*
X22389800Y25367900D01*
X22386600Y25368900D01*
G02X22446000I29700J93100D01*
G01X22442800Y25367900D01*
X22439000Y25362700D01*
Y24912500D01*
G03X22441800Y24905600I9991J36D01*
G37*
G36*
G01X23697500Y24794300D02*
G02X23646500I-25500J-24300D01*
G03X23649300Y24801200I-7191J6936D01*
G01Y24912300D01*
G02X23652200Y24919300I10000J-42D01*
G01X23709300Y24976400D01*
G03X23711800Y24986500I-7042J7102D01*
G01X23706500Y25003500D01*
G03X23698800Y25010400I-9566J-2929D01*
G01X23698700D01*
G02X23739600Y25051300I6300J34600D01*
G01Y25051200D01*
G03X23746500Y25043500I9829J1866D01*
G01X23763500Y25038200D01*
G03X23773600Y25040700I2998J9542D01*
G01X23802700Y25069800D01*
G02X23809700Y25072700I7042J-7100D01*
G01X24286500D01*
G03X24293500Y25075600I-42J10000D01*
G01X24324400Y25106500D01*
G03X24327300Y25113500I-7100J7042D01*
G01Y25138800D01*
G03X24324500Y25145700I-9991J-36D01*
G02X24375500I25500J24300D01*
G03X24372700Y25138800I7191J-6936D01*
G01Y25094700D01*
G02X24369800Y25087700I-10000J42D01*
G01X24312300Y25030200D01*
G02X24305300Y25027300I-7042J7100D01*
G01X23828500D01*
G03X23821500Y25024400I42J-10000D01*
G01X23809800Y25012700D01*
G03X23807100Y25003600I7094J-7055D01*
G01X23810600Y24987000D01*
G03X23816700Y24979800I9779J2101D01*
G02X23829300Y24922800I-12897J-32744D01*
G01X23827900Y24921300D01*
X23826500Y24917900D01*
Y24914700D01*
G03X23829400Y24907700I10000J42D01*
G01X23846500Y24890600D01*
G03X23853500Y24887700I7042J7100D01*
G01X23874100D01*
G03X23884100Y24897700I0J10000D01*
G01Y24897800D01*
G03X23879800Y24906000I-10000J-16D01*
G02X23899100Y24970100I20095J28905D01*
G01X23901100Y24970200D01*
X23904500Y24971600D01*
X23916100Y24983200D01*
G02X23923100Y24986100I7042J-7100D01*
G01X24364900D01*
G03X24371900Y24989000I-42J10000D01*
G01X24449400Y25066500D01*
G03X24452300Y25073500I-7100J7042D01*
G01Y25149900D01*
G03X24449800Y25156600I-10017J79D01*
G02X24501500Y25155700I26265J23410D01*
G03X24498700Y25148800I7192J-6936D01*
G01Y25130400D01*
X24497700Y25129400D01*
Y25054700D01*
G02X24494800Y25047700I-10000J42D01*
G01X24384600Y24937500D01*
G02X24370400I-7100J7042D01*
G01X24370100Y24937800D01*
G03X24363100Y24940700I-7042J-7100D01*
G01X23939900D01*
X23936300Y24939200D01*
X23935600Y24938500D01*
X23934900Y24931700D01*
Y24931500D01*
G02X23930600Y24917600I-35051J3228D01*
G03X23930700Y24907700I8723J-4862D01*
G01X23939400Y24892700D01*
G03X23948000Y24887700I8658J4997D01*
G01X24401500D01*
G03X24408500Y24890600I-42J10000D01*
G01X24726900Y25209000D01*
G03X24729800Y25216000I-7100J7042D01*
G01Y25301300D01*
G03X24727000Y25308200I-9991J-36D01*
G02X24778000I25500J24300D01*
G03X24775200Y25301300I7191J-6936D01*
G01Y25197200D01*
G02X24772300Y25190200I-10000J42D01*
G01X24427300Y24845200D01*
G02X24420300Y24842300I-7042J7100D01*
G01X23834700D01*
G02X23827700Y24845200I42J10000D01*
G01X23784000Y24888900D01*
G02X23781100Y24895900I7100J7042D01*
G01Y24915900D01*
G03X23778400Y24922800I-10012J61D01*
G02X23771100Y24934200I25416J24312D01*
G01X23770100Y24936600D01*
X23766400Y24939800D01*
X23747300Y24943800D01*
G03X23738200Y24941100I-2045J-9794D01*
G01X23697600Y24900500D01*
G03X23694700Y24893500I7100J-7042D01*
G01Y24801200D01*
G03X23697500Y24794300I9991J36D01*
G37*
G36*
G01X22390300Y24687300D02*
X21294700D01*
G02X21287700Y24690200I42J10000D01*
G01X21081000Y24896900D01*
G03X21074200Y24899800I-7045J-7097D01*
G02X21110200Y24935800I800J35200D01*
G01X21110300Y24933800D01*
X21111700Y24930400D01*
X21306500Y24735600D01*
G03X21313500Y24732700I7042J7100D01*
G01X22371500D01*
G03X22378500Y24735600I-42J10000D01*
G01X22442700Y24799800D01*
G02X22449700Y24802700I7042J-7100D01*
G01X22488800D01*
G03X22495700Y24805500I-36J9991D01*
G02Y24754500I24300J-25500D01*
G03X22488800Y24757300I-6936J-7191D01*
G01X22468500D01*
G03X22461500Y24754400I42J-10000D01*
G01X22397300Y24690200D01*
G02X22390300Y24687300I-7042J7100D01*
G37*
G36*
G01X23126000Y24265000D02*
G02X23087400Y24233200I-3542J-35028D01*
G03X23069500Y24255000I-20008J1821D01*
G02X23108100Y24286800I3542J35028D01*
G03X23126000Y24265000I20008J-1821D01*
G37*
G36*
G01X24539100Y24165200D02*
G02X24502400Y24133000I-1605J-35185D01*
G03X24483400Y24154800I-19999J1749D01*
G02X24520100Y24187000I1605J35185D01*
G03X24539100Y24165200I19999J-1749D01*
G37*
G36*
G01X23274200Y24085100D02*
X23275800Y24086000D01*
G02X23264600Y24033500I16690J-31005D01*
G01Y24033600D01*
G03X23258700Y24037300I-7949J-6122D01*
G01X23244200Y24040300D01*
X23240800Y24039900D01*
X23239200Y24039000D01*
G02X23189600Y24082600I-16721J30991D01*
G01X23190500Y24084900D01*
X23190000Y24089600D01*
X23178000Y24107500D01*
X23173800Y24109800D01*
X23171300D01*
G02X23204900Y24132400I721J35205D01*
G01X23204000Y24130100D01*
X23204500Y24125400D01*
X23216500Y24107500D01*
X23220700Y24105200D01*
X23223200D01*
G02X23250400Y24091500I-681J-35203D01*
G01Y24091400D01*
G03X23256300Y24087700I7949J6122D01*
G01X23270800Y24084700D01*
X23274200Y24085100D01*
G37*
G36*
G01X20987100Y23961500D02*
G02X20953100Y24014400I-94789J-23547D01*
G03X20985400Y24026500I12518J15745D01*
G02X21011500Y23985800I34605J-6527D01*
G03X20987100Y23961500I-4891J-19489D01*
G37*
G36*
G01X22702900Y23693300D02*
G02Y23746700I-22900J26700D01*
G03X22729100I13100J15273D01*
G02Y23693300I22900J-26700D01*
G03X22702900I-13100J-15273D01*
G37*
G36*
G01X22319300Y23690500D02*
G02X22270700I-24300J-25500D01*
G03Y23719500I-13880J14500D01*
G02X22319300I24300J25500D01*
G03Y23690500I13880J-14500D01*
G37*
G36*
G01X22899000Y23224300D02*
G02X22889200Y23278500I-26490J23196D01*
G03X22901200Y23280400I4752J8835D01*
G03X22901500Y23280700I-6907J7207D01*
G02X22911300Y23226500I26490J-23196D01*
G03X22899300Y23224600I-4752J-8835D01*
G03X22899000Y23224300I6907J-7207D01*
G37*
G36*
G01X22447800Y23263400D02*
G02X22397100Y23260100I-23766J-25987D01*
G03X22396200Y23274000I-7657J6483D01*
G02X22446900Y23277300I23766J25987D01*
G03X22447800Y23263400I7657J-6483D01*
G37*
G36*
G01X20986400Y22133500D02*
X20985400Y22130300D01*
G02Y22189700I-93100J29700D01*
G01X20986400Y22186500D01*
X20991600Y22182700D01*
X21225200D01*
G03X21232200Y22185600I-42J10000D01*
G01X21506400Y22459800D01*
G02X21513400Y22462700I7042J-7100D01*
G01X22051500D01*
G03X22058500Y22465600I-42J10000D01*
G01X22087700Y22494800D01*
G02X22094700Y22497700I7042J-7100D01*
G01X22246500D01*
G03X22253500Y22500600I-42J10000D01*
G01X22325100Y22572200D01*
G02X22332100Y22575100I7042J-7100D01*
G01X22627900D01*
G02X22634900Y22572200I-42J-10000D01*
G01X22701500Y22505600D01*
G03X22708500Y22502700I7042J7100D01*
G01X22867800D01*
G02X22874800Y22499800I-42J-10000D01*
G01X23016500Y22358100D01*
G03X23023300Y22355200I7045J7097D01*
G02X22987300Y22319200I-800J-35200D01*
G01X22987200Y22321200D01*
X22985800Y22324600D01*
X22856000Y22454400D01*
G03X22849000Y22457300I-7042J-7100D01*
G01X22689700D01*
G02X22682700Y22460200I42J10000D01*
G01X22616100Y22526800D01*
G03X22609100Y22529700I-7042J-7100D01*
G01X22476600D01*
G03X22468400Y22525400I21J-10008D01*
G01X22457600Y22509700D01*
X22457000Y22504800D01*
X22457900Y22502500D01*
G02X22392100I-32900J-12500D01*
G01X22393000Y22504800D01*
X22392400Y22509700D01*
X22381600Y22525400D01*
G03X22373400Y22529700I-8221J-5708D01*
G01X22350900D01*
G03X22343900Y22526800I42J-10000D01*
G01X22272300Y22455200D01*
G02X22265300Y22452300I-7042J7100D01*
G01X22113500D01*
G03X22106500Y22449400I42J-10000D01*
G01X22077300Y22420200D01*
G02X22070300Y22417300I-7042J7100D01*
G01X21532200D01*
G03X21525200Y22414400I42J-10000D01*
G01X21251000Y22140200D01*
G02X21244000Y22137300I-7042J7100D01*
G01X20991600D01*
X20986400Y22133500D01*
G37*
G36*
G01X20570000Y21210200D02*
G02Y21073800I70000J-68200D01*
G03X20562900Y21076800I-7141J-6999D01*
G01X20471900D01*
G02X20464900Y21079700I42J10000D01*
G01X20307700Y21236900D01*
G02X20304800Y21243900I7100J7042D01*
G01Y24454600D01*
G02X20307700Y24461600I10000J-42D01*
G01X21177300Y25331200D01*
G03X21179200Y25342700I-7068J7075D01*
G01X21170600Y25359900D01*
G03X21160300Y25365300I-8925J-4500D01*
G01X21160200D01*
G02X21243000Y25448100I-13900J96700D01*
G01Y25448000D01*
G03X21248400Y25437700I9900J-1375D01*
G01X21265600Y25429100D01*
G03X21277100Y25431000I4425J8968D01*
G01X21301100Y25455000D01*
X21302600Y25458800D01*
Y25460800D01*
G02X21399100Y25364300I97700J1200D01*
G01X21397100D01*
X21393300Y25362800D01*
X20960400Y24929900D01*
G03X20957500Y24922900I7100J-7042D01*
G01Y24890500D01*
G03X20962100Y24882100I10005J20D01*
G01X20978500Y24871500D01*
X20983400Y24871100D01*
X20985700Y24872200D01*
G02X21035200Y24840800I14295J-32182D01*
G01X21035300Y24838800D01*
X21036700Y24835400D01*
X21284000Y24588100D01*
G03X21291000Y24585200I7042J7100D01*
G01X22612800D01*
G03X22619700Y24588000I-36J9991D01*
G02Y24537000I24300J-25500D01*
G03X22612800Y24539800I-6936J-7191D01*
G01X21272200D01*
G02X21265200Y24542700I42J10000D01*
G01X21006000Y24801900D01*
G03X20999200Y24804800I-7045J-7097D01*
G02X20985700Y24807800I740J35206D01*
G01X20983400Y24808900D01*
X20978500Y24808500D01*
X20962100Y24797900D01*
G03X20957500Y24789500I5405J-8420D01*
G01Y24523100D01*
G03X20960500Y24516000I9999J41D01*
G02X20824100I-68200J-70000D01*
G03X20827100Y24523100I-6999J7141D01*
G01Y24772400D01*
G03X20820900Y24781600I-9985J-40D01*
G01Y24781700D01*
G03X20810000Y24779500I-3802J-9266D01*
G01X20607300Y24576800D01*
G03X20605400Y24565300I7068J-7075D01*
G01X20614000Y24548100D01*
G03X20624300Y24542700I8925J4500D01*
G01X20624400D01*
G02X20541600Y24459900I13900J-96700D01*
G01Y24460000D01*
G03X20536200Y24470300I-9900J1375D01*
G01X20519000Y24478900D01*
G03X20507500Y24477000I-4425J-8968D01*
G01X20438100Y24407600D01*
G03X20435200Y24400600I7100J-7042D01*
G01Y21297900D01*
G03X20438100Y21290900I10000J42D01*
G01X20518900Y21210100D01*
G03X20525900Y21207200I7042J7100D01*
G01X20562900D01*
G03X20570000Y21210200I-41J9999D01*
G37*
G36*
G01X22798600Y28559500D02*
G02Y28600500I-28600J20500D01*
G03X22831400I16400J11636D01*
G02Y28559500I28600J-20500D01*
G03X22798600I-16400J-11636D01*
G37*
G54D26*
X23413000Y29205000D03*
X22157600Y29097700D03*
X24935000Y29065000D03*
X23672000Y28830000D03*
X21355000Y28760000D03*
X23072000Y28725000D03*
X20696000Y28720000D03*
X25195000Y28595000D03*
X21335500Y28535500D03*
X25152000Y28435000D03*
X23524000Y28380000D03*
X23135000Y28367000D03*
X24228000Y28295000D03*
X23135000Y28275000D03*
X21450000Y28260000D03*
X23510200Y28145000D03*
X21880000Y28130000D03*
X21294800Y28120500D03*
X21600000Y28110000D03*
X24595000Y28055000D03*
X24924000Y27985000D03*
X24581300Y27790000D03*
X25700000Y27770000D03*
X23800000Y27755000D03*
X24105000Y27710000D03*
X25175000Y27624700D03*
X24632400Y27569700D03*
X20228000Y27562300D03*
X24815000Y27525000D03*
X23115000Y27480000D03*
X23835000Y27340000D03*
X25588000Y27310000D03*
X23105000Y27225000D03*
X25516000Y27095000D03*
X25092000Y27010000D03*
X23225000D03*
X25720000Y26835000D03*
X23252000Y26700000D03*
X22070000Y26520000D03*
X24575900Y26434100D03*
X24756000Y26420000D03*
X23344000Y26415000D03*
X21860000Y26360000D03*
X25720000Y26295000D03*
X21130000Y26283800D03*
X20969900D03*
X22845000Y26265000D03*
X23856000Y26220000D03*
X20620000Y26210000D03*
X21575000Y26180000D03*
X22895000Y26150000D03*
X20885000Y26090000D03*
X23055000Y26035000D03*
X20991500Y26023500D03*
X23435000Y26022500D03*
X23696000Y26019800D03*
X23988000Y25980000D03*
X23780000Y25920000D03*
X23997700Y25868300D03*
X24321900Y25687700D03*
X24175000Y25683100D03*
X24448900Y25650000D03*
X24065000Y25355000D03*
X22715000Y25070000D03*
X20768000Y25033500D03*
X23500000Y24870000D03*
X24160000Y24780000D03*
X23525000Y24775200D03*
X24024300Y24772000D03*
X23816000Y24765000D03*
X23400000Y24700000D03*
X22500000Y24340000D03*
X22100000Y24295000D03*
X23006500Y24153500D03*
X21898000Y24125000D03*
X24385000Y24070000D03*
X22000000Y23985000D03*
X23020000Y23981500D03*
X24390000Y23825000D03*
X22968000Y23775000D03*
X23022500Y23679500D03*
X23073000Y23570000D03*
X22535000Y23315000D03*
X24470000Y23305000D03*
X22150000Y23150000D03*
X21835000Y23060000D03*
X23420000Y23045000D03*
X24020000Y22945000D03*
X24255000Y22935000D03*
X24148000Y22895000D03*
X22407500Y22822500D03*
X24470000Y22816400D03*
X23988000Y22695000D03*
X24104000Y22645000D03*
X22420000Y22637500D03*
X24248600Y22595000D03*
X23340000Y22485000D03*
X24490000Y22025000D03*
X24315000Y22000000D03*
X20215000Y21984400D03*
X24555000Y21930000D03*
X24645000Y21695000D03*
X24220000Y21610000D03*
X24150000Y21550000D03*
X22235400Y27795000D03*
X22330000Y26520000D03*
G54D25*
X22157100Y29280000D03*
X21927100D03*
G54D27*
X24990000Y25970000D03*
Y25716000D03*
X23686300D03*
X23432300D03*
X23178300D03*
X22924300D03*
X22416300D03*
X22162300D03*
X21908300D03*
X21146300D03*
X24990000Y25462000D03*
X23686300D03*
X23432300D03*
X23178300D03*
X21654300D03*
X25212300Y24446000D03*
X24958300D03*
X25212300Y24192000D03*
X24958300D03*
X20892300D03*
X20638300D03*
X25212300Y23938000D03*
X24958300D03*
X20638300D03*
X25212300Y23684000D03*
X24958300D03*
X20892300D03*
X20638300D03*
X25212300Y23430000D03*
X24958300D03*
X20892300D03*
X20638300D03*
X25212300Y23176000D03*
X24958300D03*
X20892300D03*
X20638300D03*
X25212300Y22922000D03*
X24958300D03*
X20892300D03*
X20638300D03*
X25212300Y22668000D03*
X24958300D03*
X20892300D03*
X20638300D03*
X25212300Y22414000D03*
X24958300D03*
X20892300D03*
X20638300D03*
X21817800Y22231300D03*
X21563800D03*
X25212300Y22160000D03*
X24958300D03*
X20638300D03*
X21817800Y21977300D03*
X21563800D03*
X25210000Y21650000D03*
X20640000D03*
X25210000Y21396000D03*
X20640000D03*
X25210000Y21142000D03*
%LPD*%
G75*
G54D10*
X20250000Y17850000D03*
Y29270000D03*
X25580000Y17850000D03*
Y29270000D03*
G54D20*
G01X20190000Y28150000D02*
Y28200000D01*
X20210000Y28220000D01*
G01X21150000Y26020000D02*
X21395300D01*
X21400300Y26025000D01*
G01X23995400Y26110000D02*
X23395000D01*
X23160000Y25875000D01*
X22700000D01*
X22670300Y25845300D01*
Y25716000D01*
G01X24640000Y26015000D02*
X24545000Y26110000D01*
X23995400D01*
G01X24744000Y27129800D02*
Y27246300D01*
X24915000Y27417300D01*
G54D11*
X20215000Y18300000D03*
X25645000D03*
Y28505000D03*
G54D21*
G01X20300000Y25760000D02*
X20430000D01*
G01X20300000D02*
Y25645000D01*
G01Y25760000D02*
Y25880000D01*
G01Y25760000D02*
X20165000D01*
G01X23400000Y26770000D02*
X23447700Y26722300D01*
Y26340500D01*
X23416000Y26308800D01*
Y26246000D01*
G54D12*
X20320000Y20490000D03*
X20520000Y20425000D03*
X20075000Y20495000D03*
X20160000Y20305000D03*
X20325000Y20785000D03*
X20565000Y21820000D03*
X20185000Y21355000D03*
X20465000Y21505000D03*
X20600000Y20850000D03*
X20505000Y20645000D03*
X20355000Y21135000D03*
X20090000Y22010000D03*
X20075000Y21555000D03*
X20070000Y21145000D03*
Y20780000D03*
X20250000Y21680000D03*
X20215000Y21984400D03*
X20485000Y22725000D03*
X20530000Y22495000D03*
X20260000Y23100000D03*
X20470000Y22365000D03*
X20250000Y22570000D03*
X20260000Y22865000D03*
X20270000Y23385000D03*
X20080000Y23330000D03*
X20085000Y22705000D03*
X20248000Y22140000D03*
X20092000Y22350000D03*
X20485000Y22960000D03*
X20480000Y23475000D03*
X20250000Y24130000D03*
X20092000Y23735000D03*
X20260000Y23680000D03*
X20270000Y24450000D03*
X20305000Y24620000D03*
X20095000Y24580000D03*
X20365000Y24750000D03*
X20084000Y24295000D03*
X20088000Y23955000D03*
X20500000Y23735000D03*
X20515000Y23980000D03*
X20405000Y25450000D03*
X20435000Y25175000D03*
X20565000Y25305000D03*
X20512000Y25105000D03*
X20285000Y25300000D03*
X20430000Y25000000D03*
X20480000Y26295000D03*
X20325000Y26290000D03*
X20125000Y26135000D03*
X20355000Y26125000D03*
X20085000Y26895000D03*
X20090000Y26995000D03*
X20545000Y27005000D03*
X20520000Y27665000D03*
Y27800000D03*
X20076700Y27620000D03*
X20096000Y27098600D03*
X20210000Y27340000D03*
X20170000Y26595000D03*
X20540000Y27110000D03*
X20524000Y27355000D03*
X20095000Y26750000D03*
X20080000Y27295000D03*
X20090000Y27485000D03*
X20245000Y27480000D03*
X20535000Y26565000D03*
X20330000Y26465000D03*
X20225000Y27780000D03*
X20110000Y27725000D03*
X20160000Y27800000D03*
X20590000Y27502600D03*
X20537500Y26912500D03*
X20530000Y26725000D03*
X20515000Y26645000D03*
X20575000Y26829900D03*
X20540000Y27570000D03*
X20265000Y27260000D03*
X20489900Y26779900D03*
X20190000Y27215000D03*
X20228000Y27562300D03*
X20137500Y28468000D03*
X20285000Y28285000D03*
X20305000Y27995000D03*
X20517300Y28352500D03*
X20508000Y28765000D03*
X20250000Y28975000D03*
X20508000Y28930000D03*
X20520000Y28170000D03*
Y28250000D03*
X20568000Y28870000D03*
X20270000Y28885000D03*
X20368000Y27995000D03*
X20536000Y28640000D03*
X20540000Y28435000D03*
X20570000Y28530000D03*
X20190000Y28150000D03*
X21800000Y18900000D03*
X21040000Y19010000D03*
X21035000Y18755000D03*
X21245000Y18890000D03*
X21500000Y18760000D03*
X21810000Y18400000D03*
X21840000Y17905000D03*
X22055000Y17770000D03*
X21520000Y18265000D03*
X21045000Y18195000D03*
X21180000Y18060000D03*
X21045000Y17780000D03*
X21295000Y17905000D03*
X21515000Y17770000D03*
X21224000Y18395000D03*
X21635000Y20515000D03*
X21105000Y20465000D03*
X20865000Y20590000D03*
X21880000Y20535000D03*
X21360000Y20580000D03*
X20800000Y20295000D03*
X21355000D03*
X21810000Y20290000D03*
X22020000Y19400000D03*
X21725000Y19255000D03*
X21175000Y19235000D03*
X21350000Y19395000D03*
X21050000D03*
X22035000Y21160000D03*
X22025000Y21305000D03*
X21805000Y21380000D03*
X21955000Y21480000D03*
X21935000Y21630000D03*
X21970000Y21895000D03*
X21690000Y21885000D03*
X21035000Y21715000D03*
X21395000Y21710000D03*
X21935000Y21790000D03*
X21865000Y21215000D03*
X20770000Y22050000D03*
X20830000Y21435000D03*
X20820000Y21650000D03*
X21275000Y21550000D03*
X21255000Y21840000D03*
X21885000Y20745000D03*
X20870000Y20940000D03*
X21375000Y21245000D03*
X21345000Y20920000D03*
X21905000Y21030000D03*
X20910000Y21185000D03*
X20685000Y21940000D03*
X21060000Y21525000D03*
X21585000Y20795000D03*
X20945000Y21935000D03*
X21440000Y21490000D03*
X21675000Y21425000D03*
Y21170000D03*
X21170000Y21135000D03*
X21020000Y20755000D03*
X21225000Y23125000D03*
X21425000Y23490000D03*
X21605000Y23320000D03*
X21420000Y23295000D03*
X21595000Y23120000D03*
X21948000Y23420000D03*
X21285000Y22065000D03*
X22035000Y22225000D03*
X21355000Y22355000D03*
X21705000Y23200000D03*
X21255000Y23460000D03*
X21620000Y22685000D03*
X20775000Y22555000D03*
X20765000Y23290000D03*
X21084000Y22995000D03*
X20765000Y22800000D03*
X21065000D03*
X21475000Y22465000D03*
X21645700Y22782500D03*
X21635000Y22485000D03*
X21935000Y22640000D03*
X21370000Y22725000D03*
X21948000Y22560000D03*
X21045000Y22260000D03*
X21948000Y23190000D03*
X21100000Y23430000D03*
X21520000Y23005000D03*
X21385000Y23145000D03*
X21035000Y23265000D03*
X22052000Y23140000D03*
X21700000Y23420000D03*
X21808000Y23310000D03*
X21260000Y23260000D03*
X21960000Y22735000D03*
X21220000Y22215000D03*
X21265000Y22580000D03*
X22048000Y23285000D03*
X21480000Y22840000D03*
X21035000Y22550000D03*
X21710000Y22397500D03*
X21715000Y22555000D03*
X21830000Y22560000D03*
X21620000Y22585000D03*
X21470000Y22640000D03*
X21835000Y23060000D03*
X21245000Y23675000D03*
X21948000Y23785000D03*
Y23595000D03*
X20990000Y24735000D03*
X21625000Y24070000D03*
X20770000Y23985000D03*
X21405000Y24320000D03*
X21724000Y24435000D03*
X21930000Y24860000D03*
X21520000Y24770000D03*
X21648000Y24635000D03*
X21324000Y24035000D03*
X21940000Y24495000D03*
X22036000Y24085000D03*
X21844000Y23905000D03*
X20770000Y23815000D03*
X21120000Y24620000D03*
X21140000Y24430000D03*
X21805000Y24105000D03*
X21095000Y23845000D03*
X21060000Y23655000D03*
X21005000Y23525000D03*
X21645000Y23755000D03*
X21832000Y23705000D03*
X21400000Y23715000D03*
X21824000Y23530000D03*
X21500000Y23915000D03*
X22056000Y23920000D03*
X21725000Y23900000D03*
X21760000Y24285000D03*
X21892000Y24645000D03*
X22050000Y24785000D03*
Y24925000D03*
X21440000Y24880000D03*
X21515000Y24430000D03*
X21305000Y24225000D03*
X21280000Y23870000D03*
X21130000Y24110000D03*
X21250000Y24485000D03*
X21300000Y24860000D03*
X20775000Y24590000D03*
X21364000Y24635000D03*
X21575000Y24925000D03*
X21948000Y23915000D03*
X21952000Y24285000D03*
X21505000Y24160000D03*
X21540000Y23605000D03*
X22048000Y23715000D03*
X21340000Y24765000D03*
X21060000Y24305000D03*
X21775000Y24925000D03*
X21795000Y24780000D03*
X21655000Y24835000D03*
X21190000Y24735000D03*
X22056000Y23525000D03*
X21704000Y23620000D03*
X21898000Y24125000D03*
X21020000Y24020000D03*
X22000000Y23985000D03*
X21000000Y24840000D03*
X21075000Y24935000D03*
X21272000Y25595000D03*
X21520000Y25545000D03*
X21260000Y25865000D03*
X21010000Y25595000D03*
X20920000Y25415000D03*
X21676000Y26182300D03*
X21530000Y25940000D03*
X20815000Y25340000D03*
X21156000Y25890000D03*
X21140000Y26177700D03*
X21565000Y26065000D03*
X20700000Y25410000D03*
X22005000Y25930000D03*
X21920000Y26145000D03*
X21308000Y26230000D03*
X21276000Y25950000D03*
X20688000Y26088700D03*
X20784000D03*
X21744000Y25905000D03*
X21780000Y26140000D03*
X20860000Y25940000D03*
X20865000Y25585000D03*
X20640000Y25775000D03*
X21376000Y24975000D03*
X21750000Y25821500D03*
X21860000Y26360000D03*
X21150000Y26020000D03*
X20969900Y26283800D03*
X20991500Y26023500D03*
X20768000Y25033500D03*
X21495000Y24985000D03*
X21575000Y26180000D03*
X20885000Y26090000D03*
X21130000Y26283800D03*
X20620000Y26210000D03*
X21230000Y27475000D03*
X21560000Y27170000D03*
X21192000Y27070000D03*
X21813700Y27140000D03*
X21731700Y27823300D03*
X21810000Y27750000D03*
X21448000Y26675000D03*
X21784000D03*
X21675000Y27085000D03*
X21320000Y27375000D03*
X20645000Y27290000D03*
X20985000Y27800000D03*
X20615000D03*
X21810000Y27435000D03*
X20648000Y27560000D03*
X21170000Y26510000D03*
X20889900Y26519900D03*
X21810000Y27545000D03*
X21160000Y27810000D03*
X21780000Y27665000D03*
X21140000Y27560000D03*
X21505000Y27550000D03*
X21480000Y27440000D03*
X21665000Y27445000D03*
X21640000Y27550000D03*
X21665000Y27665000D03*
X21415000Y27610000D03*
X21355000Y27720000D03*
X21510000Y27750000D03*
X21550000Y27665000D03*
X21255000Y27620000D03*
X21355000Y27510000D03*
X21585000Y27320000D03*
X21750000Y27315000D03*
X21415000Y27325000D03*
X21105000Y27680000D03*
X20670000Y26970000D03*
X20865000D03*
X21075000D03*
X21300000Y26975000D03*
X21560000Y26980000D03*
X21785000Y26975000D03*
X20765000Y26875000D03*
X21170000D03*
X20775000Y27090000D03*
X20975000D03*
X21450000Y27085000D03*
X21325000Y27170000D03*
X21105000Y27160000D03*
X20855000D03*
X20995000Y27295000D03*
X21230000Y27290000D03*
X21330000Y26875000D03*
X21790000Y26795000D03*
X21672000Y26790000D03*
X21055000Y26755000D03*
X20640000Y26700000D03*
X20850000Y26735000D03*
X21620000Y26675000D03*
X21552000Y26785000D03*
X20624000Y27690000D03*
X20824000Y27365000D03*
X20840000Y27555000D03*
X20990000Y27565000D03*
X21050000Y27415000D03*
X20965000Y26875000D03*
X20720000Y26550000D03*
X21090000Y26605000D03*
X21700000Y26580000D03*
X21528000Y26585000D03*
X21569900Y27823800D03*
X20725000Y27665000D03*
X20790000Y27765000D03*
X20810000Y27650000D03*
X20710000Y27490000D03*
X21295000Y26570000D03*
Y26655000D03*
X21350000Y27815000D03*
X21410100Y27800000D03*
X21465100Y27655000D03*
X21425000Y26525000D03*
X21200000Y27700000D03*
X21235000Y27815000D03*
X20740300Y27805000D03*
X22030000Y27090000D03*
X20650000Y28785000D03*
X21920000Y29160000D03*
X21835000Y28065000D03*
X21452300Y28115700D03*
X21620000Y28330000D03*
X20990000Y28385000D03*
X20905000Y28300000D03*
X21095000Y28490000D03*
X21090000Y28302500D03*
X20870000Y28500000D03*
X21820000Y28920000D03*
X22020000Y28995000D03*
X21660000Y29250000D03*
X22030000Y29195000D03*
X22000000Y28560000D03*
X21405000Y28602300D03*
X21780000Y28330000D03*
X21175000Y28722300D03*
X21451700Y28392500D03*
X21844000Y28607700D03*
X21280000Y28675000D03*
X21705000Y28825000D03*
Y28720000D03*
X21920000Y29040200D03*
X21745000Y29140000D03*
X21825000Y29340000D03*
X21428000Y28531300D03*
X21340000Y28870000D03*
X21225000Y28150000D03*
X20620000Y28572500D03*
X21973800Y28100000D03*
X21355000Y28760000D03*
X21010000Y28865000D03*
Y28905000D03*
X21600000Y28660000D03*
Y28610000D03*
X20716000Y29120000D03*
X20780000Y28945000D03*
X21055000Y28722600D03*
X20744000Y29025000D03*
X20637900Y28407100D03*
X20670000Y28352500D03*
X20729900Y28125100D03*
X21597500Y28235000D03*
X20675000Y28260000D03*
X21450000D03*
X20865000Y28055000D03*
X20772400D03*
X20752000Y28645000D03*
X21090000Y28895000D03*
X20696000Y28720000D03*
X21155000Y28900000D03*
X21110000Y28715000D03*
X21225000Y28900000D03*
X20640000Y28860000D03*
X20630000Y28117300D03*
X21600000Y28110000D03*
X21880000Y28130000D03*
X20812000Y28830000D03*
X21294800Y28120500D03*
X21335500Y28535500D03*
X21660000Y29440000D03*
X21885000D03*
X22060000Y18760000D03*
X22640000D03*
X22915000Y18890000D03*
X23250000Y18755000D03*
X22355000Y18895000D03*
X23000000Y18265000D03*
X22580000Y18405000D03*
X22385000Y17900000D03*
X22620000Y17760000D03*
X22224000Y18266800D03*
X23275000Y18395000D03*
X22320000Y20425000D03*
X22530000Y20405000D03*
X22695000Y20420000D03*
X22405000Y20300000D03*
X23250000Y20490000D03*
X22763700Y20535000D03*
X23020000Y20379800D03*
X22165000Y20500000D03*
X23170000Y20295000D03*
X23425000Y20400000D03*
X22435000Y20530000D03*
X22805000Y20370000D03*
X23075700Y20450000D03*
X23020000Y20510000D03*
X23355000Y20290000D03*
X22215000Y20295000D03*
X22615000Y20290000D03*
X22805000Y20295000D03*
X22810000Y20475000D03*
Y20595000D03*
X23020000Y20290000D03*
X22845000Y20095000D03*
X22980000Y19850000D03*
X22845000Y19570000D03*
X22975000Y19265000D03*
X22655000Y19405000D03*
X22275000Y19266800D03*
X22435000Y20890000D03*
X22505000Y20645000D03*
X22330000Y20690000D03*
X22520000Y20795000D03*
X22710000Y20760000D03*
X22805000Y20700000D03*
X22680000Y20880000D03*
X22320000Y20945000D03*
X22465000Y21420000D03*
X23375000Y21280000D03*
X23060000Y21380000D03*
X23400000Y21400000D03*
X23355000Y21135000D03*
X23455000Y21030000D03*
X23055000Y21850000D03*
X22920000Y21845000D03*
X23210000Y21570000D03*
X23230000Y21770000D03*
X23480000Y21635000D03*
X22985000Y21930000D03*
X23085000Y21740000D03*
X23310000Y22015000D03*
X23380000Y21775000D03*
X22770000Y21825000D03*
X23180000Y20675000D03*
X23025000Y20975000D03*
X23335000Y20895000D03*
X23295000Y21505000D03*
X23485000D03*
X23110000Y21500000D03*
X22990000Y21280000D03*
X23265000Y21250000D03*
X23130000Y21655000D03*
X23340000Y21645000D03*
X23460000Y21955000D03*
X23010000Y21595000D03*
X23000000Y21780000D03*
X23170000Y22020000D03*
X22980000Y22040000D03*
X22885000Y21975000D03*
X22950000Y21680000D03*
X23220000Y21380000D03*
X23070000Y21225000D03*
X22940000Y21185000D03*
X22840000Y21290000D03*
X22925000Y21470000D03*
X22805000Y21517300D03*
X22855000Y21660000D03*
X22846300Y21580000D03*
X22785000Y21632700D03*
X22845000Y21765000D03*
X22760000Y21720000D03*
X22845000Y21890000D03*
X22765000Y21920000D03*
X22785000Y21997300D03*
X22846300Y22055000D03*
X22805000Y21020000D03*
X22335000Y21500000D03*
X22590000Y21370000D03*
X22215000Y21420000D03*
X22090000Y21565000D03*
X22252000Y21730000D03*
X22090000Y21715000D03*
X22125000Y21890000D03*
X22415000Y21590000D03*
X22285000Y21615000D03*
X22412000Y21750000D03*
X22545000Y21935000D03*
X22543700Y21820000D03*
X22500000Y21655000D03*
X22590000Y21495000D03*
X22615000Y21560000D03*
X22620000Y21660000D03*
X22605000Y21762300D03*
X22600000Y21877700D03*
X22615000Y22020000D03*
X23140000Y21055000D03*
X22570000Y21120000D03*
X23255000Y21015000D03*
X22160000Y21035000D03*
X22655000Y20625000D03*
Y21015000D03*
X22450000Y21045000D03*
X23140000Y21160000D03*
X23485000Y21255000D03*
X22325000Y21320000D03*
X22460000Y21275000D03*
X22590000Y21245000D03*
X22930000Y21365000D03*
X23135000Y20895000D03*
X23020000Y20700000D03*
X22805000Y21400000D03*
X22072000Y22020000D03*
X23015000Y21110000D03*
X22695000Y21130000D03*
X23385000Y20655000D03*
X22320000Y21145000D03*
X22160000Y21265000D03*
X22145000Y20750000D03*
X22810000Y20845000D03*
X22464000Y22000000D03*
X22204000Y21980000D03*
X22340000Y22025000D03*
X22436000Y21870000D03*
X22296000Y21855000D03*
X23465000Y22210000D03*
X23330000D03*
X23120000Y22224600D03*
X22905000Y22080000D03*
X23465000Y22065000D03*
X22980000Y22165000D03*
X22915000Y22235000D03*
X22897700Y22140000D03*
X22572000Y22115000D03*
X22224000D03*
X22560000Y22370000D03*
X22490000Y22310000D03*
X22570000Y22205000D03*
X22372000Y22260000D03*
X22125000Y22175000D03*
X23356000Y23395000D03*
X23505000Y23060000D03*
X23364000Y23510000D03*
X22500000Y22230000D03*
X22588000Y22485000D03*
X22544000Y22440000D03*
X22422300Y22375000D03*
X22284000Y22380000D03*
X22210000Y22560000D03*
X22192000Y23485000D03*
X22545000Y23435000D03*
X22755000Y23490000D03*
X23340000Y23190000D03*
X22290000Y22750000D03*
X22200000Y22240000D03*
X22064000Y22610000D03*
X23396000Y23275000D03*
X23475000Y23270000D03*
X22360000Y22450000D03*
X22456000Y22125000D03*
X22316000Y22175000D03*
X22148000Y23370000D03*
X23492000Y23155000D03*
X22315000Y22820000D03*
X22310000Y23350000D03*
X22144000Y23240000D03*
X23075000Y22120000D03*
X22424000Y23237400D03*
X22420000Y23300000D03*
X22535000Y23315000D03*
X22407500Y22822500D03*
X23420000Y23045000D03*
X23340000Y22485000D03*
X22425000Y22490000D03*
X22420000Y22637500D03*
X22150000Y23150000D03*
X22872500Y23247500D03*
X22928000Y23257500D03*
X23022500Y22320000D03*
X23036000Y24890000D03*
X23320000Y24625000D03*
X23392000Y24825000D03*
X23380000Y24125000D03*
X22995000Y24495000D03*
X23472000Y23995000D03*
X22565000Y24880000D03*
X22840000Y24645000D03*
X23360000Y24030000D03*
X22436000Y24225000D03*
X22200000Y23650000D03*
X23236000Y24710000D03*
X23384000Y23665000D03*
X23356000Y23830000D03*
X22645000Y23945000D03*
X23000000Y24360000D03*
X22708000Y24385000D03*
X22592000Y24500000D03*
X22575000Y24660000D03*
X22420000Y24645000D03*
X22424000Y24400000D03*
X22256000Y23545000D03*
X22188000Y24235000D03*
X22172000Y24480000D03*
X22125000Y24640000D03*
X22312000Y24915000D03*
X22784000Y23945000D03*
X22892000Y23675000D03*
X22415000Y23730000D03*
X22650000Y23570000D03*
X22550000Y23520000D03*
X22405000Y23945000D03*
X22975000Y23875000D03*
X22196000Y23815000D03*
X22192000Y23950000D03*
X23150000Y24810000D03*
X22608000Y24305000D03*
X22784000Y24215000D03*
X22412000Y24080000D03*
X22608000Y24085000D03*
X22768000Y24080000D03*
X22320000Y24800000D03*
X22705000Y24770000D03*
X22545000Y23715000D03*
X22510000Y23935000D03*
X22788000Y23790000D03*
X22592000Y23795000D03*
X22400000Y23840000D03*
X22184000Y24085000D03*
X23392000Y24555000D03*
X22504000Y23820000D03*
X22712000Y23850000D03*
X22788000Y24500000D03*
X22752000Y23720000D03*
X22680000D03*
X22100000Y24295000D03*
X22500000Y24340000D03*
X22416300Y24881300D03*
X23222500Y24070000D03*
X23292500Y24055000D03*
X23400000Y24700000D03*
X23172000Y24145000D03*
X23122500Y24230000D03*
X23006500Y24153500D03*
X23020000Y23981500D03*
X22295000Y23745000D03*
Y23665000D03*
X22644000Y24562500D03*
X22520000Y24780000D03*
X22968000Y23775000D03*
X23500000Y24870000D03*
X23073000Y24290000D03*
Y23570000D03*
X23022500Y23679500D03*
X22780000Y25580000D03*
X23055000Y25410000D03*
X22116000Y25948700D03*
X22895000Y25075000D03*
X23335000Y25010000D03*
X23100000Y25050000D03*
X22228000Y25955000D03*
X22965700Y25970000D03*
X22060000Y26350000D03*
X22908000Y26370000D03*
X22724000Y26132500D03*
X23411400Y25880000D03*
X22510000Y26346300D03*
X23276000Y26360000D03*
X23272000Y26255000D03*
X23184000Y26310000D03*
X23128000Y26360000D03*
Y26250000D03*
X23164000Y26095000D03*
X22800000Y26350000D03*
X22308500Y26140000D03*
X22585000Y26405000D03*
X22628000Y25955000D03*
X22828000D03*
X22456000Y25950000D03*
X22324000Y26350000D03*
X22345000Y25035000D03*
X22715000Y25070000D03*
X23349000Y25969000D03*
X23435000Y26022500D03*
X22374900Y25875000D03*
X22564000Y25805000D03*
X22391000Y26355000D03*
X23344000Y26415000D03*
X23416000Y26246000D03*
X22175000Y26235000D03*
X22575000Y26220000D03*
X22845000Y26265000D03*
X23055000Y26035000D03*
X22895000Y26150000D03*
X22563800Y26135000D03*
X22169400Y26155600D03*
X22900000Y26570000D03*
X22261300Y27660000D03*
X22227700Y27165000D03*
X23352300Y26721700D03*
X22120000Y27115000D03*
X23512700Y26530000D03*
X22132000Y26460000D03*
X22765000Y26574800D03*
X23110000Y27630000D03*
X22261300Y27565000D03*
X22255300Y27445000D03*
X23480000Y27300000D03*
X23510000Y27140000D03*
X23495000Y26815000D03*
X23295000Y27690000D03*
X23400000D03*
X23295000Y27500000D03*
X23400000D03*
X23345000Y27595000D03*
X23020000Y27825000D03*
X23316000Y26755000D03*
X23428000Y27040000D03*
X23420000Y27100000D03*
X22890300Y26880000D03*
X23005300Y26710000D03*
X23027800Y26930900D03*
X23045000Y27304300D03*
X23430000Y27170000D03*
X23120000Y27305000D03*
X23380000D03*
X22495000Y27550000D03*
Y27660000D03*
X22494500Y27435000D03*
Y27340000D03*
Y27245000D03*
X22700000Y27780000D03*
X22704000Y27665000D03*
Y27550000D03*
X22720000Y27395000D03*
X22672000Y27235000D03*
X22532000Y27100000D03*
X23024000Y27510000D03*
X22104000Y26967500D03*
X22365000Y26700000D03*
X22560000Y26705000D03*
X22390000Y26592500D03*
X22680000Y26465000D03*
X22480000Y26500000D03*
X23195000Y26645000D03*
X22250000Y26590000D03*
X22070000Y26520000D03*
X22330000D03*
X22304000Y27150000D03*
X22532500Y26592500D03*
X22237500Y27052500D03*
X22504000Y27805000D03*
X22452000Y27180000D03*
X22428000Y27780000D03*
X22610000Y27230000D03*
X22564000Y27865000D03*
X23460000Y27400000D03*
X23115000Y27480000D03*
X22375000Y27225000D03*
Y27855000D03*
X22670000Y27295000D03*
X22655000Y27860000D03*
X23290000Y27295000D03*
X23017400Y26850000D03*
X23155000Y26690000D03*
X23045000Y26590000D03*
Y26550000D03*
X23135000Y26620000D03*
X22930000Y26695000D03*
X23225000Y27010000D03*
X23252000Y26700000D03*
X23194800Y26555100D03*
X23400000Y26770000D03*
X23105000Y27225000D03*
X22235400Y27795000D03*
X22177600Y26717600D03*
X22119700Y27307700D03*
X23290000Y29317300D03*
X22615000Y28250000D03*
X22130000Y28625000D03*
X23295000Y28225000D03*
X22372000Y28595000D03*
X22970000Y29255000D03*
X22790000Y29190000D03*
X22385000Y29245000D03*
X22595000Y29295000D03*
X22095000Y28995000D03*
X23305000Y28005000D03*
X22072000Y28100000D03*
X22475000Y29080200D03*
X23425000Y28315000D03*
X22197500Y28685000D03*
X22385200D03*
X22710000Y28250000D03*
X22525000Y28355000D03*
X22620000D03*
X22920000Y28365000D03*
X22525000Y28245000D03*
X22710000Y28355000D03*
X22890000Y28290000D03*
X22380000Y28285000D03*
X22167300Y28290000D03*
X22170000Y28970000D03*
X22360000Y29095000D03*
X23100000Y29015000D03*
X23295000Y29020000D03*
X23100000Y28910000D03*
X23295000D03*
X23195000Y29020000D03*
X23200000Y28910000D03*
X23225000Y28600000D03*
Y28700000D03*
X23132000Y28160000D03*
X22520000Y28740000D03*
X22505000Y28605000D03*
X22610000Y28555000D03*
X22980000Y28710000D03*
X22945000Y28905000D03*
X22755000D03*
X22685000Y29035000D03*
X22965000Y29045000D03*
X22830000Y29040000D03*
X22245000Y28140000D03*
Y27940000D03*
X22140000Y28035000D03*
X22390000Y28185000D03*
X22125000Y27940000D03*
X22157600Y29097700D03*
X22080000Y28240000D03*
X23413000Y29205000D03*
X23510200Y28145000D03*
X22715000Y28070000D03*
X23100000Y29180000D03*
X23072000Y28725000D03*
X22770000Y28580000D03*
X22860000D03*
X23135000Y28275000D03*
Y28367000D03*
X22105000Y28450000D03*
X22160000D03*
X22468000Y28515000D03*
X22427600Y28092700D03*
X23285000Y29440000D03*
X22970000D03*
X22590000Y29445000D03*
X23225000Y29375000D03*
X22450000Y29455000D03*
X22205000Y29450000D03*
X22480000Y29345000D03*
X23585000Y18900000D03*
X24265000Y18905000D03*
X24770000Y18900000D03*
X24650000Y18580000D03*
X24540000Y18766800D03*
X23940000D03*
X24780000Y18275000D03*
X24475000Y18400000D03*
X23875000Y18395000D03*
X23740000Y18270000D03*
X24232000Y18266800D03*
X23730000Y20400000D03*
X23540000Y20515000D03*
X24800000Y20430000D03*
X24105000Y20340000D03*
X24235000Y20480000D03*
X23820000Y20530000D03*
X24970000Y20495000D03*
X24580000Y20305000D03*
X24305000D03*
X23860000D03*
X23545000Y20300000D03*
X24130000Y22045000D03*
X24755000Y21175000D03*
X24590000Y21230000D03*
X23975000Y21690000D03*
X24820000Y22005000D03*
X23795000Y21160000D03*
X23585000Y21145000D03*
X24045000Y21205000D03*
X23890000Y21065000D03*
X23865000Y21560000D03*
X23630000Y21635000D03*
X23535000Y21880000D03*
X23700000Y21505000D03*
X23795000Y21370000D03*
X23995000Y21510000D03*
X24020000Y21920000D03*
X23920000Y21855000D03*
X23820000Y21755000D03*
X23675000Y21785000D03*
X23820000Y21935000D03*
X23655000D03*
X23520000Y21775000D03*
X24672000Y21835000D03*
X24832000D03*
X24400000Y21745000D03*
X24340000Y21795000D03*
X24960000Y21725000D03*
X24305000Y21060000D03*
X23695000Y21260000D03*
X23690000Y21040000D03*
X24945000Y20775000D03*
X24596000Y21625000D03*
X24730000Y21630000D03*
X24800000Y21460000D03*
X24925000Y21005000D03*
X24075000Y21365000D03*
X24335000Y21260000D03*
X23580000Y21345000D03*
X24475000Y20800000D03*
X24330000Y20620000D03*
X24170000Y20645000D03*
X23930000Y20670000D03*
X23675000Y20665000D03*
X24565000Y20700000D03*
X24770000Y20650000D03*
X24740000Y20935000D03*
X24360000Y20940000D03*
X24592000Y21475000D03*
X24070000Y20890000D03*
X23805000Y20895000D03*
X23910000Y21270000D03*
X23555000Y20895000D03*
X24888000Y21345000D03*
X24912000Y21180000D03*
X24732000Y21330000D03*
X24516000Y21360000D03*
X24224000Y21370000D03*
X24884000Y21620000D03*
X24530000Y21745000D03*
X24555000Y21930000D03*
X24490000Y22025000D03*
X24645000Y21695000D03*
X24150000Y21550000D03*
X24315000Y22000000D03*
X24220000Y21610000D03*
X23840000Y22215000D03*
X24544000Y22150000D03*
X24664000Y22080000D03*
X24108000Y22505000D03*
X23525000Y22155000D03*
X24128000Y22180000D03*
X24440000Y22110000D03*
X23610000Y22075000D03*
X24236000Y23315000D03*
X24225000Y23100000D03*
X24484000Y22455000D03*
X24644000Y22320000D03*
X24624000Y22475000D03*
X23928000Y23500000D03*
X23852000Y23295000D03*
X24228000Y22225000D03*
X24776000Y22210000D03*
X24240000Y23510000D03*
X23676000Y23360000D03*
X23684000Y23015000D03*
Y23165000D03*
X23585000Y22485000D03*
X23816000Y23135000D03*
X24048000Y23245000D03*
X24112000Y23030000D03*
X23684000Y23510000D03*
X23930000Y22075000D03*
X24484000Y22305000D03*
X23936000Y22535000D03*
X23784000Y22505000D03*
X23985000Y22230000D03*
X24340000Y22290000D03*
X24660000Y22625000D03*
X23570000Y22995000D03*
X24075000Y23435000D03*
X23675000Y22230000D03*
X23735000Y22120000D03*
X23580000Y23275000D03*
X23530000Y22540000D03*
X23592000Y23120000D03*
X23812000Y23005000D03*
X23972000Y23065000D03*
X23520000Y23455000D03*
X24848000Y22850000D03*
X24836000Y22975000D03*
X24104000Y22645000D03*
X24470000Y23305000D03*
X23988000Y22695000D03*
X24248600Y22595000D03*
X24470000Y22816400D03*
X24148000Y22895000D03*
X24255000Y22935000D03*
X24020000Y22945000D03*
X23908000Y23950000D03*
X24104000Y23990000D03*
X24244000Y23950000D03*
X24248000Y24080000D03*
X23604000Y23960000D03*
X23612000Y24130000D03*
X24335000Y24530000D03*
X24008000Y23655000D03*
X24088000Y24135000D03*
X23528000Y24415000D03*
X23784000Y24025000D03*
X24105000Y24550000D03*
X24416000Y24775000D03*
X24910000Y23550000D03*
X24244000Y23815000D03*
X23764000D03*
X23524000D03*
X23805000Y23655000D03*
X24244000Y23645000D03*
X24610000Y24530000D03*
X24780000Y24715000D03*
X23608000Y23670000D03*
X23605000Y24895000D03*
X24012000Y23820000D03*
X24655000Y24770000D03*
X24292000Y24775000D03*
X24790000Y24525000D03*
X24550000Y24655000D03*
X24210000D03*
X24915000Y24620000D03*
X23803800Y24947100D03*
X24390000Y23825000D03*
X23816000Y24765000D03*
X24024300Y24772000D03*
X23672000Y24770000D03*
X23525000Y24775200D03*
X23899900Y24934900D03*
X24537500Y24130000D03*
X24485000Y24190000D03*
X24160000Y24780000D03*
X24385000Y24070000D03*
X24548000Y25610000D03*
X23600000Y25055000D03*
X23837300Y26372300D03*
X24772500Y25790000D03*
X24164000Y25587500D03*
X24007700Y25120000D03*
X24724000Y25615000D03*
X24775000Y24980000D03*
X23832000Y25435000D03*
X24835000Y26250000D03*
X23868000Y25915000D03*
X24020000Y25300000D03*
X23630000Y26010000D03*
X23900000Y25690000D03*
X23560000Y25655000D03*
X24752500Y25332500D03*
X23970000Y25545000D03*
X23972000Y25232500D03*
X23970000Y25234500D03*
X24065000Y25355000D03*
X23680000Y25135000D03*
X24350000Y25170000D03*
X24476000Y25180000D03*
X23705000Y25045000D03*
X23696000Y26019800D03*
X23997700Y25868300D03*
X24640000Y26015000D03*
X23995400Y26110000D03*
X24448900Y25650000D03*
X24175000Y25683100D03*
X23780000Y25920000D03*
X23988000Y25980000D03*
X24321900Y25687700D03*
X24756000Y26420000D03*
X23648000Y26178000D03*
Y26246000D03*
X24696000Y26075000D03*
X23856000Y26220000D03*
X24065000Y26440000D03*
X24320000Y26438500D03*
X24450000D03*
X23912300Y26585000D03*
X24125000Y26595000D03*
X23614700Y26830000D03*
X24933500Y27090000D03*
X24115000Y27045000D03*
X23600000Y27075000D03*
X23609900Y27005000D03*
X23675000Y26594800D03*
X24290000Y27105000D03*
X24800000Y27073700D03*
X24668000Y27070000D03*
X24295000Y27200000D03*
X24525000Y27455000D03*
X24420000D03*
X24924700Y27160000D03*
X24508000Y27050000D03*
X24652000Y26695000D03*
X24588000Y26780000D03*
X24480000Y26700000D03*
X24390000Y27735000D03*
X23700000Y27840000D03*
X23668000Y27585000D03*
X23776000Y27560000D03*
X23780000Y27490000D03*
X23805000Y26585000D03*
X23555000Y26580000D03*
X23670000Y26500000D03*
X23895000Y27460000D03*
X23990000Y27370000D03*
X24100000Y27255000D03*
X24120000Y27615000D03*
X24690000Y27450000D03*
X24815000Y27400000D03*
X24590000Y27720000D03*
X24715000Y27715000D03*
X23870000Y26825000D03*
X24264000Y27450000D03*
X24581300Y27790000D03*
X23800000Y27755000D03*
X24105000Y27710000D03*
X23525000Y27400000D03*
X23870000Y26970000D03*
X23835000Y27340000D03*
X23870000Y27050000D03*
X24815000Y27525000D03*
X24632400Y27569700D03*
X24744000Y27129800D03*
X24915000Y27417300D03*
X24575900Y26434100D03*
X24156000Y29175000D03*
X23980000Y28965000D03*
X24193300Y29270000D03*
X23570000Y29075000D03*
X24540000Y29160000D03*
X24910200Y28075000D03*
X23630000Y28275000D03*
X24264000Y27975000D03*
X24136000Y28010000D03*
X23695000Y27980000D03*
X23700000Y28080000D03*
X23904000Y28000000D03*
X23875000Y28960200D03*
X24112700Y28965000D03*
X23990000Y28815000D03*
X24335000Y28695000D03*
X24320000Y28480000D03*
X23885000Y28490000D03*
X23825000Y28575000D03*
X24655000Y28780000D03*
X24745000Y28630000D03*
X24740000Y28450000D03*
X24556000Y28365000D03*
X23915000Y29275000D03*
X24070000Y29280000D03*
X23750000Y29285000D03*
X24700000Y27975000D03*
X24128000Y28220000D03*
X24355000Y29325000D03*
X24925000Y28305000D03*
X24525000Y28650000D03*
X24580000Y28515000D03*
X24425000Y28445000D03*
X23524000Y28380000D03*
X24935000Y29065000D03*
X23672000Y28830000D03*
X24595000Y28055000D03*
X24228000Y28295000D03*
X24924000Y27985000D03*
X24455000Y28790000D03*
X24505000Y28995000D03*
X24555000Y28790000D03*
X24605000Y29005000D03*
X24705000Y29043800D03*
X24350000Y28580000D03*
X23765000Y28960000D03*
X24865000Y29370000D03*
X24485000Y29365000D03*
X24805000Y29445000D03*
X24655000Y29425000D03*
X23648000Y29445000D03*
X25575000Y20510000D03*
X25320000Y20350000D03*
X25410000Y20485000D03*
X25745000Y20465000D03*
X25625000Y20305000D03*
X25135000D03*
X25044000Y21975000D03*
X25690000Y21150000D03*
X25450000Y20995000D03*
X25220000Y21960000D03*
X25350000Y21865000D03*
X25736000Y21615000D03*
X25545000Y21135000D03*
X25510000Y20790000D03*
X25008000Y21525000D03*
X25440000Y22000000D03*
X25445000Y21420000D03*
X25175000Y20885000D03*
X25245000Y20660000D03*
X24995000Y21840000D03*
X25735000Y21860000D03*
X25740000Y21315000D03*
X25750000Y20895000D03*
X25008000Y21080000D03*
X25460000Y21715000D03*
X25740000Y22100000D03*
X25716000Y23435000D03*
X25720000Y22920000D03*
X25428000Y22285000D03*
X25440000Y23285000D03*
X25435000Y22905000D03*
Y22590000D03*
X25750000Y23225000D03*
Y22625000D03*
X25740000Y22360000D03*
X25215000Y24675000D03*
X25090000Y24300000D03*
X25736000Y23825000D03*
X25100000Y23590000D03*
X25085000Y24055000D03*
X25490000Y24155000D03*
X25475000Y23750000D03*
X25205000Y24805000D03*
X25755000Y24335000D03*
X25750000Y24025000D03*
Y23625000D03*
X25576000Y24870000D03*
X25760000Y24550000D03*
X25485000Y24460000D03*
X25170000Y25015000D03*
X25185000Y25600000D03*
X24980000Y25030000D03*
X25110000Y26140000D03*
X24980000Y25290000D03*
X25148000Y25915000D03*
X25230000Y25270000D03*
X25308000Y25060000D03*
X25630000Y26013700D03*
X25364000Y26330000D03*
X25310000Y26255000D03*
X25408000D03*
X25700000Y26070000D03*
X25595000Y25525000D03*
X25490000Y25425000D03*
X25320000Y25705000D03*
X25435000Y25845000D03*
X25705000Y25745000D03*
X25750000Y26195000D03*
X25475000Y25990000D03*
X25505000Y25700000D03*
X25615000Y25895000D03*
X25090000Y25145000D03*
X25532000Y25085000D03*
X25055000Y26185000D03*
X25115000Y26325000D03*
X25589500Y26425500D03*
X25135000Y26410000D03*
X25720000Y26295000D03*
X25585000Y26345000D03*
X25120000Y26250000D03*
X25315000Y26435000D03*
X25420000Y26440000D03*
X25047700Y26565000D03*
X24990000Y27595000D03*
X25750000Y27075000D03*
X25316000Y26820000D03*
X25075300Y27330000D03*
X25735000Y27520000D03*
X25755000Y27305000D03*
X25615000Y27085000D03*
X25575200Y27235000D03*
X25675000Y27220000D03*
X25415000Y27500000D03*
X25595000Y27515000D03*
X25304800Y27705000D03*
X25190000Y27500000D03*
X25043900Y26445000D03*
X25430000Y27350200D03*
X25610000Y26775000D03*
X25620000Y26505000D03*
X25700000Y27770000D03*
X25200000Y26655000D03*
X25516000Y27095000D03*
X25092000Y27010000D03*
X25175000Y27624700D03*
X25588000Y27310000D03*
X25085000Y27875000D03*
X25720000Y26835000D03*
X25725000Y28945000D03*
X25120000Y29190000D03*
X25005000Y29325000D03*
X25130000Y28995000D03*
X25115000Y28865000D03*
X25175000Y28800000D03*
X25180000Y28700000D03*
X25175000Y28500000D03*
X25005000Y28245000D03*
X25730000Y27915000D03*
X25725000Y28325000D03*
X25660000Y28295000D03*
X25250000Y28010000D03*
Y27945000D03*
X25290000Y29010000D03*
X25520000Y28940000D03*
X25345000Y28825000D03*
X25315000Y28605000D03*
X25470000Y28550000D03*
X25610000Y28765000D03*
X25300000Y28475000D03*
X25265000Y28140000D03*
X25425000D03*
X25430000Y27950000D03*
X25360000Y28040000D03*
X25195000Y28595000D03*
X25152000Y28435000D03*
X25245000Y29410000D03*
G54D22*
G01X20532300Y21396000D02*
X20555000D01*
G01X20553800Y21309800D02*
X20640000Y21396000D01*
G01X20553800Y21563800D02*
X20640000Y21650000D01*
G01X20225000Y27780000D02*
Y27852000D01*
X20368000Y27995000D01*
G01X20210000Y28601000D02*
X20111000D01*
X20081500Y28571500D01*
Y27753500D01*
X20110000Y27725000D01*
G01X20210000Y28347000D02*
X20149800D01*
X20135000Y28332200D01*
Y27865200D01*
X20160000Y27840200D01*
Y27800000D01*
G01X20590000Y27502600D02*
Y27629800D01*
X20567500Y27652300D01*
Y28336700D01*
X20637900Y28407100D01*
G01X20537500Y26912500D02*
X20649000Y27024000D01*
X22209000D01*
X22237500Y27052500D01*
G01X20530000Y26725000D02*
X20585000D01*
X20670000Y26810000D01*
X21485000D01*
X21520000Y26845000D01*
X22295000D01*
X22452000Y27002000D01*
Y27180000D01*
G01X22610000Y27230000D02*
Y26845000D01*
X22530000Y26765000D01*
X21950000D01*
X21920000Y26735000D01*
X21120000D01*
X21030000Y26645000D01*
X20515000D01*
G01X22375000Y27225000D02*
Y27045000D01*
X22247500Y26917500D01*
X20662600D01*
X20575000Y26829900D01*
G01X20540000Y27570000D02*
X20485000D01*
X20445000Y27610000D01*
Y28405000D01*
X20570000Y28530000D01*
G01X22670000Y27295000D02*
X22237500D01*
X22170000Y27227500D01*
X20297500D01*
X20265000Y27260000D01*
G01X20285000Y28285000D02*
Y28295000D01*
X20337000Y28347000D01*
G01X20137500Y28468000D02*
X20145000D01*
X20145700Y28468700D01*
X20205600D01*
X20210000Y28474000D01*
G01X20337000Y28728000D02*
X20270000Y28795000D01*
Y28885000D01*
G01X20337000Y28474000D02*
X20379600Y28516600D01*
X20412600D01*
X20536000Y28640000D01*
G01X21973800Y28100000D02*
X21853800Y27980000D01*
X21200000D01*
X20947500Y28232500D01*
Y28535000D01*
X20887500Y28595000D01*
X20707500D01*
X20675000Y28627500D01*
X20607300D01*
X20410000Y28430200D01*
Y28293000D01*
X20337000Y28220000D01*
G01X20540000Y28435000D02*
X20570500Y28465500D01*
X20669600D01*
X20820000Y28315100D01*
Y27795000D01*
X20790000Y27765000D01*
G01X20640000Y21542300D02*
Y21560000D01*
G01Y21503700D02*
Y21485000D01*
G01Y21288300D02*
Y21310000D01*
G01Y21396000D02*
X20726200Y21482200D01*
G01X20640000Y21650000D02*
X20726200Y21736200D01*
G01X20892300Y22160000D02*
X21238700D01*
X21518700Y22440000D01*
X22065000D01*
X22100000Y22475000D01*
X22260000D01*
X22337400Y22552400D01*
X22622600D01*
X22695000Y22480000D01*
X22862500D01*
X23022500Y22320000D01*
G01X20892300Y24084300D02*
Y24100000D01*
G01X20784600Y24192000D02*
X20805000D01*
G01X20892300Y24299700D02*
Y24285000D01*
G01X20806100Y24105800D02*
X20892300Y24192000D01*
G01D02*
X20978500Y24278200D01*
G01X22644000Y24562500D02*
X21277500D01*
X21000000Y24840000D01*
G01X22520000Y24780000D02*
X22455000D01*
X22385000Y24710000D01*
X21300000D01*
X21075000Y24935000D01*
G01X21254000Y25462000D02*
X21235000D01*
G01X21254000Y25716000D02*
X21235000D01*
G01X21146300Y25823700D02*
Y25822300D01*
G01X21060100Y25629800D02*
X21146300Y25716000D01*
G01D02*
X21232500Y25802200D01*
G01X21060100Y25375800D02*
X21146300Y25462000D01*
G01D02*
X21232500Y25548200D01*
G01X21376000Y24975000D02*
X21465500Y25064500D01*
X21744500D01*
X21910000Y25230000D01*
Y25357500D01*
X21908300Y25359200D01*
Y25462000D01*
G01X21569900Y27823800D02*
Y27864000D01*
X21595900Y27890000D01*
X21855000D01*
X21905000Y27940000D01*
X22125000D01*
G01X20620000Y28572500D02*
X20660200D01*
X20662700Y28570000D01*
X20665000D01*
X20862500Y28372500D01*
Y28117500D01*
X20882500Y28097500D01*
X20882700D01*
X20907500Y28072700D01*
Y28072500D01*
X20910000Y28070000D01*
Y27645000D01*
X20870000Y27605000D01*
X20765000D01*
X20725000Y27645000D01*
Y27665000D01*
G01X20810000Y27650000D02*
X20865000Y27705000D01*
Y28055000D01*
G01X20772400D02*
X20680000Y27962600D01*
Y27630000D01*
X20710000Y27600000D01*
Y27490000D01*
G01X21350000Y27815000D02*
Y27855200D01*
X21379800Y27885000D01*
X21500000D01*
X21515000Y27870000D01*
Y27807600D01*
X21542600Y27780000D01*
X21765000D01*
X21780000Y27795000D01*
X21915000D01*
X21980000Y27860000D01*
X22165000D01*
X22192500Y27887500D01*
Y28192500D01*
X22245000Y28245000D01*
Y28700000D01*
X22662500Y29117500D01*
X24631300D01*
X24705000Y29043800D01*
G01X23290000Y27295000D02*
X23245000D01*
X23225000Y27315000D01*
Y27530000D01*
X23190000Y27565000D01*
X23045000D01*
X22902500Y27707500D01*
X21457500D01*
X21410100Y27754900D01*
Y27800000D01*
G01X21465100Y27655000D02*
X21505100Y27615000D01*
X22870000D01*
X22955000Y27530000D01*
Y26912400D01*
X23017400Y26850000D01*
G01X21425000Y26525000D02*
X21870000D01*
X21980000Y26635000D01*
X23035000D01*
X23090000Y26690000D01*
X23155000D01*
G01X21200000Y27700000D02*
Y27590000D01*
X21405000Y27385000D01*
X22665000D01*
X22765000Y27285000D01*
Y26805000D01*
X22875000Y26695000D01*
X22930000D01*
G01X25115000Y26325000D02*
X23815000D01*
X23800000Y26340000D01*
Y26345000D01*
X23740000Y26405000D01*
Y26870000D01*
X23715000Y26895000D01*
X23285000D01*
X23155000Y26765000D01*
X22905000D01*
X22835000Y26835000D01*
Y27345000D01*
X22685000Y27495000D01*
X21455000D01*
X21295000Y27655000D01*
Y27755000D01*
X21235000Y27815000D01*
G01X20780000Y28945000D02*
X20750000Y28915000D01*
G01D02*
Y28800000D01*
X20780000Y28770000D01*
X20930000D01*
X20977500Y28722500D01*
X21014700D01*
X21014800Y28722600D01*
X21055000D01*
G01X20670000Y28352500D02*
X20729900Y28292600D01*
Y28125100D01*
G01X21597500Y28235000D02*
X22034800D01*
X22039800Y28240000D01*
X22080000D01*
G01X21225000Y28900000D02*
Y28825000D01*
X21200000Y28800000D01*
X21154800D01*
X21110000Y28755200D01*
Y28715000D01*
G01X22416300Y24881300D02*
Y25462000D01*
G01X22250000Y26590000D02*
Y26424000D01*
X22324000Y26350000D01*
G01X23970000Y25234500D02*
X23945500Y25210000D01*
X22940000D01*
X22924300Y25225700D01*
Y25462000D01*
G01X22670300D02*
Y25244700D01*
X22780000Y25135000D01*
X23680000D01*
G01X22345000Y25035000D02*
X22208000D01*
X22162300Y25080700D01*
Y25462000D01*
G01X22532500Y26592500D02*
X22561000Y26564000D01*
Y26461100D01*
X22374900Y26275000D01*
Y25875000D01*
G01X24455000Y28790000D02*
X24407500Y28742500D01*
X23207300D01*
X23097400Y28632600D01*
X22957400D01*
X22895000Y28695000D01*
X22685000D01*
X22667500Y28677500D01*
Y28097500D01*
X22640000Y28070000D01*
X22555000D01*
X22504000Y28019000D01*
Y27805000D01*
G01X22428000Y27780000D02*
Y28013000D01*
X22480000Y28065000D01*
Y28380000D01*
X22550000Y28450000D01*
Y28700000D01*
X22700000Y28850000D01*
X23480000D01*
X23647500Y29017500D01*
X24482500D01*
X24505000Y28995000D01*
G01X24555000Y28790000D02*
X24395000Y28630000D01*
X23385000D01*
X23265000Y28510000D01*
X22990000D01*
X22970000Y28490000D01*
Y28075000D01*
X22880000Y27985000D01*
X22594000D01*
X22564000Y27955000D01*
Y27865000D01*
G01X24605000Y29005000D02*
X24540000Y29070000D01*
X23625200D01*
X23515200Y28960000D01*
X22660000D01*
X22460000Y28760000D01*
Y28590000D01*
X22330000Y28460000D01*
Y27900000D01*
X22375000Y27855000D01*
G01X22655000Y27860000D02*
X22685000Y27890000D01*
X23170000D01*
X23210000Y27930000D01*
Y28220000D01*
X23522500Y28532500D01*
X24302500D01*
X24350000Y28580000D01*
G01X24752500Y25332500D02*
Y25202500D01*
X24415000Y24865000D01*
X23840000D01*
X23803800Y24901200D01*
Y24947100D01*
G01X24350000Y25170000D02*
Y25100000D01*
X24300000Y25050000D01*
X23815000D01*
X23672000Y24907000D01*
Y24770000D01*
G01X23899900Y24934900D02*
X23928400Y24963400D01*
X24376600D01*
X24377500Y24962500D01*
X24475000Y25060000D01*
Y25138800D01*
X24476000Y25139800D01*
Y25180000D01*
G01X23970000Y25545000D02*
Y25234500D01*
G01X23765000Y28960000D02*
X23845000Y28880000D01*
X24735000D01*
X24830000Y28785000D01*
Y28310000D01*
X25075000Y28065000D01*
Y27995000D01*
X25240000Y27830000D01*
Y27680000D01*
X25270000Y27650000D01*
Y26315000D01*
X25140000Y26185000D01*
X25055000D01*
G01X25210000Y21503700D02*
Y21485000D01*
G01Y21288300D02*
Y21310000D01*
G01X25123800Y21309800D02*
X25210000Y21396000D01*
G01D02*
X25296200Y21482200D01*
G01X25123800Y21563800D02*
X25210000Y21650000D01*
G01D02*
X25296200Y21736200D01*
G01X25212300Y24338300D02*
Y24355000D01*
G01X25126100Y24359800D02*
X25212300Y24446000D01*
G01D02*
X25298500Y24532200D01*
G54D13*
X20640000Y21650000D03*
Y21396000D03*
Y21142000D03*
X20638300Y22160000D03*
Y22414000D03*
Y22668000D03*
Y22922000D03*
Y23176000D03*
Y23430000D03*
Y23684000D03*
Y23938000D03*
Y24192000D03*
Y24446000D03*
X21817800Y21977300D03*
X21563800D03*
X20892300Y22160000D03*
Y22414000D03*
Y22668000D03*
Y22922000D03*
Y23176000D03*
Y23430000D03*
X21817800Y22231300D03*
X21563800D03*
X20892300Y23684000D03*
Y23938000D03*
Y24192000D03*
Y24446000D03*
X21146300Y25462000D03*
X21400300D03*
X21654300D03*
X21908300D03*
X21146300Y25716000D03*
X21400300D03*
X21654300D03*
X21908300D03*
X22162300Y25462000D03*
X22416300D03*
X22670300D03*
X22924300D03*
X23178300D03*
X23432300D03*
X22162300Y25716000D03*
X22416300D03*
X22670300D03*
X22924300D03*
X23178300D03*
X23432300D03*
X24958300Y22160000D03*
Y22414000D03*
Y22668000D03*
Y22922000D03*
Y23176000D03*
Y23430000D03*
Y23684000D03*
Y23938000D03*
Y24192000D03*
Y24446000D03*
X24990000Y25462000D03*
Y25716000D03*
Y25970000D03*
X23686300Y25462000D03*
Y25716000D03*
X25210000Y21650000D03*
Y21396000D03*
Y21142000D03*
X25212300Y22160000D03*
Y22414000D03*
Y22668000D03*
Y22922000D03*
Y23176000D03*
Y23430000D03*
Y23684000D03*
Y23938000D03*
Y24192000D03*
Y24446000D03*
G54D23*
G01X20640000Y21650000D02*
X20532300D01*
G01X20555000Y21396000D02*
X20640000D01*
G01D02*
X20747700D01*
G01X20640000Y21650000D02*
X20747700D01*
G01X20640000D02*
Y21757700D01*
G01Y21560000D02*
Y21650000D01*
G01Y21485000D02*
Y21396000D01*
G01Y21310000D02*
Y21396000D01*
G01X20892300Y24192000D02*
X21000000D01*
G01X20892300Y24100000D02*
Y24192000D01*
G01X20805000D02*
X20892300D01*
G01Y24285000D02*
Y24192000D01*
G01X21146300Y25716000D02*
Y25462000D01*
G01Y25354300D02*
Y25462000D01*
G01X21038600Y25716000D02*
X21146300D01*
G01X21038600Y25462000D02*
X21146300D01*
G01X21235000D02*
X21146300D01*
G01X21235000Y25716000D02*
X21146300D01*
G01Y25822300D02*
Y25716000D01*
G01X25210000Y21650000D02*
X25317700D01*
G01X25102300D02*
X25210000D01*
G01D02*
Y21757700D01*
G01Y21542300D02*
Y21650000D01*
G01Y21396000D02*
X25317700D01*
G01X25210000D02*
X25102300D01*
G01X25210000Y21485000D02*
Y21396000D01*
G01Y21310000D02*
Y21396000D01*
G01X25212300Y24446000D02*
X25320000D01*
G01X25104600D02*
X25212300D01*
G01D02*
Y24553700D01*
G01Y24355000D02*
Y24446000D01*
G54D14*
G01X20177500Y17600000D02*
X25685000D01*
G03X25855000Y17795000I-14022J183827D01*
G01Y24500000D01*
G03X25745000Y24815000I-506023J0D01*
G02X25635000Y25130000I396023J315000D01*
G02X25745000Y25445000I506023J0D01*
G03X25855000Y25760000I-396023J315000D01*
G01Y29433800D01*
G03X25708800Y29580000I-146200J0D01*
G01X21585000D01*
Y29460000D01*
X21425000D01*
Y29250000D01*
X21335000D01*
Y29460000D01*
X20955000D01*
Y29250000D01*
X20865000D01*
Y29460000D01*
X20705000D01*
Y29580000D01*
X20151200D01*
G03X20005000Y29433800I0J-146200D01*
G01Y25760000D01*
G03X20115000Y25445000I506023J0D01*
G02X20225000Y25130000I-396023J-315000D01*
G02X20115000Y24815000I-506023J0D01*
G03X20005000Y24500000I396023J-315000D01*
G01Y17795000D01*
G03X20177500Y17600000I205417J7917D01*
G01X24353700Y15588000D02*
Y15397500D01*
X24448500D01*
G01X24620040D02*
Y15588000D01*
X24532350Y15451480D01*
X24650850D01*
G01X24153160Y14886200D02*
Y15076700D01*
X24200560D01*
X24219520Y15067170D01*
X24233740Y15054470D01*
X24245590Y15035430D01*
X24255070Y15013200D01*
X24257440Y14981450D01*
X24255070Y14949700D01*
X24245590Y14927470D01*
X24233740Y14908420D01*
X24219520Y14895720D01*
X24200560Y14886200D01*
X24153160D01*
G01X24336550D02*
X24395800Y15076700D01*
X24455050Y14886200D01*
G01X24433720Y14952870D02*
X24357880D01*
G01X24586300Y15076700D02*
Y14886200D01*
G01X24531790Y15076700D02*
X24640810D01*
G01X24824200Y14886200D02*
X24729400D01*
Y15076700D01*
X24824200D01*
G01X24786280Y14984630D02*
X24729400D01*
G01X24967300Y14879850D02*
X24962560Y14883030D01*
Y14889370D01*
X24967300Y14892550D01*
X24972040Y14889370D01*
Y14883030D01*
X24967300Y14879850D01*
G01Y14965570D02*
X24962560Y14968750D01*
Y14975100D01*
X24967300Y14978270D01*
X24972040Y14975100D01*
Y14968750D01*
X24967300Y14965570D01*
G01X25303270Y15044950D02*
X25317490Y15064000D01*
X25334080Y15073530D01*
X25353040Y15076700D01*
X25376740Y15070350D01*
X25393330Y15054470D01*
X25398070Y15035430D01*
X25395700Y15016370D01*
X25386220Y15000500D01*
X25338820Y14968750D01*
X25317490Y14946520D01*
X25303270Y14914770D01*
X25298530Y14886200D01*
X25398070D01*
G01X25538800Y15076700D02*
X25519840Y15070350D01*
X25505620Y15054470D01*
X25496140Y15035430D01*
X25489030Y15010020D01*
X25486660Y14981450D01*
X25489030Y14952870D01*
X25496140Y14927470D01*
X25505620Y14908420D01*
X25519840Y14892550D01*
X25538800Y14886200D01*
X25557760Y14892550D01*
X25571980Y14908420D01*
X25581460Y14927470D01*
X25588570Y14952870D01*
X25590940Y14981450D01*
X25588570Y15010020D01*
X25581460Y15035430D01*
X25571980Y15054470D01*
X25557760Y15070350D01*
X25538800Y15076700D01*
G01X25729300Y14886200D02*
Y15076700D01*
X25700860Y15038600D01*
G01Y14886200D02*
X25757740D01*
G01X25919800D02*
X25936390Y14889370D01*
X25955350Y14898900D01*
X25967200Y14914770D01*
X25971940Y14937000D01*
X25967200Y14959220D01*
X25952980Y14978270D01*
X25931650Y14987800D01*
X25907950D01*
X25893730Y14994150D01*
X25881880Y15010020D01*
X25877140Y15032250D01*
X25884250Y15054470D01*
X25900840Y15070350D01*
X25919800Y15076700D01*
X25938760Y15070350D01*
X25955350Y15054470D01*
X25962460Y15032250D01*
X25957720Y15010020D01*
X25945870Y14994150D01*
X25931650Y14987800D01*
X25907950D01*
X25886620Y14978270D01*
X25872400Y14959220D01*
X25867660Y14937000D01*
X25872400Y14914770D01*
X25884250Y14898900D01*
X25903210Y14889370D01*
X25919800Y14886200D01*
G01X26079490Y14949700D02*
X26141110D01*
G01X26300800Y14886200D02*
Y15076700D01*
X26272360Y15038600D01*
G01Y14886200D02*
X26329240D01*
G01X26491300Y15076700D02*
X26472340Y15070350D01*
X26458120Y15054470D01*
X26448640Y15035430D01*
X26441530Y15010020D01*
X26439160Y14981450D01*
X26441530Y14952870D01*
X26448640Y14927470D01*
X26458120Y14908420D01*
X26472340Y14892550D01*
X26491300Y14886200D01*
X26510260Y14892550D01*
X26524480Y14908420D01*
X26533960Y14927470D01*
X26541070Y14952870D01*
X26543440Y14981450D01*
X26541070Y15010020D01*
X26533960Y15035430D01*
X26524480Y15054470D01*
X26510260Y15070350D01*
X26491300Y15076700D01*
G01X26650990Y14949700D02*
X26712610D01*
G01X26872300Y14886200D02*
Y15076700D01*
X26843860Y15038600D01*
G01Y14886200D02*
X26900740D01*
G01X27062800Y15076700D02*
X27043840Y15070350D01*
X27029620Y15054470D01*
X27020140Y15035430D01*
X27013030Y15010020D01*
X27010660Y14981450D01*
X27013030Y14952870D01*
X27020140Y14927470D01*
X27029620Y14908420D01*
X27043840Y14892550D01*
X27062800Y14886200D01*
X27081760Y14892550D01*
X27095980Y14908420D01*
X27105460Y14927470D01*
X27112570Y14952870D01*
X27114940Y14981450D01*
X27112570Y15010020D01*
X27105460Y15035430D01*
X27095980Y15054470D01*
X27081760Y15070350D01*
X27062800Y15076700D01*
G01X24200300Y16071700D02*
Y15881200D01*
G01X24145790Y16071700D02*
X24254810D01*
G01X24438200Y15881200D02*
X24343400D01*
Y16071700D01*
X24438200D01*
G01X24400280Y15979630D02*
X24343400D01*
G01X24531530Y15881200D02*
X24631070Y16071700D01*
G01X24531530D02*
X24631070Y15881200D01*
G01X24712550D02*
X24771800Y16071700D01*
X24831050Y15881200D01*
G01X24809720Y15947870D02*
X24733880D01*
G01X24912530Y15906590D02*
X24931490Y15890720D01*
X24952820Y15881200D01*
X24971780D01*
X24990740Y15890720D01*
X25004960Y15906590D01*
X25012070Y15928830D01*
X25007330Y15951050D01*
X24995480Y15970100D01*
X24974150Y15982800D01*
X24945710Y15989150D01*
X24929120Y16001850D01*
X24922010Y16024070D01*
X24926750Y16046300D01*
X24938600Y16062170D01*
X24955190Y16071700D01*
X24971780D01*
X24988370Y16065350D01*
X25002590Y16049470D01*
G01X25314860Y16071700D02*
X25371740D01*
G01X25343300D02*
Y15881200D01*
G01X25314860D02*
X25371740D01*
G01X25479290D02*
Y16071700D01*
X25588310Y15881200D01*
Y16071700D01*
G01X25674530Y15906590D02*
X25693490Y15890720D01*
X25714820Y15881200D01*
X25733780D01*
X25752740Y15890720D01*
X25766960Y15906590D01*
X25774070Y15928830D01*
X25769330Y15951050D01*
X25757480Y15970100D01*
X25736150Y15982800D01*
X25707710Y15989150D01*
X25691120Y16001850D01*
X25684010Y16024070D01*
X25688750Y16046300D01*
X25700600Y16062170D01*
X25717190Y16071700D01*
X25733780D01*
X25750370Y16065350D01*
X25764590Y16049470D01*
G01X25914800Y16071700D02*
Y15881200D01*
G01X25860290Y16071700D02*
X25969310D01*
G01X26057900Y15881200D02*
Y16071700D01*
X26117150D01*
X26136110Y16062170D01*
X26147960Y16049470D01*
X26152700Y16024070D01*
X26147960Y15998670D01*
X26133740Y15982800D01*
X26117150Y15973270D01*
X26057900D01*
G01X26117150D02*
X26152700Y15881200D01*
G01X26243660Y16071700D02*
Y15935180D01*
X26253140Y15906590D01*
X26272100Y15887550D01*
X26295800Y15881200D01*
X26319500Y15887550D01*
X26338460Y15906590D01*
X26347940Y15935180D01*
Y16071700D01*
G01X26424680Y15881200D02*
Y16071700D01*
X26486300Y15912950D01*
X26547920Y16071700D01*
Y15881200D01*
G01X26724200D02*
X26629400D01*
Y16071700D01*
X26724200D01*
G01X26686280Y15979630D02*
X26629400D01*
G01X26812790Y15881200D02*
Y16071700D01*
X26921810Y15881200D01*
Y16071700D01*
G01X27057800D02*
Y15881200D01*
G01X27003290Y16071700D02*
X27112310D01*
G01X27198530Y15906590D02*
X27217490Y15890720D01*
X27238820Y15881200D01*
X27257780D01*
X27276740Y15890720D01*
X27290960Y15906590D01*
X27298070Y15928830D01*
X27293330Y15951050D01*
X27281480Y15970100D01*
X27260150Y15982800D01*
X27231710Y15989150D01*
X27215120Y16001850D01*
X27208010Y16024070D01*
X27212750Y16046300D01*
X27224600Y16062170D01*
X27241190Y16071700D01*
X27257780D01*
X27274370Y16065350D01*
X27288590Y16049470D01*
G01X25242500Y15451200D02*
X25256130Y15372500D01*
X25271700Y15451200D01*
X25287270Y15372500D01*
X25300900Y15451200D01*
G01X25371810Y15444640D02*
X25365970Y15448580D01*
X25359160Y15451200D01*
X25351370D01*
X25342610Y15447260D01*
X25335800Y15440710D01*
X25330930Y15432840D01*
X25327040Y15419720D01*
X25326070Y15407910D01*
X25328010Y15396110D01*
X25330930Y15388240D01*
X25336770Y15380370D01*
X25343590Y15375120D01*
X25350400Y15372500D01*
X25357210D01*
X25364030Y15375120D01*
X25369870Y15379060D01*
X25374730Y15384300D01*
G01X25408660Y15382990D02*
X25416450Y15376430D01*
X25425210Y15372500D01*
X25432990D01*
X25440780Y15376430D01*
X25446620Y15382990D01*
X25449540Y15392180D01*
X25447590Y15401360D01*
X25442730Y15409230D01*
X25433970Y15414470D01*
X25422290Y15417100D01*
X25415470Y15422340D01*
X25412550Y15431520D01*
X25414500Y15440710D01*
X25419370Y15447260D01*
X25426180Y15451200D01*
X25432990D01*
X25439810Y15448580D01*
X25445650Y15442020D01*
G01X25507800Y15451200D02*
X25500010Y15448580D01*
X25494170Y15442020D01*
X25490280Y15434150D01*
X25487360Y15423650D01*
X25486390Y15411850D01*
X25487360Y15400040D01*
X25490280Y15389550D01*
X25494170Y15381680D01*
X25500010Y15375120D01*
X25507800Y15372500D01*
X25515590Y15375120D01*
X25521430Y15381680D01*
X25525320Y15389550D01*
X25528240Y15400040D01*
X25529210Y15411850D01*
X25528240Y15423650D01*
X25525320Y15434150D01*
X25521430Y15442020D01*
X25515590Y15448580D01*
X25507800Y15451200D01*
G01X25598180Y15372500D02*
Y15451200D01*
X25562170Y15394800D01*
X25610830D01*
G01X25646710Y15438080D02*
X25652550Y15445950D01*
X25659360Y15449890D01*
X25667150Y15451200D01*
X25676880Y15448580D01*
X25683690Y15442020D01*
X25685640Y15434150D01*
X25684670Y15426280D01*
X25680770Y15419720D01*
X25661310Y15406600D01*
X25652550Y15397420D01*
X25646710Y15384300D01*
X25644760Y15372500D01*
X25685640D01*
G01X25801190D02*
Y15451200D01*
X25820650D01*
X25828440Y15447260D01*
X25834280Y15442020D01*
X25839150Y15434150D01*
X25843040Y15424970D01*
X25844010Y15411850D01*
X25843040Y15398730D01*
X25839150Y15389550D01*
X25834280Y15381680D01*
X25828440Y15376430D01*
X25820650Y15372500D01*
X25801190D01*
G01X25237230Y15641200D02*
Y15562500D01*
X25276170D01*
G01X25311070D02*
X25335400Y15641200D01*
X25359730Y15562500D01*
G01X25350970Y15590040D02*
X25319830D01*
G01X25392690Y15641200D02*
Y15584800D01*
X25396580Y15572990D01*
X25404370Y15565120D01*
X25414100Y15562500D01*
X25423830Y15565120D01*
X25431620Y15572990D01*
X25435510Y15584800D01*
Y15641200D01*
G01X25470410Y15562500D02*
Y15641200D01*
X25515190Y15562500D01*
Y15641200D01*
G01X25592910Y15634640D02*
X25587070Y15638580D01*
X25580260Y15641200D01*
X25572470D01*
X25563710Y15637260D01*
X25556900Y15630710D01*
X25552030Y15622840D01*
X25548140Y15609720D01*
X25547170Y15597910D01*
X25549110Y15586110D01*
X25552030Y15578240D01*
X25557870Y15570370D01*
X25564690Y15565120D01*
X25571500Y15562500D01*
X25578310D01*
X25585130Y15565120D01*
X25590970Y15569060D01*
X25595830Y15574300D01*
G01X25629760Y15562500D02*
Y15641200D01*
G01X25670640D02*
Y15562500D01*
G01Y15601850D02*
X25629760D01*
G01X25708460Y15562500D02*
X25749340Y15641200D01*
G01X25708460D02*
X25749340Y15562500D01*
G01X25788130Y15641200D02*
Y15562500D01*
X25827070D01*
G01X25873650Y15588730D02*
X25898950D01*
G01X25986410Y15634640D02*
X25980570Y15638580D01*
X25973760Y15641200D01*
X25965970D01*
X25957210Y15637260D01*
X25950400Y15630710D01*
X25945530Y15622840D01*
X25941640Y15609720D01*
X25940670Y15597910D01*
X25942610Y15586110D01*
X25945530Y15578240D01*
X25951370Y15570370D01*
X25958190Y15565120D01*
X25965000Y15562500D01*
X25971810D01*
X25978630Y15565120D01*
X25984470Y15569060D01*
X25989330Y15574300D01*
G01X26065110Y15634640D02*
X26059270Y15638580D01*
X26052460Y15641200D01*
X26044670D01*
X26035910Y15637260D01*
X26029100Y15630710D01*
X26024230Y15622840D01*
X26020340Y15609720D01*
X26019370Y15597910D01*
X26021310Y15586110D01*
X26024230Y15578240D01*
X26030070Y15570370D01*
X26036890Y15565120D01*
X26043700Y15562500D01*
X26050510D01*
X26057330Y15565120D01*
X26063170Y15569060D01*
X26068030Y15574300D01*
G01X26122400Y15562500D02*
Y15641200D01*
X26110720Y15625460D01*
G01Y15562500D02*
X26134080D01*
G01X26179690Y15578240D02*
X26185530Y15569060D01*
X26193310Y15563810D01*
X26202070Y15562500D01*
X26209860Y15563810D01*
X26217650Y15570370D01*
X26222510Y15578240D01*
X26223490Y15586110D01*
X26221540Y15595290D01*
X26214730Y15601850D01*
X26207910Y15604470D01*
X26199150D01*
G01X26207910D02*
X26213750Y15608410D01*
X26218620Y15614970D01*
X26220570Y15622840D01*
X26218620Y15630710D01*
X26213750Y15637260D01*
X26204990Y15641200D01*
X26196230Y15639890D01*
X26187470Y15634640D01*
G01X26279800Y15562500D02*
Y15641200D01*
X26268120Y15625460D01*
G01Y15562500D02*
X26291480D01*
G01X26340010Y15628080D02*
X26345850Y15635950D01*
X26352660Y15639890D01*
X26360450Y15641200D01*
X26370180Y15638580D01*
X26376990Y15632020D01*
X26378940Y15624150D01*
X26377970Y15616280D01*
X26374070Y15609720D01*
X26354610Y15596600D01*
X26345850Y15587420D01*
X26340010Y15574300D01*
X26338060Y15562500D01*
X26378940D01*
G01X26417730D02*
Y15641200D01*
X26442070D01*
X26449850Y15637260D01*
X26454720Y15632020D01*
X26456670Y15621520D01*
X26454720Y15611030D01*
X26448880Y15604470D01*
X26442070Y15600540D01*
X26417730D01*
G01X26442070D02*
X26456670Y15562500D01*
G01X26515900D02*
Y15641200D01*
X26504220Y15625460D01*
G01Y15562500D02*
X26527580D01*
G01X26651890D02*
Y15641200D01*
X26671350D01*
X26679140Y15637260D01*
X26684980Y15632020D01*
X26689850Y15624150D01*
X26693740Y15614970D01*
X26694710Y15601850D01*
X26693740Y15588730D01*
X26689850Y15579550D01*
X26684980Y15571680D01*
X26679140Y15566430D01*
X26671350Y15562500D01*
X26651890D01*
X20315000Y24972100D03*
Y25202100D03*
X22172500Y19832500D03*
X21927100Y29280000D03*
X22157100D03*
X23672500Y19832500D03*
X25540000Y24967900D03*
Y25197900D03*
G54D24*
G01X20640000Y21142000D02*
X20494800D01*
X20370000Y21266800D01*
Y24431700D01*
X20892300Y24954000D01*
G01X21400300Y25462000D02*
X20892300Y24954000D01*
G01D02*
Y24446000D01*
G01X21400300Y25716000D02*
Y26025000D01*
G01D02*
Y26374700D01*
X21295000Y26480000D01*
Y26570000D01*
G01D02*
Y26655000D01*
G54D15*
X20300000Y25760000D03*
G54D16*
G01X20090000Y16222500D02*
Y14722500D01*
X27590000D01*
Y16222500D01*
X20090000D01*
G01X23840000D02*
Y14722500D01*
G01Y15222500D02*
X27590000D01*
G01Y15722500D02*
X23840000D01*
G01X25107600D02*
Y15222500D01*
X20375000Y28855000D03*
X20172000D03*
X20273500Y28093000D03*
G54D17*
X20337000Y28728000D03*
Y28601000D03*
Y28474000D03*
Y28347000D03*
Y28220000D03*
X20210000Y28728000D03*
Y28601000D03*
Y28474000D03*
Y28347000D03*
Y28220000D03*
G54D18*
X21535000Y29265000D03*
X20745000D03*
G54D19*
X22742500Y22615000D03*
X22842500D03*
X22942500D03*
X23042500D03*
X23142500D03*
Y22715000D03*
X23042500D03*
X22942500D03*
X22842500D03*
X22742500D03*
X23142500Y22815000D03*
X23042500D03*
X22942500D03*
X22842500D03*
X22742500D03*
X23142500Y22915000D03*
X23042500D03*
X22942500D03*
X22842500D03*
X22742500D03*
X23142500Y23015000D03*
X23042500D03*
X22942500D03*
X22842500D03*
X22742500D03*
M02*
