G04 ================== begin FILE IDENTIFICATION RECORD ==================*
G04 Layout Name:  LAUNCHXL-CC1312R1.brd*
G04 Film Name:    WCS042D_LAUNCHXL-CC1312R1_D_assembly_bottom*
G04 File Format:  Gerber RS274X*
G04 File Origin:  Cadence Allegro 17.2-S024*
G04 Origin Date:  Wed Oct 10 12:29:48 2018*
G04 *
G04 Layer:  DRAWING FORMAT/TITLE_BLOCK*
G04 Layer:  BOARD GEOMETRY/BOTTOM ASSEMBLY*
G04 Layer:  REF DES/ASSEMBLY_BOTTOM*
G04 Layer:  PACKAGE GEOMETRY/ASSEMBLY_BOTTOM*
G04 Layer:  BOARD GEOMETRY/OUTLINE*
G04 *
G04 Offset:    (0.0000 0.0000)*
G04 Mirror:    No*
G04 Mode:      Positive*
G04 Rotation:  0*
G04 FullContactRelief:  No*
G04 UndefLineWidth:     0.0990*
G04 ================== end FILE IDENTIFICATION RECORD ====================*
%FSLAX25Y25*MOMM*%
%IR0*IPPOS*OFA0.00000B0.00000*MIA0B0*SFA1.00000B1.00000*%
%ADD10C,.1*%
%ADD11C,.05*%
%ADD12C,.099*%
G75*
%LPD*%
G75*
G54D10*
G01X20090000Y16222500D02*
Y14722500D01*
X27590000D01*
Y16222500D01*
X20090000D01*
G01X20784030Y24698400D02*
X20779200Y24689500D01*
X20773400Y24683570D01*
X20766630Y24680600D01*
X20758900Y24683570D01*
X20753100Y24689500D01*
X20747300Y24698400D01*
X20745370Y24710270D01*
Y24769600D01*
G01X20698700Y24680600D02*
Y24769600D01*
X20710300Y24751800D01*
G01Y24680600D02*
X20687100D01*
G01X23840000Y16222500D02*
Y14722500D01*
G01Y15222500D02*
X27590000D01*
G01Y15722500D02*
X23840000D01*
G01X25107600D02*
Y15222500D01*
G01X25104030Y24698400D02*
X25099200Y24689500D01*
X25093400Y24683570D01*
X25086630Y24680600D01*
X25078900Y24683570D01*
X25073100Y24689500D01*
X25067300Y24698400D01*
X25065370Y24710270D01*
Y24769600D01*
G01X25037070Y24754770D02*
X25031270Y24763670D01*
X25024500Y24768120D01*
X25016770Y24769600D01*
X25007100Y24766630D01*
X25000330Y24759220D01*
X24998400Y24750320D01*
X24999370Y24741410D01*
X25003230Y24734000D01*
X25022570Y24719170D01*
X25031270Y24708780D01*
X25037070Y24693950D01*
X25039000Y24680600D01*
X24998400D01*
G54D11*
G01X20382600Y17830000D02*
Y17886000D01*
X20367000Y17839330D01*
X20351400Y17886000D01*
Y17830000D01*
G01X20338600D02*
Y17886000D01*
G01X20313400D02*
Y17830000D01*
G01Y17858000D02*
X20338600D01*
G01X20285000Y17830000D02*
Y17886000D01*
X20292200Y17874800D01*
G01Y17830000D02*
X20277800D01*
G01X20570800Y18032000D02*
Y18088000D01*
X20555200Y18041330D01*
X20539600Y18088000D01*
Y18032000D01*
G01X20514200D02*
Y18088000D01*
X20521400Y18076800D01*
G01Y18032000D02*
X20507000D01*
G01X20486400Y18040400D02*
X20482800Y18035730D01*
X20478600Y18032930D01*
X20473200Y18032000D01*
X20467800Y18033870D01*
X20463600Y18037600D01*
X20460600Y18044130D01*
X20460000Y18051600D01*
X20461200Y18059070D01*
X20464200Y18063730D01*
X20468400Y18067470D01*
X20472600Y18068400D01*
X20476800Y18067470D01*
X20482200Y18063730D01*
X20480400Y18088000D01*
X20464200D01*
G01X20248400Y28337400D02*
X20304400D01*
Y28351800D01*
X20301600Y28356600D01*
X20295070Y28360200D01*
X20287600Y28361400D01*
X20280130Y28360200D01*
X20274530Y28357200D01*
X20271730Y28351800D01*
Y28337400D01*
G01X20248400Y28390400D02*
X20249330Y28394600D01*
X20252130Y28399400D01*
X20256800Y28402400D01*
X20263330Y28403600D01*
X20269870Y28402400D01*
X20275470Y28398800D01*
X20278270Y28393400D01*
Y28387400D01*
X20280130Y28383800D01*
X20284800Y28380800D01*
X20291330Y28379600D01*
X20297870Y28381400D01*
X20302530Y28385600D01*
X20304400Y28390400D01*
X20302530Y28395200D01*
X20297870Y28399400D01*
X20291330Y28401200D01*
X20284800Y28400000D01*
X20280130Y28397000D01*
X20278270Y28393400D01*
Y28387400D01*
X20275470Y28382000D01*
X20269870Y28378400D01*
X20263330Y28377200D01*
X20256800Y28378400D01*
X20252130Y28381400D01*
X20249330Y28386200D01*
X20248400Y28390400D01*
G01X20382600Y29250000D02*
Y29306000D01*
X20367000Y29259330D01*
X20351400Y29306000D01*
Y29250000D01*
G01X20338600D02*
Y29306000D01*
G01X20313400D02*
Y29250000D01*
G01Y29278000D02*
X20338600D01*
G01X20298200Y29261200D02*
X20294600Y29254670D01*
X20289800Y29250930D01*
X20284400Y29250000D01*
X20279600Y29250930D01*
X20274800Y29255600D01*
X20271800Y29261200D01*
X20271200Y29266800D01*
X20272400Y29273330D01*
X20276600Y29278000D01*
X20280800Y29279870D01*
X20286200D01*
G01X20280800D02*
X20277200Y29282670D01*
X20274200Y29287330D01*
X20273000Y29292930D01*
X20274200Y29298530D01*
X20277200Y29303200D01*
X20282600Y29306000D01*
X20288000Y29305070D01*
X20293400Y29301330D01*
G01X20580800Y29127000D02*
Y29183000D01*
X20565200Y29136330D01*
X20549600Y29183000D01*
Y29127000D01*
G01X20524200D02*
Y29183000D01*
X20531400Y29171800D01*
G01Y29127000D02*
X20517000D01*
G01X20484400D02*
X20483200Y29139130D01*
X20481400Y29149400D01*
X20479000Y29158730D01*
X20476000Y29169000D01*
X20471200Y29183000D01*
X20495200D01*
G01X22995000Y20856000D02*
Y20810000D01*
X22975000D01*
G01X22946000Y20834530D02*
X22944000Y20836830D01*
X22942500Y20840670D01*
X22941500Y20846030D01*
X22942500Y20850630D01*
X22944500Y20853700D01*
X22948000Y20856000D01*
X22961500D01*
Y20810000D01*
X22945000D01*
X22941500Y20813070D01*
X22939500Y20817670D01*
X22938500Y20823030D01*
X22939500Y20828400D01*
X22942500Y20833000D01*
X22946000Y20834530D01*
X22961500D01*
G01X22925000Y20856000D02*
Y20810000D01*
X22905000D01*
G01X22880000D02*
Y20856000D01*
X22886000Y20846800D01*
G01Y20810000D02*
X22874000D01*
G01X24011500Y17668500D02*
Y17612500D01*
X23987500D01*
G01X23953700Y17642370D02*
X23951300Y17645170D01*
X23949500Y17649830D01*
X23948300Y17656370D01*
X23949500Y17661970D01*
X23951900Y17665700D01*
X23956100Y17668500D01*
X23972300D01*
Y17612500D01*
X23952500D01*
X23948300Y17616230D01*
X23945900Y17621830D01*
X23944700Y17628370D01*
X23945900Y17634900D01*
X23949500Y17640500D01*
X23953700Y17642370D01*
X23972300D01*
G01X23929500Y17668500D02*
Y17612500D01*
X23905500D01*
G01X23869300D02*
Y17668500D01*
X23891500Y17628370D01*
X23861500D01*
G01X25712600Y17830000D02*
Y17886000D01*
X25697000Y17839330D01*
X25681400Y17886000D01*
Y17830000D01*
G01X25668600D02*
Y17886000D01*
G01X25643400D02*
Y17830000D01*
G01Y17858000D02*
X25668600D01*
G01X25626400Y17876670D02*
X25622800Y17882270D01*
X25618600Y17885070D01*
X25613800Y17886000D01*
X25607800Y17884130D01*
X25603600Y17879470D01*
X25602400Y17873870D01*
X25603000Y17868270D01*
X25605400Y17863600D01*
X25617400Y17854270D01*
X25622800Y17847730D01*
X25626400Y17838400D01*
X25627600Y17830000D01*
X25602400D01*
G01X25605800Y18027000D02*
Y18083000D01*
X25590200Y18036330D01*
X25574600Y18083000D01*
Y18027000D01*
G01X25549200D02*
Y18083000D01*
X25556400Y18071800D01*
G01Y18027000D02*
X25542000D01*
G01X25519600Y18050330D02*
X25515400Y18056870D01*
X25511800Y18060600D01*
X25507000Y18062470D01*
X25502800Y18060600D01*
X25499800Y18056870D01*
X25497400Y18051270D01*
X25496800Y18044730D01*
X25497400Y18039130D01*
X25499800Y18033530D01*
X25503400Y18028870D01*
X25507600Y18027000D01*
X25512400Y18028870D01*
X25516600Y18034470D01*
X25519000Y18042870D01*
X25519600Y18052200D01*
X25518400Y18064330D01*
X25516600Y18070870D01*
X25513600Y18077400D01*
X25509400Y18082070D01*
X25505200Y18083000D01*
X25501000Y18081130D01*
X25498000Y18076470D01*
G01X25712600Y29250000D02*
Y29306000D01*
X25697000Y29259330D01*
X25681400Y29306000D01*
Y29250000D01*
G01X25668600D02*
Y29306000D01*
G01X25643400D02*
Y29250000D01*
G01Y29278000D02*
X25668600D01*
G01X25607800Y29250000D02*
Y29306000D01*
X25630000Y29265870D01*
X25600000D01*
G01X25555800Y29122000D02*
Y29178000D01*
X25540200Y29131330D01*
X25524600Y29178000D01*
Y29122000D01*
G01X25499200D02*
Y29178000D01*
X25506400Y29166800D01*
G01Y29122000D02*
X25492000D01*
G01X25458200D02*
X25454000Y29122930D01*
X25449200Y29125730D01*
X25446200Y29130400D01*
X25445000Y29136930D01*
X25446200Y29143470D01*
X25449800Y29149070D01*
X25455200Y29151870D01*
X25461200D01*
X25464800Y29153730D01*
X25467800Y29158400D01*
X25469000Y29164930D01*
X25467200Y29171470D01*
X25463000Y29176130D01*
X25458200Y29178000D01*
X25453400Y29176130D01*
X25449200Y29171470D01*
X25447400Y29164930D01*
X25448600Y29158400D01*
X25451600Y29153730D01*
X25455200Y29151870D01*
X25461200D01*
X25466600Y29149070D01*
X25470200Y29143470D01*
X25471400Y29136930D01*
X25470200Y29130400D01*
X25467200Y29125730D01*
X25462400Y29122930D01*
X25458200Y29122000D01*
G54D12*
G01X20177500Y17600000D02*
X25685000D01*
G03X25855000Y17795000I-14022J183827D01*
G01Y24500000D01*
G03X25745000Y24815000I-506023J0D01*
G02X25635000Y25130000I396023J315000D01*
G02X25745000Y25445000I506023J0D01*
G03X25855000Y25760000I-396023J315000D01*
G01Y29433800D01*
G03X25708800Y29580000I-146200J0D01*
G01X21585000D01*
Y29460000D01*
X21425000D01*
Y29250000D01*
X21335000D01*
Y29460000D01*
X20955000D01*
Y29250000D01*
X20865000D01*
Y29460000D01*
X20705000D01*
Y29580000D01*
X20151200D01*
G03X20005000Y29433800I0J-146200D01*
G01Y25760000D01*
G03X20115000Y25445000I506023J0D01*
G02X20225000Y25130000I-396023J-315000D01*
G02X20115000Y24815000I-506023J0D01*
G03X20005000Y24500000I396023J-315000D01*
G01Y17795000D01*
G03X20177500Y17600000I205417J7917D01*
G01X20450000Y17850000D02*
G03I-200000J0D01*
G01X20760000Y18005000D02*
G03I-340000J0D01*
G01X20355000Y18300000D02*
G03I-139997J4D01*
G01X21012900Y22007600D02*
X20517700D01*
G01D02*
Y24598400D01*
G01D02*
X21012900D01*
G01X20610000Y27851700D02*
Y29096300D01*
X19937000D01*
Y27851700D01*
X20610000D01*
G01X20450000Y29270000D02*
G03I-200000J0D01*
G01X20770000Y29100000D02*
G03I-340000J0D01*
G01X24017500Y18072500D02*
Y17722500D01*
X22027500D01*
Y18072500D01*
X24017500D01*
G01X21012900Y24598400D02*
Y22007600D01*
G01X20598900Y22374600D02*
Y22453400D01*
G01D02*
X20677700D01*
G01Y22374600D02*
X20598900D01*
G01X20677700Y22453400D02*
Y22374600D01*
G01X20852900D02*
Y22453400D01*
G01D02*
X20931700D01*
G01Y22374600D02*
X20852900D01*
G01X20931700Y22453400D02*
Y22374600D01*
G01X20598900Y22628600D02*
Y22707400D01*
G01D02*
X20677700D01*
G01Y22628600D02*
X20598900D01*
G01X20677700Y22707400D02*
Y22628600D01*
G01X20852900D02*
Y22707400D01*
G01D02*
X20931700D01*
G01Y22628600D02*
X20852900D01*
G01X20931700Y22707400D02*
Y22628600D01*
G01X20598900Y22882600D02*
Y22961400D01*
G01D02*
X20677700D01*
G01Y22882600D02*
X20598900D01*
G01X20677700Y22961400D02*
Y22882600D01*
G01X20852900D02*
Y22961400D01*
G01D02*
X20931700D01*
G01Y22882600D02*
X20852900D01*
G01X20931700Y22961400D02*
Y22882600D01*
G01X20598900Y23136600D02*
Y23215400D01*
G01D02*
X20677700D01*
G01Y23136600D02*
X20598900D01*
G01X20677700Y23215400D02*
Y23136600D01*
G01X20852900D02*
Y23215400D01*
G01D02*
X20931700D01*
G01Y23136600D02*
X20852900D01*
G01X20931700Y23215400D02*
Y23136600D01*
G01X20598900Y23390600D02*
Y23469400D01*
G01D02*
X20677700D01*
G01Y23390600D02*
X20598900D01*
G01X20677700Y23469400D02*
Y23390600D01*
G01X20852900D02*
Y23469400D01*
G01D02*
X20931700D01*
G01Y23390600D02*
X20852900D01*
G01X20931700Y23469400D02*
Y23390600D01*
G01X20598900Y22120600D02*
Y22199400D01*
G01D02*
X20677700D01*
G01Y22120600D02*
X20598900D01*
G01X20677700Y22199400D02*
Y22120600D01*
G01X20931700Y22199400D02*
Y22120600D01*
G01D02*
X20852900D01*
G01Y22199400D02*
X20931700D01*
G01X20852900Y22120600D02*
Y22199400D01*
G01X20598900Y23644600D02*
Y23723400D01*
G01D02*
X20677700D01*
G01Y23644600D02*
X20598900D01*
G01X20677700Y23723400D02*
Y23644600D01*
G01X20852900D02*
Y23723400D01*
G01D02*
X20931700D01*
G01Y23644600D02*
X20852900D01*
G01X20931700Y23723400D02*
Y23644600D01*
G01X20598900Y23898600D02*
Y23977400D01*
G01D02*
X20677700D01*
G01Y23898600D02*
X20598900D01*
G01X20677700Y23977400D02*
Y23898600D01*
G01X20852900D02*
Y23977400D01*
G01D02*
X20931700D01*
G01Y23898600D02*
X20852900D01*
G01X20931700Y23977400D02*
Y23898600D01*
G01X20598900Y24152600D02*
Y24231400D01*
G01D02*
X20677700D01*
G01Y24152600D02*
X20598900D01*
G01X20677700Y24231400D02*
Y24152600D01*
G01X20852900D02*
Y24231400D01*
G01D02*
X20931700D01*
G01Y24152600D02*
X20852900D01*
G01X20931700Y24231400D02*
Y24152600D01*
G01X20598900Y24406600D02*
Y24485400D01*
G01D02*
X20677700D01*
G01Y24406600D02*
X20598900D01*
G01X20677700Y24485400D02*
Y24406600D01*
G01X20931700D02*
X20852900D01*
G01D02*
Y24485400D01*
G01X20931700D02*
Y24406600D01*
G01X20852900Y24485400D02*
X20931700D01*
G01X23846850Y15397500D02*
X23906100Y15588000D01*
X23965350Y15397500D01*
G01X23944020Y15464170D02*
X23868180D01*
G01X24046830Y15422890D02*
X24065790Y15407020D01*
X24087120Y15397500D01*
X24106080D01*
X24125040Y15407020D01*
X24139260Y15422890D01*
X24146370Y15445130D01*
X24141630Y15467350D01*
X24129780Y15486400D01*
X24108450Y15499100D01*
X24080010Y15505450D01*
X24063420Y15518150D01*
X24056310Y15540370D01*
X24061050Y15562600D01*
X24072900Y15578470D01*
X24089490Y15588000D01*
X24106080D01*
X24122670Y15581650D01*
X24136890Y15565770D01*
G01X24237330Y15422890D02*
X24256290Y15407020D01*
X24277620Y15397500D01*
X24296580D01*
X24315540Y15407020D01*
X24329760Y15422890D01*
X24336870Y15445130D01*
X24332130Y15467350D01*
X24320280Y15486400D01*
X24298950Y15499100D01*
X24270510Y15505450D01*
X24253920Y15518150D01*
X24246810Y15540370D01*
X24251550Y15562600D01*
X24263400Y15578470D01*
X24279990Y15588000D01*
X24296580D01*
X24313170Y15581650D01*
X24327390Y15565770D01*
G01X24477600Y15397500D02*
Y15483220D01*
X24430200Y15588000D01*
G01X24525000D02*
X24477600Y15483220D01*
G01X24687060Y15499100D02*
X24696540Y15508620D01*
X24703650Y15524500D01*
X24708390Y15546730D01*
X24703650Y15565770D01*
X24694170Y15578470D01*
X24677580Y15588000D01*
X24613590D01*
Y15397500D01*
X24691800D01*
X24708390Y15410200D01*
X24717870Y15429250D01*
X24722610Y15451480D01*
X24717870Y15473700D01*
X24703650Y15492750D01*
X24687060Y15499100D01*
X24613590D01*
G01X24858600Y15397500D02*
X24839640Y15400670D01*
X24823050Y15413370D01*
X24808830Y15432420D01*
X24799350Y15454650D01*
X24794610Y15480050D01*
Y15505450D01*
X24799350Y15530850D01*
X24808830Y15553080D01*
X24823050Y15572120D01*
X24839640Y15584830D01*
X24858600Y15588000D01*
X24877560Y15584830D01*
X24894150Y15572120D01*
X24908370Y15553080D01*
X24917850Y15530850D01*
X24922590Y15505450D01*
Y15480050D01*
X24917850Y15454650D01*
X24908370Y15432420D01*
X24894150Y15413370D01*
X24877560Y15400670D01*
X24858600Y15397500D01*
G01X25049100Y15588000D02*
Y15397500D01*
G01X24994590Y15588000D02*
X25103610D01*
G01X24153160Y14886200D02*
Y15076700D01*
X24200560D01*
X24219520Y15067170D01*
X24233740Y15054470D01*
X24245590Y15035430D01*
X24255070Y15013200D01*
X24257440Y14981450D01*
X24255070Y14949700D01*
X24245590Y14927470D01*
X24233740Y14908420D01*
X24219520Y14895720D01*
X24200560Y14886200D01*
X24153160D01*
G01X24336550D02*
X24395800Y15076700D01*
X24455050Y14886200D01*
G01X24433720Y14952870D02*
X24357880D01*
G01X24586300Y15076700D02*
Y14886200D01*
G01X24531790Y15076700D02*
X24640810D01*
G01X24824200Y14886200D02*
X24729400D01*
Y15076700D01*
X24824200D01*
G01X24786280Y14984630D02*
X24729400D01*
G01X24967300Y14879850D02*
X24962560Y14883030D01*
Y14889370D01*
X24967300Y14892550D01*
X24972040Y14889370D01*
Y14883030D01*
X24967300Y14879850D01*
G01Y14965570D02*
X24962560Y14968750D01*
Y14975100D01*
X24967300Y14978270D01*
X24972040Y14975100D01*
Y14968750D01*
X24967300Y14965570D01*
G01X25303270Y15044950D02*
X25317490Y15064000D01*
X25334080Y15073530D01*
X25353040Y15076700D01*
X25376740Y15070350D01*
X25393330Y15054470D01*
X25398070Y15035430D01*
X25395700Y15016370D01*
X25386220Y15000500D01*
X25338820Y14968750D01*
X25317490Y14946520D01*
X25303270Y14914770D01*
X25298530Y14886200D01*
X25398070D01*
G01X25538800Y15076700D02*
X25519840Y15070350D01*
X25505620Y15054470D01*
X25496140Y15035430D01*
X25489030Y15010020D01*
X25486660Y14981450D01*
X25489030Y14952870D01*
X25496140Y14927470D01*
X25505620Y14908420D01*
X25519840Y14892550D01*
X25538800Y14886200D01*
X25557760Y14892550D01*
X25571980Y14908420D01*
X25581460Y14927470D01*
X25588570Y14952870D01*
X25590940Y14981450D01*
X25588570Y15010020D01*
X25581460Y15035430D01*
X25571980Y15054470D01*
X25557760Y15070350D01*
X25538800Y15076700D01*
G01X25729300Y14886200D02*
Y15076700D01*
X25700860Y15038600D01*
G01Y14886200D02*
X25757740D01*
G01X25919800D02*
X25936390Y14889370D01*
X25955350Y14898900D01*
X25967200Y14914770D01*
X25971940Y14937000D01*
X25967200Y14959220D01*
X25952980Y14978270D01*
X25931650Y14987800D01*
X25907950D01*
X25893730Y14994150D01*
X25881880Y15010020D01*
X25877140Y15032250D01*
X25884250Y15054470D01*
X25900840Y15070350D01*
X25919800Y15076700D01*
X25938760Y15070350D01*
X25955350Y15054470D01*
X25962460Y15032250D01*
X25957720Y15010020D01*
X25945870Y14994150D01*
X25931650Y14987800D01*
X25907950D01*
X25886620Y14978270D01*
X25872400Y14959220D01*
X25867660Y14937000D01*
X25872400Y14914770D01*
X25884250Y14898900D01*
X25903210Y14889370D01*
X25919800Y14886200D01*
G01X26079490Y14949700D02*
X26141110D01*
G01X26300800Y14886200D02*
Y15076700D01*
X26272360Y15038600D01*
G01Y14886200D02*
X26329240D01*
G01X26491300Y15076700D02*
X26472340Y15070350D01*
X26458120Y15054470D01*
X26448640Y15035430D01*
X26441530Y15010020D01*
X26439160Y14981450D01*
X26441530Y14952870D01*
X26448640Y14927470D01*
X26458120Y14908420D01*
X26472340Y14892550D01*
X26491300Y14886200D01*
X26510260Y14892550D01*
X26524480Y14908420D01*
X26533960Y14927470D01*
X26541070Y14952870D01*
X26543440Y14981450D01*
X26541070Y15010020D01*
X26533960Y15035430D01*
X26524480Y15054470D01*
X26510260Y15070350D01*
X26491300Y15076700D01*
G01X26650990Y14949700D02*
X26712610D01*
G01X26872300Y14886200D02*
Y15076700D01*
X26843860Y15038600D01*
G01Y14886200D02*
X26900740D01*
G01X27062800Y15076700D02*
X27043840Y15070350D01*
X27029620Y15054470D01*
X27020140Y15035430D01*
X27013030Y15010020D01*
X27010660Y14981450D01*
X27013030Y14952870D01*
X27020140Y14927470D01*
X27029620Y14908420D01*
X27043840Y14892550D01*
X27062800Y14886200D01*
X27081760Y14892550D01*
X27095980Y14908420D01*
X27105460Y14927470D01*
X27112570Y14952870D01*
X27114940Y14981450D01*
X27112570Y15010020D01*
X27105460Y15035430D01*
X27095980Y15054470D01*
X27081760Y15070350D01*
X27062800Y15076700D01*
G01X24200300Y16071700D02*
Y15881200D01*
G01X24145790Y16071700D02*
X24254810D01*
G01X24438200Y15881200D02*
X24343400D01*
Y16071700D01*
X24438200D01*
G01X24400280Y15979630D02*
X24343400D01*
G01X24531530Y15881200D02*
X24631070Y16071700D01*
G01X24531530D02*
X24631070Y15881200D01*
G01X24712550D02*
X24771800Y16071700D01*
X24831050Y15881200D01*
G01X24809720Y15947870D02*
X24733880D01*
G01X24912530Y15906590D02*
X24931490Y15890720D01*
X24952820Y15881200D01*
X24971780D01*
X24990740Y15890720D01*
X25004960Y15906590D01*
X25012070Y15928830D01*
X25007330Y15951050D01*
X24995480Y15970100D01*
X24974150Y15982800D01*
X24945710Y15989150D01*
X24929120Y16001850D01*
X24922010Y16024070D01*
X24926750Y16046300D01*
X24938600Y16062170D01*
X24955190Y16071700D01*
X24971780D01*
X24988370Y16065350D01*
X25002590Y16049470D01*
G01X25314860Y16071700D02*
X25371740D01*
G01X25343300D02*
Y15881200D01*
G01X25314860D02*
X25371740D01*
G01X25479290D02*
Y16071700D01*
X25588310Y15881200D01*
Y16071700D01*
G01X25674530Y15906590D02*
X25693490Y15890720D01*
X25714820Y15881200D01*
X25733780D01*
X25752740Y15890720D01*
X25766960Y15906590D01*
X25774070Y15928830D01*
X25769330Y15951050D01*
X25757480Y15970100D01*
X25736150Y15982800D01*
X25707710Y15989150D01*
X25691120Y16001850D01*
X25684010Y16024070D01*
X25688750Y16046300D01*
X25700600Y16062170D01*
X25717190Y16071700D01*
X25733780D01*
X25750370Y16065350D01*
X25764590Y16049470D01*
G01X25914800Y16071700D02*
Y15881200D01*
G01X25860290Y16071700D02*
X25969310D01*
G01X26057900Y15881200D02*
Y16071700D01*
X26117150D01*
X26136110Y16062170D01*
X26147960Y16049470D01*
X26152700Y16024070D01*
X26147960Y15998670D01*
X26133740Y15982800D01*
X26117150Y15973270D01*
X26057900D01*
G01X26117150D02*
X26152700Y15881200D01*
G01X26243660Y16071700D02*
Y15935180D01*
X26253140Y15906590D01*
X26272100Y15887550D01*
X26295800Y15881200D01*
X26319500Y15887550D01*
X26338460Y15906590D01*
X26347940Y15935180D01*
Y16071700D01*
G01X26424680Y15881200D02*
Y16071700D01*
X26486300Y15912950D01*
X26547920Y16071700D01*
Y15881200D01*
G01X26724200D02*
X26629400D01*
Y16071700D01*
X26724200D01*
G01X26686280Y15979630D02*
X26629400D01*
G01X26812790Y15881200D02*
Y16071700D01*
X26921810Y15881200D01*
Y16071700D01*
G01X27057800D02*
Y15881200D01*
G01X27003290Y16071700D02*
X27112310D01*
G01X27198530Y15906590D02*
X27217490Y15890720D01*
X27238820Y15881200D01*
X27257780D01*
X27276740Y15890720D01*
X27290960Y15906590D01*
X27298070Y15928830D01*
X27293330Y15951050D01*
X27281480Y15970100D01*
X27260150Y15982800D01*
X27231710Y15989150D01*
X27215120Y16001850D01*
X27208010Y16024070D01*
X27212750Y16046300D01*
X27224600Y16062170D01*
X27241190Y16071700D01*
X27257780D01*
X27274370Y16065350D01*
X27288590Y16049470D01*
G01X25332900Y22007600D02*
X24837700D01*
G01D02*
Y24598400D01*
G01X24918900Y22374600D02*
Y22453400D01*
G01D02*
X24997700D01*
G01Y22374600D02*
X24918900D01*
G01Y22628600D02*
Y22707400D01*
G01D02*
X24997700D01*
G01Y22628600D02*
X24918900D01*
G01Y22882600D02*
Y22961400D01*
G01D02*
X24997700D01*
G01Y22882600D02*
X24918900D01*
G01Y23136600D02*
Y23215400D01*
G01D02*
X24997700D01*
G01Y23136600D02*
X24918900D01*
G01Y23390600D02*
Y23469400D01*
G01D02*
X24997700D01*
G01Y23390600D02*
X24918900D01*
G01Y22120600D02*
Y22199400D01*
G01D02*
X24997700D01*
G01Y22120600D02*
X24918900D01*
G01X24837700Y24598400D02*
X25332900D01*
G01X24918900Y23644600D02*
Y23723400D01*
G01D02*
X24997700D01*
G01Y23644600D02*
X24918900D01*
G01Y23898600D02*
Y23977400D01*
G01D02*
X24997700D01*
G01Y23898600D02*
X24918900D01*
G01Y24152600D02*
Y24231400D01*
G01D02*
X24997700D01*
G01Y24152600D02*
X24918900D01*
G01Y24406600D02*
Y24485400D01*
G01D02*
X24997700D01*
G01Y24406600D02*
X24918900D01*
G01X25780000Y17850000D02*
G03I-200000J0D01*
G01X25795000Y18000000D02*
G03I-340000J0D01*
G01X25785000Y18300000D02*
G03I-139955J3D01*
G01X25332900Y24598400D02*
Y22007600D01*
G01X24997700Y22453400D02*
Y22374600D01*
G01X25172900D02*
Y22453400D01*
G01D02*
X25251700D01*
G01Y22374600D02*
X25172900D01*
G01X25251700Y22453400D02*
Y22374600D01*
G01X24997700Y22707400D02*
Y22628600D01*
G01X25172900D02*
Y22707400D01*
G01D02*
X25251700D01*
G01Y22628600D02*
X25172900D01*
G01X25251700Y22707400D02*
Y22628600D01*
G01X24997700Y22961400D02*
Y22882600D01*
G01X25172900D02*
Y22961400D01*
G01D02*
X25251700D01*
G01Y22882600D02*
X25172900D01*
G01X25251700Y22961400D02*
Y22882600D01*
G01X24997700Y23215400D02*
Y23136600D01*
G01X25172900D02*
Y23215400D01*
G01D02*
X25251700D01*
G01Y23136600D02*
X25172900D01*
G01X25251700Y23215400D02*
Y23136600D01*
G01X24997700Y23469400D02*
Y23390600D01*
G01X25172900D02*
Y23469400D01*
G01D02*
X25251700D01*
G01Y23390600D02*
X25172900D01*
G01X25251700Y23469400D02*
Y23390600D01*
G01X24997700Y22199400D02*
Y22120600D01*
G01X25251700Y22199400D02*
Y22120600D01*
G01D02*
X25172900D01*
G01Y22199400D02*
X25251700D01*
G01X25172900Y22120600D02*
Y22199400D01*
G01X24997700Y23723400D02*
Y23644600D01*
G01X25172900D02*
Y23723400D01*
G01D02*
X25251700D01*
G01Y23644600D02*
X25172900D01*
G01X25251700Y23723400D02*
Y23644600D01*
G01X24997700Y23977400D02*
Y23898600D01*
G01X25172900D02*
Y23977400D01*
G01D02*
X25251700D01*
G01Y23898600D02*
X25172900D01*
G01X25251700Y23977400D02*
Y23898600D01*
G01X24997700Y24231400D02*
Y24152600D01*
G01X25172900D02*
Y24231400D01*
G01D02*
X25251700D01*
G01Y24152600D02*
X25172900D01*
G01X25251700Y24231400D02*
Y24152600D01*
G01X24997700Y24485400D02*
Y24406600D01*
G01X25251700D02*
X25172900D01*
G01D02*
Y24485400D01*
G01X25251700D02*
Y24406600D01*
G01X25172900Y24485400D02*
X25251700D01*
G01X25785000Y28505000D02*
G03I-139957J24D01*
G01X25780000Y29270000D02*
G03I-200000J0D01*
G01X25745000Y29095000D02*
G03I-340000J0D01*
G01X25242500Y15451200D02*
X25256130Y15372500D01*
X25271700Y15451200D01*
X25287270Y15372500D01*
X25300900Y15451200D01*
G01X25371810Y15444640D02*
X25365970Y15448580D01*
X25359160Y15451200D01*
X25351370D01*
X25342610Y15447260D01*
X25335800Y15440710D01*
X25330930Y15432840D01*
X25327040Y15419720D01*
X25326070Y15407910D01*
X25328010Y15396110D01*
X25330930Y15388240D01*
X25336770Y15380370D01*
X25343590Y15375120D01*
X25350400Y15372500D01*
X25357210D01*
X25364030Y15375120D01*
X25369870Y15379060D01*
X25374730Y15384300D01*
G01X25408660Y15382990D02*
X25416450Y15376430D01*
X25425210Y15372500D01*
X25432990D01*
X25440780Y15376430D01*
X25446620Y15382990D01*
X25449540Y15392180D01*
X25447590Y15401360D01*
X25442730Y15409230D01*
X25433970Y15414470D01*
X25422290Y15417100D01*
X25415470Y15422340D01*
X25412550Y15431520D01*
X25414500Y15440710D01*
X25419370Y15447260D01*
X25426180Y15451200D01*
X25432990D01*
X25439810Y15448580D01*
X25445650Y15442020D01*
G01X25507800Y15451200D02*
X25500010Y15448580D01*
X25494170Y15442020D01*
X25490280Y15434150D01*
X25487360Y15423650D01*
X25486390Y15411850D01*
X25487360Y15400040D01*
X25490280Y15389550D01*
X25494170Y15381680D01*
X25500010Y15375120D01*
X25507800Y15372500D01*
X25515590Y15375120D01*
X25521430Y15381680D01*
X25525320Y15389550D01*
X25528240Y15400040D01*
X25529210Y15411850D01*
X25528240Y15423650D01*
X25525320Y15434150D01*
X25521430Y15442020D01*
X25515590Y15448580D01*
X25507800Y15451200D01*
G01X25598180Y15372500D02*
Y15451200D01*
X25562170Y15394800D01*
X25610830D01*
G01X25646710Y15438080D02*
X25652550Y15445950D01*
X25659360Y15449890D01*
X25667150Y15451200D01*
X25676880Y15448580D01*
X25683690Y15442020D01*
X25685640Y15434150D01*
X25684670Y15426280D01*
X25680770Y15419720D01*
X25661310Y15406600D01*
X25652550Y15397420D01*
X25646710Y15384300D01*
X25644760Y15372500D01*
X25685640D01*
G01X25801190D02*
Y15451200D01*
X25820650D01*
X25828440Y15447260D01*
X25834280Y15442020D01*
X25839150Y15434150D01*
X25843040Y15424970D01*
X25844010Y15411850D01*
X25843040Y15398730D01*
X25839150Y15389550D01*
X25834280Y15381680D01*
X25828440Y15376430D01*
X25820650Y15372500D01*
X25801190D01*
G01X25237230Y15641200D02*
Y15562500D01*
X25276170D01*
G01X25311070D02*
X25335400Y15641200D01*
X25359730Y15562500D01*
G01X25350970Y15590040D02*
X25319830D01*
G01X25392690Y15641200D02*
Y15584800D01*
X25396580Y15572990D01*
X25404370Y15565120D01*
X25414100Y15562500D01*
X25423830Y15565120D01*
X25431620Y15572990D01*
X25435510Y15584800D01*
Y15641200D01*
G01X25470410Y15562500D02*
Y15641200D01*
X25515190Y15562500D01*
Y15641200D01*
G01X25592910Y15634640D02*
X25587070Y15638580D01*
X25580260Y15641200D01*
X25572470D01*
X25563710Y15637260D01*
X25556900Y15630710D01*
X25552030Y15622840D01*
X25548140Y15609720D01*
X25547170Y15597910D01*
X25549110Y15586110D01*
X25552030Y15578240D01*
X25557870Y15570370D01*
X25564690Y15565120D01*
X25571500Y15562500D01*
X25578310D01*
X25585130Y15565120D01*
X25590970Y15569060D01*
X25595830Y15574300D01*
G01X25629760Y15562500D02*
Y15641200D01*
G01X25670640D02*
Y15562500D01*
G01Y15601850D02*
X25629760D01*
G01X25708460Y15562500D02*
X25749340Y15641200D01*
G01X25708460D02*
X25749340Y15562500D01*
G01X25788130Y15641200D02*
Y15562500D01*
X25827070D01*
G01X25873650Y15588730D02*
X25898950D01*
G01X25986410Y15634640D02*
X25980570Y15638580D01*
X25973760Y15641200D01*
X25965970D01*
X25957210Y15637260D01*
X25950400Y15630710D01*
X25945530Y15622840D01*
X25941640Y15609720D01*
X25940670Y15597910D01*
X25942610Y15586110D01*
X25945530Y15578240D01*
X25951370Y15570370D01*
X25958190Y15565120D01*
X25965000Y15562500D01*
X25971810D01*
X25978630Y15565120D01*
X25984470Y15569060D01*
X25989330Y15574300D01*
G01X26065110Y15634640D02*
X26059270Y15638580D01*
X26052460Y15641200D01*
X26044670D01*
X26035910Y15637260D01*
X26029100Y15630710D01*
X26024230Y15622840D01*
X26020340Y15609720D01*
X26019370Y15597910D01*
X26021310Y15586110D01*
X26024230Y15578240D01*
X26030070Y15570370D01*
X26036890Y15565120D01*
X26043700Y15562500D01*
X26050510D01*
X26057330Y15565120D01*
X26063170Y15569060D01*
X26068030Y15574300D01*
G01X26122400Y15562500D02*
Y15641200D01*
X26110720Y15625460D01*
G01Y15562500D02*
X26134080D01*
G01X26179690Y15578240D02*
X26185530Y15569060D01*
X26193310Y15563810D01*
X26202070Y15562500D01*
X26209860Y15563810D01*
X26217650Y15570370D01*
X26222510Y15578240D01*
X26223490Y15586110D01*
X26221540Y15595290D01*
X26214730Y15601850D01*
X26207910Y15604470D01*
X26199150D01*
G01X26207910D02*
X26213750Y15608410D01*
X26218620Y15614970D01*
X26220570Y15622840D01*
X26218620Y15630710D01*
X26213750Y15637260D01*
X26204990Y15641200D01*
X26196230Y15639890D01*
X26187470Y15634640D01*
G01X26279800Y15562500D02*
Y15641200D01*
X26268120Y15625460D01*
G01Y15562500D02*
X26291480D01*
G01X26340010Y15628080D02*
X26345850Y15635950D01*
X26352660Y15639890D01*
X26360450Y15641200D01*
X26370180Y15638580D01*
X26376990Y15632020D01*
X26378940Y15624150D01*
X26377970Y15616280D01*
X26374070Y15609720D01*
X26354610Y15596600D01*
X26345850Y15587420D01*
X26340010Y15574300D01*
X26338060Y15562500D01*
X26378940D01*
G01X26417730D02*
Y15641200D01*
X26442070D01*
X26449850Y15637260D01*
X26454720Y15632020D01*
X26456670Y15621520D01*
X26454720Y15611030D01*
X26448880Y15604470D01*
X26442070Y15600540D01*
X26417730D01*
G01X26442070D02*
X26456670Y15562500D01*
G01X26515900D02*
Y15641200D01*
X26504220Y15625460D01*
G01Y15562500D02*
X26527580D01*
G01X26651890D02*
Y15641200D01*
X26671350D01*
X26679140Y15637260D01*
X26684980Y15632020D01*
X26689850Y15624150D01*
X26693740Y15614970D01*
X26694710Y15601850D01*
X26693740Y15588730D01*
X26689850Y15579550D01*
X26684980Y15571680D01*
X26679140Y15566430D01*
X26671350Y15562500D01*
X26651890D01*
M02*
