G04 ================== begin FILE IDENTIFICATION RECORD ==================*
G04 Layout Name:  LAUNCHXL-CC1312R1.brd*
G04 Film Name:    WCS042D_LAUNCHXL-CC1312R1_D_paste_top*
G04 File Format:  Gerber RS274X*
G04 File Origin:  Cadence Allegro 17.2-S024*
G04 Origin Date:  Wed Oct 10 12:29:48 2018*
G04 *
G04 Layer:  DRAWING FORMAT/TITLE_BLOCK*
G04 Layer:  BOARD GEOMETRY/TOP PASTE*
G04 Layer:  PIN/FILMMASKTOP*
G04 Layer:  BOARD GEOMETRY/OUTLINE*
G04 *
G04 Offset:    (0.0000 0.0000)*
G04 Mirror:    No*
G04 Mode:      Positive*
G04 Rotation:  0*
G04 FullContactRelief:  No*
G04 UndefLineWidth:     0.0990*
G04 ================== end FILE IDENTIFICATION RECORD ====================*
%FSLAX25Y25*MOMM*%
%IR0*IPPOS*OFA0.00000B0.00000*MIA0B0*SFA1.00000B1.00000*%
%ADD20O,1.501X.201*%
%ADD16O,.201X1.501*%
%AMMACRO89*
4,1,22,-.4,-.15,
.325,-.15,
.338024,-.148861,
.350652,-.145477,
.3625,-.139952,
.373209,-.132453,
.382453,-.123209,
.389952,-.1125,
.395477,-.100652,
.398861,-.088024,
.4,-.075,
.4,.075,
.398861,.088024,
.395477,.100652,
.389952,.1125,
.382453,.123209,
.373209,.132453,
.3625,.139952,
.350652,.145477,
.338024,.148861,
.325,.15,
-.4,.15,
-.4,-.15,
0.0*
%
%ADD89MACRO89*%
%AMMACRO87*
4,1,22,-.15,.4,
-.15,-.325,
-.148861,-.338024,
-.145477,-.350652,
-.139952,-.3625,
-.132453,-.373209,
-.123209,-.382453,
-.1125,-.389952,
-.100652,-.395477,
-.088024,-.398861,
-.075,-.4,
.075,-.4,
.088024,-.398861,
.100652,-.395477,
.1125,-.389952,
.123209,-.382453,
.132453,-.373209,
.139952,-.3625,
.145477,-.350652,
.148861,-.338024,
.15,-.325,
.15,.4,
-.15,.4,
0.0*
%
%ADD87MACRO87*%
%AMMACRO70*
4,1,45,.4,0.0,
.4,.106,
.398999,.117942,
.395939,.129529,
.390914,.140408,
.384076,.15025,
.375633,.158755,
.365842,.165664,
.354999,.170768,
.343435,.173912,
.3315,.175,
.331,.175,
-.331,.175,
-.342942,.173999,
-.354529,.170939,
-.365408,.165914,
-.37525,.159076,
-.383755,.150633,
-.390664,.140842,
-.395768,.129999,
-.398912,.118435,
-.4,.1065,
-.4,.106,
-.4,-.106,
-.398999,-.117942,
-.395939,-.129529,
-.390914,-.140408,
-.384076,-.15025,
-.375633,-.158755,
-.365842,-.165664,
-.354999,-.170768,
-.343435,-.173912,
-.3315,-.175,
-.331,-.175,
.331,-.175,
.342942,-.173999,
.354529,-.170939,
.365408,-.165914,
.37525,-.159076,
.383755,-.150633,
.390664,-.140842,
.395768,-.129999,
.398912,-.118435,
.4,-.1065,
.4,-.106,
.4,0.0,
0.0*
%
%ADD70MACRO70*%
%AMMACRO78*
4,1,45,0.0,-.4,
.106,-.4,
.117942,-.398999,
.129529,-.395939,
.140408,-.390914,
.15025,-.384076,
.158755,-.375633,
.165664,-.365842,
.170768,-.354999,
.173912,-.343435,
.175,-.3315,
.175,-.331,
.175,.331,
.173999,.342942,
.170939,.354529,
.165914,.365408,
.159076,.37525,
.150633,.383755,
.140842,.390664,
.129999,.395768,
.118435,.398912,
.1065,.4,
.106,.4,
-.106,.4,
-.117942,.398999,
-.129529,.395939,
-.140408,.390914,
-.15025,.384076,
-.158755,.375633,
-.165664,.365842,
-.170768,.354999,
-.173912,.343435,
-.175,.3315,
-.175,.331,
-.175,-.331,
-.173999,-.342942,
-.170939,-.354529,
-.165914,-.365408,
-.159076,-.37525,
-.150633,-.383755,
-.140842,-.390664,
-.129999,-.395768,
-.118435,-.398912,
-.1065,-.4,
-.106,-.4,
0.0,-.4,
0.0*
%
%ADD78MACRO78*%
%ADD83R,1.7X.3*%
%AMMACRO53*
4,1,41,0.0,-.325,
.15,-.325,
.176047,-.322721,
.201303,-.315954,
.225,-.304904,
.246418,-.289907,
.264907,-.271418,
.279904,-.25,
.290954,-.226303,
.297721,-.201047,
.3,-.175,
.3,.175,
.297721,.201047,
.290954,.226303,
.279904,.25,
.264907,.271418,
.246418,.289907,
.225,.304904,
.201303,.315954,
.176047,.322721,
.15,.325,
-.15,.325,
-.176047,.322721,
-.201303,.315954,
-.225,.304904,
-.246418,.289907,
-.264907,.271418,
-.279904,.25,
-.290954,.226303,
-.297721,.201047,
-.3,.175,
-.3,-.175,
-.297721,-.201047,
-.290954,-.226303,
-.279904,-.25,
-.264907,-.271418,
-.246418,-.289907,
-.225,-.304904,
-.201303,-.315954,
-.176047,-.322721,
-.15,-.325,
0.0,-.325,
0.0*
%
%ADD53MACRO53*%
%ADD51O,1.15X.8*%
%AMMACRO55*
4,1,44,.45,.188,
.45,-.188,
.447175,-.22062,
.438729,-.252253,
.424918,-.281939,
.406162,-.308776,
.38303,-.331949,
.356227,-.350752,
.326565,-.364615,
.294946,-.373118,
.262332,-.376,
.262,-.376,
-.262,-.376,
-.29462,-.373175,
-.326253,-.364729,
-.355939,-.350918,
-.382776,-.332162,
-.405949,-.30903,
-.424752,-.282227,
-.438615,-.252565,
-.447118,-.220946,
-.45,-.188332,
-.45,-.188,
-.45,.188,
-.447175,.22062,
-.438729,.252253,
-.424918,.281939,
-.406162,.308776,
-.38303,.331949,
-.356227,.350752,
-.326565,.364615,
-.294946,.373118,
-.262332,.376,
-.262,.376,
.262,.376,
.29462,.373175,
.326253,.364729,
.355939,.350918,
.382776,.332162,
.405949,.30903,
.424752,.282227,
.438615,.252565,
.447118,.220946,
.45,.188332,
.45,.188,
0.0*
%
%ADD55MACRO55*%
%AMMACRO26*
4,1,45,.376,0.0,
.376,.206,
.373522,.235432,
.365972,.263987,
.353577,.290796,
.336715,.315046,
.315899,.336,
.29176,.353021,
.265032,.365591,
.236528,.373329,
.207113,.376,
.206,.376,
-.206,.376,
-.235432,.373522,
-.263987,.365972,
-.290796,.353577,
-.315046,.336715,
-.336,.315899,
-.353021,.29176,
-.365591,.265032,
-.373329,.236528,
-.376,.207113,
-.376,.206,
-.376,-.206,
-.373522,-.235432,
-.365972,-.263987,
-.353577,-.290796,
-.336715,-.315046,
-.315899,-.336,
-.29176,-.353021,
-.265032,-.365591,
-.236528,-.373329,
-.207113,-.376,
-.206,-.376,
.206,-.376,
.235432,-.373522,
.263987,-.365972,
.290796,-.353577,
.315046,-.336715,
.336,-.315899,
.353021,-.29176,
.365591,-.265032,
.373329,-.236528,
.376,-.207113,
.376,-.206,
.376,0.0,
0.0*
%
%ADD26MACRO26*%
%ADD49R,.9X1.7*%
%AMMACRO106*
4,1,20,.825,1.2,
.825,-1.2,
.35,-1.2,
.35,-1.9,
.15,-1.9,
.15,-1.2,
-.15,-1.2,
-.15,-1.9,
-.35,-1.9,
-.35,-1.2,
-.825,-1.2,
-.825,1.2,
-.35,1.2,
-.35,1.9,
-.15,1.9,
-.15,1.2,
.15,1.2,
.15,1.9,
.35,1.9,
.35,1.2,
.825,1.2,
0.0*
%
%ADD106MACRO106*%
%AMMACRO50*
4,1,41,-.35,0.0,
-.35,-.075,
-.348861,-.088024,
-.345477,-.100652,
-.339952,-.1125,
-.332453,-.123209,
-.323209,-.132453,
-.3125,-.139952,
-.300652,-.145477,
-.288024,-.148861,
-.275,-.15,
.275,-.15,
.288024,-.148861,
.300652,-.145477,
.3125,-.139952,
.323209,-.132453,
.332453,-.123209,
.339952,-.1125,
.345477,-.100652,
.348861,-.088024,
.35,-.075,
.35,.075,
.348861,.088024,
.345477,.100652,
.339952,.1125,
.332453,.123209,
.323209,.132453,
.3125,.139952,
.300652,.145477,
.288024,.148861,
.275,.15,
-.275,.15,
-.288024,.148861,
-.300652,.145477,
-.3125,.139952,
-.323209,.132453,
-.332453,.123209,
-.339952,.1125,
-.345477,.100652,
-.348861,.088024,
-.35,.075,
-.35,0.0,
0.0*
%
%ADD50MACRO50*%
%AMMACRO52*
4,1,45,-.2,0.0,
-.2,-.088,
-.198584,-.103187,
-.194552,-.117896,
-.188028,-.131683,
-.179208,-.144127,
-.168361,-.15485,
-.155818,-.163527,
-.141958,-.169894,
-.127203,-.173757,
-.112001,-.175,
-.112,-.175,
.112,-.175,
.127202,-.173758,
.141957,-.169894,
.155817,-.163528,
.168361,-.154851,
.179207,-.144127,
.188027,-.131684,
.194552,-.117897,
.198584,-.103187,
.2,-.088001,
.2,-.088,
.2,.088,
.198584,.103187,
.194552,.117896,
.188028,.131683,
.179208,.144127,
.168361,.15485,
.155818,.163527,
.141958,.169894,
.127203,.173757,
.112001,.175,
.112,.175,
-.112,.175,
-.127202,.173758,
-.141957,.169894,
-.155817,.163528,
-.168361,.154851,
-.179207,.144127,
-.188027,.131684,
-.194552,.117897,
-.198584,.103187,
-.2,.088001,
-.2,.088,
-.2,0.0,
0.0*
%
%ADD52MACRO52*%
%AMMACRO24*
4,1,45,0.0,.2,
-.088,.2,
-.103187,.198584,
-.117896,.194552,
-.131683,.188028,
-.144127,.179208,
-.15485,.168361,
-.163527,.155818,
-.169894,.141958,
-.173757,.127203,
-.175,.112001,
-.175,.112,
-.175,-.112,
-.173758,-.127202,
-.169894,-.141957,
-.163528,-.155817,
-.154851,-.168361,
-.144127,-.179207,
-.131684,-.188027,
-.117897,-.194552,
-.103187,-.198584,
-.088001,-.2,
-.088,-.2,
.088,-.2,
.103187,-.198584,
.117896,-.194552,
.131683,-.188028,
.144127,-.179208,
.15485,-.168361,
.163527,-.155818,
.169894,-.141958,
.173757,-.127203,
.175,-.112001,
.175,-.112,
.175,.112,
.173758,.127202,
.169894,.141957,
.163528,.155817,
.154851,.168361,
.144127,.179207,
.131684,.188027,
.117897,.194552,
.103187,.198584,
.088001,.2,
.088,.2,
0.0,.2,
0.0*
%
%ADD24MACRO24*%
%AMMACRO58*
4,1,41,.5,0.0,
.5,.238,
.496305,.279234,
.485506,.3192,
.467931,.356683,
.444114,.390545,
.414779,.419757,
.380817,.443431,
.34326,.460848,
.303249,.471479,
.262,.475,
-.262,.475,
-.303249,.471479,
-.34326,.460848,
-.380817,.443431,
-.414779,.419757,
-.444114,.390545,
-.467931,.356683,
-.485506,.3192,
-.496305,.279234,
-.5,.238,
-.5,-.238,
-.496305,-.279234,
-.485506,-.3192,
-.467931,-.356683,
-.444114,-.390545,
-.414779,-.419757,
-.380817,-.443431,
-.34326,-.460848,
-.303249,-.471479,
-.262,-.475,
.262,-.475,
.303249,-.471479,
.34326,-.460848,
.380817,-.443431,
.414779,-.419757,
.444114,-.390545,
.467931,-.356683,
.485506,-.3192,
.496305,-.279234,
.5,-.238,
.5,0.0,
0.0*
%
%ADD58MACRO58*%
%AMMACRO62*
4,1,45,.3182,.3182,
.1768,.4596,
.150095,.482011,
.119906,.499447,
.087148,.511375,
.052817,.517434,
.017954,.51744,
-.016379,.511391,
-.049141,.499472,
-.079335,.482046,
-.106045,.459641,
-.1061,.4596,
-.4596,.1061,
-.482007,.079391,
-.499444,.049203,
-.511373,.016445,
-.517434,-.017887,
-.51744,-.052749,
-.511393,-.087083,
-.499476,-.119845,
-.48205,-.15004,
-.459646,-.17675,
-.4596,-.1768,
-.1768,-.4596,
-.150095,-.482011,
-.119906,-.499447,
-.087148,-.511375,
-.052817,-.517434,
-.017954,-.51744,
.016379,-.511391,
.049141,-.499472,
.079335,-.482046,
.106045,-.459641,
.1061,-.4596,
.4596,-.1061,
.482007,-.079391,
.499444,-.049203,
.511373,-.016445,
.517434,.017887,
.51744,.052749,
.511393,.087083,
.499476,.119845,
.48205,.15004,
.459646,.17675,
.4596,.1768,
.3182,.3182,
0.0*
%
%ADD62MACRO62*%
%AMMACRO105*
4,1,45,0.0,.7,
-.212,.7,
-.261931,.695719,
-.310361,.682833,
-.355817,.661732,
-.396918,.633059,
-.432416,.597684,
-.461232,.556683,
-.482491,.511301,
-.495545,.462916,
-.5,.413,
-.5,.412,
-.5,-.412,
-.495719,-.461931,
-.482833,-.510361,
-.461732,-.555817,
-.433059,-.596918,
-.397684,-.632416,
-.356683,-.661232,
-.311301,-.682491,
-.262916,-.695545,
-.213,-.7,
-.212,-.7,
.212,-.7,
.261931,-.695719,
.310361,-.682833,
.355817,-.661732,
.396918,-.633059,
.432416,-.597684,
.461232,-.556683,
.482491,-.511301,
.495545,-.462916,
.5,-.413,
.5,-.412,
.5,.412,
.495719,.461931,
.482833,.510361,
.461732,.555817,
.433059,.596918,
.397684,.632416,
.356683,.661232,
.311301,.682491,
.262916,.695545,
.213,.7,
.212,.7,
0.0,.7,
0.0*
%
%ADD105MACRO105*%
%AMMACRO37*
4,1,45,-.7,0.0,
-.7,-.212,
-.695719,-.261931,
-.682833,-.310361,
-.661732,-.355817,
-.633059,-.396918,
-.597684,-.432416,
-.556683,-.461232,
-.511301,-.482491,
-.462916,-.495545,
-.413,-.5,
-.412,-.5,
.412,-.5,
.461931,-.495719,
.510361,-.482833,
.555817,-.461732,
.596918,-.433059,
.632416,-.397684,
.661232,-.356683,
.682491,-.311301,
.695545,-.262916,
.7,-.213,
.7,-.212,
.7,.212,
.695719,.261931,
.682833,.310361,
.661732,.355817,
.633059,.396918,
.597684,.432416,
.556683,.461232,
.511301,.482491,
.462916,.495545,
.413,.5,
.412,.5,
-.412,.5,
-.461931,.495719,
-.510361,.482833,
-.555817,.461732,
-.596918,.433059,
-.632416,.397684,
-.661232,.356683,
-.682491,.311301,
-.695545,.262916,
-.7,.213,
-.7,.212,
-.7,0.0,
0.0*
%
%ADD37MACRO37*%
%AMMACRO30*
4,1,41,-.375,0.0,
-.375,-.15,
-.372721,-.176047,
-.365954,-.201303,
-.354904,-.225,
-.339907,-.246418,
-.321418,-.264907,
-.3,-.279904,
-.276303,-.290954,
-.251047,-.297721,
-.225,-.3,
.225,-.3,
.251047,-.297721,
.276303,-.290954,
.3,-.279904,
.321418,-.264907,
.339907,-.246418,
.354904,-.225,
.365954,-.201303,
.372721,-.176047,
.375,-.15,
.375,.15,
.372721,.176047,
.365954,.201303,
.354904,.225,
.339907,.246418,
.321418,.264907,
.3,.279904,
.276303,.290954,
.251047,.297721,
.225,.3,
-.225,.3,
-.251047,.297721,
-.276303,.290954,
-.3,.279904,
-.321418,.264907,
-.339907,.246418,
-.354904,.225,
-.365954,.201303,
-.372721,.176047,
-.375,.15,
-.375,0.0,
0.0*
%
%ADD30MACRO30*%
%AMMACRO86*
4,1,45,0.0,-1.525,
.187,-1.525,
.219567,-1.522238,
.251159,-1.513863,
.280817,-1.50013,
.30764,-1.481455,
.330812,-1.458406,
.34963,-1.431683,
.363521,-1.402099,
.372065,-1.370552,
.375,-1.338,
.375,-1.337,
.375,1.337,
.372238,1.369567,
.363863,1.401159,
.35013,1.430817,
.331455,1.45764,
.308406,1.480812,
.281683,1.49963,
.252099,1.513521,
.220552,1.522065,
.188,1.525,
.187,1.525,
-.187,1.525,
-.219567,1.522238,
-.251159,1.513863,
-.280817,1.50013,
-.30764,1.481455,
-.330812,1.458406,
-.34963,1.431683,
-.363521,1.402099,
-.372065,1.370552,
-.375,1.338,
-.375,1.337,
-.375,-1.337,
-.372238,-1.369567,
-.363863,-1.401159,
-.35013,-1.430817,
-.331455,-1.45764,
-.308406,-1.480812,
-.281683,-1.49963,
-.252099,-1.513521,
-.220552,-1.522065,
-.188,-1.525,
-.187,-1.525,
0.0,-1.525,
0.0*
%
%ADD86MACRO86*%
%AMMACRO95*
4,1,41,0.0,-.5,
.075,-.5,
.088024,-.498861,
.100652,-.495477,
.1125,-.489952,
.123209,-.482453,
.132453,-.473209,
.139952,-.4625,
.145477,-.450652,
.148861,-.438024,
.15,-.425,
.15,.425,
.148861,.438024,
.145477,.450652,
.139952,.4625,
.132453,.473209,
.123209,.482453,
.1125,.489952,
.100652,.495477,
.088024,.498861,
.075,.5,
-.075,.5,
-.088024,.498861,
-.100652,.495477,
-.1125,.489952,
-.123209,.482453,
-.132453,.473209,
-.139952,.4625,
-.145477,.450652,
-.148861,.438024,
-.15,.425,
-.15,-.425,
-.148861,-.438024,
-.145477,-.450652,
-.139952,-.4625,
-.132453,-.473209,
-.123209,-.482453,
-.1125,-.489952,
-.100652,-.495477,
-.088024,-.498861,
-.075,-.5,
0.0,-.5,
0.0*
%
%ADD95MACRO95*%
%AMMACRO98*
4,1,41,1.,0.0,
1.,.15,
.997721,.176047,
.990954,.201303,
.979904,.225,
.964907,.246418,
.946418,.264907,
.925,.279904,
.901303,.290954,
.876047,.297721,
.85,.3,
-.85,.3,
-.876047,.297721,
-.901303,.290954,
-.925,.279904,
-.946418,.264907,
-.964907,.246418,
-.979904,.225,
-.990954,.201303,
-.997721,.176047,
-1.,.15,
-1.,-.15,
-.997721,-.176047,
-.990954,-.201303,
-.979904,-.225,
-.964907,-.246418,
-.946418,-.264907,
-.925,-.279904,
-.901303,-.290954,
-.876047,-.297721,
-.85,-.3,
.85,-.3,
.876047,-.297721,
.901303,-.290954,
.925,-.279904,
.946418,-.264907,
.964907,-.246418,
.979904,-.225,
.990954,-.201303,
.997721,-.176047,
1.,-.15,
1.,0.0,
0.0*
%
%ADD98MACRO98*%
%AMMACRO69*
4,1,41,-.4,0.0,
-.4,-.05,
-.39924,-.058682,
-.396985,-.067101,
-.393301,-.075,
-.388302,-.082139,
-.382139,-.088302,
-.375,-.093301,
-.367101,-.096985,
-.358682,-.09924,
-.35,-.1,
.35,-.1,
.358682,-.09924,
.367101,-.096985,
.375,-.093301,
.382139,-.088302,
.388302,-.082139,
.393301,-.075,
.396985,-.067101,
.39924,-.058682,
.4,-.05,
.4,.05,
.39924,.058682,
.396985,.067101,
.393301,.075,
.388302,.082139,
.382139,.088302,
.375,.093301,
.367101,.096985,
.358682,.09924,
.35,.1,
-.35,.1,
-.358682,.09924,
-.367101,.096985,
-.375,.093301,
-.382139,.088302,
-.388302,.082139,
-.393301,.075,
-.396985,.067101,
-.39924,.058682,
-.4,.05,
-.4,0.0,
0.0*
%
%ADD69MACRO69*%
%AMMACRO94*
4,1,41,-.725,0.0,
-.725,-.288,
-.720545,-.337916,
-.707491,-.386301,
-.686232,-.431683,
-.657416,-.472684,
-.621918,-.508059,
-.580817,-.536732,
-.535361,-.557833,
-.486931,-.570719,
-.438,-.575,
.438,-.575,
.487916,-.570545,
.536301,-.557491,
.581683,-.536232,
.622684,-.507416,
.658059,-.471918,
.686732,-.430817,
.707833,-.385361,
.720719,-.336931,
.725,-.288,
.725,.288,
.720545,.337916,
.707491,.386301,
.686232,.431683,
.657416,.472684,
.621918,.508059,
.580817,.536732,
.535361,.557833,
.486931,.570719,
.438,.575,
-.438,.575,
-.487916,.570545,
-.536301,.557491,
-.581683,.536232,
-.622684,.507416,
-.658059,.471918,
-.686732,.430817,
-.707833,.385361,
-.720719,.336931,
-.725,.288,
-.725,0.0,
0.0*
%
%ADD94MACRO94*%
%AMMACRO81*
4,1,41,0.0,.725,
-.288,.725,
-.337916,.720545,
-.386301,.707491,
-.431683,.686232,
-.472684,.657416,
-.508059,.621918,
-.536732,.580817,
-.557833,.535361,
-.570719,.486931,
-.575,.438,
-.575,-.438,
-.570545,-.487916,
-.557491,-.536301,
-.536232,-.581683,
-.507416,-.622684,
-.471918,-.658059,
-.430817,-.686732,
-.385361,-.707833,
-.336931,-.720719,
-.288,-.725,
.288,-.725,
.337916,-.720545,
.386301,-.707491,
.431683,-.686232,
.472684,-.657416,
.508059,-.621918,
.536732,-.580817,
.557833,-.535361,
.570719,-.486931,
.575,-.438,
.575,.438,
.570545,.487916,
.557491,.536301,
.536232,.581683,
.507416,.622684,
.471918,.658059,
.430817,.686732,
.385361,.707833,
.336931,.720719,
.288,.725,
0.0,.725,
0.0*
%
%ADD81MACRO81*%
%AMMACRO104*
4,1,41,.65,0.0,
.65,.225,
.646582,.264071,
.636431,.301955,
.619856,.3375,
.59736,.369627,
.569627,.39736,
.5375,.419856,
.501955,.436431,
.464071,.446582,
.425,.45,
-.425,.45,
-.464071,.446582,
-.501955,.436431,
-.5375,.419856,
-.569627,.39736,
-.59736,.369627,
-.619856,.3375,
-.636431,.301955,
-.646582,.264071,
-.65,.225,
-.65,-.225,
-.646582,-.264071,
-.636431,-.301955,
-.619856,-.3375,
-.59736,-.369627,
-.569627,-.39736,
-.5375,-.419856,
-.501955,-.436431,
-.464071,-.446582,
-.425,-.45,
.425,-.45,
.464071,-.446582,
.501955,-.436431,
.5375,-.419856,
.569627,-.39736,
.59736,-.369627,
.619856,-.3375,
.636431,-.301955,
.646582,-.264071,
.65,-.225,
.65,0.0,
0.0*
%
%ADD104MACRO104*%
%AMMACRO101*
4,1,41,.725,0.0,
.725,.075,
.723861,.088024,
.720477,.100652,
.714952,.1125,
.707453,.123209,
.698209,.132453,
.6875,.139952,
.675652,.145477,
.663024,.148861,
.65,.15,
-.65,.15,
-.663024,.148861,
-.675652,.145477,
-.6875,.139952,
-.698209,.132453,
-.707453,.123209,
-.714952,.1125,
-.720477,.100652,
-.723861,.088024,
-.725,.075,
-.725,-.075,
-.723861,-.088024,
-.720477,-.100652,
-.714952,-.1125,
-.707453,-.123209,
-.698209,-.132453,
-.6875,-.139952,
-.675652,-.145477,
-.663024,-.148861,
-.65,-.15,
.65,-.15,
.663024,-.148861,
.675652,-.145477,
.6875,-.139952,
.698209,-.132453,
.707453,-.123209,
.714952,-.1125,
.720477,-.100652,
.723861,-.088024,
.725,-.075,
.725,0.0,
0.0*
%
%ADD101MACRO101*%
%AMMACRO33*
4,1,41,0.0,.325,
-.05,.325,
-.058682,.32424,
-.067101,.321985,
-.075,.318301,
-.082139,.313302,
-.088302,.307139,
-.093301,.3,
-.096985,.292101,
-.09924,.283682,
-.1,.275,
-.1,-.275,
-.09924,-.283682,
-.096985,-.292101,
-.093301,-.3,
-.088302,-.307139,
-.082139,-.313302,
-.075,-.318301,
-.067101,-.321985,
-.058682,-.32424,
-.05,-.325,
.05,-.325,
.058682,-.32424,
.067101,-.321985,
.075,-.318301,
.082139,-.313302,
.088302,-.307139,
.093301,-.3,
.096985,-.292101,
.09924,-.283682,
.1,-.275,
.1,.275,
.09924,.283682,
.096985,.292101,
.093301,.3,
.088302,.307139,
.082139,.313302,
.075,.318301,
.067101,.321985,
.058682,.32424,
.05,.325,
0.0,.325,
0.0*
%
%ADD33MACRO33*%
%AMMACRO108*
4,1,41,-2.4,0.0,
-2.4,-.288,
-2.395545,-.337916,
-2.382491,-.386301,
-2.361232,-.431683,
-2.332416,-.472684,
-2.296918,-.508059,
-2.255817,-.536732,
-2.210361,-.557833,
-2.161931,-.570719,
-2.112,-.575,
2.112,-.575,
2.161931,-.570719,
2.210361,-.557833,
2.255817,-.536732,
2.296918,-.508059,
2.332416,-.472684,
2.361232,-.431683,
2.382491,-.386301,
2.395545,-.337916,
2.4,-.288,
2.4,.288,
2.395545,.337916,
2.382491,.386301,
2.361232,.431683,
2.332416,.472684,
2.296918,.508059,
2.255817,.536732,
2.210361,.557833,
2.161931,.570719,
2.112,.575,
-2.112,.575,
-2.161931,.570719,
-2.210361,.557833,
-2.255817,.536732,
-2.296918,.508059,
-2.332416,.472684,
-2.361232,.431683,
-2.382491,.386301,
-2.395545,.337916,
-2.4,.288,
-2.4,0.0,
0.0*
%
%ADD108MACRO108*%
%AMMACRO102*
4,1,41,0.0,-.725,
.075,-.725,
.088024,-.723861,
.100652,-.720477,
.1125,-.714952,
.123209,-.707453,
.132453,-.698209,
.139952,-.6875,
.145477,-.675652,
.148861,-.663024,
.15,-.65,
.15,.65,
.148861,.663024,
.145477,.675652,
.139952,.6875,
.132453,.698209,
.123209,.707453,
.1125,.714952,
.100652,.720477,
.088024,.723861,
.075,.725,
-.075,.725,
-.088024,.723861,
-.100652,.720477,
-.1125,.714952,
-.123209,.707453,
-.132453,.698209,
-.139952,.6875,
-.145477,.675652,
-.148861,.663024,
-.15,.65,
-.15,-.65,
-.148861,-.663024,
-.145477,-.675652,
-.139952,-.6875,
-.132453,-.698209,
-.123209,-.707453,
-.1125,-.714952,
-.100652,-.720477,
-.088024,-.723861,
-.075,-.725,
0.0,-.725,
0.0*
%
%ADD102MACRO102*%
%AMMACRO109*
4,1,41,.75,0.0,
.75,.075,
.747721,.101047,
.740954,.126303,
.729904,.15,
.714907,.171418,
.696418,.189907,
.675,.204904,
.651303,.215954,
.626047,.222721,
.6,.225,
-.6,.225,
-.626047,.222721,
-.651303,.215954,
-.675,.204904,
-.696418,.189907,
-.714907,.171418,
-.729904,.15,
-.740954,.126303,
-.747721,.101047,
-.75,.075,
-.75,-.075,
-.747721,-.101047,
-.740954,-.126303,
-.729904,-.15,
-.714907,-.171418,
-.696418,-.189907,
-.675,-.204904,
-.651303,-.215954,
-.626047,-.222721,
-.6,-.225,
.6,-.225,
.626047,-.222721,
.651303,-.215954,
.675,-.204904,
.696418,-.189907,
.714907,-.171418,
.729904,-.15,
.740954,-.126303,
.747721,-.101047,
.75,-.075,
.75,0.0,
0.0*
%
%ADD109MACRO109*%
%AMMACRO66*
4,1,41,0.0,.4,
-.05,.4,
-.063024,.398861,
-.075652,.395477,
-.0875,.389952,
-.098209,.382453,
-.107453,.373209,
-.114952,.3625,
-.120477,.350652,
-.123861,.338024,
-.125,.325,
-.125,-.325,
-.123861,-.338024,
-.120477,-.350652,
-.114952,-.3625,
-.107453,-.373209,
-.098209,-.382453,
-.0875,-.389952,
-.075652,-.395477,
-.063024,-.398861,
-.05,-.4,
.05,-.4,
.063024,-.398861,
.075652,-.395477,
.0875,-.389952,
.098209,-.382453,
.107453,-.373209,
.114952,-.3625,
.120477,-.350652,
.123861,-.338024,
.125,-.325,
.125,.325,
.123861,.338024,
.120477,.350652,
.114952,.3625,
.107453,.373209,
.098209,.382453,
.0875,.389952,
.075652,.395477,
.063024,.398861,
.05,.4,
0.0,.4,
0.0*
%
%ADD66MACRO66*%
%AMMACRO47*
4,1,44,0.0,-.7,
.112,-.7,
.131543,-.698378,
.150507,-.693386,
.168317,-.685178,
.184431,-.674001,
.198359,-.660197,
.209678,-.644183,
.218044,-.626447,
.223204,-.607528,
.225,-.588,
.225,.588,
.223204,.607528,
.218044,.626447,
.209678,.644183,
.198359,.660197,
.184431,.674001,
.168317,.685178,
.150507,.693386,
.131543,.698378,
.112,.7,
.112,.7,
-.112,.7,
-.131543,.698378,
-.150507,.693386,
-.168317,.685178,
-.184431,.674001,
-.198359,.660197,
-.209678,.644183,
-.218044,.626447,
-.223204,.607528,
-.225,.588,
-.225,.588,
-.225,-.588,
-.223204,-.607528,
-.218044,-.626447,
-.209678,-.644183,
-.198359,-.660197,
-.184431,-.674001,
-.168317,-.685178,
-.150507,-.693386,
-.131543,-.698378,
-.112,-.7,
-.112,-.7,
0.0,-.7,
0.0*
%
%ADD47MACRO47*%
%AMMACRO56*
4,1,44,-.263,.1075,
-.278704,.088823,
-.290913,.067693,
-.299267,.044763,
-.303512,.020732,
-.30352,-.003672,
-.29929,-.027706,
-.290951,-.050641,
-.278756,-.071779,
-.263075,-.090478,
-.263,-.0905,
-.0905,-.263,
-.071835,-.278716,
-.050703,-.290922,
-.027773,-.299272,
-.003741,-.303514,
.020663,-.303518,
.044697,-.299285,
.06763,-.290942,
.088766,-.278744,
.107463,-.263061,
.1075,-.263,
.263,-.1075,
.278704,-.088823,
.290913,-.067693,
.299267,-.044763,
.303512,-.020732,
.30352,.003672,
.29929,.027706,
.290951,.050641,
.278756,.071779,
.263075,.090478,
.263,.0905,
.0905,.263,
.071835,.278716,
.050703,.290922,
.027773,.299272,
.003741,.303514,
-.020663,.303518,
-.044697,.299285,
-.06763,.290942,
-.088766,.278744,
-.107463,.263061,
-.1075,.263,
-.263,.1075,
0.0*
%
%ADD56MACRO56*%
%AMMACRO21*
4,1,40,-.262,-.11,
-.259873,-.134311,
-.253557,-.157883,
-.243244,-.18,
-.229246,-.19999,
-.21199,-.217246,
-.192,-.231244,
-.169883,-.241557,
-.146311,-.247873,
-.122,-.25,
.122,-.25,
.146311,-.247873,
.169883,-.241557,
.192,-.231244,
.21199,-.217246,
.229246,-.19999,
.243244,-.18,
.253557,-.157883,
.259873,-.134311,
.262,-.11,
.262,.11,
.259873,.134311,
.253557,.157883,
.243244,.18,
.229246,.19999,
.21199,.217246,
.192,.231244,
.169883,.241557,
.146311,.247873,
.122,.25,
-.122,.25,
-.146311,.247873,
-.169883,.241557,
-.192,.231244,
-.21199,.217246,
-.229246,.19999,
-.243244,.18,
-.253557,.157883,
-.259873,.134311,
-.262,.11,
-.262,-.11,
0.0*
%
%ADD21MACRO21*%
%AMMACRO18*
4,1,40,-.11,.262,
-.134311,.259873,
-.157883,.253557,
-.18,.243244,
-.19999,.229246,
-.217246,.21199,
-.231244,.192,
-.241557,.169883,
-.247873,.146311,
-.25,.122,
-.25,-.122,
-.247873,-.146311,
-.241557,-.169883,
-.231244,-.192,
-.217246,-.21199,
-.19999,-.229246,
-.18,-.243244,
-.157883,-.253557,
-.134311,-.259873,
-.11,-.262,
.11,-.262,
.134311,-.259873,
.157883,-.253557,
.18,-.243244,
.19999,-.229246,
.217246,-.21199,
.231244,-.192,
.241557,-.169883,
.247873,-.146311,
.25,-.122,
.25,.122,
.247873,.146311,
.241557,.169883,
.231244,.192,
.217246,.21199,
.19999,.229246,
.18,.243244,
.157883,.253557,
.134311,.259873,
.11,.262,
-.11,.262,
0.0*
%
%ADD18MACRO18*%
%AMMACRO12*
4,1,44,.1075,.263,
.088823,.278704,
.067693,.290913,
.044763,.299267,
.020732,.303512,
-.003672,.30352,
-.027706,.29929,
-.050641,.290951,
-.071779,.278756,
-.090478,.263075,
-.0905,.263,
-.263,.0905,
-.278716,.071835,
-.290922,.050703,
-.299272,.027773,
-.303514,.003741,
-.303518,-.020663,
-.299285,-.044697,
-.290942,-.06763,
-.278744,-.088766,
-.263061,-.107463,
-.263,-.1075,
-.1075,-.263,
-.088823,-.278704,
-.067693,-.290913,
-.044763,-.299267,
-.020732,-.303512,
.003672,-.30352,
.027706,-.29929,
.050641,-.290951,
.071779,-.278756,
.090478,-.263075,
.0905,-.263,
.263,-.0905,
.278716,-.071835,
.290922,-.050703,
.299272,-.027773,
.303514,-.003741,
.303518,.020663,
.299285,.044697,
.290942,.06763,
.278744,.088766,
.263061,.107463,
.263,.1075,
.1075,.263,
0.0*
%
%ADD12MACRO12*%
%AMMACRO11*
4,1,44,-.1075,-.263,
-.088823,-.278704,
-.067693,-.290913,
-.044763,-.299267,
-.020732,-.303512,
.003672,-.30352,
.027706,-.29929,
.050641,-.290951,
.071779,-.278756,
.090478,-.263075,
.0905,-.263,
.263,-.0905,
.278716,-.071835,
.290922,-.050703,
.299272,-.027773,
.303514,-.003741,
.303518,.020663,
.299285,.044697,
.290942,.06763,
.278744,.088766,
.263061,.107463,
.263,.1075,
.1075,.263,
.088823,.278704,
.067693,.290913,
.044763,.299267,
.020732,.303512,
-.003672,.30352,
-.027706,.29929,
-.050641,.290951,
-.071779,.278756,
-.090478,.263075,
-.0905,.263,
-.263,.0905,
-.278716,.071835,
-.290922,.050703,
-.299272,.027773,
-.303514,.003741,
-.303518,-.020663,
-.299285,-.044697,
-.290942,-.06763,
-.278744,-.088766,
-.263061,-.107463,
-.263,-.1075,
-.1075,-.263,
0.0*
%
%ADD11MACRO11*%
%AMMACRO43*
4,1,41,0.0,.325,
-.135,.325,
-.167125,.322189,
-.198274,.313843,
-.2275,.300215,
-.253916,.281718,
-.276718,.258916,
-.295215,.2325,
-.308843,.203274,
-.317189,.172125,
-.32,.14,
-.32,-.14,
-.317189,-.172125,
-.308843,-.203274,
-.295215,-.2325,
-.276718,-.258916,
-.253916,-.281718,
-.2275,-.300215,
-.198274,-.313843,
-.167125,-.322189,
-.135,-.325,
.135,-.325,
.167125,-.322189,
.198274,-.313843,
.2275,-.300215,
.253916,-.281718,
.276718,-.258916,
.295215,-.2325,
.308843,-.203274,
.317189,-.172125,
.32,-.14,
.32,.14,
.317189,.172125,
.308843,.203274,
.295215,.2325,
.276718,.258916,
.253916,.281718,
.2275,.300215,
.198274,.313843,
.167125,.322189,
.135,.325,
0.0,.325,
0.0*
%
%ADD43MACRO43*%
%AMMACRO28*
4,1,45,-.2298,-.2298,
-.1344,-.3253,
-.109658,-.34599,
-.081732,-.362116,
-.05143,-.373147,
-.019673,-.378749,
.012575,-.378752,
.044333,-.373154,
.074637,-.362127,
.102565,-.346005,
.12727,-.325279,
.1273,-.3253,
.3253,-.1273,
.346002,-.10257,
.362124,-.074642,
.373152,-.044339,
.378751,-.012581,
.37875,.019666,
.373149,.051424,
.362118,.081726,
.345993,.109653,
.325264,.134355,
.3253,.1344,
.1344,.3253,
.109658,.34599,
.081732,.362116,
.05143,.373147,
.019673,.378749,
-.012575,.378752,
-.044333,.373154,
-.074637,.362127,
-.102565,.346005,
-.12727,.325279,
-.1273,.3253,
-.3253,.1273,
-.346002,.10257,
-.362124,.074642,
-.373152,.044339,
-.378751,.012581,
-.37875,-.019666,
-.373149,-.051424,
-.362118,-.081726,
-.345993,-.109653,
-.325264,-.134355,
-.3253,-.1344,
-.2298,-.2298,
0.0*
%
%ADD28MACRO28*%
%AMMACRO27*
4,1,45,-.2298,.2298,
-.3253,.1344,
-.34599,.109658,
-.362116,.081732,
-.373147,.05143,
-.378749,.019673,
-.378752,-.012575,
-.373154,-.044333,
-.362127,-.074637,
-.346005,-.102565,
-.325279,-.12727,
-.3253,-.1273,
-.1273,-.3253,
-.10257,-.346002,
-.074642,-.362124,
-.044339,-.373152,
-.012581,-.378751,
.019666,-.37875,
.051424,-.373149,
.081726,-.362118,
.109653,-.345993,
.134355,-.325264,
.1344,-.3253,
.3253,-.1344,
.34599,-.109658,
.362116,-.081732,
.373147,-.05143,
.378749,-.019673,
.378752,.012575,
.373154,.044333,
.362127,.074637,
.346005,.102565,
.325279,.12727,
.3253,.1273,
.1273,.3253,
.10257,.346002,
.074642,.362124,
.044339,.373152,
.012581,.378751,
-.019666,.37875,
-.051424,.373149,
-.081726,.362118,
-.109653,.345993,
-.134355,.325264,
-.1344,.3253,
-.2298,.2298,
0.0*
%
%ADD27MACRO27*%
%AMMACRO22*
4,1,41,-.325,0.0,
-.325,-.135,
-.322189,-.167125,
-.313843,-.198274,
-.300215,-.2275,
-.281718,-.253916,
-.258916,-.276718,
-.2325,-.295215,
-.203274,-.308843,
-.172125,-.317189,
-.14,-.32,
.14,-.32,
.172125,-.317189,
.203274,-.308843,
.2325,-.295215,
.258916,-.276718,
.281718,-.253916,
.300215,-.2275,
.313843,-.198274,
.322189,-.167125,
.325,-.135,
.325,.135,
.322189,.167125,
.313843,.198274,
.300215,.2275,
.281718,.253916,
.258916,.276718,
.2325,.295215,
.203274,.308843,
.172125,.317189,
.14,.32,
-.14,.32,
-.172125,.317189,
-.203274,.308843,
-.2325,.295215,
-.258916,.276718,
-.281718,.253916,
-.300215,.2275,
-.313843,.198274,
-.322189,.167125,
-.325,.135,
-.325,0.0,
0.0*
%
%ADD22MACRO22*%
%AMMACRO100*
4,1,41,.5,0.0,
.5,.256,
.49672,.293989,
.486894,.330832,
.470819,.365409,
.448983,.396669,
.422052,.423662,
.390842,.445569,
.356303,.461723,
.319483,.471634,
.282,.475,
-.282,.475,
-.319974,.471546,
-.356771,.461551,
-.391274,.445318,
-.422434,.42334,
-.449304,.396285,
-.471067,.364976,
-.487063,.330363,
-.496806,.293498,
-.5,.256,
-.5,-.256,
-.49672,-.293989,
-.486894,-.330832,
-.470819,-.365409,
-.448983,-.396669,
-.422052,-.423662,
-.390842,-.445569,
-.356303,-.461723,
-.319483,-.471634,
-.282,-.475,
.282,-.475,
.319974,-.471546,
.356771,-.461551,
.391274,-.445318,
.422434,-.42334,
.449304,-.396285,
.471067,-.364976,
.487063,-.330363,
.496806,-.293498,
.5,-.256,
.5,0.0,
0.0*
%
%ADD100MACRO100*%
%AMMACRO73*
4,1,45,0.0,.375,
-.088,.375,
-.098845,.373964,
-.109346,.37106,
-.119183,.366377,
-.128057,.360057,
-.135699,.352292,
-.141876,.343318,
-.146402,.333407,
-.149137,.322862,
-.15,.312001,
-.15,.312,
-.15,-.312,
-.149137,-.322861,
-.146402,-.333406,
-.141877,-.343317,
-.1357,-.352291,
-.128058,-.360056,
-.119184,-.366376,
-.109347,-.37106,
-.098847,-.373964,
-.088001,-.375,
-.088,-.375,
.088,-.375,
.098845,-.373964,
.109346,-.37106,
.119183,-.366377,
.128057,-.360057,
.135699,-.352292,
.141876,-.343318,
.146402,-.333407,
.149137,-.322862,
.15,-.312001,
.15,-.312,
.15,.312,
.149137,.322861,
.146402,.333406,
.141877,.343317,
.1357,.352291,
.128058,.360056,
.119184,.366376,
.109347,.37106,
.098847,.373964,
.088001,.375,
.088,.375,
0.0,.375,
0.0*
%
%ADD73MACRO73*%
%AMMACRO90*
4,1,22,.4,.15,
-.325,.15,
-.338024,.148861,
-.350652,.145477,
-.3625,.139952,
-.373209,.132453,
-.382453,.123209,
-.389952,.1125,
-.395477,.100652,
-.398861,.088024,
-.4,.075,
-.4,-.075,
-.398861,-.088024,
-.395477,-.100652,
-.389952,-.1125,
-.382453,-.123209,
-.373209,-.132453,
-.3625,-.139952,
-.350652,-.145477,
-.338024,-.148861,
-.325,-.15,
.4,-.15,
.4,.15,
0.0*
%
%ADD90MACRO90*%
%AMMACRO75*
4,1,44,-.188,.45,
.188,.45,
.22062,.447175,
.252253,.438729,
.281939,.424918,
.308776,.406162,
.331949,.38303,
.350752,.356227,
.364615,.326565,
.373118,.294946,
.376,.262332,
.376,.262,
.376,-.262,
.373175,-.29462,
.364729,-.326253,
.350918,-.355939,
.332162,-.382776,
.30903,-.405949,
.282227,-.424752,
.252565,-.438615,
.220946,-.447118,
.188332,-.45,
.188,-.45,
-.188,-.45,
-.22062,-.447175,
-.252253,-.438729,
-.281939,-.424918,
-.308776,-.406162,
-.331949,-.38303,
-.350752,-.356227,
-.364615,-.326565,
-.373118,-.294946,
-.376,-.262332,
-.376,-.262,
-.376,.262,
-.373175,.29462,
-.364729,.326253,
-.350918,.355939,
-.332162,.382776,
-.30903,.405949,
-.282227,.424752,
-.252565,.438615,
-.220946,.447118,
-.188332,.45,
-.188,.45,
0.0*
%
%ADD75MACRO75*%
%AMMACRO88*
4,1,22,.15,-.4,
.15,.325,
.148861,.338024,
.145477,.350652,
.139952,.3625,
.132453,.373209,
.123209,.382453,
.1125,.389952,
.100652,.395477,
.088024,.398861,
.075,.4,
-.075,.4,
-.088024,.398861,
-.100652,.395477,
-.1125,.389952,
-.123209,.382453,
-.132453,.373209,
-.139952,.3625,
-.145477,.350652,
-.148861,.338024,
-.15,.325,
-.15,-.4,
.15,-.4,
0.0*
%
%ADD88MACRO88*%
%AMMACRO19*
4,1,45,-.376,0.0,
-.376,-.206,
-.373522,-.235432,
-.365972,-.263987,
-.353577,-.290796,
-.336715,-.315046,
-.315899,-.336,
-.29176,-.353021,
-.265032,-.365591,
-.236528,-.373329,
-.207113,-.376,
-.206,-.376,
.206,-.376,
.235432,-.373522,
.263987,-.365972,
.290796,-.353577,
.315046,-.336715,
.336,-.315899,
.353021,-.29176,
.365591,-.265032,
.373329,-.236528,
.376,-.207113,
.376,-.206,
.376,.206,
.373522,.235432,
.365972,.263987,
.353577,.290796,
.336715,.315046,
.315899,.336,
.29176,.353021,
.265032,.365591,
.236528,.373329,
.207113,.376,
.206,.376,
-.206,.376,
-.235432,.373522,
-.263987,.365972,
-.290796,.353577,
-.315046,.336715,
-.336,.315899,
-.353021,.29176,
-.365591,.265032,
-.373329,.236528,
-.376,.207113,
-.376,.206,
-.376,0.0,
0.0*
%
%ADD19MACRO19*%
%AMMACRO103*
4,1,41,.7,0.0,
.7,.3,
.695442,.352094,
.681908,.402606,
.659808,.45,
.629813,.492836,
.592836,.529813,
.55,.559808,
.502606,.581908,
.452094,.595442,
.4,.6,
-.4,.6,
-.452094,.595442,
-.502606,.581908,
-.55,.559808,
-.592836,.529813,
-.629813,.492836,
-.659808,.45,
-.681908,.402606,
-.695442,.352094,
-.7,.3,
-.7,-.3,
-.695442,-.352094,
-.681908,-.402606,
-.659808,-.45,
-.629813,-.492836,
-.592836,-.529813,
-.55,-.559808,
-.502606,-.581908,
-.452094,-.595442,
-.4,-.6,
.4,-.6,
.452094,-.595442,
.502606,-.581908,
.55,-.559808,
.592836,-.529813,
.629813,-.492836,
.659808,-.45,
.681908,-.402606,
.695442,-.352094,
.7,-.3,
.7,0.0,
0.0*
%
%ADD103MACRO103*%
%ADD74R,2.5X1.65*%
%ADD38O,.851X.3*%
%ADD71R,1.65X2.5*%
%ADD39O,.3X.851*%
%AMMACRO54*
4,1,41,.9,0.0,
.9,.25,
.896202,.293412,
.884923,.335505,
.866506,.375,
.841511,.410697,
.810697,.441511,
.775,.466506,
.735505,.484923,
.693412,.496202,
.65,.5,
-.65,.5,
-.693412,.496202,
-.735505,.484923,
-.775,.466506,
-.810697,.441511,
-.841511,.410697,
-.866506,.375,
-.884923,.335505,
-.896202,.293412,
-.9,.25,
-.9,-.25,
-.896202,-.293412,
-.884923,-.335505,
-.866506,-.375,
-.841511,-.410697,
-.810697,-.441511,
-.775,-.466506,
-.735505,-.484923,
-.693412,-.496202,
-.65,-.5,
.65,-.5,
.693412,-.496202,
.735505,-.484923,
.775,-.466506,
.810697,-.441511,
.841511,-.410697,
.866506,-.375,
.884923,-.335505,
.896202,-.293412,
.9,-.25,
.9,0.0,
0.0*
%
%ADD54MACRO54*%
%ADD85C,1.8*%
%AMMACRO48*
4,1,41,0.0,-.2,
.075,-.2,
.088024,-.198861,
.100652,-.195477,
.1125,-.189952,
.123209,-.182453,
.132453,-.173209,
.139952,-.1625,
.145477,-.150652,
.148861,-.138024,
.15,-.125,
.15,.125,
.148861,.138024,
.145477,.150652,
.139952,.1625,
.132453,.173209,
.123209,.182453,
.1125,.189952,
.100652,.195477,
.088024,.198861,
.075,.2,
-.075,.2,
-.088024,.198861,
-.100652,.195477,
-.1125,.189952,
-.123209,.182453,
-.132453,.173209,
-.139952,.1625,
-.145477,.150652,
-.148861,.138024,
-.15,.125,
-.15,-.125,
-.148861,-.138024,
-.145477,-.150652,
-.139952,-.1625,
-.132453,-.173209,
-.123209,-.182453,
-.1125,-.189952,
-.100652,-.195477,
-.088024,-.198861,
-.075,-.2,
0.0,-.2,
0.0*
%
%ADD48MACRO48*%
%ADD10C,1.27*%
%AMMACRO65*
4,1,20,-1.2,.825,
1.2,.825,
1.2,.35,
1.9,.35,
1.9,.15,
1.2,.15,
1.2,-.15,
1.9,-.15,
1.9,-.35,
1.2,-.35,
1.2,-.825,
-1.2,-.825,
-1.2,-.35,
-1.9,-.35,
-1.9,-.15,
-1.2,-.15,
-1.2,.15,
-1.9,.15,
-1.9,.35,
-1.2,.35,
-1.2,.825,
0.0*
%
%ADD65MACRO65*%
%AMMACRO76*
4,1,41,-.5,0.0,
-.5,-.238,
-.496305,-.279234,
-.485506,-.3192,
-.467931,-.356683,
-.444114,-.390545,
-.414779,-.419757,
-.380817,-.443431,
-.34326,-.460848,
-.303249,-.471479,
-.262,-.475,
.262,-.475,
.303249,-.471479,
.34326,-.460848,
.380817,-.443431,
.414779,-.419757,
.444114,-.390545,
.467931,-.356683,
.485506,-.3192,
.496305,-.279234,
.5,-.238,
.5,.238,
.496305,.279234,
.485506,.3192,
.467931,.356683,
.444114,.390545,
.414779,.419757,
.380817,.443431,
.34326,.460848,
.303249,.471479,
.262,.475,
-.262,.475,
-.303249,.471479,
-.34326,.460848,
-.380817,.443431,
-.414779,.419757,
-.444114,.390545,
-.467931,.356683,
-.485506,.3192,
-.496305,.279234,
-.5,.238,
-.5,0.0,
0.0*
%
%ADD76MACRO76*%
%AMMACRO64*
4,1,41,0.0,.5,
-.238,.5,
-.279234,.496305,
-.3192,.485506,
-.356683,.467931,
-.390545,.444114,
-.419757,.414779,
-.443431,.380817,
-.460848,.34326,
-.471479,.303249,
-.475,.262,
-.475,-.262,
-.471479,-.303249,
-.460848,-.34326,
-.443431,-.380817,
-.419757,-.414779,
-.390545,-.444114,
-.356683,-.467931,
-.3192,-.485506,
-.279234,-.496305,
-.238,-.5,
.238,-.5,
.279234,-.496305,
.3192,-.485506,
.356683,-.467931,
.390545,-.444114,
.419757,-.414779,
.443431,-.380817,
.460848,-.34326,
.471479,-.303249,
.475,-.262,
.475,.262,
.471479,.303249,
.460848,.34326,
.443431,.380817,
.419757,.414779,
.390545,.444114,
.356683,.467931,
.3192,.485506,
.279234,.496305,
.238,.5,
0.0,.5,
0.0*
%
%ADD64MACRO64*%
%AMMACRO72*
4,1,41,.9,0.0,
.9,.288,
.895545,.337916,
.882491,.386301,
.861232,.431683,
.832416,.472684,
.796918,.508059,
.755817,.536732,
.710361,.557833,
.661931,.570719,
.612,.575,
-.612,.575,
-.661931,.570719,
-.710361,.557833,
-.755817,.536732,
-.796918,.508059,
-.832416,.472684,
-.861232,.431683,
-.882491,.386301,
-.895545,.337916,
-.9,.288,
-.9,-.288,
-.895545,-.337916,
-.882491,-.386301,
-.861232,-.431683,
-.832416,-.472684,
-.796918,-.508059,
-.755817,-.536732,
-.710361,-.557833,
-.661931,-.570719,
-.612,-.575,
.612,-.575,
.661931,-.570719,
.710361,-.557833,
.755817,-.536732,
.796918,-.508059,
.832416,-.472684,
.861232,-.431683,
.882491,-.386301,
.895545,-.337916,
.9,-.288,
.9,0.0,
0.0*
%
%ADD72MACRO72*%
%AMMACRO67*
4,1,41,1.35,0.0,
1.35,.288,
1.345545,.337916,
1.332491,.386301,
1.311232,.431683,
1.282416,.472684,
1.246918,.508059,
1.205817,.536732,
1.160361,.557833,
1.111931,.570719,
1.062,.575,
-1.062,.575,
-1.111931,.570719,
-1.160361,.557833,
-1.205817,.536732,
-1.246918,.508059,
-1.282416,.472684,
-1.311232,.431683,
-1.332491,.386301,
-1.345545,.337916,
-1.35,.288,
-1.35,-.288,
-1.345545,-.337916,
-1.332491,-.386301,
-1.311232,-.431683,
-1.282416,-.472684,
-1.246918,-.508059,
-1.205817,-.536732,
-1.160361,-.557833,
-1.111931,-.570719,
-1.062,-.575,
1.062,-.575,
1.111931,-.570719,
1.160361,-.557833,
1.205817,-.536732,
1.246918,-.508059,
1.282416,-.472684,
1.311232,-.431683,
1.332491,-.386301,
1.345545,-.337916,
1.35,-.288,
1.35,0.0,
0.0*
%
%ADD67MACRO67*%
%AMMACRO44*
4,1,45,.2,0.0,
.2,.088,
.198584,.103187,
.194552,.117896,
.188028,.131683,
.179208,.144127,
.168361,.15485,
.155818,.163527,
.141958,.169894,
.127203,.173757,
.112001,.175,
.112,.175,
-.112,.175,
-.127202,.173758,
-.141957,.169894,
-.155817,.163528,
-.168361,.154851,
-.179207,.144127,
-.188027,.131684,
-.194552,.117897,
-.198584,.103187,
-.2,.088001,
-.2,.088,
-.2,-.088,
-.198584,-.103187,
-.194552,-.117896,
-.188028,-.131683,
-.179208,-.144127,
-.168361,-.15485,
-.155818,-.163527,
-.141958,-.169894,
-.127203,-.173757,
-.112001,-.175,
-.112,-.175,
.112,-.175,
.127202,-.173758,
.141957,-.169894,
.155817,-.163528,
.168361,-.154851,
.179207,-.144127,
.188027,-.131684,
.194552,-.117897,
.198584,-.103187,
.2,-.088001,
.2,-.088,
.2,0.0,
0.0*
%
%ADD44MACRO44*%
%AMMACRO25*
4,1,45,0.0,-.2,
.088,-.2,
.103187,-.198584,
.117896,-.194552,
.131683,-.188028,
.144127,-.179208,
.15485,-.168361,
.163527,-.155818,
.169894,-.141958,
.173757,-.127203,
.175,-.112001,
.175,-.112,
.175,.112,
.173758,.127202,
.169894,.141957,
.163528,.155817,
.154851,.168361,
.144127,.179207,
.131684,.188027,
.117897,.194552,
.103187,.198584,
.088001,.2,
.088,.2,
-.088,.2,
-.103187,.198584,
-.117896,.194552,
-.131683,.188028,
-.144127,.179208,
-.15485,.168361,
-.163527,.155818,
-.169894,.141958,
-.173757,.127203,
-.175,.112001,
-.175,.112,
-.175,-.112,
-.173758,-.127202,
-.169894,-.141957,
-.163528,-.155817,
-.154851,-.168361,
-.144127,-.179207,
-.131684,-.188027,
-.117897,-.194552,
-.103187,-.198584,
-.088001,-.2,
-.088,-.2,
0.0,-.2,
0.0*
%
%ADD25MACRO25*%
%AMMACRO91*
4,1,45,0.0,1.525,
-.187,1.525,
-.219567,1.522238,
-.251159,1.513863,
-.280817,1.50013,
-.30764,1.481455,
-.330812,1.458406,
-.34963,1.431683,
-.363521,1.402099,
-.372065,1.370552,
-.375,1.338,
-.375,1.337,
-.375,-1.337,
-.372238,-1.369567,
-.363863,-1.401159,
-.35013,-1.430817,
-.331455,-1.45764,
-.308406,-1.480812,
-.281683,-1.49963,
-.252099,-1.513521,
-.220552,-1.522065,
-.188,-1.525,
-.187,-1.525,
.187,-1.525,
.219567,-1.522238,
.251159,-1.513863,
.280817,-1.50013,
.30764,-1.481455,
.330812,-1.458406,
.34963,-1.431683,
.363521,-1.402099,
.372065,-1.370552,
.375,-1.338,
.375,-1.337,
.375,1.337,
.372238,1.369567,
.363863,1.401159,
.35013,1.430817,
.331455,1.45764,
.308406,1.480812,
.281683,1.49963,
.252099,1.513521,
.220552,1.522065,
.188,1.525,
.187,1.525,
0.0,1.525,
0.0*
%
%ADD91MACRO91*%
%ADD40R,3.25X3.25*%
%AMMACRO97*
4,1,41,-.5,0.0,
-.5,-.075,
-.498861,-.088024,
-.495477,-.100652,
-.489952,-.1125,
-.482453,-.123209,
-.473209,-.132453,
-.4625,-.139952,
-.450652,-.145477,
-.438024,-.148861,
-.425,-.15,
.425,-.15,
.438024,-.148861,
.450652,-.145477,
.4625,-.139952,
.473209,-.132453,
.482453,-.123209,
.489952,-.1125,
.495477,-.100652,
.498861,-.088024,
.5,-.075,
.5,.075,
.498861,.088024,
.495477,.100652,
.489952,.1125,
.482453,.123209,
.473209,.132453,
.4625,.139952,
.450652,.145477,
.438024,.148861,
.425,.15,
-.425,.15,
-.438024,.148861,
-.450652,.145477,
-.4625,.139952,
-.473209,.132453,
-.482453,.123209,
-.489952,.1125,
-.495477,.100652,
-.498861,.088024,
-.5,.075,
-.5,0.0,
0.0*
%
%ADD97MACRO97*%
%AMMACRO96*
4,1,41,0.0,.5,
-.075,.5,
-.088024,.498861,
-.100652,.495477,
-.1125,.489952,
-.123209,.482453,
-.132453,.473209,
-.139952,.4625,
-.145477,.450652,
-.148861,.438024,
-.15,.425,
-.15,-.425,
-.148861,-.438024,
-.145477,-.450652,
-.139952,-.4625,
-.132453,-.473209,
-.123209,-.482453,
-.1125,-.489952,
-.100652,-.495477,
-.088024,-.498861,
-.075,-.5,
.075,-.5,
.088024,-.498861,
.100652,-.495477,
.1125,-.489952,
.123209,-.482453,
.132453,-.473209,
.139952,-.4625,
.145477,-.450652,
.148861,-.438024,
.15,-.425,
.15,.425,
.148861,.438024,
.145477,.450652,
.139952,.4625,
.132453,.473209,
.123209,.482453,
.1125,.489952,
.100652,.495477,
.088024,.498861,
.075,.5,
0.0,.5,
0.0*
%
%ADD96MACRO96*%
%AMMACRO77*
4,1,41,1.275,0.0,
1.275,.588,
1.265988,.690011,
1.239398,.788907,
1.19604,.881683,
1.13723,.965521,
1.064755,1.037873,
.980817,1.09654,
.887967,1.13974,
.789026,1.166161,
.688,1.175,
-.688,1.175,
-.790011,1.165988,
-.888907,1.139398,
-.981683,1.09604,
-1.065521,1.03723,
-1.137873,.964755,
-1.19654,.880817,
-1.23974,.787967,
-1.266161,.689026,
-1.275,.588,
-1.275,-.588,
-1.265988,-.690011,
-1.239398,-.788907,
-1.19604,-.881683,
-1.13723,-.965521,
-1.064755,-1.037873,
-.980817,-1.09654,
-.887967,-1.13974,
-.789026,-1.166161,
-.688,-1.175,
.688,-1.175,
.790011,-1.165988,
.888907,-1.139398,
.981683,-1.09604,
1.065521,-1.03723,
1.137873,-.964755,
1.19654,-.880817,
1.23974,-.787967,
1.266161,-.689026,
1.275,-.588,
1.275,0.0,
0.0*
%
%ADD77MACRO77*%
%ADD61R,5.25X5.25*%
%AMMACRO93*
4,1,41,-.6,0.0,
-.6,-.075,
-.598101,-.096706,
-.592462,-.117753,
-.583253,-.1375,
-.570756,-.155348,
-.555348,-.170756,
-.5375,-.183253,
-.517753,-.192462,
-.496706,-.198101,
-.475,-.2,
.475,-.2,
.496706,-.198101,
.517753,-.192462,
.5375,-.183253,
.555348,-.170756,
.570756,-.155348,
.583253,-.1375,
.592462,-.117753,
.598101,-.096706,
.6,-.075,
.6,.075,
.598101,.096706,
.592462,.117753,
.583253,.1375,
.570756,.155348,
.555348,.170756,
.5375,.183253,
.517753,.192462,
.496706,.198101,
.475,.2,
-.475,.2,
-.496706,.198101,
-.517753,.192462,
-.5375,.183253,
-.555348,.170756,
-.570756,.155348,
-.583253,.1375,
-.592462,.117753,
-.598101,.096706,
-.6,.075,
-.6,0.0,
0.0*
%
%ADD93MACRO93*%
%AMMACRO14*
4,1,45,0.0,-.7,
.212,-.7,
.261931,-.695719,
.310361,-.682833,
.355817,-.661732,
.396918,-.633059,
.432416,-.597684,
.461232,-.556683,
.482491,-.511301,
.495545,-.462916,
.5,-.413,
.5,-.412,
.5,.412,
.495719,.461931,
.482833,.510361,
.461732,.555817,
.433059,.596918,
.397684,.632416,
.356683,.661232,
.311301,.682491,
.262916,.695545,
.213,.7,
.212,.7,
-.212,.7,
-.261931,.695719,
-.310361,.682833,
-.355817,.661732,
-.396918,.633059,
-.432416,.597684,
-.461232,.556683,
-.482491,.511301,
-.495545,.462916,
-.5,.413,
-.5,.412,
-.5,-.412,
-.495719,-.461931,
-.482833,-.510361,
-.461732,-.555817,
-.433059,-.596918,
-.397684,-.632416,
-.356683,-.661232,
-.311301,-.682491,
-.262916,-.695545,
-.213,-.7,
-.212,-.7,
0.0,-.7,
0.0*
%
%ADD14MACRO14*%
%AMMACRO79*
4,1,45,0.0,-.425,
.112,-.425,
.131543,-.423378,
.150507,-.418386,
.168317,-.410178,
.184431,-.399001,
.198359,-.385197,
.209678,-.369183,
.218044,-.351447,
.223204,-.332528,
.225,-.313,
.225,-.312,
.225,.312,
.223378,.331543,
.218386,.350507,
.210178,.368317,
.199001,.384431,
.185197,.398359,
.169183,.409678,
.151447,.418044,
.132528,.423204,
.113,.425,
.112,.425,
-.112,.425,
-.131543,.423378,
-.150507,.418386,
-.168317,.410178,
-.184431,.399001,
-.198359,.385197,
-.209678,.369183,
-.218044,.351447,
-.223204,.332528,
-.225,.313,
-.225,.312,
-.225,-.312,
-.223378,-.331543,
-.218386,-.350507,
-.210178,-.368317,
-.199001,-.384431,
-.185197,-.398359,
-.169183,-.409678,
-.151447,-.418044,
-.132528,-.423204,
-.113,-.425,
-.112,-.425,
0.0,-.425,
0.0*
%
%ADD79MACRO79*%
%AMMACRO36*
4,1,41,0.0,.65,
-.225,.65,
-.264071,.646582,
-.301955,.636431,
-.3375,.619856,
-.369627,.59736,
-.39736,.569627,
-.419856,.5375,
-.436431,.501955,
-.446582,.464071,
-.45,.425,
-.45,-.425,
-.446582,-.464071,
-.436431,-.501955,
-.419856,-.5375,
-.39736,-.569627,
-.369627,-.59736,
-.3375,-.619856,
-.301955,-.636431,
-.264071,-.646582,
-.225,-.65,
.225,-.65,
.264071,-.646582,
.301955,-.636431,
.3375,-.619856,
.369627,-.59736,
.39736,-.569627,
.419856,-.5375,
.436431,-.501955,
.446582,-.464071,
.45,-.425,
.45,.425,
.446582,.464071,
.436431,.501955,
.419856,.5375,
.39736,.569627,
.369627,.59736,
.3375,.619856,
.301955,.636431,
.264071,.646582,
.225,.65,
0.0,.65,
0.0*
%
%ADD36MACRO36*%
%AMMACRO13*
4,1,41,-.65,0.0,
-.65,-.225,
-.646582,-.264071,
-.636431,-.301955,
-.619856,-.3375,
-.59736,-.369627,
-.569627,-.39736,
-.5375,-.419856,
-.501955,-.436431,
-.464071,-.446582,
-.425,-.45,
.425,-.45,
.464071,-.446582,
.501955,-.436431,
.5375,-.419856,
.569627,-.39736,
.59736,-.369627,
.619856,-.3375,
.636431,-.301955,
.646582,-.264071,
.65,-.225,
.65,.225,
.646582,.264071,
.636431,.301955,
.619856,.3375,
.59736,.369627,
.569627,.39736,
.5375,.419856,
.501955,.436431,
.464071,.446582,
.425,.45,
-.425,.45,
-.464071,.446582,
-.501955,.436431,
-.5375,.419856,
-.569627,.39736,
-.59736,.369627,
-.619856,.3375,
-.636431,.301955,
-.646582,.264071,
-.65,.225,
-.65,0.0,
0.0*
%
%ADD13MACRO13*%
%AMMACRO46*
4,1,42,0.0,-1.05,
.362,-1.05,
.424955,-1.04458,
.486012,-1.02831,
.543317,-1.001684,
.595127,-.965513,
.63987,-.920894,
.676184,-.869183,
.702968,-.811952,
.719406,-.75094,
.725,-.688,
.725,.688,
.719406,.75094,
.702968,.811952,
.676184,.869183,
.63987,.920894,
.595127,.965513,
.543317,1.001684,
.486012,1.02831,
.424955,1.04458,
.362,1.05,
-.362,1.05,
-.424955,1.04458,
-.486012,1.02831,
-.543317,1.001684,
-.595127,.965513,
-.63987,.920894,
-.676184,.869183,
-.702968,.811952,
-.719406,.75094,
-.725,.688,
-.725,.688,
-.725,-.688,
-.719406,-.75094,
-.702968,-.811952,
-.676184,-.869183,
-.63987,-.920894,
-.595127,-.965513,
-.543317,-1.001684,
-.486012,-1.02831,
-.424955,-1.04458,
-.362,-1.05,
0.0,-1.05,
0.0*
%
%ADD46MACRO46*%
%AMMACRO99*
4,1,41,-.675,0.0,
-.675,-.112,
-.672238,-.144567,
-.663863,-.176159,
-.65013,-.205817,
-.631455,-.23264,
-.608406,-.255812,
-.581683,-.27463,
-.552099,-.288521,
-.520551,-.297065,
-.488,-.3,
.488,-.3,
.520551,-.297065,
.552099,-.288521,
.581683,-.27463,
.608406,-.255812,
.631455,-.23264,
.65013,-.205817,
.663863,-.176159,
.672238,-.144567,
.675,-.112,
.675,.112,
.672238,.144567,
.663863,.176159,
.65013,.205817,
.631455,.23264,
.608406,.255812,
.581683,.27463,
.552099,.288521,
.520551,.297065,
.488,.3,
-.488,.3,
-.520551,.297065,
-.552099,.288521,
-.581683,.27463,
-.608406,.255812,
-.631455,.23264,
-.65013,.205817,
-.663863,.176159,
-.672238,.144567,
-.675,.112,
-.675,0.0,
0.0*
%
%ADD99MACRO99*%
%AMMACRO92*
4,1,42,0.0,.675,
-.112,.675,
-.144567,.672238,
-.176159,.663863,
-.205817,.65013,
-.23264,.631455,
-.255812,.608406,
-.27463,.581683,
-.288521,.552099,
-.297065,.520551,
-.3,.488,
-.3,.488,
-.3,-.488,
-.297065,-.520551,
-.288521,-.552099,
-.27463,-.581683,
-.255812,-.608406,
-.23264,-.631455,
-.205817,-.65013,
-.176159,-.663863,
-.144567,-.672238,
-.112,-.675,
.112,-.675,
.144567,-.672238,
.176159,-.663863,
.205817,-.65013,
.23264,-.631455,
.255812,-.608406,
.27463,-.581683,
.288521,-.552099,
.297065,-.520551,
.3,-.488,
.3,.488,
.297065,.520551,
.288521,.552099,
.27463,.581683,
.255812,.608406,
.23264,.631455,
.205817,.65013,
.176159,.663863,
.144567,.672238,
.112,.675,
0.0,.675,
0.0*
%
%ADD92MACRO92*%
%AMMACRO68*
4,1,41,0.0,-.4,
.05,-.4,
.058682,-.39924,
.067101,-.396985,
.075,-.393301,
.082139,-.388302,
.088302,-.382139,
.093301,-.375,
.096985,-.367101,
.09924,-.358682,
.1,-.35,
.1,.35,
.09924,.358682,
.096985,.367101,
.093301,.375,
.088302,.382139,
.082139,.388302,
.075,.393301,
.067101,.396985,
.058682,.39924,
.05,.4,
-.05,.4,
-.058682,.39924,
-.067101,.396985,
-.075,.393301,
-.082139,.388302,
-.088302,.382139,
-.093301,.375,
-.096985,.367101,
-.09924,.358682,
-.1,.35,
-.1,-.35,
-.09924,-.358682,
-.096985,-.367101,
-.093301,-.375,
-.088302,-.382139,
-.082139,-.388302,
-.075,-.393301,
-.067101,-.396985,
-.058682,-.39924,
-.05,-.4,
0.0,-.4,
0.0*
%
%ADD68MACRO68*%
%AMMACRO45*
4,1,41,0.0,-.95,
.35,-.95,
.410777,-.944683,
.469707,-.928892,
.525,-.903109,
.574976,-.868116,
.618116,-.824976,
.653109,-.775,
.678892,-.719707,
.694683,-.660777,
.7,-.6,
.7,.6,
.694683,.660777,
.678892,.719707,
.653109,.775,
.618116,.824976,
.574976,.868116,
.525,.903109,
.469707,.928892,
.410777,.944683,
.35,.95,
-.35,.95,
-.410777,.944683,
-.469707,.928892,
-.525,.903109,
-.574976,.868116,
-.618116,.824976,
-.653109,.775,
-.678892,.719707,
-.694683,.660777,
-.7,.6,
-.7,-.6,
-.694683,-.660777,
-.678892,-.719707,
-.653109,-.775,
-.618116,-.824976,
-.574976,-.868116,
-.525,-.903109,
-.469707,-.928892,
-.410777,-.944683,
-.35,-.95,
0.0,-.95,
0.0*
%
%ADD45MACRO45*%
%AMMACRO32*
4,1,41,.45,0.0,
.45,.05,
.44924,.058682,
.446985,.067101,
.443301,.075,
.438302,.082139,
.432139,.088302,
.425,.093301,
.417101,.096985,
.408682,.09924,
.4,.1,
-.4,.1,
-.408682,.09924,
-.417101,.096985,
-.425,.093301,
-.432139,.088302,
-.438302,.082139,
-.443301,.075,
-.446985,.067101,
-.44924,.058682,
-.45,.05,
-.45,-.05,
-.44924,-.058682,
-.446985,-.067101,
-.443301,-.075,
-.438302,-.082139,
-.432139,-.088302,
-.425,-.093301,
-.417101,-.096985,
-.408682,-.09924,
-.4,-.1,
.4,-.1,
.408682,-.09924,
.417101,-.096985,
.425,-.093301,
.432139,-.088302,
.438302,-.082139,
.443301,-.075,
.446985,-.067101,
.44924,-.058682,
.45,-.05,
.45,0.0,
0.0*
%
%ADD32MACRO32*%
%AMMACRO63*
4,1,41,.725,0.0,
.725,.288,
.720545,.337916,
.707491,.386301,
.686232,.431683,
.657416,.472684,
.621918,.508059,
.580817,.536732,
.535361,.557833,
.486931,.570719,
.438,.575,
-.438,.575,
-.487916,.570545,
-.536301,.557491,
-.581683,.536232,
-.622684,.507416,
-.658059,.471918,
-.686732,.430817,
-.707833,.385361,
-.720719,.336931,
-.725,.288,
-.725,-.288,
-.720545,-.337916,
-.707491,-.386301,
-.686232,-.431683,
-.657416,-.472684,
-.621918,-.508059,
-.580817,-.536732,
-.535361,-.557833,
-.486931,-.570719,
-.438,-.575,
.438,-.575,
.487916,-.570545,
.536301,-.557491,
.581683,-.536232,
.622684,-.507416,
.658059,-.471918,
.686732,-.430817,
.707833,-.385361,
.720719,-.336931,
.725,-.288,
.725,0.0,
0.0*
%
%ADD63MACRO63*%
%AMMACRO59*
4,1,41,.45,0.0,
.45,.075,
.448861,.088024,
.445477,.100652,
.439952,.1125,
.432453,.123209,
.423209,.132453,
.4125,.139952,
.400652,.145477,
.388024,.148861,
.375,.15,
-.375,.15,
-.388024,.148861,
-.400652,.145477,
-.4125,.139952,
-.423209,.132453,
-.432453,.123209,
-.439952,.1125,
-.445477,.100652,
-.448861,.088024,
-.45,.075,
-.45,-.075,
-.448861,-.088024,
-.445477,-.100652,
-.439952,-.1125,
-.432453,-.123209,
-.423209,-.132453,
-.4125,-.139952,
-.400652,-.145477,
-.388024,-.148861,
-.375,-.15,
.375,-.15,
.388024,-.148861,
.400652,-.145477,
.4125,-.139952,
.423209,-.132453,
.432453,-.123209,
.439952,-.1125,
.445477,-.100652,
.448861,-.088024,
.45,-.075,
.45,0.0,
0.0*
%
%ADD59MACRO59*%
%AMMACRO84*
4,1,41,0.0,-.225,
.05,-.225,
.067365,-.223481,
.084202,-.218969,
.1,-.211603,
.114279,-.201604,
.126604,-.189279,
.136603,-.175,
.143969,-.159202,
.148481,-.142365,
.15,-.125,
.15,.125,
.148481,.142365,
.143969,.159202,
.136603,.175,
.126604,.189279,
.114279,.201604,
.1,.211603,
.084202,.218969,
.067365,.223481,
.05,.225,
-.05,.225,
-.067365,.223481,
-.084202,.218969,
-.1,.211603,
-.114279,.201604,
-.126604,.189279,
-.136603,.175,
-.143969,.159202,
-.148481,.142365,
-.15,.125,
-.15,-.125,
-.148481,-.142365,
-.143969,-.159202,
-.136603,-.175,
-.126604,-.189279,
-.114279,-.201604,
-.1,-.211603,
-.084202,-.218969,
-.067365,-.223481,
-.05,-.225,
0.0,-.225,
0.0*
%
%ADD84MACRO84*%
%AMMACRO82*
4,1,41,0.0,-1.,
.519,-1.,
.602564,-.992645,
.683582,-.970892,
.759592,-.9354,
.828283,-.887248,
.88757,-.8279,
.93565,-.759158,
.971063,-.683112,
.992732,-.602072,
1.,-.519,
1.,.519,
.992645,.602564,
.970892,.683582,
.9354,.759592,
.887248,.828283,
.8279,.88757,
.759158,.93565,
.683112,.971063,
.602072,.992732,
.519,1.,
-.519,1.,
-.602564,.992645,
-.683582,.970892,
-.759592,.9354,
-.828283,.887248,
-.88757,.8279,
-.93565,.759158,
-.971063,.683112,
-.992732,.602072,
-1.,.519,
-1.,-.519,
-.992645,-.602564,
-.970892,-.683582,
-.9354,-.759592,
-.887248,-.828283,
-.8279,-.88757,
-.759158,-.93565,
-.683112,-.971063,
-.602072,-.992732,
-.519,-1.,
0.0,-1.,
0.0*
%
%ADD82MACRO82*%
%AMMACRO80*
4,1,41,0.0,-.725,
.288,-.725,
.337916,-.720545,
.386301,-.707491,
.431683,-.686232,
.472684,-.657416,
.508059,-.621918,
.536732,-.580817,
.557833,-.535361,
.570719,-.486931,
.575,-.438,
.575,.438,
.570545,.487916,
.557491,.536301,
.536232,.581683,
.507416,.622684,
.471918,.658059,
.430817,.686732,
.385361,.707833,
.336931,.720719,
.288,.725,
-.288,.725,
-.337916,.720545,
-.386301,.707491,
-.431683,.686232,
-.472684,.657416,
-.508059,.621918,
-.536732,.580817,
-.557833,.535361,
-.570719,.486931,
-.575,.438,
-.575,-.438,
-.570545,-.487916,
-.557491,-.536301,
-.536232,-.581683,
-.507416,-.622684,
-.471918,-.658059,
-.430817,-.686732,
-.385361,-.707833,
-.336931,-.720719,
-.288,-.725,
0.0,-.725,
0.0*
%
%ADD80MACRO80*%
%AMMACRO60*
4,1,41,0.0,-.45,
.075,-.45,
.088024,-.448861,
.100652,-.445477,
.1125,-.439952,
.123209,-.432453,
.132453,-.423209,
.139952,-.4125,
.145477,-.400652,
.148861,-.388024,
.15,-.375,
.15,.375,
.148861,.388024,
.145477,.400652,
.139952,.4125,
.132453,.423209,
.123209,.432453,
.1125,.439952,
.100652,.445477,
.088024,.448861,
.075,.45,
-.075,.45,
-.088024,.448861,
-.100652,.445477,
-.1125,.439952,
-.123209,.432453,
-.132453,.423209,
-.139952,.4125,
-.145477,.400652,
-.148861,.388024,
-.15,.375,
-.15,-.375,
-.148861,-.388024,
-.145477,-.400652,
-.139952,-.4125,
-.132453,-.423209,
-.123209,-.432453,
-.1125,-.439952,
-.100652,-.445477,
-.088024,-.448861,
-.075,-.45,
0.0,-.45,
0.0*
%
%ADD60MACRO60*%
%AMMACRO34*
4,1,41,.325,0.0,
.325,.05,
.32424,.058682,
.321985,.067101,
.318301,.075,
.313302,.082139,
.307139,.088302,
.3,.093301,
.292101,.096985,
.283682,.09924,
.275,.1,
-.275,.1,
-.283682,.09924,
-.292101,.096985,
-.3,.093301,
-.307139,.088302,
-.313302,.082139,
-.318301,.075,
-.321985,.067101,
-.32424,.058682,
-.325,.05,
-.325,-.05,
-.32424,-.058682,
-.321985,-.067101,
-.318301,-.075,
-.313302,-.082139,
-.307139,-.088302,
-.3,-.093301,
-.292101,-.096985,
-.283682,-.09924,
-.275,-.1,
.275,-.1,
.283682,-.09924,
.292101,-.096985,
.3,-.093301,
.307139,-.088302,
.313302,-.082139,
.318301,-.075,
.321985,-.067101,
.32424,-.058682,
.325,-.05,
.325,0.0,
0.0*
%
%ADD34MACRO34*%
%AMMACRO107*
4,1,41,.4,0.0,
.4,.05,
.398861,.063024,
.395477,.075652,
.389952,.0875,
.382453,.098209,
.373209,.107453,
.3625,.114952,
.350652,.120477,
.338024,.123861,
.325,.125,
-.325,.125,
-.338024,.123861,
-.350652,.120477,
-.3625,.114952,
-.373209,.107453,
-.382453,.098209,
-.389952,.0875,
-.395477,.075652,
-.398861,.063024,
-.4,.05,
-.4,-.05,
-.398861,-.063024,
-.395477,-.075652,
-.389952,-.0875,
-.382453,-.098209,
-.373209,-.107453,
-.3625,-.114952,
-.350652,-.120477,
-.338024,-.123861,
-.325,-.125,
.325,-.125,
.338024,-.123861,
.350652,-.120477,
.3625,-.114952,
.373209,-.107453,
.382453,-.098209,
.389952,-.0875,
.395477,-.075652,
.398861,-.063024,
.4,-.05,
.4,0.0,
0.0*
%
%ADD107MACRO107*%
%ADD31O,.899X.399*%
%AMMACRO57*
4,1,44,.263,-.1075,
.278704,-.088823,
.290913,-.067693,
.299267,-.044763,
.303512,-.020732,
.30352,.003672,
.29929,.027706,
.290951,.050641,
.278756,.071779,
.263075,.090478,
.263,.0905,
.0905,.263,
.071835,.278716,
.050703,.290922,
.027773,.299272,
.003741,.303514,
-.020663,.303518,
-.044697,.299285,
-.06763,.290942,
-.088766,.278744,
-.107463,.263061,
-.1075,.263,
-.263,.1075,
-.278704,.088823,
-.290913,.067693,
-.299267,.044763,
-.303512,.020732,
-.30352,-.003672,
-.29929,-.027706,
-.290951,-.050641,
-.278756,-.071779,
-.263075,-.090478,
-.263,-.0905,
-.0905,-.263,
-.071835,-.278716,
-.050703,-.290922,
-.027773,-.299272,
-.003741,-.303514,
.020663,-.303518,
.044697,-.299285,
.06763,-.290942,
.088766,-.278744,
.107463,-.263061,
.1075,-.263,
.263,-.1075,
0.0*
%
%ADD57MACRO57*%
%AMMACRO23*
4,1,45,0.0,-.701,
.312,-.701,
.361916,-.696546,
.410301,-.683492,
.455683,-.662235,
.496685,-.63342,
.53206,-.597922,
.560734,-.556821,
.581835,-.511366,
.594722,-.462937,
.599003,-.413006,
.599,-.412,
.599,.412,
.594893,.461946,
.582175,.51042,
.561233,.555949,
.532704,.59715,
.497453,.632771,
.456552,.661729,
.411244,.683145,
.362906,.696368,
.313006,.700997,
.312,.701,
-.312,.701,
-.361916,.696546,
-.410301,.683492,
-.455683,.662235,
-.496685,.63342,
-.53206,.597922,
-.560734,.556821,
-.581835,.511366,
-.594722,.462937,
-.599003,.413006,
-.599,.412,
-.599,-.412,
-.594893,-.461946,
-.582175,-.51042,
-.561233,-.555949,
-.532704,-.59715,
-.497453,-.632771,
-.456552,-.661729,
-.411244,-.683145,
-.362906,-.696368,
-.313006,-.700997,
-.312,-.701,
0.0,-.701,
0.0*
%
%ADD23MACRO23*%
%AMMACRO15*
4,1,40,.262,.11,
.259873,.134311,
.253557,.157883,
.243244,.18,
.229246,.19999,
.21199,.217246,
.192,.231244,
.169883,.241557,
.146311,.247873,
.122,.25,
-.122,.25,
-.146311,.247873,
-.169883,.241557,
-.192,.231244,
-.21199,.217246,
-.229246,.19999,
-.243244,.18,
-.253557,.157883,
-.259873,.134311,
-.262,.11,
-.262,-.11,
-.259873,-.134311,
-.253557,-.157883,
-.243244,-.18,
-.229246,-.19999,
-.21199,-.217246,
-.192,-.231244,
-.169883,-.241557,
-.146311,-.247873,
-.122,-.25,
.122,-.25,
.146311,-.247873,
.169883,-.241557,
.192,-.231244,
.21199,-.217246,
.229246,-.19999,
.243244,-.18,
.253557,-.157883,
.259873,-.134311,
.262,-.11,
.262,.11,
0.0*
%
%ADD15MACRO15*%
%AMMACRO17*
4,1,40,.11,-.262,
.134311,-.259873,
.157883,-.253557,
.18,-.243244,
.19999,-.229246,
.217246,-.21199,
.231244,-.192,
.241557,-.169883,
.247873,-.146311,
.25,-.122,
.25,.122,
.247873,.146311,
.241557,.169883,
.231244,.192,
.217246,.21199,
.19999,.229246,
.18,.243244,
.157883,.253557,
.134311,.259873,
.11,.262,
-.11,.262,
-.134311,.259873,
-.157883,.253557,
-.18,.243244,
-.19999,.229246,
-.217246,.21199,
-.231244,.192,
-.241557,.169883,
-.247873,.146311,
-.25,.122,
-.25,-.122,
-.247873,-.146311,
-.241557,-.169883,
-.231244,-.192,
-.217246,-.21199,
-.19999,-.229246,
-.18,-.243244,
-.157883,-.253557,
-.134311,-.259873,
-.11,-.262,
.11,-.262,
0.0*
%
%ADD17MACRO17*%
%AMMACRO42*
4,1,41,.325,0.0,
.325,.135,
.322189,.167125,
.313843,.198274,
.300215,.2275,
.281718,.253916,
.258916,.276718,
.2325,.295215,
.203274,.308843,
.172125,.317189,
.14,.32,
-.14,.32,
-.172125,.317189,
-.203274,.308843,
-.2325,.295215,
-.258916,.276718,
-.281718,.253916,
-.300215,.2275,
-.313843,.198274,
-.322189,.167125,
-.325,.135,
-.325,-.135,
-.322189,-.167125,
-.313843,-.198274,
-.300215,-.2275,
-.281718,-.253916,
-.258916,-.276718,
-.2325,-.295215,
-.203274,-.308843,
-.172125,-.317189,
-.14,-.32,
.14,-.32,
.172125,-.317189,
.203274,-.308843,
.2325,-.295215,
.258916,-.276718,
.281718,-.253916,
.300215,-.2275,
.313843,-.198274,
.322189,-.167125,
.325,-.135,
.325,0.0,
0.0*
%
%ADD42MACRO42*%
%AMMACRO41*
4,1,41,0.0,-.7,
.288,-.7,
.337916,-.695545,
.386301,-.682491,
.431683,-.661232,
.472684,-.632416,
.508059,-.596918,
.536732,-.555817,
.557833,-.510361,
.570719,-.461931,
.575,-.412,
.575,.412,
.570719,.461931,
.557833,.510361,
.536732,.555817,
.508059,.596918,
.472684,.632416,
.431683,.661232,
.386301,.682491,
.337916,.695545,
.288,.7,
-.288,.7,
-.337916,.695545,
-.386301,.682491,
-.431683,.661232,
-.472684,.632416,
-.508059,.596918,
-.536732,.555817,
-.557833,.510361,
-.570719,.461931,
-.575,.412,
-.575,-.412,
-.570719,-.461931,
-.557833,-.510361,
-.536732,-.555817,
-.508059,-.596918,
-.472684,-.632416,
-.431683,-.661232,
-.386301,-.682491,
-.337916,-.695545,
-.288,-.7,
0.0,-.7,
0.0*
%
%ADD41MACRO41*%
%AMMACRO29*
4,1,45,.2298,-.2298,
.3253,-.1344,
.34599,-.109658,
.362116,-.081732,
.373147,-.05143,
.378749,-.019673,
.378752,.012575,
.373154,.044333,
.362127,.074637,
.346005,.102565,
.325279,.12727,
.3253,.1273,
.1273,.3253,
.10257,.346002,
.074642,.362124,
.044339,.373152,
.012581,.378751,
-.019666,.37875,
-.051424,.373149,
-.081726,.362118,
-.109653,.345993,
-.134355,.325264,
-.1344,.3253,
-.3253,.1344,
-.34599,.109658,
-.362116,.081732,
-.373147,.05143,
-.378749,.019673,
-.378752,-.012575,
-.373154,-.044333,
-.362127,-.074637,
-.346005,-.102565,
-.325279,-.12727,
-.3253,-.1273,
-.1273,-.3253,
-.10257,-.346002,
-.074642,-.362124,
-.044339,-.373152,
-.012581,-.378751,
.019666,-.37875,
.051424,-.373149,
.081726,-.362118,
.109653,-.345993,
.134355,-.325264,
.1344,-.3253,
.2298,-.2298,
0.0*
%
%ADD29MACRO29*%
%AMMACRO35*
4,1,41,0.0,-.325,
.135,-.325,
.167125,-.322189,
.198274,-.313843,
.2275,-.300215,
.253916,-.281718,
.276718,-.258916,
.295215,-.2325,
.308843,-.203274,
.317189,-.172125,
.32,-.14,
.32,.14,
.317189,.172125,
.308843,.203274,
.295215,.2325,
.276718,.258916,
.253916,.281718,
.2275,.300215,
.198274,.313843,
.167125,.322189,
.135,.325,
-.135,.325,
-.167125,.322189,
-.198274,.313843,
-.2275,.300215,
-.253916,.281718,
-.276718,.258916,
-.295215,.2325,
-.308843,.203274,
-.317189,.172125,
-.32,.14,
-.32,-.14,
-.317189,-.172125,
-.308843,-.203274,
-.295215,-.2325,
-.276718,-.258916,
-.253916,-.281718,
-.2275,-.300215,
-.198274,-.313843,
-.167125,-.322189,
-.135,-.325,
0.0,-.325,
0.0*
%
%ADD35MACRO35*%
%ADD110C,.1*%
%ADD111C,.099*%
G75*
%LPD*%
G75*
G54D100*
X23995000Y27060000D03*
Y26900000D03*
G54D110*
G01X20090000Y16222500D02*
Y14722500D01*
X27590000D01*
Y16222500D01*
X20090000D01*
G01X23840000D02*
Y14722500D01*
G01Y15222500D02*
X27590000D01*
G01Y15722500D02*
X23840000D01*
G01X25107600D02*
Y15222500D01*
G54D101*
X24210000Y28400000D03*
Y28450000D03*
Y28500000D03*
Y28550000D03*
Y28600000D03*
Y28650000D03*
Y28700000D03*
Y28750000D03*
X24850000D03*
Y28700000D03*
Y28650000D03*
Y28600000D03*
Y28550000D03*
Y28500000D03*
Y28450000D03*
Y28400000D03*
G54D111*
G01X20177500Y17600000D02*
X25685000D01*
G03X25855000Y17795000I-14022J183827D01*
G01Y24500000D01*
G03X25745000Y24815000I-506023J0D01*
G02X25635000Y25130000I396023J315000D01*
G02X25745000Y25445000I506023J0D01*
G03X25855000Y25760000I-396023J315000D01*
G01Y29433800D01*
G03X25708800Y29580000I-146200J0D01*
G01X21585000D01*
Y29460000D01*
X21425000D01*
Y29250000D01*
X21335000D01*
Y29460000D01*
X20955000D01*
Y29250000D01*
X20865000D01*
Y29460000D01*
X20705000D01*
Y29580000D01*
X20151200D01*
G03X20005000Y29433800I0J-146200D01*
G01Y25760000D01*
G03X20115000Y25445000I506023J0D01*
G02X20225000Y25130000I-396023J-315000D01*
G02X20115000Y24815000I-506023J0D01*
G03X20005000Y24500000I396023J-315000D01*
G01Y17795000D01*
G03X20177500Y17600000I205417J7917D01*
G01X23968700Y15397500D02*
Y15588000D01*
X24025580D01*
X24044540Y15578470D01*
X24058760Y15556250D01*
X24063500Y15530850D01*
X24058760Y15505450D01*
X24046910Y15486400D01*
X24025580Y15476870D01*
X23968700D01*
G01X24144980Y15397500D02*
Y15588000D01*
X24206600Y15429250D01*
X24268220Y15588000D01*
Y15397500D01*
G01X24587600Y15588000D02*
Y15397500D01*
G01X24533090Y15588000D02*
X24642110D01*
G01X24778100Y15397500D02*
X24759140Y15400670D01*
X24742550Y15413370D01*
X24728330Y15432420D01*
X24718850Y15454650D01*
X24714110Y15480050D01*
Y15505450D01*
X24718850Y15530850D01*
X24728330Y15553080D01*
X24742550Y15572120D01*
X24759140Y15584830D01*
X24778100Y15588000D01*
X24797060Y15584830D01*
X24813650Y15572120D01*
X24827870Y15553080D01*
X24837350Y15530850D01*
X24842090Y15505450D01*
Y15480050D01*
X24837350Y15454650D01*
X24827870Y15432420D01*
X24813650Y15413370D01*
X24797060Y15400670D01*
X24778100Y15397500D01*
G01X24921200D02*
Y15588000D01*
X24978080D01*
X24997040Y15578470D01*
X25011260Y15556250D01*
X25016000Y15530850D01*
X25011260Y15505450D01*
X24999410Y15486400D01*
X24978080Y15476870D01*
X24921200D01*
G01X24153160Y14886200D02*
Y15076700D01*
X24200560D01*
X24219520Y15067170D01*
X24233740Y15054470D01*
X24245590Y15035430D01*
X24255070Y15013200D01*
X24257440Y14981450D01*
X24255070Y14949700D01*
X24245590Y14927470D01*
X24233740Y14908420D01*
X24219520Y14895720D01*
X24200560Y14886200D01*
X24153160D01*
G01X24336550D02*
X24395800Y15076700D01*
X24455050Y14886200D01*
G01X24433720Y14952870D02*
X24357880D01*
G01X24586300Y15076700D02*
Y14886200D01*
G01X24531790Y15076700D02*
X24640810D01*
G01X24824200Y14886200D02*
X24729400D01*
Y15076700D01*
X24824200D01*
G01X24786280Y14984630D02*
X24729400D01*
G01X24967300Y14879850D02*
X24962560Y14883030D01*
Y14889370D01*
X24967300Y14892550D01*
X24972040Y14889370D01*
Y14883030D01*
X24967300Y14879850D01*
G01Y14965570D02*
X24962560Y14968750D01*
Y14975100D01*
X24967300Y14978270D01*
X24972040Y14975100D01*
Y14968750D01*
X24967300Y14965570D01*
G01X25303270Y15044950D02*
X25317490Y15064000D01*
X25334080Y15073530D01*
X25353040Y15076700D01*
X25376740Y15070350D01*
X25393330Y15054470D01*
X25398070Y15035430D01*
X25395700Y15016370D01*
X25386220Y15000500D01*
X25338820Y14968750D01*
X25317490Y14946520D01*
X25303270Y14914770D01*
X25298530Y14886200D01*
X25398070D01*
G01X25538800Y15076700D02*
X25519840Y15070350D01*
X25505620Y15054470D01*
X25496140Y15035430D01*
X25489030Y15010020D01*
X25486660Y14981450D01*
X25489030Y14952870D01*
X25496140Y14927470D01*
X25505620Y14908420D01*
X25519840Y14892550D01*
X25538800Y14886200D01*
X25557760Y14892550D01*
X25571980Y14908420D01*
X25581460Y14927470D01*
X25588570Y14952870D01*
X25590940Y14981450D01*
X25588570Y15010020D01*
X25581460Y15035430D01*
X25571980Y15054470D01*
X25557760Y15070350D01*
X25538800Y15076700D01*
G01X25729300Y14886200D02*
Y15076700D01*
X25700860Y15038600D01*
G01Y14886200D02*
X25757740D01*
G01X25919800D02*
X25936390Y14889370D01*
X25955350Y14898900D01*
X25967200Y14914770D01*
X25971940Y14937000D01*
X25967200Y14959220D01*
X25952980Y14978270D01*
X25931650Y14987800D01*
X25907950D01*
X25893730Y14994150D01*
X25881880Y15010020D01*
X25877140Y15032250D01*
X25884250Y15054470D01*
X25900840Y15070350D01*
X25919800Y15076700D01*
X25938760Y15070350D01*
X25955350Y15054470D01*
X25962460Y15032250D01*
X25957720Y15010020D01*
X25945870Y14994150D01*
X25931650Y14987800D01*
X25907950D01*
X25886620Y14978270D01*
X25872400Y14959220D01*
X25867660Y14937000D01*
X25872400Y14914770D01*
X25884250Y14898900D01*
X25903210Y14889370D01*
X25919800Y14886200D01*
G01X26079490Y14949700D02*
X26141110D01*
G01X26300800Y14886200D02*
Y15076700D01*
X26272360Y15038600D01*
G01Y14886200D02*
X26329240D01*
G01X26491300Y15076700D02*
X26472340Y15070350D01*
X26458120Y15054470D01*
X26448640Y15035430D01*
X26441530Y15010020D01*
X26439160Y14981450D01*
X26441530Y14952870D01*
X26448640Y14927470D01*
X26458120Y14908420D01*
X26472340Y14892550D01*
X26491300Y14886200D01*
X26510260Y14892550D01*
X26524480Y14908420D01*
X26533960Y14927470D01*
X26541070Y14952870D01*
X26543440Y14981450D01*
X26541070Y15010020D01*
X26533960Y15035430D01*
X26524480Y15054470D01*
X26510260Y15070350D01*
X26491300Y15076700D01*
G01X26650990Y14949700D02*
X26712610D01*
G01X26872300Y14886200D02*
Y15076700D01*
X26843860Y15038600D01*
G01Y14886200D02*
X26900740D01*
G01X27062800Y15076700D02*
X27043840Y15070350D01*
X27029620Y15054470D01*
X27020140Y15035430D01*
X27013030Y15010020D01*
X27010660Y14981450D01*
X27013030Y14952870D01*
X27020140Y14927470D01*
X27029620Y14908420D01*
X27043840Y14892550D01*
X27062800Y14886200D01*
X27081760Y14892550D01*
X27095980Y14908420D01*
X27105460Y14927470D01*
X27112570Y14952870D01*
X27114940Y14981450D01*
X27112570Y15010020D01*
X27105460Y15035430D01*
X27095980Y15054470D01*
X27081760Y15070350D01*
X27062800Y15076700D01*
G01X24200300Y16071700D02*
Y15881200D01*
G01X24145790Y16071700D02*
X24254810D01*
G01X24438200Y15881200D02*
X24343400D01*
Y16071700D01*
X24438200D01*
G01X24400280Y15979630D02*
X24343400D01*
G01X24531530Y15881200D02*
X24631070Y16071700D01*
G01X24531530D02*
X24631070Y15881200D01*
G01X24712550D02*
X24771800Y16071700D01*
X24831050Y15881200D01*
G01X24809720Y15947870D02*
X24733880D01*
G01X24912530Y15906590D02*
X24931490Y15890720D01*
X24952820Y15881200D01*
X24971780D01*
X24990740Y15890720D01*
X25004960Y15906590D01*
X25012070Y15928830D01*
X25007330Y15951050D01*
X24995480Y15970100D01*
X24974150Y15982800D01*
X24945710Y15989150D01*
X24929120Y16001850D01*
X24922010Y16024070D01*
X24926750Y16046300D01*
X24938600Y16062170D01*
X24955190Y16071700D01*
X24971780D01*
X24988370Y16065350D01*
X25002590Y16049470D01*
G01X25314860Y16071700D02*
X25371740D01*
G01X25343300D02*
Y15881200D01*
G01X25314860D02*
X25371740D01*
G01X25479290D02*
Y16071700D01*
X25588310Y15881200D01*
Y16071700D01*
G01X25674530Y15906590D02*
X25693490Y15890720D01*
X25714820Y15881200D01*
X25733780D01*
X25752740Y15890720D01*
X25766960Y15906590D01*
X25774070Y15928830D01*
X25769330Y15951050D01*
X25757480Y15970100D01*
X25736150Y15982800D01*
X25707710Y15989150D01*
X25691120Y16001850D01*
X25684010Y16024070D01*
X25688750Y16046300D01*
X25700600Y16062170D01*
X25717190Y16071700D01*
X25733780D01*
X25750370Y16065350D01*
X25764590Y16049470D01*
G01X25914800Y16071700D02*
Y15881200D01*
G01X25860290Y16071700D02*
X25969310D01*
G01X26057900Y15881200D02*
Y16071700D01*
X26117150D01*
X26136110Y16062170D01*
X26147960Y16049470D01*
X26152700Y16024070D01*
X26147960Y15998670D01*
X26133740Y15982800D01*
X26117150Y15973270D01*
X26057900D01*
G01X26117150D02*
X26152700Y15881200D01*
G01X26243660Y16071700D02*
Y15935180D01*
X26253140Y15906590D01*
X26272100Y15887550D01*
X26295800Y15881200D01*
X26319500Y15887550D01*
X26338460Y15906590D01*
X26347940Y15935180D01*
Y16071700D01*
G01X26424680Y15881200D02*
Y16071700D01*
X26486300Y15912950D01*
X26547920Y16071700D01*
Y15881200D01*
G01X26724200D02*
X26629400D01*
Y16071700D01*
X26724200D01*
G01X26686280Y15979630D02*
X26629400D01*
G01X26812790Y15881200D02*
Y16071700D01*
X26921810Y15881200D01*
Y16071700D01*
G01X27057800D02*
Y15881200D01*
G01X27003290Y16071700D02*
X27112310D01*
G01X27198530Y15906590D02*
X27217490Y15890720D01*
X27238820Y15881200D01*
X27257780D01*
X27276740Y15890720D01*
X27290960Y15906590D01*
X27298070Y15928830D01*
X27293330Y15951050D01*
X27281480Y15970100D01*
X27260150Y15982800D01*
X27231710Y15989150D01*
X27215120Y16001850D01*
X27208010Y16024070D01*
X27212750Y16046300D01*
X27224600Y16062170D01*
X27241190Y16071700D01*
X27257780D01*
X27274370Y16065350D01*
X27288590Y16049470D01*
G01X25242500Y15451200D02*
X25256130Y15372500D01*
X25271700Y15451200D01*
X25287270Y15372500D01*
X25300900Y15451200D01*
G01X25371810Y15444640D02*
X25365970Y15448580D01*
X25359160Y15451200D01*
X25351370D01*
X25342610Y15447260D01*
X25335800Y15440710D01*
X25330930Y15432840D01*
X25327040Y15419720D01*
X25326070Y15407910D01*
X25328010Y15396110D01*
X25330930Y15388240D01*
X25336770Y15380370D01*
X25343590Y15375120D01*
X25350400Y15372500D01*
X25357210D01*
X25364030Y15375120D01*
X25369870Y15379060D01*
X25374730Y15384300D01*
G01X25408660Y15382990D02*
X25416450Y15376430D01*
X25425210Y15372500D01*
X25432990D01*
X25440780Y15376430D01*
X25446620Y15382990D01*
X25449540Y15392180D01*
X25447590Y15401360D01*
X25442730Y15409230D01*
X25433970Y15414470D01*
X25422290Y15417100D01*
X25415470Y15422340D01*
X25412550Y15431520D01*
X25414500Y15440710D01*
X25419370Y15447260D01*
X25426180Y15451200D01*
X25432990D01*
X25439810Y15448580D01*
X25445650Y15442020D01*
G01X25507800Y15451200D02*
X25500010Y15448580D01*
X25494170Y15442020D01*
X25490280Y15434150D01*
X25487360Y15423650D01*
X25486390Y15411850D01*
X25487360Y15400040D01*
X25490280Y15389550D01*
X25494170Y15381680D01*
X25500010Y15375120D01*
X25507800Y15372500D01*
X25515590Y15375120D01*
X25521430Y15381680D01*
X25525320Y15389550D01*
X25528240Y15400040D01*
X25529210Y15411850D01*
X25528240Y15423650D01*
X25525320Y15434150D01*
X25521430Y15442020D01*
X25515590Y15448580D01*
X25507800Y15451200D01*
G01X25598180Y15372500D02*
Y15451200D01*
X25562170Y15394800D01*
X25610830D01*
G01X25646710Y15438080D02*
X25652550Y15445950D01*
X25659360Y15449890D01*
X25667150Y15451200D01*
X25676880Y15448580D01*
X25683690Y15442020D01*
X25685640Y15434150D01*
X25684670Y15426280D01*
X25680770Y15419720D01*
X25661310Y15406600D01*
X25652550Y15397420D01*
X25646710Y15384300D01*
X25644760Y15372500D01*
X25685640D01*
G01X25801190D02*
Y15451200D01*
X25820650D01*
X25828440Y15447260D01*
X25834280Y15442020D01*
X25839150Y15434150D01*
X25843040Y15424970D01*
X25844010Y15411850D01*
X25843040Y15398730D01*
X25839150Y15389550D01*
X25834280Y15381680D01*
X25828440Y15376430D01*
X25820650Y15372500D01*
X25801190D01*
G01X25237230Y15641200D02*
Y15562500D01*
X25276170D01*
G01X25311070D02*
X25335400Y15641200D01*
X25359730Y15562500D01*
G01X25350970Y15590040D02*
X25319830D01*
G01X25392690Y15641200D02*
Y15584800D01*
X25396580Y15572990D01*
X25404370Y15565120D01*
X25414100Y15562500D01*
X25423830Y15565120D01*
X25431620Y15572990D01*
X25435510Y15584800D01*
Y15641200D01*
G01X25470410Y15562500D02*
Y15641200D01*
X25515190Y15562500D01*
Y15641200D01*
G01X25592910Y15634640D02*
X25587070Y15638580D01*
X25580260Y15641200D01*
X25572470D01*
X25563710Y15637260D01*
X25556900Y15630710D01*
X25552030Y15622840D01*
X25548140Y15609720D01*
X25547170Y15597910D01*
X25549110Y15586110D01*
X25552030Y15578240D01*
X25557870Y15570370D01*
X25564690Y15565120D01*
X25571500Y15562500D01*
X25578310D01*
X25585130Y15565120D01*
X25590970Y15569060D01*
X25595830Y15574300D01*
G01X25629760Y15562500D02*
Y15641200D01*
G01X25670640D02*
Y15562500D01*
G01Y15601850D02*
X25629760D01*
G01X25708460Y15562500D02*
X25749340Y15641200D01*
G01X25708460D02*
X25749340Y15562500D01*
G01X25788130Y15641200D02*
Y15562500D01*
X25827070D01*
G01X25873650Y15588730D02*
X25898950D01*
G01X25986410Y15634640D02*
X25980570Y15638580D01*
X25973760Y15641200D01*
X25965970D01*
X25957210Y15637260D01*
X25950400Y15630710D01*
X25945530Y15622840D01*
X25941640Y15609720D01*
X25940670Y15597910D01*
X25942610Y15586110D01*
X25945530Y15578240D01*
X25951370Y15570370D01*
X25958190Y15565120D01*
X25965000Y15562500D01*
X25971810D01*
X25978630Y15565120D01*
X25984470Y15569060D01*
X25989330Y15574300D01*
G01X26065110Y15634640D02*
X26059270Y15638580D01*
X26052460Y15641200D01*
X26044670D01*
X26035910Y15637260D01*
X26029100Y15630710D01*
X26024230Y15622840D01*
X26020340Y15609720D01*
X26019370Y15597910D01*
X26021310Y15586110D01*
X26024230Y15578240D01*
X26030070Y15570370D01*
X26036890Y15565120D01*
X26043700Y15562500D01*
X26050510D01*
X26057330Y15565120D01*
X26063170Y15569060D01*
X26068030Y15574300D01*
G01X26122400Y15562500D02*
Y15641200D01*
X26110720Y15625460D01*
G01Y15562500D02*
X26134080D01*
G01X26179690Y15578240D02*
X26185530Y15569060D01*
X26193310Y15563810D01*
X26202070Y15562500D01*
X26209860Y15563810D01*
X26217650Y15570370D01*
X26222510Y15578240D01*
X26223490Y15586110D01*
X26221540Y15595290D01*
X26214730Y15601850D01*
X26207910Y15604470D01*
X26199150D01*
G01X26207910D02*
X26213750Y15608410D01*
X26218620Y15614970D01*
X26220570Y15622840D01*
X26218620Y15630710D01*
X26213750Y15637260D01*
X26204990Y15641200D01*
X26196230Y15639890D01*
X26187470Y15634640D01*
G01X26279800Y15562500D02*
Y15641200D01*
X26268120Y15625460D01*
G01Y15562500D02*
X26291480D01*
G01X26340010Y15628080D02*
X26345850Y15635950D01*
X26352660Y15639890D01*
X26360450Y15641200D01*
X26370180Y15638580D01*
X26376990Y15632020D01*
X26378940Y15624150D01*
X26377970Y15616280D01*
X26374070Y15609720D01*
X26354610Y15596600D01*
X26345850Y15587420D01*
X26340010Y15574300D01*
X26338060Y15562500D01*
X26378940D01*
G01X26417730D02*
Y15641200D01*
X26442070D01*
X26449850Y15637260D01*
X26454720Y15632020D01*
X26456670Y15621520D01*
X26454720Y15611030D01*
X26448880Y15604470D01*
X26442070Y15600540D01*
X26417730D01*
G01X26442070D02*
X26456670Y15562500D01*
G01X26515900D02*
Y15641200D01*
X26504220Y15625460D01*
G01Y15562500D02*
X26527580D01*
G01X26651890D02*
Y15641200D01*
X26671350D01*
X26679140Y15637260D01*
X26684980Y15632020D01*
X26689850Y15624150D01*
X26693740Y15614970D01*
X26694710Y15601850D01*
X26693740Y15588730D01*
X26689850Y15579550D01*
X26684980Y15571680D01*
X26679140Y15566430D01*
X26671350Y15562500D01*
X26651890D01*
G54D102*
X24355000Y28895000D03*
X24405000D03*
X24455000D03*
X24505000D03*
X24555000D03*
X24605000D03*
X24655000D03*
X24705000D03*
Y28255000D03*
X24655000D03*
X24605000D03*
X24555000D03*
X24505000D03*
X24455000D03*
X24405000D03*
X24355000D03*
G54D10*
X20215000Y18300000D03*
X25645000D03*
X25644000Y28505000D03*
G54D103*
X24034000Y29170000D03*
X23780000D03*
X24034000Y29390000D03*
X23780000D03*
G54D11*
X20400000Y21930000D03*
X20340000Y21990000D03*
X22205000Y22750000D03*
X22190340Y22320340D03*
G54D104*
X25420000Y24872500D03*
Y25292500D03*
G54D20*
X20379900Y26540100D03*
Y26580000D03*
Y26620100D03*
Y26660000D03*
Y26699900D03*
Y26740000D03*
Y26779900D03*
Y26820000D03*
Y26859900D03*
Y26900000D03*
Y26939900D03*
Y26980000D03*
Y27019900D03*
Y27060000D03*
Y27099900D03*
Y27140100D03*
Y27179900D03*
Y27220100D03*
Y27260000D03*
Y27300100D03*
Y27340000D03*
Y27380100D03*
Y27420000D03*
Y27460100D03*
Y27500000D03*
Y27540100D03*
Y27580000D03*
Y27620100D03*
Y27660000D03*
Y27699900D03*
Y27740000D03*
Y27779900D03*
X21919900D03*
Y27740000D03*
Y27699900D03*
Y27660000D03*
Y27620100D03*
Y27580000D03*
Y27540100D03*
Y27500000D03*
Y27460100D03*
Y27420000D03*
Y27380100D03*
Y27340000D03*
Y27300100D03*
Y27260000D03*
Y27220100D03*
Y27179900D03*
Y27140100D03*
Y27099900D03*
Y27060000D03*
Y27019900D03*
Y26980000D03*
Y26939900D03*
Y26900000D03*
Y26859900D03*
Y26820000D03*
Y26779900D03*
Y26740000D03*
Y26699900D03*
Y26660000D03*
Y26620100D03*
Y26580000D03*
Y26540100D03*
G54D12*
X20334660Y21864660D03*
X20274660Y21924660D03*
X22139660Y22684660D03*
X22125000Y22255000D03*
G54D21*
X20228000Y27620000D03*
X20224000Y27155000D03*
X20230000Y26935000D03*
Y27040000D03*
X21845000Y22825000D03*
X21765000Y22730000D03*
X20677400Y24950000D03*
X21900400Y25905000D03*
X21096400Y26125000D03*
X21667400Y26240000D03*
X21096400Y26220000D03*
X21832400Y28130000D03*
X20662400Y28930000D03*
X21782400Y28060000D03*
X21600000D03*
X22915000Y20535000D03*
X22787400Y21575000D03*
X22695000Y21820000D03*
X22787400Y22055000D03*
X23007400Y20865000D03*
X22450000Y22765000D03*
Y22695000D03*
X23522400Y22475000D03*
X23492400Y23000000D03*
X22650000Y22300000D03*
X22837400D03*
X22745000Y22370000D03*
X22200000Y27485000D03*
X22190000Y27840000D03*
X22202400Y27570000D03*
Y27660000D03*
X22190000Y27750000D03*
X23182400Y27830000D03*
X23382400Y27835000D03*
X22520000Y28035000D03*
X22250000Y29040000D03*
X23510000Y29055000D03*
X22522400Y27940000D03*
X22320000Y28960000D03*
X23380000Y27935000D03*
X23435000Y28065000D03*
X23172400Y28650000D03*
X23380000Y29375000D03*
X24440000Y21935000D03*
X24490000Y21515000D03*
X24322400Y25630000D03*
X23562400Y25910000D03*
X24985000Y26440000D03*
X24635000Y27155000D03*
X24437400D03*
X24917400Y27475000D03*
X24522400Y27790000D03*
X24917400Y27575000D03*
X23707400Y27505000D03*
X23760000Y26860000D03*
Y27080000D03*
X24860000Y29065000D03*
X24035000Y28470000D03*
X24037400Y28560000D03*
X23715000Y28905000D03*
X23717400Y29005000D03*
X24797400Y29370000D03*
X25647400Y24575000D03*
X25187400Y26855000D03*
Y26755000D03*
X25110000Y28595000D03*
Y28700000D03*
Y28800000D03*
X25112400Y28500000D03*
G54D30*
X21828000Y22470000D03*
Y22635000D03*
X21715000Y22470000D03*
Y22635000D03*
G54D105*
X25600000Y24745000D03*
Y25420000D03*
G54D31*
X21228000Y26100000D03*
Y26165000D03*
Y26230000D03*
X21448000D03*
Y26100000D03*
G54D13*
X20435000Y24877500D03*
Y25297500D03*
G54D40*
X20990000Y28385000D03*
G54D22*
X20135000Y26820000D03*
X20225000D03*
X23285000Y28660000D03*
X23375000D03*
X23345000Y28175000D03*
X23435000D03*
X23675000Y26970000D03*
X23765000D03*
X23905000Y27200000D03*
X23995000D03*
X24755000Y28050000D03*
X24845000D03*
X25500000Y28290000D03*
X25590000D03*
G54D106*
X25368000Y26345000D03*
G54D41*
X21895000Y28505000D03*
Y28255000D03*
X21695000D03*
Y28505000D03*
G54D23*
X20424900Y28685000D03*
Y28465000D03*
X20255000D03*
Y28685000D03*
G54D107*
X25221000Y26245000D03*
Y26295000D03*
Y26345000D03*
Y26395000D03*
X25515000D03*
Y26345000D03*
Y26295000D03*
Y26245000D03*
X25221000Y26445000D03*
X25515000D03*
G54D32*
X22000000Y26070000D03*
X22800000D03*
X22400000D03*
G54D14*
X20255000Y24750000D03*
Y25425000D03*
G54D50*
X21810000Y28700000D03*
Y28750000D03*
Y28800000D03*
Y28850000D03*
X21600000Y28700000D03*
Y28750000D03*
Y28800000D03*
Y28850000D03*
G54D42*
X21765000Y28970000D03*
X21675000D03*
X21485000Y28855000D03*
X21395000D03*
X23500000Y26310000D03*
X23380000Y27230000D03*
X23290000D03*
Y26810000D03*
X23200000D03*
X23170000Y28540000D03*
X23080000D03*
X23795000Y26310000D03*
X23705000D03*
X23590000D03*
X23710000Y27400000D03*
X23620000D03*
X24525000Y27375000D03*
X24435000D03*
X24525000Y27260000D03*
X24435000D03*
X24770000Y26505000D03*
X24680000D03*
X24525000Y28100000D03*
X24435000D03*
G54D15*
X20585000Y24950000D03*
X20135600Y27620000D03*
X20131600Y27155000D03*
X20137600Y26935000D03*
Y27040000D03*
X20570000Y28930000D03*
X21752600Y22825000D03*
X21672600Y22730000D03*
X21808000Y25905000D03*
X21004000Y26125000D03*
X21575000Y26240000D03*
X21004000Y26220000D03*
X21740000Y28130000D03*
X21690000Y28060000D03*
X21507600D03*
X22822600Y20535000D03*
X22695000Y21575000D03*
X22602600Y21820000D03*
X22695000Y22055000D03*
X22915000Y20865000D03*
X22357600Y22765000D03*
Y22695000D03*
X23430000Y22475000D03*
X23400000Y23000000D03*
X22557600Y22300000D03*
X22745000D03*
X22652600Y22370000D03*
X23470000Y25910000D03*
X22107600Y27485000D03*
X22097600Y27840000D03*
X22110000Y27570000D03*
Y27660000D03*
X22097600Y27750000D03*
X23090000Y27830000D03*
X23290000Y27835000D03*
X22427600Y28035000D03*
X22157600Y29040000D03*
X23417600Y29055000D03*
X22430000Y27940000D03*
X22227600Y28960000D03*
X23287600Y27935000D03*
X23342600Y28065000D03*
X23080000Y28650000D03*
X23287600Y29375000D03*
X24347600Y21935000D03*
X24397600Y21515000D03*
X24230000Y25630000D03*
X24892600Y26440000D03*
X24542600Y27155000D03*
X24345000D03*
X24825000Y27475000D03*
X24430000Y27790000D03*
X24825000Y27575000D03*
X23615000Y27505000D03*
X23667600Y26860000D03*
Y27080000D03*
X24767600Y29065000D03*
X23942600Y28470000D03*
X23945000Y28560000D03*
X23622600Y28905000D03*
X23625000Y29005000D03*
X24705000Y29370000D03*
X25555000Y24575000D03*
X25095000Y26855000D03*
Y26755000D03*
X25017600Y28595000D03*
Y28700000D03*
Y28800000D03*
X25020000Y28500000D03*
G54D60*
X22672500Y23165000D03*
X22722500D03*
X22772500D03*
X22822500D03*
X22872500D03*
X22922500D03*
X22972500D03*
X23022500D03*
X23072500D03*
X23122500D03*
X23172500D03*
X23222500D03*
Y22475000D03*
X23172500D03*
X23122500D03*
X23072500D03*
X23022500D03*
X22972500D03*
X22922500D03*
X22872500D03*
X22822500D03*
X22772500D03*
X22722500D03*
X22672500D03*
G54D108*
X25505000Y26660000D03*
Y26950000D03*
G54D33*
X21991000Y26007500D03*
X21951000D03*
X21911000D03*
X21871000D03*
Y26252500D03*
X21911000D03*
X21951000D03*
X21991000D03*
X22791000Y26007500D03*
X22751000D03*
X22711000D03*
X22671000D03*
Y26252500D03*
X22711000D03*
X22751000D03*
X22791000D03*
X22391000Y26007500D03*
X22351000D03*
X22311000D03*
X22271000D03*
Y26252500D03*
X22311000D03*
X22351000D03*
X22391000D03*
G54D24*
X20574000Y28260000D03*
Y28170000D03*
X20630000Y28260000D03*
X20719000Y28780000D03*
X20775000D03*
X20630000Y28170000D03*
X21348000Y28655000D03*
X21404000D03*
G54D51*
X21945000Y28685000D03*
X22295000D03*
G54D34*
X21849500Y26070000D03*
Y26110000D03*
Y26150000D03*
Y26190000D03*
X22012500D03*
Y26150000D03*
Y26110000D03*
X22649500Y26070000D03*
Y26110000D03*
Y26150000D03*
Y26190000D03*
X22812500D03*
Y26150000D03*
Y26110000D03*
X22249500Y26070000D03*
Y26110000D03*
Y26150000D03*
Y26190000D03*
X22412500D03*
Y26150000D03*
Y26110000D03*
G54D61*
X22947500Y22820000D03*
G54D25*
X20421000Y28140000D03*
X20365000D03*
X20426000Y28060000D03*
X20370000D03*
X21086000Y25940000D03*
X21030000D03*
X21088000Y26020000D03*
X21032000D03*
X21401000Y28390000D03*
X21345000D03*
X21401000Y28210000D03*
X21345000D03*
X21401000Y28480000D03*
X21345000D03*
X21401000Y28130000D03*
X21345000D03*
X20912000Y28780000D03*
X20856000D03*
G54D43*
X21905000Y28030000D03*
Y27940000D03*
X23005000Y27240000D03*
Y27150000D03*
X24280000Y21610000D03*
Y21520000D03*
X24355000Y29145000D03*
Y29055000D03*
X25140000Y27405000D03*
Y27315000D03*
G54D109*
X25130000Y27945000D03*
Y28010000D03*
Y28075000D03*
Y28140000D03*
X25560000D03*
Y28075000D03*
Y28010000D03*
Y27945000D03*
G54D52*
X22915000Y20309000D03*
Y20365000D03*
G54D70*
X23195000Y27695000D03*
Y27630000D03*
Y27565000D03*
Y27500000D03*
X23495000Y27695000D03*
Y27630000D03*
Y27565000D03*
Y27500000D03*
G54D16*
X20569900Y26390000D03*
X20530000D03*
Y27930000D03*
X20569900D03*
X21770000Y26390000D03*
X21729900D03*
X21690000D03*
X21649900D03*
X21610000D03*
X21569900D03*
X21530000D03*
X21490100D03*
X21450000D03*
X21410100D03*
X21370000D03*
X21330100D03*
X21290000D03*
X21250100D03*
X21210000D03*
X21170100D03*
X21130000D03*
X21090100D03*
X21049900D03*
X21010100D03*
X20969900D03*
X20930000D03*
X20889900D03*
X20850000D03*
X20809900D03*
X20770000D03*
X20729900D03*
X20690000D03*
X20649900D03*
X20610000D03*
Y27930000D03*
X20649900D03*
X20690000D03*
X20729900D03*
X20770000D03*
X20809900D03*
X20850000D03*
X20889900D03*
X20930000D03*
X20969900D03*
X21010100D03*
X21049900D03*
X21090100D03*
X21130000D03*
X21170100D03*
X21210000D03*
X21250100D03*
X21290000D03*
X21330100D03*
X21370000D03*
X21410100D03*
X21450000D03*
X21490100D03*
X21530000D03*
X21569900D03*
X21610000D03*
X21649900D03*
X21690000D03*
X21729900D03*
X21770000D03*
G54D35*
X20885000Y26145000D03*
Y26235000D03*
X21920000Y28885000D03*
Y28975000D03*
X22955000Y26900000D03*
Y26990000D03*
X23435000Y26850000D03*
Y26940000D03*
X23070000Y26725000D03*
Y26815000D03*
X22380000Y28360000D03*
Y28450000D03*
X22845000Y28360000D03*
Y28450000D03*
X23730000Y27630000D03*
Y27720000D03*
X24775000Y27805000D03*
Y27895000D03*
X24860000Y27195000D03*
Y27285000D03*
X24535000Y27895000D03*
X24415000D03*
X24295000Y27805000D03*
Y27895000D03*
X24635000Y27285000D03*
Y27375000D03*
X24325000Y27285000D03*
Y27375000D03*
X24215000Y27195000D03*
Y27285000D03*
X24745000Y27195000D03*
Y27285000D03*
X24655000Y27805000D03*
Y27895000D03*
X23550000Y26850000D03*
Y26940000D03*
X24170000Y27805000D03*
Y27895000D03*
X24065000Y28005000D03*
Y28095000D03*
X24535000Y27985000D03*
X24415000D03*
X25030000Y27405000D03*
Y27495000D03*
G54D17*
X20125000Y26400000D03*
X20220000D03*
X20400000Y28330000D03*
X20145000Y28620000D03*
X21817500Y21812400D03*
X21562500Y21817400D03*
X21845000Y22822400D03*
X20685000Y26240000D03*
X20780000D03*
X22070000Y27260000D03*
X21995000Y28032400D03*
X22020000Y28432400D03*
X21495000Y28757400D03*
X21570000Y28422400D03*
X22020000Y28242400D03*
X21500000Y28570000D03*
X21510000Y28232400D03*
X21285000Y28852400D03*
X22020000Y28932400D03*
X22915000Y20865000D03*
X23390000Y21952400D03*
X22695000Y21750000D03*
Y21985000D03*
X22915000Y20700000D03*
X22340000Y23237400D03*
X22225000Y23242400D03*
X22480000Y22490000D03*
X22747500Y23407400D03*
X23395000Y22160000D03*
X22840000Y22230000D03*
X22745000D03*
X23395000Y23212400D03*
X22650000Y22230000D03*
X22115000Y26100000D03*
X22910000Y26307400D03*
Y26100000D03*
X22515000Y26287400D03*
X22110000Y26302400D03*
X22515000Y26085000D03*
X22130000Y26810000D03*
X23455000Y26515000D03*
X22170000Y27260000D03*
X23185000Y27317400D03*
X23345000Y26667400D03*
X22625000Y28030000D03*
X22080000Y28037400D03*
X23415000Y28950000D03*
X22110000Y28932400D03*
X23515000Y28957400D03*
X24280000Y21875000D03*
X24716000Y25917400D03*
X24688000Y27622400D03*
X24260000D03*
X24125000Y26752400D03*
X23615000Y27725000D03*
X23895000Y26450000D03*
X24115000Y26977400D03*
X24985000Y28122400D03*
X24470000Y29150000D03*
X24640000Y28095000D03*
X24310000Y28100000D03*
X24055000Y28967400D03*
X24220000Y28100000D03*
X24050000Y28360000D03*
X24040000Y28757400D03*
X23965000Y28095000D03*
X25630000Y26165000D03*
X25675000Y27402400D03*
X24990000Y27055000D03*
Y26865000D03*
X25675000Y27615000D03*
X24990000Y26660000D03*
X25725000Y28067400D03*
X25720000Y28262400D03*
X25000000Y28400000D03*
G54D80*
X23525000Y28705000D03*
X23705000D03*
X25485000Y27245000D03*
X25305000D03*
X25340000Y28320000D03*
X25160000D03*
G54D44*
X20996000Y28806000D03*
Y28750000D03*
G54D71*
X23345000Y27597500D03*
G54D62*
X22221210Y22646780D03*
X22122220Y22547780D03*
X22298990Y22568990D03*
X22200000Y22470000D03*
G54D26*
X21565000Y21635100D03*
Y21485000D03*
X21815000Y21635100D03*
Y21485000D03*
G54D53*
X23013000Y20445000D03*
X22915000D03*
G54D63*
X22890000Y23545000D03*
Y23365000D03*
X23535000Y29385000D03*
Y29205000D03*
X23885000Y28870000D03*
Y28690000D03*
G54D45*
X21233800Y29265000D03*
X21046200D03*
G54D36*
X21832500Y29160000D03*
X22252500D03*
G54D72*
X22830000Y27170000D03*
Y27470000D03*
G54D54*
X23215000Y21890000D03*
Y22140000D03*
G54D90*
X23780000Y26010000D03*
Y26060000D03*
Y26110000D03*
X23785000Y25115000D03*
G54D27*
X21991360Y22508640D03*
X22055000Y22445000D03*
G54D18*
X20125000Y26307600D03*
X20220000D03*
X20400000Y28237600D03*
X20145000Y28527600D03*
X21817500Y21720000D03*
X21562500Y21725000D03*
X21845000Y22730000D03*
X20685000Y26147600D03*
X20780000D03*
X22070000Y27167600D03*
X21995000Y27940000D03*
X22020000Y28340000D03*
X21495000Y28665000D03*
X21570000Y28330000D03*
X22020000Y28150000D03*
X21500000Y28477600D03*
X21510000Y28140000D03*
X21285000Y28760000D03*
X22020000Y28840000D03*
X22915000Y20607600D03*
Y20772600D03*
X23395000Y22067600D03*
X23390000Y21860000D03*
X22695000Y21657600D03*
Y21892600D03*
X22340000Y23145000D03*
X22225000Y23150000D03*
X22480000Y22397600D03*
X22747500Y23315000D03*
X22840000Y22137600D03*
X22745000D03*
X23395000Y23120000D03*
X22650000Y22137600D03*
X23455000Y26422600D03*
X22115000Y26007600D03*
X22910000Y26215000D03*
Y26007600D03*
X22515000Y26195000D03*
X22110000Y26210000D03*
X22515000Y25992600D03*
X22130000Y26717600D03*
X22170000Y27167600D03*
X23185000Y27225000D03*
X23345000Y26575000D03*
X22625000Y27937600D03*
X22080000Y27945000D03*
X23415000Y28857600D03*
X22110000Y28840000D03*
X23515000Y28865000D03*
X24280000Y21782600D03*
X24716000Y25825000D03*
X23895000Y26357600D03*
X24688000Y27530000D03*
X24260000D03*
X24125000Y26660000D03*
X23615000Y27632600D03*
X24115000Y26885000D03*
X24985000Y28030000D03*
X24470000Y29057600D03*
X24640000Y28002600D03*
X24310000Y28007600D03*
X24055000Y28875000D03*
X24220000Y28007600D03*
X24050000Y28267600D03*
X24040000Y28665000D03*
X23965000Y28002600D03*
X25630000Y26072600D03*
X25675000Y27310000D03*
X24990000Y26962600D03*
Y26772600D03*
X25675000Y27522600D03*
X24990000Y26567600D03*
X25725000Y27975000D03*
X25720000Y28170000D03*
X25000000Y28307600D03*
G54D81*
X23520000Y28485000D03*
X23580000Y27230000D03*
X23760000D03*
X23730000Y28280000D03*
X23910000D03*
X23700000Y28485000D03*
X25395000Y27770000D03*
X25575000D03*
G54D82*
X24610000Y20505000D03*
X24050000D03*
Y21065000D03*
X24610000D03*
G54D46*
X21386200Y29035000D03*
X20893800D03*
G54D91*
X24067900Y25868300D03*
X24194900D03*
X24321900D03*
X24448900D03*
X24575900D03*
X24067900Y26253300D03*
X24194900D03*
X24321900D03*
X24448900D03*
X24575900D03*
G54D64*
X22577500Y23625000D03*
X22737500D03*
G54D19*
X20125000Y26519900D03*
Y26670000D03*
X20220000Y26519900D03*
Y26670000D03*
G54D73*
X22520000Y28150000D03*
X22585000D03*
X22650000D03*
X22715000D03*
X22520000Y28450000D03*
X22585000D03*
X22650000D03*
X22715000D03*
G54D28*
X22006360Y22681360D03*
X22070000Y22745000D03*
G54D37*
X21705000Y29340000D03*
X22380000D03*
G54D55*
X22420000Y23530000D03*
Y23390000D03*
G54D29*
X22038640Y22326360D03*
X21975000Y22390000D03*
G54D92*
X23580000Y26466000D03*
X23770000D03*
X23580000Y26695000D03*
X23675000D03*
X23770000D03*
G54D65*
X23185000Y26308000D03*
G54D38*
X21235000Y28560000D03*
Y28510000D03*
Y28460000D03*
Y28410000D03*
Y28360000D03*
Y28310000D03*
Y28260000D03*
Y28210000D03*
X20745000D03*
Y28260000D03*
Y28310000D03*
Y28360000D03*
Y28410000D03*
Y28460000D03*
Y28510000D03*
Y28560000D03*
X24575000Y29270000D03*
Y29320000D03*
X24265000Y29270000D03*
Y29320000D03*
X24575000Y29370000D03*
Y29420000D03*
X24265000Y29370000D03*
Y29420000D03*
G54D74*
X22617500Y28300000D03*
X23197500Y28965000D03*
G54D56*
X22190000Y22320000D03*
G54D47*
X21270000Y29000000D03*
X21205000D03*
X21140000D03*
X21075000D03*
X21010000D03*
G54D83*
X24465000Y21745000D03*
G54D57*
X22124660Y22385340D03*
G54D84*
X24540000Y21865000D03*
X24490000D03*
X24440000D03*
X24390000D03*
X24540000Y21625000D03*
X24490000D03*
X24440000D03*
X24390000D03*
G54D93*
X24952000Y26200000D03*
Y26330000D03*
X24760000Y26200000D03*
Y26265000D03*
Y26330000D03*
G54D48*
X21175000Y28834000D03*
X21125000D03*
X21075000D03*
X21175000Y28775000D03*
X21125000D03*
X21075000D03*
G54D39*
X21165000Y28140000D03*
X21115000D03*
X21065000D03*
X21015000D03*
X20965000D03*
X20915000D03*
X20865000D03*
X20815000D03*
Y28630000D03*
X20865000D03*
X20915000D03*
X20965000D03*
X21015000D03*
X21065000D03*
X21115000D03*
X21165000D03*
G54D75*
X22210000Y28855000D03*
X22350000D03*
G54D66*
X23285000Y26161000D03*
X23235000D03*
X23185000D03*
X23135000D03*
X23085000D03*
Y26455000D03*
X23135000D03*
X23185000D03*
X23235000D03*
X23285000D03*
G54D67*
X22735000Y26965000D03*
Y26665000D03*
G54D76*
X22475000Y28840000D03*
Y29000000D03*
X22250000Y28290000D03*
Y28450000D03*
X23340000Y28330000D03*
Y28490000D03*
X24150000Y21695000D03*
Y21855000D03*
X23875000Y27550000D03*
Y27710000D03*
X23995000Y26585000D03*
Y26745000D03*
G54D85*
X24330000Y20785000D03*
G54D94*
X24930000Y27710000D03*
Y27890000D03*
G54D58*
X22637500Y23475000D03*
Y23315000D03*
X23525000Y24695000D03*
Y24535000D03*
X23670000Y24695000D03*
Y24535000D03*
X23815000Y24695000D03*
Y24535000D03*
X23960000Y24695000D03*
Y24535000D03*
X24936000Y24890000D03*
Y24730000D03*
X25085000Y24890000D03*
Y24730000D03*
G54D49*
X21705000Y28775000D03*
G54D59*
X22602500Y22545000D03*
Y22595000D03*
Y22645000D03*
Y22695000D03*
Y22745000D03*
Y22795000D03*
Y22845000D03*
Y22895000D03*
Y22945000D03*
Y22995000D03*
Y23045000D03*
Y23095000D03*
X23292500D03*
Y23045000D03*
Y22995000D03*
Y22945000D03*
Y22895000D03*
Y22845000D03*
Y22795000D03*
Y22745000D03*
Y22695000D03*
Y22645000D03*
Y22595000D03*
Y22545000D03*
G54D68*
X23210000Y27115000D03*
X23250000D03*
Y26925000D03*
X23210000D03*
G54D77*
X22780000Y29365000D03*
Y28745000D03*
G54D95*
X24473500Y27493000D03*
G54D86*
X24668000Y24975000D03*
X24541000D03*
X24414000D03*
X24287000D03*
X24160000D03*
X24668000Y25360000D03*
X24541000D03*
X24414000D03*
X24287000D03*
X24160000D03*
G54D96*
X24473500Y27670000D03*
G54D69*
X23325000Y27100000D03*
Y27060000D03*
Y27020000D03*
Y26980000D03*
Y26940000D03*
X23135000D03*
Y26980000D03*
Y27020000D03*
Y27060000D03*
Y27100000D03*
G54D78*
X23295000Y29115000D03*
X23230000D03*
X23165000D03*
X23100000D03*
X23295000Y28815000D03*
X23230000D03*
X23165000D03*
X23100000D03*
G54D87*
X23855000Y25985000D03*
X23910000Y25040000D03*
X23860000D03*
X23810000D03*
G54D79*
X23045000Y28142000D03*
Y28370000D03*
G54D97*
X24562000Y27510000D03*
Y27560000D03*
Y27610000D03*
Y27660000D03*
X24385000Y27510000D03*
Y27560000D03*
Y27610000D03*
Y27660000D03*
G54D88*
X23855000Y26135000D03*
X23910000Y25190000D03*
X23860000D03*
X23810000D03*
G54D98*
X24315000Y26630000D03*
Y26757000D03*
Y26884000D03*
Y27011000D03*
X24810000D03*
Y26884000D03*
Y26757000D03*
Y26630000D03*
G54D89*
X23930000Y26010000D03*
Y26060000D03*
Y26110000D03*
X23935000Y25115000D03*
G54D99*
X23819000Y27885000D03*
X23590000D03*
X23819000Y28075000D03*
X23590000Y27980000D03*
Y28075000D03*
X25529000Y27405000D03*
Y27595000D03*
X25300000Y27405000D03*
Y27500000D03*
Y27595000D03*
M02*
