G04 ================== begin FILE IDENTIFICATION RECORD ==================*
G04 Layout Name:  LAUNCHXL-CC1312R1.brd*
G04 Film Name:    WCS042D_LAUNCHXL-CC1312R1_D_silk_top*
G04 File Format:  Gerber RS274X*
G04 File Origin:  Cadence Allegro 17.2-S024*
G04 Origin Date:  Wed Oct 10 12:29:48 2018*
G04 *
G04 Layer:  DRAWING FORMAT/TITLE_BLOCK*
G04 Layer:  BOARD GEOMETRY/TOP SILK*
G04 Layer:  DEVICE TYPE/SILKSCREEN_TOP*
G04 Layer:  PACKAGE GEOMETRY/SILKSCREEN_TOP*
G04 Layer:  MANUFACTURING/AUTOSILK_TOP*
G04 Layer:  BOARD GEOMETRY/OUTLINE*
G04 *
G04 Offset:    (0.0000 0.0000)*
G04 Mirror:    No*
G04 Mode:      Positive*
G04 Rotation:  0*
G04 FullContactRelief:  No*
G04 UndefLineWidth:     0.0990*
G04 ================== end FILE IDENTIFICATION RECORD ====================*
%FSLAX25Y25*MOMM*%
%IR0*IPPOS*OFA0.00000B0.00000*MIA0B0*SFA1.00000B1.00000*%
%ADD10C,.1*%
%ADD11C,.3*%
%ADD12C,.6*%
%ADD13C,.25*%
%ADD14C,.18*%
%ADD15C,.099*%
G75*
%LPD*%
G75*
G36*
G01X20045500Y21027700D02*
X20406200D01*
X20522400Y21143900D01*
X20407500Y21258800D01*
X20045500D01*
Y21143300D01*
Y21027700D01*
G37*
G36*
G01X20041400Y21532500D02*
X20402100D01*
X20518300Y21648700D01*
X20460800Y21706100D01*
X20403400Y21763600D01*
X20041400D01*
Y21648000D01*
Y21532500D01*
G37*
G36*
G01Y21282500D02*
X20402100D01*
X20518300Y21398700D01*
X20460800Y21456100D01*
X20403400Y21513600D01*
X20041400D01*
Y21398000D01*
Y21282500D01*
G37*
G36*
G01X20424300Y24564200D02*
X20063600D01*
Y24334400D01*
X20424300D01*
X20481800Y24391800D01*
X20539200Y24449300D01*
X20481800Y24506700D01*
X20424300Y24564200D01*
G37*
G36*
G01X21420200Y20888100D02*
Y20878700D01*
X21368800D01*
Y20888100D01*
X21374500D01*
G03X21379400Y20893000I-25J4925D01*
G01Y21007400D01*
G03X21374500Y21012400I-4934J65D01*
G01X21345300D01*
G03X21341800Y21010900I45J-4939D01*
G01X21328700Y20997900D01*
X21333500Y21028500D01*
X21455400D01*
X21460300Y20997900D01*
X21447100Y21010900D01*
G03X21443700Y21012400I-3542J-3425D01*
G01X21414500D01*
G03X21409500Y21007400I-48J-4952D01*
G01Y20893000D01*
G03X21414500Y20888100I4943J43D01*
G01X21420200D01*
G37*
G36*
G01X21720800Y20710100D02*
Y20702700D01*
X21680200D01*
Y20710100D01*
X21684700D01*
G03X21688600Y20713900I28J3872D01*
G01Y20804300D01*
G03X21684700Y20808200I-3881J19D01*
G01X21661700D01*
G03X21658900Y20807100I-86J-3895D01*
G01X21648600Y20796800D01*
X21652400Y20821000D01*
X21748700D01*
X21752500Y20796800D01*
X21742100Y20807100D01*
G03X21739400Y20808200I-2710J-2789D01*
G01X21716300D01*
G03X21712400Y20804300I-8J-3892D01*
G01Y20713900D01*
G03X21716300Y20710100I3882J83D01*
G01X21720800D01*
G37*
G36*
G01X21554600Y20983200D02*
X21585400Y20939700D01*
G02Y20935100I-3243J-2300D01*
G01X21554900Y20891100D01*
G02X21551600Y20889400I-3258J2272D01*
G01X21543900D01*
Y20878700D01*
X21580100D01*
Y20889400D01*
X21573300D01*
X21596300Y20924300D01*
X21620900Y20889400D01*
X21613600D01*
Y20878700D01*
X21654700D01*
Y20889400D01*
X21653500D01*
G02X21650300Y20891100I48J3952D01*
G01X21619400Y20935200D01*
G02Y20939600I3294J2200D01*
G01X21647100Y20983000D01*
G02X21650400Y20984900I3386J-2065D01*
G01X21659400D01*
Y20997800D01*
X21616700D01*
Y20988500D01*
Y20984900D01*
X21628200D01*
X21607600Y20953500D01*
X21586900Y20984900D01*
X21599500D01*
Y20997800D01*
X21543600D01*
Y20984900D01*
X21551400D01*
G02X21554600Y20983200I-60J-3975D01*
G37*
G36*
G01X21731300Y20878700D02*
Y20889400D01*
X21734700D01*
G03X21738500Y20894700I55J3973D01*
G01X21710500Y20972900D01*
X21691600Y20924200D01*
X21727300D01*
X21731400Y20912800D01*
X21687200Y20912700D01*
X21680200Y20894800D01*
G03X21683900Y20889400I3702J-1431D01*
G01X21684600D01*
Y20878700D01*
X21657200D01*
Y20889400D01*
X21657800D01*
G03X21661500Y20891900I9J3975D01*
G01X21702400Y20997800D01*
X21729200D01*
X21768000Y20892000D01*
G03X21771700Y20889400I3714J1352D01*
G01X21776000D01*
Y20878700D01*
X21731300D01*
G37*
G36*
G01X21769000Y20713800D02*
Y20810100D01*
G03X21765000Y20814100I-3973J27D01*
G01X21757700D01*
Y20820800D01*
X21831500D01*
X21833900Y20820400D01*
X21836300Y20820000D01*
X21837500Y20819800D01*
X21838600Y20819500D01*
X21840100Y20819100D01*
X21841000Y20818900D01*
X21842100Y20818500D01*
X21843300Y20818000D01*
X21844400Y20817500D01*
X21845500Y20817000D01*
X21846600Y20816400D01*
X21847600Y20815800D01*
X21848700Y20815100D01*
X21849600Y20814400D01*
X21850600Y20813700D01*
X21851600Y20812900D01*
X21852500Y20812000D01*
X21853000Y20811500D01*
X21854200Y20810200D01*
X21855000Y20809300D01*
X21855700Y20808300D01*
X21856400Y20807300D01*
X21857100Y20806200D01*
X21857700Y20805100D01*
X21858200Y20804000D01*
X21858700Y20802900D01*
X21859100Y20801800D01*
X21859500Y20800600D01*
X21859800Y20799300D01*
X21860000Y20798300D01*
X21860200Y20797100D01*
X21860300Y20795900D01*
X21860400Y20794700D01*
X21860500Y20793500D01*
X21860600Y20788600D01*
Y20787500D01*
X21860700Y20786100D01*
X21860800Y20783700D01*
X21860900Y20782400D01*
Y20781200D01*
Y20780000D01*
X21860800Y20778800D01*
X21860700Y20777600D01*
X21860500Y20777000D01*
X21860400Y20776400D01*
X21860300Y20776000D01*
X21860100Y20775300D01*
X21859800Y20774700D01*
X21859600Y20774100D01*
X21859300Y20773600D01*
X21859000Y20773100D01*
X21858400Y20772000D01*
X21857700Y20770900D01*
X21856900Y20770000D01*
X21856100Y20769000D01*
X21855200Y20768100D01*
X21854300Y20767300D01*
X21853400Y20766500D01*
X21852700Y20766000D01*
X21851400Y20765200D01*
X21850400Y20764600D01*
X21849500Y20764100D01*
X21848400Y20763500D01*
X21847400Y20763100D01*
X21845300Y20762100D01*
X21844300Y20761700D01*
X21843200Y20761200D01*
X21842100Y20760700D01*
X21841000Y20760100D01*
X21839800Y20759500D01*
X21838700Y20758800D01*
X21837500Y20758100D01*
X21836200Y20757200D01*
X21835800Y20756800D01*
X21835500Y20756600D01*
X21835200Y20756400D01*
X21835000Y20756200D01*
X21834800Y20755900D01*
X21834700Y20755700D01*
X21834600Y20755400D01*
Y20755300D01*
X21834700Y20755100D01*
X21834800Y20754900D01*
X21835000Y20754700D01*
X21835200Y20754500D01*
X21835500Y20754300D01*
X21836100Y20753900D01*
X21837200Y20753300D01*
X21838000Y20752800D01*
X21838600Y20752400D01*
X21839200Y20752100D01*
X21839800Y20751700D01*
X21840300Y20751300D01*
X21840800Y20751000D01*
X21841700Y20750200D01*
X21842500Y20749400D01*
X21843300Y20748600D01*
X21844100Y20747800D01*
X21844900Y20746800D01*
X21845600Y20746100D01*
X21846300Y20745200D01*
X21847100Y20744300D01*
X21847800Y20743300D01*
X21848500Y20742300D01*
X21850000Y20740300D01*
X21850700Y20739300D01*
X21851300Y20738300D01*
X21852000Y20737200D01*
X21852300Y20736600D01*
X21853800Y20734000D01*
X21854900Y20731800D01*
X21856000Y20729700D01*
X21857200Y20727500D01*
X21857800Y20726500D01*
X21858400Y20725500D01*
X21858900Y20724900D01*
X21859800Y20723500D01*
X21860600Y20722600D01*
X21861300Y20721600D01*
X21862100Y20720700D01*
X21863000Y20719800D01*
X21864700Y20718100D01*
X21866800Y20716000D01*
X21868200Y20714700D01*
X21870000Y20713100D01*
X21872500Y20710900D01*
G03X21875100Y20709900I2617J2925D01*
G01X21880100D01*
Y20702400D01*
X21852600D01*
G02X21849600Y20703700I-52J3992D01*
G01X21844100Y20709900D01*
X21843200Y20710900D01*
X21842300Y20711900D01*
X21841400Y20712900D01*
X21840500Y20713900D01*
X21839600Y20714900D01*
X21838800Y20716000D01*
X21838000Y20717100D01*
X21837100Y20718100D01*
X21836400Y20719100D01*
X21835600Y20720300D01*
X21834800Y20721500D01*
X21834100Y20722700D01*
X21833400Y20723800D01*
X21832800Y20725000D01*
X21832200Y20726300D01*
X21831600Y20727500D01*
X21831100Y20728700D01*
X21830600Y20730000D01*
X21830100Y20731300D01*
X21829700Y20732600D01*
X21829200Y20733800D01*
X21828700Y20735100D01*
X21828200Y20736400D01*
X21827700Y20737600D01*
X21827400Y20738300D01*
X21826400Y20740000D01*
X21825800Y20741200D01*
X21825100Y20742300D01*
X21824300Y20743500D01*
X21823600Y20744600D01*
X21823100Y20745400D01*
X21822100Y20747000D01*
X21821400Y20748100D01*
X21820600Y20749200D01*
X21819800Y20750300D01*
X21818800Y20751300D01*
X21818100Y20751900D01*
X21816700Y20752900D01*
X21815500Y20753500D01*
X21814300Y20754100D01*
X21813000Y20754700D01*
X21792600D01*
Y20765900D01*
X21816100D01*
X21817500Y20766000D01*
X21818900Y20766100D01*
X21819900Y20766200D01*
X21821600Y20766400D01*
X21823000Y20766700D01*
X21824300Y20767000D01*
X21825000Y20767200D01*
X21826900Y20768000D01*
X21828200Y20768700D01*
X21829400Y20769400D01*
X21830500Y20770300D01*
X21831600Y20771200D01*
X21832600Y20772200D01*
X21833500Y20773300D01*
X21834400Y20774500D01*
X21835100Y20775700D01*
X21835600Y20776800D01*
X21836100Y20778200D01*
X21836500Y20779500D01*
X21836700Y20780900D01*
X21836900Y20782200D01*
X21837000Y20783600D01*
Y20785000D01*
Y20786400D01*
Y20788100D01*
X21836900Y20789300D01*
X21836800Y20790700D01*
X21836700Y20792100D01*
X21836500Y20793500D01*
X21836300Y20794800D01*
X21836000Y20796200D01*
X21835600Y20797500D01*
X21835200Y20798800D01*
X21834600Y20800000D01*
X21834200Y20800700D01*
X21833100Y20802400D01*
X21832200Y20803500D01*
X21831300Y20804500D01*
X21830200Y20805400D01*
X21829100Y20806300D01*
X21827900Y20807000D01*
X21827100Y20807400D01*
X21825300Y20808000D01*
X21824000Y20808300D01*
X21822600Y20808500D01*
X21821300Y20808700D01*
X21819900Y20808900D01*
X21792200D01*
Y20713800D01*
G03X21796200Y20709900I3943J43D01*
G01X21805200D01*
Y20702400D01*
X21757700D01*
Y20709900D01*
X21765000D01*
G03X21769000Y20713800I45J3956D01*
G37*
G36*
G01X21909200Y20702700D02*
X21963500D01*
G03X21983700Y20724700I-2081J22185D01*
G01Y20810100D01*
G02X21987600Y20814100I3953J47D01*
G01X21993500D01*
Y20821400D01*
X21955000D01*
Y20814100D01*
X21963200D01*
G02X21967200Y20810100I35J-3965D01*
G01Y20731000D01*
G02X21948300Y20716400I-17966J3724D01*
G01X21926600D01*
G02X21909500Y20731000I494J17892D01*
G01Y20810100D01*
G02X21913400Y20814100I3952J48D01*
G01X21922000D01*
Y20821400D01*
X21869800D01*
Y20814100D01*
X21880000D01*
G02X21884000Y20810100I24J-3976D01*
G01Y20733900D01*
G03X21909200Y20702700I32209J238D01*
G37*
G36*
G01X21999500Y20702500D02*
X22036900D01*
Y20711700D01*
X22028800D01*
G02X22024800Y20715700I-34J3966D01*
G01Y20791300D01*
X22068600Y20702500D01*
X22110700Y20789900D01*
Y20715700D01*
G02X22106700Y20711700I-3982J-18D01*
G01X22102100D01*
Y20702700D01*
X22147400D01*
Y20711700D01*
X22145700D01*
G02X22141700Y20715700I-36J3964D01*
G01Y20810600D01*
G02X22145700Y20814600I3959J41D01*
G01X22149700D01*
Y20821400D01*
X22110700D01*
G03X22107100Y20819000I48J-3973D01*
G01X22076600Y20748600D01*
X22044100Y20819100D01*
G03X22040500Y20821400I-3598J-1665D01*
G01X21999500D01*
Y20814100D01*
X22008700D01*
G02X22012700Y20810100I40J-3960D01*
G01Y20715700D01*
G02X22008700Y20711700I-3963J-37D01*
G01X21999500D01*
Y20702500D01*
G37*
G36*
G01X21519500Y20953900D02*
X21522300D01*
Y20924300D01*
X21519500D01*
X21515500Y20929400D01*
G03X21512400Y20930900I-3099J-2451D01*
G01X21471900D01*
Y20892600D01*
X21522900D01*
G03X21525800Y20893800I50J3984D01*
G01X21538100Y20906700D01*
X21541500D01*
X21532800Y20881400D01*
G02X21529000Y20878700I-3767J1277D01*
G01X21438400D01*
Y20883000D01*
X21449500Y20888800D01*
G03X21451700Y20892300I-1776J3558D01*
G01Y20980700D01*
G03X21449700Y20984100I-3959J-41D01*
G01X21438400Y20990800D01*
Y20997600D01*
X21524300D01*
G02X21527900Y20995100I-69J-3942D01*
G01X21538700Y20969200D01*
X21532800Y20966700D01*
X21522300Y20978200D01*
G03X21519400Y20979500I-2940J-2673D01*
G01X21471900D01*
Y20949000D01*
X21512700D01*
G03X21515400Y20950100I-32J3943D01*
G01X21519500Y20953900D01*
G37*
G36*
G01X21408800Y20719600D02*
G03X21416700Y20711700I7928J28D01*
G01X21421000D01*
Y20702700D01*
X21368800Y20702500D01*
Y20711700D01*
X21373000D01*
G03X21381000Y20719600I59J7941D01*
G01Y20842400D01*
G03X21373000Y20850300I-7925J-25D01*
G01X21368800D01*
Y20857100D01*
X21420200D01*
Y20850300D01*
X21416700D01*
G03X21408800Y20842400I13J-7913D01*
G01Y20719600D01*
G37*
G36*
G01X21427900Y20711700D02*
X21435400D01*
G03X21439400Y20715700I21J3979D01*
G01Y20808700D01*
G03X21435400Y20812600I-3970J-71D01*
G01X21427300D01*
Y20821400D01*
X21463800D01*
G02X21466800Y20820000I-17J-3952D01*
G01X21523600Y20754300D01*
Y20807900D01*
G03X21519600Y20811800I-3959J-59D01*
G01X21509900D01*
Y20821400D01*
X21549800D01*
Y20811800D01*
X21541400D01*
G03X21537500Y20807900I42J-3942D01*
G01Y20702700D01*
X21531300D01*
G02X21528300Y20704000I-71J3948D01*
G01X21459700Y20783500D01*
Y20715700D01*
G03X21463600Y20711700I3957J-43D01*
G01X21469600D01*
Y20702700D01*
X21427900D01*
Y20711700D01*
G37*
G36*
G01X21562200Y20703800D02*
X21552200Y20740500D01*
X21556800Y20741600D01*
X21558700Y20739000D01*
X21560700Y20736400D01*
X21562700Y20733800D01*
X21564700Y20731400D01*
X21566800Y20729100D01*
X21569000Y20727000D01*
X21571400Y20725000D01*
X21573800Y20723300D01*
X21576600Y20721900D01*
X21579200Y20720700D01*
X21582200Y20719800D01*
X21585200Y20719100D01*
X21588900Y20718300D01*
X21591400Y20717800D01*
X21594600Y20717200D01*
X21597800Y20716700D01*
X21600900Y20716400D01*
X21604100Y20716300D01*
X21607200Y20716400D01*
X21610200Y20716900D01*
X21613200Y20717600D01*
X21616400Y20718900D01*
X21618900Y20720400D01*
X21621500Y20722400D01*
X21623600Y20724800D01*
X21625500Y20728700D01*
X21625800Y20730500D01*
X21625700Y20733600D01*
X21624900Y20736800D01*
X21623500Y20739800D01*
X21620900Y20743200D01*
X21619400Y20744600D01*
X21616800Y20746300D01*
X21613900Y20747700D01*
X21611000Y20748700D01*
X21606700Y20749700D01*
X21604800Y20750100D01*
X21601700Y20750600D01*
X21598700Y20751100D01*
X21595700Y20751500D01*
X21592600Y20752000D01*
X21589600Y20752400D01*
X21586600Y20752900D01*
X21583500Y20753400D01*
X21580500Y20754100D01*
X21578500Y20754500D01*
X21574300Y20755700D01*
X21571300Y20756800D01*
X21568400Y20758100D01*
X21565700Y20759600D01*
X21563200Y20761300D01*
X21561000Y20763300D01*
X21559100Y20765700D01*
X21557500Y20768300D01*
X21556300Y20771100D01*
X21555300Y20774100D01*
X21554600Y20777300D01*
X21554200Y20780500D01*
X21553900Y20785300D01*
Y20787100D01*
X21554100Y20790400D01*
X21554500Y20793600D01*
X21555100Y20796700D01*
X21556000Y20799700D01*
X21557100Y20802600D01*
X21558500Y20805300D01*
X21560400Y20807900D01*
X21562200Y20810100D01*
X21564500Y20812100D01*
X21567000Y20814000D01*
X21569700Y20815700D01*
X21572500Y20817100D01*
X21575400Y20818400D01*
X21579800Y20819900D01*
X21581400Y20820400D01*
X21584500Y20821100D01*
X21587500Y20821700D01*
X21590500Y20822100D01*
X21593600Y20822400D01*
X21596600Y20822500D01*
X21599800D01*
X21603000Y20822300D01*
X21606100Y20821900D01*
X21609100Y20821300D01*
X21612100Y20820400D01*
X21614400Y20819600D01*
X21617800Y20818100D01*
X21620500Y20816600D01*
X21623200Y20815100D01*
Y20822600D01*
X21631900D01*
X21639600Y20789100D01*
X21636800Y20786300D01*
X21634400Y20788100D01*
X21632000Y20790000D01*
X21629600Y20791700D01*
X21627200Y20793500D01*
X21624600Y20795100D01*
X21621900Y20796600D01*
X21619400Y20797900D01*
X21616600Y20799100D01*
X21613700Y20800100D01*
X21610800Y20800900D01*
X21607900Y20801600D01*
X21604900Y20802200D01*
X21603100Y20802400D01*
X21599000Y20802800D01*
X21596000Y20802900D01*
X21593000Y20802700D01*
X21590500Y20802400D01*
X21586900Y20801700D01*
X21584000Y20800700D01*
X21581400Y20799200D01*
X21580100Y20797900D01*
X21578000Y20794100D01*
X21577300Y20791000D01*
X21577400Y20787800D01*
X21578200Y20785300D01*
X21580000Y20782600D01*
X21582400Y20780800D01*
X21585200Y20779400D01*
X21588300Y20778300D01*
X21591100Y20777500D01*
X21594500Y20776800D01*
X21597500Y20776300D01*
X21600500Y20775900D01*
X21603400Y20775500D01*
X21606300Y20775100D01*
X21609300Y20774600D01*
X21612100Y20774100D01*
X21615000Y20773400D01*
X21617900Y20772700D01*
X21620800Y20771900D01*
X21623500Y20771100D01*
X21626600Y20770000D01*
X21629500Y20768900D01*
X21632200Y20767700D01*
X21634900Y20766300D01*
X21637400Y20764600D01*
X21639400Y20763000D01*
X21641700Y20760500D01*
X21643400Y20758100D01*
X21645000Y20755500D01*
X21646200Y20752700D01*
X21647300Y20749800D01*
X21648100Y20746800D01*
X21648700Y20743900D01*
X21649000Y20740800D01*
X21649200Y20737800D01*
X21649100Y20734800D01*
X21648700Y20731800D01*
X21648100Y20728700D01*
X21647400Y20725900D01*
X21646400Y20723100D01*
X21645200Y20720300D01*
X21643800Y20717600D01*
X21642100Y20715000D01*
X21640300Y20712600D01*
X21638100Y20710200D01*
X21636000Y20708300D01*
X21633600Y20706500D01*
X21631000Y20704900D01*
X21628300Y20703400D01*
X21625500Y20702200D01*
X21622600Y20701200D01*
X21619600Y20700300D01*
X21616600Y20699700D01*
X21613500Y20699200D01*
X21610400Y20698900D01*
X21607000D01*
X21604400Y20699000D01*
X21601400Y20699300D01*
X21598400Y20699700D01*
X21595500Y20700300D01*
X21592600Y20701000D01*
X21589700Y20701800D01*
X21586800Y20702800D01*
X21584000Y20703800D01*
X21581100Y20704800D01*
X21578300Y20705900D01*
X21575500Y20707100D01*
X21572700Y20708300D01*
Y20703800D01*
X21562200D01*
G37*
G36*
G01X21784200Y20880000D02*
X21774200Y20916700D01*
X21778800Y20917800D01*
X21780800Y20915200D01*
X21782700Y20912600D01*
X21784700Y20910100D01*
X21786800Y20907600D01*
X21788900Y20905300D01*
X21791100Y20903200D01*
X21793400Y20901300D01*
X21795900Y20899600D01*
X21798600Y20898100D01*
X21801300Y20897000D01*
X21804200Y20896100D01*
X21807200Y20895300D01*
X21810900Y20894500D01*
X21813500Y20894000D01*
X21816600Y20893400D01*
X21819800Y20893000D01*
X21823000Y20892700D01*
X21826100Y20892500D01*
X21829200Y20892700D01*
X21832300Y20893100D01*
X21835300Y20893900D01*
X21838400Y20895200D01*
X21841000Y20896600D01*
X21843500Y20898700D01*
X21845600Y20901000D01*
X21847500Y20904900D01*
X21847800Y20906700D01*
Y20909900D01*
X21847000Y20913000D01*
X21845600Y20916000D01*
X21843000Y20919400D01*
X21841400Y20920900D01*
X21838800Y20922600D01*
X21836000Y20923900D01*
X21833000Y20924900D01*
X21828700Y20925900D01*
X21826800Y20926300D01*
X21823800Y20926800D01*
X21820700Y20927300D01*
X21817700Y20927800D01*
X21814700Y20928200D01*
X21811600Y20928600D01*
X21808600Y20929100D01*
X21805600Y20929700D01*
X21802500Y20930300D01*
X21800600Y20930800D01*
X21796400Y20931900D01*
X21793300Y20933000D01*
X21790400Y20934300D01*
X21787700Y20935800D01*
X21785200Y20937500D01*
X21783100Y20939500D01*
X21781100Y20941900D01*
X21779600Y20944500D01*
X21778300Y20947400D01*
X21777400Y20950400D01*
X21776600Y20953500D01*
X21776200Y20956700D01*
X21775900Y20961500D01*
Y20963300D01*
X21776100Y20966600D01*
X21776500Y20969800D01*
X21777200Y20972900D01*
X21778000Y20975900D01*
X21779200Y20978800D01*
X21780600Y20981500D01*
X21782400Y20984200D01*
X21784300Y20986300D01*
X21786500Y20988400D01*
X21789000Y20990200D01*
X21791700Y20991900D01*
X21794500Y20993300D01*
X21797400Y20994600D01*
X21801800Y20996100D01*
X21803500Y20996600D01*
X21806500Y20997400D01*
X21809500Y20997900D01*
X21812600Y20998400D01*
X21815700Y20998600D01*
X21818700Y20998700D01*
X21821900D01*
X21825000Y20998500D01*
X21828100Y20998100D01*
X21831200Y20997500D01*
X21834100Y20996700D01*
X21836500Y20995800D01*
X21839800Y20994300D01*
X21842600Y20992800D01*
X21845200Y20991300D01*
Y20998900D01*
X21853900D01*
X21861700Y20965300D01*
X21858800Y20962500D01*
X21856500Y20964300D01*
X21854100Y20966200D01*
X21851700Y20968000D01*
X21849200Y20969700D01*
X21846700Y20971300D01*
X21843900Y20972900D01*
X21841400Y20974100D01*
X21838600Y20975300D01*
X21835800Y20976300D01*
X21832900Y20977100D01*
X21829900Y20977900D01*
X21827000Y20978400D01*
X21825200Y20978700D01*
X21821100Y20979000D01*
X21818100Y20979100D01*
X21815100Y20979000D01*
X21812500Y20978700D01*
X21809000Y20978000D01*
X21806000Y20977000D01*
X21803500Y20975400D01*
X21802200Y20974100D01*
X21800100Y20970300D01*
X21799400Y20967200D01*
X21799500Y20964000D01*
X21800200Y20961500D01*
X21802100Y20958900D01*
X21804400Y20957000D01*
X21807200Y20955600D01*
X21810300Y20954500D01*
X21813200Y20953700D01*
X21816500Y20953000D01*
X21819600Y20952500D01*
X21822500Y20952100D01*
X21825400Y20951700D01*
X21828300Y20951300D01*
X21831300Y20950800D01*
X21834100Y20950300D01*
X21837000Y20949700D01*
X21839900Y20948900D01*
X21842800Y20948100D01*
X21845600Y20947300D01*
X21848600Y20946200D01*
X21851500Y20945200D01*
X21854300Y20943900D01*
X21856900Y20942500D01*
X21859400Y20940900D01*
X21861400Y20939200D01*
X21863700Y20936800D01*
X21865500Y20934300D01*
X21867000Y20931700D01*
X21868300Y20928900D01*
X21869300Y20926000D01*
X21870200Y20923000D01*
X21870700Y20920100D01*
X21871100Y20917100D01*
X21871200Y20914100D01*
X21871100Y20911100D01*
X21870800Y20908100D01*
X21870200Y20904900D01*
X21869500Y20902200D01*
X21868400Y20899300D01*
X21867200Y20896500D01*
X21865800Y20893800D01*
X21864200Y20891200D01*
X21862400Y20888800D01*
X21860100Y20886400D01*
X21858100Y20884600D01*
X21855700Y20882700D01*
X21853100Y20881100D01*
X21850400Y20879700D01*
X21847600Y20878400D01*
X21844600Y20877400D01*
X21841700Y20876500D01*
X21838600Y20875900D01*
X21835600Y20875400D01*
X21832500Y20875200D01*
X21829000Y20875100D01*
X21826400Y20875200D01*
X21823400Y20875500D01*
X21820400Y20875900D01*
X21817500Y20876500D01*
X21814600Y20877200D01*
X21811700Y20878100D01*
X21808900Y20879000D01*
X21806000Y20880000D01*
X21803200Y20881100D01*
X21800400Y20882200D01*
X21797500Y20883300D01*
X21794700Y20884500D01*
Y20880000D01*
X21784200D01*
G37*
G36*
G01X21122200Y21035000D02*
X21099400D01*
Y21102500D01*
X21005000D01*
Y20961400D01*
X20904800D01*
X20905600Y20957800D01*
X20906500Y20954300D01*
X20907400Y20950800D01*
X20908400Y20947400D01*
X20909600Y20944000D01*
X20910800Y20940800D01*
X20912300Y20937700D01*
X20914000Y20934800D01*
X20915900Y20932000D01*
X20917000Y20930700D01*
X20920500Y20927100D01*
X20923100Y20924800D01*
X20925900Y20922600D01*
X20928600Y20920500D01*
X20931400Y20918300D01*
X20934500Y20915800D01*
X20936700Y20913800D01*
X20939200Y20911300D01*
X20941600Y20908800D01*
X20943800Y20906100D01*
X20946000Y20903500D01*
X20948200Y20900700D01*
X20950300Y20898000D01*
X20951400Y20894400D01*
X20952400Y20890900D01*
X20953400Y20887300D01*
X20954500Y20883700D01*
X20955600Y20880200D01*
X20956700Y20876700D01*
X20958000Y20873200D01*
X20959200Y20869700D01*
X20960600Y20866300D01*
X20962100Y20862900D01*
X20964200Y20858400D01*
X20965400Y20856200D01*
X20967200Y20852900D01*
X20969300Y20849900D01*
X20971800Y20847000D01*
X20974700Y20844500D01*
X20977900Y20842500D01*
X20981600Y20841000D01*
X20985400Y20840100D01*
X20989100Y20840000D01*
X20991900Y20840600D01*
X20995800Y20842400D01*
X20998700Y20844700D01*
X21001400Y20847500D01*
X21003800Y20850500D01*
X21006300Y20853600D01*
X21008600Y20856600D01*
X21011100Y20859500D01*
X21013600Y20862100D01*
X21016400Y20864400D01*
X21019700Y20866300D01*
X21023000Y20867600D01*
X21027600Y20868300D01*
X21030400Y20868000D01*
X21034000Y20867000D01*
X21037400Y20865300D01*
X21041400Y20862300D01*
X21043400Y20860600D01*
X21045900Y20857800D01*
X21048200Y20854900D01*
X21050200Y20851800D01*
X21052100Y20848600D01*
X21053300Y20846500D01*
X21055700Y20842100D01*
X21057400Y20838800D01*
X21059100Y20835500D01*
X21060800Y20832200D01*
X21062400Y20828900D01*
X21063900Y20825500D01*
X21065200Y20822700D01*
X21067000Y20818800D01*
X21068500Y20815400D01*
X21070100Y20812000D01*
X21071600Y20808600D01*
X21073100Y20805300D01*
X21074700Y20801900D01*
X21077100Y20797000D01*
X21078000Y20795300D01*
X21079600Y20792000D01*
X21081400Y20788700D01*
X21083200Y20785500D01*
X21085200Y20782400D01*
X21087200Y20779200D01*
X21089200Y20776200D01*
X21091500Y20773100D01*
X21092900Y20771200D01*
X21096200Y20767300D01*
X21098800Y20764500D01*
X21101400Y20761800D01*
X21104200Y20759200D01*
X21107000Y20756700D01*
X21109900Y20754400D01*
X21112800Y20752200D01*
X21116700Y20749500D01*
X21118600Y20748300D01*
X21121600Y20746600D01*
X21124600Y20745000D01*
X21127800Y20743700D01*
X21131000Y20742600D01*
X21134400Y20741600D01*
X21138000Y20740800D01*
X21141700Y20740200D01*
X21145700Y20739800D01*
X21150000Y20739600D01*
X21156300Y20739500D01*
X21159400Y20739700D01*
X21164400Y20740000D01*
X21169200Y20740700D01*
X21173500Y20741700D01*
X21176900Y20743000D01*
X21179200Y20744800D01*
X21180100Y20747500D01*
X21179300Y20749900D01*
X21177200Y20753100D01*
X21174500Y20756500D01*
X21173100Y20766000D01*
X21171900Y20775400D01*
X21171300Y20784500D01*
X21171500Y20793200D01*
X21172500Y20800100D01*
X21175400Y20809100D01*
X21179300Y20816200D01*
X21184200Y20822700D01*
X21190100Y20828900D01*
X21196900Y20834600D01*
X21204400Y20839900D01*
X21212600Y20845000D01*
X21221400Y20849700D01*
X21230600Y20854300D01*
X21240100Y20858800D01*
X21249800Y20863100D01*
X21259600Y20867400D01*
X21277100D01*
Y20947500D01*
X21259300Y20965300D01*
Y21035000D01*
X21178100D01*
X21168200Y20982200D01*
X21192000D01*
X21186000Y20948600D01*
X21164200D01*
X21150900Y20878100D01*
X21168100Y20878200D01*
Y20849900D01*
G02X21160900Y20840700I-8030J-1133D01*
G01X21105400D01*
G02X21089000Y20853500I-1092J15508D01*
G01Y20861500D01*
X21104600Y20948600D01*
X21081400D01*
X21088600Y20982200D01*
X21113400D01*
X21122200Y21035000D01*
G37*
G36*
G01X21130600Y21040600D02*
X21139700Y21080400D01*
X21181300D01*
X21172200Y21040600D01*
X21130600D01*
G37*
G36*
G01Y21035000D02*
X21098900Y20878200D01*
X21140500D01*
X21172200Y21035000D01*
X21130600D01*
G37*
G36*
G01X21483500Y24560300D02*
X21122800D01*
X21006600Y24444100D01*
X21121500Y24329200D01*
X21483500D01*
Y24444700D01*
Y24560300D01*
G37*
G36*
G01X21535800Y25244300D02*
Y24883600D01*
X21765600D01*
Y25244300D01*
X21708200Y25301800D01*
X21650700Y25359200D01*
X21593300Y25301800D01*
X21535800Y25244300D01*
G37*
G36*
G01X21488600Y24317500D02*
X21127900D01*
X21011700Y24201300D01*
X21069200Y24143900D01*
X21126600Y24086400D01*
X21488600D01*
Y24202000D01*
Y24317500D01*
G37*
G36*
G01X21512300Y24885500D02*
Y25246200D01*
X21396100Y25362400D01*
X21281200Y25247500D01*
Y24885500D01*
X21396700D01*
X21512300D01*
G37*
G36*
G01X21267500Y24881400D02*
Y25242100D01*
X21151300Y25358300D01*
X21093900Y25300800D01*
X21036400Y25243400D01*
Y24881400D01*
X21152000D01*
X21267500D01*
G37*
G36*
G01X22459700Y20710100D02*
Y20702700D01*
X22419100D01*
Y20710100D01*
X22423600D01*
G03X22427500Y20713900I16J3884D01*
G01Y20804300D01*
G03X22423600Y20808200I-3893J7D01*
G01X22400500D01*
G03X22397800Y20807100I10J-3888D01*
G01X22387400Y20796800D01*
X22391200Y20821000D01*
X22487600D01*
X22491400Y20796800D01*
X22481000Y20807100D01*
G03X22478200Y20808200I-2715J-2796D01*
G01X22455200D01*
G03X22451300Y20804300I-20J-3880D01*
G01Y20713900D01*
G03X22455200Y20710100I3870J71D01*
G01X22459700D01*
G37*
G36*
G01X22239000Y20777700D02*
X22241900D01*
Y20748100D01*
X22239000D01*
X22235000Y20753200D01*
G03X22231900Y20754700I-3103J-2459D01*
G01X22191400D01*
Y20716400D01*
X22242400D01*
G03X22245300Y20717600I59J3961D01*
G01X22257600Y20730500D01*
X22261100D01*
X22252300Y20705200D01*
G02X22248600Y20702500I-3752J1256D01*
G01X22157900D01*
Y20706800D01*
X22169100Y20712600D01*
G03X22171200Y20716100I-1871J3502D01*
G01Y20804500D01*
G03X22169200Y20807900I-3954J-37D01*
G01X22157900Y20814600D01*
Y20821400D01*
X22243800D01*
G02X22247500Y20818900I7J-3977D01*
G01X22258200Y20792900D01*
X22252300Y20790500D01*
X22241800Y20802000D01*
G03X22238900Y20803300I-2944J-2682D01*
G01X22191400D01*
Y20772800D01*
X22232200D01*
G03X22235000Y20773900I67J3943D01*
G01X22239000Y20777700D01*
G37*
G36*
G01X22262700Y20711700D02*
X22270200D01*
G03X22274200Y20715700I38J3962D01*
G01Y20808700D01*
G03X22270200Y20812600I-3953J-53D01*
G01X22262200D01*
Y20821400D01*
X22298700D01*
G02X22301700Y20820000I-23J-3964D01*
G01X22358400Y20754300D01*
Y20807900D01*
G03X22354500Y20811800I-3941J-41D01*
G01X22344800D01*
Y20821400D01*
X22384700D01*
Y20811800D01*
X22376300D01*
G03X22372300Y20807900I-41J-3960D01*
G01Y20702700D01*
X22366200D01*
G02X22363200Y20704000I-76J3936D01*
G01X22294500Y20783500D01*
Y20715700D01*
G03X22298500Y20711700I3975J-25D01*
G01X22304400D01*
Y20702700D01*
X22262700D01*
Y20711700D01*
G37*
G36*
G01X22506500Y20704500D02*
X22496600Y20741100D01*
X22501200Y20742300D01*
X22503100Y20739600D01*
X22505000Y20737000D01*
X22507000Y20734500D01*
X22509100Y20732100D01*
X22511200Y20729800D01*
X22513400Y20727700D01*
X22515700Y20725700D01*
X22518200Y20724000D01*
X22520900Y20722500D01*
X22523600Y20721400D01*
X22526500Y20720500D01*
X22529600Y20719700D01*
X22533200Y20719000D01*
X22535800Y20718500D01*
X22539000Y20717900D01*
X22542100Y20717400D01*
X22545300Y20717100D01*
X22548400Y20717000D01*
X22551500Y20717100D01*
X22554600Y20717500D01*
X22557600Y20718300D01*
X22560800Y20719600D01*
X22563300Y20721100D01*
X22565800Y20723100D01*
X22568000Y20725500D01*
X22569800Y20729300D01*
X22570200Y20731200D01*
X22570100Y20734300D01*
X22569300Y20737500D01*
X22567900Y20740500D01*
X22565300Y20743900D01*
X22563700Y20745300D01*
X22561100Y20747000D01*
X22558300Y20748300D01*
X22555300Y20749300D01*
X22551000Y20750400D01*
X22549200Y20750700D01*
X22546100Y20751300D01*
X22543100Y20751800D01*
X22540000Y20752200D01*
X22537000Y20752600D01*
X22534000Y20753100D01*
X22530900Y20753600D01*
X22527900Y20754100D01*
X22524800Y20754700D01*
X22522900Y20755200D01*
X22518700Y20756400D01*
X22515700Y20757500D01*
X22512800Y20758700D01*
X22510000Y20760200D01*
X22507500Y20762000D01*
X22505400Y20764000D01*
X22503400Y20766400D01*
X22501900Y20769000D01*
X22500600Y20771800D01*
X22499700Y20774800D01*
X22499000Y20778000D01*
X22498500Y20781200D01*
X22498300Y20786000D01*
Y20787800D01*
X22498400Y20791000D01*
X22498800Y20794200D01*
X22499500Y20797400D01*
X22500400Y20800400D01*
X22501500Y20803200D01*
X22502900Y20805900D01*
X22504700Y20808600D01*
X22506600Y20810700D01*
X22508900Y20812800D01*
X22511400Y20814700D01*
X22514000Y20816300D01*
X22516800Y20817800D01*
X22519800Y20819100D01*
X22524200Y20820600D01*
X22525800Y20821100D01*
X22528800Y20821800D01*
X22531900Y20822400D01*
X22534900Y20822800D01*
X22538000Y20823100D01*
X22541000Y20823200D01*
X22544200Y20823100D01*
X22547300Y20822900D01*
X22550400Y20822600D01*
X22553500Y20821900D01*
X22556500Y20821100D01*
X22558800Y20820300D01*
X22562100Y20818800D01*
X22564900Y20817300D01*
X22567600Y20815700D01*
Y20823300D01*
X22576300D01*
X22584000Y20789800D01*
X22581200Y20786900D01*
X22578800Y20788800D01*
X22576400Y20790600D01*
X22574000Y20792400D01*
X22571500Y20794100D01*
X22569000Y20795700D01*
X22566300Y20797300D01*
X22563700Y20798500D01*
X22560900Y20799700D01*
X22558100Y20800700D01*
X22555200Y20801600D01*
X22552300Y20802300D01*
X22549300Y20802900D01*
X22547500Y20803100D01*
X22543400Y20803500D01*
X22540400D01*
X22537400Y20803400D01*
X22534800Y20803100D01*
X22531300Y20802400D01*
X22528400Y20801400D01*
X22525800Y20799900D01*
X22524500Y20798600D01*
X22522400Y20794800D01*
X22521700Y20791600D01*
X22521800Y20788500D01*
X22522600Y20786000D01*
X22524400Y20783300D01*
X22526800Y20781500D01*
X22529600Y20780000D01*
X22532600Y20779000D01*
X22535500Y20778200D01*
X22538900Y20777500D01*
X22541900Y20777000D01*
X22544800Y20776500D01*
X22547800Y20776200D01*
X22550600Y20775800D01*
X22553600Y20775300D01*
X22556400Y20774800D01*
X22559300Y20774100D01*
X22562200Y20773400D01*
X22565100Y20772600D01*
X22567900Y20771700D01*
X22571000Y20770700D01*
X22573800Y20769600D01*
X22576600Y20768400D01*
X22579300Y20766900D01*
X22581700Y20765300D01*
X22583800Y20763600D01*
X22586000Y20761200D01*
X22587800Y20758800D01*
X22589300Y20756200D01*
X22590600Y20753400D01*
X22591700Y20750500D01*
X22592500Y20747500D01*
X22593100Y20744500D01*
X22593400Y20741500D01*
X22593500Y20738500D01*
X22593400Y20735500D01*
X22593100Y20732500D01*
X22592500Y20729300D01*
X22591800Y20726600D01*
X22590800Y20723700D01*
X22589600Y20720900D01*
X22588100Y20718300D01*
X22586500Y20715700D01*
X22584700Y20713300D01*
X22582500Y20710900D01*
X22580400Y20709000D01*
X22578000Y20707200D01*
X22575400Y20705500D01*
X22572700Y20704100D01*
X22569900Y20702900D01*
X22567000Y20701800D01*
X22564000Y20701000D01*
X22561000Y20700300D01*
X22557900Y20699900D01*
X22554800Y20699600D01*
X22551400Y20699500D01*
X22548700Y20699700D01*
X22545700Y20699900D01*
X22542800Y20700400D01*
X22539800Y20701000D01*
X22536900Y20701700D01*
X22534000Y20702500D01*
X22531200Y20703400D01*
X22528300Y20704400D01*
X22525500Y20705500D01*
X22522700Y20706600D01*
X22519900Y20707800D01*
X22517000Y20708900D01*
Y20704500D01*
X22506500D01*
G37*
G36*
G01X25281150Y20040800D02*
Y20037260D01*
G03X25287480Y20030930I6329J-1D01*
G01X25314050D01*
X25318000Y19991250D01*
X25336370Y19972900D01*
X25330590Y20030940D01*
X25505500Y20031000D01*
X25503640Y20013460D01*
X25502280Y20012560D01*
X25500540Y20009950D01*
X25499930Y20006870D01*
X25499940Y20003410D01*
X25403100Y19906370D01*
X25414510Y19894960D01*
X25500220Y19980670D01*
X25483930Y19824700D01*
X25165240Y20143150D01*
G03X25156300Y20143160I-4475J-4480D01*
G01X25153100Y20139970D01*
G03X25153080Y20131010I4457J-4490D01*
G01X25481610Y19802430D01*
X25476790Y19756270D01*
G03X25453860Y19726350I7057J-29155D01*
G01X25468500D01*
G02X25468530Y19725850I15358J671D01*
G01X25360990Y19725840D01*
X25350520Y19830980D01*
X25401350Y19881790D01*
X25389790Y19893380D01*
X25348410Y19852030D01*
X25339260Y19943890D01*
X25320890Y19962270D01*
X25333370Y19837000D01*
X25153500Y19657260D01*
G03X25153660Y19648150I4479J-4478D01*
G01X25156450Y19645550D01*
G03X25165250Y19645700I4322J4631D01*
G01X25335480Y19815940D01*
X25345430Y19716050D01*
X25346650Y19713440D01*
X25347460Y19712290D01*
X25348790Y19711060D01*
Y19699620D01*
G03X25355120Y19693290I6330J0D01*
G01X25368190D01*
G03X25374520Y19699620I0J6330D01*
G01Y19709430D01*
X25459620D01*
G03X25492850Y19755730I24230J17685D01*
G01X25496210Y19787830D01*
X25638640Y19645370D01*
G03X25647610I4485J4474D01*
G01X25651030Y19648790D01*
G03Y19657740I-4478J4475D01*
G01X25498540Y19810100D01*
X25518370Y19998820D01*
X25528870Y19998840D01*
Y19982760D01*
X25517220D01*
X25515550Y19966680D01*
X25539900Y19966690D01*
G03X25544960Y19971760I-4J5064D01*
G01X25544930Y20009890D01*
G03X25539830Y20014950I-5060J0D01*
G01X25534450Y20014910D01*
X25650000Y20130460D01*
G03X25650030Y20139400I-4470J4485D01*
G01X25647490Y20141930D01*
G03X25638530Y20141940I-4485J-4460D01*
G01X25520960Y20024460D01*
X25521670Y20031020D01*
X25527250D01*
X25543620Y20047210D01*
X25543100D01*
G03X25507920Y20060870I-19048J3074D01*
G01X25501920Y20068790D01*
X25475050Y20088580D01*
X25460890Y20094080D01*
X25451620Y20097680D01*
Y20101510D01*
G03X25445290Y20107840I-6329J1D01*
G01X25418390D01*
Y20096700D01*
X25435700D01*
Y20090280D01*
X25400330D01*
Y20095990D01*
Y20096700D01*
X25417890D01*
Y20107840D01*
X25390500D01*
G03X25384170Y20101510I1J-6331D01*
G01Y20100380D01*
X25366480Y20094280D01*
Y20095140D01*
X25343970D01*
Y20082630D01*
X25329200Y20072740D01*
X25325830Y20070530D01*
X25323590Y20068000D01*
X25320830Y20064900D01*
X25313970Y20057160D01*
X25309370Y20051980D01*
X25307570Y20049960D01*
X25305640Y20047770D01*
X25327170Y20047780D01*
X25331470Y20052630D01*
X25336730Y20058550D01*
X25343970Y20063350D01*
Y20047790D01*
X25366480D01*
Y20077210D01*
X25385100Y20083680D01*
X25386520Y20081580D01*
X25389130Y20079830D01*
X25392000Y20079280D01*
X25444030D01*
X25446730Y20079830D01*
X25449140Y20081440D01*
X25460960Y20076820D01*
X25468010Y20074060D01*
X25490360Y20057380D01*
X25498030Y20047200D01*
X25287480Y20047130D01*
G03X25281150Y20040800I-3J-6327D01*
G37*
G36*
G01X25215000Y19545000D02*
X25615000D01*
Y19445000D01*
X25215000D01*
Y19545000D01*
G37*
G36*
G01X25385770Y19974720D02*
X25450090D01*
Y19958640D01*
X25385770D01*
Y19974720D01*
G37*
G36*
G01X25492080Y19727110D02*
G03X25475620I-8230J0D01*
G03X25492080I8230J0D01*
G37*
G36*
G01X25808600Y21767500D02*
X25447900D01*
X25331700Y21651300D01*
X25389200Y21593900D01*
X25446600Y21536400D01*
X25808600D01*
Y21652000D01*
Y21767500D01*
G37*
G36*
G01Y21517500D02*
X25447900D01*
X25331700Y21401300D01*
X25389200Y21343900D01*
X25446600Y21286400D01*
X25808600D01*
Y21402000D01*
Y21517500D01*
G37*
G36*
G01X25446900Y21023000D02*
X25807600D01*
Y21252800D01*
X25446900D01*
X25389400Y21195400D01*
X25332000Y21137900D01*
X25389400Y21080500D01*
X25446900Y21023000D01*
G37*
G36*
G01X25798600Y24557500D02*
X25437900D01*
X25321700Y24441300D01*
X25379200Y24383900D01*
X25436600Y24326400D01*
X25798600D01*
Y24442000D01*
Y24557500D01*
G37*
%LPC*%
G75*
G36*
G01X20157800Y21202900D02*
X20189900Y21202500D01*
X20222000Y21202200D01*
Y21183000D01*
X20198200Y21182700D01*
X20174400Y21182300D01*
X20172300Y21171000D01*
X20170600Y21161300D01*
X20170400Y21158300D01*
G03X20171100Y21157800I585J79D01*
G03X20172500Y21158400I-355J2763D01*
G01X20176500Y21161300D01*
X20181000Y21163300D01*
G02X20186100Y21164500I9093J-27209D01*
G01X20192000Y21164900D01*
X20199500Y21164500D01*
G02X20205600Y21163000I-3406J-27005D01*
G02X20211000Y21160200I-8792J-23563D01*
G02X20216400Y21155900I-24853J-36751D01*
G02X20221500Y21150000I-25151J-26895D01*
G02X20225100Y21143300I-26957J-18801D01*
G02X20227200Y21135700I-33929J-13465D01*
G02X20227900Y21126900I-55131J-8813D01*
G02X20225700Y21112600I-47491J-13D01*
G02X20219400Y21100600I-36257J11381D01*
G02X20209200Y21091500I-30212J23598D01*
G01X20195800Y21085900D01*
X20191100Y21084800D01*
X20187300Y21084400D01*
G02X20183500Y21084500I-1163J28038D01*
G01X20178300Y21085200D01*
X20164700Y21088900D01*
G02X20154200Y21095400I13776J33984D01*
G01X20146900Y21104600D01*
G02X20142900Y21116300I35429J18646D01*
G01X20142100Y21121100D01*
X20154300D01*
X20161300Y21121000D01*
G02X20164400Y21120700I-297J-19231D01*
G02X20165900Y21120000I-631J-3309D01*
G02X20166400Y21118900I-986J-1112D01*
G03X20167100Y21115800I7241J6D01*
G01X20169400Y21112100D01*
X20172300Y21108600D01*
X20175500Y21106400D01*
X20179900Y21104800D01*
X20185300Y21104400D01*
G03X20190500Y21105000I-386J26178D01*
G01X20194800Y21106600D01*
X20198500Y21109800D01*
X20201800Y21114700D01*
X20204000Y21120400D01*
X20204700Y21125800D01*
G03X20201600Y21137800I-24412J94D01*
G03X20193100Y21145800I-16887J-9427D01*
G01X20181600Y21147300D01*
G03X20170500Y21142100I4126J-23254D01*
G01X20168000Y21140400D01*
G02X20165600Y21139500I-4285J7776D01*
G01X20162400Y21139100D01*
X20156500Y21139000D01*
X20146300D01*
X20149300Y21155900D01*
X20150700Y21163500D01*
X20152200Y21172300D01*
X20153800Y21180900D01*
X20155000Y21187800D01*
X20157800Y21202900D01*
G37*
G36*
G01X20230500Y21204100D02*
X20257000D01*
X20265200Y21178200D01*
X20268700Y21167200D01*
X20272500Y21155500D01*
X20275900Y21144800D01*
X20278300Y21137300D01*
G03X20280300Y21131300I205064J65021D01*
G03X20282000Y21126900I68915J24098D01*
G01X20283400Y21123900D01*
G03X20284000I300J144D01*
G01X20284500Y21125200D01*
X20288300Y21136600D01*
X20292500Y21149700D01*
X20297400Y21164800D01*
X20309900Y21204100D01*
X20323100D01*
X20328100Y21204000D01*
X20332400Y21203800D01*
X20335900Y21203500D01*
G02X20336300Y21203100I5J-395D01*
G01X20336100Y21202400D01*
X20330600Y21185500D01*
X20324400Y21166600D01*
X20317000Y21144400D01*
X20297700Y21086500D01*
X20283100Y21086900D01*
X20268400Y21087300D01*
X20252500Y21135800D01*
X20246200Y21155100D01*
X20240400Y21173000D01*
X20235600Y21188000D01*
X20233600Y21194200D01*
X20230500Y21204100D01*
G37*
G36*
G01X20395600Y21551600D02*
X20060500D01*
Y21744400D01*
X20395700D01*
X20443300Y21696900D01*
G02X20461500Y21678600I-3551391J-3550184D01*
G01X20476800Y21662900D01*
X20490500Y21648900D01*
G02X20490800Y21648000I-987J-829D01*
G01X20490500Y21647100D01*
X20476800Y21633100D01*
G02X20461500Y21617500I-1868318J1817086D01*
G01X20395600Y21551600D01*
G37*
G36*
G01Y21301600D02*
X20060500D01*
Y21494400D01*
X20395700D01*
X20443300Y21446900D01*
G02X20461500Y21428600I-3551391J-3550184D01*
G01X20476800Y21412900D01*
X20490500Y21398900D01*
G02X20490800Y21398000I-987J-829D01*
G01X20490500Y21397100D01*
X20476800Y21383100D01*
G02X20461500Y21367500I-1868318J1817086D01*
G01X20395600Y21301600D01*
G37*
G36*
G01X20162300Y24509100D02*
X20171300Y24508700D01*
X20180400Y24507600D01*
X20186300Y24505800D01*
X20191900Y24502700D01*
X20197100Y24498700D01*
G02X20201400Y24494100I-26281J-28877D01*
G02X20204200Y24489500I-17334J-13704D01*
G01X20206600Y24480300D01*
X20205700Y24470400D01*
G02X20201900Y24461800I-27046J6811D01*
G02X20195800Y24456100I-14884J9815D01*
G01X20191000Y24453400D01*
X20195600Y24451900D01*
G02X20202800Y24447400I-5638J-17030D01*
G01X20208200Y24439500D01*
X20211000Y24429700D01*
G02X20210500Y24419700I-30736J-3476D01*
G02X20208800Y24413900I-40104J8606D01*
G01X20206400Y24408900D01*
X20202900Y24404400D01*
X20198200Y24399600D01*
X20184500Y24392000D01*
X20167600Y24389500D01*
G02X20150700Y24392500I869J53999D01*
G02X20137200Y24400600I12408J35980D01*
G02X20133400Y24405100I17094J18289D01*
G01X20130100Y24411000D01*
X20127700Y24417600D01*
G02X20126500Y24424000I33412J9577D01*
G01X20125800Y24431400D01*
X20147600D01*
X20148500Y24426700D01*
X20152100Y24417200D01*
X20158600Y24411000D01*
X20167000Y24408700D01*
G03X20176400Y24410700I-65J23395D01*
G01X20180800Y24413500D01*
G03X20184000Y24417100I-9110J11320D01*
G03X20185900Y24421700I-13109J8107D01*
G01X20186600Y24427300D01*
X20185500Y24434200D01*
X20182500Y24439000D01*
X20176900Y24442000D01*
G03X20168300Y24443700I-13756J-46985D01*
G01X20160600Y24444500D01*
Y24460800D01*
X20166400D01*
G03X20172000Y24461300I45J31107D01*
G01X20176800Y24462800D01*
X20180500Y24465300D01*
G03X20183000Y24468500I-7642J8547D01*
G03X20184500Y24475800I-12100J6290D01*
G03X20182000Y24483000I-14685J-1065D01*
G01X20176100Y24488300D01*
X20168300Y24490100D01*
X20162600Y24489200D01*
X20157700Y24486300D01*
G03X20153900Y24481800I11233J-13340D01*
G03X20151500Y24475900I19850J-11513D01*
G01X20149900Y24469700D01*
X20128400D01*
X20129200Y24475600D01*
G02X20132200Y24486400I41075J-5593D01*
G02X20138000Y24495800I34603J-14862D01*
G02X20146400Y24503200I29366J-24867D01*
G02X20156800Y24508200I24556J-37761D01*
G02X20162300Y24509100I5537J-16583D01*
G37*
G36*
G01X20213200Y24509300D02*
X20239700D01*
X20247500Y24484700D01*
X20250900Y24474100D01*
X20254600Y24462600D01*
X20258000Y24451800D01*
X20260500Y24443800D01*
X20262600Y24437600D01*
X20264500Y24432700D01*
G03X20266100Y24428900I126235J50915D01*
G03X20266600Y24428800I276J82D01*
G03X20267100Y24429900I-4502J2710D01*
G01X20270900Y24441400D01*
X20275200Y24454500D01*
G03X20280100Y24469700I-4412284J1430771D01*
G01X20292700Y24509300D01*
X20305800D01*
X20310900Y24509200D01*
X20315100Y24509000D01*
X20318600Y24508700D01*
G02X20319000Y24508300I8J-392D01*
G01X20318800Y24507600D01*
X20313300Y24490700D01*
X20307100Y24471800D01*
X20299700Y24449600D01*
X20280400Y24391700D01*
X20251000Y24392500D01*
X20237700Y24433300D01*
X20226700Y24467300D01*
X20221900Y24482300D01*
X20218900Y24491700D01*
X20213200Y24509300D01*
G37*
G36*
G01X20366500Y24508800D02*
G02X20375100Y24507800I-4083J-72590D01*
G01X20381600Y24505900D01*
X20390400Y24500700D01*
G02X20396800Y24494100I-17624J-23493D01*
G02X20400600Y24486200I-21697J-15300D01*
G02X20401900Y24477100I-30870J-9053D01*
G01X20401300Y24470200D01*
G02X20399300Y24464400I-22283J4439D01*
G01X20396000Y24459800D01*
X20391400Y24456300D01*
X20386700Y24453600D01*
X20391000Y24452000D01*
X20393000Y24451100D01*
X20395400Y24449500D01*
X20397800Y24447500D01*
X20399900Y24445500D01*
G02X20406300Y24432200I-19645J-17643D01*
G02X20405200Y24416500I-32638J-5602D01*
G02X20396700Y24402200I-35847J11632D01*
G02X20382900Y24392900I-27835J26415D01*
G02X20373900Y24390500I-14709J37082D01*
G02X20363200Y24389800I-9953J70009D01*
G02X20352700Y24390700I593J68624D01*
G01X20344500Y24393200D01*
X20341500Y24394700D01*
X20338300Y24396600D01*
X20335500Y24398400D01*
X20333400Y24400000D01*
G02X20329500Y24404300I13793J16428D01*
G01X20325900Y24410500D01*
X20323300Y24417500D01*
X20321900Y24424200D01*
X20321200Y24431400D01*
X20343000D01*
X20344500Y24424900D01*
G03X20348200Y24416600I24087J5763D01*
G01X20354500Y24411000D01*
X20362400Y24408800D01*
X20371000Y24410400D01*
G03X20376900Y24414200I-6755J16968D01*
G01X20380900Y24419900D01*
G03X20382400Y24426800I-16626J7227D01*
G03X20381200Y24433900I-20113J252D01*
G03X20379000Y24437700I-11248J-3975D01*
G03X20375500Y24440600I-10211J-8761D01*
G03X20370500Y24442600I-9812J-17279D01*
G01X20363900Y24443700D01*
X20356000Y24444500D01*
Y24460800D01*
X20361800D01*
X20369400Y24461700D01*
G03X20375200Y24464500I-4197J16100D01*
G03X20378900Y24468900I-7404J9982D01*
G01X20380200Y24474600D01*
X20378000Y24482500D01*
G03X20371700Y24488200I-13588J-8686D01*
G03X20363300Y24490100I-7846J-15171D01*
G03X20355000Y24487600I617J-17078D01*
G03X20352200Y24485300I7091J-11487D01*
G03X20349700Y24482000I13852J-13091D01*
G03X20347800Y24478000I20355J-12120D01*
G01X20346500Y24473200D01*
G02X20345700Y24471100I-7097J1501D01*
G01X20344400Y24470200D01*
X20342000Y24469800D01*
X20334800Y24469700D01*
X20323800D01*
X20324700Y24475600D01*
X20327700Y24486600D01*
X20333300Y24495700D01*
G02X20341200Y24502700I27029J-22547D01*
G02X20351300Y24507500I23564J-36557D01*
G01X20366500Y24508800D01*
G37*
G36*
G01X21197800Y24502900D02*
X21229900Y24502500D01*
X21262000Y24502200D01*
Y24483000D01*
X21238200Y24482700D01*
X21214400Y24482300D01*
X21212300Y24471000D01*
X21210600Y24461300D01*
X21210400Y24458300D01*
G03X21211100Y24457800I585J79D01*
G03X21212500Y24458400I-355J2763D01*
G01X21216500Y24461300D01*
X21221000Y24463300D01*
G02X21226100Y24464500I9093J-27209D01*
G01X21232000Y24464900D01*
X21239500Y24464500D01*
G02X21245600Y24463000I-3406J-27005D01*
G02X21251000Y24460200I-8792J-23563D01*
G02X21256400Y24455900I-24853J-36751D01*
G02X21261500Y24450000I-25151J-26895D01*
G02X21265100Y24443300I-26957J-18801D01*
G02X21267200Y24435700I-33929J-13465D01*
G02X21267900Y24426900I-55131J-8813D01*
G02X21265700Y24412600I-47491J-13D01*
G02X21259400Y24400600I-36257J11381D01*
G02X21249200Y24391500I-30212J23598D01*
G01X21235800Y24385900D01*
X21231100Y24384800D01*
X21227300Y24384400D01*
G02X21223500Y24384500I-1163J28038D01*
G01X21218300Y24385200D01*
X21204700Y24388900D01*
G02X21194200Y24395400I13776J33984D01*
G01X21186900Y24404600D01*
G02X21182900Y24416300I35429J18646D01*
G01X21182100Y24421100D01*
X21194300D01*
X21201300Y24421000D01*
G02X21204400Y24420700I-297J-19231D01*
G02X21205900Y24420000I-631J-3309D01*
G02X21206400Y24418900I-986J-1112D01*
G03X21207100Y24415800I7241J6D01*
G01X21209400Y24412100D01*
X21212300Y24408600D01*
X21215500Y24406400D01*
X21219900Y24404800D01*
X21225300Y24404400D01*
G03X21230500Y24405000I-386J26178D01*
G01X21234800Y24406600D01*
X21238500Y24409800D01*
X21241800Y24414700D01*
X21244000Y24420400D01*
X21244700Y24425800D01*
G03X21241600Y24437800I-24412J94D01*
G03X21233100Y24445800I-16887J-9427D01*
G01X21221600Y24447300D01*
G03X21210500Y24442100I4126J-23254D01*
G01X21208000Y24440400D01*
G02X21205600Y24439500I-4285J7776D01*
G01X21202400Y24439100D01*
X21196500Y24439000D01*
X21186300D01*
X21189300Y24455900D01*
X21190700Y24463500D01*
X21192200Y24472300D01*
X21193800Y24480900D01*
X21195000Y24487800D01*
X21197800Y24502900D01*
G37*
G36*
G01X21270500Y24504100D02*
X21297000D01*
X21305200Y24478200D01*
X21308700Y24467200D01*
X21312500Y24455500D01*
X21315900Y24444800D01*
X21318300Y24437300D01*
G03X21320300Y24431300I205064J65021D01*
G03X21322000Y24426900I68915J24098D01*
G01X21323400Y24423900D01*
G03X21324000I300J144D01*
G01X21324500Y24425200D01*
X21328300Y24436600D01*
X21332500Y24449700D01*
X21337400Y24464800D01*
X21349900Y24504100D01*
X21363100D01*
X21368100Y24504000D01*
X21372400Y24503800D01*
X21375900Y24503500D01*
G02X21376300Y24503100I5J-395D01*
G01X21376100Y24502400D01*
X21370600Y24485500D01*
X21364400Y24466600D01*
X21357000Y24444400D01*
X21337700Y24386500D01*
X21323100Y24386900D01*
X21308400Y24387300D01*
X21292500Y24435800D01*
X21286200Y24455100D01*
X21280400Y24473000D01*
X21275600Y24488000D01*
X21273600Y24494200D01*
X21270500Y24504100D01*
G37*
G36*
G01X21591200Y25186500D02*
G02X21592200Y25195100I72590J-4083D01*
G01X21594100Y25201600D01*
X21599300Y25210400D01*
G02X21605900Y25216800I23493J-17624D01*
G02X21613800Y25220600I15300J-21697D01*
G02X21622900Y25221900I9053J-30870D01*
G01X21629800Y25221300D01*
G02X21635600Y25219300I-4439J-22283D01*
G01X21640200Y25216000D01*
X21643700Y25211400D01*
X21646400Y25206700D01*
X21648000Y25211000D01*
X21648900Y25213000D01*
X21650500Y25215400D01*
X21652500Y25217800D01*
X21654500Y25219900D01*
G02X21667800Y25226300I17643J-19645D01*
G02X21683500Y25225200I5602J-32638D01*
G02X21697800Y25216700I-11632J-35847D01*
G02X21707100Y25202900I-26415J-27835D01*
G02X21709500Y25193900I-37082J-14709D01*
G02X21710200Y25183200I-70009J-9953D01*
G02X21709300Y25172700I-68624J593D01*
G01X21706800Y25164500D01*
X21705300Y25161500D01*
X21703400Y25158300D01*
X21701600Y25155500D01*
X21700000Y25153400D01*
G02X21695700Y25149500I-16428J13793D01*
G01X21689500Y25145900D01*
X21682500Y25143300D01*
X21675800Y25141900D01*
X21668600Y25141200D01*
Y25163000D01*
X21675100Y25164500D01*
G03X21683400Y25168200I-5763J24087D01*
G01X21689000Y25174500D01*
X21691200Y25182400D01*
X21689600Y25191000D01*
G03X21685800Y25196900I-16968J-6755D01*
G01X21680100Y25200900D01*
G03X21673200Y25202400I-7227J-16626D01*
G03X21666100Y25201200I-252J-20113D01*
G03X21662300Y25199000I3975J-11248D01*
G03X21659400Y25195500I8761J-10211D01*
G03X21657400Y25190500I17279J-9812D01*
G01X21656300Y25183900D01*
X21655500Y25176000D01*
X21639200D01*
Y25181800D01*
X21638300Y25189400D01*
G03X21635500Y25195200I-16100J-4197D01*
G03X21631100Y25198900I-9982J-7404D01*
G01X21625400Y25200200D01*
X21617500Y25198000D01*
G03X21611800Y25191700I8686J-13588D01*
G03X21609900Y25183300I15171J-7846D01*
G03X21612400Y25175000I17078J617D01*
G03X21614700Y25172200I11487J7091D01*
G03X21618000Y25169700I13091J13852D01*
G03X21622000Y25167800I12120J20355D01*
G01X21626800Y25166500D01*
G02X21628900Y25165700I-1501J-7097D01*
G01X21629800Y25164400D01*
X21630200Y25162000D01*
X21630300Y25154800D01*
Y25143800D01*
X21624400Y25144700D01*
X21613400Y25147700D01*
X21604300Y25153300D01*
G02X21597300Y25161200I22547J27029D01*
G02X21592500Y25171300I36557J23564D01*
G01X21591200Y25186500D01*
G37*
G36*
G01X21590700Y25033200D02*
Y25059700D01*
X21615300Y25067500D01*
X21625900Y25070900D01*
X21637400Y25074600D01*
X21648200Y25078000D01*
X21656200Y25080500D01*
X21662400Y25082600D01*
X21667300Y25084500D01*
G03X21671100Y25086100I-50915J126235D01*
G03X21671200Y25086600I-82J276D01*
G03X21670100Y25087100I-2710J-4502D01*
G01X21658600Y25090900D01*
X21645500Y25095200D01*
G03X21630300Y25100100I-1430771J-4412284D01*
G01X21590700Y25112700D01*
Y25125800D01*
X21590800Y25130900D01*
X21591000Y25135100D01*
X21591300Y25138600D01*
G02X21591700Y25139000I392J8D01*
G01X21592400Y25138800D01*
X21609300Y25133300D01*
X21628200Y25127100D01*
X21650400Y25119700D01*
X21708300Y25100400D01*
X21707500Y25071000D01*
X21666700Y25057700D01*
X21632700Y25046700D01*
X21617700Y25041900D01*
X21608300Y25038900D01*
X21590700Y25033200D01*
G37*
G36*
G01X21590900Y24982300D02*
X21591300Y24991300D01*
X21592400Y25000400D01*
X21594200Y25006300D01*
X21597300Y25011900D01*
X21601300Y25017100D01*
G02X21605900Y25021400I28877J-26281D01*
G02X21610500Y25024200I13704J-17334D01*
G01X21619700Y25026600D01*
X21629600Y25025700D01*
G02X21638200Y25021900I-6811J-27046D01*
G02X21643900Y25015800I-9815J-14884D01*
G01X21646600Y25011000D01*
X21648100Y25015600D01*
G02X21652600Y25022800I17030J-5638D01*
G01X21660500Y25028200D01*
X21670300Y25031000D01*
G02X21680300Y25030500I3476J-30736D01*
G02X21686100Y25028800I-8606J-40104D01*
G01X21691100Y25026400D01*
X21695600Y25022900D01*
X21700400Y25018200D01*
X21708000Y25004500D01*
X21710500Y24987600D01*
G02X21707500Y24970700I-53999J869D01*
G02X21699400Y24957200I-35980J12408D01*
G02X21694900Y24953400I-18289J17094D01*
G01X21689000Y24950100D01*
X21682400Y24947700D01*
G02X21676000Y24946500I-9577J33412D01*
G01X21668600Y24945800D01*
Y24967600D01*
X21673300Y24968500D01*
X21682800Y24972100D01*
X21689000Y24978600D01*
X21691300Y24987000D01*
G03X21689300Y24996400I-23395J-65D01*
G01X21686500Y25000800D01*
G03X21682900Y25004000I-11320J-9110D01*
G03X21678300Y25005900I-8107J-13109D01*
G01X21672700Y25006600D01*
X21665800Y25005500D01*
X21661000Y25002500D01*
X21658000Y24996900D01*
G03X21656300Y24988300I46985J-13756D01*
G01X21655500Y24980600D01*
X21639200D01*
Y24986400D01*
G03X21638700Y24992000I-31107J45D01*
G01X21637200Y24996800D01*
X21634700Y25000500D01*
G03X21631500Y25003000I-8547J-7642D01*
G03X21624200Y25004500I-6290J-12100D01*
G03X21617000Y25002000I1065J-14685D01*
G01X21611700Y24996100D01*
X21609900Y24988300D01*
X21610800Y24982600D01*
X21613700Y24977700D01*
G03X21618200Y24973900I13340J11233D01*
G03X21624100Y24971500I11513J19850D01*
G01X21630300Y24969900D01*
Y24948400D01*
X21624400Y24949200D01*
G02X21613600Y24952200I5593J41075D01*
G02X21604200Y24958000I14862J34603D01*
G02X21596800Y24966400I24867J29366D01*
G02X21591800Y24976800I37761J24556D01*
G02X21590900Y24982300I16583J5537D01*
G37*
G36*
G01X21134400Y24298400D02*
X21469500D01*
Y24105600D01*
X21134300D01*
X21086700Y24153100D01*
G02X21068500Y24171400I3551391J3550184D01*
G01X21053200Y24187100D01*
X21039500Y24201100D01*
G02X21039200Y24202000I987J829D01*
G01X21039500Y24202900D01*
X21053200Y24216900D01*
G02X21068500Y24232500I1868318J-1817086D01*
G01X21134400Y24298400D01*
G37*
G36*
G01X21335900Y25070500D02*
Y25097000D01*
X21361800Y25105200D01*
X21372800Y25108700D01*
X21384500Y25112500D01*
X21395200Y25115900D01*
X21402700Y25118300D01*
G03X21408700Y25120300I-65021J205064D01*
G03X21413100Y25122000I-24098J68915D01*
G01X21416100Y25123400D01*
G03Y25124000I-144J300D01*
G01X21414800Y25124500D01*
X21403400Y25128300D01*
X21390300Y25132500D01*
X21375200Y25137400D01*
X21335900Y25149900D01*
Y25163100D01*
X21336000Y25168100D01*
X21336200Y25172400D01*
X21336500Y25175900D01*
G02X21336900Y25176300I395J5D01*
G01X21337600Y25176100D01*
X21354500Y25170600D01*
X21373400Y25164400D01*
X21395600Y25157000D01*
X21453500Y25137700D01*
X21453100Y25123100D01*
X21452700Y25108400D01*
X21404200Y25092500D01*
X21384900Y25086200D01*
X21367000Y25080400D01*
X21352000Y25075600D01*
X21345800Y25073600D01*
X21335900Y25070500D01*
G37*
G36*
G01X21337100Y24997800D02*
X21337500Y25029900D01*
X21337800Y25062000D01*
X21357000D01*
X21357300Y25038200D01*
X21357700Y25014400D01*
X21369000Y25012300D01*
X21378700Y25010600D01*
X21381700Y25010400D01*
G03X21382200Y25011100I-79J585D01*
G03X21381600Y25012500I-2763J-355D01*
G01X21378700Y25016500D01*
X21376700Y25021000D01*
G02X21375500Y25026100I27209J9093D01*
G01X21375100Y25032000D01*
X21375500Y25039500D01*
G02X21377000Y25045600I27005J-3406D01*
G02X21379800Y25051000I23563J-8792D01*
G02X21384100Y25056400I36751J-24853D01*
G02X21390000Y25061500I26895J-25151D01*
G02X21396700Y25065100I18801J-26957D01*
G02X21404300Y25067200I13465J-33929D01*
G02X21413100Y25067900I8813J-55131D01*
G02X21427400Y25065700I13J-47491D01*
G02X21439400Y25059400I-11381J-36257D01*
G02X21448500Y25049200I-23598J-30212D01*
G01X21454100Y25035800D01*
X21455200Y25031100D01*
X21455600Y25027300D01*
G02X21455500Y25023500I-28038J-1163D01*
G01X21454800Y25018300D01*
X21451100Y25004700D01*
G02X21444600Y24994200I-33984J13776D01*
G01X21435400Y24986900D01*
G02X21423700Y24982900I-18646J35429D01*
G01X21418900Y24982100D01*
Y24994300D01*
X21419000Y25001300D01*
G02X21419300Y25004400I19231J-297D01*
G02X21420000Y25005900I3309J-631D01*
G02X21421100Y25006400I1112J-986D01*
G03X21424200Y25007100I-6J7241D01*
G01X21427900Y25009400D01*
X21431400Y25012300D01*
X21433600Y25015500D01*
X21435200Y25019900D01*
X21435600Y25025300D01*
G03X21435000Y25030500I-26178J-386D01*
G01X21433400Y25034800D01*
X21430200Y25038500D01*
X21425300Y25041800D01*
X21419600Y25044000D01*
X21414200Y25044700D01*
G03X21402200Y25041600I-94J-24412D01*
G03X21394200Y25033100I9427J-16887D01*
G01X21392700Y25021600D01*
G03X21397900Y25010500I23254J4126D01*
G01X21399600Y25008000D01*
G02X21400500Y25005600I-7776J-4285D01*
G01X21400900Y25002400D01*
X21401000Y24996500D01*
Y24986300D01*
X21384100Y24989300D01*
X21376500Y24990700D01*
X21367700Y24992200D01*
X21359100Y24993800D01*
X21352200Y24995000D01*
X21337100Y24997800D01*
G37*
G36*
G01X21248400Y25235600D02*
Y24900500D01*
X21055600D01*
Y25235700D01*
X21103100Y25283300D01*
G02X21121400Y25301500I3550184J-3551391D01*
G01X21137100Y25316800D01*
X21151100Y25330500D01*
G02X21152000Y25330800I829J-987D01*
G01X21152900Y25330500D01*
X21166900Y25316800D01*
G02X21182500Y25301500I-1817086J-1868318D01*
G01X21248400Y25235600D01*
G37*
G36*
G01X25454400Y21748400D02*
X25789500D01*
Y21555600D01*
X25454300D01*
X25406700Y21603100D01*
G02X25388500Y21621400I3551391J3550184D01*
G01X25373200Y21637100D01*
X25359500Y21651100D01*
G02X25359200Y21652000I987J829D01*
G01X25359500Y21652900D01*
X25373200Y21666900D01*
G02X25388500Y21682500I1868318J-1817086D01*
G01X25454400Y21748400D01*
G37*
G36*
G01Y21498400D02*
X25789500D01*
Y21305600D01*
X25454300D01*
X25406700Y21353100D01*
G02X25388500Y21371400I3551391J3550184D01*
G01X25373200Y21387100D01*
X25359500Y21401100D01*
G02X25359200Y21402000I987J829D01*
G01X25359500Y21402900D01*
X25373200Y21416900D01*
G02X25388500Y21432500I1868318J-1817086D01*
G01X25454400Y21498400D01*
G37*
G36*
G01X25535100Y21186900D02*
X25544100Y21186500D01*
X25553200Y21185400D01*
X25559100Y21183600D01*
X25564700Y21180500D01*
X25569900Y21176500D01*
G02X25574200Y21171900I-26281J-28877D01*
G02X25577000Y21167300I-17334J-13704D01*
G01X25579400Y21158100D01*
X25578500Y21148200D01*
G02X25574700Y21139600I-27046J6811D01*
G02X25568600Y21133900I-14884J9815D01*
G01X25563800Y21131200D01*
X25568400Y21129700D01*
G02X25575600Y21125200I-5638J-17030D01*
G01X25581000Y21117300D01*
X25583800Y21107500D01*
G02X25583300Y21097500I-30736J-3476D01*
G02X25581600Y21091700I-40104J8606D01*
G01X25579200Y21086700D01*
X25575700Y21082200D01*
X25571000Y21077400D01*
X25557300Y21069800D01*
X25540400Y21067300D01*
G02X25523500Y21070300I869J53999D01*
G02X25510000Y21078400I12408J35980D01*
G02X25506200Y21082900I17094J18289D01*
G01X25502900Y21088800D01*
X25500500Y21095400D01*
G02X25499300Y21101800I33412J9577D01*
G01X25498600Y21109200D01*
X25520400D01*
X25521300Y21104500D01*
X25524900Y21095000D01*
X25531400Y21088800D01*
X25539800Y21086500D01*
G03X25549200Y21088500I-65J23395D01*
G01X25553600Y21091300D01*
G03X25556800Y21094900I-9110J11320D01*
G03X25558700Y21099500I-13109J8107D01*
G01X25559400Y21105100D01*
X25558300Y21112000D01*
X25555300Y21116800D01*
X25549700Y21119800D01*
G03X25541100Y21121500I-13756J-46985D01*
G01X25533400Y21122300D01*
Y21138600D01*
X25539200D01*
G03X25544800Y21139100I45J31107D01*
G01X25549600Y21140600D01*
X25553300Y21143100D01*
G03X25555800Y21146300I-7642J8547D01*
G03X25557300Y21153600I-12100J6290D01*
G03X25554800Y21160800I-14685J-1065D01*
G01X25548900Y21166100D01*
X25541100Y21167900D01*
X25535400Y21167000D01*
X25530500Y21164100D01*
G03X25526700Y21159600I11233J-13340D01*
G03X25524300Y21153700I19850J-11513D01*
G01X25522700Y21147500D01*
X25501200D01*
X25502000Y21153400D01*
G02X25505000Y21164200I41075J-5593D01*
G02X25510800Y21173600I34603J-14862D01*
G02X25519200Y21181000I29366J-24867D01*
G02X25529600Y21186000I24556J-37761D01*
G02X25535100Y21186900I5537J-16583D01*
G37*
G36*
G01X25586000Y21187100D02*
X25612500D01*
X25620300Y21162500D01*
X25623700Y21151900D01*
X25627400Y21140400D01*
X25630800Y21129600D01*
X25633300Y21121600D01*
X25635400Y21115400D01*
X25637300Y21110500D01*
G03X25638900Y21106700I126235J50915D01*
G03X25639400Y21106600I276J82D01*
G03X25639900Y21107700I-4502J2710D01*
G01X25643700Y21119200D01*
X25648000Y21132300D01*
G03X25652900Y21147500I-4412284J1430771D01*
G01X25665500Y21187100D01*
X25678600D01*
X25683700Y21187000D01*
X25687900Y21186800D01*
X25691400Y21186500D01*
G02X25691800Y21186100I8J-392D01*
G01X25691600Y21185400D01*
X25686100Y21168500D01*
X25679900Y21149600D01*
X25672500Y21127400D01*
X25653200Y21069500D01*
X25623800Y21070300D01*
X25610500Y21111100D01*
X25599500Y21145100D01*
X25594700Y21160100D01*
X25591700Y21169500D01*
X25586000Y21187100D01*
G37*
G36*
G01X25739300Y21186600D02*
G02X25747900Y21185600I-4083J-72590D01*
G01X25754400Y21183700D01*
X25763200Y21178500D01*
G02X25769600Y21171900I-17624J-23493D01*
G02X25773400Y21164000I-21697J-15300D01*
G02X25774700Y21154900I-30870J-9053D01*
G01X25774100Y21148000D01*
G02X25772100Y21142200I-22283J4439D01*
G01X25768800Y21137600D01*
X25764200Y21134100D01*
X25759500Y21131400D01*
X25763800Y21129800D01*
X25765800Y21128900D01*
X25768200Y21127300D01*
X25770600Y21125300D01*
X25772700Y21123300D01*
G02X25779100Y21110000I-19645J-17643D01*
G02X25778000Y21094300I-32638J-5602D01*
G02X25769500Y21080000I-35847J11632D01*
G02X25755700Y21070700I-27835J26415D01*
G02X25746700Y21068300I-14709J37082D01*
G02X25736000Y21067600I-9953J70009D01*
G02X25725500Y21068500I593J68624D01*
G01X25717300Y21071000D01*
X25714300Y21072500D01*
X25711100Y21074400D01*
X25708300Y21076200D01*
X25706200Y21077800D01*
G02X25702300Y21082100I13793J16428D01*
G01X25698700Y21088300D01*
X25696100Y21095300D01*
X25694700Y21102000D01*
X25694000Y21109200D01*
X25715800D01*
X25717300Y21102700D01*
G03X25721000Y21094400I24087J5763D01*
G01X25727300Y21088800D01*
X25735200Y21086600D01*
X25743800Y21088200D01*
G03X25749700Y21092000I-6755J16968D01*
G01X25753700Y21097700D01*
G03X25755200Y21104600I-16626J7227D01*
G03X25754000Y21111700I-20113J252D01*
G03X25751800Y21115500I-11248J-3975D01*
G03X25748300Y21118400I-10211J-8761D01*
G03X25743300Y21120400I-9812J-17279D01*
G01X25736700Y21121500D01*
X25728800Y21122300D01*
Y21138600D01*
X25734600D01*
X25742200Y21139500D01*
G03X25748000Y21142300I-4197J16100D01*
G03X25751700Y21146700I-7404J9982D01*
G01X25753000Y21152400D01*
X25750800Y21160300D01*
G03X25744500Y21166000I-13588J-8686D01*
G03X25736100Y21167900I-7846J-15171D01*
G03X25727800Y21165400I617J-17078D01*
G03X25725000Y21163100I7091J-11487D01*
G03X25722500Y21159800I13852J-13091D01*
G03X25720600Y21155800I20355J-12120D01*
G01X25719300Y21151000D01*
G02X25718500Y21148900I-7097J1501D01*
G01X25717200Y21148000D01*
X25714800Y21147600D01*
X25707600Y21147500D01*
X25696600D01*
X25697500Y21153400D01*
X25700500Y21164400D01*
X25706100Y21173500D01*
G02X25714000Y21180500I27029J-22547D01*
G02X25724100Y21185300I23564J-36557D01*
G01X25739300Y21186600D01*
G37*
G36*
G01X25444400Y24538400D02*
X25779500D01*
Y24345600D01*
X25444300D01*
X25396700Y24393100D01*
G02X25378500Y24411400I3551391J3550184D01*
G01X25363200Y24427100D01*
X25349500Y24441100D01*
G02X25349200Y24442000I987J829D01*
G01X25349500Y24442900D01*
X25363200Y24456900D01*
G02X25378500Y24472500I1868318J-1817086D01*
G01X25444400Y24538400D01*
G37*
%LPD*%
G75*
G36*
G01X20377200Y21705200D02*
X20369500Y21705600D01*
X20349100Y21706000D01*
X20318200Y21706400D01*
Y21596200D01*
X20348500Y21596600D01*
X20368400Y21597000D01*
X20376000Y21597500D01*
X20381100Y21598600D01*
X20386800Y21600700D01*
G03X20397100Y21607300I-18814J40698D01*
G01X20405200Y21616500D01*
X20411000Y21628100D01*
X20414200Y21641800D01*
X20414500Y21661400D01*
X20409800Y21678700D01*
X20400700Y21692600D01*
G03X20387800Y21702000I-30877J-28822D01*
G01X20377200Y21705200D01*
G37*
G36*
G01X20229200Y21705600D02*
X20216900Y21705900D01*
X20204500Y21706300D01*
Y21596400D01*
X20227500D01*
X20227800Y21632800D01*
X20228200Y21669100D01*
X20250500Y21632800D01*
X20272800Y21596400D01*
X20285000Y21596700D01*
X20297100Y21597100D01*
X20297400Y21651600D01*
X20297800Y21706200D01*
X20274800D01*
X20274500Y21669500D01*
X20274100Y21632900D01*
X20251700Y21669200D01*
X20229200Y21705600D01*
G37*
G36*
G01X20137400Y21708700D02*
X20128100Y21708400D01*
G03X20120600Y21706900I3160J-35301D01*
G03X20111500Y21702900I13272J-42546D01*
G01X20102700Y21696600D01*
G03X20095200Y21688900I38705J-45202D01*
G01X20089800Y21680500D01*
G03X20087400Y21674400I39086J-18900D01*
G01X20085300Y21666300D01*
X20083800Y21658100D01*
G03X20083300Y21651300I46142J-6811D01*
G03X20085300Y21635500I63461J6D01*
G03X20091100Y21620800I61479J15763D01*
G01X20100100Y21608500D01*
G03X20111300Y21600200I29984J28754D01*
G01X20125300Y21595200D01*
X20139100Y21594200D01*
X20151800Y21597200D01*
G03X20162900Y21604100I-15515J37337D01*
G01X20167300Y21608000D01*
X20168400Y21602500D01*
X20169500Y21597100D01*
X20177400Y21596700D01*
X20185400Y21596300D01*
Y21656400D01*
X20139400D01*
Y21638500D01*
X20155100D01*
X20158900Y21638300D01*
X20162100Y21638100D01*
G02X20162700Y21637800I-141J-1032D01*
G02X20163200Y21635800I-1389J-1410D01*
G01X20161500Y21630600D01*
X20159000Y21625300D01*
G02X20156500Y21621800I-13849J7250D01*
G02X20149800Y21617100I-15230J14586D01*
G02X20141200Y21614700I-12474J28091D01*
G01X20131900Y21614900D01*
G02X20123300Y21617700I4472J28343D01*
G01X20118600Y21621100D01*
X20114300Y21626400D01*
X20110800Y21632800D01*
G02X20108700Y21639500I32656J13915D01*
G02X20107600Y21650700I51067J10670D01*
G02X20108800Y21662400I63779J-630D01*
G01X20112000Y21672900D01*
G02X20116800Y21680500I23605J-9593D01*
G02X20122800Y21684900I14361J-13292D01*
G01X20131100Y21687700D01*
X20139900Y21688300D01*
G02X20147500Y21686600I-1073J-22634D01*
G02X20151100Y21684500I-5857J-14175D01*
G01X20154800Y21681000D01*
G02X20157800Y21677100I-22355J-20300D01*
G02X20159300Y21673600I-10006J-6360D01*
G03X20160200Y21671800I4617J1184D01*
G03X20161600Y21670900I2001J1574D01*
G01X20164300Y21670500D01*
X20171500D01*
G03X20180000Y21670700I-170J187931D01*
G03X20182300Y21671800I-146J3260D01*
G03X20182900Y21674200I-1995J1774D01*
G01X20180700Y21681400D01*
G03X20176900Y21688700I-25645J-8710D01*
G03X20170500Y21696000I-43425J-31616D01*
G01X20162700Y21702100D01*
X20154800Y21706000D01*
G03X20137400Y21708700I-21320J-79977D01*
G37*
G36*
G01Y21458700D02*
X20128100Y21458400D01*
G03X20120600Y21456900I3160J-35301D01*
G03X20111500Y21452900I13272J-42546D01*
G01X20102700Y21446600D01*
G03X20095200Y21438900I38705J-45202D01*
G01X20089800Y21430500D01*
G03X20087400Y21424400I39086J-18900D01*
G01X20085300Y21416300D01*
X20083800Y21408100D01*
G03X20083300Y21401300I46142J-6811D01*
G03X20085300Y21385500I63461J6D01*
G03X20091100Y21370800I61479J15763D01*
G01X20100100Y21358500D01*
G03X20111300Y21350200I29984J28754D01*
G01X20125300Y21345200D01*
X20139100Y21344200D01*
X20151800Y21347200D01*
G03X20162900Y21354100I-15515J37337D01*
G01X20167300Y21358000D01*
X20168400Y21352500D01*
X20169500Y21347100D01*
X20177400Y21346700D01*
X20185400Y21346300D01*
Y21406400D01*
X20139400D01*
Y21388500D01*
X20155100D01*
X20158900Y21388300D01*
X20162100Y21388100D01*
G02X20162700Y21387800I-141J-1032D01*
G02X20163200Y21385800I-1389J-1410D01*
G01X20161500Y21380600D01*
X20159000Y21375300D01*
G02X20156500Y21371800I-13849J7250D01*
G02X20149800Y21367100I-15230J14586D01*
G02X20141200Y21364700I-12474J28091D01*
G01X20131900Y21364900D01*
G02X20123300Y21367700I4472J28343D01*
G01X20118600Y21371100D01*
X20114300Y21376400D01*
X20110800Y21382800D01*
G02X20108700Y21389500I32656J13915D01*
G02X20107600Y21400700I51067J10670D01*
G02X20108800Y21412400I63779J-630D01*
G01X20112000Y21422900D01*
G02X20116800Y21430500I23605J-9593D01*
G02X20122800Y21434900I14361J-13292D01*
G01X20131100Y21437700D01*
X20139900Y21438300D01*
G02X20147500Y21436600I-1073J-22634D01*
G02X20151100Y21434500I-5857J-14175D01*
G01X20154800Y21431000D01*
G02X20157800Y21427100I-22355J-20300D01*
G02X20159300Y21423600I-10006J-6360D01*
G03X20160200Y21421800I4617J1184D01*
G03X20161600Y21420900I2001J1574D01*
G01X20164300Y21420500D01*
X20171500D01*
G03X20180000Y21420700I-170J187931D01*
G03X20182300Y21421800I-146J3260D01*
G03X20182900Y21424200I-1995J1774D01*
G01X20180700Y21431400D01*
G03X20176900Y21438700I-25645J-8710D01*
G03X20170500Y21446000I-43425J-31616D01*
G01X20162700Y21452100D01*
X20154800Y21456000D01*
G03X20137400Y21458700I-21320J-79977D01*
G37*
G36*
G01X20229200Y21455600D02*
X20216900Y21455900D01*
X20204500Y21456300D01*
Y21346400D01*
X20227500D01*
X20227800Y21382800D01*
X20228200Y21419100D01*
X20250500Y21382800D01*
X20272800Y21346400D01*
X20285000Y21346700D01*
X20297100Y21347100D01*
X20297400Y21401600D01*
X20297800Y21456200D01*
X20274800D01*
X20274500Y21419500D01*
X20274100Y21382900D01*
X20251700Y21419200D01*
X20229200Y21455600D01*
G37*
G36*
G01X20377200Y21455200D02*
X20369500Y21455600D01*
X20349100Y21456000D01*
X20318200Y21456400D01*
Y21346200D01*
X20348500Y21346600D01*
X20368400Y21347000D01*
X20376000Y21347500D01*
X20381100Y21348600D01*
X20386800Y21350700D01*
G03X20397100Y21357300I-18814J40698D01*
G01X20405200Y21366500D01*
X20411000Y21378100D01*
X20414200Y21391800D01*
X20414500Y21411400D01*
X20409800Y21428700D01*
X20400700Y21442600D01*
G03X20387800Y21452000I-30877J-28822D01*
G01X20377200Y21455200D01*
G37*
G36*
G01X21407200Y24255200D02*
X21399500Y24255600D01*
X21379100Y24256000D01*
X21348200Y24256400D01*
Y24146200D01*
X21378500Y24146600D01*
X21398400Y24147000D01*
X21406000Y24147500D01*
X21411100Y24148600D01*
X21416800Y24150700D01*
G03X21427100Y24157300I-18814J40698D01*
G01X21435200Y24166500D01*
X21441000Y24178100D01*
X21444200Y24191800D01*
X21444500Y24211400D01*
X21439800Y24228700D01*
X21430700Y24242600D01*
G03X21417800Y24252000I-30877J-28822D01*
G01X21407200Y24255200D01*
G37*
G36*
G01X21259200Y24255600D02*
X21246900Y24255900D01*
X21234500Y24256300D01*
Y24146400D01*
X21257500D01*
X21257800Y24182800D01*
X21258200Y24219100D01*
X21280500Y24182800D01*
X21302800Y24146400D01*
X21315000Y24146700D01*
X21327100Y24147100D01*
X21327400Y24201600D01*
X21327800Y24256200D01*
X21304800D01*
X21304500Y24219500D01*
X21304100Y24182900D01*
X21281700Y24219200D01*
X21259200Y24255600D01*
G37*
G36*
G01X21167400Y24258700D02*
X21158100Y24258400D01*
G03X21150600Y24256900I3160J-35301D01*
G03X21141500Y24252900I13272J-42546D01*
G01X21132700Y24246600D01*
G03X21125200Y24238900I38705J-45202D01*
G01X21119800Y24230500D01*
G03X21117400Y24224400I39086J-18900D01*
G01X21115300Y24216300D01*
X21113800Y24208100D01*
G03X21113300Y24201300I46142J-6811D01*
G03X21115300Y24185500I63461J6D01*
G03X21121100Y24170800I61479J15763D01*
G01X21130100Y24158500D01*
G03X21141300Y24150200I29984J28754D01*
G01X21155300Y24145200D01*
X21169100Y24144200D01*
X21181800Y24147200D01*
G03X21192900Y24154100I-15515J37337D01*
G01X21197300Y24158000D01*
X21198400Y24152500D01*
X21199500Y24147100D01*
X21207400Y24146700D01*
X21215400Y24146300D01*
Y24206400D01*
X21169400D01*
Y24188500D01*
X21185100D01*
X21188900Y24188300D01*
X21192100Y24188100D01*
G02X21192700Y24187800I-141J-1032D01*
G02X21193200Y24185800I-1389J-1410D01*
G01X21191500Y24180600D01*
X21189000Y24175300D01*
G02X21186500Y24171800I-13849J7250D01*
G02X21179800Y24167100I-15230J14586D01*
G02X21171200Y24164700I-12474J28091D01*
G01X21161900Y24164900D01*
G02X21153300Y24167700I4472J28343D01*
G01X21148600Y24171100D01*
X21144300Y24176400D01*
X21140800Y24182800D01*
G02X21138700Y24189500I32656J13915D01*
G02X21137600Y24200700I51067J10670D01*
G02X21138800Y24212400I63779J-630D01*
G01X21142000Y24222900D01*
G02X21146800Y24230500I23605J-9593D01*
G02X21152800Y24234900I14361J-13292D01*
G01X21161100Y24237700D01*
X21169900Y24238300D01*
G02X21177500Y24236600I-1073J-22634D01*
G02X21181100Y24234500I-5857J-14175D01*
G01X21184800Y24231000D01*
G02X21187800Y24227100I-22355J-20300D01*
G02X21189300Y24223600I-10006J-6360D01*
G03X21190200Y24221800I4617J1184D01*
G03X21191600Y24220900I2001J1574D01*
G01X21194300Y24220500D01*
X21201500D01*
G03X21210000Y24220700I-170J187931D01*
G03X21212300Y24221800I-146J3260D01*
G03X21212900Y24224200I-1995J1774D01*
G01X21210700Y24231400D01*
G03X21206900Y24238700I-25645J-8710D01*
G03X21200500Y24246000I-43425J-31616D01*
G01X21192700Y24252100D01*
X21184800Y24256000D01*
G03X21167400Y24258700I-21320J-79977D01*
G37*
G36*
G01X21091300Y24977400D02*
X21091600Y24968100D01*
G03X21093100Y24960600I35301J3160D01*
G03X21097100Y24951500I42546J13272D01*
G01X21103400Y24942700D01*
G03X21111100Y24935200I45202J38705D01*
G01X21119500Y24929800D01*
G03X21125600Y24927400I18900J39086D01*
G01X21133700Y24925300D01*
X21141900Y24923800D01*
G03X21148700Y24923300I6811J46142D01*
G03X21164500Y24925300I-6J63461D01*
G03X21179200Y24931100I-15763J61479D01*
G01X21191500Y24940100D01*
G03X21199800Y24951300I-28754J29984D01*
G01X21204800Y24965300D01*
X21205800Y24979100D01*
X21202800Y24991800D01*
G03X21195900Y25002900I-37337J-15515D01*
G01X21192000Y25007300D01*
X21197500Y25008400D01*
X21202900Y25009500D01*
X21203300Y25017400D01*
X21203700Y25025400D01*
X21143600D01*
Y24979400D01*
X21161500D01*
Y24995100D01*
X21161700Y24998900D01*
X21161900Y25002100D01*
G02X21162200Y25002700I1032J-141D01*
G02X21164200Y25003200I1410J-1389D01*
G01X21169400Y25001500D01*
X21174700Y24999000D01*
G02X21178200Y24996500I-7250J-13849D01*
G02X21182900Y24989800I-14586J-15230D01*
G02X21185300Y24981200I-28091J-12474D01*
G01X21185100Y24971900D01*
G02X21182300Y24963300I-28343J4472D01*
G01X21178900Y24958600D01*
X21173600Y24954300D01*
X21167200Y24950800D01*
G02X21160500Y24948700I-13915J32656D01*
G02X21149300Y24947600I-10670J51067D01*
G02X21137600Y24948800I630J63779D01*
G01X21127100Y24952000D01*
G02X21119500Y24956800I9593J23605D01*
G02X21115100Y24962800I13292J14361D01*
G01X21112300Y24971100D01*
X21111700Y24979900D01*
G02X21113400Y24987500I22634J-1073D01*
G02X21115500Y24991100I14175J-5857D01*
G01X21119000Y24994800D01*
G02X21122900Y24997800I20300J-22355D01*
G02X21126400Y24999300I6360J-10006D01*
G03X21128200Y25000200I-1184J4617D01*
G03X21129100Y25001600I-1574J2001D01*
G01X21129500Y25004300D01*
Y25011500D01*
G03X21129300Y25020000I-187931J-170D01*
G03X21128200Y25022300I-3260J-146D01*
G03X21125800Y25022900I-1774J-1995D01*
G01X21118600Y25020700D01*
G03X21111300Y25016900I8710J-25645D01*
G03X21104000Y25010500I31616J-43425D01*
G01X21097900Y25002700D01*
X21094000Y24994800D01*
G03X21091300Y24977400I79977J-21320D01*
G37*
G36*
G01X21094400Y25069200D02*
X21094100Y25056900D01*
X21093700Y25044500D01*
X21203600D01*
Y25067500D01*
X21167200Y25067800D01*
X21130900Y25068200D01*
X21167200Y25090500D01*
X21203600Y25112800D01*
X21203300Y25125000D01*
X21202900Y25137100D01*
X21148400Y25137400D01*
X21093800Y25137800D01*
Y25114800D01*
X21130500Y25114500D01*
X21167100Y25114100D01*
X21130800Y25091700D01*
X21094400Y25069200D01*
G37*
G36*
G01X21094800Y25217200D02*
X21094400Y25209500D01*
X21094000Y25189100D01*
X21093600Y25158200D01*
X21203800D01*
X21203400Y25188500D01*
X21203000Y25208400D01*
X21202500Y25216000D01*
X21201400Y25221100D01*
X21199300Y25226800D01*
G03X21192700Y25237100I-40698J-18814D01*
G01X21183500Y25245200D01*
X21171900Y25251000D01*
X21158200Y25254200D01*
X21138600Y25254500D01*
X21121300Y25249800D01*
X21107400Y25240700D01*
G03X21098000Y25227800I28822J-30877D01*
G01X21094800Y25217200D01*
G37*
G36*
G01X25487400Y21708700D02*
X25478100Y21708400D01*
G03X25470600Y21706900I3160J-35301D01*
G03X25461500Y21702900I13272J-42546D01*
G01X25452700Y21696600D01*
G03X25445200Y21688900I38705J-45202D01*
G01X25439800Y21680500D01*
G03X25437400Y21674400I39086J-18900D01*
G01X25435300Y21666300D01*
X25433800Y21658100D01*
G03X25433300Y21651300I46142J-6811D01*
G03X25435300Y21635500I63461J6D01*
G03X25441100Y21620800I61479J15763D01*
G01X25450100Y21608500D01*
G03X25461300Y21600200I29984J28754D01*
G01X25475300Y21595200D01*
X25489100Y21594200D01*
X25501800Y21597200D01*
G03X25512900Y21604100I-15515J37337D01*
G01X25517300Y21608000D01*
X25518400Y21602500D01*
X25519500Y21597100D01*
X25527400Y21596700D01*
X25535400Y21596300D01*
Y21656400D01*
X25489400D01*
Y21638500D01*
X25505100D01*
X25508900Y21638300D01*
X25512100Y21638100D01*
G02X25512700Y21637800I-141J-1032D01*
G02X25513200Y21635800I-1389J-1410D01*
G01X25511500Y21630600D01*
X25509000Y21625300D01*
G02X25506500Y21621800I-13849J7250D01*
G02X25499800Y21617100I-15230J14586D01*
G02X25491200Y21614700I-12474J28091D01*
G01X25481900Y21614900D01*
G02X25473300Y21617700I4472J28343D01*
G01X25468600Y21621100D01*
X25464300Y21626400D01*
X25460800Y21632800D01*
G02X25458700Y21639500I32656J13915D01*
G02X25457600Y21650700I51067J10670D01*
G02X25458800Y21662400I63779J-630D01*
G01X25462000Y21672900D01*
G02X25466800Y21680500I23605J-9593D01*
G02X25472800Y21684900I14361J-13292D01*
G01X25481100Y21687700D01*
X25489900Y21688300D01*
G02X25497500Y21686600I-1073J-22634D01*
G02X25501100Y21684500I-5857J-14175D01*
G01X25504800Y21681000D01*
G02X25507800Y21677100I-22355J-20300D01*
G02X25509300Y21673600I-10006J-6360D01*
G03X25510200Y21671800I4617J1184D01*
G03X25511600Y21670900I2001J1574D01*
G01X25514300Y21670500D01*
X25521500D01*
G03X25530000Y21670700I-170J187931D01*
G03X25532300Y21671800I-146J3260D01*
G03X25532900Y21674200I-1995J1774D01*
G01X25530700Y21681400D01*
G03X25526900Y21688700I-25645J-8710D01*
G03X25520500Y21696000I-43425J-31616D01*
G01X25512700Y21702100D01*
X25504800Y21706000D01*
G03X25487400Y21708700I-21320J-79977D01*
G37*
G36*
G01X25579200Y21705600D02*
X25566900Y21705900D01*
X25554500Y21706300D01*
Y21596400D01*
X25577500D01*
X25577800Y21632800D01*
X25578200Y21669100D01*
X25600500Y21632800D01*
X25622800Y21596400D01*
X25635000Y21596700D01*
X25647100Y21597100D01*
X25647400Y21651600D01*
X25647800Y21706200D01*
X25624800D01*
X25624500Y21669500D01*
X25624100Y21632900D01*
X25601700Y21669200D01*
X25579200Y21705600D01*
G37*
G36*
G01X25727200Y21705200D02*
X25719500Y21705600D01*
X25699100Y21706000D01*
X25668200Y21706400D01*
Y21596200D01*
X25698500Y21596600D01*
X25718400Y21597000D01*
X25726000Y21597500D01*
X25731100Y21598600D01*
X25736800Y21600700D01*
G03X25747100Y21607300I-18814J40698D01*
G01X25755200Y21616500D01*
X25761000Y21628100D01*
X25764200Y21641800D01*
X25764500Y21661400D01*
X25759800Y21678700D01*
X25750700Y21692600D01*
G03X25737800Y21702000I-30877J-28822D01*
G01X25727200Y21705200D01*
G37*
G36*
G01X25487400Y21458700D02*
X25478100Y21458400D01*
G03X25470600Y21456900I3160J-35301D01*
G03X25461500Y21452900I13272J-42546D01*
G01X25452700Y21446600D01*
G03X25445200Y21438900I38705J-45202D01*
G01X25439800Y21430500D01*
G03X25437400Y21424400I39086J-18900D01*
G01X25435300Y21416300D01*
X25433800Y21408100D01*
G03X25433300Y21401300I46142J-6811D01*
G03X25435300Y21385500I63461J6D01*
G03X25441100Y21370800I61479J15763D01*
G01X25450100Y21358500D01*
G03X25461300Y21350200I29984J28754D01*
G01X25475300Y21345200D01*
X25489100Y21344200D01*
X25501800Y21347200D01*
G03X25512900Y21354100I-15515J37337D01*
G01X25517300Y21358000D01*
X25518400Y21352500D01*
X25519500Y21347100D01*
X25527400Y21346700D01*
X25535400Y21346300D01*
Y21406400D01*
X25489400D01*
Y21388500D01*
X25505100D01*
X25508900Y21388300D01*
X25512100Y21388100D01*
G02X25512700Y21387800I-141J-1032D01*
G02X25513200Y21385800I-1389J-1410D01*
G01X25511500Y21380600D01*
X25509000Y21375300D01*
G02X25506500Y21371800I-13849J7250D01*
G02X25499800Y21367100I-15230J14586D01*
G02X25491200Y21364700I-12474J28091D01*
G01X25481900Y21364900D01*
G02X25473300Y21367700I4472J28343D01*
G01X25468600Y21371100D01*
X25464300Y21376400D01*
X25460800Y21382800D01*
G02X25458700Y21389500I32656J13915D01*
G02X25457600Y21400700I51067J10670D01*
G02X25458800Y21412400I63779J-630D01*
G01X25462000Y21422900D01*
G02X25466800Y21430500I23605J-9593D01*
G02X25472800Y21434900I14361J-13292D01*
G01X25481100Y21437700D01*
X25489900Y21438300D01*
G02X25497500Y21436600I-1073J-22634D01*
G02X25501100Y21434500I-5857J-14175D01*
G01X25504800Y21431000D01*
G02X25507800Y21427100I-22355J-20300D01*
G02X25509300Y21423600I-10006J-6360D01*
G03X25510200Y21421800I4617J1184D01*
G03X25511600Y21420900I2001J1574D01*
G01X25514300Y21420500D01*
X25521500D01*
G03X25530000Y21420700I-170J187931D01*
G03X25532300Y21421800I-146J3260D01*
G03X25532900Y21424200I-1995J1774D01*
G01X25530700Y21431400D01*
G03X25526900Y21438700I-25645J-8710D01*
G03X25520500Y21446000I-43425J-31616D01*
G01X25512700Y21452100D01*
X25504800Y21456000D01*
G03X25487400Y21458700I-21320J-79977D01*
G37*
G36*
G01X25579200Y21455600D02*
X25566900Y21455900D01*
X25554500Y21456300D01*
Y21346400D01*
X25577500D01*
X25577800Y21382800D01*
X25578200Y21419100D01*
X25600500Y21382800D01*
X25622800Y21346400D01*
X25635000Y21346700D01*
X25647100Y21347100D01*
X25647400Y21401600D01*
X25647800Y21456200D01*
X25624800D01*
X25624500Y21419500D01*
X25624100Y21382900D01*
X25601700Y21419200D01*
X25579200Y21455600D01*
G37*
G36*
G01X25727200Y21455200D02*
X25719500Y21455600D01*
X25699100Y21456000D01*
X25668200Y21456400D01*
Y21346200D01*
X25698500Y21346600D01*
X25718400Y21347000D01*
X25726000Y21347500D01*
X25731100Y21348600D01*
X25736800Y21350700D01*
G03X25747100Y21357300I-18814J40698D01*
G01X25755200Y21366500D01*
X25761000Y21378100D01*
X25764200Y21391800D01*
X25764500Y21411400D01*
X25759800Y21428700D01*
X25750700Y21442600D01*
G03X25737800Y21452000I-30877J-28822D01*
G01X25727200Y21455200D01*
G37*
G36*
G01X25717200Y24495200D02*
X25709500Y24495600D01*
X25689100Y24496000D01*
X25658200Y24496400D01*
Y24386200D01*
X25688500Y24386600D01*
X25708400Y24387000D01*
X25716000Y24387500D01*
X25721100Y24388600D01*
X25726800Y24390700D01*
G03X25737100Y24397300I-18814J40698D01*
G01X25745200Y24406500D01*
X25751000Y24418100D01*
X25754200Y24431800D01*
X25754500Y24451400D01*
X25749800Y24468700D01*
X25740700Y24482600D01*
G03X25727800Y24492000I-30877J-28822D01*
G01X25717200Y24495200D01*
G37*
G36*
G01X25569200Y24495600D02*
X25556900Y24495900D01*
X25544500Y24496300D01*
Y24386400D01*
X25567500D01*
X25567800Y24422800D01*
X25568200Y24459100D01*
X25590500Y24422800D01*
X25612800Y24386400D01*
X25625000Y24386700D01*
X25637100Y24387100D01*
X25637400Y24441600D01*
X25637800Y24496200D01*
X25614800D01*
X25614500Y24459500D01*
X25614100Y24422900D01*
X25591700Y24459200D01*
X25569200Y24495600D01*
G37*
G36*
G01X25477400Y24498700D02*
X25468100Y24498400D01*
G03X25460600Y24496900I3160J-35301D01*
G03X25451500Y24492900I13272J-42546D01*
G01X25442700Y24486600D01*
G03X25435200Y24478900I38705J-45202D01*
G01X25429800Y24470500D01*
G03X25427400Y24464400I39086J-18900D01*
G01X25425300Y24456300D01*
X25423800Y24448100D01*
G03X25423300Y24441300I46142J-6811D01*
G03X25425300Y24425500I63461J6D01*
G03X25431100Y24410800I61479J15763D01*
G01X25440100Y24398500D01*
G03X25451300Y24390200I29984J28754D01*
G01X25465300Y24385200D01*
X25479100Y24384200D01*
X25491800Y24387200D01*
G03X25502900Y24394100I-15515J37337D01*
G01X25507300Y24398000D01*
X25508400Y24392500D01*
X25509500Y24387100D01*
X25517400Y24386700D01*
X25525400Y24386300D01*
Y24446400D01*
X25479400D01*
Y24428500D01*
X25495100D01*
X25498900Y24428300D01*
X25502100Y24428100D01*
G02X25502700Y24427800I-141J-1032D01*
G02X25503200Y24425800I-1389J-1410D01*
G01X25501500Y24420600D01*
X25499000Y24415300D01*
G02X25496500Y24411800I-13849J7250D01*
G02X25489800Y24407100I-15230J14586D01*
G02X25481200Y24404700I-12474J28091D01*
G01X25471900Y24404900D01*
G02X25463300Y24407700I4472J28343D01*
G01X25458600Y24411100D01*
X25454300Y24416400D01*
X25450800Y24422800D01*
G02X25448700Y24429500I32656J13915D01*
G02X25447600Y24440700I51067J10670D01*
G02X25448800Y24452400I63779J-630D01*
G01X25452000Y24462900D01*
G02X25456800Y24470500I23605J-9593D01*
G02X25462800Y24474900I14361J-13292D01*
G01X25471100Y24477700D01*
X25479900Y24478300D01*
G02X25487500Y24476600I-1073J-22634D01*
G02X25491100Y24474500I-5857J-14175D01*
G01X25494800Y24471000D01*
G02X25497800Y24467100I-22355J-20300D01*
G02X25499300Y24463600I-10006J-6360D01*
G03X25500200Y24461800I4617J1184D01*
G03X25501600Y24460900I2001J1574D01*
G01X25504300Y24460500D01*
X25511500D01*
G03X25520000Y24460700I-170J187931D01*
G03X25522300Y24461800I-146J3260D01*
G03X25522900Y24464200I-1995J1774D01*
G01X25520700Y24471400D01*
G03X25516900Y24478700I-25645J-8710D01*
G03X25510500Y24486000I-43425J-31616D01*
G01X25502700Y24492100D01*
X25494800Y24496000D01*
G03X25477400Y24498700I-21320J-79977D01*
G37*
%LPC*%
G75*
G36*
G01X20342400Y21686100D02*
X20357600Y21685600D01*
X20367100Y21685200D01*
X20371500Y21684700D01*
X20374600Y21683500D01*
X20378300Y21681300D01*
X20383500Y21676600D01*
X20387100Y21670900D01*
G02X20389400Y21663800I-28730J-13229D01*
G01X20390600Y21654800D01*
Y21645000D01*
G02X20389200Y21636800I-40908J2765D01*
G02X20386400Y21630000I-30070J8405D01*
G02X20382200Y21624400I-22066J12174D01*
G01X20377400Y21620700D01*
X20372200Y21618400D01*
G02X20365200Y21617200I-9431J33996D01*
G01X20354900Y21616800D01*
X20342400D01*
Y21686100D01*
G37*
G36*
G01Y21436100D02*
X20357600Y21435600D01*
X20367100Y21435200D01*
X20371500Y21434700D01*
X20374600Y21433500D01*
X20378300Y21431300D01*
X20383500Y21426600D01*
X20387100Y21420900D01*
G02X20389400Y21413800I-28730J-13229D01*
G01X20390600Y21404800D01*
Y21395000D01*
G02X20389200Y21386800I-40908J2765D01*
G02X20386400Y21380000I-30070J8405D01*
G02X20382200Y21374400I-22066J12174D01*
G01X20377400Y21370700D01*
X20372200Y21368400D01*
G02X20365200Y21367200I-9431J33996D01*
G01X20354900Y21366800D01*
X20342400D01*
Y21436100D01*
G37*
G36*
G01X21372400Y24236100D02*
X21387600Y24235600D01*
X21397100Y24235200D01*
X21401500Y24234700D01*
X21404600Y24233500D01*
X21408300Y24231300D01*
X21413500Y24226600D01*
X21417100Y24220900D01*
G02X21419400Y24213800I-28730J-13229D01*
G01X21420600Y24204800D01*
Y24195000D01*
G02X21419200Y24186800I-40908J2765D01*
G02X21416400Y24180000I-30070J8405D01*
G02X21412200Y24174400I-22066J12174D01*
G01X21407400Y24170700D01*
X21402200Y24168400D01*
G02X21395200Y24167200I-9431J33996D01*
G01X21384900Y24166800D01*
X21372400D01*
Y24236100D01*
G37*
G36*
G01X21113900Y25182400D02*
X21114400Y25197600D01*
X21114800Y25207100D01*
X21115300Y25211500D01*
X21116500Y25214600D01*
X21118700Y25218300D01*
X21123400Y25223500D01*
X21129100Y25227100D01*
G02X21136200Y25229400I13229J-28730D01*
G01X21145200Y25230600D01*
X21155000D01*
G02X21163200Y25229200I-2765J-40908D01*
G02X21170000Y25226400I-8405J-30070D01*
G02X21175600Y25222200I-12174J-22066D01*
G01X21179300Y25217400D01*
X21181600Y25212200D01*
G02X21182800Y25205200I-33996J-9431D01*
G01X21183200Y25194900D01*
Y25182400D01*
X21113900D01*
G37*
G36*
G01X25692400Y21686100D02*
X25707600Y21685600D01*
X25717100Y21685200D01*
X25721500Y21684700D01*
X25724600Y21683500D01*
X25728300Y21681300D01*
X25733500Y21676600D01*
X25737100Y21670900D01*
G02X25739400Y21663800I-28730J-13229D01*
G01X25740600Y21654800D01*
Y21645000D01*
G02X25739200Y21636800I-40908J2765D01*
G02X25736400Y21630000I-30070J8405D01*
G02X25732200Y21624400I-22066J12174D01*
G01X25727400Y21620700D01*
X25722200Y21618400D01*
G02X25715200Y21617200I-9431J33996D01*
G01X25704900Y21616800D01*
X25692400D01*
Y21686100D01*
G37*
G36*
G01Y21436100D02*
X25707600Y21435600D01*
X25717100Y21435200D01*
X25721500Y21434700D01*
X25724600Y21433500D01*
X25728300Y21431300D01*
X25733500Y21426600D01*
X25737100Y21420900D01*
G02X25739400Y21413800I-28730J-13229D01*
G01X25740600Y21404800D01*
Y21395000D01*
G02X25739200Y21386800I-40908J2765D01*
G02X25736400Y21380000I-30070J8405D01*
G02X25732200Y21374400I-22066J12174D01*
G01X25727400Y21370700D01*
X25722200Y21368400D01*
G02X25715200Y21367200I-9431J33996D01*
G01X25704900Y21366800D01*
X25692400D01*
Y21436100D01*
G37*
G36*
G01X25682400Y24476100D02*
X25697600Y24475600D01*
X25707100Y24475200D01*
X25711500Y24474700D01*
X25714600Y24473500D01*
X25718300Y24471300D01*
X25723500Y24466600D01*
X25727100Y24460900D01*
G02X25729400Y24453800I-28730J-13229D01*
G01X25730600Y24444800D01*
Y24435000D01*
G02X25729200Y24426800I-40908J2765D01*
G02X25726400Y24420000I-30070J8405D01*
G02X25722200Y24414400I-22066J12174D01*
G01X25717400Y24410700D01*
X25712200Y24408400D01*
G02X25705200Y24407200I-9431J33996D01*
G01X25694900Y24406800D01*
X25682400D01*
Y24476100D01*
G37*
%LPD*%
G75*
G54D10*
G01X20090000Y16222500D02*
Y14722500D01*
X27590000D01*
Y16222500D01*
X20090000D01*
G01X20609000Y21950000D02*
Y22039000D01*
X20597400Y22021200D01*
G01Y21950000D02*
X20620600D01*
G01X20675000Y22039000D02*
X20667270Y22036030D01*
X20661470Y22028620D01*
X20657600Y22019720D01*
X20654700Y22007850D01*
X20653730Y21994500D01*
X20654700Y21981150D01*
X20657600Y21969280D01*
X20661470Y21960380D01*
X20667270Y21952970D01*
X20675000Y21950000D01*
X20682730Y21952970D01*
X20688530Y21960380D01*
X20692400Y21969280D01*
X20695300Y21981150D01*
X20696270Y21994500D01*
X20695300Y22007850D01*
X20692400Y22019720D01*
X20688530Y22028620D01*
X20682730Y22036030D01*
X20675000Y22039000D01*
G01X20459670Y24647800D02*
X20464500Y24638900D01*
X20470300Y24632970D01*
X20477070Y24630000D01*
X20484800Y24632970D01*
X20490600Y24638900D01*
X20496400Y24647800D01*
X20498330Y24659670D01*
Y24719000D01*
G01X20545000Y24630000D02*
Y24719000D01*
X20533400Y24701200D01*
G01Y24630000D02*
X20556600D01*
G01X20847730Y21967800D02*
X20853530Y21957420D01*
X20861270Y21951480D01*
X20869970Y21950000D01*
X20877700Y21951480D01*
X20885430Y21958900D01*
X20890270Y21967800D01*
X20891230Y21976700D01*
X20889300Y21987080D01*
X20882530Y21994500D01*
X20875770Y21997470D01*
X20867070D01*
G01X20875770D02*
X20881570Y22001920D01*
X20886400Y22009330D01*
X20888330Y22018230D01*
X20886400Y22027130D01*
X20881570Y22034550D01*
X20872870Y22039000D01*
X20864170Y22037520D01*
X20855470Y22031580D01*
G01X20935000Y22039000D02*
X20927270Y22036030D01*
X20921470Y22028620D01*
X20917600Y22019720D01*
X20914700Y22007850D01*
X20913730Y21994500D01*
X20914700Y21981150D01*
X20917600Y21969280D01*
X20921470Y21960380D01*
X20927270Y21952970D01*
X20935000Y21950000D01*
X20942730Y21952970D01*
X20948530Y21960380D01*
X20952400Y21969280D01*
X20955300Y21981150D01*
X20956270Y21994500D01*
X20955300Y22007850D01*
X20952400Y22019720D01*
X20948530Y22028620D01*
X20942730Y22036030D01*
X20935000Y22039000D01*
G01X20639000Y24570000D02*
Y24659000D01*
X20627400Y24641200D01*
G01Y24570000D02*
X20650600D01*
G01X20850630Y24644170D02*
X20856430Y24653070D01*
X20863200Y24657520D01*
X20870930Y24659000D01*
X20880600Y24656030D01*
X20887370Y24648620D01*
X20889300Y24639720D01*
X20888330Y24630810D01*
X20884470Y24623400D01*
X20865130Y24608570D01*
X20856430Y24598180D01*
X20850630Y24583350D01*
X20848700Y24570000D01*
X20889300D01*
G01X20935000D02*
Y24659000D01*
X20923400Y24641200D01*
G01Y24570000D02*
X20946600D01*
G01X20999670Y24647800D02*
X21004500Y24638900D01*
X21010300Y24632970D01*
X21017070Y24630000D01*
X21024800Y24632970D01*
X21030600Y24638900D01*
X21036400Y24647800D01*
X21038330Y24659670D01*
Y24719000D01*
G01X21063730Y24647800D02*
X21069530Y24637420D01*
X21077270Y24631480D01*
X21085970Y24630000D01*
X21093700Y24631480D01*
X21101430Y24638900D01*
X21106270Y24647800D01*
X21107230Y24656700D01*
X21105300Y24667080D01*
X21098530Y24674500D01*
X21091770Y24677470D01*
X21083070D01*
G01X21091770D02*
X21097570Y24681920D01*
X21102400Y24689330D01*
X21104330Y24698230D01*
X21102400Y24707130D01*
X21097570Y24714550D01*
X21088870Y24719000D01*
X21080170Y24717520D01*
X21071470Y24711580D01*
G01X23840000Y16222500D02*
Y14722500D01*
G01Y15222500D02*
X27590000D01*
G01Y15722500D02*
X23840000D01*
G01X24897730Y21977800D02*
X24903530Y21967420D01*
X24911270Y21961480D01*
X24919970Y21960000D01*
X24927700Y21961480D01*
X24935430Y21968900D01*
X24940270Y21977800D01*
X24941230Y21986700D01*
X24939300Y21997080D01*
X24932530Y22004500D01*
X24925770Y22007470D01*
X24917070D01*
G01X24925770D02*
X24931570Y22011920D01*
X24936400Y22019330D01*
X24938330Y22028230D01*
X24936400Y22037130D01*
X24931570Y22044550D01*
X24922870Y22049000D01*
X24914170Y22047520D01*
X24905470Y22041580D01*
G01X24985000Y21960000D02*
Y22049000D01*
X24973400Y22031200D01*
G01Y21960000D02*
X24996600D01*
G01X24930600Y24570000D02*
Y24659000D01*
X24894830Y24595220D01*
X24943170D01*
G01X24985000Y24659000D02*
X24977270Y24656030D01*
X24971470Y24648620D01*
X24967600Y24639720D01*
X24964700Y24627850D01*
X24963730Y24614500D01*
X24964700Y24601150D01*
X24967600Y24589280D01*
X24971470Y24580380D01*
X24977270Y24572970D01*
X24985000Y24570000D01*
X24992730Y24572970D01*
X24998530Y24580380D01*
X25002400Y24589280D01*
X25005300Y24601150D01*
X25006270Y24614500D01*
X25005300Y24627850D01*
X25002400Y24639720D01*
X24998530Y24648620D01*
X24992730Y24656030D01*
X24985000Y24659000D01*
G01X24714670Y24602800D02*
X24719500Y24593900D01*
X24725300Y24587970D01*
X24732070Y24585000D01*
X24739800Y24587970D01*
X24745600Y24593900D01*
X24751400Y24602800D01*
X24753330Y24614670D01*
Y24674000D01*
G01X24811600Y24585000D02*
Y24674000D01*
X24775830Y24610220D01*
X24824170D01*
G01X25107600Y15722500D02*
Y15222500D01*
G01X25179000Y21960000D02*
Y22049000D01*
X25167400Y22031200D01*
G01Y21960000D02*
X25190600D01*
G01X25245000D02*
Y22049000D01*
X25233400Y22031200D01*
G01Y21960000D02*
X25256600D01*
G01X25160630Y24644170D02*
X25166430Y24653070D01*
X25173200Y24657520D01*
X25180930Y24659000D01*
X25190600Y24656030D01*
X25197370Y24648620D01*
X25199300Y24639720D01*
X25198330Y24630810D01*
X25194470Y24623400D01*
X25175130Y24608570D01*
X25166430Y24598180D01*
X25160630Y24583350D01*
X25158700Y24570000D01*
X25199300D01*
G01X25245000Y24659000D02*
X25237270Y24656030D01*
X25231470Y24648620D01*
X25227600Y24639720D01*
X25224700Y24627850D01*
X25223730Y24614500D01*
X25224700Y24601150D01*
X25227600Y24589280D01*
X25231470Y24580380D01*
X25237270Y24572970D01*
X25245000Y24570000D01*
X25252730Y24572970D01*
X25258530Y24580380D01*
X25262400Y24589280D01*
X25265300Y24601150D01*
X25266270Y24614500D01*
X25265300Y24627850D01*
X25262400Y24639720D01*
X25258530Y24648620D01*
X25252730Y24656030D01*
X25245000Y24659000D01*
G01X25309670Y24647800D02*
X25314500Y24638900D01*
X25320300Y24632970D01*
X25327070Y24630000D01*
X25334800Y24632970D01*
X25340600Y24638900D01*
X25346400Y24647800D01*
X25348330Y24659670D01*
Y24719000D01*
G01X25376630Y24704170D02*
X25382430Y24713070D01*
X25389200Y24717520D01*
X25396930Y24719000D01*
X25406600Y24716030D01*
X25413370Y24708620D01*
X25415300Y24699720D01*
X25414330Y24690810D01*
X25410470Y24683400D01*
X25391130Y24668570D01*
X25382430Y24658180D01*
X25376630Y24643350D01*
X25374700Y24630000D01*
X25415300D01*
G54D11*
G01X21883700Y25580000D02*
X22005600D01*
G01X21675400D02*
X21797300D01*
G01X21462000D02*
X21584000D01*
G01X21248700D02*
X21370600D01*
G01X21040400D02*
X21162300D01*
G01X22310400D02*
X22432300D01*
G01X22097000D02*
X22219000D01*
G01X22523800D02*
X22645700D01*
G01X22732000D02*
X22854000D01*
G01X22945400D02*
X23067300D01*
G01X23158800D02*
X23280700D01*
G01X23367000D02*
X23489000D01*
G01X23580400D02*
X23702300D01*
G01X23793800D02*
X23915700D01*
G01X24002000D02*
X24124000D01*
G01X24215400D02*
X24337300D01*
G01X24428800D02*
X24550700D01*
G01X24637000D02*
X24759000D01*
G01X24850400D02*
X24972300D01*
G54D12*
G01X25215000Y25662500D02*
Y25412500D01*
X25217500Y25410000D01*
G01X25215000Y25737500D02*
Y25955000D01*
X25217500Y25957500D01*
G54D13*
G01X20426080Y20285000D02*
Y20412000D01*
X20466290D01*
X20479160Y20405650D01*
X20487200Y20397180D01*
X20490420Y20380250D01*
X20487200Y20363320D01*
X20477550Y20352730D01*
X20466290Y20346380D01*
X20426080D01*
G01X20466290D02*
X20490420Y20285000D01*
G01X20563630Y20342150D02*
X20615090D01*
X20610270Y20356970D01*
X20602230Y20365430D01*
X20590970Y20369660D01*
X20579710Y20367550D01*
X20570060Y20361200D01*
X20563630Y20346380D01*
X20560410Y20333680D01*
Y20320980D01*
X20563630Y20308280D01*
X20571670Y20295580D01*
X20581320Y20287120D01*
X20592580Y20285000D01*
X20603830Y20289230D01*
X20615090Y20301930D01*
G01X20688300Y20369660D02*
X20717250Y20285000D01*
X20746200Y20369660D01*
G01X20846750Y20280770D02*
X20843530Y20282880D01*
Y20287120D01*
X20846750Y20289230D01*
X20849970Y20287120D01*
Y20282880D01*
X20846750Y20280770D01*
G01Y20337910D02*
X20843530Y20340030D01*
Y20344270D01*
X20846750Y20346380D01*
X20849970Y20344270D01*
Y20340030D01*
X20846750Y20337910D01*
G01X20940870Y20285000D02*
Y20412000D01*
X20973030D01*
X20985900Y20405650D01*
X20995550Y20397180D01*
X21003590Y20384490D01*
X21010030Y20369660D01*
X21011630Y20348500D01*
X21010030Y20327330D01*
X21003590Y20312510D01*
X20995550Y20299810D01*
X20985900Y20291350D01*
X20973030Y20285000D01*
X20940870D01*
G01X20426080Y20612000D02*
Y20485000D01*
X20490420D01*
G01X20547540D02*
X20587750Y20612000D01*
X20627960Y20485000D01*
G01X20613480Y20529450D02*
X20562010D01*
G01X20681870Y20612000D02*
Y20520980D01*
X20688300Y20501930D01*
X20701170Y20489230D01*
X20717250Y20485000D01*
X20733330Y20489230D01*
X20746200Y20501930D01*
X20752630Y20520980D01*
Y20612000D01*
G01X20809760Y20485000D02*
Y20612000D01*
X20883740Y20485000D01*
Y20612000D01*
G01X21011630Y20601420D02*
X21001980Y20607770D01*
X20990730Y20612000D01*
X20977860D01*
X20963380Y20605650D01*
X20952130Y20595070D01*
X20944080Y20582370D01*
X20937650Y20561200D01*
X20936040Y20542150D01*
X20939260Y20523100D01*
X20944080Y20510400D01*
X20953730Y20497700D01*
X20964990Y20489230D01*
X20976250Y20485000D01*
X20987510D01*
X20998770Y20489230D01*
X21008420Y20495580D01*
X21016460Y20504050D01*
G01X21071970Y20485000D02*
Y20612000D01*
G01X21139530D02*
Y20485000D01*
G01Y20548500D02*
X21071970D01*
G01X21201470Y20485000D02*
X21269030Y20612000D01*
G01X21201470D02*
X21269030Y20485000D01*
G01X21332580Y20612000D02*
Y20485000D01*
X21396920D01*
G01X21473340Y20527330D02*
X21515160D01*
G01X21659130Y20601420D02*
X21649480Y20607770D01*
X21638230Y20612000D01*
X21625360D01*
X21610880Y20605650D01*
X21599630Y20595070D01*
X21591580Y20582370D01*
X21585150Y20561200D01*
X21583540Y20542150D01*
X21586760Y20523100D01*
X21591580Y20510400D01*
X21601230Y20497700D01*
X21612490Y20489230D01*
X21623750Y20485000D01*
X21635010D01*
X21646270Y20489230D01*
X21655920Y20495580D01*
X21663960Y20504050D01*
G01X21788630Y20601420D02*
X21778980Y20607770D01*
X21767730Y20612000D01*
X21754860D01*
X21740380Y20605650D01*
X21729130Y20595070D01*
X21721080Y20582370D01*
X21714650Y20561200D01*
X21713040Y20542150D01*
X21716260Y20523100D01*
X21721080Y20510400D01*
X21730730Y20497700D01*
X21741990Y20489230D01*
X21753250Y20485000D01*
X21764510D01*
X21775770Y20489230D01*
X21785420Y20495580D01*
X21793460Y20504050D01*
G01X21882750Y20485000D02*
Y20612000D01*
X21863450Y20586600D01*
G01Y20485000D02*
X21902050D01*
G01X21976870Y20510400D02*
X21986510Y20495580D01*
X21999380Y20487120D01*
X22013860Y20485000D01*
X22026730Y20487120D01*
X22039590Y20497700D01*
X22047630Y20510400D01*
X22049240Y20523100D01*
X22046030Y20537910D01*
X22034770Y20548500D01*
X22023510Y20552730D01*
X22009030D01*
G01X22023510D02*
X22033160Y20559080D01*
X22041200Y20569660D01*
X22044420Y20582370D01*
X22041200Y20595070D01*
X22033160Y20605650D01*
X22018680Y20612000D01*
X22004210Y20609880D01*
X21989730Y20601420D01*
G01X22141750Y20485000D02*
Y20612000D01*
X22122450Y20586600D01*
G01Y20485000D02*
X22161050D01*
G01X22240690Y20590830D02*
X22250340Y20603530D01*
X22261600Y20609880D01*
X22274470Y20612000D01*
X22290550Y20607770D01*
X22301810Y20597180D01*
X22305030Y20584490D01*
X22303420Y20571780D01*
X22296980Y20561200D01*
X22264820Y20540030D01*
X22250340Y20525220D01*
X22240690Y20504050D01*
X22237470Y20485000D01*
X22305030D01*
G01X22368580D02*
Y20612000D01*
X22408790D01*
X22421660Y20605650D01*
X22429700Y20597180D01*
X22432920Y20580250D01*
X22429700Y20563320D01*
X22420050Y20552730D01*
X22408790Y20546380D01*
X22368580D01*
G01X22408790D02*
X22432920Y20485000D01*
G01X22530250D02*
Y20612000D01*
X22510950Y20586600D01*
G01Y20485000D02*
X22549550D01*
G54D14*
G01X20134330Y22350060D02*
X20133660Y22455060D01*
X20157000Y22455210D01*
X20166360Y22450010D01*
X20173410Y22443060D01*
X20179310Y22432600D01*
X20184050Y22420380D01*
X20185330Y22402880D01*
X20184280Y22385380D01*
X20179690Y22373100D01*
X20173920Y22362560D01*
X20166970Y22355520D01*
X20157670Y22350210D01*
X20134330Y22350060D01*
G01X20225330Y22455640D02*
X20253330Y22455820D01*
G01X20239330Y22455730D02*
X20240000Y22350730D01*
G01X20226000Y22350640D02*
X20254000Y22350820D01*
G01X20320000Y22351240D02*
X20310650Y22352930D01*
X20302440Y22359880D01*
X20295380Y22370340D01*
X20290630Y22382560D01*
X20288210Y22396540D01*
X20288120Y22410540D01*
X20290360Y22424560D01*
X20294950Y22436840D01*
X20301890Y22447380D01*
X20310010Y22454430D01*
X20319330Y22456240D01*
X20328670Y22454550D01*
X20336890Y22447600D01*
X20343950Y22437150D01*
X20348700Y22424930D01*
X20351120Y22410940D01*
X20351210Y22396940D01*
X20348970Y22382930D01*
X20344380Y22370650D01*
X20337440Y22360100D01*
X20329320Y22353050D01*
X20320000Y22351240D01*
G01X20414000Y22351840D02*
X20413330Y22456840D01*
X20370640Y22381320D01*
X20428980Y22381690D01*
G01X20139330Y22090060D02*
X20138660Y22195060D01*
X20162000Y22195210D01*
X20171360Y22190010D01*
X20178410Y22183060D01*
X20184310Y22172600D01*
X20189050Y22160380D01*
X20190330Y22142880D01*
X20189280Y22125380D01*
X20184690Y22113100D01*
X20178920Y22102560D01*
X20171970Y22095520D01*
X20162670Y22090210D01*
X20139330Y22090060D01*
G01X20230330Y22195640D02*
X20258330Y22195820D01*
G01X20244330Y22195730D02*
X20245000Y22090730D01*
G01X20231000Y22090640D02*
X20259000Y22090820D01*
G01X20325000Y22091240D02*
X20315650Y22092930D01*
X20307440Y22099880D01*
X20300380Y22110340D01*
X20295630Y22122560D01*
X20293210Y22136540D01*
X20293120Y22150540D01*
X20295360Y22164560D01*
X20299950Y22176840D01*
X20306890Y22187380D01*
X20315010Y22194430D01*
X20324330Y22196240D01*
X20333670Y22194550D01*
X20341890Y22187600D01*
X20348950Y22177150D01*
X20353700Y22164930D01*
X20356120Y22150940D01*
X20356210Y22136940D01*
X20353970Y22122930D01*
X20349380Y22110650D01*
X20342440Y22100100D01*
X20334320Y22093050D01*
X20325000Y22091240D01*
G01X20379230Y22107340D02*
X20386290Y22098630D01*
X20394490Y22093440D01*
X20405000Y22091750D01*
X20415480Y22095320D01*
X20423600Y22102370D01*
X20429350Y22114660D01*
X20430430Y22128660D01*
X20428010Y22142650D01*
X20422120Y22151360D01*
X20413910Y22158310D01*
X20405730Y22160010D01*
X20397580Y22158210D01*
X20387120Y22151140D01*
X20390330Y22196660D01*
X20421830Y22196860D01*
G01X20139330Y23385000D02*
Y23490000D01*
X20162670D01*
X20172000Y23484750D01*
X20179000Y23477750D01*
X20184830Y23467250D01*
X20189500Y23455000D01*
X20190670Y23437500D01*
X20189500Y23420000D01*
X20184830Y23407750D01*
X20179000Y23397250D01*
X20172000Y23390250D01*
X20162670Y23385000D01*
X20139330D01*
G01X20231000Y23490000D02*
X20259000D01*
G01X20245000D02*
Y23385000D01*
G01X20231000D02*
X20259000D01*
G01X20325000D02*
X20315670Y23386750D01*
X20307500Y23393750D01*
X20300500Y23404250D01*
X20295830Y23416500D01*
X20293500Y23430500D01*
Y23444500D01*
X20295830Y23458500D01*
X20300500Y23470750D01*
X20307500Y23481250D01*
X20315670Y23488250D01*
X20325000Y23490000D01*
X20334330Y23488250D01*
X20342500Y23481250D01*
X20349500Y23470750D01*
X20354170Y23458500D01*
X20356500Y23444500D01*
Y23430500D01*
X20354170Y23416500D01*
X20349500Y23404250D01*
X20342500Y23393750D01*
X20334330Y23386750D01*
X20325000Y23385000D01*
G01X20382830Y23472500D02*
X20389830Y23483000D01*
X20398000Y23488250D01*
X20407330Y23490000D01*
X20419000Y23486500D01*
X20427170Y23477750D01*
X20429500Y23467250D01*
X20428330Y23456750D01*
X20423670Y23448000D01*
X20400330Y23430500D01*
X20389830Y23418250D01*
X20382830Y23400750D01*
X20380500Y23385000D01*
X20429500D01*
G01X20462830Y23472500D02*
X20469830Y23483000D01*
X20478000Y23488250D01*
X20487330Y23490000D01*
X20499000Y23486500D01*
X20507170Y23477750D01*
X20509500Y23467250D01*
X20508330Y23456750D01*
X20503670Y23448000D01*
X20480330Y23430500D01*
X20469830Y23418250D01*
X20462830Y23400750D01*
X20460500Y23385000D01*
X20509500D01*
G01X20144330Y23125000D02*
Y23230000D01*
X20167670D01*
X20177000Y23224750D01*
X20184000Y23217750D01*
X20189830Y23207250D01*
X20194500Y23195000D01*
X20195670Y23177500D01*
X20194500Y23160000D01*
X20189830Y23147750D01*
X20184000Y23137250D01*
X20177000Y23130250D01*
X20167670Y23125000D01*
X20144330D01*
G01X20236000Y23230000D02*
X20264000D01*
G01X20250000D02*
Y23125000D01*
G01X20236000D02*
X20264000D01*
G01X20330000D02*
X20320670Y23126750D01*
X20312500Y23133750D01*
X20305500Y23144250D01*
X20300830Y23156500D01*
X20298500Y23170500D01*
Y23184500D01*
X20300830Y23198500D01*
X20305500Y23210750D01*
X20312500Y23221250D01*
X20320670Y23228250D01*
X20330000Y23230000D01*
X20339330Y23228250D01*
X20347500Y23221250D01*
X20354500Y23210750D01*
X20359170Y23198500D01*
X20361500Y23184500D01*
Y23170500D01*
X20359170Y23156500D01*
X20354500Y23144250D01*
X20347500Y23133750D01*
X20339330Y23126750D01*
X20330000Y23125000D01*
G01X20387830Y23212500D02*
X20394830Y23223000D01*
X20403000Y23228250D01*
X20412330Y23230000D01*
X20424000Y23226500D01*
X20432170Y23217750D01*
X20434500Y23207250D01*
X20433330Y23196750D01*
X20428670Y23188000D01*
X20405330Y23170500D01*
X20394830Y23158250D01*
X20387830Y23140750D01*
X20385500Y23125000D01*
X20434500D01*
G01X20504000D02*
Y23230000D01*
X20460830Y23154750D01*
X20519170D01*
G01X20129330Y22840060D02*
X20128660Y22945060D01*
X20152000Y22945210D01*
X20161360Y22940010D01*
X20168410Y22933060D01*
X20174310Y22922600D01*
X20179050Y22910380D01*
X20180330Y22892880D01*
X20179280Y22875380D01*
X20174690Y22863100D01*
X20168920Y22852560D01*
X20161970Y22845520D01*
X20152670Y22840210D01*
X20129330Y22840060D01*
G01X20220330Y22945640D02*
X20248330Y22945820D01*
G01X20234330Y22945730D02*
X20235000Y22840730D01*
G01X20221000Y22840640D02*
X20249000Y22840820D01*
G01X20315000Y22841240D02*
X20305650Y22842930D01*
X20297440Y22849880D01*
X20290380Y22860340D01*
X20285630Y22872560D01*
X20283210Y22886540D01*
X20283120Y22900540D01*
X20285360Y22914560D01*
X20289950Y22926840D01*
X20296890Y22937380D01*
X20305010Y22944430D01*
X20314330Y22946240D01*
X20323670Y22944550D01*
X20331890Y22937600D01*
X20338950Y22927150D01*
X20343700Y22914930D01*
X20346120Y22900940D01*
X20346210Y22886940D01*
X20343970Y22872930D01*
X20339380Y22860650D01*
X20332440Y22850100D01*
X20324320Y22843050D01*
X20315000Y22841240D01*
G01X20395000Y22841750D02*
X20394330Y22946750D01*
X20380460Y22925660D01*
G01X20381000Y22841660D02*
X20409000Y22841840D01*
G01X20474330Y22947260D02*
X20465020Y22943700D01*
X20458080Y22934910D01*
X20453470Y22924380D01*
X20450060Y22910350D01*
X20449000Y22894600D01*
X20450270Y22878850D01*
X20453850Y22864880D01*
X20458590Y22854410D01*
X20465640Y22845700D01*
X20475000Y22842260D01*
X20484310Y22845820D01*
X20491250Y22854610D01*
X20495850Y22865140D01*
X20499260Y22879170D01*
X20500330Y22894920D01*
X20499060Y22910670D01*
X20495480Y22924650D01*
X20490740Y22935110D01*
X20483680Y22943820D01*
X20474330Y22947260D01*
G01X20129330Y22590060D02*
X20128660Y22695060D01*
X20152000Y22695210D01*
X20161360Y22690010D01*
X20168410Y22683060D01*
X20174310Y22672600D01*
X20179050Y22660380D01*
X20180330Y22642880D01*
X20179280Y22625380D01*
X20174690Y22613100D01*
X20168920Y22602560D01*
X20161970Y22595520D01*
X20152670Y22590210D01*
X20129330Y22590060D01*
G01X20220330Y22695640D02*
X20248330Y22695820D01*
G01X20234330Y22695730D02*
X20235000Y22590730D01*
G01X20221000Y22590640D02*
X20249000Y22590820D01*
G01X20315000Y22591240D02*
X20305650Y22592930D01*
X20297440Y22599880D01*
X20290380Y22610340D01*
X20285630Y22622560D01*
X20283210Y22636540D01*
X20283120Y22650540D01*
X20285360Y22664560D01*
X20289950Y22676840D01*
X20296890Y22687380D01*
X20305010Y22694430D01*
X20314330Y22696240D01*
X20323670Y22694550D01*
X20331890Y22687600D01*
X20338950Y22677150D01*
X20343700Y22664930D01*
X20346120Y22650940D01*
X20346210Y22636940D01*
X20343970Y22622930D01*
X20339380Y22610650D01*
X20332440Y22600100D01*
X20324320Y22593050D01*
X20315000Y22591240D01*
G01X20372280Y22679110D02*
X20379210Y22689650D01*
X20387340Y22694960D01*
X20396660Y22696770D01*
X20408350Y22693340D01*
X20416580Y22684640D01*
X20418970Y22674160D01*
X20417880Y22663650D01*
X20413260Y22654870D01*
X20390040Y22637220D01*
X20379620Y22624900D01*
X20372730Y22607360D01*
X20370500Y22591600D01*
X20419500Y22591910D01*
G01X20475000Y22592260D02*
X20474330Y22697260D01*
X20460460Y22676170D01*
G01X20461000Y22592170D02*
X20489000Y22592350D01*
G01X20149330Y24140000D02*
Y24245000D01*
X20172670D01*
X20182000Y24239750D01*
X20189000Y24232750D01*
X20194830Y24222250D01*
X20199500Y24210000D01*
X20200670Y24192500D01*
X20199500Y24175000D01*
X20194830Y24162750D01*
X20189000Y24152250D01*
X20182000Y24145250D01*
X20172670Y24140000D01*
X20149330D01*
G01X20241000Y24245000D02*
X20269000D01*
G01X20255000D02*
Y24140000D01*
G01X20241000D02*
X20269000D01*
G01X20335000D02*
X20325670Y24141750D01*
X20317500Y24148750D01*
X20310500Y24159250D01*
X20305830Y24171500D01*
X20303500Y24185500D01*
Y24199500D01*
X20305830Y24213500D01*
X20310500Y24225750D01*
X20317500Y24236250D01*
X20325670Y24243250D01*
X20335000Y24245000D01*
X20344330Y24243250D01*
X20352500Y24236250D01*
X20359500Y24225750D01*
X20364170Y24213500D01*
X20366500Y24199500D01*
Y24185500D01*
X20364170Y24171500D01*
X20359500Y24159250D01*
X20352500Y24148750D01*
X20344330Y24141750D01*
X20335000Y24140000D01*
G01X20392830Y24227500D02*
X20399830Y24238000D01*
X20408000Y24243250D01*
X20417330Y24245000D01*
X20429000Y24241500D01*
X20437170Y24232750D01*
X20439500Y24222250D01*
X20438330Y24211750D01*
X20433670Y24203000D01*
X20410330Y24185500D01*
X20399830Y24173250D01*
X20392830Y24155750D01*
X20390500Y24140000D01*
X20439500D01*
G01X20469330Y24161000D02*
X20476330Y24148750D01*
X20485670Y24141750D01*
X20496170Y24140000D01*
X20505500Y24141750D01*
X20514830Y24150500D01*
X20520670Y24161000D01*
X20521830Y24171500D01*
X20519500Y24183750D01*
X20511330Y24192500D01*
X20503170Y24196000D01*
X20492670D01*
G01X20503170D02*
X20510170Y24201250D01*
X20516000Y24210000D01*
X20518330Y24220500D01*
X20516000Y24231000D01*
X20510170Y24239750D01*
X20499670Y24245000D01*
X20489170Y24243250D01*
X20478670Y24236250D01*
G01X20139330Y23635000D02*
Y23740000D01*
X20162670D01*
X20172000Y23734750D01*
X20179000Y23727750D01*
X20184830Y23717250D01*
X20189500Y23705000D01*
X20190670Y23687500D01*
X20189500Y23670000D01*
X20184830Y23657750D01*
X20179000Y23647250D01*
X20172000Y23640250D01*
X20162670Y23635000D01*
X20139330D01*
G01X20231000Y23740000D02*
X20259000D01*
G01X20245000D02*
Y23635000D01*
G01X20231000D02*
X20259000D01*
G01X20325000D02*
X20315670Y23636750D01*
X20307500Y23643750D01*
X20300500Y23654250D01*
X20295830Y23666500D01*
X20293500Y23680500D01*
Y23694500D01*
X20295830Y23708500D01*
X20300500Y23720750D01*
X20307500Y23731250D01*
X20315670Y23738250D01*
X20325000Y23740000D01*
X20334330Y23738250D01*
X20342500Y23731250D01*
X20349500Y23720750D01*
X20354170Y23708500D01*
X20356500Y23694500D01*
Y23680500D01*
X20354170Y23666500D01*
X20349500Y23654250D01*
X20342500Y23643750D01*
X20334330Y23636750D01*
X20325000Y23635000D01*
G01X20379330Y23656000D02*
X20386330Y23643750D01*
X20395670Y23636750D01*
X20406170Y23635000D01*
X20415500Y23636750D01*
X20424830Y23645500D01*
X20430670Y23656000D01*
X20431830Y23666500D01*
X20429500Y23678750D01*
X20421330Y23687500D01*
X20413170Y23691000D01*
X20402670D01*
G01X20413170D02*
X20420170Y23696250D01*
X20426000Y23705000D01*
X20428330Y23715500D01*
X20426000Y23726000D01*
X20420170Y23734750D01*
X20409670Y23740000D01*
X20399170Y23738250D01*
X20388670Y23731250D01*
G01X20144330Y23890000D02*
Y23995000D01*
X20167670D01*
X20177000Y23989750D01*
X20184000Y23982750D01*
X20189830Y23972250D01*
X20194500Y23960000D01*
X20195670Y23942500D01*
X20194500Y23925000D01*
X20189830Y23912750D01*
X20184000Y23902250D01*
X20177000Y23895250D01*
X20167670Y23890000D01*
X20144330D01*
G01X20236000Y23995000D02*
X20264000D01*
G01X20250000D02*
Y23890000D01*
G01X20236000D02*
X20264000D01*
G01X20330000D02*
X20320670Y23891750D01*
X20312500Y23898750D01*
X20305500Y23909250D01*
X20300830Y23921500D01*
X20298500Y23935500D01*
Y23949500D01*
X20300830Y23963500D01*
X20305500Y23975750D01*
X20312500Y23986250D01*
X20320670Y23993250D01*
X20330000Y23995000D01*
X20339330Y23993250D01*
X20347500Y23986250D01*
X20354500Y23975750D01*
X20359170Y23963500D01*
X20361500Y23949500D01*
Y23935500D01*
X20359170Y23921500D01*
X20354500Y23909250D01*
X20347500Y23898750D01*
X20339330Y23891750D01*
X20330000Y23890000D01*
G01X20387830Y23977500D02*
X20394830Y23988000D01*
X20403000Y23993250D01*
X20412330Y23995000D01*
X20424000Y23991500D01*
X20432170Y23982750D01*
X20434500Y23972250D01*
X20433330Y23961750D01*
X20428670Y23953000D01*
X20405330Y23935500D01*
X20394830Y23923250D01*
X20387830Y23905750D01*
X20385500Y23890000D01*
X20434500D01*
G01X20554330Y25276000D02*
X20559000Y25281250D01*
X20562500Y25290000D01*
X20564830Y25302250D01*
X20562500Y25312750D01*
X20557830Y25319750D01*
X20549670Y25325000D01*
X20518170D01*
Y25220000D01*
X20556670D01*
X20564830Y25227000D01*
X20569500Y25237500D01*
X20571830Y25249750D01*
X20569500Y25262000D01*
X20562500Y25272500D01*
X20554330Y25276000D01*
X20518170D01*
G01X20625000Y25325000D02*
Y25220000D01*
G01X20598170Y25325000D02*
X20651830D01*
G01X20678170Y25220000D02*
Y25325000D01*
X20731830Y25220000D01*
Y25325000D01*
G01X20769830Y25255000D02*
X20800170D01*
G01X20865000Y25220000D02*
Y25325000D01*
X20851000Y25304000D01*
G01Y25220000D02*
X20879000D01*
G01X20509330Y25030000D02*
Y25135000D01*
X20532670D01*
X20542000Y25129750D01*
X20549000Y25122750D01*
X20554830Y25112250D01*
X20559500Y25100000D01*
X20560670Y25082500D01*
X20559500Y25065000D01*
X20554830Y25052750D01*
X20549000Y25042250D01*
X20542000Y25035250D01*
X20532670Y25030000D01*
X20509330D01*
G01X20601000Y25135000D02*
X20629000D01*
G01X20615000D02*
Y25030000D01*
G01X20601000D02*
X20629000D01*
G01X20695000D02*
X20685670Y25031750D01*
X20677500Y25038750D01*
X20670500Y25049250D01*
X20665830Y25061500D01*
X20663500Y25075500D01*
Y25089500D01*
X20665830Y25103500D01*
X20670500Y25115750D01*
X20677500Y25126250D01*
X20685670Y25133250D01*
X20695000Y25135000D01*
X20704330Y25133250D01*
X20712500Y25126250D01*
X20719500Y25115750D01*
X20724170Y25103500D01*
X20726500Y25089500D01*
Y25075500D01*
X20724170Y25061500D01*
X20719500Y25049250D01*
X20712500Y25038750D01*
X20704330Y25031750D01*
X20695000Y25030000D01*
G01X20775000D02*
Y25135000D01*
X20761000Y25114000D01*
G01Y25030000D02*
X20789000D01*
G01X20829330Y25051000D02*
X20836330Y25038750D01*
X20845670Y25031750D01*
X20856170Y25030000D01*
X20865500Y25031750D01*
X20874830Y25040500D01*
X20880670Y25051000D01*
X20881830Y25061500D01*
X20879500Y25073750D01*
X20871330Y25082500D01*
X20863170Y25086000D01*
X20852670D01*
G01X20863170D02*
X20870170Y25091250D01*
X20876000Y25100000D01*
X20878330Y25110500D01*
X20876000Y25121000D01*
X20870170Y25129750D01*
X20859670Y25135000D01*
X20849170Y25133250D01*
X20838670Y25126250D01*
G01X21860000Y20385000D02*
X21876330Y20280000D01*
X21895000Y20385000D01*
X21913670Y20280000D01*
X21930000Y20385000D01*
G01X22000670Y20376250D02*
X21993670Y20381500D01*
X21985500Y20385000D01*
X21976170D01*
X21965670Y20379750D01*
X21957500Y20371000D01*
X21951670Y20360500D01*
X21947000Y20343000D01*
X21945830Y20327250D01*
X21948170Y20311500D01*
X21951670Y20301000D01*
X21958670Y20290500D01*
X21966830Y20283500D01*
X21975000Y20280000D01*
X21983170D01*
X21991330Y20283500D01*
X21998330Y20288750D01*
X22004170Y20295750D01*
G01X22030500Y20294000D02*
X22039830Y20285250D01*
X22050330Y20280000D01*
X22059670D01*
X22069000Y20285250D01*
X22076000Y20294000D01*
X22079500Y20306250D01*
X22077170Y20318500D01*
X22071330Y20329000D01*
X22060830Y20336000D01*
X22046830Y20339500D01*
X22038670Y20346500D01*
X22035170Y20358750D01*
X22037500Y20371000D01*
X22043330Y20379750D01*
X22051500Y20385000D01*
X22059670D01*
X22067830Y20381500D01*
X22074830Y20372750D01*
G01X22135000Y20385000D02*
X22125670Y20381500D01*
X22118670Y20372750D01*
X22114000Y20362250D01*
X22110500Y20348250D01*
X22109330Y20332500D01*
X22110500Y20316750D01*
X22114000Y20302750D01*
X22118670Y20292250D01*
X22125670Y20283500D01*
X22135000Y20280000D01*
X22144330Y20283500D01*
X22151330Y20292250D01*
X22156000Y20302750D01*
X22159500Y20316750D01*
X22160670Y20332500D01*
X22159500Y20348250D01*
X22156000Y20362250D01*
X22151330Y20372750D01*
X22144330Y20381500D01*
X22135000Y20385000D01*
G01X22229000Y20280000D02*
Y20385000D01*
X22185830Y20309750D01*
X22244170D01*
G01X22272830Y20367500D02*
X22279830Y20378000D01*
X22288000Y20383250D01*
X22297330Y20385000D01*
X22309000Y20381500D01*
X22317170Y20372750D01*
X22319500Y20362250D01*
X22318330Y20351750D01*
X22313670Y20343000D01*
X22290330Y20325500D01*
X22279830Y20313250D01*
X22272830Y20295750D01*
X22270500Y20280000D01*
X22319500D01*
G01X22429330D02*
Y20385000D01*
X22452670D01*
X22462000Y20379750D01*
X22469000Y20372750D01*
X22474830Y20362250D01*
X22479500Y20350000D01*
X22480670Y20332500D01*
X22479500Y20315000D01*
X22474830Y20302750D01*
X22469000Y20292250D01*
X22462000Y20285250D01*
X22452670Y20280000D01*
X22429330D01*
G01X21950000Y21632500D02*
X21973330D01*
Y21601000D01*
X21966330Y21590500D01*
X21958170Y21583500D01*
X21946500Y21580000D01*
X21934830Y21583500D01*
X21926670Y21590500D01*
X21919670Y21601000D01*
X21915000Y21613250D01*
X21912670Y21627250D01*
Y21639500D01*
X21915000Y21650000D01*
X21919670Y21662250D01*
X21926670Y21672750D01*
X21933670Y21679750D01*
X21943000Y21685000D01*
X21951170D01*
X21960500Y21681500D01*
X21967500Y21674500D01*
G01X22006670Y21580000D02*
Y21650000D01*
G01Y21636000D02*
X22012500Y21643000D01*
X22018330Y21648250D01*
X22026500Y21650000D01*
X22032330Y21648250D01*
X22039330Y21643000D01*
G01X22085500Y21627250D02*
X22122830D01*
X22119330Y21639500D01*
X22113500Y21646500D01*
X22105330Y21650000D01*
X22097170Y21648250D01*
X22090170Y21643000D01*
X22085500Y21630750D01*
X22083170Y21620250D01*
Y21609750D01*
X22085500Y21599250D01*
X22091330Y21588750D01*
X22098330Y21581750D01*
X22106500Y21580000D01*
X22114670Y21583500D01*
X22122830Y21594000D01*
G01X22165500Y21627250D02*
X22202830D01*
X22199330Y21639500D01*
X22193500Y21646500D01*
X22185330Y21650000D01*
X22177170Y21648250D01*
X22170170Y21643000D01*
X22165500Y21630750D01*
X22163170Y21620250D01*
Y21609750D01*
X22165500Y21599250D01*
X22171330Y21588750D01*
X22178330Y21581750D01*
X22186500Y21580000D01*
X22194670Y21583500D01*
X22202830Y21594000D01*
G01X22243170Y21580000D02*
Y21650000D01*
G01Y21632500D02*
X22247830Y21641250D01*
X22254830Y21648250D01*
X22264170Y21650000D01*
X22272330Y21648250D01*
X22279330Y21641250D01*
X22282830Y21629000D01*
Y21580000D01*
G01X22343000Y21576500D02*
X22340670Y21578250D01*
Y21581750D01*
X22343000Y21583500D01*
X22345330Y21581750D01*
Y21578250D01*
X22343000Y21576500D01*
G01Y21623750D02*
X22340670Y21625500D01*
Y21629000D01*
X22343000Y21630750D01*
X22345330Y21629000D01*
Y21625500D01*
X22343000Y21623750D01*
G01X21171670Y21570000D02*
Y21675000D01*
X21200830D01*
X21210170Y21669750D01*
X21216000Y21662750D01*
X21218330Y21648750D01*
X21216000Y21634750D01*
X21209000Y21626000D01*
X21200830Y21620750D01*
X21171670D01*
G01X21200830D02*
X21218330Y21570000D01*
G01X21257500Y21617250D02*
X21294830D01*
X21291330Y21629500D01*
X21285500Y21636500D01*
X21277330Y21640000D01*
X21269170Y21638250D01*
X21262170Y21633000D01*
X21257500Y21620750D01*
X21255170Y21610250D01*
Y21599750D01*
X21257500Y21589250D01*
X21263330Y21578750D01*
X21270330Y21571750D01*
X21278500Y21570000D01*
X21286670Y21573500D01*
X21294830Y21584000D01*
G01X21376000Y21675000D02*
Y21570000D01*
G01Y21585750D02*
X21371330Y21577000D01*
X21364330Y21571750D01*
X21356170Y21570000D01*
X21346830Y21573500D01*
X21339830Y21582250D01*
X21335170Y21592750D01*
X21334000Y21605000D01*
X21335170Y21617250D01*
X21339830Y21627750D01*
X21346830Y21636500D01*
X21356170Y21640000D01*
X21364330Y21638250D01*
X21370170Y21634750D01*
X21376000Y21627750D01*
G01X21435000Y21566500D02*
X21432670Y21568250D01*
Y21571750D01*
X21435000Y21573500D01*
X21437330Y21571750D01*
Y21568250D01*
X21435000Y21566500D01*
G01Y21613750D02*
X21432670Y21615500D01*
Y21619000D01*
X21435000Y21620750D01*
X21437330Y21619000D01*
Y21615500D01*
X21435000Y21613750D01*
G01X21165330Y21405000D02*
Y21510000D01*
X21188670D01*
X21198000Y21504750D01*
X21205000Y21497750D01*
X21210830Y21487250D01*
X21215500Y21475000D01*
X21216670Y21457500D01*
X21215500Y21440000D01*
X21210830Y21427750D01*
X21205000Y21417250D01*
X21198000Y21410250D01*
X21188670Y21405000D01*
X21165330D01*
G01X21257000Y21510000D02*
X21285000D01*
G01X21271000D02*
Y21405000D01*
G01X21257000D02*
X21285000D01*
G01X21351000D02*
X21341670Y21406750D01*
X21333500Y21413750D01*
X21326500Y21424250D01*
X21321830Y21436500D01*
X21319500Y21450500D01*
Y21464500D01*
X21321830Y21478500D01*
X21326500Y21490750D01*
X21333500Y21501250D01*
X21341670Y21508250D01*
X21351000Y21510000D01*
X21360330Y21508250D01*
X21368500Y21501250D01*
X21375500Y21490750D01*
X21380170Y21478500D01*
X21382500Y21464500D01*
Y21450500D01*
X21380170Y21436500D01*
X21375500Y21424250D01*
X21368500Y21413750D01*
X21360330Y21406750D01*
X21351000Y21405000D01*
G01X21408830Y21448750D02*
X21417000Y21461000D01*
X21424000Y21468000D01*
X21433330Y21471500D01*
X21441500Y21468000D01*
X21447330Y21461000D01*
X21452000Y21450500D01*
X21453170Y21438250D01*
X21452000Y21427750D01*
X21447330Y21417250D01*
X21440330Y21408500D01*
X21432170Y21405000D01*
X21422830Y21408500D01*
X21414670Y21419000D01*
X21410000Y21434750D01*
X21408830Y21452250D01*
X21411170Y21475000D01*
X21414670Y21487250D01*
X21420500Y21499500D01*
X21428670Y21508250D01*
X21436830Y21510000D01*
X21445000Y21506500D01*
X21450830Y21497750D01*
G01X21937330Y21410000D02*
Y21515000D01*
X21960670D01*
X21970000Y21509750D01*
X21977000Y21502750D01*
X21982830Y21492250D01*
X21987500Y21480000D01*
X21988670Y21462500D01*
X21987500Y21445000D01*
X21982830Y21432750D01*
X21977000Y21422250D01*
X21970000Y21415250D01*
X21960670Y21410000D01*
X21937330D01*
G01X22029000Y21515000D02*
X22057000D01*
G01X22043000D02*
Y21410000D01*
G01X22029000D02*
X22057000D01*
G01X22123000D02*
X22113670Y21411750D01*
X22105500Y21418750D01*
X22098500Y21429250D01*
X22093830Y21441500D01*
X22091500Y21455500D01*
Y21469500D01*
X22093830Y21483500D01*
X22098500Y21495750D01*
X22105500Y21506250D01*
X22113670Y21513250D01*
X22123000Y21515000D01*
X22132330Y21513250D01*
X22140500Y21506250D01*
X22147500Y21495750D01*
X22152170Y21483500D01*
X22154500Y21469500D01*
Y21455500D01*
X22152170Y21441500D01*
X22147500Y21429250D01*
X22140500Y21418750D01*
X22132330Y21411750D01*
X22123000Y21410000D01*
G01X22200670D02*
X22203000Y21432750D01*
X22206500Y21452000D01*
X22211170Y21469500D01*
X22217000Y21488750D01*
X22226330Y21515000D01*
X22179670D01*
G01X21549170Y21355000D02*
Y21250000D01*
X21595830D01*
G01X21675830D02*
X21629170D01*
Y21355000D01*
X21675830D01*
G01X21657170Y21304250D02*
X21629170D01*
G01X21706830Y21250000D02*
Y21355000D01*
X21730170D01*
X21739500Y21349750D01*
X21746500Y21342750D01*
X21752330Y21332250D01*
X21757000Y21320000D01*
X21758170Y21302500D01*
X21757000Y21285000D01*
X21752330Y21272750D01*
X21746500Y21262250D01*
X21739500Y21255250D01*
X21730170Y21250000D01*
X21706830D01*
G01X21795000Y21262250D02*
X21800830Y21255250D01*
X21809000Y21250000D01*
X21816000D01*
X21823000Y21253500D01*
X21827670Y21258750D01*
X21830000Y21265750D01*
X21828830Y21276250D01*
X21824170Y21281500D01*
X21803170Y21292000D01*
X21798500Y21304250D01*
X21800830Y21313000D01*
X21805500Y21318250D01*
X21812500Y21320000D01*
X21819500Y21318250D01*
X21826500Y21313000D01*
G01X21044330Y22615000D02*
Y22720000D01*
X21067670D01*
X21077000Y22714750D01*
X21084000Y22707750D01*
X21089830Y22697250D01*
X21094500Y22685000D01*
X21095670Y22667500D01*
X21094500Y22650000D01*
X21089830Y22637750D01*
X21084000Y22627250D01*
X21077000Y22620250D01*
X21067670Y22615000D01*
X21044330D01*
G01X21136000Y22720000D02*
X21164000D01*
G01X21150000D02*
Y22615000D01*
G01X21136000D02*
X21164000D01*
G01X21230000D02*
X21220670Y22616750D01*
X21212500Y22623750D01*
X21205500Y22634250D01*
X21200830Y22646500D01*
X21198500Y22660500D01*
Y22674500D01*
X21200830Y22688500D01*
X21205500Y22700750D01*
X21212500Y22711250D01*
X21220670Y22718250D01*
X21230000Y22720000D01*
X21239330Y22718250D01*
X21247500Y22711250D01*
X21254500Y22700750D01*
X21259170Y22688500D01*
X21261500Y22674500D01*
Y22660500D01*
X21259170Y22646500D01*
X21254500Y22634250D01*
X21247500Y22623750D01*
X21239330Y22616750D01*
X21230000Y22615000D01*
G01X21284330Y22636000D02*
X21291330Y22623750D01*
X21300670Y22616750D01*
X21311170Y22615000D01*
X21320500Y22616750D01*
X21329830Y22625500D01*
X21335670Y22636000D01*
X21336830Y22646500D01*
X21334500Y22658750D01*
X21326330Y22667500D01*
X21318170Y22671000D01*
X21307670D01*
G01X21318170D02*
X21325170Y22676250D01*
X21331000Y22685000D01*
X21333330Y22695500D01*
X21331000Y22706000D01*
X21325170Y22714750D01*
X21314670Y22720000D01*
X21304170Y22718250D01*
X21293670Y22711250D01*
G01X21390000Y22720000D02*
X21380670Y22716500D01*
X21373670Y22707750D01*
X21369000Y22697250D01*
X21365500Y22683250D01*
X21364330Y22667500D01*
X21365500Y22651750D01*
X21369000Y22637750D01*
X21373670Y22627250D01*
X21380670Y22618500D01*
X21390000Y22615000D01*
X21399330Y22618500D01*
X21406330Y22627250D01*
X21411000Y22637750D01*
X21414500Y22651750D01*
X21415670Y22667500D01*
X21414500Y22683250D01*
X21411000Y22697250D01*
X21406330Y22707750D01*
X21399330Y22716500D01*
X21390000Y22720000D01*
G01X21044330Y22845000D02*
Y22950000D01*
X21067670D01*
X21077000Y22944750D01*
X21084000Y22937750D01*
X21089830Y22927250D01*
X21094500Y22915000D01*
X21095670Y22897500D01*
X21094500Y22880000D01*
X21089830Y22867750D01*
X21084000Y22857250D01*
X21077000Y22850250D01*
X21067670Y22845000D01*
X21044330D01*
G01X21136000Y22950000D02*
X21164000D01*
G01X21150000D02*
Y22845000D01*
G01X21136000D02*
X21164000D01*
G01X21230000D02*
X21220670Y22846750D01*
X21212500Y22853750D01*
X21205500Y22864250D01*
X21200830Y22876500D01*
X21198500Y22890500D01*
Y22904500D01*
X21200830Y22918500D01*
X21205500Y22930750D01*
X21212500Y22941250D01*
X21220670Y22948250D01*
X21230000Y22950000D01*
X21239330Y22948250D01*
X21247500Y22941250D01*
X21254500Y22930750D01*
X21259170Y22918500D01*
X21261500Y22904500D01*
Y22890500D01*
X21259170Y22876500D01*
X21254500Y22864250D01*
X21247500Y22853750D01*
X21239330Y22846750D01*
X21230000Y22845000D01*
G01X21287830Y22932500D02*
X21294830Y22943000D01*
X21303000Y22948250D01*
X21312330Y22950000D01*
X21324000Y22946500D01*
X21332170Y22937750D01*
X21334500Y22927250D01*
X21333330Y22916750D01*
X21328670Y22908000D01*
X21305330Y22890500D01*
X21294830Y22878250D01*
X21287830Y22860750D01*
X21285500Y22845000D01*
X21334500D01*
G01X21370170Y22857250D02*
X21378330Y22848500D01*
X21387670Y22845000D01*
X21397000Y22848500D01*
X21405170Y22859000D01*
X21411000Y22874750D01*
X21413330Y22890500D01*
Y22909750D01*
X21411000Y22925500D01*
X21405170Y22939500D01*
X21398170Y22946500D01*
X21390000Y22950000D01*
X21380670Y22946500D01*
X21373670Y22939500D01*
X21369000Y22929000D01*
X21366670Y22915000D01*
X21369000Y22902750D01*
X21374830Y22890500D01*
X21381830Y22883500D01*
X21390000Y22881750D01*
X21399330Y22885250D01*
X21406330Y22894000D01*
X21413330Y22909750D01*
G01X21044330Y23095000D02*
Y23200000D01*
X21067670D01*
X21077000Y23194750D01*
X21084000Y23187750D01*
X21089830Y23177250D01*
X21094500Y23165000D01*
X21095670Y23147500D01*
X21094500Y23130000D01*
X21089830Y23117750D01*
X21084000Y23107250D01*
X21077000Y23100250D01*
X21067670Y23095000D01*
X21044330D01*
G01X21136000Y23200000D02*
X21164000D01*
G01X21150000D02*
Y23095000D01*
G01X21136000D02*
X21164000D01*
G01X21230000D02*
X21220670Y23096750D01*
X21212500Y23103750D01*
X21205500Y23114250D01*
X21200830Y23126500D01*
X21198500Y23140500D01*
Y23154500D01*
X21200830Y23168500D01*
X21205500Y23180750D01*
X21212500Y23191250D01*
X21220670Y23198250D01*
X21230000Y23200000D01*
X21239330Y23198250D01*
X21247500Y23191250D01*
X21254500Y23180750D01*
X21259170Y23168500D01*
X21261500Y23154500D01*
Y23140500D01*
X21259170Y23126500D01*
X21254500Y23114250D01*
X21247500Y23103750D01*
X21239330Y23096750D01*
X21230000Y23095000D01*
G01X21287830Y23182500D02*
X21294830Y23193000D01*
X21303000Y23198250D01*
X21312330Y23200000D01*
X21324000Y23196500D01*
X21332170Y23187750D01*
X21334500Y23177250D01*
X21333330Y23166750D01*
X21328670Y23158000D01*
X21305330Y23140500D01*
X21294830Y23128250D01*
X21287830Y23110750D01*
X21285500Y23095000D01*
X21334500D01*
G01X21390000D02*
X21398170Y23096750D01*
X21407500Y23102000D01*
X21413330Y23110750D01*
X21415670Y23123000D01*
X21413330Y23135250D01*
X21406330Y23145750D01*
X21395830Y23151000D01*
X21384170D01*
X21377170Y23154500D01*
X21371330Y23163250D01*
X21369000Y23175500D01*
X21372500Y23187750D01*
X21380670Y23196500D01*
X21390000Y23200000D01*
X21399330Y23196500D01*
X21407500Y23187750D01*
X21411000Y23175500D01*
X21408670Y23163250D01*
X21402830Y23154500D01*
X21395830Y23151000D01*
X21384170D01*
X21373670Y23145750D01*
X21366670Y23135250D01*
X21364330Y23123000D01*
X21366670Y23110750D01*
X21372500Y23102000D01*
X21381830Y23096750D01*
X21390000Y23095000D01*
G01X21044330Y23385000D02*
Y23490000D01*
X21067670D01*
X21077000Y23484750D01*
X21084000Y23477750D01*
X21089830Y23467250D01*
X21094500Y23455000D01*
X21095670Y23437500D01*
X21094500Y23420000D01*
X21089830Y23407750D01*
X21084000Y23397250D01*
X21077000Y23390250D01*
X21067670Y23385000D01*
X21044330D01*
G01X21136000Y23490000D02*
X21164000D01*
G01X21150000D02*
Y23385000D01*
G01X21136000D02*
X21164000D01*
G01X21230000D02*
X21220670Y23386750D01*
X21212500Y23393750D01*
X21205500Y23404250D01*
X21200830Y23416500D01*
X21198500Y23430500D01*
Y23444500D01*
X21200830Y23458500D01*
X21205500Y23470750D01*
X21212500Y23481250D01*
X21220670Y23488250D01*
X21230000Y23490000D01*
X21239330Y23488250D01*
X21247500Y23481250D01*
X21254500Y23470750D01*
X21259170Y23458500D01*
X21261500Y23444500D01*
Y23430500D01*
X21259170Y23416500D01*
X21254500Y23404250D01*
X21247500Y23393750D01*
X21239330Y23386750D01*
X21230000Y23385000D01*
G01X21287830Y23472500D02*
X21294830Y23483000D01*
X21303000Y23488250D01*
X21312330Y23490000D01*
X21324000Y23486500D01*
X21332170Y23477750D01*
X21334500Y23467250D01*
X21333330Y23456750D01*
X21328670Y23448000D01*
X21305330Y23430500D01*
X21294830Y23418250D01*
X21287830Y23400750D01*
X21285500Y23385000D01*
X21334500D01*
G01X21387670D02*
X21390000Y23407750D01*
X21393500Y23427000D01*
X21398170Y23444500D01*
X21404000Y23463750D01*
X21413330Y23490000D01*
X21366670D01*
G01X21029330Y22110000D02*
Y22215000D01*
X21052670D01*
X21062000Y22209750D01*
X21069000Y22202750D01*
X21074830Y22192250D01*
X21079500Y22180000D01*
X21080670Y22162500D01*
X21079500Y22145000D01*
X21074830Y22132750D01*
X21069000Y22122250D01*
X21062000Y22115250D01*
X21052670Y22110000D01*
X21029330D01*
G01X21121000Y22215000D02*
X21149000D01*
G01X21135000D02*
Y22110000D01*
G01X21121000D02*
X21149000D01*
G01X21215000D02*
X21205670Y22111750D01*
X21197500Y22118750D01*
X21190500Y22129250D01*
X21185830Y22141500D01*
X21183500Y22155500D01*
Y22169500D01*
X21185830Y22183500D01*
X21190500Y22195750D01*
X21197500Y22206250D01*
X21205670Y22213250D01*
X21215000Y22215000D01*
X21224330Y22213250D01*
X21232500Y22206250D01*
X21239500Y22195750D01*
X21244170Y22183500D01*
X21246500Y22169500D01*
Y22155500D01*
X21244170Y22141500D01*
X21239500Y22129250D01*
X21232500Y22118750D01*
X21224330Y22111750D01*
X21215000Y22110000D01*
G01X21295000D02*
Y22215000D01*
X21281000Y22194000D01*
G01Y22110000D02*
X21309000D01*
G01X21960000Y24891670D02*
X21855000D01*
Y24920830D01*
X21860250Y24930170D01*
X21867250Y24936000D01*
X21881250Y24938330D01*
X21895250Y24936000D01*
X21904000Y24929000D01*
X21909250Y24920830D01*
Y24891670D01*
G01Y24920830D02*
X21960000Y24938330D01*
G01Y24970500D02*
X21855000Y25019500D01*
G01Y24970500D02*
X21960000Y25019500D01*
G01Y25049330D02*
X21855000D01*
Y25072670D01*
X21860250Y25082000D01*
X21867250Y25089000D01*
X21877750Y25094830D01*
X21890000Y25099500D01*
X21907500Y25100670D01*
X21925000Y25099500D01*
X21937250Y25094830D01*
X21947750Y25089000D01*
X21954750Y25082000D01*
X21960000Y25072670D01*
Y25049330D01*
G01Y25178330D02*
X21925000Y25131670D01*
X21890000Y25178330D01*
G01X21960000Y25258330D02*
X21925000Y25211670D01*
X21890000Y25258330D01*
G01X21044330Y23882500D02*
Y23987500D01*
X21067670D01*
X21077000Y23982250D01*
X21084000Y23975250D01*
X21089830Y23964750D01*
X21094500Y23952500D01*
X21095670Y23935000D01*
X21094500Y23917500D01*
X21089830Y23905250D01*
X21084000Y23894750D01*
X21077000Y23887750D01*
X21067670Y23882500D01*
X21044330D01*
G01X21136000Y23987500D02*
X21164000D01*
G01X21150000D02*
Y23882500D01*
G01X21136000D02*
X21164000D01*
G01X21230000D02*
X21220670Y23884250D01*
X21212500Y23891250D01*
X21205500Y23901750D01*
X21200830Y23914000D01*
X21198500Y23928000D01*
Y23942000D01*
X21200830Y23956000D01*
X21205500Y23968250D01*
X21212500Y23978750D01*
X21220670Y23985750D01*
X21230000Y23987500D01*
X21239330Y23985750D01*
X21247500Y23978750D01*
X21254500Y23968250D01*
X21259170Y23956000D01*
X21261500Y23942000D01*
Y23928000D01*
X21259170Y23914000D01*
X21254500Y23901750D01*
X21247500Y23891250D01*
X21239330Y23884250D01*
X21230000Y23882500D01*
G01X21287830Y23970000D02*
X21294830Y23980500D01*
X21303000Y23985750D01*
X21312330Y23987500D01*
X21324000Y23984000D01*
X21332170Y23975250D01*
X21334500Y23964750D01*
X21333330Y23954250D01*
X21328670Y23945500D01*
X21305330Y23928000D01*
X21294830Y23915750D01*
X21287830Y23898250D01*
X21285500Y23882500D01*
X21334500D01*
G01X21364330Y23898250D02*
X21371330Y23889500D01*
X21379500Y23884250D01*
X21390000Y23882500D01*
X21400500Y23886000D01*
X21408670Y23893000D01*
X21414500Y23905250D01*
X21415670Y23919250D01*
X21413330Y23933250D01*
X21407500Y23942000D01*
X21399330Y23949000D01*
X21391170Y23950750D01*
X21383000Y23949000D01*
X21372500Y23942000D01*
X21376000Y23987500D01*
X21407500D01*
G01X21041830Y23632500D02*
Y23737500D01*
X21065170D01*
X21074500Y23732250D01*
X21081500Y23725250D01*
X21087330Y23714750D01*
X21092000Y23702500D01*
X21093170Y23685000D01*
X21092000Y23667500D01*
X21087330Y23655250D01*
X21081500Y23644750D01*
X21074500Y23637750D01*
X21065170Y23632500D01*
X21041830D01*
G01X21133500Y23737500D02*
X21161500D01*
G01X21147500D02*
Y23632500D01*
G01X21133500D02*
X21161500D01*
G01X21227500D02*
X21218170Y23634250D01*
X21210000Y23641250D01*
X21203000Y23651750D01*
X21198330Y23664000D01*
X21196000Y23678000D01*
Y23692000D01*
X21198330Y23706000D01*
X21203000Y23718250D01*
X21210000Y23728750D01*
X21218170Y23735750D01*
X21227500Y23737500D01*
X21236830Y23735750D01*
X21245000Y23728750D01*
X21252000Y23718250D01*
X21256670Y23706000D01*
X21259000Y23692000D01*
Y23678000D01*
X21256670Y23664000D01*
X21252000Y23651750D01*
X21245000Y23641250D01*
X21236830Y23634250D01*
X21227500Y23632500D01*
G01X21285330Y23720000D02*
X21292330Y23730500D01*
X21300500Y23735750D01*
X21309830Y23737500D01*
X21321500Y23734000D01*
X21329670Y23725250D01*
X21332000Y23714750D01*
X21330830Y23704250D01*
X21326170Y23695500D01*
X21302830Y23678000D01*
X21292330Y23665750D01*
X21285330Y23648250D01*
X21283000Y23632500D01*
X21332000D01*
G01X21365330Y23676250D02*
X21373500Y23688500D01*
X21380500Y23695500D01*
X21389830Y23699000D01*
X21398000Y23695500D01*
X21403830Y23688500D01*
X21408500Y23678000D01*
X21409670Y23665750D01*
X21408500Y23655250D01*
X21403830Y23644750D01*
X21396830Y23636000D01*
X21388670Y23632500D01*
X21379330Y23636000D01*
X21371170Y23646500D01*
X21366500Y23662250D01*
X21365330Y23679750D01*
X21367670Y23702500D01*
X21371170Y23714750D01*
X21377000Y23727000D01*
X21385170Y23735750D01*
X21393330Y23737500D01*
X21401500Y23734000D01*
X21407330Y23725250D01*
G01X23143170Y19391250D02*
X23136170Y19396500D01*
X23128000Y19400000D01*
X23118670D01*
X23108170Y19394750D01*
X23100000Y19386000D01*
X23094170Y19375500D01*
X23089500Y19358000D01*
X23088330Y19342250D01*
X23090670Y19326500D01*
X23094170Y19316000D01*
X23101170Y19305500D01*
X23109330Y19298500D01*
X23117500Y19295000D01*
X23125670D01*
X23133830Y19298500D01*
X23140830Y19303750D01*
X23146670Y19310750D01*
G01X23223170Y19391250D02*
X23216170Y19396500D01*
X23208000Y19400000D01*
X23198670D01*
X23188170Y19394750D01*
X23180000Y19386000D01*
X23174170Y19375500D01*
X23169500Y19358000D01*
X23168330Y19342250D01*
X23170670Y19326500D01*
X23174170Y19316000D01*
X23181170Y19305500D01*
X23189330Y19298500D01*
X23197500Y19295000D01*
X23205670D01*
X23213830Y19298500D01*
X23220830Y19303750D01*
X23226670Y19310750D01*
G01X23262330Y19330000D02*
X23292670D01*
G01X23328330Y19295000D02*
X23357500Y19400000D01*
X23386670Y19295000D01*
G01X23376170Y19331750D02*
X23338830D01*
G01X23410670Y19295000D02*
Y19400000D01*
X23464330Y19295000D01*
Y19400000D01*
G01X23517500D02*
Y19295000D01*
G01X23490670Y19400000D02*
X23544330D01*
G01X23620830Y19295000D02*
X23574170D01*
Y19400000D01*
X23620830D01*
G01X23602170Y19349250D02*
X23574170D01*
G01X23650670Y19295000D02*
Y19400000D01*
X23704330Y19295000D01*
Y19400000D01*
G01X23730670Y19295000D02*
Y19400000D01*
X23784330Y19295000D01*
Y19400000D01*
G01X23808330Y19295000D02*
X23837500Y19400000D01*
X23866670Y19295000D01*
G01X23856170Y19331750D02*
X23818830D01*
G01X23902330Y19330000D02*
X23932670D01*
G01X23971830Y19295000D02*
Y19400000D01*
X23995170D01*
X24004500Y19394750D01*
X24011500Y19387750D01*
X24017330Y19377250D01*
X24022000Y19365000D01*
X24023170Y19347500D01*
X24022000Y19330000D01*
X24017330Y19317750D01*
X24011500Y19307250D01*
X24004500Y19300250D01*
X23995170Y19295000D01*
X23971830D01*
G01X24051830D02*
Y19400000D01*
G01X24096170D02*
X24051830Y19335250D01*
G01X24103170Y19295000D02*
X24071670Y19365000D01*
G01X23217170Y19455000D02*
Y19560000D01*
X23247500Y19472500D01*
X23277830Y19560000D01*
Y19455000D01*
G01X23327500D02*
X23320500Y19456750D01*
X23313500Y19463750D01*
X23308830Y19476000D01*
X23306500Y19490000D01*
X23308830Y19504000D01*
X23313500Y19516250D01*
X23320500Y19523250D01*
X23327500Y19525000D01*
X23334500Y19523250D01*
X23341500Y19516250D01*
X23346170Y19504000D01*
X23347330Y19490000D01*
X23346170Y19476000D01*
X23341500Y19463750D01*
X23334500Y19456750D01*
X23327500Y19455000D01*
G01X23387670Y19525000D02*
Y19476000D01*
X23392330Y19463750D01*
X23399330Y19456750D01*
X23407500Y19455000D01*
X23415670Y19456750D01*
X23422670Y19463750D01*
X23427330Y19476000D01*
G01Y19455000D02*
Y19525000D01*
G01X23467670Y19455000D02*
Y19525000D01*
G01Y19507500D02*
X23472330Y19516250D01*
X23479330Y19523250D01*
X23488670Y19525000D01*
X23496830Y19523250D01*
X23503830Y19516250D01*
X23507330Y19504000D01*
Y19455000D01*
G01X23567500Y19560000D02*
Y19455000D01*
G01X23551170Y19525000D02*
X23583830D01*
G01X23720500Y19455000D02*
Y19544250D01*
X23722830Y19553000D01*
X23727500Y19558250D01*
X23734500Y19560000D01*
X23741500Y19556500D01*
X23745000Y19547750D01*
G01X23731000Y19518000D02*
X23707670D01*
G01X23807500Y19455000D02*
X23800500Y19456750D01*
X23793500Y19463750D01*
X23788830Y19476000D01*
X23786500Y19490000D01*
X23788830Y19504000D01*
X23793500Y19516250D01*
X23800500Y19523250D01*
X23807500Y19525000D01*
X23814500Y19523250D01*
X23821500Y19516250D01*
X23826170Y19504000D01*
X23827330Y19490000D01*
X23826170Y19476000D01*
X23821500Y19463750D01*
X23814500Y19456750D01*
X23807500Y19455000D01*
G01X23871170D02*
Y19525000D01*
G01Y19511000D02*
X23877000Y19518000D01*
X23882830Y19523250D01*
X23891000Y19525000D01*
X23896830Y19523250D01*
X23903830Y19518000D01*
G01X23967500Y19451500D02*
X23965170Y19453250D01*
Y19456750D01*
X23967500Y19458500D01*
X23969830Y19456750D01*
Y19453250D01*
X23967500Y19451500D01*
G01Y19498750D02*
X23965170Y19500500D01*
Y19504000D01*
X23967500Y19505750D01*
X23969830Y19504000D01*
Y19500500D01*
X23967500Y19498750D01*
G01X22085000Y24915000D02*
X22190000D01*
G01X22085000Y24888170D02*
Y24941830D01*
G01X22190000Y24970500D02*
X22085000Y25019500D01*
G01Y24970500D02*
X22190000Y25019500D01*
G01Y25049330D02*
X22085000D01*
Y25072670D01*
X22090250Y25082000D01*
X22097250Y25089000D01*
X22107750Y25094830D01*
X22120000Y25099500D01*
X22137500Y25100670D01*
X22155000Y25099500D01*
X22167250Y25094830D01*
X22177750Y25089000D01*
X22184750Y25082000D01*
X22190000Y25072670D01*
Y25049330D01*
G01Y25131670D02*
X22155000Y25178330D01*
X22120000Y25131670D01*
G01X22190000Y25211670D02*
X22155000Y25258330D01*
X22120000Y25211670D01*
G01X23302500Y24940000D02*
Y24835000D01*
G01X23275670Y24940000D02*
X23329330D01*
G01X23403500Y24835000D02*
Y24905000D01*
G01Y24892750D02*
X23398830Y24899750D01*
X23391830Y24903250D01*
X23383670Y24905000D01*
X23375500Y24901500D01*
X23368500Y24894500D01*
X23363830Y24884000D01*
X23361500Y24870000D01*
X23363830Y24856000D01*
X23368500Y24845500D01*
X23375500Y24838500D01*
X23383670Y24835000D01*
X23391830Y24836750D01*
X23398830Y24842000D01*
X23403500Y24849000D01*
G01X23446170Y24835000D02*
Y24905000D01*
G01Y24891000D02*
X23452000Y24898000D01*
X23457830Y24903250D01*
X23466000Y24905000D01*
X23471830Y24903250D01*
X23478830Y24898000D01*
G01X23526170Y24808750D02*
X23534330Y24801750D01*
X23543670Y24800000D01*
X23551830Y24801750D01*
X23558830Y24810500D01*
X23563500Y24822750D01*
Y24905000D01*
G01Y24891000D02*
X23558830Y24898000D01*
X23551830Y24903250D01*
X23543670Y24905000D01*
X23534330Y24901500D01*
X23528500Y24894500D01*
X23523830Y24882250D01*
X23521500Y24870000D01*
X23522670Y24859500D01*
X23527330Y24847250D01*
X23534330Y24838500D01*
X23543670Y24835000D01*
X23550670Y24836750D01*
X23558830Y24843750D01*
X23563500Y24850750D01*
G01X23605000Y24882250D02*
X23642330D01*
X23638830Y24894500D01*
X23633000Y24901500D01*
X23624830Y24905000D01*
X23616670Y24903250D01*
X23609670Y24898000D01*
X23605000Y24885750D01*
X23602670Y24875250D01*
Y24864750D01*
X23605000Y24854250D01*
X23610830Y24843750D01*
X23617830Y24836750D01*
X23626000Y24835000D01*
X23634170Y24838500D01*
X23642330Y24849000D01*
G01X23702500Y24940000D02*
Y24835000D01*
G01X23686170Y24905000D02*
X23718830D01*
G01X23848500Y24940000D02*
X23876500D01*
G01X23862500D02*
Y24835000D01*
G01X23848500D02*
X23876500D01*
G01X23922670D02*
Y24905000D01*
G01Y24887500D02*
X23927330Y24896250D01*
X23934330Y24903250D01*
X23943670Y24905000D01*
X23951830Y24903250D01*
X23958830Y24896250D01*
X23962330Y24884000D01*
Y24835000D01*
G01X23470000Y24252500D02*
X23575000D01*
G01X23470000Y24225670D02*
Y24279330D01*
G01X23575000Y24306830D02*
X23470000D01*
Y24330170D01*
X23475250Y24339500D01*
X23482250Y24346500D01*
X23492750Y24352330D01*
X23505000Y24357000D01*
X23522500Y24358170D01*
X23540000Y24357000D01*
X23552250Y24352330D01*
X23562750Y24346500D01*
X23569750Y24339500D01*
X23575000Y24330170D01*
Y24306830D01*
G01X23470000Y24398500D02*
Y24426500D01*
G01Y24412500D02*
X23575000D01*
G01Y24398500D02*
Y24426500D01*
G01X22625000Y25085000D02*
X22730000D01*
G01X22625000Y25058170D02*
Y25111830D01*
G01X22730000Y25134670D02*
X22625000D01*
X22712500Y25165000D01*
X22625000Y25195330D01*
X22730000D01*
G01X22716000Y25220500D02*
X22724750Y25229830D01*
X22730000Y25240330D01*
Y25249670D01*
X22724750Y25259000D01*
X22716000Y25266000D01*
X22703750Y25269500D01*
X22691500Y25267170D01*
X22681000Y25261330D01*
X22674000Y25250830D01*
X22670500Y25236830D01*
X22663500Y25228670D01*
X22651250Y25225170D01*
X22639000Y25227500D01*
X22630250Y25233330D01*
X22625000Y25241500D01*
Y25249670D01*
X22628500Y25257830D01*
X22637250Y25264830D01*
G01X22490000Y25071670D02*
X22385000D01*
Y25100830D01*
X22390250Y25110170D01*
X22397250Y25116000D01*
X22411250Y25118330D01*
X22425250Y25116000D01*
X22434000Y25109000D01*
X22439250Y25100830D01*
Y25071670D01*
G01Y25100830D02*
X22490000Y25118330D01*
G01X22476000Y25150500D02*
X22484750Y25159830D01*
X22490000Y25170330D01*
Y25179670D01*
X22484750Y25189000D01*
X22476000Y25196000D01*
X22463750Y25199500D01*
X22451500Y25197170D01*
X22441000Y25191330D01*
X22434000Y25180830D01*
X22430500Y25166830D01*
X22423500Y25158670D01*
X22411250Y25155170D01*
X22399000Y25157500D01*
X22390250Y25163330D01*
X22385000Y25171500D01*
Y25179670D01*
X22388500Y25187830D01*
X22397250Y25194830D01*
G01X22385000Y25255000D02*
X22490000D01*
G01X22385000Y25228170D02*
Y25281830D01*
G01X23365000Y25085000D02*
X23470000D01*
G01X23365000Y25058170D02*
Y25111830D01*
G01X23470000Y25139330D02*
X23365000D01*
Y25162670D01*
X23370250Y25172000D01*
X23377250Y25179000D01*
X23387750Y25184830D01*
X23400000Y25189500D01*
X23417500Y25190670D01*
X23435000Y25189500D01*
X23447250Y25184830D01*
X23457750Y25179000D01*
X23464750Y25172000D01*
X23470000Y25162670D01*
Y25139330D01*
G01X23365000Y25231000D02*
Y25259000D01*
G01Y25245000D02*
X23470000D01*
G01Y25231000D02*
Y25259000D01*
G01X23115000Y25085000D02*
X23220000D01*
G01X23115000Y25058170D02*
Y25111830D01*
G01X23220000Y25139330D02*
X23115000D01*
Y25162670D01*
X23120250Y25172000D01*
X23127250Y25179000D01*
X23137750Y25184830D01*
X23150000Y25189500D01*
X23167500Y25190670D01*
X23185000Y25189500D01*
X23197250Y25184830D01*
X23207750Y25179000D01*
X23214750Y25172000D01*
X23220000Y25162670D01*
Y25139330D01*
G01Y25245000D02*
X23218250Y25235670D01*
X23211250Y25227500D01*
X23200750Y25220500D01*
X23188500Y25215830D01*
X23174500Y25213500D01*
X23160500D01*
X23146500Y25215830D01*
X23134250Y25220500D01*
X23123750Y25227500D01*
X23116750Y25235670D01*
X23115000Y25245000D01*
X23116750Y25254330D01*
X23123750Y25262500D01*
X23134250Y25269500D01*
X23146500Y25274170D01*
X23160500Y25276500D01*
X23174500D01*
X23188500Y25274170D01*
X23200750Y25269500D01*
X23211250Y25262500D01*
X23218250Y25254330D01*
X23220000Y25245000D01*
G01X22855000Y25085000D02*
X22960000D01*
G01X22855000Y25058170D02*
Y25111830D01*
G01X22863750Y25190670D02*
X22858500Y25183670D01*
X22855000Y25175500D01*
Y25166170D01*
X22860250Y25155670D01*
X22869000Y25147500D01*
X22879500Y25141670D01*
X22897000Y25137000D01*
X22912750Y25135830D01*
X22928500Y25138170D01*
X22939000Y25141670D01*
X22949500Y25148670D01*
X22956500Y25156830D01*
X22960000Y25165000D01*
Y25173170D01*
X22956500Y25181330D01*
X22951250Y25188330D01*
X22944250Y25194170D01*
G01X22960000Y25219330D02*
X22855000D01*
G01Y25263670D02*
X22919750Y25219330D01*
G01X22960000Y25270670D02*
X22890000Y25239170D01*
G01X24469330Y23161000D02*
X24474000Y23166250D01*
X24477500Y23175000D01*
X24479830Y23187250D01*
X24477500Y23197750D01*
X24472830Y23204750D01*
X24464670Y23210000D01*
X24433170D01*
Y23105000D01*
X24471670D01*
X24479830Y23112000D01*
X24484500Y23122500D01*
X24486830Y23134750D01*
X24484500Y23147000D01*
X24477500Y23157500D01*
X24469330Y23161000D01*
X24433170D01*
G01X24516670Y23105000D02*
Y23210000D01*
X24544670D01*
X24554000Y23204750D01*
X24561000Y23192500D01*
X24563330Y23178500D01*
X24561000Y23164500D01*
X24555170Y23154000D01*
X24544670Y23148750D01*
X24516670D01*
G01X24596670Y23105000D02*
Y23210000D01*
X24625830D01*
X24635170Y23204750D01*
X24641000Y23197750D01*
X24643330Y23183750D01*
X24641000Y23169750D01*
X24634000Y23161000D01*
X24625830Y23155750D01*
X24596670D01*
G01X24625830D02*
X24643330Y23105000D01*
G01X24675500Y23119000D02*
X24684830Y23110250D01*
X24695330Y23105000D01*
X24704670D01*
X24714000Y23110250D01*
X24721000Y23119000D01*
X24724500Y23131250D01*
X24722170Y23143500D01*
X24716330Y23154000D01*
X24705830Y23161000D01*
X24691830Y23164500D01*
X24683670Y23171500D01*
X24680170Y23183750D01*
X24682500Y23196000D01*
X24688330Y23204750D01*
X24696500Y23210000D01*
X24704670D01*
X24712830Y23206500D01*
X24719830Y23197750D01*
G01X24780000Y23210000D02*
Y23105000D01*
G01X24753170Y23210000D02*
X24806830D01*
G01X24434330Y23360000D02*
Y23465000D01*
X24457670D01*
X24467000Y23459750D01*
X24474000Y23452750D01*
X24479830Y23442250D01*
X24484500Y23430000D01*
X24485670Y23412500D01*
X24484500Y23395000D01*
X24479830Y23382750D01*
X24474000Y23372250D01*
X24467000Y23365250D01*
X24457670Y23360000D01*
X24434330D01*
G01X24526000Y23465000D02*
X24554000D01*
G01X24540000D02*
Y23360000D01*
G01X24526000D02*
X24554000D01*
G01X24620000D02*
X24610670Y23361750D01*
X24602500Y23368750D01*
X24595500Y23379250D01*
X24590830Y23391500D01*
X24588500Y23405500D01*
Y23419500D01*
X24590830Y23433500D01*
X24595500Y23445750D01*
X24602500Y23456250D01*
X24610670Y23463250D01*
X24620000Y23465000D01*
X24629330Y23463250D01*
X24637500Y23456250D01*
X24644500Y23445750D01*
X24649170Y23433500D01*
X24651500Y23419500D01*
Y23405500D01*
X24649170Y23391500D01*
X24644500Y23379250D01*
X24637500Y23368750D01*
X24629330Y23361750D01*
X24620000Y23360000D01*
G01X24700000D02*
Y23465000D01*
X24686000Y23444000D01*
G01Y23360000D02*
X24714000D01*
G01X24780000D02*
X24788170Y23361750D01*
X24797500Y23367000D01*
X24803330Y23375750D01*
X24805670Y23388000D01*
X24803330Y23400250D01*
X24796330Y23410750D01*
X24785830Y23416000D01*
X24774170D01*
X24767170Y23419500D01*
X24761330Y23428250D01*
X24759000Y23440500D01*
X24762500Y23452750D01*
X24770670Y23461500D01*
X24780000Y23465000D01*
X24789330Y23461500D01*
X24797500Y23452750D01*
X24801000Y23440500D01*
X24798670Y23428250D01*
X24792830Y23419500D01*
X24785830Y23416000D01*
X24774170D01*
X24763670Y23410750D01*
X24756670Y23400250D01*
X24754330Y23388000D01*
X24756670Y23375750D01*
X24762500Y23367000D01*
X24771830Y23361750D01*
X24780000Y23360000D01*
G01X24614330Y22965220D02*
X24615000Y22860220D01*
G01X24587500Y22965050D02*
X24641160Y22965390D01*
G01X24664670Y22860540D02*
X24664000Y22965540D01*
X24694890Y22878230D01*
X24724660Y22965920D01*
X24725330Y22860930D01*
G01X24750410Y22875080D02*
X24759800Y22866400D01*
X24770330Y22861210D01*
X24779670Y22861270D01*
X24788970Y22866580D01*
X24795910Y22875370D01*
X24799330Y22887650D01*
X24796920Y22899880D01*
X24791020Y22910350D01*
X24780480Y22917280D01*
X24766450Y22920690D01*
X24758240Y22927640D01*
X24754660Y22939860D01*
X24756920Y22952130D01*
X24762700Y22960910D01*
X24770830Y22966220D01*
X24779000Y22966270D01*
X24787190Y22962820D01*
X24794240Y22954120D01*
G01X24449330Y22340060D02*
X24448660Y22445060D01*
X24472000Y22445210D01*
X24481360Y22440010D01*
X24488410Y22433060D01*
X24494310Y22422600D01*
X24499050Y22410380D01*
X24500330Y22392880D01*
X24499280Y22375380D01*
X24494690Y22363100D01*
X24488920Y22352560D01*
X24481970Y22345520D01*
X24472670Y22340210D01*
X24449330Y22340060D01*
G01X24540330Y22445640D02*
X24568330Y22445820D01*
G01X24554330Y22445730D02*
X24555000Y22340730D01*
G01X24541000Y22340640D02*
X24569000Y22340820D01*
G01X24635000Y22341240D02*
X24625650Y22342930D01*
X24617440Y22349880D01*
X24610380Y22360340D01*
X24605630Y22372560D01*
X24603210Y22386540D01*
X24603120Y22400540D01*
X24605360Y22414560D01*
X24609950Y22426840D01*
X24616890Y22437380D01*
X24625010Y22444430D01*
X24634330Y22446240D01*
X24643670Y22444550D01*
X24651890Y22437600D01*
X24658950Y22427150D01*
X24663700Y22414930D01*
X24666120Y22400940D01*
X24666210Y22386940D01*
X24663970Y22372930D01*
X24659380Y22360650D01*
X24652440Y22350100D01*
X24644320Y22343050D01*
X24635000Y22341240D01*
G01X24715000Y22341750D02*
X24714330Y22446750D01*
X24700460Y22425660D01*
G01X24701000Y22341660D02*
X24729000Y22341840D01*
G01X24772550Y22385870D02*
X24780640Y22398170D01*
X24787600Y22405220D01*
X24796910Y22408780D01*
X24805100Y22405330D01*
X24810980Y22398370D01*
X24815710Y22387900D01*
X24816950Y22375650D01*
X24815850Y22365140D01*
X24811250Y22354610D01*
X24804310Y22345820D01*
X24796170Y22342270D01*
X24786810Y22345710D01*
X24778580Y22356160D01*
X24773810Y22371880D01*
X24772530Y22389370D01*
X24774720Y22412130D01*
X24778140Y22424410D01*
X24783900Y22436690D01*
X24792010Y22445500D01*
X24800160Y22447300D01*
X24808350Y22443850D01*
X24814240Y22435140D01*
G01X24439330Y22090060D02*
X24438660Y22195060D01*
X24462000Y22195210D01*
X24471360Y22190010D01*
X24478410Y22183060D01*
X24484310Y22172600D01*
X24489050Y22160380D01*
X24490330Y22142880D01*
X24489280Y22125380D01*
X24484690Y22113100D01*
X24478920Y22102560D01*
X24471970Y22095520D01*
X24462670Y22090210D01*
X24439330Y22090060D01*
G01X24530330Y22195640D02*
X24558330Y22195820D01*
G01X24544330Y22195730D02*
X24545000Y22090730D01*
G01X24531000Y22090640D02*
X24559000Y22090820D01*
G01X24625000Y22091240D02*
X24615650Y22092930D01*
X24607440Y22099880D01*
X24600380Y22110340D01*
X24595630Y22122560D01*
X24593210Y22136540D01*
X24593120Y22150540D01*
X24595360Y22164560D01*
X24599950Y22176840D01*
X24606890Y22187380D01*
X24615010Y22194430D01*
X24624330Y22196240D01*
X24633670Y22194550D01*
X24641890Y22187600D01*
X24648950Y22177150D01*
X24653700Y22164930D01*
X24656120Y22150940D01*
X24656210Y22136940D01*
X24653970Y22122930D01*
X24649380Y22110650D01*
X24642440Y22100100D01*
X24634320Y22093050D01*
X24625000Y22091240D01*
G01X24705000Y22091750D02*
X24704330Y22196750D01*
X24690460Y22175660D01*
G01X24691000Y22091660D02*
X24719000Y22091840D01*
G01X24782670Y22092250D02*
X24784850Y22115010D01*
X24788230Y22134280D01*
X24792790Y22151810D01*
X24798500Y22171100D01*
X24807660Y22197410D01*
X24761000Y22197110D01*
G01X24614330Y22715220D02*
X24615000Y22610220D01*
G01X24587500Y22715050D02*
X24641160Y22715390D01*
G01X24720050Y22707140D02*
X24713020Y22712350D01*
X24704830Y22715800D01*
X24695500Y22715740D01*
X24685030Y22710420D01*
X24676920Y22701620D01*
X24671150Y22691080D01*
X24666600Y22673550D01*
X24665530Y22657800D01*
X24667970Y22642060D01*
X24671530Y22631580D01*
X24678600Y22621130D01*
X24686810Y22614180D01*
X24695000Y22610730D01*
X24703170Y22610780D01*
X24711310Y22614340D01*
X24718280Y22619630D01*
X24724070Y22626670D01*
G01X24749330Y22611080D02*
X24748660Y22716080D01*
G01X24793000Y22716360D02*
X24749080Y22651330D01*
G01X24800670Y22611410D02*
X24768720Y22681200D01*
G01X24434330Y23615000D02*
Y23720000D01*
X24457670D01*
X24467000Y23714750D01*
X24474000Y23707750D01*
X24479830Y23697250D01*
X24484500Y23685000D01*
X24485670Y23667500D01*
X24484500Y23650000D01*
X24479830Y23637750D01*
X24474000Y23627250D01*
X24467000Y23620250D01*
X24457670Y23615000D01*
X24434330D01*
G01X24526000Y23720000D02*
X24554000D01*
G01X24540000D02*
Y23615000D01*
G01X24526000D02*
X24554000D01*
G01X24620000D02*
X24610670Y23616750D01*
X24602500Y23623750D01*
X24595500Y23634250D01*
X24590830Y23646500D01*
X24588500Y23660500D01*
Y23674500D01*
X24590830Y23688500D01*
X24595500Y23700750D01*
X24602500Y23711250D01*
X24610670Y23718250D01*
X24620000Y23720000D01*
X24629330Y23718250D01*
X24637500Y23711250D01*
X24644500Y23700750D01*
X24649170Y23688500D01*
X24651500Y23674500D01*
Y23660500D01*
X24649170Y23646500D01*
X24644500Y23634250D01*
X24637500Y23623750D01*
X24629330Y23616750D01*
X24620000Y23615000D01*
G01X24700000D02*
Y23720000D01*
X24686000Y23699000D01*
G01Y23615000D02*
X24714000D01*
G01X24760170Y23627250D02*
X24768330Y23618500D01*
X24777670Y23615000D01*
X24787000Y23618500D01*
X24795170Y23629000D01*
X24801000Y23644750D01*
X24803330Y23660500D01*
Y23679750D01*
X24801000Y23695500D01*
X24795170Y23709500D01*
X24788170Y23716500D01*
X24780000Y23720000D01*
X24770670Y23716500D01*
X24763670Y23709500D01*
X24759000Y23699000D01*
X24756670Y23685000D01*
X24759000Y23672750D01*
X24764830Y23660500D01*
X24771830Y23653500D01*
X24780000Y23651750D01*
X24789330Y23655250D01*
X24796330Y23664000D01*
X24803330Y23679750D01*
G01X24434330Y23870000D02*
Y23975000D01*
X24457670D01*
X24467000Y23969750D01*
X24474000Y23962750D01*
X24479830Y23952250D01*
X24484500Y23940000D01*
X24485670Y23922500D01*
X24484500Y23905000D01*
X24479830Y23892750D01*
X24474000Y23882250D01*
X24467000Y23875250D01*
X24457670Y23870000D01*
X24434330D01*
G01X24526000Y23975000D02*
X24554000D01*
G01X24540000D02*
Y23870000D01*
G01X24526000D02*
X24554000D01*
G01X24620000D02*
X24610670Y23871750D01*
X24602500Y23878750D01*
X24595500Y23889250D01*
X24590830Y23901500D01*
X24588500Y23915500D01*
Y23929500D01*
X24590830Y23943500D01*
X24595500Y23955750D01*
X24602500Y23966250D01*
X24610670Y23973250D01*
X24620000Y23975000D01*
X24629330Y23973250D01*
X24637500Y23966250D01*
X24644500Y23955750D01*
X24649170Y23943500D01*
X24651500Y23929500D01*
Y23915500D01*
X24649170Y23901500D01*
X24644500Y23889250D01*
X24637500Y23878750D01*
X24629330Y23871750D01*
X24620000Y23870000D01*
G01X24677830Y23957500D02*
X24684830Y23968000D01*
X24693000Y23973250D01*
X24702330Y23975000D01*
X24714000Y23971500D01*
X24722170Y23962750D01*
X24724500Y23952250D01*
X24723330Y23941750D01*
X24718670Y23933000D01*
X24695330Y23915500D01*
X24684830Y23903250D01*
X24677830Y23885750D01*
X24675500Y23870000D01*
X24724500D01*
G01X24780000Y23975000D02*
X24770670Y23971500D01*
X24763670Y23962750D01*
X24759000Y23952250D01*
X24755500Y23938250D01*
X24754330Y23922500D01*
X24755500Y23906750D01*
X24759000Y23892750D01*
X24763670Y23882250D01*
X24770670Y23873500D01*
X24780000Y23870000D01*
X24789330Y23873500D01*
X24796330Y23882250D01*
X24801000Y23892750D01*
X24804500Y23906750D01*
X24805670Y23922500D01*
X24804500Y23938250D01*
X24801000Y23952250D01*
X24796330Y23962750D01*
X24789330Y23971500D01*
X24780000Y23975000D01*
G01X24519330Y24120000D02*
Y24225000D01*
X24542670D01*
X24552000Y24219750D01*
X24559000Y24212750D01*
X24564830Y24202250D01*
X24569500Y24190000D01*
X24570670Y24172500D01*
X24569500Y24155000D01*
X24564830Y24142750D01*
X24559000Y24132250D01*
X24552000Y24125250D01*
X24542670Y24120000D01*
X24519330D01*
G01X24611000Y24225000D02*
X24639000D01*
G01X24625000D02*
Y24120000D01*
G01X24611000D02*
X24639000D01*
G01X24705000D02*
X24695670Y24121750D01*
X24687500Y24128750D01*
X24680500Y24139250D01*
X24675830Y24151500D01*
X24673500Y24165500D01*
Y24179500D01*
X24675830Y24193500D01*
X24680500Y24205750D01*
X24687500Y24216250D01*
X24695670Y24223250D01*
X24705000Y24225000D01*
X24714330Y24223250D01*
X24722500Y24216250D01*
X24729500Y24205750D01*
X24734170Y24193500D01*
X24736500Y24179500D01*
Y24165500D01*
X24734170Y24151500D01*
X24729500Y24139250D01*
X24722500Y24128750D01*
X24714330Y24121750D01*
X24705000Y24120000D01*
G01X24762830Y24163750D02*
X24771000Y24176000D01*
X24778000Y24183000D01*
X24787330Y24186500D01*
X24795500Y24183000D01*
X24801330Y24176000D01*
X24806000Y24165500D01*
X24807170Y24153250D01*
X24806000Y24142750D01*
X24801330Y24132250D01*
X24794330Y24123500D01*
X24786170Y24120000D01*
X24776830Y24123500D01*
X24768670Y24134000D01*
X24764000Y24149750D01*
X24762830Y24167250D01*
X24765170Y24190000D01*
X24768670Y24202250D01*
X24774500Y24214500D01*
X24782670Y24223250D01*
X24790830Y24225000D01*
X24799000Y24221500D01*
X24804830Y24212750D01*
G01X24539330Y24390000D02*
Y24495000D01*
X24562670D01*
X24572000Y24489750D01*
X24579000Y24482750D01*
X24584830Y24472250D01*
X24589500Y24460000D01*
X24590670Y24442500D01*
X24589500Y24425000D01*
X24584830Y24412750D01*
X24579000Y24402250D01*
X24572000Y24395250D01*
X24562670Y24390000D01*
X24539330D01*
G01X24631000Y24495000D02*
X24659000D01*
G01X24645000D02*
Y24390000D01*
G01X24631000D02*
X24659000D01*
G01X24725000D02*
X24715670Y24391750D01*
X24707500Y24398750D01*
X24700500Y24409250D01*
X24695830Y24421500D01*
X24693500Y24435500D01*
Y24449500D01*
X24695830Y24463500D01*
X24700500Y24475750D01*
X24707500Y24486250D01*
X24715670Y24493250D01*
X24725000Y24495000D01*
X24734330Y24493250D01*
X24742500Y24486250D01*
X24749500Y24475750D01*
X24754170Y24463500D01*
X24756500Y24449500D01*
Y24435500D01*
X24754170Y24421500D01*
X24749500Y24409250D01*
X24742500Y24398750D01*
X24734330Y24391750D01*
X24725000Y24390000D01*
G01X24802670D02*
X24805000Y24412750D01*
X24808500Y24432000D01*
X24813170Y24449500D01*
X24819000Y24468750D01*
X24828330Y24495000D01*
X24781670D01*
G01X24769330Y24781000D02*
X24774000Y24786250D01*
X24777500Y24795000D01*
X24779830Y24807250D01*
X24777500Y24817750D01*
X24772830Y24824750D01*
X24764670Y24830000D01*
X24733170D01*
Y24725000D01*
X24771670D01*
X24779830Y24732000D01*
X24784500Y24742500D01*
X24786830Y24754750D01*
X24784500Y24767000D01*
X24777500Y24777500D01*
X24769330Y24781000D01*
X24733170D01*
G01X24816670Y24725000D02*
Y24830000D01*
X24844670D01*
X24854000Y24824750D01*
X24861000Y24812500D01*
X24863330Y24798500D01*
X24861000Y24784500D01*
X24855170Y24774000D01*
X24844670Y24768750D01*
X24816670D01*
G01X23635000Y24252500D02*
X23740000D01*
G01X23635000Y24225670D02*
Y24279330D01*
G01X23740000Y24306830D02*
X23635000D01*
Y24330170D01*
X23640250Y24339500D01*
X23647250Y24346500D01*
X23657750Y24352330D01*
X23670000Y24357000D01*
X23687500Y24358170D01*
X23705000Y24357000D01*
X23717250Y24352330D01*
X23727750Y24346500D01*
X23734750Y24339500D01*
X23740000Y24330170D01*
Y24306830D01*
G01Y24412500D02*
X23738250Y24403170D01*
X23731250Y24395000D01*
X23720750Y24388000D01*
X23708500Y24383330D01*
X23694500Y24381000D01*
X23680500D01*
X23666500Y24383330D01*
X23654250Y24388000D01*
X23643750Y24395000D01*
X23636750Y24403170D01*
X23635000Y24412500D01*
X23636750Y24421830D01*
X23643750Y24430000D01*
X23654250Y24437000D01*
X23666500Y24441670D01*
X23680500Y24444000D01*
X23694500D01*
X23708500Y24441670D01*
X23720750Y24437000D01*
X23731250Y24430000D01*
X23738250Y24421830D01*
X23740000Y24412500D01*
G01X23765000Y24252500D02*
X23870000D01*
G01X23765000Y24225670D02*
Y24279330D01*
G01X23773750Y24358170D02*
X23768500Y24351170D01*
X23765000Y24343000D01*
Y24333670D01*
X23770250Y24323170D01*
X23779000Y24315000D01*
X23789500Y24309170D01*
X23807000Y24304500D01*
X23822750Y24303330D01*
X23838500Y24305670D01*
X23849000Y24309170D01*
X23859500Y24316170D01*
X23866500Y24324330D01*
X23870000Y24332500D01*
Y24340670D01*
X23866500Y24348830D01*
X23861250Y24355830D01*
X23854250Y24361670D01*
G01X23870000Y24386830D02*
X23765000D01*
G01Y24431170D02*
X23829750Y24386830D01*
G01X23870000Y24438170D02*
X23800000Y24406670D01*
G01X23907500Y24252500D02*
X24012500D01*
G01X23907500Y24225670D02*
Y24279330D01*
G01X24012500Y24302170D02*
X23907500D01*
X23995000Y24332500D01*
X23907500Y24362830D01*
X24012500D01*
G01X23998500Y24388000D02*
X24007250Y24397330D01*
X24012500Y24407830D01*
Y24417170D01*
X24007250Y24426500D01*
X23998500Y24433500D01*
X23986250Y24437000D01*
X23974000Y24434670D01*
X23963500Y24428830D01*
X23956500Y24418330D01*
X23953000Y24404330D01*
X23946000Y24396170D01*
X23933750Y24392670D01*
X23921500Y24395000D01*
X23912750Y24400830D01*
X23907500Y24409000D01*
Y24417170D01*
X23911000Y24425330D01*
X23919750Y24432330D01*
G01X23706000Y25070500D02*
X23714750Y25079830D01*
X23720000Y25090330D01*
Y25099670D01*
X23714750Y25109000D01*
X23706000Y25116000D01*
X23693750Y25119500D01*
X23681500Y25117170D01*
X23671000Y25111330D01*
X23664000Y25100830D01*
X23660500Y25086830D01*
X23653500Y25078670D01*
X23641250Y25075170D01*
X23629000Y25077500D01*
X23620250Y25083330D01*
X23615000Y25091500D01*
Y25099670D01*
X23618500Y25107830D01*
X23627250Y25114830D01*
G01X23615000Y25140000D02*
X23720000Y25156330D01*
X23615000Y25175000D01*
X23720000Y25193670D01*
X23615000Y25210000D01*
G01X23720000Y25255000D02*
X23718250Y25245670D01*
X23711250Y25237500D01*
X23700750Y25230500D01*
X23688500Y25225830D01*
X23674500Y25223500D01*
X23660500D01*
X23646500Y25225830D01*
X23634250Y25230500D01*
X23623750Y25237500D01*
X23616750Y25245670D01*
X23615000Y25255000D01*
X23616750Y25264330D01*
X23623750Y25272500D01*
X23634250Y25279500D01*
X23646500Y25284170D01*
X23660500Y25286500D01*
X23674500D01*
X23688500Y25284170D01*
X23700750Y25279500D01*
X23711250Y25272500D01*
X23718250Y25264330D01*
X23720000Y25255000D01*
G01X24906830Y25211000D02*
X24911500Y25216250D01*
X24915000Y25225000D01*
X24917330Y25237250D01*
X24915000Y25247750D01*
X24910330Y25254750D01*
X24902170Y25260000D01*
X24870670D01*
Y25155000D01*
X24909170D01*
X24917330Y25162000D01*
X24922000Y25172500D01*
X24924330Y25184750D01*
X24922000Y25197000D01*
X24915000Y25207500D01*
X24906830Y25211000D01*
X24870670D01*
G01X24977500Y25260000D02*
Y25155000D01*
G01X24950670Y25260000D02*
X25004330D01*
G01X25030670Y25155000D02*
Y25260000D01*
X25084330Y25155000D01*
Y25260000D01*
G01X25122330Y25190000D02*
X25152670D01*
G01X25195330Y25242500D02*
X25202330Y25253000D01*
X25210500Y25258250D01*
X25219830Y25260000D01*
X25231500Y25256500D01*
X25239670Y25247750D01*
X25242000Y25237250D01*
X25240830Y25226750D01*
X25236170Y25218000D01*
X25212830Y25200500D01*
X25202330Y25188250D01*
X25195330Y25170750D01*
X25193000Y25155000D01*
X25242000D01*
G01X24866830Y25000000D02*
Y25105000D01*
X24890170D01*
X24899500Y25099750D01*
X24906500Y25092750D01*
X24912330Y25082250D01*
X24917000Y25070000D01*
X24918170Y25052500D01*
X24917000Y25035000D01*
X24912330Y25022750D01*
X24906500Y25012250D01*
X24899500Y25005250D01*
X24890170Y25000000D01*
X24866830D01*
G01X24958500Y25105000D02*
X24986500D01*
G01X24972500D02*
Y25000000D01*
G01X24958500D02*
X24986500D01*
G01X25052500D02*
X25043170Y25001750D01*
X25035000Y25008750D01*
X25028000Y25019250D01*
X25023330Y25031500D01*
X25021000Y25045500D01*
Y25059500D01*
X25023330Y25073500D01*
X25028000Y25085750D01*
X25035000Y25096250D01*
X25043170Y25103250D01*
X25052500Y25105000D01*
X25061830Y25103250D01*
X25070000Y25096250D01*
X25077000Y25085750D01*
X25081670Y25073500D01*
X25084000Y25059500D01*
Y25045500D01*
X25081670Y25031500D01*
X25077000Y25019250D01*
X25070000Y25008750D01*
X25061830Y25001750D01*
X25052500Y25000000D01*
G01X25132500D02*
Y25105000D01*
X25118500Y25084000D01*
G01Y25000000D02*
X25146500D01*
G01X25226500D02*
Y25105000D01*
X25183330Y25029750D01*
X25241670D01*
G01X25349330Y22365000D02*
Y22470000D01*
X25372670D01*
X25382000Y22464750D01*
X25389000Y22457750D01*
X25394830Y22447250D01*
X25399500Y22435000D01*
X25400670Y22417500D01*
X25399500Y22400000D01*
X25394830Y22387750D01*
X25389000Y22377250D01*
X25382000Y22370250D01*
X25372670Y22365000D01*
X25349330D01*
G01X25441000Y22470000D02*
X25469000D01*
G01X25455000D02*
Y22365000D01*
G01X25441000D02*
X25469000D01*
G01X25535000D02*
X25525670Y22366750D01*
X25517500Y22373750D01*
X25510500Y22384250D01*
X25505830Y22396500D01*
X25503500Y22410500D01*
Y22424500D01*
X25505830Y22438500D01*
X25510500Y22450750D01*
X25517500Y22461250D01*
X25525670Y22468250D01*
X25535000Y22470000D01*
X25544330Y22468250D01*
X25552500Y22461250D01*
X25559500Y22450750D01*
X25564170Y22438500D01*
X25566500Y22424500D01*
Y22410500D01*
X25564170Y22396500D01*
X25559500Y22384250D01*
X25552500Y22373750D01*
X25544330Y22366750D01*
X25535000Y22365000D01*
G01X25615000D02*
Y22470000D01*
X25601000Y22449000D01*
G01Y22365000D02*
X25629000D01*
G01X25709000D02*
Y22470000D01*
X25665830Y22394750D01*
X25724170D01*
G01X25351830Y22617500D02*
Y22722500D01*
X25375170D01*
X25384500Y22717250D01*
X25391500Y22710250D01*
X25397330Y22699750D01*
X25402000Y22687500D01*
X25403170Y22670000D01*
X25402000Y22652500D01*
X25397330Y22640250D01*
X25391500Y22629750D01*
X25384500Y22622750D01*
X25375170Y22617500D01*
X25351830D01*
G01X25443500Y22722500D02*
X25471500D01*
G01X25457500D02*
Y22617500D01*
G01X25443500D02*
X25471500D01*
G01X25537500D02*
X25528170Y22619250D01*
X25520000Y22626250D01*
X25513000Y22636750D01*
X25508330Y22649000D01*
X25506000Y22663000D01*
Y22677000D01*
X25508330Y22691000D01*
X25513000Y22703250D01*
X25520000Y22713750D01*
X25528170Y22720750D01*
X25537500Y22722500D01*
X25546830Y22720750D01*
X25555000Y22713750D01*
X25562000Y22703250D01*
X25566670Y22691000D01*
X25569000Y22677000D01*
Y22663000D01*
X25566670Y22649000D01*
X25562000Y22636750D01*
X25555000Y22626250D01*
X25546830Y22619250D01*
X25537500Y22617500D01*
G01X25617500D02*
Y22722500D01*
X25603500Y22701500D01*
G01Y22617500D02*
X25631500D01*
G01X25671830Y22638500D02*
X25678830Y22626250D01*
X25688170Y22619250D01*
X25698670Y22617500D01*
X25708000Y22619250D01*
X25717330Y22628000D01*
X25723170Y22638500D01*
X25724330Y22649000D01*
X25722000Y22661250D01*
X25713830Y22670000D01*
X25705670Y22673500D01*
X25695170D01*
G01X25705670D02*
X25712670Y22678750D01*
X25718500Y22687500D01*
X25720830Y22698000D01*
X25718500Y22708500D01*
X25712670Y22717250D01*
X25702170Y22722500D01*
X25691670Y22720750D01*
X25681170Y22713750D01*
G01X25354330Y22870000D02*
Y22975000D01*
X25377670D01*
X25387000Y22969750D01*
X25394000Y22962750D01*
X25399830Y22952250D01*
X25404500Y22940000D01*
X25405670Y22922500D01*
X25404500Y22905000D01*
X25399830Y22892750D01*
X25394000Y22882250D01*
X25387000Y22875250D01*
X25377670Y22870000D01*
X25354330D01*
G01X25446000Y22975000D02*
X25474000D01*
G01X25460000D02*
Y22870000D01*
G01X25446000D02*
X25474000D01*
G01X25540000D02*
X25530670Y22871750D01*
X25522500Y22878750D01*
X25515500Y22889250D01*
X25510830Y22901500D01*
X25508500Y22915500D01*
Y22929500D01*
X25510830Y22943500D01*
X25515500Y22955750D01*
X25522500Y22966250D01*
X25530670Y22973250D01*
X25540000Y22975000D01*
X25549330Y22973250D01*
X25557500Y22966250D01*
X25564500Y22955750D01*
X25569170Y22943500D01*
X25571500Y22929500D01*
Y22915500D01*
X25569170Y22901500D01*
X25564500Y22889250D01*
X25557500Y22878750D01*
X25549330Y22871750D01*
X25540000Y22870000D01*
G01X25620000D02*
X25628170Y22871750D01*
X25637500Y22877000D01*
X25643330Y22885750D01*
X25645670Y22898000D01*
X25643330Y22910250D01*
X25636330Y22920750D01*
X25625830Y22926000D01*
X25614170D01*
X25607170Y22929500D01*
X25601330Y22938250D01*
X25599000Y22950500D01*
X25602500Y22962750D01*
X25610670Y22971500D01*
X25620000Y22975000D01*
X25629330Y22971500D01*
X25637500Y22962750D01*
X25641000Y22950500D01*
X25638670Y22938250D01*
X25632830Y22929500D01*
X25625830Y22926000D01*
X25614170D01*
X25603670Y22920750D01*
X25596670Y22910250D01*
X25594330Y22898000D01*
X25596670Y22885750D01*
X25602500Y22877000D01*
X25611830Y22871750D01*
X25620000Y22870000D01*
G01X25356830Y23117500D02*
Y23222500D01*
X25380170D01*
X25389500Y23217250D01*
X25396500Y23210250D01*
X25402330Y23199750D01*
X25407000Y23187500D01*
X25408170Y23170000D01*
X25407000Y23152500D01*
X25402330Y23140250D01*
X25396500Y23129750D01*
X25389500Y23122750D01*
X25380170Y23117500D01*
X25356830D01*
G01X25448500Y23222500D02*
X25476500D01*
G01X25462500D02*
Y23117500D01*
G01X25448500D02*
X25476500D01*
G01X25542500D02*
X25533170Y23119250D01*
X25525000Y23126250D01*
X25518000Y23136750D01*
X25513330Y23149000D01*
X25511000Y23163000D01*
Y23177000D01*
X25513330Y23191000D01*
X25518000Y23203250D01*
X25525000Y23213750D01*
X25533170Y23220750D01*
X25542500Y23222500D01*
X25551830Y23220750D01*
X25560000Y23213750D01*
X25567000Y23203250D01*
X25571670Y23191000D01*
X25574000Y23177000D01*
Y23163000D01*
X25571670Y23149000D01*
X25567000Y23136750D01*
X25560000Y23126250D01*
X25551830Y23119250D01*
X25542500Y23117500D01*
G01X25602670Y23129750D02*
X25610830Y23121000D01*
X25620170Y23117500D01*
X25629500Y23121000D01*
X25637670Y23131500D01*
X25643500Y23147250D01*
X25645830Y23163000D01*
Y23182250D01*
X25643500Y23198000D01*
X25637670Y23212000D01*
X25630670Y23219000D01*
X25622500Y23222500D01*
X25613170Y23219000D01*
X25606170Y23212000D01*
X25601500Y23201500D01*
X25599170Y23187500D01*
X25601500Y23175250D01*
X25607330Y23163000D01*
X25614330Y23156000D01*
X25622500Y23154250D01*
X25631830Y23157750D01*
X25638830Y23166500D01*
X25645830Y23182250D01*
G01X25359170Y23492500D02*
Y23387500D01*
X25405830D01*
G01X25439170D02*
Y23492500D01*
X25467170D01*
X25476500Y23487250D01*
X25483500Y23475000D01*
X25485830Y23461000D01*
X25483500Y23447000D01*
X25477670Y23436500D01*
X25467170Y23431250D01*
X25439170D01*
G01X25519170Y23387500D02*
Y23492500D01*
X25548330D01*
X25557670Y23487250D01*
X25563500Y23480250D01*
X25565830Y23466250D01*
X25563500Y23452250D01*
X25556500Y23443500D01*
X25548330Y23438250D01*
X25519170D01*
G01X25548330D02*
X25565830Y23387500D01*
G01X25598000Y23401500D02*
X25607330Y23392750D01*
X25617830Y23387500D01*
X25627170D01*
X25636500Y23392750D01*
X25643500Y23401500D01*
X25647000Y23413750D01*
X25644670Y23426000D01*
X25638830Y23436500D01*
X25628330Y23443500D01*
X25614330Y23447000D01*
X25606170Y23454000D01*
X25602670Y23466250D01*
X25605000Y23478500D01*
X25610830Y23487250D01*
X25619000Y23492500D01*
X25627170D01*
X25635330Y23489000D01*
X25642330Y23480250D01*
G01X25702500Y23492500D02*
Y23387500D01*
G01X25675670Y23492500D02*
X25729330D01*
G01X25349330Y22110000D02*
Y22215000D01*
X25372670D01*
X25382000Y22209750D01*
X25389000Y22202750D01*
X25394830Y22192250D01*
X25399500Y22180000D01*
X25400670Y22162500D01*
X25399500Y22145000D01*
X25394830Y22132750D01*
X25389000Y22122250D01*
X25382000Y22115250D01*
X25372670Y22110000D01*
X25349330D01*
G01X25441000Y22215000D02*
X25469000D01*
G01X25455000D02*
Y22110000D01*
G01X25441000D02*
X25469000D01*
G01X25535000D02*
X25525670Y22111750D01*
X25517500Y22118750D01*
X25510500Y22129250D01*
X25505830Y22141500D01*
X25503500Y22155500D01*
Y22169500D01*
X25505830Y22183500D01*
X25510500Y22195750D01*
X25517500Y22206250D01*
X25525670Y22213250D01*
X25535000Y22215000D01*
X25544330Y22213250D01*
X25552500Y22206250D01*
X25559500Y22195750D01*
X25564170Y22183500D01*
X25566500Y22169500D01*
Y22155500D01*
X25564170Y22141500D01*
X25559500Y22129250D01*
X25552500Y22118750D01*
X25544330Y22111750D01*
X25535000Y22110000D01*
G01X25615000D02*
Y22215000D01*
X25601000Y22194000D01*
G01Y22110000D02*
X25629000D01*
G01X25669330Y22125750D02*
X25676330Y22117000D01*
X25684500Y22111750D01*
X25695000Y22110000D01*
X25705500Y22113500D01*
X25713670Y22120500D01*
X25719500Y22132750D01*
X25720670Y22146750D01*
X25718330Y22160750D01*
X25712500Y22169500D01*
X25704330Y22176500D01*
X25696170Y22178250D01*
X25688000Y22176500D01*
X25677500Y22169500D01*
X25681000Y22215000D01*
X25712500D01*
G01X25356830Y23887500D02*
Y23992500D01*
X25380170D01*
X25389500Y23987250D01*
X25396500Y23980250D01*
X25402330Y23969750D01*
X25407000Y23957500D01*
X25408170Y23940000D01*
X25407000Y23922500D01*
X25402330Y23910250D01*
X25396500Y23899750D01*
X25389500Y23892750D01*
X25380170Y23887500D01*
X25356830D01*
G01X25448500Y23992500D02*
X25476500D01*
G01X25462500D02*
Y23887500D01*
G01X25448500D02*
X25476500D01*
G01X25542500D02*
X25533170Y23889250D01*
X25525000Y23896250D01*
X25518000Y23906750D01*
X25513330Y23919000D01*
X25511000Y23933000D01*
Y23947000D01*
X25513330Y23961000D01*
X25518000Y23973250D01*
X25525000Y23983750D01*
X25533170Y23990750D01*
X25542500Y23992500D01*
X25551830Y23990750D01*
X25560000Y23983750D01*
X25567000Y23973250D01*
X25571670Y23961000D01*
X25574000Y23947000D01*
Y23933000D01*
X25571670Y23919000D01*
X25567000Y23906750D01*
X25560000Y23896250D01*
X25551830Y23889250D01*
X25542500Y23887500D01*
G01X25622500D02*
Y23992500D01*
X25608500Y23971500D01*
G01Y23887500D02*
X25636500D01*
G01X25702500D02*
Y23992500D01*
X25688500Y23971500D01*
G01Y23887500D02*
X25716500D01*
G01X25361830Y24145000D02*
Y24250000D01*
X25385170D01*
X25394500Y24244750D01*
X25401500Y24237750D01*
X25407330Y24227250D01*
X25412000Y24215000D01*
X25413170Y24197500D01*
X25412000Y24180000D01*
X25407330Y24167750D01*
X25401500Y24157250D01*
X25394500Y24150250D01*
X25385170Y24145000D01*
X25361830D01*
G01X25453500Y24250000D02*
X25481500D01*
G01X25467500D02*
Y24145000D01*
G01X25453500D02*
X25481500D01*
G01X25547500D02*
X25538170Y24146750D01*
X25530000Y24153750D01*
X25523000Y24164250D01*
X25518330Y24176500D01*
X25516000Y24190500D01*
Y24204500D01*
X25518330Y24218500D01*
X25523000Y24230750D01*
X25530000Y24241250D01*
X25538170Y24248250D01*
X25547500Y24250000D01*
X25556830Y24248250D01*
X25565000Y24241250D01*
X25572000Y24230750D01*
X25576670Y24218500D01*
X25579000Y24204500D01*
Y24190500D01*
X25576670Y24176500D01*
X25572000Y24164250D01*
X25565000Y24153750D01*
X25556830Y24146750D01*
X25547500Y24145000D01*
G01X25627500D02*
Y24250000D01*
X25613500Y24229000D01*
G01Y24145000D02*
X25641500D01*
G01X25685330Y24232500D02*
X25692330Y24243000D01*
X25700500Y24248250D01*
X25709830Y24250000D01*
X25721500Y24246500D01*
X25729670Y24237750D01*
X25732000Y24227250D01*
X25730830Y24216750D01*
X25726170Y24208000D01*
X25702830Y24190500D01*
X25692330Y24178250D01*
X25685330Y24160750D01*
X25683000Y24145000D01*
X25732000D01*
G01X25181670Y24865000D02*
Y24760000D01*
X25228330D01*
G01X25261670D02*
Y24865000D01*
X25289670D01*
X25299000Y24859750D01*
X25306000Y24847500D01*
X25308330Y24833500D01*
X25306000Y24819500D01*
X25300170Y24809000D01*
X25289670Y24803750D01*
X25261670D01*
G01X25134170Y26125000D02*
Y26020000D01*
X25180830D01*
G01X25213000Y26034000D02*
X25222330Y26025250D01*
X25232830Y26020000D01*
X25242170D01*
X25251500Y26025250D01*
X25258500Y26034000D01*
X25262000Y26046250D01*
X25259670Y26058500D01*
X25253830Y26069000D01*
X25243330Y26076000D01*
X25229330Y26079500D01*
X25221170Y26086500D01*
X25217670Y26098750D01*
X25220000Y26111000D01*
X25225830Y26119750D01*
X25234000Y26125000D01*
X25242170D01*
X25250330Y26121500D01*
X25257330Y26112750D01*
G01X25282500Y25985000D02*
X25352500D01*
G01X25374170Y26020000D02*
Y26125000D01*
X25402170D01*
X25411500Y26119750D01*
X25418500Y26107500D01*
X25420830Y26093500D01*
X25418500Y26079500D01*
X25412670Y26069000D01*
X25402170Y26063750D01*
X25374170D01*
G01X25442500Y26125000D02*
X25458830Y26020000D01*
X25477500Y26125000D01*
X25496170Y26020000D01*
X25512500Y26125000D01*
G01X25534170Y26020000D02*
Y26125000D01*
X25563330D01*
X25572670Y26119750D01*
X25578500Y26112750D01*
X25580830Y26098750D01*
X25578500Y26084750D01*
X25571500Y26076000D01*
X25563330Y26070750D01*
X25534170D01*
G01X25563330D02*
X25580830Y26020000D01*
G01X25295500Y25847500D02*
X25344500Y25952500D01*
G01X25295500D02*
X25344500Y25847500D01*
G01X25374330D02*
Y25952500D01*
X25397670D01*
X25407000Y25947250D01*
X25414000Y25940250D01*
X25419830Y25929750D01*
X25424500Y25917500D01*
X25425670Y25900000D01*
X25424500Y25882500D01*
X25419830Y25870250D01*
X25414000Y25859750D01*
X25407000Y25852750D01*
X25397670Y25847500D01*
X25374330D01*
G01X25455500Y25861500D02*
X25464830Y25852750D01*
X25475330Y25847500D01*
X25484670D01*
X25494000Y25852750D01*
X25501000Y25861500D01*
X25504500Y25873750D01*
X25502170Y25886000D01*
X25496330Y25896500D01*
X25485830Y25903500D01*
X25471830Y25907000D01*
X25463670Y25914000D01*
X25460170Y25926250D01*
X25462500Y25938500D01*
X25468330Y25947250D01*
X25476500Y25952500D01*
X25484670D01*
X25492830Y25949000D01*
X25499830Y25940250D01*
G01X25560000Y25847500D02*
Y25952500D01*
X25546000Y25931500D01*
G01Y25847500D02*
X25574000D01*
G01X25640000D02*
Y25952500D01*
X25626000Y25931500D01*
G01Y25847500D02*
X25654000D01*
G01X25720000Y25952500D02*
X25710670Y25949000D01*
X25703670Y25940250D01*
X25699000Y25929750D01*
X25695500Y25915750D01*
X25694330Y25900000D01*
X25695500Y25884250D01*
X25699000Y25870250D01*
X25703670Y25859750D01*
X25710670Y25851000D01*
X25720000Y25847500D01*
X25729330Y25851000D01*
X25736330Y25859750D01*
X25741000Y25870250D01*
X25744500Y25884250D01*
X25745670Y25900000D01*
X25744500Y25915750D01*
X25741000Y25929750D01*
X25736330Y25940250D01*
X25729330Y25949000D01*
X25720000Y25952500D01*
G01X25299170Y25712500D02*
Y25817500D01*
X25327170D01*
X25336500Y25812250D01*
X25343500Y25800000D01*
X25345830Y25786000D01*
X25343500Y25772000D01*
X25337670Y25761500D01*
X25327170Y25756250D01*
X25299170D01*
G01X25402500Y25712500D02*
X25395500Y25714250D01*
X25388500Y25721250D01*
X25383830Y25733500D01*
X25381500Y25747500D01*
X25383830Y25761500D01*
X25388500Y25773750D01*
X25395500Y25780750D01*
X25402500Y25782500D01*
X25409500Y25780750D01*
X25416500Y25773750D01*
X25421170Y25761500D01*
X25422330Y25747500D01*
X25421170Y25733500D01*
X25416500Y25721250D01*
X25409500Y25714250D01*
X25402500Y25712500D01*
G01X25453330Y25782500D02*
X25467330Y25712500D01*
X25482500Y25782500D01*
X25497670Y25712500D01*
X25511670Y25782500D01*
G01X25545000Y25759750D02*
X25582330D01*
X25578830Y25772000D01*
X25573000Y25779000D01*
X25564830Y25782500D01*
X25556670Y25780750D01*
X25549670Y25775500D01*
X25545000Y25763250D01*
X25542670Y25752750D01*
Y25742250D01*
X25545000Y25731750D01*
X25550830Y25721250D01*
X25557830Y25714250D01*
X25566000Y25712500D01*
X25574170Y25716000D01*
X25582330Y25726500D01*
G01X25626170Y25712500D02*
Y25782500D01*
G01Y25768500D02*
X25632000Y25775500D01*
X25637830Y25780750D01*
X25646000Y25782500D01*
X25651830Y25780750D01*
X25658830Y25775500D01*
G01X25338330Y25530000D02*
X25291670D01*
Y25635000D01*
X25338330D01*
G01X25319670Y25584250D02*
X25291670D01*
G01X25377500Y25600000D02*
X25412500Y25530000D01*
G01Y25600000D02*
X25377500Y25530000D01*
G01X25475000Y25635000D02*
Y25530000D01*
G01X25458670Y25600000D02*
X25491330D01*
G01X25537500Y25577250D02*
X25574830D01*
X25571330Y25589500D01*
X25565500Y25596500D01*
X25557330Y25600000D01*
X25549170Y25598250D01*
X25542170Y25593000D01*
X25537500Y25580750D01*
X25535170Y25570250D01*
Y25559750D01*
X25537500Y25549250D01*
X25543330Y25538750D01*
X25550330Y25531750D01*
X25558500Y25530000D01*
X25566670Y25533500D01*
X25574830Y25544000D01*
G01X25618670Y25530000D02*
Y25600000D01*
G01Y25586000D02*
X25624500Y25593000D01*
X25630330Y25598250D01*
X25638500Y25600000D01*
X25644330Y25598250D01*
X25651330Y25593000D01*
G01X25695170Y25530000D02*
Y25600000D01*
G01Y25582500D02*
X25699830Y25591250D01*
X25706830Y25598250D01*
X25716170Y25600000D01*
X25724330Y25598250D01*
X25731330Y25591250D01*
X25734830Y25579000D01*
Y25530000D01*
G01X25291670Y25380000D02*
Y25485000D01*
X25319670D01*
X25329000Y25479750D01*
X25336000Y25467500D01*
X25338330Y25453500D01*
X25336000Y25439500D01*
X25330170Y25429000D01*
X25319670Y25423750D01*
X25291670D01*
G01X25365830Y25450000D02*
X25379830Y25380000D01*
X25395000Y25450000D01*
X25410170Y25380000D01*
X25424170Y25450000D01*
G01X25458670Y25380000D02*
Y25450000D01*
G01Y25436000D02*
X25464500Y25443000D01*
X25470330Y25448250D01*
X25478500Y25450000D01*
X25484330Y25448250D01*
X25491330Y25443000D01*
G54D15*
G01X20177500Y17600000D02*
X25685000D01*
G03X25855000Y17795000I-14022J183827D01*
G01Y24500000D01*
G03X25745000Y24815000I-506023J0D01*
G02X25635000Y25130000I396023J315000D01*
G02X25745000Y25445000I506023J0D01*
G03X25855000Y25760000I-396023J315000D01*
G01Y29433800D01*
G03X25708800Y29580000I-146200J0D01*
G01X21585000D01*
Y29460000D01*
X21425000D01*
Y29250000D01*
X21335000D01*
Y29460000D01*
X20955000D01*
Y29250000D01*
X20865000D01*
Y29460000D01*
X20705000D01*
Y29580000D01*
X20151200D01*
G03X20005000Y29433800I0J-146200D01*
G01Y25760000D01*
G03X20115000Y25445000I506023J0D01*
G02X20225000Y25130000I-396023J-315000D01*
G02X20115000Y24815000I-506023J0D01*
G03X20005000Y24500000I396023J-315000D01*
G01Y17795000D01*
G03X20177500Y17600000I205417J7917D01*
G01X23856330Y15422890D02*
X23875290Y15407020D01*
X23896620Y15397500D01*
X23915580D01*
X23934540Y15407020D01*
X23948760Y15422890D01*
X23955870Y15445130D01*
X23951130Y15467350D01*
X23939280Y15486400D01*
X23917950Y15499100D01*
X23889510Y15505450D01*
X23872920Y15518150D01*
X23865810Y15540370D01*
X23870550Y15562600D01*
X23882400Y15578470D01*
X23898990Y15588000D01*
X23915580D01*
X23932170Y15581650D01*
X23946390Y15565770D01*
G01X24068160Y15588000D02*
X24125040D01*
G01X24096600D02*
Y15397500D01*
G01X24068160D02*
X24125040D01*
G01X24239700Y15588000D02*
Y15397500D01*
X24334500D01*
G01X24425460D02*
Y15588000D01*
G01X24515520D02*
X24425460Y15470520D01*
G01X24529740Y15397500D02*
X24465750Y15524500D01*
G01X24668100Y15588000D02*
Y15397500D01*
G01X24613590Y15588000D02*
X24722610D01*
G01X24858600Y15397500D02*
X24839640Y15400670D01*
X24823050Y15413370D01*
X24808830Y15432420D01*
X24799350Y15454650D01*
X24794610Y15480050D01*
Y15505450D01*
X24799350Y15530850D01*
X24808830Y15553080D01*
X24823050Y15572120D01*
X24839640Y15584830D01*
X24858600Y15588000D01*
X24877560Y15584830D01*
X24894150Y15572120D01*
X24908370Y15553080D01*
X24917850Y15530850D01*
X24922590Y15505450D01*
Y15480050D01*
X24917850Y15454650D01*
X24908370Y15432420D01*
X24894150Y15413370D01*
X24877560Y15400670D01*
X24858600Y15397500D01*
G01X25001700D02*
Y15588000D01*
X25058580D01*
X25077540Y15578470D01*
X25091760Y15556250D01*
X25096500Y15530850D01*
X25091760Y15505450D01*
X25079910Y15486400D01*
X25058580Y15476870D01*
X25001700D01*
G01X24153160Y14886200D02*
Y15076700D01*
X24200560D01*
X24219520Y15067170D01*
X24233740Y15054470D01*
X24245590Y15035430D01*
X24255070Y15013200D01*
X24257440Y14981450D01*
X24255070Y14949700D01*
X24245590Y14927470D01*
X24233740Y14908420D01*
X24219520Y14895720D01*
X24200560Y14886200D01*
X24153160D01*
G01X24336550D02*
X24395800Y15076700D01*
X24455050Y14886200D01*
G01X24433720Y14952870D02*
X24357880D01*
G01X24586300Y15076700D02*
Y14886200D01*
G01X24531790Y15076700D02*
X24640810D01*
G01X24824200Y14886200D02*
X24729400D01*
Y15076700D01*
X24824200D01*
G01X24786280Y14984630D02*
X24729400D01*
G01X24967300Y14879850D02*
X24962560Y14883030D01*
Y14889370D01*
X24967300Y14892550D01*
X24972040Y14889370D01*
Y14883030D01*
X24967300Y14879850D01*
G01Y14965570D02*
X24962560Y14968750D01*
Y14975100D01*
X24967300Y14978270D01*
X24972040Y14975100D01*
Y14968750D01*
X24967300Y14965570D01*
G01X25303270Y15044950D02*
X25317490Y15064000D01*
X25334080Y15073530D01*
X25353040Y15076700D01*
X25376740Y15070350D01*
X25393330Y15054470D01*
X25398070Y15035430D01*
X25395700Y15016370D01*
X25386220Y15000500D01*
X25338820Y14968750D01*
X25317490Y14946520D01*
X25303270Y14914770D01*
X25298530Y14886200D01*
X25398070D01*
G01X25538800Y15076700D02*
X25519840Y15070350D01*
X25505620Y15054470D01*
X25496140Y15035430D01*
X25489030Y15010020D01*
X25486660Y14981450D01*
X25489030Y14952870D01*
X25496140Y14927470D01*
X25505620Y14908420D01*
X25519840Y14892550D01*
X25538800Y14886200D01*
X25557760Y14892550D01*
X25571980Y14908420D01*
X25581460Y14927470D01*
X25588570Y14952870D01*
X25590940Y14981450D01*
X25588570Y15010020D01*
X25581460Y15035430D01*
X25571980Y15054470D01*
X25557760Y15070350D01*
X25538800Y15076700D01*
G01X25729300Y14886200D02*
Y15076700D01*
X25700860Y15038600D01*
G01Y14886200D02*
X25757740D01*
G01X25919800D02*
X25936390Y14889370D01*
X25955350Y14898900D01*
X25967200Y14914770D01*
X25971940Y14937000D01*
X25967200Y14959220D01*
X25952980Y14978270D01*
X25931650Y14987800D01*
X25907950D01*
X25893730Y14994150D01*
X25881880Y15010020D01*
X25877140Y15032250D01*
X25884250Y15054470D01*
X25900840Y15070350D01*
X25919800Y15076700D01*
X25938760Y15070350D01*
X25955350Y15054470D01*
X25962460Y15032250D01*
X25957720Y15010020D01*
X25945870Y14994150D01*
X25931650Y14987800D01*
X25907950D01*
X25886620Y14978270D01*
X25872400Y14959220D01*
X25867660Y14937000D01*
X25872400Y14914770D01*
X25884250Y14898900D01*
X25903210Y14889370D01*
X25919800Y14886200D01*
G01X26079490Y14949700D02*
X26141110D01*
G01X26300800Y14886200D02*
Y15076700D01*
X26272360Y15038600D01*
G01Y14886200D02*
X26329240D01*
G01X26491300Y15076700D02*
X26472340Y15070350D01*
X26458120Y15054470D01*
X26448640Y15035430D01*
X26441530Y15010020D01*
X26439160Y14981450D01*
X26441530Y14952870D01*
X26448640Y14927470D01*
X26458120Y14908420D01*
X26472340Y14892550D01*
X26491300Y14886200D01*
X26510260Y14892550D01*
X26524480Y14908420D01*
X26533960Y14927470D01*
X26541070Y14952870D01*
X26543440Y14981450D01*
X26541070Y15010020D01*
X26533960Y15035430D01*
X26524480Y15054470D01*
X26510260Y15070350D01*
X26491300Y15076700D01*
G01X26650990Y14949700D02*
X26712610D01*
G01X26872300Y14886200D02*
Y15076700D01*
X26843860Y15038600D01*
G01Y14886200D02*
X26900740D01*
G01X27062800Y15076700D02*
X27043840Y15070350D01*
X27029620Y15054470D01*
X27020140Y15035430D01*
X27013030Y15010020D01*
X27010660Y14981450D01*
X27013030Y14952870D01*
X27020140Y14927470D01*
X27029620Y14908420D01*
X27043840Y14892550D01*
X27062800Y14886200D01*
X27081760Y14892550D01*
X27095980Y14908420D01*
X27105460Y14927470D01*
X27112570Y14952870D01*
X27114940Y14981450D01*
X27112570Y15010020D01*
X27105460Y15035430D01*
X27095980Y15054470D01*
X27081760Y15070350D01*
X27062800Y15076700D01*
G01X24200300Y16071700D02*
Y15881200D01*
G01X24145790Y16071700D02*
X24254810D01*
G01X24438200Y15881200D02*
X24343400D01*
Y16071700D01*
X24438200D01*
G01X24400280Y15979630D02*
X24343400D01*
G01X24531530Y15881200D02*
X24631070Y16071700D01*
G01X24531530D02*
X24631070Y15881200D01*
G01X24712550D02*
X24771800Y16071700D01*
X24831050Y15881200D01*
G01X24809720Y15947870D02*
X24733880D01*
G01X24912530Y15906590D02*
X24931490Y15890720D01*
X24952820Y15881200D01*
X24971780D01*
X24990740Y15890720D01*
X25004960Y15906590D01*
X25012070Y15928830D01*
X25007330Y15951050D01*
X24995480Y15970100D01*
X24974150Y15982800D01*
X24945710Y15989150D01*
X24929120Y16001850D01*
X24922010Y16024070D01*
X24926750Y16046300D01*
X24938600Y16062170D01*
X24955190Y16071700D01*
X24971780D01*
X24988370Y16065350D01*
X25002590Y16049470D01*
G01X25314860Y16071700D02*
X25371740D01*
G01X25343300D02*
Y15881200D01*
G01X25314860D02*
X25371740D01*
G01X25479290D02*
Y16071700D01*
X25588310Y15881200D01*
Y16071700D01*
G01X25674530Y15906590D02*
X25693490Y15890720D01*
X25714820Y15881200D01*
X25733780D01*
X25752740Y15890720D01*
X25766960Y15906590D01*
X25774070Y15928830D01*
X25769330Y15951050D01*
X25757480Y15970100D01*
X25736150Y15982800D01*
X25707710Y15989150D01*
X25691120Y16001850D01*
X25684010Y16024070D01*
X25688750Y16046300D01*
X25700600Y16062170D01*
X25717190Y16071700D01*
X25733780D01*
X25750370Y16065350D01*
X25764590Y16049470D01*
G01X25914800Y16071700D02*
Y15881200D01*
G01X25860290Y16071700D02*
X25969310D01*
G01X26057900Y15881200D02*
Y16071700D01*
X26117150D01*
X26136110Y16062170D01*
X26147960Y16049470D01*
X26152700Y16024070D01*
X26147960Y15998670D01*
X26133740Y15982800D01*
X26117150Y15973270D01*
X26057900D01*
G01X26117150D02*
X26152700Y15881200D01*
G01X26243660Y16071700D02*
Y15935180D01*
X26253140Y15906590D01*
X26272100Y15887550D01*
X26295800Y15881200D01*
X26319500Y15887550D01*
X26338460Y15906590D01*
X26347940Y15935180D01*
Y16071700D01*
G01X26424680Y15881200D02*
Y16071700D01*
X26486300Y15912950D01*
X26547920Y16071700D01*
Y15881200D01*
G01X26724200D02*
X26629400D01*
Y16071700D01*
X26724200D01*
G01X26686280Y15979630D02*
X26629400D01*
G01X26812790Y15881200D02*
Y16071700D01*
X26921810Y15881200D01*
Y16071700D01*
G01X27057800D02*
Y15881200D01*
G01X27003290Y16071700D02*
X27112310D01*
G01X27198530Y15906590D02*
X27217490Y15890720D01*
X27238820Y15881200D01*
X27257780D01*
X27276740Y15890720D01*
X27290960Y15906590D01*
X27298070Y15928830D01*
X27293330Y15951050D01*
X27281480Y15970100D01*
X27260150Y15982800D01*
X27231710Y15989150D01*
X27215120Y16001850D01*
X27208010Y16024070D01*
X27212750Y16046300D01*
X27224600Y16062170D01*
X27241190Y16071700D01*
X27257780D01*
X27274370Y16065350D01*
X27288590Y16049470D01*
G01X24060150Y26470000D02*
X24095850Y26546000D01*
G01X24060150D02*
X24095850Y26470000D01*
G01X24118200D02*
Y26546000D01*
X24135200D01*
X24142000Y26542200D01*
X24147100Y26537130D01*
X24151350Y26529530D01*
X24154750Y26520670D01*
X24155600Y26508000D01*
X24154750Y26495330D01*
X24151350Y26486470D01*
X24147100Y26478860D01*
X24142000Y26473800D01*
X24135200Y26470000D01*
X24118200D01*
G01X24177950Y26480130D02*
X24184750Y26473800D01*
X24192400Y26470000D01*
X24199200D01*
X24206000Y26473800D01*
X24211100Y26480130D01*
X24213650Y26489000D01*
X24211950Y26497870D01*
X24207700Y26505470D01*
X24200050Y26510530D01*
X24189850Y26513070D01*
X24183900Y26518130D01*
X24181350Y26527000D01*
X24183050Y26535870D01*
X24187300Y26542200D01*
X24193250Y26546000D01*
X24199200D01*
X24205150Y26543470D01*
X24210250Y26537130D01*
G01X24254700Y26470000D02*
Y26546000D01*
X24244500Y26530800D01*
G01Y26470000D02*
X24264900D01*
G01X24313600D02*
Y26546000D01*
X24303400Y26530800D01*
G01Y26470000D02*
X24323800D01*
G01X24372500Y26546000D02*
X24365700Y26543470D01*
X24360600Y26537130D01*
X24357200Y26529530D01*
X24354650Y26519400D01*
X24353800Y26508000D01*
X24354650Y26496600D01*
X24357200Y26486470D01*
X24360600Y26478860D01*
X24365700Y26472530D01*
X24372500Y26470000D01*
X24379300Y26472530D01*
X24384400Y26478860D01*
X24387800Y26486470D01*
X24390350Y26496600D01*
X24391200Y26508000D01*
X24390350Y26519400D01*
X24387800Y26529530D01*
X24384400Y26537130D01*
X24379300Y26543470D01*
X24372500Y26546000D01*
G01X24490300Y26470000D02*
X24483500Y26471270D01*
X24477550Y26476330D01*
X24472450Y26483930D01*
X24469050Y26492800D01*
X24467350Y26502930D01*
Y26513070D01*
X24469050Y26523200D01*
X24472450Y26532070D01*
X24477550Y26539670D01*
X24483500Y26544730D01*
X24490300Y26546000D01*
X24497100Y26544730D01*
X24503050Y26539670D01*
X24508150Y26532070D01*
X24511550Y26523200D01*
X24513250Y26513070D01*
Y26502930D01*
X24511550Y26492800D01*
X24508150Y26483930D01*
X24503050Y26476330D01*
X24497100Y26471270D01*
X24490300Y26470000D01*
G01X24534750Y26520670D02*
Y26485200D01*
X24538150Y26476330D01*
X24543250Y26471270D01*
X24549200Y26470000D01*
X24555150Y26471270D01*
X24560250Y26476330D01*
X24563650Y26485200D01*
G01Y26470000D02*
Y26520670D01*
G01X24608100Y26546000D02*
Y26470000D01*
G01X24596200Y26520670D02*
X24620000D01*
G01X25242500Y15451200D02*
X25256130Y15372500D01*
X25271700Y15451200D01*
X25287270Y15372500D01*
X25300900Y15451200D01*
G01X25371810Y15444640D02*
X25365970Y15448580D01*
X25359160Y15451200D01*
X25351370D01*
X25342610Y15447260D01*
X25335800Y15440710D01*
X25330930Y15432840D01*
X25327040Y15419720D01*
X25326070Y15407910D01*
X25328010Y15396110D01*
X25330930Y15388240D01*
X25336770Y15380370D01*
X25343590Y15375120D01*
X25350400Y15372500D01*
X25357210D01*
X25364030Y15375120D01*
X25369870Y15379060D01*
X25374730Y15384300D01*
G01X25408660Y15382990D02*
X25416450Y15376430D01*
X25425210Y15372500D01*
X25432990D01*
X25440780Y15376430D01*
X25446620Y15382990D01*
X25449540Y15392180D01*
X25447590Y15401360D01*
X25442730Y15409230D01*
X25433970Y15414470D01*
X25422290Y15417100D01*
X25415470Y15422340D01*
X25412550Y15431520D01*
X25414500Y15440710D01*
X25419370Y15447260D01*
X25426180Y15451200D01*
X25432990D01*
X25439810Y15448580D01*
X25445650Y15442020D01*
G01X25507800Y15451200D02*
X25500010Y15448580D01*
X25494170Y15442020D01*
X25490280Y15434150D01*
X25487360Y15423650D01*
X25486390Y15411850D01*
X25487360Y15400040D01*
X25490280Y15389550D01*
X25494170Y15381680D01*
X25500010Y15375120D01*
X25507800Y15372500D01*
X25515590Y15375120D01*
X25521430Y15381680D01*
X25525320Y15389550D01*
X25528240Y15400040D01*
X25529210Y15411850D01*
X25528240Y15423650D01*
X25525320Y15434150D01*
X25521430Y15442020D01*
X25515590Y15448580D01*
X25507800Y15451200D01*
G01X25598180Y15372500D02*
Y15451200D01*
X25562170Y15394800D01*
X25610830D01*
G01X25646710Y15438080D02*
X25652550Y15445950D01*
X25659360Y15449890D01*
X25667150Y15451200D01*
X25676880Y15448580D01*
X25683690Y15442020D01*
X25685640Y15434150D01*
X25684670Y15426280D01*
X25680770Y15419720D01*
X25661310Y15406600D01*
X25652550Y15397420D01*
X25646710Y15384300D01*
X25644760Y15372500D01*
X25685640D01*
G01X25801190D02*
Y15451200D01*
X25820650D01*
X25828440Y15447260D01*
X25834280Y15442020D01*
X25839150Y15434150D01*
X25843040Y15424970D01*
X25844010Y15411850D01*
X25843040Y15398730D01*
X25839150Y15389550D01*
X25834280Y15381680D01*
X25828440Y15376430D01*
X25820650Y15372500D01*
X25801190D01*
G01X25237230Y15641200D02*
Y15562500D01*
X25276170D01*
G01X25311070D02*
X25335400Y15641200D01*
X25359730Y15562500D01*
G01X25350970Y15590040D02*
X25319830D01*
G01X25392690Y15641200D02*
Y15584800D01*
X25396580Y15572990D01*
X25404370Y15565120D01*
X25414100Y15562500D01*
X25423830Y15565120D01*
X25431620Y15572990D01*
X25435510Y15584800D01*
Y15641200D01*
G01X25470410Y15562500D02*
Y15641200D01*
X25515190Y15562500D01*
Y15641200D01*
G01X25592910Y15634640D02*
X25587070Y15638580D01*
X25580260Y15641200D01*
X25572470D01*
X25563710Y15637260D01*
X25556900Y15630710D01*
X25552030Y15622840D01*
X25548140Y15609720D01*
X25547170Y15597910D01*
X25549110Y15586110D01*
X25552030Y15578240D01*
X25557870Y15570370D01*
X25564690Y15565120D01*
X25571500Y15562500D01*
X25578310D01*
X25585130Y15565120D01*
X25590970Y15569060D01*
X25595830Y15574300D01*
G01X25629760Y15562500D02*
Y15641200D01*
G01X25670640D02*
Y15562500D01*
G01Y15601850D02*
X25629760D01*
G01X25708460Y15562500D02*
X25749340Y15641200D01*
G01X25708460D02*
X25749340Y15562500D01*
G01X25788130Y15641200D02*
Y15562500D01*
X25827070D01*
G01X25873650Y15588730D02*
X25898950D01*
G01X25986410Y15634640D02*
X25980570Y15638580D01*
X25973760Y15641200D01*
X25965970D01*
X25957210Y15637260D01*
X25950400Y15630710D01*
X25945530Y15622840D01*
X25941640Y15609720D01*
X25940670Y15597910D01*
X25942610Y15586110D01*
X25945530Y15578240D01*
X25951370Y15570370D01*
X25958190Y15565120D01*
X25965000Y15562500D01*
X25971810D01*
X25978630Y15565120D01*
X25984470Y15569060D01*
X25989330Y15574300D01*
G01X26065110Y15634640D02*
X26059270Y15638580D01*
X26052460Y15641200D01*
X26044670D01*
X26035910Y15637260D01*
X26029100Y15630710D01*
X26024230Y15622840D01*
X26020340Y15609720D01*
X26019370Y15597910D01*
X26021310Y15586110D01*
X26024230Y15578240D01*
X26030070Y15570370D01*
X26036890Y15565120D01*
X26043700Y15562500D01*
X26050510D01*
X26057330Y15565120D01*
X26063170Y15569060D01*
X26068030Y15574300D01*
G01X26122400Y15562500D02*
Y15641200D01*
X26110720Y15625460D01*
G01Y15562500D02*
X26134080D01*
G01X26179690Y15578240D02*
X26185530Y15569060D01*
X26193310Y15563810D01*
X26202070Y15562500D01*
X26209860Y15563810D01*
X26217650Y15570370D01*
X26222510Y15578240D01*
X26223490Y15586110D01*
X26221540Y15595290D01*
X26214730Y15601850D01*
X26207910Y15604470D01*
X26199150D01*
G01X26207910D02*
X26213750Y15608410D01*
X26218620Y15614970D01*
X26220570Y15622840D01*
X26218620Y15630710D01*
X26213750Y15637260D01*
X26204990Y15641200D01*
X26196230Y15639890D01*
X26187470Y15634640D01*
G01X26279800Y15562500D02*
Y15641200D01*
X26268120Y15625460D01*
G01Y15562500D02*
X26291480D01*
G01X26340010Y15628080D02*
X26345850Y15635950D01*
X26352660Y15639890D01*
X26360450Y15641200D01*
X26370180Y15638580D01*
X26376990Y15632020D01*
X26378940Y15624150D01*
X26377970Y15616280D01*
X26374070Y15609720D01*
X26354610Y15596600D01*
X26345850Y15587420D01*
X26340010Y15574300D01*
X26338060Y15562500D01*
X26378940D01*
G01X26417730D02*
Y15641200D01*
X26442070D01*
X26449850Y15637260D01*
X26454720Y15632020D01*
X26456670Y15621520D01*
X26454720Y15611030D01*
X26448880Y15604470D01*
X26442070Y15600540D01*
X26417730D01*
G01X26442070D02*
X26456670Y15562500D01*
G01X26515900D02*
Y15641200D01*
X26504220Y15625460D01*
G01Y15562500D02*
X26527580D01*
G01X26651890D02*
Y15641200D01*
X26671350D01*
X26679140Y15637260D01*
X26684980Y15632020D01*
X26689850Y15624150D01*
X26693740Y15614970D01*
X26694710Y15601850D01*
X26693740Y15588730D01*
X26689850Y15579550D01*
X26684980Y15571680D01*
X26679140Y15566430D01*
X26671350Y15562500D01*
X26651890D01*
M02*
