G04 ================== begin FILE IDENTIFICATION RECORD ==================*
G04 Layout Name:  LAUNCHXL-CC1312R1.brd*
G04 Film Name:    WCS042D_LAUNCHXL-CC1312R1_D_Layer2*
G04 File Format:  Gerber RS274X*
G04 File Origin:  Cadence Allegro 17.2-S024*
G04 Origin Date:  Wed Oct 10 12:29:49 2018*
G04 *
G04 Layer:  BOARD GEOMETRY/LAYER2*
G04 Layer:  DRAWING FORMAT/TITLE_BLOCK*
G04 Layer:  BOARD GEOMETRY/OUTLINE*
G04 Layer:  ETCH/L2*
G04 Layer:  PIN/L2*
G04 Layer:  VIA CLASS/L2*
G04 *
G04 Offset:    (0.0000 0.0000)*
G04 Mirror:    No*
G04 Mode:      Positive*
G04 Rotation:  0*
G04 FullContactRelief:  No*
G04 UndefLineWidth:     0.0200*
G04 ================== end FILE IDENTIFICATION RECORD ====================*
%FSLAX25Y25*MOMM*%
%IR0*IPPOS*OFA0.00000B0.00000*MIA0B0*SFA1.00000B1.00000*%
%ADD15C,.1*%
%ADD11C,.4*%
%ADD17C,.5*%
%ADD16O,1.4X2.1*%
%ADD10C,3.8*%
%ADD12C,1.65*%
%ADD13C,.099*%
%ADD14C,1.699*%
%ADD18C,.3*%
%ADD19C,.15*%
%ADD20C,.7*%
%ADD21C,1.*%
%ADD22C,.02*%
%ADD24C,.624*%
%ADD25C,2.004*%
%ADD26C,1.324*%
%ADD23C,1.954*%
G75*
%LPD*%
G75*
G36*
G01X25800000Y25846200D02*
Y25710600D01*
G02X25799900Y25709400I-9983J228D01*
G01X25790000Y25630400D01*
G02X25789900Y25629600I-9924J834D01*
G01X25783600Y25598000D01*
G03X25783400Y25596000I9802J-1990D01*
G01Y25588600D01*
X25783000Y25587200D01*
G02X25700800Y25426200I-439087J122696D01*
G03X25610100Y25260900I435158J-346304D01*
G02X25603700Y25254600I-9452J3201D01*
G01X25588200Y25249700D01*
G02X25579200Y25251200I-3033J9555D01*
G03X25556000Y25133700I-39228J-53295D01*
G02X25564800Y25131600I2330J-9726D01*
G01X25577300Y25121300D01*
G02X25580900Y25113000I-6400J-7707D01*
G03X25580600Y25052700I555132J-32913D01*
G02X25576900Y25044500I-9987J-428D01*
G01X25564500Y25034200D01*
G02X25555700Y25032200I-6379J7710D01*
G03X25578000Y24913700I-15706J-64304D01*
G02X25586900Y24915000I5740J-8181D01*
G01X25602200Y24910000D01*
G02X25608600Y24903600I-3105J-9505D01*
G03X25700800Y24733800I527398J176441D01*
G02X25799900Y24450100I-356829J-283803D01*
G01Y20265000D01*
G02X25789900Y20255000I-10000J0D01*
G01X20060100D01*
G02X20050100Y20265000I0J10000D01*
G01Y24450100D01*
G02X20149200Y24733800I455929J-103D01*
G03X20243400Y24909700I-435200J346237D01*
G01Y24909800D01*
G02X20249900Y24916200I9489J-3137D01*
G01X20265700Y24921200D01*
G02X20274700Y24919600I2941J-9572D01*
G01Y24919500D01*
G03X20295500Y25035400I40262J52591D01*
G02X20286500Y25037000I-2946J9540D01*
G01X20273400Y25047100D01*
G02X20269600Y25055400I6180J7849D01*
G01Y25055500D01*
G03X20268800Y25118500I-555610J24450D01*
G02X20272600Y25127100I9964J737D01*
G01X20285700Y25137400D01*
G02X20294900Y25139000I6115J-7909D01*
G03X20271900Y25252300I20111J63067D01*
G02X20262700Y25250300I-6475J7626D01*
G01X20246600Y25254600D01*
G02X20239800Y25261000I2677J9657D01*
G01Y25261100D01*
G03X20149200Y25426200I-525804J-181130D01*
G02X20067000Y25587200I356887J283696D01*
G01X20066600Y25588600D01*
Y25596000D01*
G03X20066400Y25598000I-10002J10D01*
G01X20060100Y25629500D01*
G02X20060000Y25630500I9851J1490D01*
G01X20050000Y25729500D01*
G02Y25730500I10000J500D01*
G01X20050100Y29134300D01*
G02X20056900Y29143800I10009J20D01*
G01X20075100Y29149800D01*
G02X20086200Y29146400I3172J-9462D01*
G03X20360600Y29442900I163782J123649D01*
G01X20360500D01*
G02X20356300Y29454100I5409J8416D01*
G01X20361700Y29472700D01*
G02X20371300Y29479900I9611J-2814D01*
G01X20639900D01*
G02X20649900Y29469900I0J-10000D01*
G01Y29369900D01*
G03X20659900Y29359900I10000J0D01*
G01X20664800Y29355000D01*
Y29328800D01*
X20664300Y29327200D01*
G03X20659800Y29300000I80680J-27320D01*
G01Y29230000D01*
G03X20664300Y29202800I85180J120D01*
G01X20664800Y29201200D01*
Y28911100D01*
G02X20661500Y28903700I-9984J17D01*
G01X20650500Y28893600D01*
G02X20642900Y28891100I-6660J7445D01*
G03X20671000Y28856800I-2931J-31062D01*
G02X20674300Y28863200I9952J-1081D01*
G01X20684300Y28872200D01*
G02X20691000Y28874800I6724J-7395D01*
G01X20767100D01*
G02X20775700Y28869900I-6J-10008D01*
G01X20784500Y28855000D01*
G02X20784700Y28845000I-8582J-5174D01*
G03X20839300I27300J-15000D01*
G02X20839500Y28855000I8782J4826D01*
G01X20848300Y28869900D01*
G02X20856900Y28874800I8606J-5108D01*
G01X20968800D01*
G02X20978800Y28864900I0J-10000D01*
G01Y28864800D01*
G03X21041200I31200J200D01*
G01Y28864900D01*
G02X21051200Y28874800I10000J-100D01*
G01X21062000D01*
G02X21068800Y28872100I-34J-9998D01*
G03X21111200I21200J22900D01*
G02X21118000Y28874800I6834J-7298D01*
G01X21133600D01*
G02X21138800Y28873300I-65J-9990D01*
G03X21171200I16200J26700D01*
G02X21176400Y28874800I5265J-8490D01*
G01X21203600D01*
G02X21208800Y28873300I-65J-9990D01*
G03X21241200I16200J26700D01*
G02X21246400Y28874800I5265J-8490D01*
G01X21605200D01*
G03X21615200Y28884800I0J10000D01*
G01Y29201200D01*
X21615700Y29202800D01*
G03X21620200Y29230000I-80680J27320D01*
G01Y29300000D01*
G03X21615700Y29327200I-85180J-120D01*
G01X21615200Y29328800D01*
Y29349900D01*
G02X21625200Y29359900I10000J0D01*
G01X21630100Y29364800D01*
Y29469900D01*
G02X21640100Y29479900I10000J0D01*
G01X23598900D01*
G02X23606900Y29475900I1J-9997D01*
G01X23616600Y29462900D01*
G02X23618100Y29454000I-8050J-5933D01*
G03X23677900I29900J-9000D01*
G02X23679400Y29462900I9550J2967D01*
G01X23689100Y29475900D01*
G02X23697100Y29479900I7999J-5997D01*
G01X25458700D01*
G02X25468300Y29472700I-11J-10014D01*
G01X25473700Y29454100D01*
G02X25469500Y29442900I-9609J-2784D01*
G01X25469400D01*
G03X25762000Y29175200I110611J-172859D01*
G02X25773200Y29180300I8860J-4609D01*
G01X25792300Y29175700D01*
G02X25799900Y29165900I-2413J-9718D01*
G01Y28096200D01*
X25800000Y25862700D01*
Y25846200D01*
G37*
G36*
G01X20680000Y28900000D02*
Y29349900D01*
G02X20690000Y29359900I10000J0D01*
G01X20799900D01*
G02X20809900Y29349900I0J-10000D01*
G01Y29159900D01*
G03X20819900Y29149900I10000J0D01*
G01X20990100D01*
G03X21000100Y29159900I0J10000D01*
G01Y29349900D01*
G02X21010100Y29359900I10000J0D01*
G01X21269900D01*
G02X21279900Y29349900I0J-10000D01*
G01Y29159900D01*
G03X21289900Y29149900I10000J0D01*
G01X21460100D01*
G03X21470100Y29159900I0J10000D01*
G01Y29349900D01*
G02X21480100Y29359900I10000J0D01*
G01X21590000D01*
G02X21600000Y29349900I0J-10000D01*
G01Y28900000D01*
G02X21590000Y28890000I-10000J0D01*
G01X21373800D01*
G02X21366300Y28893400I12J9999D01*
G03X21313700I-26300J-23400D01*
G02X21306200Y28890000I-7512J6599D01*
G01X21266200D01*
G02X21256200Y28900000I0J10000D01*
G03X21203700Y28922800I-31201J0D01*
G02X21196900Y28920100I-6835J7302D01*
G01X21183100D01*
G02X21176300Y28922800I35J10002D01*
G03X21133400Y28922500I-21292J-22802D01*
G02X21127200Y28919700I-6976J7182D01*
G01X21114400Y28918700D01*
G02X21107900Y28920500I-729J10003D01*
G03X21068100Y28917200I-17921J-25515D01*
G01X21068000D01*
G02X21059800Y28914400I-7001J7095D01*
G01X21044100Y28916300D01*
G02X21036700Y28921100I1192J9942D01*
G03X20979000Y28908100I-26680J-16132D01*
G02X20975700Y28901700I-9945J1077D01*
G01X20965700Y28892600D01*
G02X20959000Y28890000I-6726J7400D01*
G01X20690000D01*
G02X20680000Y28900000I0J10000D01*
G37*
%LPC*%
G75*
G36*
G01X21079000Y28742600D02*
G03X21092400Y28740700I7743J6409D01*
G02X21086000Y28695000I17594J-25762D01*
G03X21072600Y28696900I-7743J-6409D01*
G02X21079000Y28742600I-17594J25762D01*
G37*
G36*
G01X21624800Y28641100D02*
G03Y28628900I8009J-6100D01*
G02X21575200I-24800J-18900D01*
G03Y28641100I-8009J6100D01*
G02X21624800I24800J18900D01*
G37*
G36*
G01X22139200Y28426700D02*
G03X22125800I-6700J-7444D01*
G02Y28473300I-20800J23300D01*
G03X22139200I6700J7444D01*
G02Y28426700I20800J-23300D01*
G37*
G36*
G01X20217100Y28165500D02*
G03X20243100Y28157400I17392J10047D01*
G02X20202500Y28097900I30428J-64364D01*
G03X20185400Y28119100I-20050J1324D01*
G02X20217100Y28165500I4612J30877D01*
G37*
G36*
G01X21374300Y27834600D02*
G03X21397800Y27828700I15650J12584D01*
G02X21385800Y27780400I12289J-28694D01*
G03X21362300Y27786300I-15650J-12584D01*
G02X21374300Y27834600I-12289J28694D01*
G37*
G36*
G01X23017700Y26574900D02*
G02X23072300I27300J15100D01*
G03Y26565100I8720J-4900D01*
G02X23017700I-27300J-15100D01*
G03Y26574900I-8720J4900D01*
G37*
G36*
G01X23948700Y25211700D02*
G02X23992800Y25255800I21300J22800D01*
G03X23993300Y25255300I7316J6816D01*
G02X23949200Y25211200I-21300J-22800D01*
G03X23948700Y25211700I-7316J-6816D01*
G37*
G36*
G01X22911000Y23231300D02*
G03X22897500Y23228900I-5464J-8436D01*
G02X22889500Y23273700I-25011J18648D01*
G03X22903000Y23276100I5464J8436D01*
G02X22911000Y23231300I25011J-18648D01*
G37*
G36*
G01X20241400Y28839000D02*
G02X20220500Y28907100I-69388J15962D01*
G01X20220600D01*
G03X20227500Y28904400I6827J7279D01*
G01X20241400Y28904500D01*
G03X20248200Y28907400I-242J9989D01*
G01X20248300D01*
G02X20293800Y28905200I21720J-22400D01*
G03X20301100Y28901600I7695J6403D01*
G01X20316100Y28901200D01*
G03X20323600Y28904300I263J9987D01*
G02X20305300Y28840300I51387J-49310D01*
G03X20300600Y28846900I-9790J-1999D01*
G01X20287600Y28854400D01*
G03X20279600Y28855300I-5021J-8630D01*
G01X20279500D01*
G02X20264500Y28854300I-9514J29704D01*
G03X20257200Y28852800I-1780J-9849D01*
G01X20245600Y28845100D01*
G03X20241400Y28839000I5540J-8310D01*
G37*
G36*
G01X20600700Y28524700D02*
G02X20569700Y28561200I-30729J5316D01*
G03X20589300Y28577800I-203J20111D01*
G02X20620300Y28541300I30729J-5316D01*
G03X20600700Y28524700I203J-20111D01*
G37*
G36*
G01X20681400Y28381500D02*
G02X20639100Y28356700I-11406J-29021D01*
G03X20626500Y28378100I-19937J2671D01*
G02X20668800Y28402900I11406J29021D01*
G03X20681400Y28381500I19937J-2671D01*
G37*
G36*
G01X20775500Y28086000D02*
G02X20743400Y28066600I-3155J-31036D01*
G03X20726800Y28094100I-18648J7504D01*
G02X20758900Y28113500I3155J31036D01*
G03X20775500Y28086000I18648J-7504D01*
G37*
G36*
G01X22457200Y27769100D02*
G02X22445000Y27806200I-29216J10949D01*
G03X22474800Y27815900I11005J16816D01*
G02X22487000Y27778800I29216J-10949D01*
G03X22457200Y27769100I-11005J-16816D01*
G37*
G36*
G01X20212100Y27808400D02*
G02X20198400Y27763800I12924J-28374D01*
G03X20172900Y27771600I-17157J-10506D01*
G02X20186600Y27816200I-12924J28374D01*
G03X20212100Y27808400I17157J10506D01*
G37*
G36*
G01X20790200Y27796200D02*
G02X20759600Y27758100I-184J-31191D01*
G03X20740100Y27773800I-19617J-4405D01*
G02X20770700Y27811900I184J31191D01*
G03X20790200Y27796200I19617J4405D01*
G37*
G36*
G01X23479800Y27375900D02*
G02Y27424100I-19800J24100D01*
G03X23505200I12700J15588D01*
G02Y27375900I19800J-24100D01*
G03X23479800I-12700J-15588D01*
G37*
G36*
G01X23889500Y26994300D02*
G02X23850500I-19500J-24300D01*
G03Y27025700I-12615J15700D01*
G02X23889500I19500J24300D01*
G03Y26994300I12615J-15700D01*
G37*
G36*
G01X20538200Y26665800D02*
G02X20500900Y26672800I-23213J-20813D01*
G03X20506200Y26679900I-4537J8915D01*
G01X20509200Y26695600D01*
G03X20506800Y26704200I-9846J1887D01*
G02X20498900Y26727900I23171J20890D01*
G03X20497100Y26734800I-9947J1090D01*
G01X20489200Y26745500D01*
G03X20483200Y26749400I-8081J-5868D01*
G02X20521000Y26777000I6713J30490D01*
G03X20522800Y26770100I9947J-1090D01*
G01X20530700Y26759400D01*
G03X20536700Y26755500I8081J5868D01*
G02X20544100Y26697200I-6704J-30471D01*
G03X20538800Y26690100I4537J-8915D01*
G01X20535800Y26674400D01*
G03X20538200Y26665800I9846J-1887D01*
G37*
G36*
G01X23162200Y26635200D02*
G02X23119900Y26647300I-27229J-15202D01*
G03X23127800Y26674800I-9636J17653D01*
G02X23170100Y26662700I27229J15202D01*
G03X23162200Y26635200I9636J-17653D01*
G37*
G36*
G01X22346100Y26328000D02*
G02X22342600Y26375000I-22113J21984D01*
G03X22368900Y26377000I11998J16146D01*
G02X22372400Y26330000I22113J-21984D01*
G03X22346100Y26328000I-11998J-16146D01*
G37*
G36*
G01X25605600Y26368400D02*
G02X25567100Y26370600I-20650J-23394D01*
G03X25568900Y26402100I-11523J16460D01*
G02X25607400Y26399900I20650J23394D01*
G03X25605600Y26368400I11523J-16460D01*
G37*
G36*
G01X25139700Y26274200D02*
G02X25097300Y26271400I-19694J-24199D01*
G03X25095300Y26300800I-14635J13772D01*
G02X25137700Y26303600I19694J24199D01*
G03X25139700Y26274200I14635J-13772D01*
G37*
G36*
G01X23671400Y26198700D02*
G02X23624600I-23400J-20700D01*
G03Y26225300I-15011J13300D01*
G02X23671400I23400J20700D01*
G03Y26198700I15011J-13300D01*
G37*
G36*
G01X22190700Y26178400D02*
G02X22151500Y26181100I-21264J-22812D01*
G03X22153700Y26212200I-11575J16447D01*
G02X22192900Y26209500I21264J22812D01*
G03X22190700Y26178400I11575J-16447D01*
G37*
G36*
G01X24670700Y26020500D02*
G02X24643300Y26046000I-30697J-5513D01*
G03X24665300Y26069500I2200J19988D01*
G02X24692700Y26044000I30697J5513D01*
G03X24670700Y26020500I-2200J-19988D01*
G37*
G36*
G01X22623000Y25801500D02*
G02X22577800Y25747500I47292J-85502D01*
G03X22560800Y25774000I-19024J6499D01*
G02X22594000Y25813600I3211J31025D01*
G03X22623000Y25801500I19321J5505D01*
G37*
G36*
G01X21740700Y25761500D02*
G02X21691200Y25806500I-86494J-45419D01*
G03X21718900Y25823700I7654J18578D01*
G02X21755200Y25790700I31125J-2228D01*
G03X21740700Y25761500I3286J-19832D01*
G37*
G36*
G01X23123100Y24261200D02*
G02X23091800Y24235300I-564J-31182D01*
G03X23072400Y24258800I-19822J3394D01*
G02X23103700Y24284700I564J31182D01*
G03X23123100Y24261200I19822J-3394D01*
G37*
G36*
G01X24536300Y24161200D02*
G02X24506800Y24135300I1244J-31168D01*
G03X24486200Y24158800I-19813J3411D01*
G02X24515700Y24184700I-1244J31168D01*
G03X24536300Y24161200I19813J-3411D01*
G37*
G36*
G01X23275900Y24081400D02*
G02X23266500Y24037700I16590J-26430D01*
G03X23239100Y24043600I-16731J-11125D01*
G02X23248500Y24087300I-16590J26430D01*
G03X23275900Y24081400I16731J11125D01*
G37*
G36*
G01X22701900Y23697800D02*
G02Y23742200I-21900J22200D01*
G03X22730100I14100J14343D01*
G02Y23697800I21900J-22200D01*
G03X22701900I-14100J-14343D01*
G37*
G36*
G01X22314500Y23689300D02*
G02X22275500I-19500J-24300D01*
G03Y23720700I-12615J15700D01*
G02X22314500I19500J24300D01*
G03Y23689300I12615J-15700D01*
G37*
G36*
G01X22447400Y23258000D02*
G02X22398100Y23254900I-23452J-20594D01*
G03X22396600Y23279400I-16620J11278D01*
G02X22445900Y23282500I23452J20594D01*
G03X22447400Y23258000I16620J-11278D01*
G37*
G54D24*
X20215000Y21984400D03*
X21020000Y24020000D03*
X20768000Y25033500D03*
X21000000Y24840000D03*
X21075000Y24935000D03*
X20537500Y26912500D03*
X20575000Y26829900D03*
X21150000Y26020000D03*
X20991500Y26023500D03*
X20969900Y26283800D03*
X21130000D03*
X20885000Y26090000D03*
X20620000Y26210000D03*
X20190000Y27215000D03*
X20265000Y27260000D03*
X21200000Y27700000D03*
X20696000Y28720000D03*
X20752000Y28645000D03*
X20368000Y27995000D03*
X20110000Y27725000D03*
X20228000Y27562300D03*
X20630000Y28117300D03*
X20725000Y27665000D03*
X20536000Y28640000D03*
X20540000Y28435000D03*
X20590000Y27502600D03*
X20675000Y28260000D03*
X20865000Y28055000D03*
X20810000Y27650000D03*
X20710000Y27490000D03*
X20540000Y27570000D03*
X22425000Y22490000D03*
X22420000Y22637500D03*
X22000000Y23985000D03*
X22100000Y24295000D03*
X22150000Y23150000D03*
X21898000Y24125000D03*
X22407500Y22822500D03*
X22535000Y23315000D03*
X21835000Y23060000D03*
X22644000Y24562500D03*
X22500000Y24340000D03*
X22520000Y24780000D03*
X21495000Y24985000D03*
X22416300Y24881300D03*
X22345000Y25035000D03*
X22715000Y25070000D03*
X21376000Y24975000D03*
X22374900Y25875000D03*
X21295000Y26655000D03*
X22250000Y26590000D03*
X22532500Y26592500D03*
X22304000Y27150000D03*
X22452000Y27180000D03*
X22670000Y27295000D03*
X22375000Y27225000D03*
X22237500Y27052500D03*
X22610000Y27230000D03*
X22177600Y26717600D03*
X22563800Y26135000D03*
X21860000Y26360000D03*
X22575000Y26220000D03*
X21295000Y26570000D03*
X21425000Y26525000D03*
X22030000Y27090000D03*
X21575000Y26180000D03*
X22119700Y27307700D03*
X22070000Y26520000D03*
X22330000D03*
X22655000Y27860000D03*
X22375000Y27855000D03*
X22564000Y27865000D03*
X21569900Y27823800D03*
X21465100Y27655000D03*
X22125000Y27940000D03*
X22468000Y28515000D03*
X22427600Y28092700D03*
X22715000Y28070000D03*
X21235000Y27815000D03*
X22235400Y27795000D03*
X21600000Y28110000D03*
X21880000Y28130000D03*
X21294800Y28120500D03*
X21335500Y28535500D03*
X21450000Y28260000D03*
X21355000Y28760000D03*
X22770000Y28580000D03*
X21973800Y28100000D03*
X22080000Y28240000D03*
X21597500Y28235000D03*
X22157600Y29097700D03*
X24150000Y21550000D03*
X24220000Y21610000D03*
X23340000Y22485000D03*
X24104000Y22645000D03*
X23988000Y22695000D03*
X24248600Y22595000D03*
X24315000Y22000000D03*
X23022500Y22320000D03*
X23420000Y23045000D03*
X23172000Y24145000D03*
X23006500Y24153500D03*
X23020000Y23981500D03*
X22968000Y23775000D03*
X24148000Y22895000D03*
X23073000Y23570000D03*
X23022500Y23679500D03*
X24255000Y22935000D03*
X24020000Y22945000D03*
X24175000Y25683100D03*
X23400000Y24700000D03*
X24160000Y24780000D03*
X23705000Y25045000D03*
X24024300Y24772000D03*
X24065000Y25355000D03*
X23970000Y25545000D03*
X23997700Y25868300D03*
X24321900Y25687700D03*
X23803800Y24947100D03*
X23816000Y24765000D03*
X23680000Y25135000D03*
X23672000Y24770000D03*
X23525000Y24775200D03*
X23899900Y24934900D03*
X23500000Y24870000D03*
X23290000Y27295000D03*
X22930000Y26695000D03*
X23017400Y26850000D03*
X22895000Y26150000D03*
X23344000Y26415000D03*
X23416000Y26246000D03*
X23400000Y26770000D03*
X23252000Y26700000D03*
X23055000Y26035000D03*
X23194800Y26555100D03*
X23105000Y27225000D03*
X23225000Y27010000D03*
X23835000Y27340000D03*
X22845000Y26265000D03*
X23856000Y26220000D03*
X23696000Y26019800D03*
X23988000Y25980000D03*
X23995400Y26110000D03*
X23349000Y25969000D03*
X23435000Y26022500D03*
X23780000Y25920000D03*
X23765000Y28960000D03*
X24105000Y27710000D03*
X24228000Y28295000D03*
X23672000Y28830000D03*
X23115000Y27480000D03*
X23135000Y28367000D03*
Y28275000D03*
X23800000Y27755000D03*
X23524000Y28380000D03*
X23510200Y28145000D03*
X22860000Y28580000D03*
X23072000Y28725000D03*
X23413000Y29205000D03*
X23100000Y29180000D03*
X24645000Y21695000D03*
X24555000Y21930000D03*
X24490000Y22025000D03*
X24390000Y23825000D03*
X24470000Y23305000D03*
Y22816400D03*
X24385000Y24070000D03*
X24448900Y25650000D03*
X24350000Y25170000D03*
X24752500Y25332500D03*
X24476000Y25180000D03*
X25516000Y27095000D03*
X25055000Y26185000D03*
X25092000Y27010000D03*
X24744000Y27129800D03*
X25588000Y27310000D03*
X24756000Y26420000D03*
X24915000Y27417300D03*
X24575900Y26434100D03*
X25720000Y26295000D03*
Y26835000D03*
X25200000Y26655000D03*
X25135000Y26410000D03*
X24350000Y28580000D03*
X25085000Y27875000D03*
X25152000Y28435000D03*
X25700000Y27770000D03*
X24595000Y28055000D03*
X24924000Y27985000D03*
X25195000Y28595000D03*
X25175000Y27624700D03*
X24581300Y27790000D03*
X24815000Y27525000D03*
X24632400Y27569700D03*
X24605000Y29005000D03*
X24555000Y28790000D03*
X24505000Y28995000D03*
X24455000Y28790000D03*
X24655000Y29425000D03*
X24705000Y29043800D03*
X24935000Y29065000D03*
G54D25*
X20300000Y25760000D03*
G54D26*
X21927100Y29280000D03*
X22157100D03*
G54D23*
X20640000Y21142000D03*
X20892300Y22160000D03*
Y22414000D03*
Y22668000D03*
X20638300Y22160000D03*
Y22414000D03*
Y22668000D03*
X20640000Y21650000D03*
Y21396000D03*
X20892300Y22922000D03*
Y23176000D03*
Y23430000D03*
Y23684000D03*
Y23938000D03*
Y24192000D03*
X20638300Y22922000D03*
Y23176000D03*
Y23430000D03*
Y23684000D03*
Y23938000D03*
Y24192000D03*
X21146300Y25462000D03*
Y25716000D03*
X20892300Y24446000D03*
X20638300D03*
X21817800Y22231300D03*
X21563800D03*
X21817800Y21977300D03*
X21563800D03*
X21400300Y25462000D03*
Y25716000D03*
X21654300Y25462000D03*
X21908300D03*
Y25716000D03*
X22162300Y25462000D03*
Y25716000D03*
X22416300Y25462000D03*
Y25716000D03*
X22670300Y25462000D03*
X22924300D03*
Y25716000D03*
X23178300Y25462000D03*
Y25716000D03*
X23432300Y25462000D03*
Y25716000D03*
X23686300Y25462000D03*
Y25716000D03*
X25210000Y21142000D03*
X25212300Y22160000D03*
Y22414000D03*
Y22668000D03*
X24958300Y22160000D03*
Y22414000D03*
Y22668000D03*
X25210000Y21650000D03*
Y21396000D03*
X25212300Y22922000D03*
Y23176000D03*
Y23430000D03*
Y23684000D03*
Y23938000D03*
Y24192000D03*
X24958300Y22922000D03*
Y23176000D03*
Y23430000D03*
Y23684000D03*
Y23938000D03*
Y24192000D03*
X25212300Y24446000D03*
X24958300D03*
X24990000Y25462000D03*
Y25716000D03*
Y25970000D03*
%LPD*%
G75*
G54D10*
X20250000Y17850000D03*
Y29270000D03*
X25580000Y17850000D03*
Y29270000D03*
G54D20*
G01X20640000Y21396000D02*
X20532300D01*
G01X20640000Y21650000D02*
X20532300D01*
G01X20415000Y25760000D02*
X20300000D01*
G01D02*
Y25870200D01*
G01Y25760000D02*
X20189800D01*
G01X20300000D02*
Y25649800D01*
G01X20640000Y21396000D02*
X20747700D01*
G01X20640000D02*
Y21288300D01*
G01Y21650000D02*
X20747700D01*
G01X20640000D02*
Y21757700D01*
G01Y21565000D02*
Y21650000D01*
G01Y21485000D02*
Y21396000D01*
G01X20892300Y24192000D02*
X21000000D01*
G01X20892300D02*
Y24299700D01*
G01Y24105000D02*
Y24192000D01*
G01X20800000D02*
X20892300D01*
G01X21146300Y25716000D02*
X21038600D01*
G01X21146300D02*
X21254000D01*
G01X21146300Y25462000D02*
Y25569700D01*
G01Y25462000D02*
Y25354300D01*
G01Y25462000D02*
X21038600D01*
G01X21235000D02*
X21146300D01*
G01Y25630000D02*
Y25716000D01*
G01Y25822300D02*
Y25716000D01*
G01X25210000Y21650000D02*
Y21757700D01*
G01Y21650000D02*
X25317700D01*
G01X25210000D02*
X25102300D01*
G01X25210000D02*
Y21542300D01*
G01Y21396000D02*
Y21503700D01*
G01Y21396000D02*
X25317700D01*
G01X25210000D02*
X25102300D01*
G01X25210000D02*
Y21288300D01*
G01X25212300Y24446000D02*
X25320000D01*
G01X25212300D02*
Y24553700D01*
G01Y24446000D02*
X25104600D01*
G01X25212300D02*
Y24338300D01*
G54D11*
X20320000Y20490000D03*
X20520000Y20425000D03*
X20075000Y20495000D03*
X20160000Y20305000D03*
X20325000Y20785000D03*
X20565000Y21820000D03*
X20185000Y21355000D03*
X20465000Y21505000D03*
X20600000Y20850000D03*
X20505000Y20645000D03*
X20355000Y21135000D03*
X20090000Y22010000D03*
X20075000Y21555000D03*
X20070000Y21145000D03*
Y20780000D03*
X20250000Y21680000D03*
X20485000Y22725000D03*
X20530000Y22495000D03*
X20260000Y23100000D03*
X20470000Y22365000D03*
X20250000Y22570000D03*
X20260000Y22865000D03*
X20270000Y23385000D03*
X20080000Y23330000D03*
X20085000Y22705000D03*
X20248000Y22140000D03*
X20092000Y22350000D03*
X20485000Y22960000D03*
X20480000Y23475000D03*
X20250000Y24130000D03*
X20092000Y23735000D03*
X20260000Y23680000D03*
X20270000Y24450000D03*
X20305000Y24620000D03*
X20095000Y24580000D03*
X20365000Y24750000D03*
X20084000Y24295000D03*
X20088000Y23955000D03*
X20500000Y23735000D03*
X20515000Y23980000D03*
X20405000Y25450000D03*
X20435000Y25175000D03*
X20565000Y25305000D03*
X20512000Y25105000D03*
X20285000Y25300000D03*
X20430000Y25000000D03*
X20480000Y26295000D03*
X20325000Y26290000D03*
X20125000Y26135000D03*
X20355000Y26125000D03*
X20085000Y26895000D03*
X20090000Y26995000D03*
X20545000Y27005000D03*
X20520000Y27665000D03*
Y27800000D03*
X20076700Y27620000D03*
X20096000Y27098600D03*
X20210000Y27340000D03*
X20170000Y26595000D03*
X20540000Y27110000D03*
X20524000Y27355000D03*
X20095000Y26750000D03*
X20080000Y27295000D03*
X20090000Y27485000D03*
X20245000Y27480000D03*
X20535000Y26565000D03*
X20330000Y26465000D03*
X20137500Y28468000D03*
X20285000Y28285000D03*
X20305000Y27995000D03*
X20517300Y28352500D03*
X20508000Y28765000D03*
X20250000Y28975000D03*
X20508000Y28930000D03*
X20520000Y28170000D03*
Y28250000D03*
X20568000Y28870000D03*
X21635000Y20515000D03*
X21105000Y20465000D03*
X20865000Y20590000D03*
X21880000Y20535000D03*
X21360000Y20580000D03*
X20800000Y20295000D03*
X21355000D03*
X21810000Y20290000D03*
X22035000Y21160000D03*
X22025000Y21305000D03*
X21805000Y21380000D03*
X21955000Y21480000D03*
X21935000Y21630000D03*
X21970000Y21895000D03*
X21690000Y21885000D03*
X21035000Y21715000D03*
X21395000Y21710000D03*
X21935000Y21790000D03*
X21865000Y21215000D03*
X20770000Y22050000D03*
X20830000Y21435000D03*
X20820000Y21650000D03*
X21275000Y21550000D03*
X21255000Y21840000D03*
X21885000Y20745000D03*
X20870000Y20940000D03*
X21375000Y21245000D03*
X21345000Y20920000D03*
X21905000Y21030000D03*
X20910000Y21185000D03*
X20685000Y21940000D03*
X21060000Y21525000D03*
X21585000Y20795000D03*
X20945000Y21935000D03*
X21440000Y21490000D03*
X21675000Y21425000D03*
Y21170000D03*
X21170000Y21135000D03*
X21020000Y20755000D03*
X21225000Y23125000D03*
X21425000Y23490000D03*
X21605000Y23320000D03*
X21420000Y23295000D03*
X21595000Y23120000D03*
X21948000Y23420000D03*
X21285000Y22065000D03*
X22035000Y22225000D03*
X21355000Y22355000D03*
X21705000Y23200000D03*
X21255000Y23460000D03*
X21620000Y22685000D03*
X20775000Y22555000D03*
X20765000Y23290000D03*
X21084000Y22995000D03*
X20765000Y22800000D03*
X21065000D03*
X21475000Y22465000D03*
X21645700Y22782500D03*
X21635000Y22485000D03*
X21935000Y22640000D03*
X21370000Y22725000D03*
X21948000Y22560000D03*
X21045000Y22260000D03*
X21948000Y23190000D03*
X21100000Y23430000D03*
X21520000Y23005000D03*
X21385000Y23145000D03*
X21035000Y23265000D03*
X22052000Y23140000D03*
X21700000Y23420000D03*
X21808000Y23310000D03*
X21260000Y23260000D03*
X21960000Y22735000D03*
X21220000Y22215000D03*
X21265000Y22580000D03*
X22048000Y23285000D03*
X21480000Y22840000D03*
X21035000Y22550000D03*
X21710000Y22397500D03*
X21715000Y22555000D03*
X21830000Y22560000D03*
X21620000Y22585000D03*
X21470000Y22640000D03*
X21245000Y23675000D03*
X21948000Y23785000D03*
Y23595000D03*
X20990000Y24735000D03*
X21625000Y24070000D03*
X20770000Y23985000D03*
X21405000Y24320000D03*
X21724000Y24435000D03*
X21930000Y24860000D03*
X21520000Y24770000D03*
X21648000Y24635000D03*
X21324000Y24035000D03*
X21940000Y24495000D03*
X22036000Y24085000D03*
X21844000Y23905000D03*
X20770000Y23815000D03*
X21120000Y24620000D03*
X21140000Y24430000D03*
X21805000Y24105000D03*
X21095000Y23845000D03*
X21060000Y23655000D03*
X21005000Y23525000D03*
X21645000Y23755000D03*
X21832000Y23705000D03*
X21400000Y23715000D03*
X21824000Y23530000D03*
X21500000Y23915000D03*
X22056000Y23920000D03*
X21725000Y23900000D03*
X21760000Y24285000D03*
X21892000Y24645000D03*
X22050000Y24785000D03*
Y24925000D03*
X21440000Y24880000D03*
X21515000Y24430000D03*
X21305000Y24225000D03*
X21280000Y23870000D03*
X21130000Y24110000D03*
X21250000Y24485000D03*
X21300000Y24860000D03*
X20775000Y24590000D03*
X21364000Y24635000D03*
X21575000Y24925000D03*
X21948000Y23915000D03*
X21952000Y24285000D03*
X21505000Y24160000D03*
X21540000Y23605000D03*
X22048000Y23715000D03*
X21340000Y24765000D03*
X21060000Y24305000D03*
X21775000Y24925000D03*
X21795000Y24780000D03*
X21655000Y24835000D03*
X21190000Y24735000D03*
X22056000Y23525000D03*
X21704000Y23620000D03*
X21272000Y25595000D03*
X21520000Y25545000D03*
X21260000Y25865000D03*
X21010000Y25595000D03*
X20920000Y25415000D03*
X21676000Y26182300D03*
X21530000Y25940000D03*
X20815000Y25340000D03*
X21156000Y25890000D03*
X21140000Y26177700D03*
X21565000Y26065000D03*
X20700000Y25410000D03*
X22005000Y25930000D03*
X21920000Y26145000D03*
X21308000Y26230000D03*
X21276000Y25950000D03*
X20688000Y26088700D03*
X20784000D03*
X21744000Y25905000D03*
X21780000Y26140000D03*
X20860000Y25940000D03*
X20865000Y25585000D03*
X20640000Y25775000D03*
X21230000Y27475000D03*
X21560000Y27170000D03*
X21192000Y27070000D03*
X21813700Y27140000D03*
X21731700Y27823300D03*
X21810000Y27750000D03*
X21448000Y26675000D03*
X21784000D03*
X21675000Y27085000D03*
X21320000Y27375000D03*
X20645000Y27290000D03*
X20985000Y27800000D03*
X20615000D03*
X21810000Y27435000D03*
X20648000Y27560000D03*
X21170000Y26510000D03*
X20889900Y26519900D03*
X21810000Y27545000D03*
X21160000Y27810000D03*
X21780000Y27665000D03*
X21140000Y27560000D03*
X21505000Y27550000D03*
X21480000Y27440000D03*
X21665000Y27445000D03*
X21640000Y27550000D03*
X21665000Y27665000D03*
X21415000Y27610000D03*
X21355000Y27720000D03*
X21510000Y27750000D03*
X21550000Y27665000D03*
X21255000Y27620000D03*
X21355000Y27510000D03*
X21585000Y27320000D03*
X21750000Y27315000D03*
X21415000Y27325000D03*
X21105000Y27680000D03*
X20670000Y26970000D03*
X20865000D03*
X21075000D03*
X21300000Y26975000D03*
X21560000Y26980000D03*
X21785000Y26975000D03*
X20765000Y26875000D03*
X21170000D03*
X20775000Y27090000D03*
X20975000D03*
X21450000Y27085000D03*
X21325000Y27170000D03*
X21105000Y27160000D03*
X20855000D03*
X20995000Y27295000D03*
X21230000Y27290000D03*
X21330000Y26875000D03*
X21790000Y26795000D03*
X21672000Y26790000D03*
X21055000Y26755000D03*
X20640000Y26700000D03*
X20850000Y26735000D03*
X21620000Y26675000D03*
X21552000Y26785000D03*
X20624000Y27690000D03*
X20824000Y27365000D03*
X20840000Y27555000D03*
X20990000Y27565000D03*
X21050000Y27415000D03*
X20965000Y26875000D03*
X20720000Y26550000D03*
X21090000Y26605000D03*
X21700000Y26580000D03*
X21528000Y26585000D03*
X20650000Y28785000D03*
X21920000Y29160000D03*
X21835000Y28065000D03*
X21452300Y28115700D03*
X21620000Y28330000D03*
X20990000Y28385000D03*
X20905000Y28300000D03*
X21095000Y28490000D03*
X21090000Y28302500D03*
X20870000Y28500000D03*
X21820000Y28920000D03*
X22020000Y28995000D03*
X21660000Y29250000D03*
X22030000Y29195000D03*
X22000000Y28560000D03*
X21405000Y28602300D03*
X21780000Y28330000D03*
X21175000Y28722300D03*
X21451700Y28392500D03*
X21844000Y28607700D03*
X21280000Y28675000D03*
X21705000Y28825000D03*
Y28720000D03*
X21920000Y29040200D03*
X21745000Y29140000D03*
X21825000Y29340000D03*
X21428000Y28531300D03*
X21340000Y28870000D03*
X21225000Y28150000D03*
X20716000Y29120000D03*
X20780000Y28945000D03*
X20744000Y29025000D03*
X21660000Y29440000D03*
X21885000D03*
X22320000Y20425000D03*
X22530000Y20405000D03*
X22695000Y20420000D03*
X22405000Y20300000D03*
X23250000Y20490000D03*
X22763700Y20535000D03*
X23020000Y20379800D03*
X22165000Y20500000D03*
X23170000Y20295000D03*
X23425000Y20400000D03*
X22435000Y20530000D03*
X22805000Y20370000D03*
X23075700Y20450000D03*
X23020000Y20510000D03*
X23355000Y20290000D03*
X22215000Y20295000D03*
X22615000Y20290000D03*
X22805000Y20295000D03*
X22810000Y20475000D03*
Y20595000D03*
X23020000Y20290000D03*
X22435000Y20890000D03*
X22505000Y20645000D03*
X22330000Y20690000D03*
X22520000Y20795000D03*
X22710000Y20760000D03*
X22805000Y20700000D03*
X22680000Y20880000D03*
X22320000Y20945000D03*
X22465000Y21420000D03*
X23375000Y21280000D03*
X23060000Y21380000D03*
X23400000Y21400000D03*
X23355000Y21135000D03*
X23455000Y21030000D03*
X23055000Y21850000D03*
X22920000Y21845000D03*
X23210000Y21570000D03*
X23230000Y21770000D03*
X23480000Y21635000D03*
X22985000Y21930000D03*
X23085000Y21740000D03*
X23310000Y22015000D03*
X23380000Y21775000D03*
X22770000Y21825000D03*
X23180000Y20675000D03*
X23025000Y20975000D03*
X23335000Y20895000D03*
X23295000Y21505000D03*
X23485000D03*
X23110000Y21500000D03*
X22990000Y21280000D03*
X23265000Y21250000D03*
X23130000Y21655000D03*
X23340000Y21645000D03*
X23460000Y21955000D03*
X23010000Y21595000D03*
X23000000Y21780000D03*
X23170000Y22020000D03*
X22980000Y22040000D03*
X22885000Y21975000D03*
X22950000Y21680000D03*
X23220000Y21380000D03*
X23070000Y21225000D03*
X22940000Y21185000D03*
X22840000Y21290000D03*
X22925000Y21470000D03*
X22805000Y21517300D03*
X22855000Y21660000D03*
X22846300Y21580000D03*
X22785000Y21632700D03*
X22845000Y21765000D03*
X22760000Y21720000D03*
X22845000Y21890000D03*
X22765000Y21920000D03*
X22785000Y21997300D03*
X22846300Y22055000D03*
X22805000Y21020000D03*
X22335000Y21500000D03*
X22590000Y21370000D03*
X22215000Y21420000D03*
X22090000Y21565000D03*
X22252000Y21730000D03*
X22090000Y21715000D03*
X22125000Y21890000D03*
X22415000Y21590000D03*
X22285000Y21615000D03*
X22412000Y21750000D03*
X22545000Y21935000D03*
X22543700Y21820000D03*
X22500000Y21655000D03*
X22590000Y21495000D03*
X22615000Y21560000D03*
X22620000Y21660000D03*
X22605000Y21762300D03*
X22600000Y21877700D03*
X22615000Y22020000D03*
X23140000Y21055000D03*
X22570000Y21120000D03*
X23255000Y21015000D03*
X22160000Y21035000D03*
X22655000Y20625000D03*
Y21015000D03*
X22450000Y21045000D03*
X23140000Y21160000D03*
X23485000Y21255000D03*
X22325000Y21320000D03*
X22460000Y21275000D03*
X22590000Y21245000D03*
X22930000Y21365000D03*
X23135000Y20895000D03*
X23020000Y20700000D03*
X22805000Y21400000D03*
X22072000Y22020000D03*
X23015000Y21110000D03*
X22695000Y21130000D03*
X23385000Y20655000D03*
X22320000Y21145000D03*
X22160000Y21265000D03*
X22145000Y20750000D03*
X22810000Y20845000D03*
X22464000Y22000000D03*
X22204000Y21980000D03*
X22340000Y22025000D03*
X22436000Y21870000D03*
X22296000Y21855000D03*
X23465000Y22210000D03*
X23330000D03*
X23120000Y22224600D03*
X22905000Y22080000D03*
X23465000Y22065000D03*
X22980000Y22165000D03*
X22915000Y22235000D03*
X22897700Y22140000D03*
X22572000Y22115000D03*
X22224000D03*
X22560000Y22370000D03*
X22490000Y22310000D03*
X22570000Y22205000D03*
X22372000Y22260000D03*
X22125000Y22175000D03*
X23356000Y23395000D03*
X23505000Y23060000D03*
X23364000Y23510000D03*
X22500000Y22230000D03*
X22588000Y22485000D03*
X22544000Y22440000D03*
X22422300Y22375000D03*
X22284000Y22380000D03*
X22210000Y22560000D03*
X22192000Y23485000D03*
X22545000Y23435000D03*
X22755000Y23490000D03*
X23340000Y23190000D03*
X22290000Y22750000D03*
X22200000Y22240000D03*
X22064000Y22610000D03*
X23396000Y23275000D03*
X23475000Y23270000D03*
X22360000Y22450000D03*
X22456000Y22125000D03*
X22316000Y22175000D03*
X22148000Y23370000D03*
X23492000Y23155000D03*
X22315000Y22820000D03*
X22310000Y23350000D03*
X22144000Y23240000D03*
X23075000Y22120000D03*
X23036000Y24890000D03*
X23320000Y24625000D03*
X23392000Y24825000D03*
X23380000Y24125000D03*
X22995000Y24495000D03*
X23472000Y23995000D03*
X22565000Y24880000D03*
X22840000Y24645000D03*
X23360000Y24030000D03*
X22436000Y24225000D03*
X22200000Y23650000D03*
X23236000Y24710000D03*
X23384000Y23665000D03*
X23356000Y23830000D03*
X22645000Y23945000D03*
X23000000Y24360000D03*
X22708000Y24385000D03*
X22592000Y24500000D03*
X22575000Y24660000D03*
X22420000Y24645000D03*
X22424000Y24400000D03*
X22256000Y23545000D03*
X22188000Y24235000D03*
X22172000Y24480000D03*
X22125000Y24640000D03*
X22312000Y24915000D03*
X22784000Y23945000D03*
X22892000Y23675000D03*
X22415000Y23730000D03*
X22650000Y23570000D03*
X22550000Y23520000D03*
X22405000Y23945000D03*
X22975000Y23875000D03*
X22196000Y23815000D03*
X22192000Y23950000D03*
X23150000Y24810000D03*
X22608000Y24305000D03*
X22784000Y24215000D03*
X22412000Y24080000D03*
X22608000Y24085000D03*
X22768000Y24080000D03*
X22320000Y24800000D03*
X22705000Y24770000D03*
X22545000Y23715000D03*
X22510000Y23935000D03*
X22788000Y23790000D03*
X22592000Y23795000D03*
X22400000Y23840000D03*
X22184000Y24085000D03*
X23392000Y24555000D03*
X22504000Y23820000D03*
X22712000Y23850000D03*
X22788000Y24500000D03*
X22780000Y25580000D03*
X23055000Y25410000D03*
X22116000Y25948700D03*
X22895000Y25075000D03*
X23335000Y25010000D03*
X23100000Y25050000D03*
X22228000Y25955000D03*
X22965700Y25970000D03*
X22060000Y26350000D03*
X22908000Y26370000D03*
X22724000Y26132500D03*
X23411400Y25880000D03*
X22510000Y26346300D03*
X23276000Y26360000D03*
X23272000Y26255000D03*
X23184000Y26310000D03*
X23128000Y26360000D03*
Y26250000D03*
X23164000Y26095000D03*
X22800000Y26350000D03*
X22308500Y26140000D03*
X22585000Y26405000D03*
X22628000Y25955000D03*
X22828000D03*
X22456000Y25950000D03*
X22900000Y26570000D03*
X22261300Y27660000D03*
X22227700Y27165000D03*
X23352300Y26721700D03*
X22120000Y27115000D03*
X23512700Y26530000D03*
X22132000Y26460000D03*
X22765000Y26574800D03*
X23110000Y27630000D03*
X22261300Y27565000D03*
X22255300Y27445000D03*
X23480000Y27300000D03*
X23510000Y27140000D03*
X23495000Y26815000D03*
X23295000Y27690000D03*
X23400000D03*
X23295000Y27500000D03*
X23400000D03*
X23345000Y27595000D03*
X23020000Y27825000D03*
X23316000Y26755000D03*
X23428000Y27040000D03*
X23420000Y27100000D03*
X22890300Y26880000D03*
X23005300Y26710000D03*
X23027800Y26930900D03*
X23045000Y27304300D03*
X23430000Y27170000D03*
X23120000Y27305000D03*
X23380000D03*
X22495000Y27550000D03*
Y27660000D03*
X22494500Y27435000D03*
Y27340000D03*
Y27245000D03*
X22700000Y27780000D03*
X22704000Y27665000D03*
Y27550000D03*
X22720000Y27395000D03*
X22672000Y27235000D03*
X22532000Y27100000D03*
X23024000Y27510000D03*
X22104000Y26967500D03*
X22365000Y26700000D03*
X22560000Y26705000D03*
X22390000Y26592500D03*
X22680000Y26465000D03*
X22480000Y26500000D03*
X23195000Y26645000D03*
X23290000Y29317300D03*
X22615000Y28250000D03*
X22130000Y28625000D03*
X23295000Y28225000D03*
X22372000Y28595000D03*
X22970000Y29255000D03*
X22790000Y29190000D03*
X22385000Y29245000D03*
X22595000Y29295000D03*
X22095000Y28995000D03*
X23305000Y28005000D03*
X22072000Y28100000D03*
X22475000Y29080200D03*
X23425000Y28315000D03*
X22197500Y28685000D03*
X22385200D03*
X22710000Y28250000D03*
X22525000Y28355000D03*
X22620000D03*
X22920000Y28365000D03*
X22525000Y28245000D03*
X22710000Y28355000D03*
X22890000Y28290000D03*
X22380000Y28285000D03*
X22167300Y28290000D03*
X22170000Y28970000D03*
X22360000Y29095000D03*
X23100000Y29015000D03*
X23295000Y29020000D03*
X23100000Y28910000D03*
X23295000D03*
X23195000Y29020000D03*
X23200000Y28910000D03*
X23225000Y28600000D03*
Y28700000D03*
X23132000Y28160000D03*
X22520000Y28740000D03*
X22505000Y28605000D03*
X22610000Y28555000D03*
X22980000Y28710000D03*
X22945000Y28905000D03*
X22755000D03*
X22685000Y29035000D03*
X22965000Y29045000D03*
X22830000Y29040000D03*
X22245000Y28140000D03*
Y27940000D03*
X22140000Y28035000D03*
X22390000Y28185000D03*
X23285000Y29440000D03*
X22970000D03*
X22590000Y29445000D03*
X23225000Y29375000D03*
X22450000Y29455000D03*
X22205000Y29450000D03*
X22480000Y29345000D03*
X23730000Y20400000D03*
X23540000Y20515000D03*
X24800000Y20430000D03*
X24105000Y20340000D03*
X24235000Y20480000D03*
X23820000Y20530000D03*
X24970000Y20495000D03*
X24580000Y20305000D03*
X24305000D03*
X23860000D03*
X23545000Y20300000D03*
X24130000Y22045000D03*
X24755000Y21175000D03*
X24590000Y21230000D03*
X23975000Y21690000D03*
X24820000Y22005000D03*
X23795000Y21160000D03*
X23585000Y21145000D03*
X24045000Y21205000D03*
X23890000Y21065000D03*
X23865000Y21560000D03*
X23630000Y21635000D03*
X23535000Y21880000D03*
X23700000Y21505000D03*
X23795000Y21370000D03*
X23995000Y21510000D03*
X24020000Y21920000D03*
X23920000Y21855000D03*
X23820000Y21755000D03*
X23675000Y21785000D03*
X23820000Y21935000D03*
X23655000D03*
X23520000Y21775000D03*
X24672000Y21835000D03*
X24832000D03*
X24400000Y21745000D03*
X24340000Y21795000D03*
X24960000Y21725000D03*
X24305000Y21060000D03*
X23695000Y21260000D03*
X23690000Y21040000D03*
X24945000Y20775000D03*
X24596000Y21625000D03*
X24730000Y21630000D03*
X24800000Y21460000D03*
X24925000Y21005000D03*
X24075000Y21365000D03*
X24335000Y21260000D03*
X23580000Y21345000D03*
X24475000Y20800000D03*
X24330000Y20620000D03*
X24170000Y20645000D03*
X23930000Y20670000D03*
X23675000Y20665000D03*
X24565000Y20700000D03*
X24770000Y20650000D03*
X24740000Y20935000D03*
X24360000Y20940000D03*
X24592000Y21475000D03*
X24070000Y20890000D03*
X23805000Y20895000D03*
X23910000Y21270000D03*
X23555000Y20895000D03*
X24888000Y21345000D03*
X24912000Y21180000D03*
X24732000Y21330000D03*
X24516000Y21360000D03*
X24224000Y21370000D03*
X24884000Y21620000D03*
X24530000Y21745000D03*
X23840000Y22215000D03*
X24544000Y22150000D03*
X24664000Y22080000D03*
X24108000Y22505000D03*
X23525000Y22155000D03*
X24128000Y22180000D03*
X24440000Y22110000D03*
X23610000Y22075000D03*
X24236000Y23315000D03*
X24225000Y23100000D03*
X24484000Y22455000D03*
X24644000Y22320000D03*
X24624000Y22475000D03*
X23928000Y23500000D03*
X23852000Y23295000D03*
X24228000Y22225000D03*
X24776000Y22210000D03*
X24240000Y23510000D03*
X23676000Y23360000D03*
X23684000Y23015000D03*
Y23165000D03*
X23585000Y22485000D03*
X23816000Y23135000D03*
X24048000Y23245000D03*
X24112000Y23030000D03*
X23684000Y23510000D03*
X23930000Y22075000D03*
X24484000Y22305000D03*
X23936000Y22535000D03*
X23784000Y22505000D03*
X23985000Y22230000D03*
X24340000Y22290000D03*
X24660000Y22625000D03*
X23570000Y22995000D03*
X24075000Y23435000D03*
X23675000Y22230000D03*
X23735000Y22120000D03*
X23580000Y23275000D03*
X23530000Y22540000D03*
X23592000Y23120000D03*
X23812000Y23005000D03*
X23972000Y23065000D03*
X23520000Y23455000D03*
X24848000Y22850000D03*
X24836000Y22975000D03*
X23908000Y23950000D03*
X24104000Y23990000D03*
X24244000Y23950000D03*
X24248000Y24080000D03*
X23604000Y23960000D03*
X23612000Y24130000D03*
X24335000Y24530000D03*
X24008000Y23655000D03*
X24088000Y24135000D03*
X23528000Y24415000D03*
X23784000Y24025000D03*
X24105000Y24550000D03*
X24416000Y24775000D03*
X24910000Y23550000D03*
X24244000Y23815000D03*
X23764000D03*
X23524000D03*
X23805000Y23655000D03*
X24244000Y23645000D03*
X24610000Y24530000D03*
X24780000Y24715000D03*
X23608000Y23670000D03*
X23605000Y24895000D03*
X24012000Y23820000D03*
X24655000Y24770000D03*
X24292000Y24775000D03*
X24790000Y24525000D03*
X24550000Y24655000D03*
X24210000D03*
X24915000Y24620000D03*
X24548000Y25610000D03*
X23600000Y25055000D03*
X23837300Y26372300D03*
X24772500Y25790000D03*
X24164000Y25587500D03*
X24007700Y25120000D03*
X24724000Y25615000D03*
X24775000Y24980000D03*
X23832000Y25435000D03*
X24835000Y26250000D03*
X23868000Y25915000D03*
X24020000Y25300000D03*
X23630000Y26010000D03*
X23900000Y25690000D03*
X23560000Y25655000D03*
X24065000Y26440000D03*
X24320000Y26438500D03*
X24450000D03*
X23912300Y26585000D03*
X24125000Y26595000D03*
X23614700Y26830000D03*
X24933500Y27090000D03*
X24115000Y27045000D03*
X23600000Y27075000D03*
X23609900Y27005000D03*
X23675000Y26594800D03*
X24290000Y27105000D03*
X24800000Y27073700D03*
X24668000Y27070000D03*
X24295000Y27200000D03*
X24525000Y27455000D03*
X24420000D03*
X24924700Y27160000D03*
X24508000Y27050000D03*
X24652000Y26695000D03*
X24588000Y26780000D03*
X24480000Y26700000D03*
X24390000Y27735000D03*
X23700000Y27840000D03*
X23668000Y27585000D03*
X23776000Y27560000D03*
X23780000Y27490000D03*
X23805000Y26585000D03*
X23555000Y26580000D03*
X23670000Y26500000D03*
X23895000Y27460000D03*
X23990000Y27370000D03*
X24100000Y27255000D03*
X24120000Y27615000D03*
X24690000Y27450000D03*
X24815000Y27400000D03*
X24590000Y27720000D03*
X24715000Y27715000D03*
X23870000Y26825000D03*
X24264000Y27450000D03*
X24156000Y29175000D03*
X23980000Y28965000D03*
X24193300Y29270000D03*
X23570000Y29075000D03*
X24540000Y29160000D03*
X24910200Y28075000D03*
X23630000Y28275000D03*
X24264000Y27975000D03*
X24136000Y28010000D03*
X23695000Y27980000D03*
X23700000Y28080000D03*
X23904000Y28000000D03*
X23875000Y28960200D03*
X24112700Y28965000D03*
X23990000Y28815000D03*
X24335000Y28695000D03*
X24320000Y28480000D03*
X23885000Y28490000D03*
X23825000Y28575000D03*
X24655000Y28780000D03*
X24745000Y28630000D03*
X24740000Y28450000D03*
X24556000Y28365000D03*
X23915000Y29275000D03*
X24070000Y29280000D03*
X23750000Y29285000D03*
X24700000Y27975000D03*
X24128000Y28220000D03*
X24355000Y29325000D03*
X24925000Y28305000D03*
X24525000Y28650000D03*
X24580000Y28515000D03*
X24425000Y28445000D03*
X24865000Y29370000D03*
X24485000Y29365000D03*
X24805000Y29445000D03*
X25575000Y20510000D03*
X25320000Y20350000D03*
X25410000Y20485000D03*
X25745000Y20465000D03*
X25625000Y20305000D03*
X25135000D03*
X25044000Y21975000D03*
X25690000Y21150000D03*
X25450000Y20995000D03*
X25220000Y21960000D03*
X25350000Y21865000D03*
X25736000Y21615000D03*
X25545000Y21135000D03*
X25510000Y20790000D03*
X25008000Y21525000D03*
X25440000Y22000000D03*
X25445000Y21420000D03*
X25175000Y20885000D03*
X25245000Y20660000D03*
X24995000Y21840000D03*
X25735000Y21860000D03*
X25740000Y21315000D03*
X25750000Y20895000D03*
X25008000Y21080000D03*
X25460000Y21715000D03*
X25740000Y22100000D03*
X25716000Y23435000D03*
X25720000Y22920000D03*
X25428000Y22285000D03*
X25440000Y23285000D03*
X25435000Y22905000D03*
Y22590000D03*
X25750000Y23225000D03*
Y22625000D03*
X25740000Y22360000D03*
X25215000Y24675000D03*
X25090000Y24300000D03*
X25736000Y23825000D03*
X25100000Y23590000D03*
X25085000Y24055000D03*
X25490000Y24155000D03*
X25475000Y23750000D03*
X25205000Y24805000D03*
X25755000Y24335000D03*
X25750000Y24025000D03*
Y23625000D03*
X25576000Y24870000D03*
X25760000Y24550000D03*
X25485000Y24460000D03*
X25170000Y25015000D03*
X25185000Y25600000D03*
X24980000Y25030000D03*
X25110000Y26140000D03*
X24980000Y25290000D03*
X25148000Y25915000D03*
X25230000Y25270000D03*
X25308000Y25060000D03*
X25630000Y26013700D03*
X25364000Y26330000D03*
X25310000Y26255000D03*
X25408000D03*
X25700000Y26070000D03*
X25595000Y25525000D03*
X25490000Y25425000D03*
X25320000Y25705000D03*
X25435000Y25845000D03*
X25705000Y25745000D03*
X25750000Y26195000D03*
X25475000Y25990000D03*
X25505000Y25700000D03*
X25615000Y25895000D03*
X25090000Y25145000D03*
X25532000Y25085000D03*
X25315000Y26435000D03*
X25420000Y26440000D03*
X25047700Y26565000D03*
X24990000Y27595000D03*
X25750000Y27075000D03*
X25316000Y26820000D03*
X25075300Y27330000D03*
X25735000Y27520000D03*
X25755000Y27305000D03*
X25615000Y27085000D03*
X25575200Y27235000D03*
X25675000Y27220000D03*
X25415000Y27500000D03*
X25595000Y27515000D03*
X25304800Y27705000D03*
X25190000Y27500000D03*
X25043900Y26445000D03*
X25430000Y27350200D03*
X25610000Y26775000D03*
X25620000Y26505000D03*
X25725000Y28945000D03*
X25120000Y29190000D03*
X25005000Y29325000D03*
X25130000Y28995000D03*
X25115000Y28865000D03*
X25175000Y28800000D03*
X25180000Y28700000D03*
X25175000Y28500000D03*
X25005000Y28245000D03*
X25730000Y27915000D03*
X25725000Y28325000D03*
X25660000Y28295000D03*
X25250000Y28010000D03*
Y27945000D03*
X25290000Y29010000D03*
X25520000Y28940000D03*
X25345000Y28825000D03*
X25315000Y28605000D03*
X25470000Y28550000D03*
X25610000Y28765000D03*
X25300000Y28475000D03*
X25265000Y28140000D03*
X25425000D03*
X25430000Y27950000D03*
X25360000Y28040000D03*
X25245000Y29410000D03*
G54D21*
G01X20535000Y29270000D02*
X20250000D01*
G01Y28975000D02*
Y29270000D01*
G01X25520000Y28940000D02*
X25580000Y29000000D01*
G01Y29270000D02*
X25200000D01*
G01X25580000Y29000000D02*
Y29270000D01*
G01X25200000D02*
X25120000Y29190000D01*
G54D12*
X20640000Y21650000D03*
Y21396000D03*
Y21142000D03*
X20638300Y22160000D03*
Y22414000D03*
Y22668000D03*
Y22922000D03*
Y23176000D03*
Y23430000D03*
Y23684000D03*
Y23938000D03*
Y24192000D03*
Y24446000D03*
X21817800Y21977300D03*
X21563800D03*
X20892300Y22160000D03*
Y22414000D03*
Y22668000D03*
Y22922000D03*
Y23176000D03*
Y23430000D03*
X21817800Y22231300D03*
X21563800D03*
X20892300Y23684000D03*
Y23938000D03*
Y24192000D03*
Y24446000D03*
X21146300Y25462000D03*
X21400300D03*
X21654300D03*
X21908300D03*
X21146300Y25716000D03*
X21400300D03*
X21654300D03*
X21908300D03*
X22162300Y25462000D03*
X22416300D03*
X22670300D03*
X22924300D03*
X23178300D03*
X23432300D03*
X22162300Y25716000D03*
X22416300D03*
X22670300D03*
X22924300D03*
X23178300D03*
X23432300D03*
X24958300Y22160000D03*
Y22414000D03*
Y22668000D03*
Y22922000D03*
Y23176000D03*
Y23430000D03*
Y23684000D03*
Y23938000D03*
Y24192000D03*
Y24446000D03*
X24990000Y25462000D03*
Y25716000D03*
Y25970000D03*
X23686300Y25462000D03*
Y25716000D03*
X25210000Y21650000D03*
Y21396000D03*
Y21142000D03*
X25212300Y22160000D03*
Y22414000D03*
Y22668000D03*
Y22922000D03*
Y23176000D03*
Y23430000D03*
Y23684000D03*
Y23938000D03*
Y24192000D03*
Y24446000D03*
G54D22*
G01X20177500Y17600000D02*
X25685000D01*
G03X25855000Y17795000I-14022J183827D01*
G01Y24500000D01*
G03X25745000Y24815000I-506023J0D01*
G02X25635000Y25130000I396023J315000D01*
G02X25745000Y25445000I506023J0D01*
G03X25855000Y25760000I-396023J315000D01*
G01Y29433800D01*
G03X25708800Y29580000I-146200J0D01*
G01X21585000D01*
Y29460000D01*
X21425000D01*
Y29250000D01*
X21335000D01*
Y29460000D01*
X20955000D01*
Y29250000D01*
X20865000D01*
Y29460000D01*
X20705000D01*
Y29580000D01*
X20151200D01*
G03X20005000Y29433800I0J-146200D01*
G01Y25760000D01*
G03X20115000Y25445000I506023J0D01*
G02X20225000Y25130000I-396023J-315000D01*
G02X20115000Y24815000I-506023J0D01*
G03X20005000Y24500000I396023J-315000D01*
G01Y17795000D01*
G03X20177500Y17600000I205417J7917D01*
G01X24353700Y15588000D02*
Y15397500D01*
X24448500D01*
G01X24546570Y15556250D02*
X24560790Y15575300D01*
X24577380Y15584830D01*
X24596340Y15588000D01*
X24620040Y15581650D01*
X24636630Y15565770D01*
X24641370Y15546730D01*
X24639000Y15527670D01*
X24629520Y15511800D01*
X24582120Y15480050D01*
X24560790Y15457820D01*
X24546570Y15426070D01*
X24541830Y15397500D01*
X24641370D01*
G01X24153160Y14886200D02*
Y15076700D01*
X24200560D01*
X24219520Y15067170D01*
X24233740Y15054470D01*
X24245590Y15035430D01*
X24255070Y15013200D01*
X24257440Y14981450D01*
X24255070Y14949700D01*
X24245590Y14927470D01*
X24233740Y14908420D01*
X24219520Y14895720D01*
X24200560Y14886200D01*
X24153160D01*
G01X24336550D02*
X24395800Y15076700D01*
X24455050Y14886200D01*
G01X24433720Y14952870D02*
X24357880D01*
G01X24586300Y15076700D02*
Y14886200D01*
G01X24531790Y15076700D02*
X24640810D01*
G01X24824200Y14886200D02*
X24729400D01*
Y15076700D01*
X24824200D01*
G01X24786280Y14984630D02*
X24729400D01*
G01X24967300Y14879850D02*
X24962560Y14883030D01*
Y14889370D01*
X24967300Y14892550D01*
X24972040Y14889370D01*
Y14883030D01*
X24967300Y14879850D01*
G01Y14965570D02*
X24962560Y14968750D01*
Y14975100D01*
X24967300Y14978270D01*
X24972040Y14975100D01*
Y14968750D01*
X24967300Y14965570D01*
G01X25303270Y15044950D02*
X25317490Y15064000D01*
X25334080Y15073530D01*
X25353040Y15076700D01*
X25376740Y15070350D01*
X25393330Y15054470D01*
X25398070Y15035430D01*
X25395700Y15016370D01*
X25386220Y15000500D01*
X25338820Y14968750D01*
X25317490Y14946520D01*
X25303270Y14914770D01*
X25298530Y14886200D01*
X25398070D01*
G01X25538800Y15076700D02*
X25519840Y15070350D01*
X25505620Y15054470D01*
X25496140Y15035430D01*
X25489030Y15010020D01*
X25486660Y14981450D01*
X25489030Y14952870D01*
X25496140Y14927470D01*
X25505620Y14908420D01*
X25519840Y14892550D01*
X25538800Y14886200D01*
X25557760Y14892550D01*
X25571980Y14908420D01*
X25581460Y14927470D01*
X25588570Y14952870D01*
X25590940Y14981450D01*
X25588570Y15010020D01*
X25581460Y15035430D01*
X25571980Y15054470D01*
X25557760Y15070350D01*
X25538800Y15076700D01*
G01X25729300Y14886200D02*
Y15076700D01*
X25700860Y15038600D01*
G01Y14886200D02*
X25757740D01*
G01X25919800D02*
X25936390Y14889370D01*
X25955350Y14898900D01*
X25967200Y14914770D01*
X25971940Y14937000D01*
X25967200Y14959220D01*
X25952980Y14978270D01*
X25931650Y14987800D01*
X25907950D01*
X25893730Y14994150D01*
X25881880Y15010020D01*
X25877140Y15032250D01*
X25884250Y15054470D01*
X25900840Y15070350D01*
X25919800Y15076700D01*
X25938760Y15070350D01*
X25955350Y15054470D01*
X25962460Y15032250D01*
X25957720Y15010020D01*
X25945870Y14994150D01*
X25931650Y14987800D01*
X25907950D01*
X25886620Y14978270D01*
X25872400Y14959220D01*
X25867660Y14937000D01*
X25872400Y14914770D01*
X25884250Y14898900D01*
X25903210Y14889370D01*
X25919800Y14886200D01*
G01X26079490Y14949700D02*
X26141110D01*
G01X26300800Y14886200D02*
Y15076700D01*
X26272360Y15038600D01*
G01Y14886200D02*
X26329240D01*
G01X26491300Y15076700D02*
X26472340Y15070350D01*
X26458120Y15054470D01*
X26448640Y15035430D01*
X26441530Y15010020D01*
X26439160Y14981450D01*
X26441530Y14952870D01*
X26448640Y14927470D01*
X26458120Y14908420D01*
X26472340Y14892550D01*
X26491300Y14886200D01*
X26510260Y14892550D01*
X26524480Y14908420D01*
X26533960Y14927470D01*
X26541070Y14952870D01*
X26543440Y14981450D01*
X26541070Y15010020D01*
X26533960Y15035430D01*
X26524480Y15054470D01*
X26510260Y15070350D01*
X26491300Y15076700D01*
G01X26650990Y14949700D02*
X26712610D01*
G01X26872300Y14886200D02*
Y15076700D01*
X26843860Y15038600D01*
G01Y14886200D02*
X26900740D01*
G01X27062800Y15076700D02*
X27043840Y15070350D01*
X27029620Y15054470D01*
X27020140Y15035430D01*
X27013030Y15010020D01*
X27010660Y14981450D01*
X27013030Y14952870D01*
X27020140Y14927470D01*
X27029620Y14908420D01*
X27043840Y14892550D01*
X27062800Y14886200D01*
X27081760Y14892550D01*
X27095980Y14908420D01*
X27105460Y14927470D01*
X27112570Y14952870D01*
X27114940Y14981450D01*
X27112570Y15010020D01*
X27105460Y15035430D01*
X27095980Y15054470D01*
X27081760Y15070350D01*
X27062800Y15076700D01*
G01X24200300Y16071700D02*
Y15881200D01*
G01X24145790Y16071700D02*
X24254810D01*
G01X24438200Y15881200D02*
X24343400D01*
Y16071700D01*
X24438200D01*
G01X24400280Y15979630D02*
X24343400D01*
G01X24531530Y15881200D02*
X24631070Y16071700D01*
G01X24531530D02*
X24631070Y15881200D01*
G01X24712550D02*
X24771800Y16071700D01*
X24831050Y15881200D01*
G01X24809720Y15947870D02*
X24733880D01*
G01X24912530Y15906590D02*
X24931490Y15890720D01*
X24952820Y15881200D01*
X24971780D01*
X24990740Y15890720D01*
X25004960Y15906590D01*
X25012070Y15928830D01*
X25007330Y15951050D01*
X24995480Y15970100D01*
X24974150Y15982800D01*
X24945710Y15989150D01*
X24929120Y16001850D01*
X24922010Y16024070D01*
X24926750Y16046300D01*
X24938600Y16062170D01*
X24955190Y16071700D01*
X24971780D01*
X24988370Y16065350D01*
X25002590Y16049470D01*
G01X25314860Y16071700D02*
X25371740D01*
G01X25343300D02*
Y15881200D01*
G01X25314860D02*
X25371740D01*
G01X25479290D02*
Y16071700D01*
X25588310Y15881200D01*
Y16071700D01*
G01X25674530Y15906590D02*
X25693490Y15890720D01*
X25714820Y15881200D01*
X25733780D01*
X25752740Y15890720D01*
X25766960Y15906590D01*
X25774070Y15928830D01*
X25769330Y15951050D01*
X25757480Y15970100D01*
X25736150Y15982800D01*
X25707710Y15989150D01*
X25691120Y16001850D01*
X25684010Y16024070D01*
X25688750Y16046300D01*
X25700600Y16062170D01*
X25717190Y16071700D01*
X25733780D01*
X25750370Y16065350D01*
X25764590Y16049470D01*
G01X25914800Y16071700D02*
Y15881200D01*
G01X25860290Y16071700D02*
X25969310D01*
G01X26057900Y15881200D02*
Y16071700D01*
X26117150D01*
X26136110Y16062170D01*
X26147960Y16049470D01*
X26152700Y16024070D01*
X26147960Y15998670D01*
X26133740Y15982800D01*
X26117150Y15973270D01*
X26057900D01*
G01X26117150D02*
X26152700Y15881200D01*
G01X26243660Y16071700D02*
Y15935180D01*
X26253140Y15906590D01*
X26272100Y15887550D01*
X26295800Y15881200D01*
X26319500Y15887550D01*
X26338460Y15906590D01*
X26347940Y15935180D01*
Y16071700D01*
G01X26424680Y15881200D02*
Y16071700D01*
X26486300Y15912950D01*
X26547920Y16071700D01*
Y15881200D01*
G01X26724200D02*
X26629400D01*
Y16071700D01*
X26724200D01*
G01X26686280Y15979630D02*
X26629400D01*
G01X26812790Y15881200D02*
Y16071700D01*
X26921810Y15881200D01*
Y16071700D01*
G01X27057800D02*
Y15881200D01*
G01X27003290Y16071700D02*
X27112310D01*
G01X27198530Y15906590D02*
X27217490Y15890720D01*
X27238820Y15881200D01*
X27257780D01*
X27276740Y15890720D01*
X27290960Y15906590D01*
X27298070Y15928830D01*
X27293330Y15951050D01*
X27281480Y15970100D01*
X27260150Y15982800D01*
X27231710Y15989150D01*
X27215120Y16001850D01*
X27208010Y16024070D01*
X27212750Y16046300D01*
X27224600Y16062170D01*
X27241190Y16071700D01*
X27257780D01*
X27274370Y16065350D01*
X27288590Y16049470D01*
G54D13*
G01X25242500Y15451200D02*
X25256130Y15372500D01*
X25271700Y15451200D01*
X25287270Y15372500D01*
X25300900Y15451200D01*
G01X25371810Y15444640D02*
X25365970Y15448580D01*
X25359160Y15451200D01*
X25351370D01*
X25342610Y15447260D01*
X25335800Y15440710D01*
X25330930Y15432840D01*
X25327040Y15419720D01*
X25326070Y15407910D01*
X25328010Y15396110D01*
X25330930Y15388240D01*
X25336770Y15380370D01*
X25343590Y15375120D01*
X25350400Y15372500D01*
X25357210D01*
X25364030Y15375120D01*
X25369870Y15379060D01*
X25374730Y15384300D01*
G01X25408660Y15382990D02*
X25416450Y15376430D01*
X25425210Y15372500D01*
X25432990D01*
X25440780Y15376430D01*
X25446620Y15382990D01*
X25449540Y15392180D01*
X25447590Y15401360D01*
X25442730Y15409230D01*
X25433970Y15414470D01*
X25422290Y15417100D01*
X25415470Y15422340D01*
X25412550Y15431520D01*
X25414500Y15440710D01*
X25419370Y15447260D01*
X25426180Y15451200D01*
X25432990D01*
X25439810Y15448580D01*
X25445650Y15442020D01*
G01X25507800Y15451200D02*
X25500010Y15448580D01*
X25494170Y15442020D01*
X25490280Y15434150D01*
X25487360Y15423650D01*
X25486390Y15411850D01*
X25487360Y15400040D01*
X25490280Y15389550D01*
X25494170Y15381680D01*
X25500010Y15375120D01*
X25507800Y15372500D01*
X25515590Y15375120D01*
X25521430Y15381680D01*
X25525320Y15389550D01*
X25528240Y15400040D01*
X25529210Y15411850D01*
X25528240Y15423650D01*
X25525320Y15434150D01*
X25521430Y15442020D01*
X25515590Y15448580D01*
X25507800Y15451200D01*
G01X25598180Y15372500D02*
Y15451200D01*
X25562170Y15394800D01*
X25610830D01*
G01X25646710Y15438080D02*
X25652550Y15445950D01*
X25659360Y15449890D01*
X25667150Y15451200D01*
X25676880Y15448580D01*
X25683690Y15442020D01*
X25685640Y15434150D01*
X25684670Y15426280D01*
X25680770Y15419720D01*
X25661310Y15406600D01*
X25652550Y15397420D01*
X25646710Y15384300D01*
X25644760Y15372500D01*
X25685640D01*
G01X25801190D02*
Y15451200D01*
X25820650D01*
X25828440Y15447260D01*
X25834280Y15442020D01*
X25839150Y15434150D01*
X25843040Y15424970D01*
X25844010Y15411850D01*
X25843040Y15398730D01*
X25839150Y15389550D01*
X25834280Y15381680D01*
X25828440Y15376430D01*
X25820650Y15372500D01*
X25801190D01*
G01X25237230Y15641200D02*
Y15562500D01*
X25276170D01*
G01X25311070D02*
X25335400Y15641200D01*
X25359730Y15562500D01*
G01X25350970Y15590040D02*
X25319830D01*
G01X25392690Y15641200D02*
Y15584800D01*
X25396580Y15572990D01*
X25404370Y15565120D01*
X25414100Y15562500D01*
X25423830Y15565120D01*
X25431620Y15572990D01*
X25435510Y15584800D01*
Y15641200D01*
G01X25470410Y15562500D02*
Y15641200D01*
X25515190Y15562500D01*
Y15641200D01*
G01X25592910Y15634640D02*
X25587070Y15638580D01*
X25580260Y15641200D01*
X25572470D01*
X25563710Y15637260D01*
X25556900Y15630710D01*
X25552030Y15622840D01*
X25548140Y15609720D01*
X25547170Y15597910D01*
X25549110Y15586110D01*
X25552030Y15578240D01*
X25557870Y15570370D01*
X25564690Y15565120D01*
X25571500Y15562500D01*
X25578310D01*
X25585130Y15565120D01*
X25590970Y15569060D01*
X25595830Y15574300D01*
G01X25629760Y15562500D02*
Y15641200D01*
G01X25670640D02*
Y15562500D01*
G01Y15601850D02*
X25629760D01*
G01X25708460Y15562500D02*
X25749340Y15641200D01*
G01X25708460D02*
X25749340Y15562500D01*
G01X25788130Y15641200D02*
Y15562500D01*
X25827070D01*
G01X25873650Y15588730D02*
X25898950D01*
G01X25986410Y15634640D02*
X25980570Y15638580D01*
X25973760Y15641200D01*
X25965970D01*
X25957210Y15637260D01*
X25950400Y15630710D01*
X25945530Y15622840D01*
X25941640Y15609720D01*
X25940670Y15597910D01*
X25942610Y15586110D01*
X25945530Y15578240D01*
X25951370Y15570370D01*
X25958190Y15565120D01*
X25965000Y15562500D01*
X25971810D01*
X25978630Y15565120D01*
X25984470Y15569060D01*
X25989330Y15574300D01*
G01X26065110Y15634640D02*
X26059270Y15638580D01*
X26052460Y15641200D01*
X26044670D01*
X26035910Y15637260D01*
X26029100Y15630710D01*
X26024230Y15622840D01*
X26020340Y15609720D01*
X26019370Y15597910D01*
X26021310Y15586110D01*
X26024230Y15578240D01*
X26030070Y15570370D01*
X26036890Y15565120D01*
X26043700Y15562500D01*
X26050510D01*
X26057330Y15565120D01*
X26063170Y15569060D01*
X26068030Y15574300D01*
G01X26122400Y15562500D02*
Y15641200D01*
X26110720Y15625460D01*
G01Y15562500D02*
X26134080D01*
G01X26179690Y15578240D02*
X26185530Y15569060D01*
X26193310Y15563810D01*
X26202070Y15562500D01*
X26209860Y15563810D01*
X26217650Y15570370D01*
X26222510Y15578240D01*
X26223490Y15586110D01*
X26221540Y15595290D01*
X26214730Y15601850D01*
X26207910Y15604470D01*
X26199150D01*
G01X26207910D02*
X26213750Y15608410D01*
X26218620Y15614970D01*
X26220570Y15622840D01*
X26218620Y15630710D01*
X26213750Y15637260D01*
X26204990Y15641200D01*
X26196230Y15639890D01*
X26187470Y15634640D01*
G01X26279800Y15562500D02*
Y15641200D01*
X26268120Y15625460D01*
G01Y15562500D02*
X26291480D01*
G01X26340010Y15628080D02*
X26345850Y15635950D01*
X26352660Y15639890D01*
X26360450Y15641200D01*
X26370180Y15638580D01*
X26376990Y15632020D01*
X26378940Y15624150D01*
X26377970Y15616280D01*
X26374070Y15609720D01*
X26354610Y15596600D01*
X26345850Y15587420D01*
X26340010Y15574300D01*
X26338060Y15562500D01*
X26378940D01*
G01X26417730D02*
Y15641200D01*
X26442070D01*
X26449850Y15637260D01*
X26454720Y15632020D01*
X26456670Y15621520D01*
X26454720Y15611030D01*
X26448880Y15604470D01*
X26442070Y15600540D01*
X26417730D01*
G01X26442070D02*
X26456670Y15562500D01*
G01X26515900D02*
Y15641200D01*
X26504220Y15625460D01*
G01Y15562500D02*
X26527580D01*
G01X26651890D02*
Y15641200D01*
X26671350D01*
X26679140Y15637260D01*
X26684980Y15632020D01*
X26689850Y15624150D01*
X26693740Y15614970D01*
X26694710Y15601850D01*
X26693740Y15588730D01*
X26689850Y15579550D01*
X26684980Y15571680D01*
X26679140Y15566430D01*
X26671350Y15562500D01*
X26651890D01*
X20315000Y24972100D03*
Y25202100D03*
X22172500Y19832500D03*
X21927100Y29280000D03*
X22157100D03*
X23672500Y19832500D03*
X25540000Y24967900D03*
Y25197900D03*
G54D14*
X20300000Y25760000D03*
G54D15*
G01X20090000Y16222500D02*
Y14722500D01*
X27590000D01*
Y16222500D01*
X20090000D01*
G01X23840000D02*
Y14722500D01*
G01Y15222500D02*
X27590000D01*
G01Y15722500D02*
X23840000D01*
G01X25107600D02*
Y15222500D01*
X20375000Y28855000D03*
X20172000D03*
X20273500Y28093000D03*
G54D16*
X21535000Y29265000D03*
X20745000D03*
G54D17*
X22742500Y22615000D03*
X22842500D03*
X22942500D03*
X23042500D03*
X23142500D03*
Y22715000D03*
X23042500D03*
X22942500D03*
X22842500D03*
X22742500D03*
X23142500Y22815000D03*
X23042500D03*
X22942500D03*
X22842500D03*
X22742500D03*
X23142500Y22915000D03*
X23042500D03*
X22942500D03*
X22842500D03*
X22742500D03*
X23142500Y23015000D03*
X23042500D03*
X22942500D03*
X22842500D03*
X22742500D03*
G54D18*
G01X23520000Y28960000D02*
X23485000D01*
X23225000Y28700000D01*
G54D19*
G01X20553800Y21309800D02*
X20640000Y21396000D01*
G01X20553800Y21563800D02*
X20640000Y21650000D01*
G01X20212100Y25672100D02*
X20300000Y25760000D01*
G01D02*
X20387900Y25847900D01*
G01X20087800Y29107800D02*
X20250000Y29270000D01*
G01D02*
X20412200Y29432200D01*
G01X20640000Y21542300D02*
Y21565000D01*
G01Y21503700D02*
Y21485000D01*
G01Y21396000D02*
X20726200Y21482200D01*
G01X20640000Y21650000D02*
X20726200Y21736200D01*
G01X20892300Y24084300D02*
Y24105000D01*
G01X20784600Y24192000D02*
X20800000D01*
G01X20806100Y24105800D02*
X20892300Y24192000D01*
G01D02*
X20978500Y24278200D01*
G01X21254000Y25462000D02*
X21235000D01*
G01X21146300Y25608300D02*
Y25630000D01*
G01Y25823700D02*
Y25822300D01*
G01X21060100Y25629800D02*
X21146300Y25716000D01*
G01D02*
X21232500Y25802200D01*
G01X21060100Y25375800D02*
X21146300Y25462000D01*
G01D02*
X21232500Y25548200D01*
G01X25123800Y21309800D02*
X25210000Y21396000D01*
G01D02*
X25296200Y21482200D01*
G01X25123800Y21563800D02*
X25210000Y21650000D01*
G01D02*
X25296200Y21736200D01*
G01X25126100Y24359800D02*
X25212300Y24446000D01*
G01D02*
X25298500Y24532200D01*
G01X25417800Y29107800D02*
X25580000Y29270000D01*
G01X25417800Y29432200D02*
X25580000Y29270000D01*
M02*
