G04 ================== begin FILE IDENTIFICATION RECORD ==================*
G04 Layout Name:  LAUNCHXL-CC1312R1.brd*
G04 Film Name:    WCS042D_LAUNCHXL-CC1312R1_D_soldmask_top*
G04 File Format:  Gerber RS274X*
G04 File Origin:  Cadence Allegro 17.2-S024*
G04 Origin Date:  Wed Oct 10 12:29:48 2018*
G04 *
G04 Layer:  DRAWING FORMAT/TITLE_BLOCK*
G04 Layer:  BOARD GEOMETRY/TOP SOLDER MASK*
G04 Layer:  PACKAGE GEOMETRY/SOLDERMASK_TOP*
G04 Layer:  VIA CLASS/SOLDERMASK_TOP*
G04 Layer:  PIN/SOLDERMASK_TOP*
G04 Layer:  BOARD GEOMETRY/OUTLINE*
G04 *
G04 Offset:    (0.0000 0.0000)*
G04 Mirror:    No*
G04 Mode:      Positive*
G04 Rotation:  0*
G04 FullContactRelief:  No*
G04 UndefLineWidth:     0.0990*
G04 ================== end FILE IDENTIFICATION RECORD ====================*
%FSLAX25Y25*MOMM*%
%IR0*IPPOS*OFA0.00000B0.00000*MIA0B0*SFA1.00000B1.00000*%
%AMMACRO82*
4,1,41,0.0,.526,
-.226,.526,
-.265108,.522345,
-.302987,.511955,
-.338486,.495145,
-.370527,.472426,
-.398137,.444488,
-.420475,.412181,
-.436864,.376485,
-.446805,.338486,
-.45,.3,
-.45,-.3,
-.446693,-.339139,
-.43664,-.377109,
-.420146,-.412756,
-.397713,-.444998,
-.370022,-.472854,
-.337914,-.495479,
-.302365,-.512184,
-.264456,-.522463,
-.226,-.526,
.226,-.526,
.265108,-.522345,
.302987,-.511955,
.338486,-.495145,
.370527,-.472426,
.398137,-.444488,
.420475,-.412181,
.436864,-.376485,
.446805,-.338486,
.45,-.3,
.45,.3,
.446693,.339139,
.43664,.377109,
.420146,.412756,
.397713,.444998,
.370022,.472854,
.337914,.495479,
.302365,.512184,
.264456,.522463,
.226,.526,
0.0,.526,
0.0*
%
%ADD82MACRO82*%
%AMMACRO48*
4,1,41,.375,0.0,
.375,.185,
.372189,.217125,
.363843,.248274,
.350215,.2775,
.331718,.303916,
.308916,.326718,
.2825,.345215,
.253274,.358843,
.222125,.367189,
.19,.37,
-.19,.37,
-.222125,.367189,
-.253274,.358843,
-.2825,.345215,
-.308916,.326718,
-.331718,.303916,
-.350215,.2775,
-.363843,.248274,
-.372189,.217125,
-.375,.185,
-.375,-.185,
-.372189,-.217125,
-.363843,-.248274,
-.350215,-.2775,
-.331718,-.303916,
-.308916,-.326718,
-.2825,-.345215,
-.253274,-.358843,
-.222125,-.367189,
-.19,-.37,
.19,-.37,
.222125,-.367189,
.253274,-.358843,
.2825,-.345215,
.308916,-.326718,
.331718,-.303916,
.350215,-.2775,
.363843,-.248274,
.372189,-.217125,
.375,-.185,
.375,0.0,
0.0*
%
%ADD48MACRO48*%
%AMMACRO35*
4,1,45,.2652,-.2652,
.396,-.1344,
.416696,-.109664,
.432823,-.081739,
.443856,-.051437,
.449459,-.01968,
.449463,.012567,
.443867,.044326,
.432841,.07463,
.41672,.102559,
.395995,.127264,
.396,.1273,
.1273,.396,
.102576,.416708,
.074649,.432832,
.044346,.443861,
.012589,.449461,
-.019659,.449461,
-.051417,.443861,
-.08172,.432832,
-.109647,.416708,
-.13435,.39598,
-.1344,.396,
-.396,.1344,
-.416696,.109664,
-.432823,.081739,
-.443856,.051437,
-.449459,.01968,
-.449463,-.012567,
-.443867,-.044326,
-.432841,-.07463,
-.41672,-.102559,
-.395995,-.127264,
-.396,-.1273,
-.1273,-.396,
-.102576,-.416708,
-.074649,-.432832,
-.044346,-.443861,
-.012589,-.449461,
.019659,-.449461,
.051417,-.443861,
.08172,-.432832,
.109647,-.416708,
.13435,-.39598,
.1344,-.396,
.2652,-.2652,
0.0*
%
%ADD35MACRO35*%
%AMMACRO47*
4,1,41,0.0,-.775,
.325,-.775,
.381436,-.770063,
.436157,-.7554,
.4875,-.731458,
.533906,-.698964,
.573964,-.658906,
.606458,-.6125,
.6304,-.561157,
.645063,-.506436,
.65,-.45,
.65,.45,
.645063,.506436,
.6304,.561157,
.606458,.6125,
.573964,.658906,
.533906,.698964,
.4875,.731458,
.436157,.7554,
.381436,.770063,
.325,.775,
-.325,.775,
-.381436,.770063,
-.436157,.7554,
-.4875,.731458,
-.533906,.698964,
-.573964,.658906,
-.606458,.6125,
-.6304,.561157,
-.645063,.506436,
-.65,.45,
-.65,-.45,
-.645063,-.506436,
-.6304,-.561157,
-.606458,-.6125,
-.573964,-.658906,
-.533906,-.698964,
-.4875,-.731458,
-.436157,-.7554,
-.381436,-.770063,
-.325,-.775,
0.0,-.775,
0.0*
%
%ADD47MACRO47*%
%AMMACRO41*
4,1,41,0.0,-.375,
.185,-.375,
.217125,-.372189,
.248274,-.363843,
.2775,-.350215,
.303916,-.331718,
.326718,-.308916,
.345215,-.2825,
.358843,-.253274,
.367189,-.222125,
.37,-.19,
.37,.19,
.367189,.222125,
.358843,.253274,
.345215,.2825,
.326718,.308916,
.303916,.331718,
.2775,.350215,
.248274,.363843,
.217125,.372189,
.185,.375,
-.185,.375,
-.217125,.372189,
-.248274,.363843,
-.2775,.350215,
-.303916,.331718,
-.326718,.308916,
-.345215,.2825,
-.358843,.253274,
-.367189,.222125,
-.37,.19,
-.37,-.19,
-.367189,-.222125,
-.358843,-.253274,
-.345215,-.2825,
-.326718,-.308916,
-.303916,-.331718,
-.2775,-.350215,
-.248274,-.363843,
-.217125,-.372189,
-.185,-.375,
0.0,-.375,
0.0*
%
%ADD41MACRO41*%
%AMMACRO89*
4,1,41,0.0,-1.075,
.538,-1.075,
.631328,-1.066747,
.721806,-1.042414,
.806683,-1.002739,
.883381,-.948927,
.94957,-.882615,
1.003239,-.805817,
1.042756,-.720866,
1.066921,-.630343,
1.075,-.538,
1.075,.538,
1.066747,.631328,
1.042414,.721806,
1.002739,.806683,
.948927,.883381,
.882615,.94957,
.805817,1.003239,
.720866,1.042756,
.630343,1.066921,
.538,1.075,
-.538,1.075,
-.631328,1.066747,
-.721806,1.042414,
-.806683,1.002739,
-.883381,.948927,
-.94957,.882615,
-1.003239,.805817,
-1.042756,.720866,
-1.066921,.630343,
-1.075,.538,
-1.075,-.538,
-1.066747,-.631328,
-1.042414,-.721806,
-1.002739,-.806683,
-.948927,-.883381,
-.882615,-.94957,
-.805817,-1.003239,
-.720866,-1.042756,
-.630343,-1.066921,
-.538,-1.075,
0.0,-1.075,
0.0*
%
%ADD89MACRO89*%
%AMMACRO64*
4,1,41,.2383,-.2383,
.3161,-.1605,
.340181,-.131783,
.358916,-.099325,
.37173,-.064106,
.378233,-.027198,
.378228,.010279,
.371716,.047186,
.358894,.082401,
.340152,.114855,
.3161,.1435,
.1435,.3161,
.114795,.340193,
.082335,.358925,
.047116,.371735,
.010207,.378235,
-.02727,.378227,
-.064176,.371711,
-.09939,.358885,
-.131842,.34014,
-.1605,.3161,
-.3161,.1605,
-.340181,.131783,
-.358916,.099325,
-.37173,.064106,
-.378233,.027198,
-.378228,-.010279,
-.371716,-.047186,
-.358894,-.082401,
-.340152,-.114855,
-.3161,-.1435,
-.1435,-.3161,
-.114795,-.340193,
-.082335,-.358925,
-.047116,-.371735,
-.010207,-.378235,
.02727,-.378227,
.064176,-.371711,
.09939,-.358885,
.131842,-.34014,
.1605,-.3161,
.2383,-.2383,
0.0*
%
%ADD64MACRO64*%
%AMMACRO27*
4,1,41,0.0,-.775,
.356,-.775,
.411422,-.770312,
.465188,-.756071,
.515664,-.73271,
.561317,-.700939,
.600759,-.661724,
.632792,-.616254,
.656443,-.565914,
.670993,-.51223,
.676,-.457,
.676,.457,
.670965,.512391,
.656387,.566067,
.63271,.616396,
.600654,.661849,
.561191,.701044,
.515522,.732792,
.465034,.756127,
.411261,.77034,
.356,.775,
-.356,.775,
-.411422,.770312,
-.465188,.756071,
-.515664,.73271,
-.561317,.700939,
-.600759,.661724,
-.632792,.616254,
-.656443,.565914,
-.670993,.51223,
-.676,.457,
-.676,-.457,
-.670965,-.512391,
-.656387,-.566067,
-.63271,-.616396,
-.600654,-.661849,
-.561191,-.701044,
-.515522,-.732792,
-.465034,-.756127,
-.411261,-.77034,
-.356,-.775,
0.0,-.775,
0.0*
%
%ADD27MACRO27*%
%AMMACRO18*
4,1,41,.337,0.0,
.337,.11,
.333734,.147334,
.324034,.183534,
.308195,.2175,
.2867,.248199,
.260199,.2747,
.2295,.296195,
.195534,.312034,
.159334,.321734,
.122,.325,
-.122,.325,
-.159334,.321734,
-.195534,.312034,
-.2295,.296195,
-.260199,.2747,
-.2867,.248199,
-.308195,.2175,
-.324034,.183534,
-.333734,.147334,
-.337,.11,
-.337,-.11,
-.333734,-.147334,
-.324034,-.183534,
-.308195,-.2175,
-.2867,-.248199,
-.260199,-.2747,
-.2295,-.296195,
-.195534,-.312034,
-.159334,-.321734,
-.122,-.325,
.122,-.325,
.159334,-.321734,
.195534,-.312034,
.2295,-.296195,
.260199,-.2747,
.2867,-.248199,
.308195,-.2175,
.324034,-.183534,
.333734,-.147334,
.337,-.11,
.337,0.0,
0.0*
%
%ADD18MACRO18*%
%AMMACRO21*
4,1,41,0.0,-.337,
.11,-.337,
.147334,-.333734,
.183534,-.324034,
.2175,-.308195,
.248199,-.2867,
.2747,-.260199,
.296195,-.2295,
.312034,-.195534,
.321734,-.159334,
.325,-.122,
.325,.122,
.321734,.159334,
.312034,.195534,
.296195,.2295,
.2747,.260199,
.248199,.2867,
.2175,.308195,
.183534,.324034,
.147334,.333734,
.11,.337,
-.11,.337,
-.147334,.333734,
-.183534,.324034,
-.2175,.308195,
-.248199,.2867,
-.2747,.260199,
-.296195,.2295,
-.312034,.195534,
-.321734,.159334,
-.325,.122,
-.325,-.122,
-.321734,-.159334,
-.312034,-.195534,
-.296195,-.2295,
-.2747,-.260199,
-.248199,-.2867,
-.2175,-.308195,
-.183534,-.324034,
-.147334,-.333734,
-.11,-.337,
0.0,-.337,
0.0*
%
%ADD21MACRO21*%
%AMMACRO77*
4,1,41,.45,0.0,
.45,.1,
.448101,.121706,
.442462,.142753,
.433253,.1625,
.420756,.180348,
.405348,.195756,
.3875,.208253,
.367753,.217462,
.346706,.223101,
.325,.225,
-.325,.225,
-.346706,.223101,
-.367753,.217462,
-.3875,.208253,
-.405348,.195756,
-.420756,.180348,
-.433253,.1625,
-.442462,.142753,
-.448101,.121706,
-.45,.1,
-.45,-.1,
-.448101,-.121706,
-.442462,-.142753,
-.433253,-.1625,
-.420756,-.180348,
-.405348,-.195756,
-.3875,-.208253,
-.367753,-.217462,
-.346706,-.223101,
-.325,-.225,
.325,-.225,
.346706,-.223101,
.367753,-.217462,
.3875,-.208253,
.405348,-.195756,
.420756,-.180348,
.433253,-.1625,
.442462,-.142753,
.448101,-.121706,
.45,-.1,
.45,0.0,
0.0*
%
%ADD77MACRO77*%
%AMMACRO32*
4,1,41,.45,0.0,
.45,.244,
.446797,.279833,
.43742,.314566,
.422154,.347143,
.401463,.376574,
.375976,.401965,
.346467,.422544,
.313833,.437687,
.279065,.446932,
.244,.45,
-.244,.45,
-.279833,.446797,
-.314566,.43742,
-.347143,.422154,
-.376574,.401463,
-.401965,.375976,
-.422544,.346467,
-.437687,.313833,
-.446932,.279065,
-.45,.244,
-.45,-.244,
-.446797,-.279833,
-.43742,-.314566,
-.422154,-.347143,
-.401463,-.376574,
-.375976,-.401965,
-.346467,-.422544,
-.313833,-.437687,
-.279065,-.446932,
-.244,-.45,
.244,-.45,
.279833,-.446797,
.314566,-.43742,
.347143,-.422154,
.376574,-.401463,
.401965,-.375976,
.422544,-.346467,
.437687,-.313833,
.446932,-.279065,
.45,-.244,
.45,0.0,
0.0*
%
%ADD32MACRO32*%
%AMMACRO85*
4,1,41,0.0,-.45,
.1,-.45,
.121706,-.448101,
.142753,-.442462,
.1625,-.433253,
.180348,-.420756,
.195756,-.405348,
.208253,-.3875,
.217462,-.367753,
.223101,-.346706,
.225,-.325,
.225,.325,
.223101,.346706,
.217462,.367753,
.208253,.3875,
.195756,.405348,
.180348,.420756,
.1625,.433253,
.142753,.442462,
.121706,.448101,
.1,.45,
-.1,.45,
-.121706,.448101,
-.142753,.442462,
-.1625,.433253,
-.180348,.420756,
-.195756,.405348,
-.208253,.3875,
-.217462,.367753,
-.223101,.346706,
-.225,.325,
-.225,-.325,
-.223101,-.346706,
-.217462,-.367753,
-.208253,-.3875,
-.195756,-.405348,
-.180348,-.420756,
-.1625,-.433253,
-.142753,-.442462,
-.121706,-.448101,
-.1,-.45,
0.0,-.45,
0.0*
%
%ADD85MACRO85*%
%ADD24O,1.651X.3*%
%AMMACRO60*
4,1,45,0.0,-.4,
.206,-.4,
.235307,-.39748,
.263731,-.389909,
.290408,-.377517,
.314529,-.360681,
.335359,-.339912,
.352267,-.315842,
.364738,-.289201,
.372393,-.260799,
.375,-.2315,
.375,-.231,
.375,.231,
.37248,.260307,
.364909,.288731,
.352517,.315408,
.335681,.339529,
.314912,.360359,
.290842,.377267,
.264201,.389738,
.235799,.397393,
.2065,.4,
.206,.4,
-.206,.4,
-.235307,.39748,
-.263731,.389909,
-.290408,.377517,
-.314529,.360681,
-.335359,.339912,
-.352267,.315842,
-.364738,.289201,
-.372393,.260799,
-.375,.2315,
-.375,.231,
-.375,-.231,
-.37248,-.260307,
-.364909,-.288731,
-.352517,-.315408,
-.335681,-.339529,
-.314912,-.360359,
-.290842,-.377267,
-.264201,-.389738,
-.235799,-.397393,
-.2065,-.4,
-.206,-.4,
0.0,-.4,
0.0*
%
%ADD60MACRO60*%
%ADD19O,.3X1.651*%
%ADD58O,1.3X.95*%
%ADD37O,1.049X.551*%
%ADD90R,1.85X.45*%
%AMMACRO38*
4,1,41,.5,0.0,
.5,.075,
.498861,.088024,
.495477,.100652,
.489952,.1125,
.482453,.123209,
.473209,.132453,
.4625,.139952,
.450652,.145477,
.438024,.148861,
.425,.15,
-.425,.15,
-.438024,.148861,
-.450652,.145477,
-.4625,.139952,
-.473209,.132453,
-.482453,.123209,
-.489952,.1125,
-.495477,.100652,
-.498861,.088024,
-.5,.075,
-.5,-.075,
-.498861,-.088024,
-.495477,-.100652,
-.489952,-.1125,
-.482453,-.123209,
-.473209,-.132453,
-.4625,-.139952,
-.450652,-.145477,
-.438024,-.148861,
-.425,-.15,
.425,-.15,
.438024,-.148861,
.450652,-.145477,
.4625,-.139952,
.473209,-.132453,
.482453,-.123209,
.489952,-.1125,
.495477,-.100652,
.498861,-.088024,
.5,-.075,
.5,0.0,
0.0*
%
%ADD38MACRO38*%
%AMMACRO97*
4,1,22,.45,-.2,
.45,.2,
-.35,.2,
-.367365,.198481,
-.384202,.193969,
-.4,.186603,
-.414279,.176604,
-.426604,.164279,
-.436603,.15,
-.443969,.134202,
-.448481,.117365,
-.45,.1,
-.45,-.1,
-.448481,-.117365,
-.443969,-.134202,
-.436603,-.15,
-.426604,-.164279,
-.414279,-.176604,
-.4,-.186603,
-.384202,-.193969,
-.367365,-.198481,
-.35,-.2,
.45,-.2,
0.0*
%
%ADD97MACRO97*%
%AMMACRO83*
4,1,41,-.575,0.0,
-.575,-.238,
-.570166,-.292257,
-.555983,-.344851,
-.532883,-.394183,
-.501567,-.438754,
-.462988,-.47721,
-.418317,-.508383,
-.368911,-.531325,
-.316273,-.545339,
-.262,-.55,
.262,-.55,
.316273,-.545339,
.368911,-.531325,
.418317,-.508383,
.462988,-.47721,
.501567,-.438754,
.532883,-.394183,
.555983,-.344851,
.570166,-.292257,
.575,-.238,
.575,.238,
.570166,.292257,
.555983,.344851,
.532883,.394183,
.501567,.438754,
.462988,.47721,
.418317,.508383,
.368911,.531325,
.316273,.545339,
.262,.55,
-.262,.55,
-.316273,.545339,
-.368911,.531325,
-.418317,.508383,
-.462988,.47721,
-.501567,.438754,
-.532883,.394183,
-.555983,.344851,
-.570166,.292257,
-.575,.238,
-.575,0.0,
0.0*
%
%ADD83MACRO83*%
%AMMACRO71*
4,1,41,0.0,.575,
-.238,.575,
-.292257,.570166,
-.344851,.555983,
-.394183,.532883,
-.438754,.501567,
-.47721,.462988,
-.508383,.418317,
-.531325,.368911,
-.545339,.316273,
-.55,.262,
-.55,-.262,
-.545339,-.316273,
-.531325,-.368911,
-.508383,-.418317,
-.47721,-.462988,
-.438754,-.501567,
-.394183,-.532883,
-.344851,-.555983,
-.292257,-.570166,
-.238,-.575,
.238,-.575,
.292257,-.570166,
.344851,-.555983,
.394183,-.532883,
.438754,-.501567,
.47721,-.462988,
.508383,-.418317,
.531325,-.368911,
.545339,-.316273,
.55,-.262,
.55,.262,
.545339,.316273,
.531325,.368911,
.508383,.418317,
.47721,.462988,
.438754,.501567,
.394183,.532883,
.344851,.555983,
.292257,.570166,
.238,.575,
0.0,.575,
0.0*
%
%ADD71MACRO71*%
%AMMACRO66*
4,1,41,.5,0.0,
.5,.075,
.498101,.096706,
.492462,.117753,
.483253,.1375,
.470756,.155348,
.455348,.170756,
.4375,.183253,
.417753,.192462,
.396706,.198101,
.375,.2,
-.375,.2,
-.396706,.198101,
-.417753,.192462,
-.4375,.183253,
-.455348,.170756,
-.470756,.155348,
-.483253,.1375,
-.492462,.117753,
-.498101,.096706,
-.5,.075,
-.5,-.075,
-.498101,-.096706,
-.492462,-.117753,
-.483253,-.1375,
-.470756,-.155348,
-.455348,-.170756,
-.4375,-.183253,
-.417753,-.192462,
-.396706,-.198101,
-.375,-.2,
.375,-.2,
.396706,-.198101,
.417753,-.192462,
.4375,-.183253,
.455348,-.170756,
.470756,-.155348,
.483253,-.1375,
.492462,-.117753,
.498101,-.096706,
.5,-.075,
.5,0.0,
0.0*
%
%ADD66MACRO66*%
%AMMACRO101*
4,1,41,-.8,0.0,
-.8,-.288,
-.794406,-.35094,
-.777968,-.411952,
-.751184,-.469183,
-.71487,-.520894,
-.670127,-.565513,
-.618317,-.601684,
-.561012,-.62831,
-.499955,-.64458,
-.438,-.65,
.438,-.65,
.50094,-.644406,
.561952,-.627968,
.619183,-.601184,
.670894,-.56487,
.715513,-.520127,
.751684,-.468317,
.77831,-.411012,
.79458,-.349955,
.8,-.288,
.8,.288,
.794406,.35094,
.777968,.411952,
.751184,.469183,
.71487,.520894,
.670127,.565513,
.618317,.601684,
.561012,.62831,
.499955,.64458,
.438,.65,
-.438,.65,
-.50094,.644406,
-.561952,.627968,
-.619183,.601184,
-.670894,.56487,
-.715513,.520127,
-.751684,.468317,
-.77831,.411012,
-.79458,.349955,
-.8,.288,
-.8,0.0,
0.0*
%
%ADD101MACRO101*%
%AMMACRO95*
4,1,22,-.2,-.45,
.2,-.45,
.2,.35,
.198481,.367365,
.193969,.384202,
.186603,.4,
.176604,.414279,
.164279,.426604,
.15,.436603,
.134202,.443969,
.117365,.448481,
.1,.45,
-.1,.45,
-.117365,.448481,
-.134202,.443969,
-.15,.436603,
-.164279,.426604,
-.176604,.414279,
-.186603,.4,
-.193969,.384202,
-.198481,.367365,
-.2,.35,
-.2,-.45,
0.0*
%
%ADD95MACRO95*%
%AMMACRO88*
4,1,41,0.0,.8,
-.288,.8,
-.35094,.794406,
-.411952,.777968,
-.469183,.751184,
-.520894,.71487,
-.565513,.670127,
-.601684,.618317,
-.62831,.561012,
-.64458,.499955,
-.65,.438,
-.65,-.438,
-.644406,-.50094,
-.627968,-.561952,
-.601184,-.619183,
-.56487,-.670894,
-.520127,-.715513,
-.468317,-.751684,
-.411012,-.77831,
-.349955,-.79458,
-.288,-.8,
.288,-.8,
.35094,-.794406,
.411952,-.777968,
.469183,-.751184,
.520894,-.71487,
.565513,-.670127,
.601684,-.618317,
.62831,-.561012,
.64458,-.499955,
.65,-.438,
.65,.438,
.644406,.50094,
.627968,.561952,
.601184,.619183,
.56487,.670894,
.520127,.715513,
.468317,.751684,
.411012,.77831,
.349955,.79458,
.288,.8,
0.0,.8,
0.0*
%
%ADD88MACRO88*%
%AMMACRO67*
4,1,41,0.0,-.5,
.075,-.5,
.096706,-.498101,
.117753,-.492462,
.1375,-.483253,
.155348,-.470756,
.170756,-.455348,
.183253,-.4375,
.192462,-.417753,
.198101,-.396706,
.2,-.375,
.2,.375,
.198101,.396706,
.192462,.417753,
.183253,.4375,
.170756,.455348,
.155348,.470756,
.1375,.483253,
.117753,.492462,
.096706,.498101,
.075,.5,
-.075,.5,
-.096706,.498101,
-.117753,.492462,
-.1375,.483253,
-.155348,.470756,
-.170756,.455348,
-.183253,.4375,
-.192462,.417753,
-.198101,.396706,
-.2,.375,
-.2,-.375,
-.198101,-.396706,
-.192462,-.417753,
-.183253,-.4375,
-.170756,-.455348,
-.155348,-.470756,
-.1375,-.483253,
-.117753,-.492462,
-.096706,-.498101,
-.075,-.5,
0.0,-.5,
0.0*
%
%ADD67MACRO67*%
%AMMACRO102*
4,1,41,0.0,-.55,
.075,-.55,
.096706,-.548101,
.117753,-.542462,
.1375,-.533253,
.155348,-.520756,
.170756,-.505348,
.183253,-.4875,
.192462,-.467753,
.198101,-.446706,
.2,-.425,
.2,.425,
.198101,.446706,
.192462,.467753,
.183253,.4875,
.170756,.505348,
.155348,.520756,
.1375,.533253,
.117753,.542462,
.096706,.548101,
.075,.55,
-.075,.55,
-.096706,.548101,
-.117753,.542462,
-.1375,.533253,
-.155348,.520756,
-.170756,.505348,
-.183253,.4875,
-.192462,.467753,
-.198101,.446706,
-.2,.425,
-.2,-.425,
-.198101,-.446706,
-.192462,-.467753,
-.183253,-.4875,
-.170756,-.505348,
-.155348,-.520756,
-.1375,-.533253,
-.117753,-.542462,
-.096706,-.548101,
-.075,-.55,
0.0,-.55,
0.0*
%
%ADD102MACRO102*%
%AMMACRO57*
4,1,41,-.4,0.0,
-.4,-.075,
-.398101,-.096706,
-.392462,-.117753,
-.383253,-.1375,
-.370756,-.155348,
-.355348,-.170756,
-.3375,-.183253,
-.317753,-.192462,
-.296706,-.198101,
-.275,-.2,
.275,-.2,
.296706,-.198101,
.317753,-.192462,
.3375,-.183253,
.355348,-.170756,
.370756,-.155348,
.383253,-.1375,
.392462,-.117753,
.398101,-.096706,
.4,-.075,
.4,.075,
.398101,.096706,
.392462,.117753,
.383253,.1375,
.370756,.155348,
.355348,.170756,
.3375,.183253,
.317753,.192462,
.296706,.198101,
.275,.2,
-.275,.2,
-.296706,.198101,
-.317753,.192462,
-.3375,.183253,
-.355348,.170756,
-.370756,.155348,
-.383253,.1375,
-.392462,.117753,
-.398101,.096706,
-.4,.075,
-.4,0.0,
0.0*
%
%ADD57MACRO57*%
%AMMACRO86*
4,1,45,0.0,-.5,
.112,-.5,
.144567,-.497238,
.176159,-.488863,
.205817,-.47513,
.23264,-.456455,
.255812,-.433406,
.27463,-.406683,
.288521,-.377099,
.297065,-.345551,
.3,-.313,
.3,-.312,
.3,.312,
.297238,.344567,
.288863,.376159,
.27513,.405817,
.256455,.43264,
.233406,.455812,
.206683,.47463,
.177099,.488521,
.145551,.497065,
.113,.5,
.112,.5,
-.112,.5,
-.144567,.497238,
-.176159,.488863,
-.205817,.47513,
-.23264,.456455,
-.255812,.433406,
-.27463,.406683,
-.288521,.377099,
-.297065,.345551,
-.3,.313,
-.3,.312,
-.3,-.312,
-.297238,-.344567,
-.288863,-.376159,
-.27513,-.405817,
-.256455,-.43264,
-.233406,-.455812,
-.206683,-.47463,
-.177099,-.488521,
-.145551,-.497065,
-.113,-.5,
-.112,-.5,
0.0,-.5,
0.0*
%
%ADD86MACRO86*%
%AMMACRO59*
4,1,41,-.25,0.0,
-.25,-.088,
-.247824,-.111869,
-.241537,-.134998,
-.231328,-.156683,
-.21751,-.176266,
-.2005,-.193153,
-.180817,-.206828,
-.159058,-.216879,
-.135884,-.222998,
-.112,-.225,
.112,-.225,
.135884,-.222998,
.159058,-.216879,
.180817,-.206828,
.2005,-.193153,
.21751,-.176266,
.231328,-.156683,
.241537,-.134998,
.247824,-.111869,
.25,-.088,
.25,.088,
.247824,.111869,
.241537,.134998,
.231328,.156683,
.21751,.176266,
.2005,.193153,
.180817,.206828,
.159058,.216879,
.135884,.222998,
.112,.225,
-.112,.225,
-.135884,.222998,
-.159058,.216879,
-.180817,.206828,
-.2005,.193153,
-.21751,.176266,
-.231328,.156683,
-.241537,.134998,
-.247824,.111869,
-.25,.088,
-.25,0.0,
0.0*
%
%ADD59MACRO59*%
%AMMACRO29*
4,1,41,0.0,.25,
-.088,.25,
-.111869,.247824,
-.134998,.241537,
-.156683,.231328,
-.176266,.21751,
-.193153,.2005,
-.206828,.180817,
-.216879,.159058,
-.222998,.135884,
-.225,.112,
-.225,-.112,
-.222998,-.135884,
-.216879,-.159058,
-.206828,-.180817,
-.193153,-.2005,
-.176266,-.21751,
-.156683,-.231328,
-.134998,-.241537,
-.111869,-.247824,
-.088,-.25,
.088,-.25,
.111869,-.247824,
.134998,-.241537,
.156683,-.231328,
.176266,-.21751,
.193153,-.2005,
.206828,-.180817,
.216879,-.159058,
.222998,-.135884,
.225,-.112,
.225,.112,
.222998,.135884,
.216879,.159058,
.206828,.180817,
.193153,.2005,
.176266,.21751,
.156683,.231328,
.134998,.241537,
.111869,.247824,
.088,.25,
0.0,.25,
0.0*
%
%ADD29MACRO29*%
%AMMACRO42*
4,1,41,0.0,.725,
-.225,.725,
-.277094,.720442,
-.327606,.706908,
-.375,.684808,
-.417836,.654813,
-.454813,.617836,
-.484808,.575,
-.506908,.527606,
-.520442,.477094,
-.525,.425,
-.525,-.425,
-.520442,-.477094,
-.506908,-.527606,
-.484808,-.575,
-.454813,-.617836,
-.417836,-.654813,
-.375,-.684808,
-.327606,-.706908,
-.277094,-.720442,
-.225,-.725,
.225,-.725,
.277094,-.720442,
.327606,-.706908,
.375,-.684808,
.417836,-.654813,
.454813,-.617836,
.484808,-.575,
.506908,-.527606,
.520442,-.477094,
.525,-.425,
.525,.425,
.520442,.477094,
.506908,.527606,
.484808,.575,
.454813,.617836,
.417836,.654813,
.375,.684808,
.327606,.706908,
.277094,.720442,
.225,.725,
0.0,.725,
0.0*
%
%ADD42MACRO42*%
%AMMACRO16*
4,1,41,-.725,0.0,
-.725,-.225,
-.720442,-.277094,
-.706908,-.327606,
-.684808,-.375,
-.654813,-.417836,
-.617836,-.454813,
-.575,-.484808,
-.527606,-.506908,
-.477094,-.520442,
-.425,-.525,
.425,-.525,
.477094,-.520442,
.527606,-.506908,
.575,-.484808,
.617836,-.454813,
.654813,-.417836,
.684808,-.375,
.706908,-.327606,
.720442,-.277094,
.725,-.225,
.725,.225,
.720442,.277094,
.706908,.327606,
.684808,.375,
.654813,.417836,
.617836,.454813,
.575,.484808,
.527606,.506908,
.477094,.520442,
.425,.525,
-.425,.525,
-.477094,.520442,
-.527606,.506908,
-.575,.484808,
-.617836,.454813,
-.654813,.417836,
-.684808,.375,
-.706908,.327606,
-.720442,.277094,
-.725,.225,
-.725,0.0,
0.0*
%
%ADD16MACRO16*%
%AMMACRO76*
4,1,41,-.45,0.0,
-.45,-.075,
-.448861,-.088024,
-.445477,-.100652,
-.439952,-.1125,
-.432453,-.123209,
-.423209,-.132453,
-.4125,-.139952,
-.400652,-.145477,
-.388024,-.148861,
-.375,-.15,
.375,-.15,
.388024,-.148861,
.400652,-.145477,
.4125,-.139952,
.423209,-.132453,
.432453,-.123209,
.439952,-.1125,
.445477,-.100652,
.448861,-.088024,
.45,-.075,
.45,.075,
.448861,.088024,
.445477,.100652,
.439952,.1125,
.432453,.123209,
.423209,.132453,
.4125,.139952,
.400652,.145477,
.388024,.148861,
.375,.15,
-.375,.15,
-.388024,.148861,
-.400652,.145477,
-.4125,.139952,
-.423209,.132453,
-.432453,.123209,
-.439952,.1125,
-.445477,.100652,
-.448861,.088024,
-.45,.075,
-.45,0.0,
0.0*
%
%ADD76MACRO76*%
%AMMACRO112*
4,1,41,0.0,.775,
-.288,.775,
-.337916,.770545,
-.386301,.757491,
-.431683,.736232,
-.472684,.707416,
-.508059,.671918,
-.536732,.630817,
-.557833,.585361,
-.570719,.536931,
-.575,.488,
-.575,-.488,
-.570545,-.537916,
-.557491,-.586301,
-.536232,-.631683,
-.507416,-.672684,
-.471918,-.708059,
-.430817,-.736732,
-.385361,-.757833,
-.336931,-.770719,
-.288,-.775,
.288,-.775,
.337916,-.770545,
.386301,-.757491,
.431683,-.736232,
.472684,-.707416,
.508059,-.671918,
.536732,-.630817,
.557833,-.585361,
.570719,-.536931,
.575,-.488,
.575,.488,
.570545,.537916,
.557491,.586301,
.536232,.631683,
.507416,.672684,
.471918,.708059,
.430817,.736732,
.385361,.757833,
.336931,.770719,
.288,.775,
0.0,.775,
0.0*
%
%ADD112MACRO112*%
%AMMACRO43*
4,1,41,-.775,0.0,
-.775,-.288,
-.770545,-.337916,
-.757491,-.386301,
-.736232,-.431683,
-.707416,-.472684,
-.671918,-.508059,
-.630817,-.536732,
-.585361,-.557833,
-.536931,-.570719,
-.488,-.575,
.488,-.575,
.537916,-.570545,
.586301,-.557491,
.631683,-.536232,
.672684,-.507416,
.708059,-.471918,
.736732,-.430817,
.757833,-.385361,
.770719,-.336931,
.775,-.288,
.775,.288,
.770545,.337916,
.757491,.386301,
.736232,.431683,
.707416,.472684,
.671918,.508059,
.630817,.536732,
.585361,.557833,
.536931,.570719,
.488,.575,
-.488,.575,
-.537916,.570545,
-.586301,.557491,
-.631683,.536232,
-.672684,.507416,
-.708059,.471918,
-.736732,.430817,
-.757833,.385361,
-.770719,.336931,
-.775,.288,
-.775,0.0,
0.0*
%
%ADD43MACRO43*%
%AMMACRO72*
4,1,20,-1.275,.9,
1.275,.9,
1.275,.425,
1.975,.425,
1.975,.075,
1.275,.075,
1.275,-.075,
1.975,-.075,
1.975,-.425,
1.275,-.425,
1.275,-.9,
-1.275,-.9,
-1.275,-.425,
-1.975,-.425,
-1.975,-.075,
-1.275,-.075,
-1.275,.075,
-1.975,.075,
-1.975,.425,
-1.275,.425,
-1.275,.9,
0.0*
%
%ADD72MACRO72*%
%AMMACRO108*
4,1,41,.775,0.0,
.775,.075,
.773101,.096706,
.767462,.117753,
.758253,.1375,
.745756,.155348,
.730348,.170756,
.7125,.183253,
.692753,.192462,
.671706,.198101,
.65,.2,
-.65,.2,
-.671706,.198101,
-.692753,.192462,
-.7125,.183253,
-.730348,.170756,
-.745756,.155348,
-.758253,.1375,
-.767462,.117753,
-.773101,.096706,
-.775,.075,
-.775,-.075,
-.773101,-.096706,
-.767462,-.117753,
-.758253,-.1375,
-.745756,-.155348,
-.730348,-.170756,
-.7125,-.183253,
-.692753,-.192462,
-.671706,-.198101,
-.65,-.2,
.65,-.2,
.671706,-.198101,
.692753,-.192462,
.7125,-.183253,
.730348,-.170756,
.745756,-.155348,
.758253,-.1375,
.767462,-.117753,
.773101,-.096706,
.775,-.075,
.775,0.0,
0.0*
%
%ADD108MACRO108*%
%AMMACRO39*
4,1,41,0.0,.375,
-.05,.375,
-.067365,.373481,
-.084202,.368969,
-.1,.361603,
-.114279,.351604,
-.126604,.339279,
-.136603,.325,
-.143969,.309202,
-.148481,.292365,
-.15,.275,
-.15,-.275,
-.148481,-.292365,
-.143969,-.309202,
-.136603,-.325,
-.126604,-.339279,
-.114279,-.351604,
-.1,-.361603,
-.084202,-.368969,
-.067365,-.373481,
-.05,-.375,
.05,-.375,
.067365,-.373481,
.084202,-.368969,
.1,-.361603,
.114279,-.351604,
.126604,-.339279,
.136603,-.325,
.143969,-.309202,
.148481,-.292365,
.15,-.275,
.15,.275,
.148481,.292365,
.143969,.309202,
.136603,.325,
.126604,.339279,
.114279,.351604,
.1,.361603,
.084202,.368969,
.067365,.373481,
.05,.375,
0.0,.375,
0.0*
%
%ADD39MACRO39*%
%AMMACRO109*
4,1,41,0.0,-.775,
.075,-.775,
.096706,-.773101,
.117753,-.767462,
.1375,-.758253,
.155348,-.745756,
.170756,-.730348,
.183253,-.7125,
.192462,-.692753,
.198101,-.671706,
.2,-.65,
.2,.65,
.198101,.671706,
.192462,.692753,
.183253,.7125,
.170756,.730348,
.155348,.745756,
.1375,.758253,
.117753,.767462,
.096706,.773101,
.075,.775,
-.075,.775,
-.096706,.773101,
-.117753,.767462,
-.1375,.758253,
-.155348,.745756,
-.170756,.730348,
-.183253,.7125,
-.192462,.692753,
-.198101,.671706,
-.2,.65,
-.2,-.65,
-.198101,-.671706,
-.192462,-.692753,
-.183253,-.7125,
-.170756,-.730348,
-.155348,-.745756,
-.1375,-.758253,
-.117753,-.767462,
-.096706,-.773101,
-.075,-.775,
0.0,-.775,
0.0*
%
%ADD109MACRO109*%
%AMMACRO93*
4,1,45,0.0,-1.6,
.187,-1.6,
.23259,-1.596099,
.27681,-1.58434,
.318317,-1.565082,
.355849,-1.538908,
.388265,-1.506615,
.414582,-1.469183,
.433998,-1.42775,
.445925,-1.383575,
.45,-1.338,
.45,-1.337,
.45,1.337,
.446099,1.38259,
.43434,1.42681,
.415082,1.468317,
.388908,1.505849,
.356615,1.538265,
.319183,1.564582,
.27775,1.583998,
.233575,1.595925,
.188,1.6,
.187,1.6,
-.187,1.6,
-.23259,1.596099,
-.27681,1.58434,
-.318317,1.565082,
-.355849,1.538908,
-.388265,1.506615,
-.414582,1.469183,
-.433998,1.42775,
-.445925,1.383575,
-.45,1.338,
-.45,1.337,
-.45,-1.337,
-.446099,-1.38259,
-.43434,-1.42681,
-.415082,-1.468317,
-.388908,-1.505849,
-.356615,-1.538265,
-.319183,-1.564582,
-.27775,-1.583998,
-.233575,-1.595925,
-.188,-1.6,
-.187,-1.6,
0.0,-1.6,
0.0*
%
%ADD93MACRO93*%
%AMMACRO116*
4,1,41,.8,0.0,
.8,.138,
.797824,.161869,
.791537,.184998,
.781329,.206683,
.76751,.226266,
.750501,.243152,
.730817,.256828,
.709058,.266879,
.685885,.272998,
.663,.275,
-.663,.275,
-.686869,.272824,
-.709998,.266537,
-.731683,.256329,
-.751266,.24251,
-.768152,.225501,
-.781828,.205817,
-.791879,.184058,
-.797998,.160885,
-.8,.138,
-.8,-.138,
-.797824,-.161869,
-.791537,-.184998,
-.781329,-.206683,
-.76751,-.226266,
-.750501,-.243152,
-.730817,-.256828,
-.709058,-.266879,
-.685885,-.272998,
-.663,-.275,
.663,-.275,
.686869,-.272824,
.709998,-.266537,
.731683,-.256329,
.751266,-.24251,
.768152,-.225501,
.781828,-.205817,
.791879,-.184058,
.797998,-.160885,
.8,-.138,
.8,0.0,
0.0*
%
%ADD116MACRO116*%
%AMMACRO115*
4,1,41,-2.475,0.0,
-2.475,-.288,
-2.469406,-.35094,
-2.452968,-.411952,
-2.426184,-.469183,
-2.38987,-.520894,
-2.345127,-.565513,
-2.293317,-.601684,
-2.236012,-.62831,
-2.174955,-.64458,
-2.112,-.65,
2.112,-.65,
2.174955,-.64458,
2.236012,-.62831,
2.293317,-.601684,
2.345127,-.565513,
2.38987,-.520894,
2.426184,-.469183,
2.452968,-.411952,
2.469406,-.35094,
2.475,-.288,
2.475,.288,
2.469406,.35094,
2.452968,.411952,
2.426184,.469183,
2.38987,.520894,
2.345127,.565513,
2.293317,.601684,
2.236012,.62831,
2.174955,.64458,
2.112,.65,
-2.112,.65,
-2.174955,.64458,
-2.236012,.62831,
-2.293317,.601684,
-2.345127,.565513,
-2.38987,.520894,
-2.426184,.469183,
-2.452968,.411952,
-2.469406,.35094,
-2.475,.288,
-2.475,0.0,
0.0*
%
%ADD115MACRO115*%
%AMMACRO73*
4,1,45,0.0,.45,
-.088,.45,
-.103187,.448584,
-.117896,.444552,
-.131683,.438028,
-.144127,.429208,
-.15485,.418361,
-.163527,.405818,
-.169894,.391958,
-.173757,.377203,
-.175,.362001,
-.175,.362,
-.175,-.362,
-.173758,-.377202,
-.169894,-.391957,
-.163528,-.405817,
-.154851,-.418361,
-.144127,-.429207,
-.131684,-.438027,
-.117897,-.444552,
-.103187,-.448584,
-.088001,-.45,
-.088,-.45,
.088,-.45,
.103187,-.448584,
.117896,-.444552,
.131683,-.438028,
.144127,-.429208,
.15485,-.418361,
.163527,-.405818,
.169894,-.391958,
.173757,-.377203,
.175,-.362001,
.175,-.362,
.175,.362,
.173758,.377202,
.169894,.391957,
.163528,.405817,
.154851,.418361,
.144127,.429207,
.131684,.438027,
.117897,.444552,
.103187,.448584,
.088001,.45,
.088,.45,
0.0,.45,
0.0*
%
%ADD73MACRO73*%
%AMMACRO54*
4,1,44,0.0,-.75,
.112,-.75,
.140225,-.747618,
.167608,-.740371,
.193317,-.728479,
.21657,-.712304,
.236661,-.692336,
.252979,-.669183,
.265029,-.643548,
.272444,-.61621,
.275,-.588,
.275,.588,
.272444,.61621,
.265029,.643548,
.252979,.669183,
.236661,.692336,
.21657,.712304,
.193317,.728479,
.167608,.740371,
.140225,.747618,
.112,.75,
.112,.75,
-.112,.75,
-.140225,.747618,
-.167608,.740371,
-.193317,.728479,
-.21657,.712304,
-.236661,.692336,
-.252979,.669183,
-.265029,.643548,
-.272444,.61621,
-.275,.588,
-.275,.588,
-.275,-.588,
-.272444,-.61621,
-.265029,-.643548,
-.252979,-.669183,
-.236661,-.692336,
-.21657,-.712304,
-.193317,-.728479,
-.167608,-.740371,
-.140225,-.747618,
-.112,-.75,
-.112,-.75,
0.0,-.75,
0.0*
%
%ADD54MACRO54*%
%AMMACRO105*
4,1,41,1.075,0.0,
1.075,.15,
1.071582,.189071,
1.061431,.226955,
1.044856,.2625,
1.02236,.294627,
.994627,.32236,
.9625,.344856,
.926955,.361431,
.889071,.371582,
.85,.375,
-.85,.375,
-.889071,.371582,
-.926955,.361431,
-.9625,.344856,
-.994627,.32236,
-1.02236,.294627,
-1.044856,.2625,
-1.061431,.226955,
-1.071582,.189071,
-1.075,.15,
-1.075,-.15,
-1.071582,-.189071,
-1.061431,-.226955,
-1.044856,-.2625,
-1.02236,-.294627,
-.994627,-.32236,
-.9625,-.344856,
-.926955,-.361431,
-.889071,-.371582,
-.85,-.375,
.85,-.375,
.889071,-.371582,
.926955,-.361431,
.9625,-.344856,
.994627,-.32236,
1.02236,-.294627,
1.044856,-.2625,
1.061431,-.226955,
1.071582,-.189071,
1.075,-.15,
1.075,0.0,
0.0*
%
%ADD105MACRO105*%
%AMMACRO36*
4,1,41,-.45,0.0,
-.45,-.15,
-.446582,-.189071,
-.436431,-.226955,
-.419856,-.2625,
-.39736,-.294627,
-.369627,-.32236,
-.3375,-.344856,
-.301955,-.361431,
-.264071,-.371582,
-.225,-.375,
.225,-.375,
.264071,-.371582,
.301955,-.361431,
.3375,-.344856,
.369627,-.32236,
.39736,-.294627,
.419856,-.2625,
.436431,-.226955,
.446582,-.189071,
.45,-.15,
.45,.15,
.446582,.189071,
.436431,.226955,
.419856,.2625,
.39736,.294627,
.369627,.32236,
.3375,.344856,
.301955,.361431,
.264071,.371582,
.225,.375,
-.225,.375,
-.264071,.371582,
-.301955,.361431,
-.3375,.344856,
-.369627,.32236,
-.39736,.294627,
-.419856,.2625,
-.436431,.226955,
-.446582,.189071,
-.45,.15,
-.45,0.0,
0.0*
%
%ADD36MACRO36*%
%AMMACRO49*
4,1,41,0.0,.375,
-.185,.375,
-.217125,.372189,
-.248274,.363843,
-.2775,.350215,
-.303916,.331718,
-.326718,.308916,
-.345215,.2825,
-.358843,.253274,
-.367189,.222125,
-.37,.19,
-.37,-.19,
-.367189,-.222125,
-.358843,-.253274,
-.345215,-.2825,
-.326718,-.308916,
-.303916,-.331718,
-.2775,-.350215,
-.248274,-.363843,
-.217125,-.372189,
-.185,-.375,
.185,-.375,
.217125,-.372189,
.248274,-.363843,
.2775,-.350215,
.303916,-.331718,
.326718,-.308916,
.345215,-.2825,
.358843,-.253274,
.367189,-.222125,
.37,-.19,
.37,.19,
.367189,.222125,
.358843,.253274,
.345215,.2825,
.326718,.308916,
.303916,.331718,
.2775,.350215,
.248274,.363843,
.217125,.372189,
.185,.375,
0.0,.375,
0.0*
%
%ADD49MACRO49*%
%AMMACRO34*
4,1,45,-.2652,-.2652,
-.1344,-.396,
-.109664,-.416696,
-.081739,-.432823,
-.051437,-.443856,
-.01968,-.449459,
.012567,-.449463,
.044326,-.443867,
.07463,-.432841,
.102559,-.41672,
.127264,-.395995,
.1273,-.396,
.396,-.1273,
.416708,-.102576,
.432832,-.074649,
.443861,-.044346,
.449461,-.012589,
.449461,.019659,
.443861,.051417,
.432832,.08172,
.416708,.109647,
.39598,.13435,
.396,.1344,
.1344,.396,
.109664,.416696,
.081739,.432823,
.051437,.443856,
.01968,.449459,
-.012567,.449463,
-.044326,.443867,
-.07463,.432841,
-.102559,.41672,
-.127264,.395995,
-.1273,.396,
-.396,.1273,
-.416708,.102576,
-.432832,.074649,
-.443861,.044346,
-.449461,.012589,
-.449461,-.019659,
-.443861,-.051417,
-.432832,-.08172,
-.416708,-.109647,
-.39598,-.13435,
-.396,-.1344,
-.2652,-.2652,
0.0*
%
%ADD34MACRO34*%
%AMMACRO33*
4,1,45,-.2652,.2652,
-.396,.1344,
-.416696,.109664,
-.432823,.081739,
-.443856,.051437,
-.449459,.01968,
-.449463,-.012567,
-.443867,-.044326,
-.432841,-.07463,
-.41672,-.102559,
-.395995,-.127264,
-.396,-.1273,
-.1273,-.396,
-.102576,-.416708,
-.074649,-.432832,
-.044346,-.443861,
-.012589,-.449461,
.019659,-.449461,
.051417,-.443861,
.08172,-.432832,
.109647,-.416708,
.13435,-.39598,
.1344,-.396,
.396,-.1344,
.416696,-.109664,
.432823,-.081739,
.443856,-.051437,
.449459,-.01968,
.449463,.012567,
.443867,.044326,
.432841,.07463,
.41672,.102559,
.395995,.127264,
.396,.1273,
.1273,.396,
.102576,.416708,
.074649,.432832,
.044346,.443861,
.012589,.449461,
-.019659,.449461,
-.051417,.443861,
-.08172,.432832,
-.109647,.416708,
-.13435,.39598,
-.1344,.396,
-.2652,.2652,
0.0*
%
%ADD33MACRO33*%
%AMMACRO26*
4,1,41,-.375,0.0,
-.375,-.185,
-.372189,-.217125,
-.363843,-.248274,
-.350215,-.2775,
-.331718,-.303916,
-.308916,-.326718,
-.2825,-.345215,
-.253274,-.358843,
-.222125,-.367189,
-.19,-.37,
.19,-.37,
.222125,-.367189,
.253274,-.358843,
.2825,-.345215,
.308916,-.326718,
.331718,-.303916,
.350215,-.2775,
.363843,-.248274,
.372189,-.217125,
.375,-.185,
.375,.185,
.372189,.217125,
.363843,.248274,
.350215,.2775,
.331718,.303916,
.308916,.326718,
.2825,.345215,
.253274,.358843,
.222125,.367189,
.19,.37,
-.19,.37,
-.222125,.367189,
-.253274,.358843,
-.2825,.345215,
-.308916,.326718,
-.331718,.303916,
-.350215,.2775,
-.363843,.248274,
-.372189,.217125,
-.375,.185,
-.375,0.0,
0.0*
%
%ADD26MACRO26*%
%AMMACRO62*
4,1,41,.526,0.0,
.526,.226,
.522345,.265108,
.511955,.302987,
.495145,.338486,
.472426,.370527,
.444488,.398137,
.412181,.420475,
.376485,.436864,
.338486,.446805,
.3,.45,
-.3,.45,
-.339139,.446693,
-.377109,.43664,
-.412756,.420146,
-.444998,.397713,
-.472854,.370022,
-.495479,.337914,
-.512184,.302365,
-.522463,.264456,
-.526,.226,
-.526,-.226,
-.522345,-.265108,
-.511955,-.302987,
-.495145,-.338486,
-.472426,-.370527,
-.444488,-.398137,
-.412181,-.420475,
-.376485,-.436864,
-.338486,-.446805,
-.3,-.45,
.3,-.45,
.339139,-.446693,
.377109,-.43664,
.412756,-.420146,
.444998,-.397713,
.472854,-.370022,
.495479,-.337914,
.512184,-.302365,
.522463,-.264456,
.526,-.226,
.526,0.0,
0.0*
%
%ADD62MACRO62*%
%AMMACRO63*
4,1,41,-.2383,.2383,
-.3161,.1605,
-.340181,.131783,
-.358916,.099325,
-.37173,.064106,
-.378233,.027198,
-.378228,-.010279,
-.371716,-.047186,
-.358894,-.082401,
-.340152,-.114855,
-.3161,-.1435,
-.1435,-.3161,
-.114795,-.340193,
-.082335,-.358925,
-.047116,-.371735,
-.010207,-.378235,
.02727,-.378227,
.064176,-.371711,
.09939,-.358885,
.131842,-.34014,
.1605,-.3161,
.3161,-.1605,
.340181,-.131783,
.358916,-.099325,
.37173,-.064106,
.378233,-.027198,
.378228,.010279,
.371716,.047186,
.358894,.082401,
.340152,.114855,
.3161,.1435,
.1435,.3161,
.114795,.340193,
.082335,.358925,
.047116,.371735,
.010207,.378235,
-.02727,.378227,
-.064176,.371711,
-.09939,.358885,
-.131842,.34014,
-.1605,.3161,
-.2383,.2383,
0.0*
%
%ADD63MACRO63*%
%AMMACRO25*
4,1,41,-.337,0.0,
-.337,-.11,
-.333734,-.147334,
-.324034,-.183534,
-.308195,-.2175,
-.2867,-.248199,
-.260199,-.2747,
-.2295,-.296195,
-.195534,-.312034,
-.159334,-.321734,
-.122,-.325,
.122,-.325,
.159334,-.321734,
.195534,-.312034,
.2295,-.296195,
.260199,-.2747,
.2867,-.248199,
.308195,-.2175,
.324034,-.183534,
.333734,-.147334,
.337,-.11,
.337,.11,
.333734,.147334,
.324034,.183534,
.308195,.2175,
.2867,.248199,
.260199,.2747,
.2295,.296195,
.195534,.312034,
.159334,.321734,
.122,.325,
-.122,.325,
-.159334,.321734,
-.195534,.312034,
-.2295,.296195,
-.260199,.2747,
-.2867,.248199,
-.308195,.2175,
-.324034,.183534,
-.333734,.147334,
-.337,.11,
-.337,0.0,
0.0*
%
%ADD25MACRO25*%
%AMMACRO22*
4,1,41,0.0,.337,
-.11,.337,
-.147334,.333734,
-.183534,.324034,
-.2175,.308195,
-.248199,.2867,
-.2747,.260199,
-.296195,.2295,
-.312034,.195534,
-.321734,.159334,
-.325,.122,
-.325,-.122,
-.321734,-.159334,
-.312034,-.195534,
-.296195,-.2295,
-.2747,-.260199,
-.248199,-.2867,
-.2175,-.308195,
-.183534,-.324034,
-.147334,-.333734,
-.11,-.337,
.11,-.337,
.147334,-.333734,
.183534,-.324034,
.2175,-.308195,
.248199,-.2867,
.2747,-.260199,
.296195,-.2295,
.312034,-.195534,
.321734,-.159334,
.325,-.122,
.325,.122,
.321734,.159334,
.312034,.195534,
.296195,.2295,
.2747,.260199,
.248199,.2867,
.2175,.308195,
.183534,.324034,
.147334,.333734,
.11,.337,
0.0,.337,
0.0*
%
%ADD22MACRO22*%
%AMMACRO14*
4,1,41,.2383,.2383,
.1605,.3161,
.131783,.340181,
.099325,.358916,
.064106,.37173,
.027198,.378233,
-.010279,.378228,
-.047186,.371716,
-.082401,.358894,
-.114855,.340152,
-.1435,.3161,
-.3161,.1435,
-.340193,.114795,
-.358925,.082335,
-.371735,.047116,
-.378235,.010207,
-.378227,-.02727,
-.371711,-.064176,
-.358885,-.09939,
-.34014,-.131842,
-.3161,-.1605,
-.1605,-.3161,
-.131783,-.340181,
-.099325,-.358916,
-.064106,-.37173,
-.027198,-.378233,
.010279,-.378228,
.047186,-.371716,
.082401,-.358894,
.114855,-.340152,
.1435,-.3161,
.3161,-.1435,
.340193,-.114795,
.358925,-.082335,
.371735,-.047116,
.378235,-.010207,
.378227,.02727,
.371711,.064176,
.358885,.09939,
.34014,.131842,
.3161,.1605,
.2383,.2383,
0.0*
%
%ADD14MACRO14*%
%AMMACRO13*
4,1,41,-.2383,-.2383,
-.1605,-.3161,
-.131783,-.340181,
-.099325,-.358916,
-.064106,-.37173,
-.027198,-.378233,
.010279,-.378228,
.047186,-.371716,
.082401,-.358894,
.114855,-.340152,
.1435,-.3161,
.3161,-.1435,
.340193,-.114795,
.358925,-.082335,
.371735,-.047116,
.378235,-.010207,
.378227,.02727,
.371711,.064176,
.358885,.09939,
.34014,.131842,
.3161,.1605,
.1605,.3161,
.131783,.340181,
.099325,.358916,
.064106,.37173,
.027198,.378233,
-.010279,.378228,
-.047186,.371716,
-.082401,.358894,
-.114855,.340152,
-.1435,.3161,
-.3161,.1435,
-.340193,.114795,
-.358925,.082335,
-.371735,.047116,
-.378235,.010207,
-.378227,-.02727,
-.371711,-.064176,
-.358885,-.09939,
-.34014,-.131842,
-.3161,-.1605,
-.2383,-.2383,
0.0*
%
%ADD13MACRO13*%
%AMMACRO80*
4,1,41,0.0,.425,
-.1,.425,
-.117365,.423481,
-.134202,.418969,
-.15,.411603,
-.164279,.401604,
-.176604,.389279,
-.186603,.375,
-.193969,.359202,
-.198481,.342365,
-.2,.325,
-.2,-.325,
-.198481,-.342365,
-.193969,-.359202,
-.186603,-.375,
-.176604,-.389279,
-.164279,-.401604,
-.15,-.411603,
-.134202,-.418969,
-.117365,-.423481,
-.1,-.425,
.1,-.425,
.117365,-.423481,
.134202,-.418969,
.15,-.411603,
.164279,-.401604,
.176604,-.389279,
.186603,-.375,
.193969,-.359202,
.198481,-.342365,
.2,-.325,
.2,.325,
.198481,.342365,
.193969,.359202,
.186603,.375,
.176604,.389279,
.164279,.401604,
.15,.411603,
.134202,.418969,
.117365,.423481,
.1,.425,
0.0,.425,
0.0*
%
%ADD80MACRO80*%
%AMMACRO23*
4,1,41,-.45,0.0,
-.45,-.244,
-.446797,-.279833,
-.43742,-.314566,
-.422154,-.347143,
-.401463,-.376574,
-.375976,-.401965,
-.346467,-.422544,
-.313833,-.437687,
-.279065,-.446932,
-.244,-.45,
.244,-.45,
.279833,-.446797,
.314566,-.43742,
.347143,-.422154,
.376574,-.401463,
.401965,-.375976,
.422544,-.346467,
.437687,-.313833,
.446932,-.279065,
.45,-.244,
.45,.244,
.446797,.279833,
.43742,.314566,
.422154,.347143,
.401463,.376574,
.375976,.401965,
.346467,.422544,
.313833,.437687,
.279065,.446932,
.244,.45,
-.244,.45,
-.279833,.446797,
-.314566,.43742,
-.347143,.422154,
-.376574,.401463,
-.401965,.375976,
-.422544,.346467,
-.437687,.313833,
-.446932,.279065,
-.45,.244,
-.45,0.0,
0.0*
%
%ADD23MACRO23*%
%ADD15C,1.1*%
%ADD28C,1.2*%
%ADD51O,1.55X2.25*%
%ADD56R,1.05X1.85*%
%ADD11C,1.42*%
%ADD81R,2.65X1.8*%
%ADD31C,3.401*%
%ADD78R,1.8X2.65*%
%ADD12C,1.8*%
%ADD46R,3.4X3.4*%
%ADD92C,1.95*%
%ADD68R,5.4X5.4*%
%ADD10C,3.95*%
%AMMACRO96*
4,1,22,-.45,.2,
-.45,-.2,
.35,-.2,
.367365,-.198481,
.384202,-.193969,
.4,-.186603,
.414279,-.176604,
.426604,-.164279,
.436603,-.15,
.443969,-.134202,
.448481,-.117365,
.45,-.1,
.45,.1,
.448481,.117365,
.443969,.134202,
.436603,.15,
.426604,.164279,
.414279,.176604,
.4,.186603,
.384202,.193969,
.367365,.198481,
.35,.2,
-.45,.2,
0.0*
%
%ADD96MACRO96*%
%AMMACRO94*
4,1,22,.2,.45,
-.2,.45,
-.2,-.35,
-.198481,-.367365,
-.193969,-.384202,
-.186603,-.4,
-.176604,-.414279,
-.164279,-.426604,
-.15,-.436603,
-.134202,-.443969,
-.117365,-.448481,
-.1,-.45,
.1,-.45,
.117365,-.448481,
.134202,-.443969,
.15,-.436603,
.164279,-.426604,
.176604,-.414279,
.186603,-.4,
.193969,-.384202,
.198481,-.367365,
.2,-.35,
.2,.45,
0.0*
%
%ADD94MACRO94*%
%AMMACRO104*
4,1,41,-.55,0.0,
-.55,-.075,
-.548101,-.096706,
-.542462,-.117753,
-.533253,-.1375,
-.520756,-.155348,
-.505348,-.170756,
-.4875,-.183253,
-.467753,-.192462,
-.446706,-.198101,
-.425,-.2,
.425,-.2,
.446706,-.198101,
.467753,-.192462,
.4875,-.183253,
.505348,-.170756,
.520756,-.155348,
.533253,-.1375,
.542462,-.117753,
.548101,-.096706,
.55,-.075,
.55,.075,
.548101,.096706,
.542462,.117753,
.533253,.1375,
.520756,.155348,
.505348,.170756,
.4875,.183253,
.467753,.192462,
.446706,.198101,
.425,.2,
-.425,.2,
-.446706,.198101,
-.467753,.192462,
-.4875,.183253,
-.505348,.170756,
-.520756,.155348,
-.533253,.1375,
-.542462,.117753,
-.548101,.096706,
-.55,.075,
-.55,0.0,
0.0*
%
%ADD104MACRO104*%
%AMMACRO103*
4,1,41,0.0,.55,
-.075,.55,
-.096706,.548101,
-.117753,.542462,
-.1375,.533253,
-.155348,.520756,
-.170756,.505348,
-.183253,.4875,
-.192462,.467753,
-.198101,.446706,
-.2,.425,
-.2,-.425,
-.198101,-.446706,
-.192462,-.467753,
-.183253,-.4875,
-.170756,-.505348,
-.155348,-.520756,
-.1375,-.533253,
-.117753,-.542462,
-.096706,-.548101,
-.075,-.55,
.075,-.55,
.096706,-.548101,
.117753,-.542462,
.1375,-.533253,
.155348,-.520756,
.170756,-.505348,
.183253,-.4875,
.192462,-.467753,
.198101,-.446706,
.2,-.425,
.2,.425,
.198101,.446706,
.192462,.467753,
.183253,.4875,
.170756,.505348,
.155348,.520756,
.1375,.533253,
.117753,.542462,
.096706,.548101,
.075,.55,
0.0,.55,
0.0*
%
%ADD103MACRO103*%
%ADD20C,1.849*%
%ADD44O,.95X.399*%
%AMMACRO65*
4,1,41,.575,0.0,
.575,.238,
.570166,.292257,
.555983,.344851,
.532883,.394183,
.501567,.438754,
.462988,.47721,
.418317,.508383,
.368911,.531325,
.316273,.545339,
.262,.55,
-.262,.55,
-.316273,.545339,
-.368911,.531325,
-.418317,.508383,
-.462988,.47721,
-.501567,.438754,
-.532883,.394183,
-.555983,.344851,
-.570166,.292257,
-.575,.238,
-.575,-.238,
-.570166,-.292257,
-.555983,-.344851,
-.532883,-.394183,
-.501567,-.438754,
-.462988,-.47721,
-.418317,-.508383,
-.368911,-.531325,
-.316273,-.545339,
-.262,-.55,
.262,-.55,
.316273,-.545339,
.368911,-.531325,
.418317,-.508383,
.462988,-.47721,
.501567,-.438754,
.532883,-.394183,
.555983,-.344851,
.570166,-.292257,
.575,-.238,
.575,0.0,
0.0*
%
%ADD65MACRO65*%
%ADD45O,.399X.95*%
%AMMACRO70*
4,1,41,.8,0.0,
.8,.288,
.794406,.35094,
.777968,.411952,
.751184,.469183,
.71487,.520894,
.670127,.565513,
.618317,.601684,
.561012,.62831,
.499955,.64458,
.438,.65,
-.438,.65,
-.50094,.644406,
-.561952,.627968,
-.619183,.601184,
-.670894,.56487,
-.715513,.520127,
-.751684,.468317,
-.77831,.411012,
-.79458,.349955,
-.8,.288,
-.8,-.288,
-.794406,-.35094,
-.777968,-.411952,
-.751184,-.469183,
-.71487,-.520894,
-.670127,-.565513,
-.618317,-.601684,
-.561012,-.62831,
-.499955,-.64458,
-.438,-.65,
.438,-.65,
.50094,-.644406,
.561952,-.627968,
.619183,-.601184,
.670894,-.56487,
.715513,-.520127,
.751684,-.468317,
.77831,-.411012,
.79458,-.349955,
.8,-.288,
.8,0.0,
0.0*
%
%ADD70MACRO70*%
%AMMACRO55*
4,1,41,0.0,-.25,
.075,-.25,
.096706,-.248101,
.117753,-.242462,
.1375,-.233253,
.155348,-.220756,
.170756,-.205348,
.183253,-.1875,
.192462,-.167753,
.198101,-.146706,
.2,-.125,
.2,.125,
.198101,.146706,
.192462,.167753,
.183253,.1875,
.170756,.205348,
.155348,.220756,
.1375,.233253,
.117753,.242462,
.096706,.248101,
.075,.25,
-.075,.25,
-.096706,.248101,
-.117753,.242462,
-.1375,.233253,
-.155348,.220756,
-.170756,.205348,
-.183253,.1875,
-.192462,.167753,
-.198101,.146706,
-.2,.125,
-.2,-.125,
-.198101,-.146706,
-.192462,-.167753,
-.183253,-.1875,
-.170756,-.205348,
-.155348,-.220756,
-.1375,-.233253,
-.117753,-.242462,
-.096706,-.248101,
-.075,-.25,
0.0,-.25,
0.0*
%
%ADD55MACRO55*%
%AMMACRO87*
4,1,41,0.0,-.8,
.288,-.8,
.35094,-.794406,
.411952,-.777968,
.469183,-.751184,
.520894,-.71487,
.565513,-.670127,
.601684,-.618317,
.62831,-.561012,
.64458,-.499955,
.65,-.438,
.65,.438,
.644406,.50094,
.627968,.561952,
.601184,.619183,
.56487,.670894,
.520127,.715513,
.468317,.751684,
.411012,.77831,
.349955,.79458,
.288,.8,
-.288,.8,
-.35094,.794406,
-.411952,.777968,
-.469183,.751184,
-.520894,.71487,
-.565513,.670127,
-.601684,.618317,
-.62831,.561012,
-.64458,.499955,
-.65,.438,
-.65,-.438,
-.644406,-.50094,
-.627968,-.561952,
-.601184,-.619183,
-.56487,-.670894,
-.520127,-.715513,
-.468317,-.751684,
-.411012,-.77831,
-.349955,-.79458,
-.288,-.8,
0.0,-.8,
0.0*
%
%ADD87MACRO87*%
%AMMACRO113*
4,1,20,.9,1.275,
.9,-1.275,
.425,-1.275,
.425,-1.975,
.075,-1.975,
.075,-1.275,
-.075,-1.275,
-.075,-1.975,
-.425,-1.975,
-.425,-1.275,
-.9,-1.275,
-.9,1.275,
-.425,1.275,
-.425,1.975,
-.075,1.975,
-.075,1.275,
.075,1.275,
.075,1.975,
.425,1.975,
.425,1.275,
.9,1.275,
0.0*
%
%ADD113MACRO113*%
%AMMACRO98*
4,1,45,0.0,1.6,
-.187,1.6,
-.23259,1.596099,
-.27681,1.58434,
-.318317,1.565082,
-.355849,1.538908,
-.388265,1.506615,
-.414582,1.469183,
-.433998,1.42775,
-.445925,1.383575,
-.45,1.338,
-.45,1.337,
-.45,-1.337,
-.446099,-1.38259,
-.43434,-1.42681,
-.415082,-1.468317,
-.388908,-1.505849,
-.356615,-1.538265,
-.319183,-1.564582,
-.27775,-1.583998,
-.233575,-1.595925,
-.188,-1.6,
-.187,-1.6,
.187,-1.6,
.23259,-1.596099,
.27681,-1.58434,
.318317,-1.565082,
.355849,-1.538908,
.388265,-1.506615,
.414582,-1.469183,
.433998,-1.42775,
.445925,-1.383575,
.45,-1.338,
.45,-1.337,
.45,1.337,
.446099,1.38259,
.43434,1.42681,
.415082,1.468317,
.388908,1.505849,
.356615,1.538265,
.319183,1.564582,
.27775,1.583998,
.233575,1.595925,
.188,1.6,
.187,1.6,
0.0,1.6,
0.0*
%
%ADD98MACRO98*%
%AMMACRO50*
4,1,41,.25,0.0,
.25,.088,
.247824,.111869,
.241537,.134998,
.231328,.156683,
.21751,.176266,
.2005,.193153,
.180817,.206828,
.159058,.216879,
.135884,.222998,
.112,.225,
-.112,.225,
-.135884,.222998,
-.159058,.216879,
-.180817,.206828,
-.2005,.193153,
-.21751,.176266,
-.231328,.156683,
-.241537,.134998,
-.247824,.111869,
-.25,.088,
-.25,-.088,
-.247824,-.111869,
-.241537,-.134998,
-.231328,-.156683,
-.21751,-.176266,
-.2005,-.193153,
-.180817,-.206828,
-.159058,-.216879,
-.135884,-.222998,
-.112,-.225,
.112,-.225,
.135884,-.222998,
.159058,-.216879,
.180817,-.206828,
.2005,-.193153,
.21751,-.176266,
.231328,-.156683,
.241537,-.134998,
.247824,-.111869,
.25,-.088,
.25,0.0,
0.0*
%
%ADD50MACRO50*%
%AMMACRO111*
4,1,41,.725,0.0,
.725,.225,
.720442,.277094,
.706908,.327606,
.684808,.375,
.654813,.417836,
.617836,.454813,
.575,.484808,
.527606,.506908,
.477094,.520442,
.425,.525,
-.425,.525,
-.477094,.520442,
-.527606,.506908,
-.575,.484808,
-.617836,.454813,
-.654813,.417836,
-.684808,.375,
-.706908,.327606,
-.720442,.277094,
-.725,.225,
-.725,-.225,
-.720442,-.277094,
-.706908,-.327606,
-.684808,-.375,
-.654813,-.417836,
-.617836,-.454813,
-.575,-.484808,
-.527606,-.506908,
-.477094,-.520442,
-.425,-.525,
.425,-.525,
.477094,-.520442,
.527606,-.506908,
.575,-.484808,
.617836,-.454813,
.654813,-.417836,
.684808,-.375,
.706908,-.327606,
.720442,-.277094,
.725,-.225,
.725,0.0,
0.0*
%
%ADD111MACRO111*%
%AMMACRO53*
4,1,42,0.0,-1.1,
.362,-1.1,
.433637,-1.09382,
.503113,-1.075294,
.568317,-1.044985,
.627267,-1.003815,
.678172,-.953033,
.719485,-.894183,
.749952,-.829053,
.768646,-.759622,
.775,-.688,
.775,.688,
.768646,.759622,
.749952,.829053,
.719485,.894183,
.678172,.953033,
.627267,1.003815,
.568317,1.044985,
.503113,1.075294,
.433637,1.09382,
.362,1.1,
-.362,1.1,
-.433637,1.09382,
-.503113,1.075294,
-.568317,1.044985,
-.627267,1.003815,
-.678172,.953033,
-.719485,.894183,
-.749952,.829053,
-.768646,.759622,
-.775,.688,
-.775,.688,
-.775,-.688,
-.768646,-.759622,
-.749952,-.829053,
-.719485,-.894183,
-.678172,-.953033,
-.627267,-1.003815,
-.568317,-1.044985,
-.503113,-1.075294,
-.433637,-1.09382,
-.362,-1.1,
0.0,-1.1,
0.0*
%
%ADD53MACRO53*%
%AMMACRO30*
4,1,41,0.0,-.25,
.088,-.25,
.111869,-.247824,
.134998,-.241537,
.156683,-.231328,
.176266,-.21751,
.193153,-.2005,
.206828,-.180817,
.216879,-.159058,
.222998,-.135884,
.225,-.112,
.225,.112,
.222998,.135884,
.216879,.159058,
.206828,.180817,
.193153,.2005,
.176266,.21751,
.156683,.231328,
.134998,.241537,
.111869,.247824,
.088,.25,
-.088,.25,
-.111869,.247824,
-.134998,.241537,
-.156683,.231328,
-.176266,.21751,
-.193153,.2005,
-.206828,.180817,
-.216879,.159058,
-.222998,.135884,
-.225,.112,
-.225,-.112,
-.222998,-.135884,
-.216879,-.159058,
-.206828,-.180817,
-.193153,-.2005,
-.176266,-.21751,
-.156683,-.231328,
-.134998,-.241537,
-.111869,-.247824,
-.088,-.25,
0.0,-.25,
0.0*
%
%ADD30MACRO30*%
%AMMACRO84*
4,1,41,1.35,0.0,
1.35,.588,
1.339848,.703034,
1.309875,.814558,
1.260992,.919183,
1.194683,1.01373,
1.112964,1.095326,
1.018317,1.161492,
.913618,1.210217,
.80205,1.240022,
.688,1.25,
-.688,1.25,
-.803034,1.239848,
-.914558,1.209875,
-1.019183,1.160992,
-1.11373,1.094683,
-1.195326,1.012964,
-1.261492,.918317,
-1.310217,.813618,
-1.340022,.70205,
-1.35,.588,
-1.35,-.588,
-1.339848,-.703034,
-1.309875,-.814558,
-1.260992,-.919183,
-1.194683,-1.01373,
-1.112964,-1.095326,
-1.018317,-1.161492,
-.913618,-1.210217,
-.80205,-1.240022,
-.688,-1.25,
.688,-1.25,
.803034,-1.239848,
.914558,-1.209875,
1.019183,-1.160992,
1.11373,-1.094683,
1.195326,-1.012964,
1.261492,-.918317,
1.310217,-.813618,
1.340022,-.70205,
1.35,-.588,
1.35,0.0,
0.0*
%
%ADD84MACRO84*%
%AMMACRO106*
4,1,45,-.75,0.0,
-.75,-.187,
-.747238,-.219567,
-.738863,-.251159,
-.72513,-.280817,
-.706455,-.30764,
-.683406,-.330812,
-.656683,-.34963,
-.627099,-.363521,
-.595552,-.372065,
-.563,-.375,
-.562,-.375,
.562,-.375,
.594567,-.372238,
.626159,-.363863,
.655817,-.35013,
.68264,-.331455,
.705812,-.308406,
.72463,-.281683,
.738521,-.252099,
.747065,-.220552,
.75,-.188,
.75,-.187,
.75,.187,
.747238,.219567,
.738863,.251159,
.72513,.280817,
.706455,.30764,
.683406,.330812,
.656683,.34963,
.627099,.363521,
.595552,.372065,
.563,.375,
.562,.375,
-.562,.375,
-.594567,.372238,
-.626159,.363863,
-.655817,.35013,
-.68264,.331455,
-.705812,.308406,
-.72463,.281683,
-.738521,.252099,
-.747065,.220552,
-.75,.188,
-.75,.187,
-.75,0.0,
0.0*
%
%ADD106MACRO106*%
%AMMACRO99*
4,1,45,0.0,.75,
-.187,.75,
-.219567,.747238,
-.251159,.738863,
-.280817,.72513,
-.30764,.706455,
-.330812,.683406,
-.34963,.656683,
-.363521,.627099,
-.372065,.595552,
-.375,.563,
-.375,.562,
-.375,-.562,
-.372238,-.594567,
-.363863,-.626159,
-.35013,-.655817,
-.331455,-.68264,
-.308406,-.705812,
-.281683,-.72463,
-.252099,-.738521,
-.220552,-.747065,
-.188,-.75,
-.187,-.75,
.187,-.75,
.219567,-.747238,
.251159,-.738863,
.280817,-.72513,
.30764,-.706455,
.330812,-.683406,
.34963,-.656683,
.363521,-.627099,
.372065,-.595552,
.375,-.563,
.375,-.562,
.375,.562,
.372238,.594567,
.363863,.626159,
.35013,.655817,
.331455,.68264,
.308406,.705812,
.281683,.72463,
.252099,.738521,
.220552,.747065,
.188,.75,
.187,.75,
0.0,.75,
0.0*
%
%ADD99MACRO99*%
%AMMACRO75*
4,1,41,0.0,-.45,
.075,-.45,
.088024,-.448861,
.100652,-.445477,
.1125,-.439952,
.123209,-.432453,
.132453,-.423209,
.139952,-.4125,
.145477,-.400652,
.148861,-.388024,
.15,-.375,
.15,.375,
.148861,.388024,
.145477,.400652,
.139952,.4125,
.132453,.423209,
.123209,.432453,
.1125,.439952,
.100652,.445477,
.088024,.448861,
.075,.45,
-.075,.45,
-.088024,.448861,
-.100652,.445477,
-.1125,.439952,
-.123209,.432453,
-.132453,.423209,
-.139952,.4125,
-.145477,.400652,
-.148861,.388024,
-.15,.375,
-.15,-.375,
-.148861,-.388024,
-.145477,-.400652,
-.139952,-.4125,
-.132453,-.423209,
-.123209,-.432453,
-.1125,-.439952,
-.100652,-.445477,
-.088024,-.448861,
-.075,-.45,
0.0,-.45,
0.0*
%
%ADD75MACRO75*%
%AMMACRO100*
4,1,45,-.675,0.0,
-.675,-.112,
-.672618,-.140225,
-.665371,-.167608,
-.653479,-.193317,
-.637304,-.21657,
-.617336,-.236661,
-.594183,-.252979,
-.568548,-.265029,
-.54121,-.272444,
-.513,-.275,
-.512,-.275,
.512,-.275,
.540225,-.272618,
.567608,-.265371,
.593317,-.253479,
.61657,-.237304,
.636661,-.217336,
.652979,-.194183,
.665029,-.168548,
.672444,-.14121,
.675,-.113,
.675,-.112,
.675,.112,
.672618,.140225,
.665371,.167608,
.653479,.193317,
.637304,.21657,
.617336,.236661,
.594183,.252979,
.568548,.265029,
.54121,.272444,
.513,.275,
.512,.275,
-.512,.275,
-.540225,.272618,
-.567608,.265371,
-.593317,.253479,
-.61657,.237304,
-.636661,.217336,
-.652979,.194183,
-.665029,.168548,
-.672444,.14121,
-.675,.113,
-.675,.112,
-.675,0.0,
0.0*
%
%ADD100MACRO100*%
%AMMACRO52*
4,1,41,0.0,-1.025,
.35,-1.025,
.4238,-1.018543,
.495359,-.999369,
.5625,-.968061,
.623185,-.925569,
.675569,-.873185,
.718061,-.8125,
.749369,-.745359,
.768543,-.6738,
.775,-.6,
.775,.6,
.768543,.6738,
.749369,.745359,
.718061,.8125,
.675569,.873185,
.623185,.925569,
.5625,.968061,
.495359,.999369,
.4238,1.018543,
.35,1.025,
-.35,1.025,
-.4238,1.018543,
-.495359,.999369,
-.5625,.968061,
-.623185,.925569,
-.675569,.873185,
-.718061,.8125,
-.749369,.745359,
-.768543,.6738,
-.775,.6,
-.775,-.6,
-.768543,-.6738,
-.749369,-.745359,
-.718061,-.8125,
-.675569,-.873185,
-.623185,-.925569,
-.5625,-.968061,
-.495359,-.999369,
-.4238,-1.018543,
-.35,-1.025,
0.0,-1.025,
0.0*
%
%ADD52MACRO52*%
%AMMACRO17*
4,1,41,0.0,-.775,
.288,-.775,
.337916,-.770545,
.386301,-.757491,
.431683,-.736232,
.472684,-.707416,
.508059,-.671918,
.536732,-.630817,
.557833,-.585361,
.570719,-.536931,
.575,-.488,
.575,.488,
.570545,.537916,
.557491,.586301,
.536232,.631683,
.507416,.672684,
.471918,.708059,
.430817,.736732,
.385361,.757833,
.336931,.770719,
.288,.775,
-.288,.775,
-.337916,.770545,
-.386301,.757491,
-.431683,.736232,
-.472684,.707416,
-.508059,.671918,
-.536732,.630817,
-.557833,.585361,
-.570719,.536931,
-.575,.488,
-.575,-.488,
-.570545,-.537916,
-.557491,-.586301,
-.536232,-.631683,
-.507416,-.672684,
-.471918,-.708059,
-.430817,-.736732,
-.385361,-.757833,
-.336931,-.770719,
-.288,-.775,
0.0,-.775,
0.0*
%
%ADD17MACRO17*%
%AMMACRO91*
4,1,41,0.0,-.275,
.075,-.275,
.096706,-.273101,
.117753,-.267462,
.1375,-.258253,
.155348,-.245756,
.170756,-.230348,
.183253,-.2125,
.192462,-.192753,
.198101,-.171706,
.2,-.15,
.2,.15,
.198101,.171706,
.192462,.192753,
.183253,.2125,
.170756,.230348,
.155348,.245756,
.1375,.258253,
.117753,.267462,
.096706,.273101,
.075,.275,
-.075,.275,
-.096706,.273101,
-.117753,.267462,
-.1375,.258253,
-.155348,.245756,
-.170756,.230348,
-.183253,.2125,
-.192462,.192753,
-.198101,.171706,
-.2,.15,
-.2,-.15,
-.198101,-.171706,
-.192462,-.192753,
-.183253,-.2125,
-.170756,-.230348,
-.155348,-.245756,
-.1375,-.258253,
-.117753,-.267462,
-.096706,-.273101,
-.075,-.275,
0.0,-.275,
0.0*
%
%ADD91MACRO91*%
%AMMACRO79*
4,1,43,.975,0.0,
.975,.288,
.969406,.35094,
.952968,.411952,
.926184,.469183,
.88987,.520894,
.845127,.565513,
.793317,.601684,
.736012,.62831,
.674955,.64458,
.612,.65,
.612,.65,
-.612,.65,
-.674955,.64458,
-.736012,.62831,
-.793317,.601684,
-.845127,.565513,
-.88987,.520894,
-.926184,.469183,
-.952968,.411952,
-.969406,.35094,
-.975,.288,
-.975,.288,
-.975,-.288,
-.969406,-.35094,
-.952968,-.411952,
-.926184,-.469183,
-.88987,-.520894,
-.845127,-.565513,
-.793317,-.601684,
-.736012,-.62831,
-.674955,-.64458,
-.612,-.65,
.612,-.65,
.674955,-.64458,
.736012,-.62831,
.793317,-.601684,
.845127,-.565513,
.88987,-.520894,
.926184,-.469183,
.952968,-.411952,
.969406,-.35094,
.975,-.288,
.975,0.0,
0.0*
%
%ADD79MACRO79*%
%AMMACRO74*
4,1,41,1.425,0.0,
1.425,.288,
1.419406,.35094,
1.402968,.411952,
1.376184,.469183,
1.33987,.520894,
1.295127,.565513,
1.243317,.601684,
1.186012,.62831,
1.124955,.64458,
1.062,.65,
-1.062,.65,
-1.124955,.64458,
-1.186012,.62831,
-1.243317,.601684,
-1.295127,.565513,
-1.33987,.520894,
-1.376184,.469183,
-1.402968,.411952,
-1.419406,.35094,
-1.425,.288,
-1.425,-.288,
-1.419406,-.35094,
-1.402968,-.411952,
-1.376184,-.469183,
-1.33987,-.520894,
-1.295127,-.565513,
-1.243317,-.601684,
-1.186012,-.62831,
-1.124955,-.64458,
-1.062,-.65,
1.062,-.65,
1.124955,-.64458,
1.186012,-.62831,
1.243317,-.601684,
1.295127,-.565513,
1.33987,-.520894,
1.376184,-.469183,
1.402968,-.411952,
1.419406,-.35094,
1.425,-.288,
1.425,0.0,
0.0*
%
%ADD74MACRO74*%
%AMMACRO40*
4,1,41,.375,0.0,
.375,.05,
.373481,.067365,
.368969,.084202,
.361603,.1,
.351604,.114279,
.339279,.126604,
.325,.136603,
.309202,.143969,
.292365,.148481,
.275,.15,
-.275,.15,
-.292365,.148481,
-.309202,.143969,
-.325,.136603,
-.339279,.126604,
-.351604,.114279,
-.361603,.1,
-.368969,.084202,
-.373481,.067365,
-.375,.05,
-.375,-.05,
-.373481,-.067365,
-.368969,-.084202,
-.361603,-.1,
-.351604,-.114279,
-.339279,-.126604,
-.325,-.136603,
-.309202,-.143969,
-.292365,-.148481,
-.275,-.15,
.275,-.15,
.292365,-.148481,
.309202,-.143969,
.325,-.136603,
.339279,-.126604,
.351604,-.114279,
.361603,-.1,
.368969,-.084202,
.373481,-.067365,
.375,-.05,
.375,0.0,
0.0*
%
%ADD40MACRO40*%
%AMMACRO110*
4,1,41,.775,0.0,
.775,.3,
.769303,.365118,
.752385,.428258,
.72476,.4875,
.687267,.541045,
.641045,.587267,
.5875,.62476,
.528258,.652385,
.465118,.669303,
.4,.675,
-.4,.675,
-.465118,.669303,
-.528258,.652385,
-.5875,.62476,
-.641045,.587267,
-.687267,.541045,
-.72476,.4875,
-.752385,.428258,
-.769303,.365118,
-.775,.3,
-.775,-.3,
-.769303,-.365118,
-.752385,-.428258,
-.72476,-.4875,
-.687267,-.541045,
-.641045,-.587267,
-.5875,-.62476,
-.528258,-.652385,
-.465118,-.669303,
-.4,-.675,
.4,-.675,
.465118,-.669303,
.528258,-.652385,
.5875,-.62476,
.641045,-.587267,
.687267,-.541045,
.72476,-.4875,
.752385,-.428258,
.769303,-.365118,
.775,-.3,
.775,0.0,
0.0*
%
%ADD110MACRO110*%
%AMMACRO69*
4,1,41,.3712,.3712,
.2298,.5127,
.193056,.543488,
.151539,.56745,
.106491,.583838,
.059283,.592155,
.011347,.592148,
-.035859,.583817,
-.080901,.567416,
-.122411,.543442,
-.1591,.5127,
-.5127,.1591,
-.543484,.122351,
-.567447,.080835,
-.583836,.035788,
-.592154,-.01142,
-.592149,-.059356,
-.583819,-.106562,
-.567419,-.151605,
-.543446,-.193116,
-.5127,-.2298,
-.2298,-.5127,
-.193056,-.543488,
-.151539,-.56745,
-.106491,-.583838,
-.059283,-.592155,
-.011347,-.592148,
.035859,-.583817,
.080901,-.567416,
.122411,-.543442,
.1591,-.5127,
.5127,-.1591,
.543484,-.122351,
.567447,-.080835,
.583836,-.035788,
.592154,.01142,
.592149,.059356,
.583819,.106562,
.567419,.151605,
.543446,.193116,
.5127,.2298,
.3712,.3712,
0.0*
%
%ADD69MACRO69*%
%AMMACRO114*
4,1,45,.45,0.0,
.45,.088,
.448584,.103187,
.444552,.117896,
.438028,.131683,
.429208,.144127,
.418361,.15485,
.405818,.163527,
.391958,.169894,
.377203,.173757,
.362001,.175,
.362,.175,
-.362,.175,
-.377202,.173758,
-.391957,.169894,
-.405817,.163528,
-.418361,.154851,
-.429207,.144127,
-.438027,.131684,
-.444552,.117897,
-.448584,.103187,
-.45,.088001,
-.45,.088,
-.45,-.088,
-.448584,-.103187,
-.444552,-.117896,
-.438028,-.131683,
-.429208,-.144127,
-.418361,-.15485,
-.405818,-.163527,
-.391958,-.169894,
-.377203,-.173757,
-.362001,-.175,
-.362,-.175,
.362,-.175,
.377202,-.173758,
.391957,-.169894,
.405817,-.163528,
.418361,-.154851,
.429207,-.144127,
.438027,-.131684,
.444552,-.117897,
.448584,-.103187,
.45,-.088001,
.45,-.088,
.45,0.0,
0.0*
%
%ADD114MACRO114*%
%AMMACRO107*
4,1,45,.574,0.0,
.574,.274,
.57017,.321783,
.5581,.368174,
.538158,.411765,
.510949,.451231,
.477301,.485372,
.438235,.513152,
.394939,.533726,
.348728,.546469,
.301006,.550995,
.3,.551,
-.3,.551,
-.347738,.54665,
-.393995,.534075,
-.437367,.51366,
-.476534,.486023,
-.510307,.452005,
-.53766,.412639,
-.557761,.369122,
-.57,.322775,
-.574005,.275006,
-.574,.274,
-.574,-.274,
-.57017,-.321783,
-.5581,-.368174,
-.538158,-.411765,
-.510949,-.451231,
-.477301,-.485372,
-.438235,-.513152,
-.394939,-.533726,
-.348728,-.546469,
-.301006,-.550995,
-.3,-.551,
.3,-.551,
.347738,-.54665,
.393995,-.534075,
.437367,-.51366,
.476534,-.486023,
.510307,-.452005,
.53766,-.412639,
.557761,-.369122,
.57,-.322775,
.574005,-.275006,
.574,-.274,
.574,0.0,
0.0*
%
%ADD107MACRO107*%
%AMMACRO61*
4,1,41,.975,0.0,
.975,.25,
.970063,.306436,
.9554,.361157,
.931458,.4125,
.898964,.458906,
.858906,.498964,
.8125,.531458,
.761157,.5554,
.706436,.570063,
.65,.575,
-.65,.575,
-.706436,.570063,
-.761157,.5554,
-.8125,.531458,
-.858906,.498964,
-.898964,.458906,
-.931458,.4125,
-.9554,.361157,
-.970063,.306436,
-.975,.25,
-.975,-.25,
-.970063,-.306436,
-.9554,-.361157,
-.931458,-.4125,
-.898964,-.458906,
-.858906,-.498964,
-.8125,-.531458,
-.761157,-.5554,
-.706436,-.570063,
-.65,-.575,
.65,-.575,
.706436,-.570063,
.761157,-.5554,
.8125,-.531458,
.858906,-.498964,
.898964,-.458906,
.931458,-.4125,
.9554,-.361157,
.970063,-.306436,
.975,-.25,
.975,0.0,
0.0*
%
%ADD61MACRO61*%
%ADD117C,.1*%
%ADD118C,.099*%
G75*
%LPD*%
G75*
G36*
G01X20078200Y25510000D02*
X20050000Y25634200D01*
X20050100Y26010000D01*
X20950000D01*
Y25510000D01*
X20078200D01*
G37*
G54D100*
X24952000Y26200000D03*
Y26330000D03*
X24760000Y26200000D03*
Y26265000D03*
Y26330000D03*
G54D110*
X24034000Y29170000D03*
X23780000D03*
X24034000Y29390000D03*
X23780000D03*
G54D101*
X24930000Y27710000D03*
Y27890000D03*
G54D111*
X25420000Y24872500D03*
Y25292500D03*
G54D102*
X24473500Y27493000D03*
G54D103*
Y27670000D03*
G54D10*
X20250000Y17850000D03*
Y29270000D03*
X25580000Y17850000D03*
Y29270000D03*
G54D112*
X25600000Y24745000D03*
Y25420000D03*
G54D113*
X25368000Y26345000D03*
G54D20*
X20300000Y25760000D03*
G54D104*
X24562000Y27510000D03*
Y27560000D03*
Y27610000D03*
Y27660000D03*
X24385000Y27510000D03*
Y27560000D03*
Y27610000D03*
Y27660000D03*
G54D11*
X20215000Y18300000D03*
X25645000D03*
X25644000Y28505000D03*
G54D114*
X25221000Y26245000D03*
Y26295000D03*
Y26345000D03*
Y26395000D03*
X25515000D03*
Y26345000D03*
Y26295000D03*
Y26245000D03*
X25221000Y26445000D03*
X25515000D03*
G54D30*
X20421000Y28140000D03*
X20365000D03*
X20426000Y28060000D03*
X20370000D03*
X21086000Y25940000D03*
X21030000D03*
X21088000Y26020000D03*
X21032000D03*
X21401000Y28390000D03*
X21345000D03*
X21401000Y28210000D03*
X21345000D03*
X21401000Y28480000D03*
X21345000D03*
X21401000Y28130000D03*
X21345000D03*
X20912000Y28780000D03*
X20856000D03*
G54D12*
X20640000Y21650000D03*
Y21396000D03*
Y21142000D03*
X20638300Y22160000D03*
Y22414000D03*
Y22668000D03*
Y22922000D03*
Y23176000D03*
Y23430000D03*
Y23684000D03*
Y23938000D03*
Y24192000D03*
Y24446000D03*
X21817800Y21977300D03*
X21563800D03*
X20892300Y22160000D03*
Y22414000D03*
Y22668000D03*
Y22922000D03*
Y23176000D03*
Y23430000D03*
X21817800Y22231300D03*
X21563800D03*
X20892300Y23684000D03*
Y23938000D03*
Y24192000D03*
Y24446000D03*
X21146300Y25462000D03*
X21400300D03*
X21654300D03*
X21908300D03*
X21146300Y25716000D03*
X21400300D03*
X21654300D03*
X21908300D03*
X22162300Y25462000D03*
X22416300D03*
X22670300D03*
X22924300D03*
X23178300D03*
X23432300D03*
X22162300Y25716000D03*
X22416300D03*
X22670300D03*
X22924300D03*
X23178300D03*
X23432300D03*
X24958300Y22160000D03*
Y22414000D03*
Y22668000D03*
Y22922000D03*
Y23176000D03*
Y23430000D03*
Y23684000D03*
Y23938000D03*
Y24192000D03*
Y24446000D03*
X24990000Y25462000D03*
Y25716000D03*
Y25970000D03*
X23686300Y25462000D03*
Y25716000D03*
X25210000Y21650000D03*
Y21396000D03*
Y21142000D03*
X25212300Y22160000D03*
Y22414000D03*
Y22668000D03*
Y22922000D03*
Y23176000D03*
Y23430000D03*
Y23684000D03*
Y23938000D03*
Y24192000D03*
Y24446000D03*
G54D105*
X24315000Y26630000D03*
Y26757000D03*
Y26884000D03*
Y27011000D03*
X24810000D03*
Y26884000D03*
Y26757000D03*
Y26630000D03*
G54D21*
X20125000Y26400000D03*
X20220000D03*
X20400000Y28330000D03*
X20145000Y28620000D03*
X21817500Y21812400D03*
X21562500Y21817400D03*
X21845000Y22822400D03*
X20685000Y26240000D03*
X20780000D03*
X22070000Y27260000D03*
X21995000Y28032400D03*
X22020000Y28432400D03*
X21495000Y28757400D03*
X21570000Y28422400D03*
X22020000Y28242400D03*
X21500000Y28570000D03*
X21510000Y28232400D03*
X21285000Y28852400D03*
X22020000Y28932400D03*
X22915000Y20865000D03*
X23390000Y21952400D03*
X22695000Y21750000D03*
Y21985000D03*
X22915000Y20700000D03*
X22340000Y23237400D03*
X22225000Y23242400D03*
X22480000Y22490000D03*
X22747500Y23407400D03*
X23395000Y22160000D03*
X22840000Y22230000D03*
X22745000D03*
X23395000Y23212400D03*
X22650000Y22230000D03*
X22115000Y26100000D03*
X22910000Y26307400D03*
Y26100000D03*
X22515000Y26287400D03*
X22110000Y26302400D03*
X22515000Y26085000D03*
X22130000Y26810000D03*
X23455000Y26515000D03*
X22170000Y27260000D03*
X23185000Y27317400D03*
X23345000Y26667400D03*
X22625000Y28030000D03*
X22080000Y28037400D03*
X23415000Y28950000D03*
X22110000Y28932400D03*
X23515000Y28957400D03*
X24280000Y21875000D03*
X24716000Y25917400D03*
X24688000Y27622400D03*
X24260000D03*
X24125000Y26752400D03*
X23615000Y27725000D03*
X23895000Y26450000D03*
X24115000Y26977400D03*
X24985000Y28122400D03*
X24470000Y29150000D03*
X24640000Y28095000D03*
X24310000Y28100000D03*
X24055000Y28967400D03*
X24220000Y28100000D03*
X24050000Y28360000D03*
X24040000Y28757400D03*
X23965000Y28095000D03*
X25630000Y26165000D03*
X25675000Y27402400D03*
X24990000Y27055000D03*
Y26865000D03*
X25675000Y27615000D03*
X24990000Y26660000D03*
X25725000Y28067400D03*
X25720000Y28262400D03*
X25000000Y28400000D03*
G54D40*
X21849500Y26070000D03*
Y26110000D03*
Y26150000D03*
Y26190000D03*
X22012500D03*
Y26150000D03*
Y26110000D03*
X22649500Y26070000D03*
Y26110000D03*
Y26150000D03*
Y26190000D03*
X22812500D03*
Y26150000D03*
Y26110000D03*
X22249500Y26070000D03*
Y26110000D03*
Y26150000D03*
Y26190000D03*
X22412500D03*
Y26150000D03*
Y26110000D03*
G54D106*
X23819000Y27885000D03*
X23590000D03*
X23819000Y28075000D03*
X23590000Y27980000D03*
Y28075000D03*
X25529000Y27405000D03*
Y27595000D03*
X25300000Y27405000D03*
Y27500000D03*
Y27595000D03*
G54D31*
X22172500Y19832500D03*
X23672500D03*
G54D13*
X20400000Y21930000D03*
X20340000Y21990000D03*
X22205000Y22750000D03*
X22190340Y22320340D03*
G54D22*
X20125000Y26307600D03*
X20220000D03*
X20400000Y28237600D03*
X20145000Y28527600D03*
X21817500Y21720000D03*
X21562500Y21725000D03*
X21845000Y22730000D03*
X20685000Y26147600D03*
X20780000D03*
X22070000Y27167600D03*
X21995000Y27940000D03*
X22020000Y28340000D03*
X21495000Y28665000D03*
X21570000Y28330000D03*
X22020000Y28150000D03*
X21500000Y28477600D03*
X21510000Y28140000D03*
X21285000Y28760000D03*
X22020000Y28840000D03*
X22915000Y20607600D03*
Y20772600D03*
X23395000Y22067600D03*
X23390000Y21860000D03*
X22695000Y21657600D03*
Y21892600D03*
X22340000Y23145000D03*
X22225000Y23150000D03*
X22480000Y22397600D03*
X22747500Y23315000D03*
X22840000Y22137600D03*
X22745000D03*
X23395000Y23120000D03*
X22650000Y22137600D03*
X23455000Y26422600D03*
X22115000Y26007600D03*
X22910000Y26215000D03*
Y26007600D03*
X22515000Y26195000D03*
X22110000Y26210000D03*
X22515000Y25992600D03*
X22130000Y26717600D03*
X22170000Y27167600D03*
X23185000Y27225000D03*
X23345000Y26575000D03*
X22625000Y27937600D03*
X22080000Y27945000D03*
X23415000Y28857600D03*
X22110000Y28840000D03*
X23515000Y28865000D03*
X24280000Y21782600D03*
X24716000Y25825000D03*
X23895000Y26357600D03*
X24688000Y27530000D03*
X24260000D03*
X24125000Y26660000D03*
X23615000Y27632600D03*
X24115000Y26885000D03*
X24985000Y28030000D03*
X24470000Y29057600D03*
X24640000Y28002600D03*
X24310000Y28007600D03*
X24055000Y28875000D03*
X24220000Y28007600D03*
X24050000Y28267600D03*
X24040000Y28665000D03*
X23965000Y28002600D03*
X25630000Y26072600D03*
X25675000Y27310000D03*
X24990000Y26962600D03*
Y26772600D03*
X25675000Y27522600D03*
X24990000Y26567600D03*
X25725000Y27975000D03*
X25720000Y28170000D03*
X25000000Y28307600D03*
G54D115*
X25505000Y26660000D03*
Y26950000D03*
G54D107*
X23995000Y27060000D03*
Y26900000D03*
G54D50*
X20996000Y28806000D03*
Y28750000D03*
G54D23*
X20125000Y26519900D03*
Y26670000D03*
X20220000Y26519900D03*
Y26670000D03*
G54D14*
X20334660Y21864660D03*
X20274660Y21924660D03*
X22139660Y22684660D03*
X22125000Y22255000D03*
G54D116*
X25130000Y27945000D03*
Y28010000D03*
Y28075000D03*
Y28140000D03*
X25560000D03*
Y28075000D03*
Y28010000D03*
Y27945000D03*
G54D32*
X21565000Y21635100D03*
Y21485000D03*
X21815000Y21635100D03*
Y21485000D03*
G54D41*
X20885000Y26145000D03*
Y26235000D03*
X21920000Y28885000D03*
Y28975000D03*
X22955000Y26900000D03*
Y26990000D03*
X23435000Y26850000D03*
Y26940000D03*
X23070000Y26725000D03*
Y26815000D03*
X22380000Y28360000D03*
Y28450000D03*
X22845000Y28360000D03*
Y28450000D03*
X23730000Y27630000D03*
Y27720000D03*
X24775000Y27805000D03*
Y27895000D03*
X24860000Y27195000D03*
Y27285000D03*
X24535000Y27895000D03*
X24415000D03*
X24295000Y27805000D03*
Y27895000D03*
X24635000Y27285000D03*
Y27375000D03*
X24325000Y27285000D03*
Y27375000D03*
X24215000Y27195000D03*
Y27285000D03*
X24745000Y27195000D03*
Y27285000D03*
X24655000Y27805000D03*
Y27895000D03*
X23550000Y26850000D03*
Y26940000D03*
X24170000Y27805000D03*
Y27895000D03*
X24065000Y28005000D03*
Y28095000D03*
X24535000Y27985000D03*
X24415000D03*
X25030000Y27405000D03*
Y27495000D03*
G54D117*
G01X20090000Y16222500D02*
Y14722500D01*
X27590000D01*
Y16222500D01*
X20090000D01*
G01X23840000D02*
Y14722500D01*
G01Y15222500D02*
X27590000D01*
G01Y15722500D02*
X23840000D01*
G01X25107600D02*
Y15222500D01*
G54D51*
X21535000Y29265000D03*
X20745000D03*
G54D15*
X20315000Y24972100D03*
Y25202100D03*
X21927100Y29280000D03*
X22157100D03*
X25540000Y24967900D03*
Y25197900D03*
G54D33*
X21991360Y22508640D03*
X22055000Y22445000D03*
G54D108*
X24210000Y28400000D03*
Y28450000D03*
Y28500000D03*
Y28550000D03*
Y28600000D03*
Y28650000D03*
Y28700000D03*
Y28750000D03*
X24850000D03*
Y28700000D03*
Y28650000D03*
Y28600000D03*
Y28550000D03*
Y28500000D03*
Y28450000D03*
Y28400000D03*
G54D42*
X21832500Y29160000D03*
X22252500D03*
G54D60*
X23013000Y20445000D03*
X22915000D03*
G54D24*
X20379900Y26540100D03*
Y26580000D03*
Y26620100D03*
Y26660000D03*
Y26699900D03*
Y26740000D03*
Y26779900D03*
Y26820000D03*
Y26859900D03*
Y26900000D03*
Y26939900D03*
Y26980000D03*
Y27019900D03*
Y27060000D03*
Y27099900D03*
Y27140100D03*
Y27179900D03*
Y27220100D03*
Y27260000D03*
Y27300100D03*
Y27340000D03*
Y27380100D03*
Y27420000D03*
Y27460100D03*
Y27500000D03*
Y27540100D03*
Y27580000D03*
Y27620100D03*
Y27660000D03*
Y27699900D03*
Y27740000D03*
Y27779900D03*
X21919900D03*
Y27740000D03*
Y27699900D03*
Y27660000D03*
Y27620100D03*
Y27580000D03*
Y27540100D03*
Y27500000D03*
Y27460100D03*
Y27420000D03*
Y27380100D03*
Y27340000D03*
Y27300100D03*
Y27260000D03*
Y27220100D03*
Y27179900D03*
Y27140100D03*
Y27099900D03*
Y27060000D03*
Y27019900D03*
Y26980000D03*
Y26939900D03*
Y26900000D03*
Y26859900D03*
Y26820000D03*
Y26779900D03*
Y26740000D03*
Y26699900D03*
Y26660000D03*
Y26620100D03*
Y26580000D03*
Y26540100D03*
G54D118*
G01X20177500Y17600000D02*
X25685000D01*
G03X25855000Y17795000I-14022J183827D01*
G01Y24500000D01*
G03X25745000Y24815000I-506023J0D01*
G02X25635000Y25130000I396023J315000D01*
G02X25745000Y25445000I506023J0D01*
G03X25855000Y25760000I-396023J315000D01*
G01Y29433800D01*
G03X25708800Y29580000I-146200J0D01*
G01X21585000D01*
Y29460000D01*
X21425000D01*
Y29250000D01*
X21335000D01*
Y29460000D01*
X20955000D01*
Y29250000D01*
X20865000D01*
Y29460000D01*
X20705000D01*
Y29580000D01*
X20151200D01*
G03X20005000Y29433800I0J-146200D01*
G01Y25760000D01*
G03X20115000Y25445000I506023J0D01*
G02X20225000Y25130000I-396023J-315000D01*
G02X20115000Y24815000I-506023J0D01*
G03X20005000Y24500000I396023J-315000D01*
G01Y17795000D01*
G03X20177500Y17600000I205417J7917D01*
G01X23966330Y15422890D02*
X23985290Y15407020D01*
X24006620Y15397500D01*
X24025580D01*
X24044540Y15407020D01*
X24058760Y15422890D01*
X24065870Y15445130D01*
X24061130Y15467350D01*
X24049280Y15486400D01*
X24027950Y15499100D01*
X23999510Y15505450D01*
X23982920Y15518150D01*
X23975810Y15540370D01*
X23980550Y15562600D01*
X23992400Y15578470D01*
X24008990Y15588000D01*
X24025580D01*
X24042170Y15581650D01*
X24056390Y15565770D01*
G01X24144980Y15397500D02*
Y15588000D01*
X24206600Y15429250D01*
X24268220Y15588000D01*
Y15397500D01*
G01X24587600Y15588000D02*
Y15397500D01*
G01X24533090Y15588000D02*
X24642110D01*
G01X24778100Y15397500D02*
X24759140Y15400670D01*
X24742550Y15413370D01*
X24728330Y15432420D01*
X24718850Y15454650D01*
X24714110Y15480050D01*
Y15505450D01*
X24718850Y15530850D01*
X24728330Y15553080D01*
X24742550Y15572120D01*
X24759140Y15584830D01*
X24778100Y15588000D01*
X24797060Y15584830D01*
X24813650Y15572120D01*
X24827870Y15553080D01*
X24837350Y15530850D01*
X24842090Y15505450D01*
Y15480050D01*
X24837350Y15454650D01*
X24827870Y15432420D01*
X24813650Y15413370D01*
X24797060Y15400670D01*
X24778100Y15397500D01*
G01X24921200D02*
Y15588000D01*
X24978080D01*
X24997040Y15578470D01*
X25011260Y15556250D01*
X25016000Y15530850D01*
X25011260Y15505450D01*
X24999410Y15486400D01*
X24978080Y15476870D01*
X24921200D01*
G01X24153160Y14886200D02*
Y15076700D01*
X24200560D01*
X24219520Y15067170D01*
X24233740Y15054470D01*
X24245590Y15035430D01*
X24255070Y15013200D01*
X24257440Y14981450D01*
X24255070Y14949700D01*
X24245590Y14927470D01*
X24233740Y14908420D01*
X24219520Y14895720D01*
X24200560Y14886200D01*
X24153160D01*
G01X24336550D02*
X24395800Y15076700D01*
X24455050Y14886200D01*
G01X24433720Y14952870D02*
X24357880D01*
G01X24586300Y15076700D02*
Y14886200D01*
G01X24531790Y15076700D02*
X24640810D01*
G01X24824200Y14886200D02*
X24729400D01*
Y15076700D01*
X24824200D01*
G01X24786280Y14984630D02*
X24729400D01*
G01X24967300Y14879850D02*
X24962560Y14883030D01*
Y14889370D01*
X24967300Y14892550D01*
X24972040Y14889370D01*
Y14883030D01*
X24967300Y14879850D01*
G01Y14965570D02*
X24962560Y14968750D01*
Y14975100D01*
X24967300Y14978270D01*
X24972040Y14975100D01*
Y14968750D01*
X24967300Y14965570D01*
G01X25303270Y15044950D02*
X25317490Y15064000D01*
X25334080Y15073530D01*
X25353040Y15076700D01*
X25376740Y15070350D01*
X25393330Y15054470D01*
X25398070Y15035430D01*
X25395700Y15016370D01*
X25386220Y15000500D01*
X25338820Y14968750D01*
X25317490Y14946520D01*
X25303270Y14914770D01*
X25298530Y14886200D01*
X25398070D01*
G01X25538800Y15076700D02*
X25519840Y15070350D01*
X25505620Y15054470D01*
X25496140Y15035430D01*
X25489030Y15010020D01*
X25486660Y14981450D01*
X25489030Y14952870D01*
X25496140Y14927470D01*
X25505620Y14908420D01*
X25519840Y14892550D01*
X25538800Y14886200D01*
X25557760Y14892550D01*
X25571980Y14908420D01*
X25581460Y14927470D01*
X25588570Y14952870D01*
X25590940Y14981450D01*
X25588570Y15010020D01*
X25581460Y15035430D01*
X25571980Y15054470D01*
X25557760Y15070350D01*
X25538800Y15076700D01*
G01X25729300Y14886200D02*
Y15076700D01*
X25700860Y15038600D01*
G01Y14886200D02*
X25757740D01*
G01X25919800D02*
X25936390Y14889370D01*
X25955350Y14898900D01*
X25967200Y14914770D01*
X25971940Y14937000D01*
X25967200Y14959220D01*
X25952980Y14978270D01*
X25931650Y14987800D01*
X25907950D01*
X25893730Y14994150D01*
X25881880Y15010020D01*
X25877140Y15032250D01*
X25884250Y15054470D01*
X25900840Y15070350D01*
X25919800Y15076700D01*
X25938760Y15070350D01*
X25955350Y15054470D01*
X25962460Y15032250D01*
X25957720Y15010020D01*
X25945870Y14994150D01*
X25931650Y14987800D01*
X25907950D01*
X25886620Y14978270D01*
X25872400Y14959220D01*
X25867660Y14937000D01*
X25872400Y14914770D01*
X25884250Y14898900D01*
X25903210Y14889370D01*
X25919800Y14886200D01*
G01X26079490Y14949700D02*
X26141110D01*
G01X26300800Y14886200D02*
Y15076700D01*
X26272360Y15038600D01*
G01Y14886200D02*
X26329240D01*
G01X26491300Y15076700D02*
X26472340Y15070350D01*
X26458120Y15054470D01*
X26448640Y15035430D01*
X26441530Y15010020D01*
X26439160Y14981450D01*
X26441530Y14952870D01*
X26448640Y14927470D01*
X26458120Y14908420D01*
X26472340Y14892550D01*
X26491300Y14886200D01*
X26510260Y14892550D01*
X26524480Y14908420D01*
X26533960Y14927470D01*
X26541070Y14952870D01*
X26543440Y14981450D01*
X26541070Y15010020D01*
X26533960Y15035430D01*
X26524480Y15054470D01*
X26510260Y15070350D01*
X26491300Y15076700D01*
G01X26650990Y14949700D02*
X26712610D01*
G01X26872300Y14886200D02*
Y15076700D01*
X26843860Y15038600D01*
G01Y14886200D02*
X26900740D01*
G01X27062800Y15076700D02*
X27043840Y15070350D01*
X27029620Y15054470D01*
X27020140Y15035430D01*
X27013030Y15010020D01*
X27010660Y14981450D01*
X27013030Y14952870D01*
X27020140Y14927470D01*
X27029620Y14908420D01*
X27043840Y14892550D01*
X27062800Y14886200D01*
X27081760Y14892550D01*
X27095980Y14908420D01*
X27105460Y14927470D01*
X27112570Y14952870D01*
X27114940Y14981450D01*
X27112570Y15010020D01*
X27105460Y15035430D01*
X27095980Y15054470D01*
X27081760Y15070350D01*
X27062800Y15076700D01*
G01X24200300Y16071700D02*
Y15881200D01*
G01X24145790Y16071700D02*
X24254810D01*
G01X24438200Y15881200D02*
X24343400D01*
Y16071700D01*
X24438200D01*
G01X24400280Y15979630D02*
X24343400D01*
G01X24531530Y15881200D02*
X24631070Y16071700D01*
G01X24531530D02*
X24631070Y15881200D01*
G01X24712550D02*
X24771800Y16071700D01*
X24831050Y15881200D01*
G01X24809720Y15947870D02*
X24733880D01*
G01X24912530Y15906590D02*
X24931490Y15890720D01*
X24952820Y15881200D01*
X24971780D01*
X24990740Y15890720D01*
X25004960Y15906590D01*
X25012070Y15928830D01*
X25007330Y15951050D01*
X24995480Y15970100D01*
X24974150Y15982800D01*
X24945710Y15989150D01*
X24929120Y16001850D01*
X24922010Y16024070D01*
X24926750Y16046300D01*
X24938600Y16062170D01*
X24955190Y16071700D01*
X24971780D01*
X24988370Y16065350D01*
X25002590Y16049470D01*
G01X25314860Y16071700D02*
X25371740D01*
G01X25343300D02*
Y15881200D01*
G01X25314860D02*
X25371740D01*
G01X25479290D02*
Y16071700D01*
X25588310Y15881200D01*
Y16071700D01*
G01X25674530Y15906590D02*
X25693490Y15890720D01*
X25714820Y15881200D01*
X25733780D01*
X25752740Y15890720D01*
X25766960Y15906590D01*
X25774070Y15928830D01*
X25769330Y15951050D01*
X25757480Y15970100D01*
X25736150Y15982800D01*
X25707710Y15989150D01*
X25691120Y16001850D01*
X25684010Y16024070D01*
X25688750Y16046300D01*
X25700600Y16062170D01*
X25717190Y16071700D01*
X25733780D01*
X25750370Y16065350D01*
X25764590Y16049470D01*
G01X25914800Y16071700D02*
Y15881200D01*
G01X25860290Y16071700D02*
X25969310D01*
G01X26057900Y15881200D02*
Y16071700D01*
X26117150D01*
X26136110Y16062170D01*
X26147960Y16049470D01*
X26152700Y16024070D01*
X26147960Y15998670D01*
X26133740Y15982800D01*
X26117150Y15973270D01*
X26057900D01*
G01X26117150D02*
X26152700Y15881200D01*
G01X26243660Y16071700D02*
Y15935180D01*
X26253140Y15906590D01*
X26272100Y15887550D01*
X26295800Y15881200D01*
X26319500Y15887550D01*
X26338460Y15906590D01*
X26347940Y15935180D01*
Y16071700D01*
G01X26424680Y15881200D02*
Y16071700D01*
X26486300Y15912950D01*
X26547920Y16071700D01*
Y15881200D01*
G01X26724200D02*
X26629400D01*
Y16071700D01*
X26724200D01*
G01X26686280Y15979630D02*
X26629400D01*
G01X26812790Y15881200D02*
Y16071700D01*
X26921810Y15881200D01*
Y16071700D01*
G01X27057800D02*
Y15881200D01*
G01X27003290Y16071700D02*
X27112310D01*
G01X27198530Y15906590D02*
X27217490Y15890720D01*
X27238820Y15881200D01*
X27257780D01*
X27276740Y15890720D01*
X27290960Y15906590D01*
X27298070Y15928830D01*
X27293330Y15951050D01*
X27281480Y15970100D01*
X27260150Y15982800D01*
X27231710Y15989150D01*
X27215120Y16001850D01*
X27208010Y16024070D01*
X27212750Y16046300D01*
X27224600Y16062170D01*
X27241190Y16071700D01*
X27257780D01*
X27274370Y16065350D01*
X27288590Y16049470D01*
G01X25242500Y15451200D02*
X25256130Y15372500D01*
X25271700Y15451200D01*
X25287270Y15372500D01*
X25300900Y15451200D01*
G01X25371810Y15444640D02*
X25365970Y15448580D01*
X25359160Y15451200D01*
X25351370D01*
X25342610Y15447260D01*
X25335800Y15440710D01*
X25330930Y15432840D01*
X25327040Y15419720D01*
X25326070Y15407910D01*
X25328010Y15396110D01*
X25330930Y15388240D01*
X25336770Y15380370D01*
X25343590Y15375120D01*
X25350400Y15372500D01*
X25357210D01*
X25364030Y15375120D01*
X25369870Y15379060D01*
X25374730Y15384300D01*
G01X25408660Y15382990D02*
X25416450Y15376430D01*
X25425210Y15372500D01*
X25432990D01*
X25440780Y15376430D01*
X25446620Y15382990D01*
X25449540Y15392180D01*
X25447590Y15401360D01*
X25442730Y15409230D01*
X25433970Y15414470D01*
X25422290Y15417100D01*
X25415470Y15422340D01*
X25412550Y15431520D01*
X25414500Y15440710D01*
X25419370Y15447260D01*
X25426180Y15451200D01*
X25432990D01*
X25439810Y15448580D01*
X25445650Y15442020D01*
G01X25507800Y15451200D02*
X25500010Y15448580D01*
X25494170Y15442020D01*
X25490280Y15434150D01*
X25487360Y15423650D01*
X25486390Y15411850D01*
X25487360Y15400040D01*
X25490280Y15389550D01*
X25494170Y15381680D01*
X25500010Y15375120D01*
X25507800Y15372500D01*
X25515590Y15375120D01*
X25521430Y15381680D01*
X25525320Y15389550D01*
X25528240Y15400040D01*
X25529210Y15411850D01*
X25528240Y15423650D01*
X25525320Y15434150D01*
X25521430Y15442020D01*
X25515590Y15448580D01*
X25507800Y15451200D01*
G01X25598180Y15372500D02*
Y15451200D01*
X25562170Y15394800D01*
X25610830D01*
G01X25646710Y15438080D02*
X25652550Y15445950D01*
X25659360Y15449890D01*
X25667150Y15451200D01*
X25676880Y15448580D01*
X25683690Y15442020D01*
X25685640Y15434150D01*
X25684670Y15426280D01*
X25680770Y15419720D01*
X25661310Y15406600D01*
X25652550Y15397420D01*
X25646710Y15384300D01*
X25644760Y15372500D01*
X25685640D01*
G01X25801190D02*
Y15451200D01*
X25820650D01*
X25828440Y15447260D01*
X25834280Y15442020D01*
X25839150Y15434150D01*
X25843040Y15424970D01*
X25844010Y15411850D01*
X25843040Y15398730D01*
X25839150Y15389550D01*
X25834280Y15381680D01*
X25828440Y15376430D01*
X25820650Y15372500D01*
X25801190D01*
G01X25237230Y15641200D02*
Y15562500D01*
X25276170D01*
G01X25311070D02*
X25335400Y15641200D01*
X25359730Y15562500D01*
G01X25350970Y15590040D02*
X25319830D01*
G01X25392690Y15641200D02*
Y15584800D01*
X25396580Y15572990D01*
X25404370Y15565120D01*
X25414100Y15562500D01*
X25423830Y15565120D01*
X25431620Y15572990D01*
X25435510Y15584800D01*
Y15641200D01*
G01X25470410Y15562500D02*
Y15641200D01*
X25515190Y15562500D01*
Y15641200D01*
G01X25592910Y15634640D02*
X25587070Y15638580D01*
X25580260Y15641200D01*
X25572470D01*
X25563710Y15637260D01*
X25556900Y15630710D01*
X25552030Y15622840D01*
X25548140Y15609720D01*
X25547170Y15597910D01*
X25549110Y15586110D01*
X25552030Y15578240D01*
X25557870Y15570370D01*
X25564690Y15565120D01*
X25571500Y15562500D01*
X25578310D01*
X25585130Y15565120D01*
X25590970Y15569060D01*
X25595830Y15574300D01*
G01X25629760Y15562500D02*
Y15641200D01*
G01X25670640D02*
Y15562500D01*
G01Y15601850D02*
X25629760D01*
G01X25708460Y15562500D02*
X25749340Y15641200D01*
G01X25708460D02*
X25749340Y15562500D01*
G01X25788130Y15641200D02*
Y15562500D01*
X25827070D01*
G01X25873650Y15588730D02*
X25898950D01*
G01X25986410Y15634640D02*
X25980570Y15638580D01*
X25973760Y15641200D01*
X25965970D01*
X25957210Y15637260D01*
X25950400Y15630710D01*
X25945530Y15622840D01*
X25941640Y15609720D01*
X25940670Y15597910D01*
X25942610Y15586110D01*
X25945530Y15578240D01*
X25951370Y15570370D01*
X25958190Y15565120D01*
X25965000Y15562500D01*
X25971810D01*
X25978630Y15565120D01*
X25984470Y15569060D01*
X25989330Y15574300D01*
G01X26065110Y15634640D02*
X26059270Y15638580D01*
X26052460Y15641200D01*
X26044670D01*
X26035910Y15637260D01*
X26029100Y15630710D01*
X26024230Y15622840D01*
X26020340Y15609720D01*
X26019370Y15597910D01*
X26021310Y15586110D01*
X26024230Y15578240D01*
X26030070Y15570370D01*
X26036890Y15565120D01*
X26043700Y15562500D01*
X26050510D01*
X26057330Y15565120D01*
X26063170Y15569060D01*
X26068030Y15574300D01*
G01X26122400Y15562500D02*
Y15641200D01*
X26110720Y15625460D01*
G01Y15562500D02*
X26134080D01*
G01X26179690Y15578240D02*
X26185530Y15569060D01*
X26193310Y15563810D01*
X26202070Y15562500D01*
X26209860Y15563810D01*
X26217650Y15570370D01*
X26222510Y15578240D01*
X26223490Y15586110D01*
X26221540Y15595290D01*
X26214730Y15601850D01*
X26207910Y15604470D01*
X26199150D01*
G01X26207910D02*
X26213750Y15608410D01*
X26218620Y15614970D01*
X26220570Y15622840D01*
X26218620Y15630710D01*
X26213750Y15637260D01*
X26204990Y15641200D01*
X26196230Y15639890D01*
X26187470Y15634640D01*
G01X26279800Y15562500D02*
Y15641200D01*
X26268120Y15625460D01*
G01Y15562500D02*
X26291480D01*
G01X26340010Y15628080D02*
X26345850Y15635950D01*
X26352660Y15639890D01*
X26360450Y15641200D01*
X26370180Y15638580D01*
X26376990Y15632020D01*
X26378940Y15624150D01*
X26377970Y15616280D01*
X26374070Y15609720D01*
X26354610Y15596600D01*
X26345850Y15587420D01*
X26340010Y15574300D01*
X26338060Y15562500D01*
X26378940D01*
G01X26417730D02*
Y15641200D01*
X26442070D01*
X26449850Y15637260D01*
X26454720Y15632020D01*
X26456670Y15621520D01*
X26454720Y15611030D01*
X26448880Y15604470D01*
X26442070Y15600540D01*
X26417730D01*
G01X26442070D02*
X26456670Y15562500D01*
G01X26515900D02*
Y15641200D01*
X26504220Y15625460D01*
G01Y15562500D02*
X26527580D01*
G01X26651890D02*
Y15641200D01*
X26671350D01*
X26679140Y15637260D01*
X26684980Y15632020D01*
X26689850Y15624150D01*
X26693740Y15614970D01*
X26694710Y15601850D01*
X26693740Y15588730D01*
X26689850Y15579550D01*
X26684980Y15571680D01*
X26679140Y15566430D01*
X26671350Y15562500D01*
X26651890D01*
G54D61*
X23215000Y21890000D03*
Y22140000D03*
G54D52*
X21233800Y29265000D03*
X21046200D03*
G54D70*
X22890000Y23545000D03*
Y23365000D03*
X23535000Y29385000D03*
Y29205000D03*
X23885000Y28870000D03*
Y28690000D03*
G54D25*
X20228000Y27620000D03*
X20224000Y27155000D03*
X20230000Y26935000D03*
Y27040000D03*
X21845000Y22825000D03*
X21765000Y22730000D03*
X20677400Y24950000D03*
X21900400Y25905000D03*
X21096400Y26125000D03*
X21667400Y26240000D03*
X21096400Y26220000D03*
X21832400Y28130000D03*
X20662400Y28930000D03*
X21782400Y28060000D03*
X21600000D03*
X22915000Y20535000D03*
X22787400Y21575000D03*
X22695000Y21820000D03*
X22787400Y22055000D03*
X23007400Y20865000D03*
X22450000Y22765000D03*
Y22695000D03*
X23522400Y22475000D03*
X23492400Y23000000D03*
X22650000Y22300000D03*
X22837400D03*
X22745000Y22370000D03*
X22200000Y27485000D03*
X22190000Y27840000D03*
X22202400Y27570000D03*
Y27660000D03*
X22190000Y27750000D03*
X23182400Y27830000D03*
X23382400Y27835000D03*
X22520000Y28035000D03*
X22250000Y29040000D03*
X23510000Y29055000D03*
X22522400Y27940000D03*
X22320000Y28960000D03*
X23380000Y27935000D03*
X23435000Y28065000D03*
X23172400Y28650000D03*
X23380000Y29375000D03*
X24440000Y21935000D03*
X24490000Y21515000D03*
X24322400Y25630000D03*
X23562400Y25910000D03*
X24985000Y26440000D03*
X24635000Y27155000D03*
X24437400D03*
X24917400Y27475000D03*
X24522400Y27790000D03*
X24917400Y27575000D03*
X23707400Y27505000D03*
X23760000Y26860000D03*
Y27080000D03*
X24860000Y29065000D03*
X24035000Y28470000D03*
X24037400Y28560000D03*
X23715000Y28905000D03*
X23717400Y29005000D03*
X24797400Y29370000D03*
X25647400Y24575000D03*
X25187400Y26855000D03*
Y26755000D03*
X25110000Y28595000D03*
Y28700000D03*
Y28800000D03*
X25112400Y28500000D03*
G54D34*
X22006360Y22681360D03*
X22070000Y22745000D03*
G54D109*
X24355000Y28895000D03*
X24405000D03*
X24455000D03*
X24505000D03*
X24555000D03*
X24605000D03*
X24655000D03*
X24705000D03*
Y28255000D03*
X24655000D03*
X24605000D03*
X24555000D03*
X24505000D03*
X24455000D03*
X24405000D03*
X24355000D03*
G54D43*
X21705000Y29340000D03*
X22380000D03*
G54D16*
X20435000Y24877500D03*
Y25297500D03*
G54D17*
X20255000Y24750000D03*
Y25425000D03*
G54D53*
X21386200Y29035000D03*
X20893800D03*
G54D44*
X21235000Y28560000D03*
Y28510000D03*
Y28460000D03*
Y28410000D03*
Y28360000D03*
Y28310000D03*
Y28260000D03*
Y28210000D03*
X20745000D03*
Y28260000D03*
Y28310000D03*
Y28360000D03*
Y28410000D03*
Y28460000D03*
Y28510000D03*
Y28560000D03*
X24575000Y29270000D03*
Y29320000D03*
X24265000Y29270000D03*
Y29320000D03*
X24575000Y29370000D03*
Y29420000D03*
X24265000Y29370000D03*
Y29420000D03*
G54D80*
X22520000Y28150000D03*
X22585000D03*
X22650000D03*
X22715000D03*
X22520000Y28450000D03*
X22585000D03*
X22650000D03*
X22715000D03*
G54D62*
X22420000Y23530000D03*
Y23390000D03*
G54D26*
X20135000Y26820000D03*
X20225000D03*
X23285000Y28660000D03*
X23375000D03*
X23345000Y28175000D03*
X23435000D03*
X23675000Y26970000D03*
X23765000D03*
X23905000Y27200000D03*
X23995000D03*
X24755000Y28050000D03*
X24845000D03*
X25500000Y28290000D03*
X25590000D03*
G54D71*
X22577500Y23625000D03*
X22737500D03*
G54D35*
X22038640Y22326360D03*
X21975000Y22390000D03*
G54D45*
X21165000Y28140000D03*
X21115000D03*
X21065000D03*
X21015000D03*
X20965000D03*
X20915000D03*
X20865000D03*
X20815000D03*
Y28630000D03*
X20865000D03*
X20915000D03*
X20965000D03*
X21015000D03*
X21065000D03*
X21115000D03*
X21165000D03*
G54D81*
X22617500Y28300000D03*
X23197500Y28965000D03*
G54D63*
X22190000Y22320000D03*
G54D36*
X21828000Y22470000D03*
Y22635000D03*
X21715000Y22470000D03*
Y22635000D03*
G54D54*
X21270000Y29000000D03*
X21205000D03*
X21140000D03*
X21075000D03*
X21010000D03*
G54D72*
X23185000Y26308000D03*
G54D90*
X24465000Y21745000D03*
G54D18*
X20585000Y24950000D03*
X20135600Y27620000D03*
X20131600Y27155000D03*
X20137600Y26935000D03*
Y27040000D03*
X20570000Y28930000D03*
X21752600Y22825000D03*
X21672600Y22730000D03*
X21808000Y25905000D03*
X21004000Y26125000D03*
X21575000Y26240000D03*
X21004000Y26220000D03*
X21740000Y28130000D03*
X21690000Y28060000D03*
X21507600D03*
X22822600Y20535000D03*
X22695000Y21575000D03*
X22602600Y21820000D03*
X22695000Y22055000D03*
X22915000Y20865000D03*
X22357600Y22765000D03*
Y22695000D03*
X23430000Y22475000D03*
X23400000Y23000000D03*
X22557600Y22300000D03*
X22745000D03*
X22652600Y22370000D03*
X23470000Y25910000D03*
X22107600Y27485000D03*
X22097600Y27840000D03*
X22110000Y27570000D03*
Y27660000D03*
X22097600Y27750000D03*
X23090000Y27830000D03*
X23290000Y27835000D03*
X22427600Y28035000D03*
X22157600Y29040000D03*
X23417600Y29055000D03*
X22430000Y27940000D03*
X22227600Y28960000D03*
X23287600Y27935000D03*
X23342600Y28065000D03*
X23080000Y28650000D03*
X23287600Y29375000D03*
X24347600Y21935000D03*
X24397600Y21515000D03*
X24230000Y25630000D03*
X24892600Y26440000D03*
X24542600Y27155000D03*
X24345000D03*
X24825000Y27475000D03*
X24430000Y27790000D03*
X24825000Y27575000D03*
X23615000Y27505000D03*
X23667600Y26860000D03*
Y27080000D03*
X24767600Y29065000D03*
X23942600Y28470000D03*
X23945000Y28560000D03*
X23622600Y28905000D03*
X23625000Y29005000D03*
X24705000Y29370000D03*
X25555000Y24575000D03*
X25095000Y26855000D03*
Y26755000D03*
X25017600Y28595000D03*
Y28700000D03*
Y28800000D03*
X25020000Y28500000D03*
G54D27*
X20424900Y28685000D03*
Y28465000D03*
X20255000D03*
Y28685000D03*
G54D91*
X24540000Y21865000D03*
X24490000D03*
X24440000D03*
X24390000D03*
X24540000Y21625000D03*
X24490000D03*
X24440000D03*
X24390000D03*
G54D55*
X21175000Y28834000D03*
X21125000D03*
X21075000D03*
X21175000Y28775000D03*
X21125000D03*
X21075000D03*
G54D46*
X20990000Y28385000D03*
G54D28*
X20375000Y28855000D03*
X20172000D03*
X20273500Y28093000D03*
G54D73*
X23285000Y26161000D03*
X23235000D03*
X23185000D03*
X23135000D03*
X23085000D03*
Y26455000D03*
X23135000D03*
X23185000D03*
X23235000D03*
X23285000D03*
G54D37*
X21228000Y26100000D03*
Y26165000D03*
Y26230000D03*
X21448000D03*
Y26100000D03*
G54D19*
X20569900Y26390000D03*
X20530000D03*
Y27930000D03*
X20569900D03*
X21770000Y26390000D03*
X21729900D03*
X21690000D03*
X21649900D03*
X21610000D03*
X21569900D03*
X21530000D03*
X21490100D03*
X21450000D03*
X21410100D03*
X21370000D03*
X21330100D03*
X21290000D03*
X21250100D03*
X21210000D03*
X21170100D03*
X21130000D03*
X21090100D03*
X21049900D03*
X21010100D03*
X20969900D03*
X20930000D03*
X20889900D03*
X20850000D03*
X20809900D03*
X20770000D03*
X20729900D03*
X20690000D03*
X20649900D03*
X20610000D03*
Y27930000D03*
X20649900D03*
X20690000D03*
X20729900D03*
X20770000D03*
X20809900D03*
X20850000D03*
X20889900D03*
X20930000D03*
X20969900D03*
X21010100D03*
X21049900D03*
X21090100D03*
X21130000D03*
X21170100D03*
X21210000D03*
X21250100D03*
X21290000D03*
X21330100D03*
X21370000D03*
X21410100D03*
X21450000D03*
X21490100D03*
X21530000D03*
X21569900D03*
X21610000D03*
X21649900D03*
X21690000D03*
X21729900D03*
X21770000D03*
G54D64*
X22124660Y22385340D03*
G54D82*
X22210000Y28855000D03*
X22350000D03*
G54D74*
X22735000Y26965000D03*
Y26665000D03*
G54D65*
X22637500Y23475000D03*
Y23315000D03*
X23525000Y24695000D03*
Y24535000D03*
X23670000Y24695000D03*
Y24535000D03*
X23815000Y24695000D03*
Y24535000D03*
X23960000Y24695000D03*
Y24535000D03*
X24936000Y24890000D03*
Y24730000D03*
X25085000Y24890000D03*
Y24730000D03*
G54D92*
X24330000Y20785000D03*
G54D56*
X21705000Y28775000D03*
G54D29*
X20574000Y28260000D03*
Y28170000D03*
X20630000Y28260000D03*
X20719000Y28780000D03*
X20775000D03*
X20630000Y28170000D03*
X21348000Y28655000D03*
X21404000D03*
G54D83*
X22475000Y28840000D03*
Y29000000D03*
X22250000Y28290000D03*
Y28450000D03*
X23340000Y28330000D03*
Y28490000D03*
X24150000Y21695000D03*
Y21855000D03*
X23875000Y27550000D03*
Y27710000D03*
X23995000Y26585000D03*
Y26745000D03*
G54D38*
X22000000Y26070000D03*
X22800000D03*
X22400000D03*
G54D47*
X21895000Y28505000D03*
Y28255000D03*
X21695000D03*
Y28505000D03*
G54D75*
X23210000Y27115000D03*
X23250000D03*
Y26925000D03*
X23210000D03*
G54D84*
X22780000Y29365000D03*
Y28745000D03*
G54D93*
X24668000Y24975000D03*
X24541000D03*
X24414000D03*
X24287000D03*
X24160000D03*
X24668000Y25360000D03*
X24541000D03*
X24414000D03*
X24287000D03*
X24160000D03*
G54D39*
X21991000Y26007500D03*
X21951000D03*
X21911000D03*
X21871000D03*
Y26252500D03*
X21911000D03*
X21951000D03*
X21991000D03*
X22791000Y26007500D03*
X22751000D03*
X22711000D03*
X22671000D03*
Y26252500D03*
X22711000D03*
X22751000D03*
X22791000D03*
X22391000Y26007500D03*
X22351000D03*
X22311000D03*
X22271000D03*
Y26252500D03*
X22311000D03*
X22351000D03*
X22391000D03*
G54D57*
X21810000Y28700000D03*
Y28750000D03*
Y28800000D03*
Y28850000D03*
X21600000Y28700000D03*
Y28750000D03*
Y28800000D03*
Y28850000D03*
G54D66*
X22602500Y22545000D03*
Y22595000D03*
Y22645000D03*
Y22695000D03*
Y22745000D03*
Y22795000D03*
Y22845000D03*
Y22895000D03*
Y22945000D03*
Y22995000D03*
Y23045000D03*
Y23095000D03*
X23292500D03*
Y23045000D03*
Y22995000D03*
Y22945000D03*
Y22895000D03*
Y22845000D03*
Y22795000D03*
Y22745000D03*
Y22695000D03*
Y22645000D03*
Y22595000D03*
Y22545000D03*
G54D48*
X21765000Y28970000D03*
X21675000D03*
X21485000Y28855000D03*
X21395000D03*
X23500000Y26310000D03*
X23380000Y27230000D03*
X23290000D03*
Y26810000D03*
X23200000D03*
X23170000Y28540000D03*
X23080000D03*
X23795000Y26310000D03*
X23705000D03*
X23590000D03*
X23710000Y27400000D03*
X23620000D03*
X24525000Y27375000D03*
X24435000D03*
X24525000Y27260000D03*
X24435000D03*
X24770000Y26505000D03*
X24680000D03*
X24525000Y28100000D03*
X24435000D03*
G54D94*
X23855000Y25985000D03*
X23910000Y25040000D03*
X23860000D03*
X23810000D03*
G54D49*
X21905000Y28030000D03*
Y27940000D03*
X23005000Y27240000D03*
Y27150000D03*
X24280000Y21610000D03*
Y21520000D03*
X24355000Y29145000D03*
Y29055000D03*
X25140000Y27405000D03*
Y27315000D03*
G54D76*
X23325000Y27100000D03*
Y27060000D03*
Y27020000D03*
Y26980000D03*
Y26940000D03*
X23135000D03*
Y26980000D03*
Y27020000D03*
Y27060000D03*
Y27100000D03*
G54D67*
X22672500Y23165000D03*
X22722500D03*
X22772500D03*
X22822500D03*
X22872500D03*
X22922500D03*
X22972500D03*
X23022500D03*
X23072500D03*
X23122500D03*
X23172500D03*
X23222500D03*
Y22475000D03*
X23172500D03*
X23122500D03*
X23072500D03*
X23022500D03*
X22972500D03*
X22922500D03*
X22872500D03*
X22822500D03*
X22772500D03*
X22722500D03*
X22672500D03*
G54D58*
X21945000Y28685000D03*
X22295000D03*
G54D85*
X23295000Y29115000D03*
X23230000D03*
X23165000D03*
X23100000D03*
X23295000Y28815000D03*
X23230000D03*
X23165000D03*
X23100000D03*
G54D68*
X22947500Y22820000D03*
G54D59*
X22915000Y20309000D03*
Y20365000D03*
G54D86*
X23045000Y28142000D03*
Y28370000D03*
G54D95*
X23855000Y26135000D03*
X23910000Y25190000D03*
X23860000D03*
X23810000D03*
G54D77*
X23195000Y27695000D03*
Y27630000D03*
Y27565000D03*
Y27500000D03*
X23495000Y27695000D03*
Y27630000D03*
Y27565000D03*
Y27500000D03*
G54D69*
X22221210Y22646780D03*
X22122220Y22547780D03*
X22298990Y22568990D03*
X22200000Y22470000D03*
G54D87*
X23525000Y28705000D03*
X23705000D03*
X25485000Y27245000D03*
X25305000D03*
X25340000Y28320000D03*
X25160000D03*
G54D96*
X23930000Y26010000D03*
Y26060000D03*
Y26110000D03*
X23935000Y25115000D03*
G54D78*
X23345000Y27597500D03*
G54D79*
X22830000Y27170000D03*
Y27470000D03*
G54D88*
X23520000Y28485000D03*
X23580000Y27230000D03*
X23760000D03*
X23730000Y28280000D03*
X23910000D03*
X23700000Y28485000D03*
X25395000Y27770000D03*
X25575000D03*
G54D97*
X23780000Y26010000D03*
Y26060000D03*
Y26110000D03*
X23785000Y25115000D03*
G54D98*
X24067900Y25868300D03*
X24194900D03*
X24321900D03*
X24448900D03*
X24575900D03*
X24067900Y26253300D03*
X24194900D03*
X24321900D03*
X24448900D03*
X24575900D03*
G54D89*
X24610000Y20505000D03*
X24050000D03*
Y21065000D03*
X24610000D03*
G54D99*
X23580000Y26466000D03*
X23770000D03*
X23580000Y26695000D03*
X23675000D03*
X23770000D03*
M02*
