G04 ================== begin FILE IDENTIFICATION RECORD ==================*
G04 Layout Name:  LAUNCHXL-CC1312R1.brd*
G04 Film Name:    WCS042D_LAUNCHXL-CC1312R1_D_Layer3*
G04 File Format:  Gerber RS274X*
G04 File Origin:  Cadence Allegro 17.2-S024*
G04 Origin Date:  Wed Oct 10 12:29:49 2018*
G04 *
G04 Layer:  BOARD GEOMETRY/LAYER3*
G04 Layer:  DRAWING FORMAT/TITLE_BLOCK*
G04 Layer:  BOARD GEOMETRY/OUTLINE*
G04 Layer:  ETCH/L3*
G04 Layer:  PIN/L3*
G04 Layer:  VIA CLASS/L3*
G04 *
G04 Offset:    (0.0000 0.0000)*
G04 Mirror:    No*
G04 Mode:      Positive*
G04 Rotation:  0*
G04 FullContactRelief:  No*
G04 UndefLineWidth:     0.0200*
G04 ================== end FILE IDENTIFICATION RECORD ====================*
%FSLAX25Y25*MOMM*%
%IR0*IPPOS*OFA0.00000B0.00000*MIA0B0*SFA1.00000B1.00000*%
%ADD15C,.1*%
%ADD11C,.4*%
%ADD17C,.5*%
%ADD16O,1.4X2.1*%
%ADD10C,3.8*%
%ADD12C,1.65*%
%ADD13C,.099*%
%ADD14C,1.699*%
%ADD18C,.2*%
%ADD19C,.3*%
%ADD20C,.6*%
%ADD21C,.15*%
%ADD22C,1.*%
%ADD23C,.02*%
%ADD27C,.624*%
%ADD26C,2.004*%
%ADD24O,1.304X6.704*%
%ADD28C,1.324*%
%ADD25C,1.954*%
G75*
%LPD*%
G75*
G36*
G01X25809900Y28416900D02*
X25810000Y25735000D01*
Y25715600D01*
G02X25809900Y25714400I-9983J228D01*
G01X25800000Y25635400D01*
G02X25799900Y25634600I-9924J834D01*
G01X25793600Y25603000D01*
G03X25793400Y25601000I9800J-1990D01*
G01Y25593600D01*
X25793000Y25592200D01*
G02X25710800Y25431200I-439087J122696D01*
G03X25616800Y25255900I435209J-346222D01*
G01Y25255800D01*
G02X25609900Y25249300I-9497J3169D01*
G01X25591000Y25244200D01*
X25586200Y25245400D01*
X25584300Y25247100D01*
G03X25507200Y25255400I-44293J-49200D01*
G01X25504800Y25254100D01*
X25499600D01*
X25482200Y25264200D01*
G02X25477200Y25272900I5000J8660D01*
G01Y25317900D01*
G03X25474300Y25324900I-10000J-42D01*
G01X25271900Y25527300D01*
G03X25264900Y25530200I-7042J-7100D01*
G01X25205100D01*
G03X25198100Y25527300I42J-10000D01*
G01X25198000Y25527200D01*
X25067100D01*
G02X25060000Y25530200I41J9999D01*
G03X24914400Y25523900I-69986J-68189D01*
G02X24906600Y25520200I-7768J6305D01*
G01X24021000D01*
G02X24013600Y25523500I24J10000D01*
G01X24003700Y25534400D01*
G02X24001100Y25542100I7357J6773D01*
G03X23946000Y25525100I-31069J2904D01*
G01X23946100Y25525000D01*
G02X23945400Y25511600I-7762J-6313D01*
G01X23731900Y25298100D01*
G02X23724900Y25295200I-7042J7100D01*
G01X21743100D01*
G02X21736100Y25298100I42J10000D01*
G01X21722400Y25311800D01*
G02X21719500Y25318800I7100J7042D01*
G01Y25384900D01*
G02X21722500Y25392000I9999J-41D01*
G03X21586100I-68200J70000D01*
G02X21589100Y25384900I-6999J-7141D01*
G01Y25305200D01*
G02X21579100Y25295200I-10000J0D01*
G01X20773100D01*
G03X20766100Y25292300I42J-10000D01*
G01X20589900Y25116100D01*
G03X20572800Y25054000I46102J-46099D01*
G01X20573100Y25052800D01*
Y24523100D01*
G02X20570100Y24516000I-9998J41D01*
G03X20547700Y24482500I68274J-69891D01*
G01Y24482400D01*
G02X20538400Y24476200I-9258J3813D01*
G01X20421600D01*
G03X20414600Y24473300I42J-10000D01*
G01X20131700Y24190400D01*
G03X20128800Y24183400I7100J-7042D01*
G01Y22032000D01*
G03X20131700Y22025000I9999J42D01*
G01X20179100Y21977500D01*
G02X20181500Y21973700I-7048J-7109D01*
G01Y21973600D01*
G03X20225900Y22017900I33504J10820D01*
G01X20225700D01*
X20223500Y22018700D01*
X20192100Y22050000D01*
G02X20189200Y22057100I7102J7043D01*
G01Y24158400D01*
G02X20192100Y24165400I10000J-42D01*
G01X20439600Y24412900D01*
G02X20446600Y24415800I7042J-7100D01*
G01X20538400D01*
G02X20547700Y24409600I42J-10013D01*
G01Y24409500D01*
G03X20706500Y24516000I90620J36520D01*
G02X20703500Y24523100I6999J7141D01*
G01Y25041200D01*
G02X20706400Y25048200I10000J-42D01*
G01X20722100Y25063900D01*
G02X20736300I7100J-7042D01*
G01X20738800Y25061400D01*
X20739600Y25054500D01*
X20737800Y25051600D01*
G03X20792300Y25008000I30178J-18140D01*
G02X20799200Y25010800I6937J-7192D01*
G01X21327200D01*
G02X21335300Y25006700I24J-10003D01*
G01X21346300Y24991600D01*
X21347000Y24986800D01*
X21346300Y24984600D01*
G03X21404900Y24963300I29697J-9558D01*
G01X21405900Y24965700D01*
X21409600Y24968900D01*
X21428600Y24972700D01*
G02X21437700Y24970000I2048J-9781D01*
G01X21442500Y24965200D01*
G03X21449500Y24962300I7042J7100D01*
G01X21463800D01*
G02X21470700Y24959500I-36J-9990D01*
G03X21475100Y25014100I24282J25521D01*
G02X21469000Y25012400I-5591J8268D01*
G01X21463000Y25012600D01*
G02X21456400Y25015500I456J9999D01*
G01X21418600Y25053300D01*
G03X21411600Y25056200I-7042J-7100D01*
G01X20799200D01*
G02X20792300Y25059000I36J9990D01*
G03X20772400Y25068400I-24231J-25534D01*
G02X20764200Y25075100I1263J9913D01*
G01X20758300Y25092200D01*
G02X20760700Y25102500I9474J3222D01*
G01X20820100Y25161900D01*
G02X20827100Y25164800I7042J-7100D01*
G01X22088800D01*
G02X22098800Y25154800I0J-10000D01*
G01Y24752100D01*
G03X22101700Y24745100I10000J42D01*
G01X22226900Y24619900D01*
G02X22229800Y24612900I-7100J-7042D01*
G01Y23665000D01*
G03X22360200I65200J0D01*
G01Y24666900D01*
G03X22357300Y24673900I-10000J-42D01*
G01X22232100Y24799100D01*
G02X22229200Y24806100I7100J7042D01*
G01Y25154800D01*
G02X22239200Y25164800I10000J0D01*
G01X23629700D01*
G02X23637400Y25161200I14J-10005D01*
G01X23647300Y25149200D01*
G02X23649400Y25141000I-7715J-6345D01*
G01Y25140900D01*
G03X23666000Y25107100I30623J-5937D01*
G01X23668100Y25106100D01*
X23670900Y25102300D01*
X23674200Y25084200D01*
G02X23671700Y25075600I-9836J-1804D01*
G03X23705000Y24999800I33300J-30585D01*
G01X23757600D01*
G03X23764600Y25002700I-42J10000D01*
G01X23830300Y25068400D01*
G03X23833200Y25075400I-7100J7042D01*
G01Y25210900D01*
G02X23836100Y25217900I10000J-42D01*
G01X24005100Y25386900D01*
G02X24012100Y25389800I7042J-7100D01*
G01X24027200D01*
G02X24037200Y25379800I0J-10000D01*
G01Y25378300D01*
X24036400Y25375600D01*
X24035500Y25374300D01*
G03X24039500Y25330700I29480J-19279D01*
G02X24042300Y25323800I-7193J-6937D01*
G01Y24826200D01*
G02X24039400Y24819200I-10000J42D01*
G01X24030300Y24810100D01*
G02X24023500Y24807200I-7045J7097D01*
G03X23989100Y24772800I800J-35200D01*
G01X23989000Y24770800D01*
X23987600Y24767400D01*
X23800800Y24580600D01*
G02X23793800Y24577700I-7042J7100D01*
G01X23457200D01*
G03X23450200Y24574800I42J-10000D01*
G01X23272700Y24397300D01*
G03X23269800Y24390300I7100J-7042D01*
G01Y24095600D01*
G02X23259800Y24085600I-10000J0D01*
G02X23251500Y24090000I-15J10000D01*
G03X23248000Y24094300I-28975J-20010D01*
G02X23245200Y24101200I7195J6938D01*
G01Y24442000D01*
G02X23248100Y24449000I10000J-42D01*
G01X23398500Y24599400D01*
G02X23405500Y24602300I7042J-7100D01*
G01X23681300D01*
G03X23688300Y24605200I-42J10000D01*
G01X23810000Y24726900D01*
G02X23816800Y24729800I7045J-7097D01*
G03X23840300Y24739500I-778J35202D01*
G02X23847200Y24742300I6936J-7192D01*
G01X23875300D01*
G03X23882300Y24745200I-42J10000D01*
G01X23979800Y24842700D01*
G03X23982700Y24849700I-7100J7042D01*
G01Y25192300D01*
G02X23988100Y25201200I10000J21D01*
G03X23996100Y25258200I-16089J31319D01*
G02X23995700Y25258600I6873J7273D01*
G03X23936700Y25223000I-25725J-24056D01*
G01X23937300Y25221400D01*
Y24987400D01*
G02X23933200Y24979300I-10007J-23D01*
G01X23919900Y24969700D01*
G02X23911000Y24968300I-5834J8101D01*
G01X23910900D01*
G03X23864700Y24935700I-11018J-33422D01*
G01X23864600Y24933700D01*
X23863200Y24930300D01*
X23849800Y24916900D01*
G02X23835600I-7100J7061D01*
G01Y24917000D01*
G02X23834100Y24929200I7067J7061D01*
G03X23779500Y24972600I-30303J17922D01*
G02X23772600Y24969800I-6936J7191D01*
G01X22476800D01*
G03X22469800Y24966900I42J-10000D01*
G01X22422300Y24919400D01*
G02X22415500Y24916500I-7045J7097D01*
G03X22390800Y24857000I784J-35202D01*
G02X22393600Y24850100I-7191J-6936D01*
G01Y24763400D01*
G03X22396500Y24756400I10000J42D01*
G01X22474400Y24678500D01*
G02X22477300Y24671500I-7100J-7042D01*
G01Y24371200D01*
G02X22474500Y24364300I-9991J36D01*
G03X22525500I25500J-24300D01*
G02X22522700Y24371200I7191J6936D01*
G01Y24690300D01*
G03X22519800Y24697300I-10000J-42D01*
G01X22441900Y24775200D01*
G02X22439000Y24782200I7100J7042D01*
G01Y24850100D01*
G02X22441800Y24857000I9992J-36D01*
G03X22451500Y24880500I-25502J24278D01*
G01X22451600Y24882500D01*
X22453000Y24885900D01*
X22488600Y24921500D01*
G02X22495600Y24924400I7042J-7100D01*
G01X23491100D01*
G02X23501100Y24914400I0J-10000D01*
G01Y24914300D01*
G02X23493000Y24904500I-10000J18D01*
G03X23475700Y24895500I6964J-34513D01*
G02X23468800Y24892700I-6936J7191D01*
G01X23123700D01*
G03X23116700Y24889800I42J-10000D01*
G01X23053200Y24826300D01*
G03X23050300Y24819300I7100J-7042D01*
G01Y24321200D01*
G02X23047500Y24314300I-9991J36D01*
G03X23069500Y24255000I25492J-24273D01*
G01X23071500Y24254800D01*
X23074900Y24253000D01*
X23086500Y24238900D01*
X23087600Y24235200D01*
X23087400Y24233200D01*
G03X23135500Y24197300I35067J-3189D01*
G01X23137300Y24198000D01*
X23139300D01*
G02X23149300Y24188000I0J-10000D01*
G01Y24176200D01*
G02X23146500Y24169300I-9992J37D01*
G03X23185800Y24112600I25468J-24318D01*
G01X23187700Y24113400D01*
X23189800D01*
G02X23199800Y24103400I0J-10000D01*
G01Y24099200D01*
X23198400Y24095800D01*
X23197000Y24094300D01*
G03X23239200Y24039000I25466J-24319D01*
G01X23240800Y24039900D01*
X23244200Y24040300D01*
X23258700Y24037300D01*
G02X23264600Y24033600I-2049J-9822D01*
G01Y24033500D01*
G03X23277200Y24023300I27857J21530D01*
G01X23279800Y24022100D01*
X23282900Y24017200D01*
Y24014200D01*
G02X23272900Y24004200I-10000J0D01*
G01X23051200D01*
G02X23044300Y24007000I36J9991D01*
G03X23020200Y24016700I-24269J-25508D01*
G02X23013100Y24019700I33J9981D01*
G01X23003100Y24029700D01*
G02X23000200Y24036700I7096J7040D01*
G01Y24104500D01*
G02X23002800Y24111300I10016J67D01*
G01X23006900Y24115700D01*
G02X23012600Y24118800I7369J-6759D01*
G03X22971300Y24154300I-6096J34682D01*
G01X22971200Y24152300D01*
X22969800Y24148900D01*
X22965300Y24144400D01*
G02X22954400Y24142200I-7098J7066D01*
G01Y24142300D01*
G02X22948200Y24151500I3785J9240D01*
G01Y24448800D01*
G03X22945300Y24455800I-10000J-42D01*
G01X22601300Y24799800D01*
G03X22594300Y24802700I-7042J-7100D01*
G01X22551200D01*
G02X22544300Y24805500I36J9991D01*
G03Y24754500I-24300J-25500D01*
G02X22551200Y24757300I6936J-7191D01*
G01X22575500D01*
G02X22582500Y24754400I-42J-10000D01*
G01X22899900Y24437000D01*
G02X22902800Y24430000I-7100J-7042D01*
G01Y23728700D01*
G03X22905700Y23721700I10000J42D01*
G01X22917900Y23709500D01*
G02X22920800Y23702500I-7100J-7042D01*
G01Y23326700D01*
G02X22917900Y23319700I-10000J42D01*
G01X22908200Y23310000D01*
G03X22905300Y23303000I7100J-7042D01*
G01Y23301000D01*
G02X22899100Y23291800I-9985J40D01*
G01Y23291700D01*
G02X22888200Y23293900I-3802J9266D01*
G01X22865600Y23316500D01*
G02X22862700Y23323500I7100J7042D01*
G01Y24371800D01*
G03X22859800Y24378800I-10000J-42D01*
G01X22682100Y24556500D01*
G02X22679200Y24563300I7097J7045D01*
G03X22643200Y24527300I-35200J-800D01*
G01X22645200Y24527200D01*
X22648600Y24525800D01*
X22814400Y24360000D01*
G02X22817300Y24353000I-7100J-7042D01*
G01Y23304700D01*
G03X22820200Y23297700I10000J42D01*
G01X22840600Y23277300D01*
G02X22842100Y23265200I-7117J-7025D01*
G03X22897000Y23222200I30420J-17708D01*
G02X22902200Y23224900I7011J-7144D01*
G01X22908100Y23225900D01*
G02X22913900Y23225200I1756J-9826D01*
G03X22957100Y23277400I14155J32261D01*
G02X22955400Y23283500I8269J5591D01*
G01X22955600Y23289500D01*
G02X22958500Y23296100I9999J-456D01*
G01X22963300Y23300900D01*
G03X22966200Y23307900I-7100J7042D01*
G01Y23360500D01*
G02X22972400Y23369700I9985J-40D01*
G01Y23369800D01*
G02X22983300Y23367600I3802J-9266D01*
G01X23035700Y23315200D01*
G03X23042700Y23312300I7042J7100D01*
G01X23590500D01*
G02X23597500Y23309400I-42J-10000D01*
G01X23726400Y23180500D01*
G02X23729300Y23173500I-7100J-7042D01*
G01Y22626700D01*
G03X23732200Y22619700I10000J42D01*
G01X24226700Y22125200D01*
G03X24233700Y22122300I7042J7100D01*
G01X24278500D01*
G02X24285500Y22119400I-42J-10000D01*
G01X24374400Y22030500D01*
G02X24377300Y22023500I-7100J-7042D01*
G01Y21898500D01*
G02X24374400Y21891500I-10000J42D01*
G01X24358500Y21875600D01*
G02X24351500Y21872700I-7042J7100D01*
G01X24250700D01*
G03X24243700Y21869800I42J-10000D01*
G01X24200200Y21826300D01*
G03X24197300Y21819300I7100J-7042D01*
G01Y21641200D01*
G02X24194500Y21634300I-9992J37D01*
G03X24188300Y21594600I25483J-24314D01*
G01X24188800Y21593600D01*
X24189300Y21591500D01*
Y21590200D01*
G02X24179300Y21580200I-10000J0D01*
G01X24169400D01*
X24167100Y21580800D01*
X24166100Y21581300D01*
G03X24159700Y21583900I-16392J-31172D01*
G02X24155200Y21586500I2581J9661D01*
G01X24137100Y21604600D01*
G02X24134200Y21611600I7100J7042D01*
G01Y21902400D01*
G02X24137100Y21909400I10000J-42D01*
G01X24194600Y21966900D01*
G02X24201600Y21969800I7042J-7100D01*
G01X24295600D01*
X24297900Y21969200D01*
X24298900Y21968700D01*
G03Y22031300I16100J31300D01*
G01X24297900Y22030800D01*
X24295600Y22030200D01*
X24176600D01*
G03X24169600Y22027300I42J-10000D01*
G01X24076700Y21934400D01*
G03X24073800Y21927400I7100J-7042D01*
G01Y21586600D01*
G03X24076700Y21579600I10000J42D01*
G01X24116100Y21540200D01*
X24116900Y21538100D01*
G03X24166100Y21518700I33117J11901D01*
G01X24167100Y21519200D01*
X24169400Y21519800D01*
X24826400D01*
G02X24833400Y21516900I-42J-10000D01*
G01X24954900Y21395400D01*
G02X24957800Y21388400I-7100J-7042D01*
G01Y21223600D01*
G03X24960700Y21216600I10000J42D01*
G01X25064600Y21112700D01*
G03X25071600Y21109800I7042J7100D01*
G01X25110900D01*
G02X25120100Y21103700I-8J-10000D01*
G03X25280000Y21073800I89904J38284D01*
G02X25287100Y21076800I7141J-6999D01*
G01X25388900D01*
G03X25395900Y21079700I-42J10000D01*
G01X25670300Y21354100D01*
G03X25673200Y21361100I-7100J7042D01*
G01Y24528900D01*
G03X25670300Y24535900I-10000J-42D01*
G01X25480100Y24726100D01*
G02X25477200Y24733100I7100J7042D01*
G01Y24892900D01*
G02X25482200Y24901600I10000J40D01*
G01X25497300Y24910300D01*
G02X25507200Y24910400I5038J-8619D01*
G03X25585100Y24919400I32827J57498D01*
G01X25587000Y24921200D01*
X25591800Y24922400D01*
X25613300Y24916900D01*
X25617000Y24913400D01*
X25617800Y24911000D01*
G03X25710800Y24738800I528193J174048D01*
G02X25809900Y24455100I-356829J-283803D01*
G01Y20270000D01*
G02X25799900Y20260000I-10000J0D01*
G01X20070100D01*
G02X20060100Y20270000I0J10000D01*
G01Y24455100D01*
G02X20159200Y24738800I455929J-103D01*
G03X20250300Y24905400I-435225J346197D01*
G01Y24905500D01*
G02X20256400Y24911600I9438J-3338D01*
G01X20271300Y24916900D01*
G02X20279900Y24916000I3360J-9430D01*
G01X20280000Y24915900D01*
G03X20303200Y25037200I35010J56173D01*
G01X20303000D01*
G02X20294700Y25039500I-1738J9854D01*
G01X20282800Y25049900D01*
G02X20279400Y25057900I6601J7528D01*
G01Y25058000D01*
G03X20279200Y25116000I-555437J27085D01*
G01Y25116300D01*
G02X20282600Y25124100I9972J294D01*
G01X20294500Y25134700D01*
G02X20302900Y25137000I6575J-7522D01*
G01X20303000D01*
G03X20279000Y25257700I11981J65118D01*
G01X20277000Y25256400D01*
X20272500Y25255800D01*
X20255300Y25261800D01*
G02X20249200Y25267700I3227J9440D01*
G01X20249100Y25267900D01*
G03X20159200Y25431200I-525209J-182743D01*
G02X20077000Y25592200I356887J283696D01*
G01X20076600Y25593600D01*
Y25601000D01*
G03X20076400Y25603000I-10000J10D01*
G01X20070100Y25634500D01*
G02X20070000Y25635500I9851J1490D01*
G01X20060000Y25734500D01*
G02Y25735500I10000J500D01*
G01X20060100Y27683300D01*
G02X20065500Y27692200I10006J17D01*
G01X20084000Y27701700D01*
X20089600Y27701200D01*
X20091800Y27699600D01*
G03Y27750400I18200J25400D01*
G01X20089600Y27748800D01*
X20084000Y27748300D01*
X20065500Y27757800D01*
G02X20060100Y27766700I4606J8883D01*
G01Y29122000D01*
G02X20066600Y29131300I9989J-60D01*
G01X20087200Y29139100D01*
X20093300Y29137500D01*
X20095300Y29135100D01*
G03X20353100Y29447400I154645J134898D01*
G01X20353000D01*
G02X20348400Y29458700I5060J8646D01*
G01X20353500Y29477500D01*
G02X20363200Y29484900I9655J-2599D01*
G01X20649900D01*
G02X20659900Y29474900I0J-10000D01*
G01Y29370700D01*
X20665700Y29364900D01*
X20667100D01*
X20672600Y29354300D01*
G02X20672300Y29344500I-8867J-4633D01*
G03X20659800Y29300200I72724J-44434D01*
G01Y29230000D01*
G03X20688500Y29166200I85264J0D01*
G01X20690000Y29164900D01*
X20691700Y29161600D01*
X20693200Y29146000D01*
G02X20691300Y29139000I-9944J-1059D01*
G01X20691200Y29138900D01*
G03X20695000Y29096900I24803J-18928D01*
G02X20698300Y29089700I-6694J-7424D01*
G01X20698700Y29075200D01*
G02X20695800Y29067900I-10001J-253D01*
G01X20620200Y28992300D01*
G03X20617300Y28985300I7100J-7042D01*
G01Y28891200D01*
G02X20614500Y28884300I-9989J35D01*
G03X20655900Y28828700I25532J-24202D01*
G01X20656100D01*
X20656200Y28828800D01*
G02X20665800Y28828300I4344J-9000D01*
G01X20680500Y28819300D01*
G02X20685300Y28810800I-5190J-8536D01*
G01Y28763500D01*
G02X20682400Y28756500I-10000J42D01*
G01X20673300Y28747400D01*
Y28747200D01*
X20670500Y28744300D01*
G03X20714100Y28689800I25463J-24319D01*
G01X20714200D01*
G02X20719200Y28691200I5099J-8583D01*
G01X20719300D01*
G02X20729300Y28681200I0J-10000D01*
G01Y28676200D01*
G02X20726500Y28669300I-9991J36D01*
G03X20777500I25500J-24300D01*
G02X20774700Y28676200I7191J6936D01*
G01Y28793900D01*
G02X20784700Y28803900I10000J0D01*
G01X20784800D01*
G02X20790800Y28801900I0J-10000D01*
G03X20797400Y28798000I21096J28167D01*
G01X20799100Y28797200D01*
X20890900Y28705400D01*
G02X20893800Y28698400I-7100J-7042D01*
G01Y28611300D01*
X20893300Y28609700D01*
G03X20936000Y28549800I42700J-14731D01*
G01X21185200D01*
G02X21192200Y28546900I-42J-10000D01*
G01X21247900Y28491200D01*
G02X21250800Y28484200I-7100J-7042D01*
G01Y28334200D01*
X21250600Y28333200D01*
G03X21249600Y28323800I44194J-9455D01*
G01Y28120500D01*
G03X21260600Y28090900I45325J0D01*
G01X21262500Y28088700D01*
X21263400Y28082900D01*
X21254600Y28063600D01*
G02X21245500Y28057700I-9125J4106D01*
G01X21216500D01*
G02X21209500Y28060600I42J10000D01*
G01X21040300Y28229800D01*
G03X21033300Y28232700I-7042J-7100D01*
G01X20738500D01*
G02X20731500Y28235600I42J10000D01*
G01X20713100Y28254000D01*
G02X20710200Y28260800I7097J7045D01*
G03X20674200Y28224800I-35200J-800D01*
G01X20676200Y28224700D01*
X20679600Y28223300D01*
X20712700Y28190200D01*
G03X20719700Y28187300I7042J7100D01*
G01X21014500D01*
G02X21021500Y28184400I-42J-10000D01*
G01X21190700Y28015200D01*
G03X21197700Y28012300I7042J7100D01*
G01X21381300D01*
G03X21388300Y28015200I-42J10000D01*
G01X21427800Y28054700D01*
G03X21430700Y28061700I-7100J7042D01*
G01Y28204500D01*
G02X21433600Y28211500I10000J-42D01*
G01X21444000Y28221900D01*
G02X21450800Y28224800I7045J-7097D01*
G03X21485200Y28259800I-803J35194D01*
G02X21488200Y28266900I9981J-33D01*
G01X21498200Y28276900D01*
G02X21505200Y28279800I7040J-7096D01*
G01X21514600D01*
G03X21521600Y28282700I-42J10000D01*
G01X21637700Y28398800D01*
G02X21648600Y28401000I7098J-7066D01*
G01Y28400900D01*
G02X21654800Y28391700I-3785J-9240D01*
G01Y28153000D01*
G02X21649100Y28144000I-9992J23D01*
G01X21630100Y28134900D01*
X21624400Y28135600D01*
X21622100Y28137400D01*
G03X21568700Y28093900I-22098J-27399D01*
G01X21569200Y28092900D01*
X21569800Y28090600D01*
Y27985200D01*
G02X21559800Y27975200I-10000J0D01*
G01X20670200D01*
G02X20660200Y27985200I0J10000D01*
G01Y28097900D01*
X20660800Y28100200D01*
X20661300Y28101200D01*
G03X20598700I-31300J16100D01*
G01X20599200Y28100200D01*
X20599800Y28097900D01*
Y27985200D01*
G02X20589800Y27975200I-10000J0D01*
G01X20437400D01*
G03X20430400Y27972300I42J-10000D01*
G01X20349600Y27891500D01*
G02X20342600Y27888600I-7042J7100D01*
G01X20295200D01*
G02X20288200Y27891500I42J10000D01*
G01X20220600Y27959100D01*
G02X20217700Y27966100I7100J7042D01*
G01Y28009000D01*
G02X20222200Y28017400I10007J44D01*
G01X20236200Y28026700D01*
G02X20245600Y28027500I5448J-8394D01*
G01X20245700D01*
G03X20246000Y28158600I27849J65487D01*
G01X20245800D01*
X20244200Y28157900D01*
X20240600Y28157800D01*
X20224400Y28163400D01*
X20221500Y28165800D01*
X20220700Y28167300D01*
G03X20156700Y28138500I-30749J-17180D01*
G01X20157300Y28136900D01*
Y27941100D01*
G03X20160200Y27934100I10000J42D01*
G01X20263200Y27831100D01*
G03X20270200Y27828200I7042J7100D01*
G01X20325200D01*
G02X20335200Y27818200I0J-10000D01*
G01Y27617500D01*
G02X20325200Y27607500I-10000J0D01*
G01X20228000D01*
G03Y27517100I0J-45200D01*
G01X20325200D01*
G02X20335200Y27507100I0J-10000D01*
G01Y27195200D01*
G02X20325200Y27185200I-10000J0D01*
G01X20248600D01*
G02X20241600Y27188100I42J10000D01*
G01X20226000Y27203700D01*
X20224600Y27208100D01*
X20224900Y27210400D01*
G03X20158700Y27198900I-34898J4600D01*
G01X20159200Y27197900D01*
X20159800Y27195600D01*
Y27188600D01*
G03X20162700Y27181600I10000J42D01*
G01X20216600Y27127700D01*
G03X20223600Y27124800I7042J7100D01*
G01X20325200D01*
G02X20335200Y27114800I0J-10000D01*
G01Y26535000D01*
G03X20338100Y26528000I10000J42D01*
G01X20502900Y26363200D01*
G03X20509900Y26360300I7042J7100D01*
G01X20564800D01*
G02X20574800Y26350300I0J-10000D01*
G01Y26210000D01*
G03X20665200I45200J0D01*
G01Y26307200D01*
G02X20668100Y26314200I10000J-42D01*
G01X20720800Y26366900D01*
G02X20727800Y26369800I7042J-7100D01*
G01X20844800D01*
G02X20854800Y26359800I0J-10000D01*
G01Y26109400D01*
X20854200Y26107100D01*
X20853700Y26106100D01*
G03X20916300I31300J-16100D01*
G01X20915800Y26107100D01*
X20915200Y26109400D01*
Y26240700D01*
G02X20920900Y26249700I9989J-21D01*
G01X20937200Y26257600D01*
G02X20947800Y26256400I4346J-9024D01*
G01X20947900Y26256300D01*
G03X20961200Y26249700I21947J27525D01*
G02X20968800Y26240000I-2400J-9708D01*
G01Y26054700D01*
G02X20966000Y26047800I-9991J36D01*
G03X21017000I25500J-24300D01*
G02X21014200Y26054700I7191J6936D01*
G01Y26268800D01*
G03X21011300Y26275800I-10000J-42D01*
G01X21007900Y26279200D01*
G02X21005000Y26285500I7075J7074D01*
G01Y26285700D01*
G03X20947900Y26311300I-35138J-1895D01*
G01X20947800Y26311200D01*
G02X20937200Y26310000I-6254J7824D01*
G01X20920900Y26317900D01*
G02X20915200Y26326900I4289J9021D01*
G01Y26359800D01*
G02X20925200Y26369800I10000J0D01*
G01X21089800D01*
G02X21099800Y26359800I0J-10000D01*
G01Y26303200D01*
X21099200Y26300900D01*
X21098700Y26299900D01*
G03X21161300I31300J-16100D01*
G01X21160800Y26300900D01*
X21160200Y26303200D01*
Y26359800D01*
G02X21170200Y26369800I10000J0D01*
G01X21534800D01*
G02X21544800Y26359800I0J-10000D01*
G01Y26199400D01*
X21544200Y26197100D01*
X21543700Y26196100D01*
G03X21606300I31300J-16100D01*
G01X21605800Y26197100D01*
X21605200Y26199400D01*
Y26359800D01*
G02X21615200Y26369800I10000J0D01*
G01X21704800D01*
G02X21714800Y26359800I0J-10000D01*
G01Y26306400D01*
G03X21717700Y26299400I10000J42D01*
G01X21780900Y26236200D01*
G03X21787900Y26233300I7042J7100D01*
G01X22131300D01*
G02X22141000Y26225900I44J-10000D01*
G03X22148800Y26211400I34057J8973D01*
G01X22150200Y26209900D01*
X22151500Y26206100D01*
X22150300Y26187500D01*
X22148400Y26183900D01*
X22146800Y26182600D01*
G03X22152000Y26125000I22596J-26995D01*
G02X22157100Y26116300I-4900J-8717D01*
G01Y26112000D01*
X22151300Y26106200D01*
X22147400D01*
X22146400Y26105200D01*
X21722100D01*
G03X21715100Y26102300I42J-10000D01*
G01X21592000Y25979200D01*
G03X21589100Y25972200I7100J-7042D01*
G01Y25793100D01*
G02X21586100Y25786000I-9999J41D01*
G03X21742300Y25758500I68200J-69984D01*
G01X21741300Y25760600D01*
Y25765200D01*
X21750600Y25783700D01*
X21754400Y25786500D01*
X21756600Y25786900D01*
G03X21774300Y25796000I-6595J34592D01*
G02X21781200Y25798800I6937J-7193D01*
G01X21808600D01*
G02X21817400Y25793600I21J-10011D01*
G01X21825900Y25778100D01*
G02X21825600Y25768000I-8778J-4794D01*
G03X21991000I82700J-52000D01*
G02X21990700Y25778100I8478J5306D01*
G01X21999200Y25793600D01*
G02X22008000Y25798800I8779J-4811D01*
G01X22062600D01*
G02X22071400Y25793600I21J-10011D01*
G01X22079900Y25778100D01*
G02X22079600Y25768000I-8778J-4794D01*
G03X22245000I82700J-52000D01*
G02X22244700Y25778100I8478J5306D01*
G01X22253200Y25793600D01*
G02X22262000Y25798800I8779J-4811D01*
G01X22316600D01*
G02X22325400Y25793600I21J-10011D01*
G01X22333900Y25778100D01*
G02X22333600Y25768000I-8778J-4794D01*
G03X22460400Y25803200I82719J-51993D01*
G01X22458200Y25804300D01*
X22455500Y25808100D01*
X22452500Y25826700D01*
G02X22455300Y25835300I9881J1539D01*
G01X22464400Y25844400D01*
G02X22471400Y25847300I7042J-7100D01*
G01X22513400D01*
G02X22521800Y25842800I38J-10020D01*
G01X22531000Y25828500D01*
G02X22531800Y25819200I-8386J-5406D01*
G01Y25819100D01*
G03X22559900Y25770000I32229J-14146D01*
G01X22562100Y25769800D01*
X22565800Y25767500D01*
X22575600Y25752600D01*
G02X22576800Y25744400I-8394J-5416D01*
G01Y25744300D01*
G03X22749100Y25773800I93519J-28291D01*
G02X22748200Y25784300I8015J5976D01*
G01X22756300Y25800300D01*
G02X22765200Y25805800I8932J-4503D01*
G01X22829400D01*
G02X22838300Y25800300I-32J-10003D01*
G01X22846400Y25784300D01*
G02X22845500Y25773800I-8915J-4524D01*
G03X22969100Y25629200I78783J-57783D01*
G02X22980800Y25627400I4627J-8850D01*
G01X23036800Y25571400D01*
G03X23043800Y25568500I7042J7100D01*
G01X23098300D01*
G02X23107600Y25562100I-29J-10000D01*
G01X23115600Y25541700D01*
X23114200Y25535800D01*
X23111900Y25533700D01*
G03X23244700I66400J-71700D01*
G01X23242400Y25535800D01*
X23241000Y25541700D01*
X23249000Y25562100D01*
G02X23258300Y25568500I9329J-3600D01*
G01X23352300D01*
G02X23361600Y25562100I-29J-10000D01*
G01X23369600Y25541700D01*
X23368200Y25535800D01*
X23365900Y25533700D01*
G03X23498700I66400J-71700D01*
G01X23496400Y25535800D01*
X23495000Y25541700D01*
X23503000Y25562100D01*
G02X23512300Y25568500I9329J-3600D01*
G01X23606300D01*
G02X23615600Y25562100I-29J-10000D01*
G01X23623600Y25541700D01*
X23622200Y25535800D01*
X23619900Y25533700D01*
G03X23752700I66400J-71700D01*
G01X23750400Y25535800D01*
X23749000Y25541700D01*
X23757000Y25562100D01*
G02X23766300Y25568500I9329J-3600D01*
G01X23899100D01*
G03X23906100Y25571400I-42J10000D01*
G01X23939100Y25604400D01*
G02X23946100Y25607300I7042J-7100D01*
G01X24394000D01*
G03X24401000Y25610200I-42J10000D01*
G01X24410300Y25619500D01*
G02X24416900Y25622400I7056J-7099D01*
G01X24422900Y25622600D01*
G02X24429000Y25620900I509J-9968D01*
G03X24479200Y25668000I19914J29078D01*
G02X24480800Y25680300I8565J5140D01*
G01X24481800Y25681300D01*
G02X24495900Y25681200I7000J-7143D01*
G01X24503400Y25673700D01*
G03X24510400Y25670800I7042J7100D01*
G01X24897500D01*
G02X24906100Y25665900I4J-9989D01*
G03X25060000Y25647800I83905J50085D01*
G02X25067100Y25650800I7141J-6999D01*
G01X25157900D01*
G03X25164900Y25653700I-42J10000D01*
G01X25408300Y25897100D01*
G03X25411200Y25904100I-7100J7042D01*
G01Y26079800D01*
G02X25421200Y26089800I10000J0D01*
G01X25473900D01*
G03X25480900Y26092700I-42J10000D01*
G01X25563300Y26175100D01*
G03X25566200Y26182100I-7100J7042D01*
G01Y26289800D01*
G02X25576200Y26299800I10000J0D01*
G01X25585000D01*
G03X25617600Y26376300I0J45196D01*
G02X25614800Y26382900I7185J6942D01*
G01X25614300Y26396400D01*
G02X25616500Y26403000I10008J331D01*
G01X25616600Y26403100D01*
G03X25567400Y26452900I-27161J22370D01*
G01X25566100Y26451800D01*
X25562900Y26450700D01*
X25471200D01*
G03X25464200Y26447800I42J-10000D01*
G01X25424500Y26408100D01*
G02X25417500Y26405200I-7042J7100D01*
G01X25289700D01*
G03X25282700Y26402300I42J-10000D01*
G01X25233500Y26353100D01*
G02X25226500Y26350200I-7042J7100D01*
G01X25191600D01*
G02X25182400Y26356400I40J9985D01*
G01X25182300D01*
G02X25184500Y26367300I9266J3802D01*
G01X25262300Y26445100D01*
G03X25265200Y26452100I-7100J7042D01*
G01Y26579800D01*
G02X25275200Y26589800I10000J0D01*
G01X25438900D01*
G03X25445900Y26592700I-42J10000D01*
G01X25578300Y26725100D01*
G03X25581200Y26732100I-7100J7042D01*
G01Y27095000D01*
G03X25450800I-65200J0D01*
G01Y26786100D01*
G02X25447900Y26779100I-10000J42D01*
G01X25391900Y26723100D01*
G02X25384900Y26720200I-7042J7100D01*
G01X25200000D01*
G03X25134800Y26655000I0J-65200D01*
G01Y26506100D01*
G02X25131900Y26499100I-10000J42D01*
G01X25088900Y26456100D01*
G03X25086800Y26366100I46102J-46100D01*
G02X25089400Y26359600I-7404J-6732D01*
G01X25089500Y26353100D01*
G02X25087400Y26346700I-10005J-262D01*
G03X25086600Y26304200I27616J-21777D01*
G01X25087600Y26302800D01*
X25088500Y26299700D01*
X25088000Y26285500D01*
G02X25085600Y26279400I-9962J397D01*
G01Y26279300D01*
G03X25075800Y26240500I34394J-29325D01*
G01Y26240400D01*
G02X25073700Y26232000I-9776J-2018D01*
G01X25063700Y26219800D01*
G02X25055800Y26216200I-7690J6408D01*
G01X25055700D01*
G03X25025000Y26193500I-681J-31189D01*
G01X25024700Y26192300D01*
X25023400Y26190100D01*
X25022400Y26189100D01*
G02X25008300I-7050J7099D01*
G01X25008100Y26189300D01*
G02X25005200Y26196300I7100J7042D01*
G01Y26599900D01*
G02X25008100Y26606900I10000J-42D01*
G01X25390300Y26989100D01*
G03X25393200Y26996100I-7100J7042D01*
G01Y27202900D01*
G03X25390300Y27209900I-10000J-42D01*
G01X25317900Y27282300D01*
G03X25310900Y27285200I-7042J-7100D01*
G01X25071300D01*
G02X25064300Y27288100I42J10000D01*
G01X24995100Y27357300D01*
G03X24988100Y27360200I-7042J-7100D01*
G01X24299100D01*
G02X24292100Y27363100I42J10000D01*
G01X24056100Y27599100D01*
G02X24053200Y27606100I7100J7042D01*
G01Y27653000D01*
G02X24058100Y27661600I10004J-4D01*
G01X24073100Y27670400D01*
G02X24083000Y27670600I5126J-8597D01*
G01X24083100Y27670500D01*
G03X24105000Y27664800I21968J39482D01*
G01X24197600D01*
G03X24204600Y27667700I-42J10000D01*
G01X24339100Y27802200D01*
G02X24346100Y27805100I7042J-7100D01*
G01X24526200D01*
G02X24533000Y27802500I70J-10010D01*
G01X24544400Y27792000D01*
X24546100Y27788700D01*
X24546200Y27786800D01*
G03X24616400I35100J3200D01*
G01X24616500Y27788700D01*
X24618200Y27792000D01*
X24629600Y27802500D01*
G02X24636400Y27805100I6730J-7410D01*
G01X24746900D01*
G02X24753900Y27802200I-42J-10000D01*
G01X24838400Y27717700D01*
G03X24845400Y27714800I7042J7100D01*
G01X25265600D01*
G03X25272600Y27717700I-42J10000D01*
G01X25356800Y27801900D01*
G02X25363800Y27804800I7042J-7100D01*
G01X25597200D01*
G02X25604200Y27801900I-43J-10001D01*
G01X25668000Y27738000D01*
G03X25732000Y27802000I32000J32000D01*
G01X25641600Y27892300D01*
G03X25634600Y27895200I-7042J-7099D01*
G01X25340000D01*
G03X25303400Y27876500I0J-45167D01*
G01X25302900Y27875800D01*
X25235200Y27808100D01*
G02X25228200Y27805200I-7042J7100D01*
G01X24882800D01*
G02X24875800Y27808100I42J10000D01*
G01X24791300Y27892600D01*
G03X24784300Y27895500I-7042J-7100D01*
G01X24308700D01*
G03X24301700Y27892600I42J-10000D01*
G01X24167200Y27758100D01*
G02X24160200Y27755200I-7042J7100D01*
G01X24105000D01*
G03X24083100Y27749500I68J-45182D01*
G01X24083000Y27749400D01*
G02X24073100Y27749600I-4774J8797D01*
G01X24058100Y27758400D01*
G02X24053200Y27767000I5104J8604D01*
G01Y27797900D01*
G02X24056100Y27804900I10000J-42D01*
G01X24086300Y27835100D01*
G03X24089200Y27842100I-7100J7042D01*
G01Y28551900D01*
G03X24086300Y28558900I-10000J-42D01*
G01X23912900Y28732300D01*
G03X23905900Y28735200I-7042J-7100D01*
G01X23425100D01*
G03X23418100Y28732300I42J-10000D01*
G01X23287500Y28601700D01*
X23283900Y28600200D01*
X23282000D01*
X23108300Y28426500D01*
X23106800Y28425800D01*
G03X23069800Y28367000I28222J-58800D01*
G01Y28275000D01*
G03X23200200I65200J0D01*
G01Y28329900D01*
G02X23203100Y28336900I10000J-42D01*
G01X23334500Y28468300D01*
X23338100Y28469800D01*
X23340000D01*
X23472100Y28601900D01*
G02X23479100Y28604800I7042J-7100D01*
G01X23851900D01*
G02X23858900Y28601900I-42J-10000D01*
G01X23955900Y28504900D01*
G02X23958800Y28497900I-7100J-7042D01*
G01Y27896100D01*
G02X23955900Y27889100I-10000J42D01*
G01X23925700Y27858900D01*
G03X23922800Y27851900I7100J-7042D01*
G01Y27552100D01*
G03X23925700Y27545100I10000J42D01*
G01X24238100Y27232700D01*
G03X24245100Y27229800I7042J7100D01*
G01X24934100D01*
G02X24941100Y27226900I-42J-10000D01*
G01X25010300Y27157700D01*
G03X25017300Y27154800I7042J7100D01*
G01X25258900D01*
X25262500Y27153300D01*
X25262800Y27153000D01*
Y27050100D01*
G02X25259900Y27043100I-10000J42D01*
G01X24877700Y26660900D01*
G03X24874800Y26653900I7100J-7042D01*
G01Y26142300D01*
G03X24877700Y26135300I10000J42D01*
G01X24921900Y26091100D01*
G02X24924800Y26084100I-7100J-7042D01*
G01Y26047100D01*
G02X24921800Y26040000I-9999J41D01*
G03X25058200I68200J-70000D01*
G02X25055200Y26047100I6999J7141D01*
G01Y26145100D01*
G02X25062700Y26154800I10009J11D01*
G01X25062800D01*
G03X25083400Y26197900I-7803J30203D01*
G02X25097600Y26210800I9157J4186D01*
G03X25109100Y26206200I22365J39237D01*
G02X25116600Y26197600I-2453J-9709D01*
G03X25135300Y26158500I64817J6977D01*
G01X25201100Y26092700D01*
G03X25208100Y26089800I7042J7100D01*
G01X25270800D01*
G02X25280800Y26079800I0J-10000D01*
G01Y25958100D01*
G02X25277900Y25951100I-10000J42D01*
G01X25110900Y25784100D01*
G02X25103900Y25781200I-7042J7100D01*
G01X25067100D01*
G02X25060000Y25784200I41J9999D01*
G03X24906100Y25766100I-69995J-68185D01*
G02X24897500Y25761200I-8596J5089D01*
G01X24547800D01*
G02X24540800Y25764100I42J10000D01*
G01X24484100Y25820800D01*
G02X24481200Y25827800I7100J7042D01*
G01Y26157300D01*
G02X24484100Y26164300I10000J-42D01*
G01X24618200Y26298400D01*
G03X24621100Y26305400I-7100J7042D01*
G01Y26434100D01*
G03X24530700I-45200J0D01*
G01Y26342800D01*
G02X24527800Y26335800I-10000J42D01*
G01X24435100Y26243100D01*
G02X24428100Y26240200I-7042J7100D01*
G01X23903900D01*
G02X23896800Y26243200I34J9982D01*
G01X23888000Y26252000D01*
G03X23810800Y26221400I-31995J-31963D01*
G02X23807900Y26214600I-9997J245D01*
G01X23738900Y26145600D01*
G02X23731900Y26142700I-7042J7100D01*
G01X23711400D01*
G02X23703600Y26146500I46J9999D01*
G01X23693800Y26158800D01*
G02X23692000Y26167500I7897J6170D01*
G03X23693200Y26178000I-44017J10349D01*
G01Y26336200D01*
G02X23696100Y26343200I10000J-42D01*
G01X23819800Y26466900D01*
G02X23826800Y26469800I7042J-7100D01*
G01X24259600D01*
G03X24266600Y26472700I-42J10000D01*
G01X24355800Y26561900D01*
G02X24362800Y26564800I7042J-7100D01*
G01X24613200D01*
G02X24620200Y26561900I-42J-10000D01*
G01X24647900Y26534200D01*
G02X24650800Y26527200I-7100J-7042D01*
G01Y26075000D01*
G03X24651300Y26068500I45184J206D01*
G01Y26068400D01*
G02X24649500Y26061100I-9892J-1433D01*
G01X24640000Y26048100D01*
X24636700Y26046100D01*
X24634800Y26045800D01*
G03X24671000Y26011800I5167J-30769D01*
G01Y26012100D01*
G02X24674500Y26018500I9926J-1271D01*
G01X24685400Y26027600D01*
G02X24692500Y26029900I6407J-7671D01*
G01X24692600D01*
G03X24741200Y26075000I3374J45100D01*
G01Y26364900D01*
G02X24743800Y26371700I10006J71D01*
G01X24752900Y26381800D01*
G02X24759300Y26385000I7386J-6771D01*
G01X24759400D01*
G03Y26455000I-3400J35000D01*
G01X24759300D01*
G02X24752900Y26458200I986J9971D01*
G01X24743800Y26468300D01*
G02X24741200Y26475100I7406J6729D01*
G01Y26564600D01*
G03X24738300Y26571600I-10000J-42D01*
G01X24657600Y26652300D01*
G03X24650600Y26655200I-7042J-7100D01*
G01X24325400D01*
G03X24318400Y26652300I42J-10000D01*
G01X24229200Y26563100D01*
G02X24222200Y26560200I-7042J7100D01*
G01X23789400D01*
G03X23782400Y26557300I42J-10000D01*
G01X23605700Y26380600D01*
G03X23602800Y26373600I7100J-7042D01*
G01Y26301200D01*
G02X23592800Y26291200I-10000J0D01*
G01X23438800D01*
G02X23431800Y26294100I42J10000D01*
G01X23393100Y26332800D01*
G02X23390200Y26339800I7100J7042D01*
G01Y26369900D01*
X23389200Y26370900D01*
Y26415000D01*
G03X23298800I-45200J0D01*
G01Y26333500D01*
X23299800Y26332500D01*
Y26302400D01*
G03X23302700Y26295400I9999J42D01*
G01X23384000Y26214000D01*
G03X23415900Y26200800I31934J32027D01*
G01X23592800D01*
G02X23602800Y26190800I0J-10000D01*
G01Y26178000D01*
G03X23604000Y26167500I45217J-151D01*
G02X23602200Y26158800I-9697J-2530D01*
G01X23592400Y26146500D01*
G02X23584600Y26142700I-7846J6199D01*
G01X23286100D01*
G03X23279100Y26139800I42J-10000D01*
G01X23207400Y26068100D01*
G02X23200400Y26065200I-7042J7100D01*
G01X23074400D01*
X23072100Y26065800D01*
X23071100Y26066300D01*
G03X23068300Y26067600I-16210J-31248D01*
G01X23065900Y26068600D01*
X23062700Y26072300D01*
X23058900Y26091300D01*
G02X23061600Y26100400I9781J2048D01*
G01X23102300Y26141100D01*
G03X23105200Y26148100I-7100J7042D01*
G01Y26564900D01*
X23105900Y26566600D01*
G03X23109200Y26578400I-60891J23390D01*
G02X23113900Y26585200I9818J-1762D01*
G01X23123500Y26591000D01*
G03X23126600Y26590000I11107J29127D01*
G01X23131500Y26580600D01*
G02X23132200Y26573200I-8896J-4575D01*
G03X23194800Y26489900I62600J-18128D01*
G01X23271400D01*
G02X23271900I250J-10000D01*
G03X23275100Y26489800I3636J65087D01*
G01X23390900D01*
G03X23397900Y26492700I-42J10000D01*
G01X23532100Y26626900D01*
G02X23539100Y26629800I7042J-7100D01*
G01X23957900D01*
G03X23964900Y26632700I-42J10000D01*
G01X24104100Y26771900D01*
G02X24111100Y26774800I7042J-7100D01*
G01X24502900D01*
G03X24509900Y26777700I-42J10000D01*
G01X24615500Y26883300D01*
G02X24622500Y26886200I7042J-7100D01*
G01X25056300D01*
G03X25063300Y26889100I-42J10000D01*
G01X25138100Y26963900D01*
G03X25045900Y27056100I-46100J46100D01*
G01X25009300Y27019500D01*
G02X25002300Y27016600I-7042J7100D01*
G01X24568500D01*
G03X24561500Y27013700I42J-10000D01*
G01X24455900Y26908100D01*
G02X24448900Y26905200I-7042J7100D01*
G01X24057100D01*
G03X24050100Y26902300I42J-10000D01*
G01X23910900Y26763100D01*
G02X23903900Y26760200I-7042J7100D01*
G01X23485100D01*
G03X23478100Y26757300I42J-10000D01*
G01X23453100Y26732300D01*
G02X23438900I-7100J7060D01*
G01X23436300Y26734900D01*
X23435700Y26742000D01*
X23437700Y26745000D01*
G03X23445200Y26769900I-37718J24940D01*
G01Y26847400D01*
G03X23442300Y26854400I-10000J-42D01*
G01X23408100Y26888600D01*
G02X23405200Y26895600I7100J7042D01*
G01Y27085600D01*
G03X23402300Y27092600I-10000J-42D01*
G01X23222600Y27272300D01*
G03X23215600Y27275200I-7042J-7100D01*
G01X23095400D01*
G03X23088400Y27272300I41J-9996D01*
G01X23073000Y27257000D01*
G03X23123800Y27183900I31944J-32003D01*
G01X23125800Y27184800D01*
X23178200D01*
G02X23185200Y27181900I-42J-10000D01*
G01X23311900Y27055200D01*
G02X23314800Y27048200I-7100J-7042D01*
G01Y26858200D01*
G03X23317700Y26851200I10000J42D01*
G01X23351900Y26817000D01*
G02X23354800Y26810000I-7100J-7042D01*
G01Y26770000D01*
G03X23398000Y26724800I45246J0D01*
G01X23401000Y26724700D01*
X23405900Y26721200D01*
X23413600Y26701300D01*
G02X23411400Y26690600I-9292J-3666D01*
G01X23343900Y26623100D01*
G02X23336900Y26620200I-7042J7100D01*
G01X23278700D01*
G02X23278200I-250J10000D01*
G03X23275000Y26620300I-3636J-65087D01*
G01X23194800D01*
G03X23185400Y26619600I129J-65190D01*
G01X23185300D01*
G02X23178900Y26620800I-1457J9896D01*
G01X23168200Y26627000D01*
G02X23163900Y26631900I4950J8681D01*
G03X23162300Y26635100I-28671J-12336D01*
G02X23162100Y26635400I8176J5667D01*
G01X23161200Y26637100D01*
X23160800Y26640900D01*
X23165800Y26658700D01*
X23168200Y26661700D01*
X23170100Y26662700D01*
G03X23186200Y26691200I-15085J27319D01*
G02X23189100Y26698700I9983J451D01*
G01Y26698800D01*
G02X23203300I7100J-7065D01*
G01X23205900Y26696200D01*
X23207300Y26693500D01*
X23207500Y26692000D01*
G03X23297200Y26700000I44493J8000D01*
G01Y26728600D01*
G03X23294300Y26735600I-10000J-42D01*
G01X23224100Y26805800D01*
G02X23221200Y26812800I7100J7042D01*
G01Y26938100D01*
G02X23224100Y26945200I10002J57D01*
G01X23257000Y26978000D01*
G03X23193000Y27042000I-32000J32000D01*
G01X23133700Y26982600D01*
G03X23130800Y26975600I7099J-7042D01*
G01Y26775400D01*
G03X23133700Y26768400I9997J41D01*
G01X23150200Y26751800D01*
G02X23152900Y26742700I-7077J-7050D01*
G01X23149600Y26726300D01*
G02X23143400Y26719000I-9797J2038D01*
G03X23127800Y26674900I11641J-28927D01*
G01Y26674700D01*
X23127900D01*
G02X23128700Y26667200I-8827J-4734D01*
G01X23124200Y26651300D01*
X23121800Y26648300D01*
X23119900Y26647300D01*
G03X23112900Y26642100I14938J-27420D01*
G01X23111600Y26640700D01*
X23108200Y26639200D01*
X23092900Y26638400D01*
G02X23086100Y26640600I-525J9986D01*
G03X22998900Y26636100I-41105J-50604D01*
G01X22977700Y26614900D01*
G03X22974800Y26607900I7100J-7042D01*
G01Y26202100D01*
G02X22971900Y26195100I-10000J42D01*
G01X22949900Y26173100D01*
G02X22942600Y26170200I-7044J7094D01*
G01X22928100Y26170500D01*
G02X22920900Y26173800I227J10000D01*
G03X22875100Y26179100I-25959J-23788D01*
G02X22869000Y26177400I-5591J8267D01*
G01X22863000Y26177600D01*
G02X22856400Y26180500I456J9999D01*
G01X22842100Y26194800D01*
G03X22835100Y26197700I-7042J-7100D01*
G01X22618500D01*
G02X22608500Y26207700I0J10000D01*
G01Y26209100D01*
X22608900Y26210500D01*
G03X22609900Y26215600I-33936J9302D01*
G01Y26215800D01*
X22610100Y26217500D01*
X22611800Y26220700D01*
X22623300Y26230800D01*
G02X22629900Y26233300I6612J-7495D01*
G01X22808900D01*
G02X22815400Y26230900I-3J-10010D01*
G03X22877000Y26297000I29533J34230D01*
G01X22853100Y26320800D01*
G03X22846100Y26323700I-7041J-7097D01*
G01X22445100D01*
G02X22437400Y26327400I64J9995D01*
G01X22427500Y26339500D01*
G02X22425500Y26347900I7779J6290D01*
G03X22391800Y26390200I-34488J7098D01*
G01X22389800Y26390300D01*
X22386400Y26391700D01*
X22359800Y26418300D01*
G03X22352800Y26421200I-7042J-7100D01*
G01X21898300D01*
G02X21889100Y26427400I40J9985D01*
G01X21889000D01*
G02X21891200Y26438300I9266J3802D01*
G01X21986300Y26533400D01*
G03X21989200Y26540400I-7100J7042D01*
G01Y26677400D01*
G02X21999200Y26687400I10000J0D01*
G01X22158200D01*
X22160500Y26686800D01*
X22161500Y26686300D01*
G03Y26748900I16100J31300D01*
G01X22160500Y26748400D01*
X22158200Y26747800D01*
X21984200D01*
G02X21976900Y26750900I-57J10011D01*
G03X21898800Y26720000I-32937J-30900D01*
G01Y26577800D01*
G02X21895900Y26570800I-10000J42D01*
G01X21788200Y26463100D01*
G02X21781200Y26460200I-7042J7100D01*
G01X20705000D01*
G03X20679800Y26452400I170J-45158D01*
G01X20679600D01*
Y26452300D01*
G02X20674100Y26450700I-5429J8409D01*
G01X20547300D01*
G02X20540300Y26453600I42J10000D01*
G01X20428500Y26565400D01*
G02X20425600Y26572400I7100J7042D01*
G01Y26724700D01*
G02X20435600Y26734700I10000J0D01*
G01X20488800D01*
G02X20498800Y26724800I0J-10000D01*
G01Y26724700D01*
G03X20506800Y26704200I31185J359D01*
G02X20509200Y26695700I-7437J-6689D01*
G01X20506200Y26679900D01*
G02X20501000Y26672900I-9810J1856D01*
G01X20500900Y26672800D01*
G03X20538200Y26665800I14087J-27813D01*
G02X20535800Y26674300I7437J6689D01*
G01X20538800Y26690100D01*
G02X20544000Y26697100I9810J-1856D01*
G01X20544100Y26697200D01*
G03X20542700Y26753400I-14147J27765D01*
G02X20538000Y26757900I4192J9083D01*
G01X20535000Y26763600D01*
G02X20534100Y26770400I8847J4630D01*
G03X20489900Y26825100I-44200J9492D01*
G01X20435600D01*
G02X20425600Y26835100I0J10000D01*
G01Y27835600D01*
G02X20428500Y27842600I10000J-42D01*
G01X20467800Y27881900D01*
G02X20474800Y27884800I7042J-7100D01*
G01X20731800D01*
G02X20741800Y27874800I0J-10000D01*
G01Y27851600D01*
G02X20738900Y27844600I-10000J42D01*
G01X20735000Y27840700D01*
X20732600Y27839400D01*
X20731400Y27839100D01*
G03X20740700Y27769800I8836J-34088D01*
G02X20740900I100J-10000D01*
G01X20742500D01*
X20745400Y27768900D01*
X20756500Y27760800D01*
G02X20760200Y27755700I-5821J-8115D01*
G03X20806300Y27791600I29787J9299D01*
G01X20804300Y27792800D01*
X20801900Y27796600D01*
X20799500Y27817000D01*
X20801000Y27821300D01*
X20802200Y27822500D01*
Y27874800D01*
G02X20812200Y27884800I10000J0D01*
G01X21854200D01*
G02X21861200Y27881900I-42J-10000D01*
G01X21895900Y27847200D01*
G02X21898800Y27840200I-7100J-7042D01*
G01Y27090000D01*
G03X21974900Y27057100I45162J0D01*
G02X21981800Y27059800I6840J-7314D01*
G01X22010600D01*
X22012900Y27059200D01*
X22013900Y27058700D01*
G03Y27121300I16100J31300D01*
G01X22012900Y27120800D01*
X22010600Y27120200D01*
X21999200D01*
G02X21989200Y27130200I0J10000D01*
G01Y27219800D01*
G02X21999200Y27229800I10000J0D01*
G01X22080400D01*
G03X22087400Y27232700I-41J9998D01*
G01X22126600Y27271800D01*
G02X22130400Y27274200I7109J-7047D01*
G01X22130500D01*
G03X22086200Y27318600I-10820J33504D01*
G01Y27318400D01*
X22085400Y27316200D01*
X22062400Y27293100D01*
G02X22055300Y27290200I-7043J7103D01*
G01X21999200D01*
G02X21989200Y27300200I0J10000D01*
G01Y27754800D01*
G02X21999200Y27764800I10000J0D01*
G01X22216000D01*
X22218300Y27764200D01*
X22219300Y27763700D01*
G03X22251800Y27763900I16058J31308D01*
G02X22261600Y27763600I4634J-8855D01*
G01X22276400Y27754700D01*
G02X22281300Y27746100I-5089J-8595D01*
G01Y27181200D01*
G02X22278500Y27174300I-9991J36D01*
G03X22329500I25500J-24300D01*
G02X22326700Y27181200I7191J6936D01*
G01Y27200900D01*
G02X22336700Y27210900I10000J0D01*
G01X22339400D01*
X22343800Y27208400D01*
X22345200Y27206200D01*
G03X22389000Y27192700I29775J18799D01*
G01X22389100D01*
G02X22398000Y27192200I3949J-9176D01*
G01X22414300Y27182700D01*
X22416800Y27178800D01*
X22417000Y27176400D01*
G03X22436900Y27148200I35013J3586D01*
G01X22437100D01*
Y27148100D01*
G02X22442600Y27140900I-4329J-9008D01*
G01X22445400Y27124600D01*
G02X22442600Y27115800I-9847J-1712D01*
G01X22405000Y27078100D01*
G02X22398000Y27075200I-7043J7102D01*
G01X22268700D01*
G02X22261800Y27078000I36J9991D01*
G03Y27027000I-24300J-25500D01*
G02X22268700Y27029800I6936J-7191D01*
G01X22416800D01*
G03X22423800Y27032700I-42J10000D01*
G01X22559800Y27168700D01*
G03X22562700Y27175700I-7100J7042D01*
G01Y27181900D01*
G02X22567700Y27190500I9994J-57D01*
G01X22582800Y27199300D01*
G02X22592700Y27199400I5038J-8626D01*
G03X22644600Y27236400I17302J30631D01*
G01X22644200Y27238700D01*
X22645500Y27243200D01*
X22658000Y27256800D01*
G02X22666400Y27260000I7379J-6745D01*
G03X22695500Y27319300I3612J35018D01*
G02X22692700Y27326200I7191J6936D01*
G01Y27340500D01*
G03X22689800Y27347500I-10000J-42D01*
G01X22680600Y27356700D01*
G02X22677700Y27363700I7100J7042D01*
G01Y27828800D01*
G02X22680500Y27835700I9990J-36D01*
G03X22620000Y27864100I-25520J24276D01*
G01Y27864000D01*
G02X22617200Y27858100I-9959J1112D01*
G01X22614200Y27855100D01*
X22606000D01*
X22602100Y27859000D01*
G02X22599200Y27865800I7097J7045D01*
G03X22528900Y27861900I-35214J-801D01*
G01X22529100Y27859700D01*
X22527600Y27855400D01*
X22513600Y27841400D01*
X22509300Y27839900D01*
X22507100Y27840100D01*
G03X22472200Y27820100I-3078J-35078D01*
G01X22471300Y27818200D01*
X22468300Y27815500D01*
X22452400Y27810300D01*
G02X22444700Y27811000I-3016J9521D01*
G01X22444600D01*
G03X22412200Y27811500I-16682J-30998D01*
G01X22411200Y27811000D01*
X22408900Y27810400D01*
X22407700D01*
G02X22397700Y27820400I0J10000D01*
G01Y27825800D01*
X22399100Y27829200D01*
X22400500Y27830700D01*
G03X22357000Y27885300I-25441J24359D01*
G01X22354700Y27883900D01*
X22349300Y27883800D01*
X22331800Y27893800D01*
G02X22326700Y27902500I4899J8717D01*
G01Y28996800D01*
G03X22323800Y29003800I-10000J-42D01*
G01X22210100Y29117500D01*
G03X22203100Y29120400I-7042J-7100D01*
G01X22188800D01*
G02X22181900Y29123200I36J9990D01*
G03X22177500Y29068600I-24282J-25521D01*
G02X22183600Y29070300I5591J-8268D01*
G01X22189600Y29070100D01*
G02X22196200Y29067200I-456J-9999D01*
G01X22278400Y28985000D01*
G02X22281300Y28978000I-7100J-7042D01*
G01Y27843900D01*
G02X22276400Y27835300I-9989J-5D01*
G01X22261600Y27826400D01*
G02X22251800Y27826100I-5166J8555D01*
G03X22219300Y27826300I-16442J-31108D01*
G01X22218300Y27825800D01*
X22216000Y27825200D01*
X21999200D01*
G02X21989200Y27835200I0J10000D01*
G01Y27877600D01*
G03X21986300Y27884600I-10000J-42D01*
G01X21898600Y27972300D01*
G03X21891600Y27975200I-7042J-7100D01*
G01X21755200D01*
G02X21745200Y27985200I0J10000D01*
G01Y28089800D01*
G02X21755200Y28099800I10000J0D01*
G01X21860600D01*
X21862900Y28099200D01*
X21863900Y28098700D01*
G03Y28161300I16100J31300D01*
G01X21862900Y28160800D01*
X21860600Y28160200D01*
X21755200D01*
G02X21745200Y28170200I0J10000D01*
G01Y28394800D01*
G02X21755200Y28404800I10000J0D01*
G01X22160000D01*
G03Y28495200I0J45200D01*
G01X21610400D01*
G03X21603400Y28492300I42J-10000D01*
G01X21484200Y28373100D01*
G02X21477200Y28370200I-7042J7100D01*
G01X21351200D01*
G02X21341200Y28380200I0J10000D01*
G01Y28473100D01*
G02X21344100Y28480200I10003J57D01*
G01X21367500Y28503500D01*
G03X21308000Y28571300I-31967J31954D01*
G01X21307900D01*
G02X21294800Y28572200I-6035J7946D01*
G01X21229600Y28637300D01*
G03X21222600Y28640200I-7042J-7099D01*
G01X20964200D01*
G02X20954200Y28650200I0J10000D01*
G01Y28723400D01*
G03X20951300Y28730400I-10000J-42D01*
G01X20848100Y28833600D01*
X20846700Y28836200D01*
X20846400Y28837600D01*
G03X20824500Y28862900I-34372J-7625D01*
G01X20822100Y28863800D01*
X20818800Y28867600D01*
X20814700Y28886700D01*
G02X20817400Y28895800I9799J2043D01*
G01X20871000Y28949400D01*
G02X20878000Y28952300I7042J-7100D01*
G01X20950600D01*
G02X20959100Y28947700I76J-10012D01*
G01X20968200Y28933400D01*
G02X20968900Y28923800I-8378J-5436D01*
G03X20964800Y28905000I41052J-18800D01*
G01Y28827400D01*
G03X20967700Y28820400I10000J42D01*
G01X21031200Y28756900D01*
G02X21031700Y28743300I-7077J-7069D01*
G01X21031600Y28743200D01*
G03X21070000Y28695300I23462J-20533D01*
G02X21076100Y28696400I4736J-8802D01*
G01X21082500Y28695500D01*
G02X21088100Y28692700I-1446J-9893D01*
G03X21138800Y28727000I21907J22240D01*
G01X21137800Y28729300D01*
X21138300Y28734200D01*
X21149000Y28750400D01*
G02X21157300Y28754800I8294J-5617D01*
G01X21295200D01*
G02X21302200Y28751900I-42J-10000D01*
G01X21436400Y28617700D01*
G03X21443400Y28614800I7042J7100D01*
G01X21545000D01*
G02X21555000Y28605800I47J-10003D01*
G01Y28605700D01*
G03X21645200Y28610000I44998J4300D01*
G01Y28660000D01*
G03X21600000Y28705200I-45200J0D01*
G01X21480800D01*
G02X21473800Y28708100I42J10000D01*
G01X21339600Y28842300D01*
G03X21332600Y28845200I-7042J-7100D01*
G01X21198000D01*
G02X21189000Y28850900I23J9992D01*
G01X21179900Y28869900D01*
X21180600Y28875600D01*
X21182400Y28877900D01*
G03X21184000Y28880200I-28030J21205D01*
G02X21185500Y28882000I8396J-5472D01*
G02X21200400Y28880800I6907J-7339D01*
G03Y28919200I24600J19200D01*
G02X21184500I-7950J6158D01*
G02X21184100Y28919700I7584J6477D01*
G03X21180400Y28924300I-29160J-19666D01*
G02X21177700Y28931200I7308J6838D01*
G01Y29005300D01*
G03X21174800Y29012300I-10000J-42D01*
G01X21152300Y29034800D01*
G03X21145300Y29037700I-7042J-7100D01*
G01X20778400D01*
G02X20770000Y29042200I-48J10000D01*
G03X20763500Y29049400I-26130J-17056D01*
G01X20761700Y29050900D01*
X20759700Y29054900D01*
Y29057300D01*
G02X20769700Y29067300I10000J0D01*
G01X22001300D01*
G03X22008300Y29070200I-42J10000D01*
G01X22092500Y29154400D01*
G02X22099500Y29157300I7042J-7100D01*
G01X22528500D01*
G02X22535500Y29154400I-42J-10000D01*
G01X22586400Y29103500D01*
G02X22589300Y29096500I-7100J-7042D01*
G01Y28964700D01*
G03X22592200Y28957700I10000J42D01*
G01X22746400Y28803500D01*
G02X22749300Y28796500I-7100J-7042D01*
G01Y28648600D01*
G02X22743500Y28639500I-10014J-16D01*
G01X22743400D01*
G03X22728400Y28529800I26607J-59514D01*
G01X22728500Y28529700D01*
G02X22732100Y28522500I-6382J-7691D01*
G01X22732900Y28505500D01*
X22731400Y28501600D01*
X22730800Y28501000D01*
Y28125100D01*
G02X22728100Y28118300I-9995J33D01*
G01X22717600Y28106900D01*
X22714200Y28105200D01*
X22712300Y28105100D01*
G03Y28034900I2700J-35100D01*
G01X22714200Y28034800D01*
X22717600Y28033100D01*
X22728100Y28021700D01*
G02X22730800Y28014900I-7295J-6833D01*
G01Y27570100D01*
G03X22733700Y27563100I10000J42D01*
G01X22877700Y27419100D01*
G02Y27404900I-7042J-7100D01*
G01X22420900Y26948100D01*
G02X22413900Y26945200I-7042J7100D01*
G01X21497100D01*
G03X21490100Y26942300I42J-10000D01*
G01X21248900Y26701100D01*
G03X21229800Y26655000I46084J-46100D01*
G01Y26570000D01*
G03X21360200I65200J0D01*
G01Y26623900D01*
G02X21363100Y26630900I10000J-42D01*
G01X21544100Y26811900D01*
G02X21551100Y26814800I7042J-7100D01*
G01X22467900D01*
G03X22474900Y26817700I-42J10000D01*
G01X22982300Y27325100D01*
G02X22989300Y27328000I7042J-7100D01*
G01X23240400D01*
G02X23248300Y27324100I-24J-10000D01*
G01X23258100Y27311400D01*
G02X23259800Y27302900I-7985J-6017D01*
G01Y27302800D01*
G03X23320200I30200J-7800D01*
G01Y27302900D01*
G02X23321900Y27311400I9685J2483D01*
G01X23331700Y27324100D01*
G02X23339600Y27328000I7924J-6100D01*
G01X23467900D01*
X23468500Y27327900D01*
G03X23483500I7500J64800D01*
G01X23484100Y27328000D01*
X23737100D01*
G02X23744100Y27325100I-42J-10000D01*
G01X23800100Y27269100D01*
G02X23803000Y27262100I-7100J-7042D01*
G01Y26970000D01*
G03X23933400I65200J0D01*
G01Y27316100D01*
G03X23930500Y27323100I-10000J-42D01*
G01X23798100Y27455500D01*
G03X23791100Y27458400I-7042J-7100D01*
G01X23170200D01*
G02X23163100Y27461400I41J9998D01*
G01X23153000Y27471800D01*
G02X23150200Y27479000I7199J6944D01*
G03X23079800I-35200J1000D01*
G01X23079900Y27476900D01*
X23078400Y27473300D01*
X23066900Y27461400D01*
G02X23059800Y27458400I-7141J6998D01*
G01X23026900D01*
G02X23019900Y27461300I42J10000D01*
G01X22864100Y27617100D01*
G02X22861200Y27624100I7100J7042D01*
G01Y28014800D01*
G02X22871200Y28024800I10000J0D01*
G01X23393600D01*
G03X23400600Y28027700I-42J10000D01*
G01X23469800Y28096900D01*
G02X23476800Y28099800I7042J-7100D01*
G01X23510200D01*
G03Y28190200I0J45200D01*
G01X23439400D01*
G03X23432400Y28187300I42J-10000D01*
G01X23363200Y28118100D01*
G02X23356200Y28115200I-7042J7100D01*
G01X22871200D01*
G02X22861200Y28125200I0J10000D01*
G01Y28442900D01*
G02X22864100Y28449900I10000J-42D01*
G01X22922300Y28508100D01*
G03X22925200Y28515100I-7100J7042D01*
G01Y28580000D01*
G03X22860000Y28645200I-65200J0D01*
G01X22804700D01*
G02X22794700Y28655200I0J10000D01*
G01Y28815300D01*
G03X22791800Y28822300I-10000J-42D01*
G01X22637600Y28976500D01*
G02X22634700Y28983500I7100J7042D01*
G01Y29115300D01*
G03X22631800Y29122300I-10000J-42D01*
G01X22554300Y29199800D01*
G03X22547300Y29202700I-7042J-7100D01*
G01X22221700D01*
G02X22212600Y29208600I13J9988D01*
G01X22203800Y29228100D01*
X22204700Y29233900D01*
X22206700Y29236100D01*
G03X22107500I-49600J43900D01*
G01X22109500Y29233900D01*
X22110400Y29228100D01*
X22101600Y29208600D01*
G02X22092500Y29202700I-9113J4088D01*
G01X22080700D01*
G03X22073700Y29199800I42J-10000D01*
G01X21989500Y29115600D01*
G02X21982500Y29112700I-7042J7100D01*
G01X20757100D01*
G02X20747100Y29122000I-22J10002D01*
G01Y29122100D01*
G03X20746900Y29124300I-31134J-1721D01*
G02X20748600Y29131400I9920J1378D01*
G01X20756500Y29142600D01*
G02X20762700Y29146600I8146J-5821D01*
G03X20803000Y29167600I-17804J83336D01*
G02X20809800Y29170300I6835J-7300D01*
G01X20809900D01*
G02X20819900Y29160300I0J-10000D01*
G01X20825300Y29154900D01*
X21000100D01*
G03X21010100Y29164900I0J10000D01*
G01Y29354900D01*
G02X21020100Y29364900I10000J0D01*
G01X21279900D01*
G02X21289900Y29354900I0J-10000D01*
G01Y29164900D01*
G03X21299900Y29154900I10000J0D01*
G01X21492400D01*
G02X21496800Y29153800I-158J-9980D01*
G03X21620200Y29230000I38173J76200D01*
G01Y29300100D01*
G03X21612100Y29336300I-85209J-60D01*
G01Y29336400D01*
G02X21612700Y29345900I9069J4196D01*
G01X21621900Y29360300D01*
G02X21630300Y29364900I8413J-5393D01*
G01X21634300D01*
X21640100Y29370700D01*
Y29474900D01*
G02X21650100Y29484900I10000J0D01*
G01X23596400D01*
G02X23604700Y29480500I16J-9999D01*
G01X23615500Y29464700D01*
X23616000Y29460000D01*
X23615100Y29457600D01*
G03X23637100Y29411500I32887J-12605D01*
G01X23637300D01*
X23639500Y29410700D01*
X23652600Y29397700D01*
G03X23659600Y29394800I7040J7096D01*
G01X24635600D01*
X24637900Y29394200D01*
X24638900Y29393700D01*
G03Y29456300I16100J31300D01*
G01X24637900Y29455800D01*
X24635600Y29455200D01*
X23688500D01*
G02X23679500Y29460700I-60J10015D01*
G01Y29460800D01*
G03X23677600Y29464100I-31427J-15897D01*
G02X23676900Y29473600I8430J5397D01*
G01X23679300Y29479000D01*
G02X23688500Y29484900I9131J-4115D01*
G01X25466800D01*
G02X25476500Y29477500I45J-9999D01*
G01X25481600Y29458700D01*
G02X25477000Y29447400I-9660J-2654D01*
G01X25476900D01*
G03X25768700Y29350600I103104J-177408D01*
G02X25779400Y29364500I9224J3968D01*
G03X25783200Y29364700I1384J9904D01*
G01X25797500Y29368200D01*
G02X25806000Y29366400I2389J-9687D01*
G02X25809900Y29358500I-6090J-7919D01*
G01Y28416900D01*
G37*
G36*
G01X21893600Y26349700D02*
X21893700D01*
G03X21895200Y26359200I-33709J10191D01*
G02X21898100Y26366000I9995J-244D01*
G01X21905000Y26372900D01*
G02X21912000Y26375800I7042J-7101D01*
G01X22273000D01*
G02X22280500Y26372500I72J-10008D01*
G01X22290500Y26361300D01*
G02X22293000Y26353500I-7443J-6686D01*
G03Y26346200I31000J-3650D01*
G02X22290600Y26338400I-9909J-1220D01*
G01X22280600Y26327100D01*
G02X22273100Y26323700I-7511J6596D01*
G01X21912800D01*
G02X21904800Y26327800I70J9992D01*
G01X21895200Y26340800D01*
G02X21893600Y26349700I7987J6030D01*
G37*
G36*
G01X21774300Y25847000D02*
G03X21743400Y25856100I-24297J-25491D01*
G02X21735100Y25858200I-1937J9798D01*
G01X21723100Y25868100D01*
G02X21719500Y25875800I6401J7684D01*
G01Y25918200D01*
G02X21722400Y25925200I10002J-43D01*
G01X21769100Y25971900D01*
G02X21776100Y25974800I7043J-7102D01*
G01X22200400D01*
X22201400Y25975800D01*
X22932900D01*
G03X22939900Y25978700I-41J9998D01*
G01X22989600Y26028400D01*
G02X22998600Y26031100I7035J-7099D01*
G01X23015100Y26027800D01*
G02X23022400Y26021800I-1956J-9821D01*
G01Y26021700D01*
G03X23071100Y26003700I32593J13301D01*
G02X23075700Y26004800I4560J-8901D01*
G01X23202500D01*
G02X23211800Y25998600I43J-10011D01*
G02X23209600Y25987700I-9261J-3803D01*
G01X23152500Y25930600D01*
G02X23145500Y25927700I-7042J7101D01*
G01X22399600D01*
G03X22392600Y25924800I42J-9999D01*
G01X22380900Y25913100D01*
G02X22374100Y25910200I-7044J7095D01*
G03X22340400Y25868200I824J-35181D01*
G02X22338300Y25859900I-9824J-1930D01*
G01X22328400Y25847900D01*
G02X22320700Y25844200I-7761J6290D01*
G01X21781200D01*
G02X21774300Y25847000I37J9992D01*
G37*
G36*
G01X25089600Y21173100D02*
X25021100Y21241600D01*
G02X25018200Y21248700I7102J7043D01*
G01Y21413400D01*
G03X25015300Y21420400I-9998J-41D01*
G01X24858400Y21577300D01*
G03X24851400Y21580200I-7041J-7098D01*
G01X24274400D01*
G02X24266700Y21583800I-12J10008D01*
G01X24256800Y21595600D01*
G02X24254600Y21603800I7676J6455D01*
G01X24254700D01*
G03X24245500Y21634300I-34679J6177D01*
G02X24242700Y21641200I7192J6937D01*
G01Y21800500D01*
G02X24245600Y21807500I10001J-42D01*
G01X24262500Y21824400D01*
G02X24269500Y21827300I7042J-7101D01*
G01X24370300D01*
G03X24377300Y21830200I-42J9999D01*
G01X24419800Y21872700D01*
G03X24422700Y21879700I-7099J7042D01*
G01Y22042300D01*
G03X24419800Y22049300I-9999J-42D01*
G01X24304300Y22164800D01*
G03X24297300Y22167700I-7042J-7099D01*
G01X24252500D01*
G02X24245500Y22170600I42J10001D01*
G01X23777600Y22638500D01*
G02X23774700Y22645500I7101J7042D01*
G01Y23192300D01*
G03X23771800Y23199300I-9999J-42D01*
G01X23616300Y23354800D01*
G03X23609300Y23357700I-7042J-7099D01*
G01X23061500D01*
G02X23054500Y23360600I42J10001D01*
G01X23033600Y23381500D01*
G02X23030700Y23388500I7101J7042D01*
G01Y23519400D01*
G02X23035200Y23527800I10018J38D01*
G01X23049400Y23537000D01*
G02X23058800Y23537800I5448J-8385D01*
G01X23058900D01*
G03X23097300Y23544500I14163J32216D01*
G02X23104200Y23547300I6937J-7192D01*
G01X24661500D01*
G02X24668500Y23544400I-42J-10001D01*
G01X24802700Y23410200D01*
G03X24809700Y23407300I7042J7099D01*
G01X24855700D01*
G02X24865200Y23400300I-34J-9992D01*
G03X24888300Y23361800I93101J29681D01*
G02X24890400Y23350900I-7113J-7023D01*
G01X24883200Y23333800D01*
G02X24874000Y23327700I-9215J3910D01*
G01X24501200D01*
G02X24494300Y23330500I37J9992D01*
G03Y23279500I-24300J-25500D01*
G02X24501200Y23282300I6937J-7192D01*
G01X24878100D01*
G02X24887400Y23276000I-3J-10018D01*
G01X24894200Y23258500D01*
G02X24891700Y23247500I-9287J-3673D01*
G03X24893500Y23102800I66582J-71533D01*
G01X24893600D01*
G02X24896300Y23091800I-6659J-7466D01*
G01X24889600Y23074200D01*
G02X24880300Y23067700I-9363J3493D01*
G01X24693300D01*
G03X24686300Y23064800I42J-9999D01*
G01X24476000Y22854500D01*
G02X24469200Y22851600I-7044J7095D01*
G03X24436500Y22827100I832J-35182D01*
G02X24429300Y22820400I-9539J3032D01*
G01X24412600Y22816300D01*
G02X24403100Y22819000I-2369J9729D01*
G01X24293100Y22929000D01*
G02X24290200Y22935800I7095J7044D01*
G03X24219800Y22936800I-35218J-800D01*
G02X24216700Y22930000I-9969J438D01*
G01X24206700Y22920500D01*
G02X24199800Y22917700I-6937J7192D01*
G01X24179200D01*
G02X24172300Y22920500I37J9992D01*
G03X24118200Y22913700I-24273J-25495D01*
G02X24110800Y22909100I-8446J5335D01*
G01X24095200Y22907300D01*
G02X24087000Y22910100I-1189J9925D01*
G01X24058100Y22939000D01*
G02X24055200Y22945800I7095J7044D01*
G03X24019200Y22909800I-35200J-800D01*
G02X24026000Y22906900I-244J-9995D01*
G01X24275200Y22657700D01*
G03X24282200Y22654800I7042J7099D01*
G01X24331000D01*
G02X24338000Y22651900I-42J-10001D01*
G01X24616400Y22373500D01*
X24617000Y22372600D01*
G03X24636000Y22362300I19000J12374D01*
G01X24699500D01*
G02X24706500Y22359400I-42J-10001D01*
G01X24795700Y22270200D01*
G03X24802700Y22267300I7042J7099D01*
G01X24879100D01*
G02X24888500Y22260900I64J-10010D01*
G01X24895200Y22243400D01*
G02X24892600Y22232300I-9292J-3678D01*
G03X25024000I65700J-72300D01*
G02X25021400Y22243400I6692J7422D01*
G01X25028100Y22260900D01*
G02X25037500Y22267300I9336J-3610D01*
G01X25068800D01*
G02X25075800Y22264400I-42J-10001D01*
G01X25123700Y22216500D01*
G02X25125500Y22204900I-7091J-7040D01*
G01Y22204800D01*
G03X25167500Y22246800I86800J-44800D01*
G02X25155800Y22248600I-4623J8876D01*
G01X25094600Y22309800D01*
G03X25087600Y22312700I-7042J-7099D01*
G01X25043600D01*
G02X25034400Y22318800I7J9999D01*
G01X25027100Y22335800D01*
G02X25029100Y22346600I9199J3882D01*
G01Y22346700D01*
G03X25023100Y22487200I-70792J67355D01*
G01X25023000D01*
G02X25020300Y22498200I6659J7466D01*
G01X25027000Y22515800D01*
G02X25036300Y22522300I9363J-3493D01*
G01X25067800D01*
G02X25074800Y22519400I-42J-10001D01*
G01X25123700Y22470500D01*
G02X25125500Y22458900I-7091J-7040D01*
G01Y22458800D01*
G03X25167500Y22500800I86800J-44800D01*
G02X25155800Y22502600I-4623J8876D01*
G01X25093600Y22564800D01*
G03X25086600Y22567700I-7042J-7099D01*
G01X25044500D01*
G02X25035400Y22573700I61J9993D01*
G01X25028000Y22590700D01*
G02X25029800Y22601500I9166J4022D01*
G01X25029900D01*
G03X25026600Y22737800I-71605J66456D01*
G01Y22737900D01*
G02X25024300Y22748800I6979J7165D01*
G01X25031400Y22766100D01*
G02X25040600Y22772300I9249J-3798D01*
G01X25071800D01*
G02X25078800Y22769400I-42J-10001D01*
G01X25123700Y22724500D01*
G02X25125500Y22712900I-7091J-7040D01*
G01Y22712800D01*
G03X25167500Y22754800I86800J-44800D01*
G02X25155800Y22756600I-4623J8876D01*
G01X25097600Y22814800D01*
G03X25090600Y22817700I-7042J-7099D01*
G01X25040600D01*
G02X25031400Y22823900I49J9998D01*
G01X25024300Y22841200D01*
G02X25026600Y22852100I9279J3735D01*
G01Y22852200D01*
G03X25029900Y22988500I-68305J69844D01*
G01X25029800D01*
G02X25028000Y22999300I7366J6778D01*
G01X25035400Y23016300D01*
G02X25044500Y23022300I9161J-3993D01*
G01X25075800D01*
G02X25082800Y23019400I-42J-10001D01*
G01X25123700Y22978500D01*
G02X25125500Y22966900I-7091J-7040D01*
G01Y22966800D01*
G03X25167500Y23008800I86800J-44800D01*
G02X25155800Y23010600I-4623J8876D01*
G01X25101600Y23064800D01*
G03X25094600Y23067700I-7042J-7099D01*
G01X25036300D01*
G02X25027000Y23074200I63J9993D01*
G01X25020300Y23091800D01*
G02X25023000Y23102800I9359J3534D01*
G01X25023100D01*
G03X25024900Y23247500I-64782J73167D01*
G02X25022400Y23258500I6787J7327D01*
G01X25029200Y23276000D01*
G02X25038500Y23282300I9303J-3718D01*
G01X25069800D01*
G02X25076800Y23279400I-42J-10001D01*
G01X25123700Y23232500D01*
G02X25125500Y23220900I-7091J-7040D01*
G01Y23220800D01*
G03X25167500Y23262800I86800J-44800D01*
G02X25155800Y23264600I-4623J8876D01*
G01X25095600Y23324800D01*
G03X25088600Y23327700I-7042J-7099D01*
G01X25042600D01*
G02X25033400Y23333800I15J10010D01*
G01X25026200Y23350900D01*
G02X25028300Y23361800I9213J3877D01*
G03X24865200Y23459700I-70016J68165D01*
G02X24855700Y23452700I-9534J2992D01*
G01X24828500D01*
G02X24821500Y23455600I42J10001D01*
G01X24687300Y23589800D01*
G03X24680300Y23592700I-7042J-7099D01*
G01X23104200D01*
G02X23097300Y23595500I37J9992D01*
G03X23047300Y23594100I-24306J-25487D01*
G02X23040200Y23590900I-7333J6793D01*
G01X23025700Y23590700D01*
G02X23018500Y23593600I-158J9996D01*
G01X23005600Y23606500D01*
G02X23002700Y23613500I7101J7042D01*
G01Y23624200D01*
G02X23005600Y23631300I10008J55D01*
G01X23015600Y23641400D01*
G02X23022700Y23644300I7050J-7119D01*
G03X23057700Y23678700I-194J35203D01*
G02X23060600Y23685500I9995J-244D01*
G01X23089500Y23714400D01*
G02X23096500Y23717300I7042J-7101D01*
G01X24786000D01*
G02X24793000Y23714400I-42J-10001D01*
G01X24843200Y23664200D01*
G03X24850200Y23661300I7042J7099D01*
G01X24855700D01*
G02X24865200Y23654300I-34J-9992D01*
G03X25027500Y23753000I93083J29727D01*
G01X25027400D01*
G02X25025300Y23763900I7126J7025D01*
G01X25032400Y23781100D01*
G02X25041700Y23787300I9251J-3801D01*
G01X25089600D01*
G03X25096600Y23790200I-42J9999D01*
G01X25155800Y23849400D01*
G02X25167500Y23851200I7077J-7076D01*
G03X25125500Y23893200I44800J86800D01*
G01Y23893100D01*
G02X25123700Y23881500I-8891J-4560D01*
G01X25077800Y23835600D01*
G02X25070800Y23832700I-7042J7101D01*
G01X25039600D01*
G02X25030300Y23839000I-6J10006D01*
G01X25023400Y23856400D01*
G02X25025700Y23867300I9265J3738D01*
G01X25025800D01*
G03X25022100Y24012000I-67486J70672D01*
G02X25019200Y24023100I6493J7625D01*
G01X25025800Y24040800D01*
G02X25035200Y24047300I9375J-3510D01*
G01X25036300D01*
G03X25043300Y24050200I-42J9999D01*
G01X25086800Y24093700D01*
G02X25093800Y24096600I7042J-7101D01*
G01X25144900D01*
G03X25151900Y24099500I-42J9999D01*
G01X25155800Y24103400D01*
G02X25167500Y24105200I7077J-7076D01*
G03X25117800Y24167200I44787J86822D01*
G02X25116100Y24158500I-9668J-2627D01*
G01X25106300Y24145900D01*
G02X25098400Y24142000I-7923J6097D01*
G01X25075000D01*
G03X25068000Y24139100I42J-9999D01*
G01X25063200Y24134300D01*
G02X25049900Y24133600I-7042J7101D01*
G01X25048000Y24135100D01*
G02X25045300Y24147500I6196J7843D01*
G03X24865200Y24221700I-87034J44419D01*
G02X24855700Y24214700I-9534J2992D01*
G01X24594200D01*
G03X24587200Y24211800I42J-9999D01*
G01X24543500Y24168100D01*
G02X24536700Y24165200I-7044J7095D01*
G03X24529600Y24164300I854J-35192D01*
G02X24518000Y24177600I-2204J9786D01*
G03X24520200Y24189200I-33014J12270D01*
G02X24523100Y24196000I9995J-244D01*
G01X24747500Y24420400D01*
G02X24754500Y24423300I7042J-7101D01*
G01X24855700D01*
G02X24865200Y24416300I-34J-9992D01*
G03Y24475700I93100J29700D01*
G02X24855700Y24468700I-9534J2992D01*
G01X24735700D01*
G03X24728700Y24465800I42J-9999D01*
G01X24491000Y24228100D01*
G02X24484200Y24225200I-7044J7095D01*
G03X24460700Y24215500I778J-35202D01*
G02X24453800Y24212700I-6937J7192D01*
G01X23579200D01*
G03X23572200Y24209800I42J-9999D01*
G01X23369500Y24007100D01*
G02X23362500Y24004200I-7042J7101D01*
G01X23338500D01*
G02X23329600Y24009500I-67J10010D01*
G01X23321300Y24025200D01*
G02X23321800Y24035400I8797J4681D01*
G01Y24035500D01*
G03X23318000Y24079300I-29298J19523D01*
G02X23315200Y24086200I7192J6937D01*
G01Y24371500D01*
G02X23318100Y24378500I10001J-42D01*
G01X23469000Y24529400D01*
G02X23476000Y24532300I7042J-7101D01*
G01X23812600D01*
G03X23819600Y24535200I-42J9999D01*
G01X24018300Y24733900D01*
G02X24025100Y24736800I7044J-7095D01*
G03X24059500Y24771200I-800J35200D01*
G02X24062400Y24778000I9995J-244D01*
G01X24084800Y24800400D01*
G03X24087700Y24807400I-7099J7042D01*
G01Y25323800D01*
G02X24090500Y25330700I9992J-37D01*
G03X24098900Y25364400I-25510J24256D01*
G02X24100600Y25373100I9658J2629D01*
G01X24110300Y25385900D01*
G02X24118300Y25389800I7932J-6115D01*
G01X24164800D01*
G02X24174800Y25379800I0J-10000D01*
G01Y24880700D01*
G02X24171900Y24873600I-10005J-56D01*
G01X24117700Y24819500D01*
G03X24114800Y24812400I7118J-7050D01*
G01Y24780000D01*
G03X24205000Y24775600I45207J0D01*
G02X24207900Y24781700I9929J-981D01*
G01X24262300Y24836100D01*
G03X24265200Y24843200I-7118J7050D01*
G01Y25379800D01*
G02X24275200Y25389800I10000J0D01*
G01X24920400D01*
G02X24926900Y25387400I2J-9998D01*
G03X25059900Y25393800I63064J74606D01*
G02X25067100Y25396800I7147J-7014D01*
G01X25213900D01*
G02X25220900Y25393900I-43J-10002D01*
G01X25343900Y25270900D01*
G02X25346800Y25263900I-7102J-7043D01*
G01Y24679100D01*
G03X25349700Y24672100I9998J41D01*
G01X25539900Y24481900D01*
G02X25542800Y24474900I-7102J-7043D01*
G01Y21415100D01*
G02X25539900Y21408100I-10002J43D01*
G01X25341900Y21210100D01*
G02X25334900Y21207200I-7043J7102D01*
G01X25287100D01*
G02X25279900Y21210200I-53J10014D01*
G03X25118700Y21176700I-69903J-68223D01*
G02X25109300Y21170200I-9374J3509D01*
G01X25096700D01*
G02X25089600Y21173100I-57J10002D01*
G37*
G36*
G01X23095700Y24721100D02*
Y24800500D01*
G02X23098600Y24807500I10001J-42D01*
G01X23135500Y24844400D01*
G02X23142500Y24847300I7042J-7101D01*
G01X23468800D01*
G02X23475700Y24844500I-37J-9992D01*
G03X23527600Y24891800I24273J25491D01*
G01Y24891900D01*
G02X23526400Y24902400I7830J6213D01*
G01X23534300Y24918800D01*
G02X23543300Y24924400I8991J-4418D01*
G01X23772600D01*
G02X23779500Y24921600I-37J-9992D01*
G03X23799300Y24912200I24248J25522D01*
G02X23807500Y24905500I-1267J-9918D01*
G01X23813400Y24888400D01*
G02X23811000Y24878100I-9486J-3219D01*
G01X23798500Y24865600D01*
G02X23791500Y24862700I-7042J7101D01*
G01X23584500D01*
G03X23577500Y24859800I42J-9999D01*
G01X23531000Y24813300D01*
G02X23524200Y24810400I-7044J7095D01*
G03X23500700Y24800700I778J-35202D01*
G02X23493800Y24797900I-6937J7192D01*
G01X23200800D01*
G03X23193800Y24795000I42J-9999D01*
G01X23112800Y24714000D01*
G02X23101900Y24711800I-7097J7061D01*
G02X23095700Y24721100I3811J9257D01*
G37*
G36*
G01X23145200Y24578600D02*
Y24678100D01*
G02X23148100Y24685100I10001J-42D01*
G01X23212600Y24749600D01*
G02X23219600Y24752500I7042J-7101D01*
G01X23384400D01*
G02X23394400Y24742500I0J-10000D01*
G01Y24742400D01*
G02X23387800Y24733000I-10010J11D01*
G03X23375700Y24725500I12113J-33053D01*
G02X23368800Y24722700I-6937J7192D01*
G01X23317600D01*
G03X23310600Y24719800I42J-9999D01*
G01X23162300Y24571500D01*
G02X23151400Y24569300I-7097J7061D01*
G02X23145200Y24578600I3811J9257D01*
G37*
G36*
G01X23195200Y24484500D02*
Y24536100D01*
G02X23198100Y24543100I10001J-42D01*
G01X23329400Y24674400D01*
G02X23336400Y24677300I7042J-7101D01*
G01X23368800D01*
G02X23375700Y24674500I-37J-9992D01*
G03X23387400Y24667100I24308J25484D01*
G02X23393900Y24657800I-3505J-9371D01*
G01Y24657700D01*
G02X23383900Y24647700I-10000J0D01*
G01X23382600D01*
X23212300Y24477400D01*
G02X23201400Y24475200I-7097J7061D01*
G02X23195200Y24484500I3811J9257D01*
G37*
G36*
G01X23401400Y23974800D02*
X23591000Y24164400D01*
G02X23598000Y24167300I7042J-7101D01*
G01X24148000D01*
G02X24157300Y24161100I43J-10011D01*
G02X24155100Y24150200I-9261J-3803D01*
G01X24110500Y24105600D01*
G02X24103500Y24102700I-7042J7101D01*
G01X23631700D01*
G03X23624700Y24099800I42J-9999D01*
G01X23485500Y23960600D01*
G02X23478500Y23957700I-7042J7101D01*
G01X23408500D01*
G02X23399200Y23963900I-43J10011D01*
G02X23401400Y23974800I9261J3803D01*
G37*
G36*
G01X22948200Y23819100D02*
Y23932500D01*
G02X22954400Y23941800I10011J43D01*
G02X22965300Y23939600I3803J-9261D01*
G01X22989700Y23915200D01*
G03X22996700Y23912300I7042J7099D01*
G01X23049000D01*
G02X23058300Y23906100I43J-10011D01*
G02X23056100Y23895200I-9261J-3803D01*
G01X22974000Y23813100D01*
G02X22967200Y23810200I-7044J7095D01*
G03X22960400Y23809400I695J-35206D01*
G01X22959300Y23809100D01*
X22958200D01*
G02X22948200Y23819100I0J10000D01*
G37*
G36*
G01X23002700Y23723600D02*
Y23769000D01*
X23002800Y23769800D01*
G03X23003200Y23774200I-34784J5380D01*
G02X23006100Y23781000I9995J-244D01*
G01X23089500Y23864400D01*
G02X23096500Y23867300I7042J-7101D01*
G01X24339400D01*
G02X24347800Y23862800I38J-10018D01*
G01X24357000Y23848600D01*
G02X24357800Y23839200I-8385J-5448D01*
G01Y23839100D01*
G03X24409900Y23795900I32239J-14136D01*
G02X24416000Y23797700I5731J-8184D01*
G01X24422000Y23797400D01*
G02X24428600Y23794500I-455J-9995D01*
G01X24432900Y23790200D01*
G03X24439900Y23787300I7042J7099D01*
G01X24874900D01*
G02X24884200Y23781100I49J-10001D01*
G01X24891300Y23763900D01*
G02X24889200Y23753000I-9226J-3875D01*
G01X24889100D01*
G03X24873900Y23733300I69140J-69060D01*
G02X24866600Y23728400I-8647J4994D01*
G01X24850800Y23726400D01*
G02X24842400Y23729200I-1369J9894D01*
G01X24811800Y23759800D01*
G03X24804800Y23762700I-7042J-7099D01*
G01X23077700D01*
G03X23070700Y23759800I42J-9999D01*
G01X23028500Y23717600D01*
G02X23021700Y23714700I-7044J7095D01*
G03X23014900Y23713900I695J-35206D01*
G01X23013800Y23713600D01*
X23012700D01*
G02X23002700Y23723600I0J10000D01*
G37*
G36*
G01X22870700Y26124500D02*
G03X22871600Y26123700I23838J25911D01*
G01X22867300Y26112600D01*
G02X22858000Y26106200I-9329J3599D01*
G01X22618400D01*
G02X22610800Y26109700I-2J9996D01*
G01X22600800Y26121400D01*
G02X22598600Y26129400I7657J6408D01*
G01Y26129500D01*
G03X22599000Y26134200I-34814J5330D01*
G02X22601900Y26141000I9995J-244D01*
G01X22610300Y26149400D01*
G02X22617300Y26152300I7042J-7101D01*
G01X22816300D01*
G02X22823300Y26149400I-42J-10001D01*
G01X22842500Y26130200D01*
G03X22849500Y26127300I7042J7099D01*
G01X22863800D01*
G02X22870700Y26124500I-37J-9992D01*
G37*
G36*
G01X22205100Y26159200D02*
X22205800Y26159900D01*
X22209400Y26161400D01*
X22501200D01*
G02X22508200Y26158500I-42J-10000D01*
G01X22525700Y26141000D01*
G02X22528600Y26134200I-7097J-7045D01*
G03X22529000Y26129500I35214J630D01*
G01X22529400Y26127300D01*
X22528200Y26123100D01*
X22516800Y26109700D01*
G02X22509200Y26106200I-7600J6501D01*
G01X22216300D01*
G02X22207500Y26111300I-72J10018D01*
G01X22197700Y26129100D01*
X22197800Y26134600D01*
X22199300Y26136900D01*
G03X22204400Y26152200I-29968J18489D01*
G01Y26152400D01*
X22205100Y26159200D01*
G37*
G36*
G01X23248400Y25648000D02*
G03X23265100Y25760800I-70110J68016D01*
G01Y25760900D01*
G02X23266900Y25772500I8891J4560D01*
G01X23423800Y25929400D01*
G02X23430800Y25932300I7042J-7101D01*
G01X23469300D01*
G03X23476300Y25935200I-42J9999D01*
G01X23577800Y26036700D01*
G02X23584800Y26039600I7042J-7101D01*
G01X23640700D01*
G02X23647800Y26036700I55J-10008D01*
G01X23657900Y26026700D01*
G02X23660800Y26019600I-7119J-7050D01*
G03X23695200Y25984600I35203J194D01*
G02X23702000Y25981700I-244J-9995D01*
G01X23712200Y25971500D01*
G03X23719200Y25968600I7042J7099D01*
G01X23756400D01*
G02X23766400Y25958600I0J-10000D01*
G01Y25958500D01*
G02X23761600Y25950000I-10016J51D01*
G03X23755700Y25945500I18282J-30087D01*
G02X23748800Y25942700I-6937J7192D01*
G01X23524600D01*
G03X23517600Y25939800I42J-9999D01*
G01X23485200Y25907400D01*
G03X23482300Y25900400I7099J-7042D01*
G01Y25829900D01*
G02X23478400Y25822000I-9997J23D01*
G01X23465800Y25812200D01*
G02X23457100Y25810500I-6073J7968D01*
G03X23362200Y25648000I-24770J-94495D01*
G02X23364200Y25637100I-7199J-6954D01*
G01X23357000Y25620000D01*
G02X23347800Y25613900I-9214J3908D01*
G01X23262800D01*
G02X23253600Y25620000I14J10008D01*
G01X23246400Y25637100D01*
G02X23248400Y25648000I9199J3946D01*
G37*
G36*
G01X22490000Y27177200D02*
X22489900Y27177300D01*
G02X22487000Y27183400I7058J7095D01*
G03X22477500Y27204300I-35040J-3318D01*
G02X22474700Y27211200I7192J6937D01*
G01Y27750500D01*
G02X22478200Y27758100I10001J0D01*
G01X22490000Y27768100D01*
G02X22498100Y27770300I6431J-7668D01*
G03X22503200Y27769800I5976J34691D01*
G02X22510000Y27766900I-244J-9995D01*
G01X22514400Y27762500D01*
G02X22517300Y27755500I-7101J-7042D01*
G01Y27194500D01*
G02X22514400Y27187500I-10001J42D01*
G01X22504100Y27177200D01*
G02X22490000I-7050J7086D01*
G37*
G36*
G01X24497300Y22794200D02*
G03X24505200Y22815600I-27289J22232D01*
G02X24508100Y22822400I9995J-244D01*
G01X24705100Y23019400D01*
G02X24712100Y23022300I7042J-7101D01*
G01X24872100D01*
G02X24881200Y23016300I-61J-9993D01*
G01X24888600Y22999300D01*
G02X24886800Y22988500I-9166J-4022D01*
G01X24886700D01*
G03X24890000Y22852200I71605J-66456D01*
G01Y22852100D01*
G02X24892300Y22841200I-6979J-7165D01*
G01X24885200Y22823900D01*
G02X24876000Y22817700I-9249J3798D01*
G01X24572700D01*
G03X24565700Y22814800I42J-9999D01*
G01X24526500Y22775600D01*
G02X24519500Y22772700I-7042J7101D01*
G01X24507100D01*
G02X24497800Y22779100I29J9998D01*
G01X24495800Y22784400D01*
G02X24497300Y22794200I9327J3587D01*
G37*
G36*
G01X24563500Y22570600D02*
X24423900Y22710200D01*
G02X24421700Y22721100I7061J7097D01*
G02X24431000Y22727300I9257J-3811D01*
G01X24538300D01*
G03X24545300Y22730200I-42J9999D01*
G01X24584500Y22769400D01*
G02X24591500Y22772300I7042J-7101D01*
G01X24876000D01*
G02X24885200Y22766100I-49J-9998D01*
G01X24892300Y22748800D01*
G02X24890000Y22737900I-9279J-3735D01*
G01Y22737800D01*
G03X24886700Y22601500I68305J-69844D01*
G01X24886800D01*
G02X24888600Y22590700I-7366J-6778D01*
G01X24881200Y22573700D01*
G02X24872100Y22567700I-9161J3993D01*
G01X24570500D01*
G02X24563500Y22570600I42J10001D01*
G37*
G36*
G01X24814500Y22315600D02*
X24728600Y22401600D01*
G03X24708500Y22407900I-16078J-16083D01*
G01X24707700Y22407700D01*
X24650500D01*
G02X24643500Y22410600I42J10001D01*
G01X24548900Y22505200D01*
G02X24546700Y22516100I7061J7097D01*
G02X24556000Y22522300I9257J-3811D01*
G01X24880300D01*
G02X24889600Y22515800I-63J-9993D01*
G01X24896300Y22498200D01*
G02X24893600Y22487200I-9359J-3534D01*
G01X24893500D01*
G03X24887500Y22346700I64792J-73145D01*
G01Y22346600D01*
G02X24889500Y22335800I-7199J-6918D01*
G01X24882200Y22318800D01*
G02X24873000Y22312700I-9207J3899D01*
G01X24821500D01*
G02X24814500Y22315600I42J10001D01*
G37*
G36*
G01X23518900Y23929800D02*
X23643500Y24054400D01*
G02X23650500Y24057300I7042J-7101D01*
G01X24122300D01*
G03X24129300Y24060200I-42J9999D01*
G01X24173500Y24104400D01*
G02X24180500Y24107300I7042J-7101D01*
G01X24332500D01*
G02X24340600Y24103200I19J-10015D01*
G01X24350100Y24090000D01*
G02X24351600Y24081000I-8037J-5964D01*
G01X24351500D01*
G03X24409300Y24044500I33454J-11039D01*
G02X24416200Y24047300I6937J-7192D01*
G01X24881400D01*
G02X24890800Y24040800I25J-10010D01*
G01X24897400Y24023100D01*
G02X24894500Y24012000I-9393J-3475D01*
G03X24865200Y23967700I63779J-74023D01*
G02X24855700Y23960700I-9534J2992D01*
G01X24850200D01*
G03X24843200Y23957800I42J-9999D01*
G01X24801000Y23915600D01*
G02X24794000Y23912700I-7042J7101D01*
G01X23526000D01*
G02X23516700Y23918900I-43J10011D01*
G02X23518900Y23929800I9261J3803D01*
G37*
G36*
G01X24221600Y25656300D02*
X24211700Y25668300D01*
G02X24209600Y25676500I7714J6344D01*
G03X24150700Y25708600I-34588J6623D01*
G02X24143800Y25705800I-6937J7192D01*
G01X24030400D01*
G02X24023400Y25708700I42J10001D01*
G01X23818100Y25914000D01*
G02X23815200Y25920800I7095J7044D01*
G03X23810200Y25938100I-35197J-800D01*
G01X23810100Y25938200D01*
G02X23810000Y25948200I8616J5087D01*
G01X23818700Y25963500D01*
G02X23827400Y25968600I8707J-4882D01*
G01X23861200D01*
G02X23868200Y25965700I-42J-10001D01*
G01X23959600Y25874300D01*
G02X23962500Y25867500I-7095J-7044D01*
G03X23998500Y25903500I35200J800D01*
G02X23991700Y25906400I244J9995D01*
G01X23986200Y25911900D01*
G02X23983600Y25921800I7029J7137D01*
G01X23988500Y25938700D01*
G02X23995900Y25945700I9615J-2753D01*
G03X24012300Y25954500I-7855J34320D01*
G02X24019200Y25957300I6937J-7192D01*
G01X24270500D01*
G02X24277500Y25954400I-42J-10001D01*
G01X24298400Y25933500D01*
G02X24301300Y25926500I-7101J-7042D01*
G01Y25721000D01*
G02X24298100Y25713600I-10008J-64D01*
G03X24288000Y25678200I23795J-25930D01*
G02X24286300Y25669500I-9621J-2636D01*
G01X24276600Y25656700D01*
G02X24268700Y25652700I-7991J5980D01*
G01X24229300D01*
G02X24221600Y25656300I-14J10006D01*
G37*
G36*
G01X23502400Y25648000D02*
G03X23519100Y25760800I-70110J68016D01*
G02X23520900Y25772500I8876J4623D01*
G01X23524800Y25776400D01*
G03X23527700Y25783400I-7099J7042D01*
G01Y25881600D01*
G02X23530600Y25888600I10001J-42D01*
G01X23536400Y25894400D01*
G02X23543400Y25897300I7042J-7101D01*
G01X23748800D01*
G02X23755700Y25894500I-37J-9992D01*
G03X23779200Y25884800I24278J25502D01*
G02X23786000Y25881900I-244J-9995D01*
G01X23998100Y25669800D01*
G02X24000300Y25658900I-7061J-7097D01*
G02X23991000Y25652700I-9257J3811D01*
G01X23927300D01*
G03X23920300Y25649800I42J-9999D01*
G01X23887300Y25616800D01*
G02X23880300Y25613900I-7042J7101D01*
G01X23770800D01*
G02X23761600Y25620000I14J10008D01*
G01X23754400Y25637100D01*
G02X23756400Y25648000I9199J3946D01*
G03X23616200I-70100J68000D01*
G02X23618200Y25637100I-7199J-6954D01*
G01X23611000Y25620000D01*
G02X23601800Y25613900I-9214J3908D01*
G01X23516800D01*
G02X23507600Y25620000I14J10008D01*
G01X23500400Y25637100D01*
G02X23502400Y25648000I9199J3946D01*
G37*
G36*
G01X25477200Y25042900D02*
Y25122900D01*
G02X25482200Y25131600I10001J39D01*
G01X25497200Y25140300D01*
G02X25507200Y25140400I5087J-8605D01*
G03X25563600Y25136000I32856J57488D01*
G02X25573000Y25134800I3587J-9319D01*
G01X25586700Y25124800D01*
G02X25590800Y25116200I-5901J-8091D01*
G01Y25116100D01*
G03X25591000Y25049700I555224J-31528D01*
G02X25587000Y25041000I-9979J-681D01*
G01X25573300Y25031000D01*
G02X25563800Y25029700I-5937J8026D01*
G03X25507200Y25025400I-23769J-61794D01*
G02X25497200Y25025500I-4913J8705D01*
G01X25482200Y25034200D01*
G02X25477200Y25042900I5001J8661D01*
G37*
G36*
G01X25255100Y26223100D02*
X25227500Y26250700D01*
G03X25183900Y26269800I-46163J-46064D01*
G02X25177300Y26272700I438J9956D01*
G01X25168000Y26282000D01*
G03X25167400Y26282500I-29152J-34373D01*
G01X25171800Y26293500D01*
G02X25181100Y26299800I9296J-3708D01*
G01X25247300D01*
G03X25254400Y26302700I52J10014D01*
G01X25303500Y26351900D01*
G02X25310600Y26354800I7046J-7109D01*
G01X25421100D01*
G02X25429300Y26350500I-19J-10004D01*
G01X25438700Y26336900D01*
G02X25439900Y26327700I-8180J-5745D01*
G03X25435800Y26305000I61090J-22754D01*
G01Y26236100D01*
G02X25432900Y26229100I-10002J43D01*
G01X25426900Y26223100D01*
G02X25419900Y26220200I-7043J7102D01*
G01X25262100D01*
G02X25255100Y26223100I43J10002D01*
G37*
%LPC*%
G75*
G36*
G01X23308000Y22453000D02*
X23241700Y22519400D01*
G02X23238800Y22526400I7099J7042D01*
G01Y23042200D01*
G03X23235900Y23049200I-10000J-42D01*
G01X23198200Y23086900D01*
G03X23191200Y23089800I-7042J-7100D01*
G01X22681200D01*
G03X22671200Y23079800I0J-10000D01*
G01Y22850400D01*
G02X22668300Y22843400I-10000J42D01*
G01X22605100Y22780200D01*
G02X22598100Y22777300I-7042J7100D01*
G01X22407500D01*
G02Y22867700I0J45200D01*
G01X22560700D01*
G03X22567700Y22870600I-42J10000D01*
G01X22577900Y22880800D01*
G03X22580800Y22887800I-7100J7042D01*
G01Y23079800D01*
G03X22570800Y23089800I-10000J0D01*
G01X22511800D01*
G02X22504800Y23092700I42J9999D01*
G01X22392000Y23205400D01*
G02X22378800Y23237300I32027J31934D01*
G01Y23281300D01*
X22378100Y23283100D01*
G02X22388000Y23332000I41907J16968D01*
G01X22413400Y23357300D01*
G02X22420400Y23360200I7041J-7098D01*
G01X22535000D01*
G02Y23269800I0J-45200D01*
G01X22479700D01*
G03X22470400Y23263600I-42J-10012D01*
G01X22470000Y23262400D01*
G03X22469200Y23258600I9182J-3917D01*
G01Y23256100D01*
X22542200Y23183100D01*
G03X22549200Y23180200I7042J7100D01*
G01X23228600D01*
G02X23235600Y23177300I-42J-9999D01*
G01X23316000Y23097000D01*
G02X23326100Y23081600I-31985J-31989D01*
G03X23335400Y23075200I9330J3600D01*
G01X23400600D01*
X23402900Y23075800D01*
X23403900Y23076300D01*
G02Y23013700I16100J-31300D01*
G01X23402900Y23014200D01*
X23400600Y23014800D01*
X23339200D01*
G03X23329200Y23004800I0J-10000D01*
G01Y22563800D01*
G03X23332100Y22556800I10002J43D01*
G01X23372000Y22517000D01*
G02X23308000Y22453000I-32000J-32000D01*
G37*
G36*
G01X23754800Y27755000D02*
Y28285200D01*
G03X23751900Y28292200I-10000J-42D01*
G01X23712200Y28331900D01*
G03X23705200Y28334800I-7042J-7100D01*
G01X23524000D01*
G02Y28425200I0J45200D01*
G01X23742600D01*
G02X23749600Y28422300I-42J-10000D01*
G01X23842300Y28329600D01*
G02X23845200Y28322600I-7100J-7042D01*
G01Y27755000D01*
G02X23754800I-45200J0D01*
G37*
G36*
G01X23038500Y28714200D02*
Y28714300D01*
G03X23036100Y28718100I-9447J-3309D01*
G01X23000700Y28753600D01*
G02X22997800Y28760600I7098J7041D01*
G01Y29158400D01*
G02X23000700Y29165400I10000J-42D01*
G01X23042600Y29207300D01*
G02X23049600Y29210200I7042J-7100D01*
G01X23080600D01*
X23082900Y29210800D01*
X23083900Y29211300D01*
G02Y29148700I16100J-31300D01*
G01X23082900Y29149200D01*
X23080600Y29149800D01*
X23074600D01*
G03X23067600Y29146900I42J-10000D01*
G01X23061100Y29140400D01*
G03X23058200Y29133400I7100J-7042D01*
G01Y28785700D01*
G03X23061100Y28778600I10003J-57D01*
G01X23078900Y28760900D01*
G03X23082700Y28758600I6937J7172D01*
G01X23082800Y28758500D01*
G02X23038500Y28714200I-10800J-33500D01*
G37*
G36*
G01X22423800Y28127700D02*
X22423900D01*
G03X22429800Y28130500I-1113J9962D01*
G01X22439800Y28140600D01*
G03X22442800Y28147700I-6981J7133D01*
G01Y28488400D01*
X22441700Y28491600D01*
X22440600Y28492900D01*
G02X22495400I27400J22100D01*
G01X22494300Y28491600D01*
X22493200Y28488400D01*
Y28126800D01*
G02X22490300Y28119800I-9998J41D01*
G01X22465500Y28094900D01*
G03X22462600Y28088900I7037J-7102D01*
G02X22423800Y28127700I-35000J3800D01*
G37*
G36*
G01X20536800Y28604800D02*
G03X20530000Y28601900I245J-9997D01*
G01X20481600Y28553500D01*
G03X20478700Y28546500I7100J-7042D01*
G01Y28077700D01*
G02X20475800Y28070700I-10000J42D01*
G01X20406100Y28001000D01*
G03X20403200Y27994200I7097J-7045D01*
G02X20367200Y28030200I-35200J800D01*
G01X20369200Y28030300D01*
X20372600Y28031700D01*
X20430400Y28089500D01*
G03X20433300Y28096500I-7100J7042D01*
G01Y28565300D01*
G02X20436200Y28572300I10000J-42D01*
G01X20497900Y28634000D01*
G03X20500800Y28640800I-7097J7045D01*
G02X20536800Y28604800I35200J-800D01*
G37*
G36*
G01X24924000Y27939800D02*
X24796400D01*
G02X24789400Y27942700I42J10000D01*
G01X24710200Y28021900D01*
G03X24703200Y28024800I-7042J-7100D01*
G01X24614400D01*
X24612100Y28024200D01*
X24611100Y28023700D01*
G02Y28086300I-16100J31300D01*
G01X24612100Y28085800D01*
X24614400Y28085200D01*
X24676800D01*
G03X24686800Y28095200I0J10000D01*
G01Y28101200D01*
G03X24683900Y28108200I-10000J-42D01*
G01X24545200Y28246900D01*
G03X24538200Y28249800I-7042J-7100D01*
G01X24228000D01*
G02Y28340200I0J45200D01*
G01X24575600D01*
G02X24582600Y28337300I-42J-10000D01*
G01X24774300Y28145600D01*
G02X24777200Y28138600I-7100J-7042D01*
G01Y28086800D01*
G03X24780100Y28079800I10000J42D01*
G01X24826800Y28033100D01*
G03X24833800Y28030200I7042J7100D01*
G01X24924000D01*
G02Y27939800I0J-45200D01*
G37*
G36*
G01X25074200Y27908500D02*
X25074300D01*
G03X25078100Y27910900I-3309J9447D01*
G01X25118900Y27951600D01*
G03X25121800Y27958600I-7101J7043D01*
G01Y28415600D01*
X25121200Y28417900D01*
X25120700Y28418900D01*
G02X25183300I31300J16100D01*
G01X25182800Y28417900D01*
X25182200Y28415600D01*
Y27933600D01*
G02X25179300Y27926600I-9999J42D01*
G01X25120900Y27868100D01*
G03X25118500Y27864300I7048J-7109D01*
G01Y27864200D01*
G02X25074200Y27908500I-33500J10800D01*
G37*
G36*
G01X21374300Y27834600D02*
G03X21397800Y27828700I15650J12584D01*
G02X21385800Y27780400I12289J-28694D01*
G03X21362300Y27786300I-15650J-12584D01*
G02X21374300Y27834600I-12289J28694D01*
G37*
G36*
G01X24781500Y27514200D02*
X24781400Y27514300D01*
G03X24779100Y27518100I-9472J-3137D01*
G01X24760400Y27536900D01*
G03X24753300Y27539800I-7043J-7103D01*
G01X24693000D01*
X24692700Y27539500D01*
X24651800D01*
X24649500Y27538900D01*
X24648500Y27538400D01*
G02Y27601000I-16100J31300D01*
G01X24649500Y27600500D01*
X24651800Y27599900D01*
X24667700D01*
X24668000Y27600200D01*
X24778400D01*
G02X24785400Y27597300I-41J-9998D01*
G01X24821900Y27560900D01*
G03X24825700Y27558500I7109J7047D01*
G01X24825800D01*
G02X24781500Y27514200I-10800J-33500D01*
G37*
G36*
G01X25554500Y27299200D02*
Y27299300D01*
G03X25552100Y27303100I-9448J-3309D01*
G01X25471100Y27384200D01*
G03X25464100Y27387100I-7042J-7101D01*
G01X24934400D01*
X24932100Y27386500D01*
X24931100Y27386000D01*
G02Y27448600I-16100J31300D01*
G01X24932100Y27448100D01*
X24934400Y27447500D01*
X25223700D01*
G03X25230700Y27450400I-42J10000D01*
G01X25266900Y27486600D01*
G03X25269800Y27493600I-7100J7042D01*
G01Y27578400D01*
G03X25266900Y27585400I-10000J-42D01*
G01X25260700Y27591600D01*
G03X25253700Y27594500I-7042J-7100D01*
G01X25194400D01*
X25192100Y27593900D01*
X25191100Y27593400D01*
G02Y27656000I-16100J31300D01*
G01X25192100Y27655500D01*
X25194400Y27654900D01*
X25278700D01*
G02X25285700Y27652000I-42J-10000D01*
G01X25327300Y27610400D01*
G02X25330200Y27603400I-7100J-7042D01*
G01Y27468600D01*
G02X25327300Y27461600I-10000J42D01*
G01X25326500Y27457700D01*
X25328200Y27453700D01*
G03X25337400Y27447500I9240J3785D01*
G01X25489100D01*
G02X25496100Y27444600I-42J-9999D01*
G01X25594900Y27345900D01*
G03X25598700Y27343500I7109J7048D01*
G01X25598800D01*
G02X25554500Y27299200I-10800J-33500D01*
G37*
G36*
G01X22683800Y25047300D02*
X22393500D01*
G03X22386500Y25044400I42J-10000D01*
G01X22383100Y25041000D01*
G03X22380200Y25034200I7097J-7045D01*
G02X22344200Y25070200I-35200J800D01*
G01X22346200Y25070300D01*
X22349600Y25071700D01*
X22367700Y25089800D01*
G02X22374700Y25092700I7042J-7100D01*
G01X22683800D01*
G03X22690700Y25095500I-36J9991D01*
G02Y25044500I24300J-25500D01*
G03X22683800Y25047300I-6936J-7191D01*
G37*
G36*
G01X22470200Y22490000D02*
G02X22379800I-45200J0D01*
G01Y22582300D01*
G03X22369800Y22592300I-10000J0D01*
G01X22247900D01*
G02X22240900Y22595200I42J10000D01*
G01X22177700Y22658400D01*
G02X22174800Y22665400I7100J7042D01*
G01Y23094900D01*
G03X22171600Y23102300I-10014J62D01*
G01X22159100Y23113700D01*
X22155100Y23115100D01*
X22153000Y23114900D01*
G02X22115700Y23142000I-3002J35088D01*
G01X22115400Y23143300D01*
X22114000Y23145900D01*
X22080200Y23179700D01*
G02X22077300Y23186700I7100J7042D01*
G01Y24263800D01*
G03X22074500Y24270700I-9991J-36D01*
G02X22125500I25500J24300D01*
G03X22122700Y24263800I7191J-6936D01*
G01Y23205500D01*
G03X22125600Y23198500I10000J42D01*
G01X22136500Y23187600D01*
G03X22144900Y23184800I7034J7102D01*
G01X22145000D01*
G02X22153000Y23185100I5310J-34788D01*
G01X22155100Y23184900D01*
X22159100Y23186300D01*
X22171600Y23197700D01*
G03X22174800Y23205100I-6814J7338D01*
G01Y23403600D01*
G02X22177700Y23410600I10000J-42D01*
G01X22274400Y23507300D01*
G02X22281400Y23510200I7042J-7100D01*
G01X22408200D01*
G03X22415200Y23513100I-42J10000D01*
G01X22423900Y23521800D01*
G03X22426800Y23528800I-7100J7042D01*
G01Y23600600D01*
G02X22429700Y23607600I10000J-42D01*
G01X22514400Y23692300D01*
G02X22521400Y23695200I7042J-7100D01*
G01X22614800D01*
G03X22622200Y23698400I65J10006D01*
G01X22633700Y23710800D01*
X22635000Y23714600D01*
X22634900Y23716700D01*
G02X22680000Y23765200I45100J3281D01*
G01X22752000D01*
G02X22797200Y23720000I0J-45200D01*
G01Y23692100D01*
G02X22794300Y23685100I-10000J42D01*
G01X22789400Y23680200D01*
X22787900Y23676600D01*
Y23675300D01*
X22726200Y23613600D01*
X22722600Y23612100D01*
X22721300D01*
X22716900Y23607700D01*
G02X22709900Y23604800I-7042J7100D01*
G01X22558800D01*
G03X22551800Y23601900I42J-10000D01*
G01X22520100Y23570200D01*
G03X22517200Y23563200I7100J-7042D01*
G01Y23491400D01*
G02X22514300Y23484400I-10000J42D01*
G01X22452600Y23422700D01*
G02X22445600Y23419800I-7042J7100D01*
G01X22318800D01*
G03X22311800Y23416900I42J-10000D01*
G01X22268100Y23373200D01*
G03X22265200Y23366200I7100J-7042D01*
G01Y22702800D01*
G03X22268100Y22695800I10000J42D01*
G01X22278300Y22685600D01*
G03X22285300Y22682700I7042J7100D01*
G01X22420100D01*
G02X22452000Y22669500I-34J-45227D01*
G01X22457000Y22664500D01*
G02X22470200Y22632600I-32027J-31934D01*
G01Y22490000D01*
G37*
G36*
G01X21770700Y22316900D02*
X21772800Y22318100D01*
X21775500Y22321900D01*
X21778000Y22340300D01*
G03X21775200Y22348700I-9900J1367D01*
G01X21756200Y22367700D01*
G02X21753300Y22374700I7100J7042D01*
G01Y22791300D01*
G02X21756200Y22798300I10000J-42D01*
G01X21974400Y23016500D01*
G03X21977300Y23023500I-7100J7042D01*
G01Y23953800D01*
G03X21974500Y23960700I-9991J-36D01*
G02X22025500I25500J24300D01*
G03X22022700Y23953800I7191J-6936D01*
G01Y23004700D01*
G02X22019800Y22997700I-10000J42D01*
G01X21801600Y22779500D01*
G03X21798700Y22772500I7100J-7042D01*
G01Y22393500D01*
G03X21801600Y22386500I10000J42D01*
G01X21837600Y22350500D01*
G02X21840500Y22343500I-7100J-7042D01*
G01Y22330600D01*
X21844300Y22325400D01*
X21847500Y22324400D01*
G02X21770700Y22316900I-29675J-93093D01*
G37*
G36*
G01X20220500Y28907100D02*
X20220600Y28907000D01*
G03X20227500Y28904400I6723J7385D01*
G01X20241400Y28904500D01*
G03X20248200Y28907400I-240J9984D01*
G01X20248300D01*
G02X20293800Y28905200I21720J-22400D01*
G03X20301100Y28901700I7599J6486D01*
G01X20316100Y28901200D01*
G03X20323600Y28904300I255J10007D01*
G02X20305300Y28840300I51387J-49310D01*
G03X20300500Y28847000I-9814J-1962D01*
G01X20287700Y28854400D01*
G03X20279500Y28855300I-5093J-8597D01*
G02X20264500Y28854300I-9514J29704D01*
G01X20262600Y28854600D01*
X20258900Y28853900D01*
X20245600Y28845100D01*
G03X20241400Y28839000I5555J-8321D01*
G02X20220500Y28907100I-69388J15962D01*
G37*
G36*
G01X25195000Y28549800D02*
X25085400D01*
G02X25078400Y28552700I42J10000D01*
G01X24969700Y28661400D01*
G02X24966800Y28668400I7100J7042D01*
G01Y29024800D01*
G03X24956800Y29034800I-10000J0D01*
G01X24954400D01*
X24952100Y29034200D01*
X24951100Y29033700D01*
G02Y29096300I-16100J31300D01*
G01X24952100Y29095800D01*
X24954400Y29095200D01*
X24956800D01*
G03X24966800Y29105200I0J10000D01*
G01Y29144200D01*
G03X24963900Y29151200I-10000J-42D01*
G01X24918200Y29196900D01*
G03X24911200Y29199800I-7042J-7100D01*
G01X24422800D01*
G03X24415800Y29196900I42J-10000D01*
G01X24241600Y29022700D01*
G02X24234600Y29019800I-7042J7100D01*
G01X23727800D01*
G03X23720800Y29016900I42J-10000D01*
G01X23720100Y29016200D01*
G03X23717200Y29009200I7100J-7042D01*
G01Y29003100D01*
G03X23722400Y28994400I9985J64D01*
G01X23737900Y28985900D01*
G03X23748100Y28986200I4847J8742D01*
G01X23748200Y28986300D01*
G02Y28933700I16800J-26300D01*
G01X23748100Y28933800D01*
G03X23737900Y28934100I-5353J-8442D01*
G01X23722400Y28925600D01*
G03X23717200Y28916900I4785J-8764D01*
G01Y28830000D01*
G02X23626800I-45200J0D01*
G01Y29046600D01*
G02X23629700Y29053600I10000J-42D01*
G01X23656900Y29080800D01*
G03X23659800Y29087800I-7100J7042D01*
G01Y29125200D01*
G03X23656900Y29132200I-10000J-42D01*
G01X23632200Y29156900D01*
G03X23625200Y29159800I-7042J-7100D01*
G01X23413000D01*
G02Y29250200I0J45200D01*
G01X23662600D01*
G02X23669600Y29247300I-42J-10000D01*
G01X23747300Y29169600D01*
G02X23750200Y29162600I-7100J-7042D01*
G01Y29120200D01*
G03X23760200Y29110200I10000J0D01*
G01X24197200D01*
G03X24204200Y29113100I-42J10000D01*
G01X24378400Y29287300D01*
G02X24385400Y29290200I7042J-7100D01*
G01X24948600D01*
G02X24955600Y29287300I-42J-10000D01*
G01X25054300Y29188600D01*
G02X25057200Y29181600I-7100J-7042D01*
G01Y28705800D01*
G03X25060100Y28698800I10000J42D01*
G01X25115800Y28643100D01*
G03X25122800Y28640200I7042J7100D01*
G01X25195000D01*
G02Y28549800I0J-45200D01*
G37*
G36*
G01X20600700Y28524700D02*
G02X20569700Y28561200I-30729J5316D01*
G03X20589300Y28577800I-203J20111D01*
G02X20620300Y28541300I30729J-5316D01*
G03X20600700Y28524700I203J-20111D01*
G37*
G36*
G01X20681400Y28381500D02*
G02X20639100Y28356700I-11406J-29021D01*
G03X20626500Y28378100I-19937J2671D01*
G02X20668800Y28402900I11406J29021D01*
G03X20681400Y28381500I19937J-2671D01*
G37*
G36*
G01X20775500Y28086000D02*
G02X20743400Y28066600I-3155J-31036D01*
G03X20726800Y28094100I-18648J7504D01*
G02X20758900Y28113500I3155J31036D01*
G03X20775500Y28086000I18648J-7504D01*
G37*
G36*
G01X20212100Y27808400D02*
G02X20198400Y27763800I12924J-28374D01*
G03X20172900Y27771600I-17157J-10506D01*
G02X20186600Y27816200I-12924J28374D01*
G03X20212100Y27808400I17157J10506D01*
G37*
G36*
G01X22101200Y26542700D02*
X22206500D01*
G03X22215300Y26547800I72J10018D01*
G01X22223800Y26563200D01*
G03X22223600Y26573400I-8710J4931D01*
G01X22223500Y26573500D01*
G02X22276500I26500J16500D01*
G01X22276400Y26573400D01*
G03X22276200Y26563200I8510J-5269D01*
G01X22284700Y26547800D01*
G03X22293500Y26542700I8728J4918D01*
G01X22298800D01*
G03X22305700Y26545500I-36J9991D01*
G02Y26494500I24300J-25500D01*
G03X22298800Y26497300I-6936J-7191D01*
G01X22101200D01*
G03X22094300Y26494500I36J-9991D01*
G02Y26545500I-24300J25500D01*
G03X22101200Y26542700I6936J7191D01*
G37*
G36*
G01X20824000Y24007800D02*
X20824100Y24007900D01*
G03X20826300Y24018700I-7071J7065D01*
G01X20819200Y24036100D01*
G03X20810000Y24042300I-9245J-3792D01*
G01X20760000D01*
G02X20753000Y24045200I42J10000D01*
G01X20694800Y24103400D01*
G03X20683100Y24105200I-7073J-7050D01*
G02X20725100Y24147200I-44800J86800D01*
G03X20726900Y24135500I8850J-4627D01*
G01X20771800Y24090600D01*
G03X20778800Y24087700I7042J7100D01*
G01X20810000D01*
G03X20819200Y24093900I-45J9992D01*
G01X20826300Y24111300D01*
G03X20824100Y24122100I-9271J3735D01*
G01X20824000Y24122200D01*
G02X20960600I68300J69800D01*
G01X20960500Y24122100D01*
G03X20958300Y24111300I7071J-7065D01*
G01X20965400Y24093900D01*
G03X20974600Y24087700I9245J3792D01*
G01X20980300D01*
G02X20987300Y24084800I-42J-10000D01*
G01X21014000Y24058100D01*
G03X21020800Y24055200I7045J7097D01*
G02X21011500Y23985800I-877J-35206D01*
G01X21008900Y23986500D01*
X21003900Y23985100D01*
X20989700Y23970900D01*
G03X20987100Y23961600I7125J-7005D01*
G01Y23961500D01*
G02X20824000Y24007800I-94800J-23526D01*
G37*
G36*
G01X21534100Y22324400D02*
X21537300Y22325400D01*
X21541100Y22330600D01*
Y22769600D01*
G02X21544000Y22776600I10000J-42D01*
G01X21724700Y22957300D01*
G02X21731700Y22960200I7042J-7100D01*
G01X21800000D01*
G03X21807000Y22963100I-42J10000D01*
G01X21836000Y22992100D01*
G03X21838500Y23001800I-7113J7005D01*
G01X21833900Y23018800D01*
G03X21826600Y23025800I-9634J-2741D01*
G02X21815100Y23030900I8301J34233D01*
G03X21809000Y23032600I-5591J-8267D01*
G01X21803000Y23032400D01*
G03X21796400Y23029500I456J-9999D01*
G01X21795700Y23028800D01*
X21792100Y23027300D01*
X20973600D01*
G03X20964300Y23021000I-16J-9991D01*
G01X20957300Y23003700D01*
G03X20959800Y22992700I9313J-3668D01*
G02X20824800I-67500J-70700D01*
G03X20827300Y23003700I-6813J7332D01*
G01X20820300Y23021000D01*
G03X20811000Y23027300I-9284J-3691D01*
G01X20759000D01*
G02X20752000Y23030200I42J10000D01*
G01X20694800Y23087400D01*
G03X20683100Y23089200I-7073J-7050D01*
G02X20725100Y23131200I-44800J86800D01*
G03X20726900Y23119500I8850J-4627D01*
G01X20770800Y23075600D01*
G03X20777800Y23072700I7042J7100D01*
G01X20808900D01*
G03X20818200Y23078900I47J10005D01*
G01X20825300Y23096000D01*
G03X20823200Y23106900I-9213J3877D01*
G01X20823100Y23107000D01*
G02X20961500I69200J69000D01*
G01X20961400Y23106900D01*
G03X20959300Y23096000I7113J-7023D01*
G01X20966400Y23078900D01*
G03X20975700Y23072700I9253J3805D01*
G01X21771300D01*
G03X21778300Y23075600I-42J10000D01*
G01X21782500Y23079800D01*
G02X21789500Y23082700I7042J-7100D01*
G01X21803800D01*
G03X21810700Y23085500I-37J9993D01*
G02X21847900Y23092800I24317J-25481D01*
G01X21850200Y23091900D01*
X21855100Y23092400D01*
X21870900Y23103200D01*
G03X21875300Y23111500I-5597J8283D01*
G01Y24093800D01*
G03X21872500Y24100700I-9991J-36D01*
G02X21923500I25500J24300D01*
G03X21920700Y24093800I7191J-6936D01*
G01Y23016700D01*
G02X21917800Y23009700I-10000J42D01*
G01X21825800Y22917700D01*
G02X21818800Y22914800I-7042J7100D01*
G01X21750500D01*
G03X21743500Y22911900I42J-10000D01*
G01X21589400Y22757800D01*
G03X21586500Y22750800I7100J-7042D01*
G01Y22330600D01*
X21590300Y22325400D01*
X21593500Y22324400D01*
G02X21534100I-29700J-93100D01*
G37*
G36*
G01X24690500Y21672300D02*
X24676200D01*
G03X24669300Y21669500I37J-9992D01*
G02X24664900Y21724100I-24281J25521D01*
G03X24671000Y21722300I5731J8184D01*
G01X24677000Y21722600D01*
G03X24683600Y21725500I-455J9995D01*
G01X24720900Y21762800D01*
G03X24723800Y21769800I-7101J7042D01*
G01Y22104000D01*
G03X24720900Y22111000I-10001J-42D01*
G01X24272000Y22559900D01*
G03X24261300Y22562200I-7111J-7044D01*
G02X24272900Y22620500I-12695J32830D01*
G01X24275800Y22617700D01*
X24278400D01*
X24766300Y22129800D01*
G02X24769200Y22122800I-7099J-7042D01*
G01Y21751000D01*
G02X24766300Y21744000I-9999J42D01*
G01X24697500Y21675200D01*
G02X24690500Y21672300I-7042J7099D01*
G37*
G36*
G01X24590200Y21929200D02*
G02X24554200Y21965200I-35200J800D01*
G03X24561000Y21968100I-244J9995D01*
G01X24566400Y21973500D01*
G03X24569300Y21980500I-7101J7042D01*
G01Y22161500D01*
G03X24566400Y22168500I-10001J-42D01*
G01X24505500Y22229400D01*
G03X24498500Y22232300I-7042J-7101D01*
G01X24451100D01*
G03X24441800Y22226100I-43J-10011D01*
G03X24444000Y22215200I9261J-3803D01*
G01X24509800Y22149400D01*
G02X24512700Y22142400I-7099J-7042D01*
G01Y22056200D01*
G03X24515500Y22049300I9992J37D01*
G02X24464500I-25500J-24300D01*
G03X24467300Y22056200I-7192J6937D01*
G01Y22123600D01*
G03X24464400Y22130600I-10001J-42D01*
G01X24390600Y22204400D01*
G03X24383600Y22207300I-7042J-7101D01*
G01X24309700D01*
G02X24302700Y22210200I42J9999D01*
G01X23968200Y22544700D01*
G02X23965300Y22551700I7099J7042D01*
G01Y22663800D01*
G03X23962500Y22670700I-9992J-37D01*
G02X24013500I25500J24300D01*
G03X24010700Y22663800I7192J-6937D01*
G01Y22570500D01*
G03X24013600Y22563500I10001J42D01*
G01X24321500Y22255600D01*
G03X24328500Y22252700I7042J7101D01*
G01X24403000D01*
G03X24412300Y22258900I43J10011D01*
G03X24410100Y22269800I-9261J3803D01*
G01X24084200Y22595700D01*
G02X24081300Y22602700I7099J7042D01*
G01Y22613800D01*
G03X24078500Y22620700I-9992J-37D01*
G02X24132200Y22624000I25458J24301D01*
G03X24133200Y22610900I8036J-5975D01*
G01X24463500Y22280600D01*
G03X24470500Y22277700I7042J7101D01*
G01X24517300D01*
G02X24524300Y22274800I-42J-9999D01*
G01X24611800Y22187300D01*
G02X24614700Y22180300I-7099J-7042D01*
G01Y21961700D01*
G02X24611800Y21954700I-9999J42D01*
G01X24593100Y21936000D01*
G03X24590200Y21929200I7095J-7044D01*
G37*
G54D27*
X21000000Y24840000D03*
X21075000Y24935000D03*
X20537500Y26912500D03*
X20575000Y26829900D03*
X21150000Y26020000D03*
X20265000Y27260000D03*
X21200000Y27700000D03*
X20725000Y27665000D03*
X20540000Y28435000D03*
X20590000Y27502600D03*
X20865000Y28055000D03*
X20810000Y27650000D03*
X20710000Y27490000D03*
X20540000Y27570000D03*
X22532500Y26592500D03*
X21425000Y26525000D03*
X21569900Y27823800D03*
X21465100Y27655000D03*
X22125000Y27940000D03*
X21235000Y27815000D03*
X21973800Y28100000D03*
X22080000Y28240000D03*
X21597500Y28235000D03*
X23022500Y22320000D03*
X22930000Y26695000D03*
X23017400Y26850000D03*
X24744000Y27129800D03*
X24350000Y28580000D03*
X24605000Y29005000D03*
X24555000Y28790000D03*
X24505000Y28995000D03*
X24455000Y28790000D03*
X24705000Y29043800D03*
X24350000Y25170000D03*
X24752500Y25332500D03*
X24476000Y25180000D03*
G54D26*
X20300000Y25760000D03*
G54D24*
X25720000Y26565000D03*
G54D28*
X21927100Y29280000D03*
G54D25*
X20640000Y21142000D03*
X20892300Y22160000D03*
Y22414000D03*
Y22668000D03*
X20638300Y22160000D03*
Y22414000D03*
Y22668000D03*
X20640000Y21650000D03*
Y21396000D03*
X20892300Y23430000D03*
Y23684000D03*
X20638300Y22922000D03*
Y23430000D03*
Y23684000D03*
Y23938000D03*
X21146300Y25462000D03*
Y25716000D03*
X20892300Y24446000D03*
X21817800Y21977300D03*
X21563800D03*
X21400300Y25462000D03*
Y25716000D03*
X21908300Y25462000D03*
X22162300D03*
X22416300D03*
X22670300D03*
X22924300D03*
X25210000Y21650000D03*
Y21396000D03*
X25212300Y23430000D03*
Y23684000D03*
Y24446000D03*
%LPD*%
G75*
G54D10*
X20250000Y17850000D03*
Y29270000D03*
X25580000Y17850000D03*
Y29270000D03*
G54D20*
G01X20620000Y26210000D02*
Y26330000D01*
X20695500Y26405500D01*
G01X20380400Y26780200D02*
Y26549600D01*
X20524500Y26405500D01*
X20695500D01*
G01X20380400Y27563400D02*
X20379300Y27562300D01*
X20228000D01*
G01X20380400Y27563400D02*
Y27858400D01*
G01D02*
X20452000Y27930000D01*
X20628000D01*
G01X20489900Y26779900D02*
X20380700D01*
X20380400Y26780200D01*
G01Y27138600D02*
Y27563400D01*
G01Y26780200D02*
Y27138600D01*
G01X20884000Y26415000D02*
X21130000D01*
G01D02*
X21572000D01*
G01D02*
X21760000D01*
G01X20695500Y26405500D02*
X20705000Y26415000D01*
X20884000D01*
G01X21760000D02*
X21804000D01*
X21944000Y26555000D01*
Y26720000D01*
G01X22176000Y26278500D02*
X21802500D01*
X21760000Y26321000D01*
Y26415000D01*
G01X21944000Y27260000D02*
Y27795000D01*
G01D02*
Y27863000D01*
X21877000Y27930000D01*
X21700000D01*
G01X21944000Y27090000D02*
Y27260000D01*
G01X21010000Y28905000D02*
Y28865000D01*
G01X21600000Y28610000D02*
Y28660000D01*
G01D02*
X21458000D01*
X21358000Y28760000D01*
G01D02*
X21318000Y28800000D01*
X21052000D01*
X21010000Y28842000D01*
Y28865000D01*
G01X21294800Y28120500D02*
Y28323800D01*
X21296000Y28325000D01*
G01D02*
X21500000D01*
X21625000Y28450000D01*
X21700000D01*
G01X21296000Y28325000D02*
Y28496000D01*
G01D02*
X21335500Y28535500D01*
G01X20936000Y28595000D02*
X21208000D01*
X21296000Y28507000D01*
Y28496000D01*
G01X21700000Y28450000D02*
X22105000D01*
G01X21700000Y27930000D02*
X21600000D01*
G01X21700000Y28450000D02*
Y28125000D01*
G01D02*
Y27930000D01*
G01X20764000D02*
X21600000D01*
G01X20628000D02*
X20764000D01*
G01X22535000Y23315000D02*
X22435000D01*
X22420000Y23300000D01*
G01X23340000Y22485000D02*
X23284000Y22541000D01*
Y23065000D01*
G01D02*
X23214000Y23135000D01*
X22616000D01*
G01D02*
X22626000Y23125000D01*
Y22865000D01*
X22583500Y22822500D01*
X22407500D01*
G01X22424000Y23237400D02*
X22526400Y23135000D01*
X22616000D01*
G01X22424000Y23237400D02*
Y23296000D01*
X22420000Y23300000D01*
G01X22425000Y22490000D02*
Y22632500D01*
X22420000Y22637500D01*
G01X22752000Y23720000D02*
Y23706700D01*
X22742700Y23697400D01*
Y23694000D01*
X22706000Y23657300D01*
X22702600D01*
X22695300Y23650000D01*
X22536000D01*
X22472000Y23586000D01*
Y23506000D01*
X22431000Y23465000D01*
X22296000D01*
X22220000Y23389000D01*
Y22680000D01*
X22262500Y22637500D01*
X22420000D01*
G01X22752000Y23720000D02*
X22680000D01*
G01X22164000Y25218000D02*
X22152000Y25230000D01*
G01X23416000Y26246000D02*
X23648000D01*
G01X23344000Y26415000D02*
Y26352200D01*
X23345000Y26351200D01*
Y26317000D01*
X23416000Y26246000D01*
G01X22845000Y26265000D02*
X22831500Y26278500D01*
X22576000D01*
G01D02*
X22176000D01*
G01X23460000Y27400000D02*
X23464700Y27395300D01*
G01X23225000Y27010000D02*
X23176000Y26961000D01*
Y26790000D01*
X23252000Y26714000D01*
Y26700000D01*
G01X23400000Y26770000D02*
Y26832800D01*
X23360000Y26872800D01*
Y27071000D01*
X23201000Y27230000D01*
X23110000D01*
X23105000Y27225000D01*
G01X23800000Y27755000D02*
Y28308000D01*
X23728000Y28380000D01*
X23524000D01*
G01X23705000Y29065000D02*
Y29148000D01*
X23648000Y29205000D01*
X23413000D01*
G01X22796000Y28070000D02*
X23379000D01*
X23454000Y28145000D01*
X23510200D01*
G01X22160000Y28450000D02*
X22105000D01*
G01X24160000Y24780000D02*
Y24797800D01*
X24220000Y24857800D01*
Y25451000D01*
X24224000Y25455000D01*
G01X23756000Y25230000D02*
X23788000Y25198000D01*
Y25090000D01*
X23743000Y25045000D01*
X23705000D01*
G01X23648000Y26178000D02*
Y26246000D01*
G01X24696000Y26420000D02*
Y26550000D01*
X24636000Y26610000D01*
X24340000D01*
X24245000Y26515000D01*
X23804000D01*
X23648000Y26359000D01*
Y26246000D01*
G01X24696000Y26075000D02*
Y26420000D01*
G01X23856000Y26220000D02*
X23881000Y26195000D01*
X24436000D01*
G01D02*
X24450900D01*
X24575900Y26320000D01*
Y26434100D01*
G01X24990000Y25716000D02*
X24525000D01*
X24436000Y25805000D01*
Y26195000D01*
G01X24584000Y27850300D02*
X24323300D01*
X24183000Y27710000D01*
X24105000D01*
G01X25700000Y27770000D02*
X25620000Y27850000D01*
X25340000D01*
Y27849000D01*
X25251000Y27760000D01*
X24860000D01*
X24769700Y27850300D01*
X24584000D01*
G01X23870000Y26970000D02*
X23868200D01*
G01X23870000Y27050000D02*
X23868200D01*
G01X23821400Y27340000D02*
X23835000D01*
G01X25012000Y29060000D02*
Y29167000D01*
X24934000Y29245000D01*
X24400000D01*
X24220000Y29065000D01*
X23705000D01*
G01D02*
X23672000Y29032000D01*
Y28830000D01*
G01X24924000Y27985000D02*
X24811000D01*
X24732000Y28064000D01*
G01X24228000Y28295000D02*
X24561000D01*
X24732000Y28124000D01*
Y28064000D01*
G01X25585000Y26345000D02*
X25541000D01*
X25501000Y26305000D01*
G01X25181400Y26204600D02*
X25136000Y26250000D01*
X25120000D01*
G01X25195000Y28595000D02*
X25100000D01*
X25012000Y28683000D01*
Y29060000D01*
G54D11*
X20320000Y20490000D03*
X20520000Y20425000D03*
X20075000Y20495000D03*
X20160000Y20305000D03*
X20325000Y20785000D03*
X20565000Y21820000D03*
X20185000Y21355000D03*
X20465000Y21505000D03*
X20600000Y20850000D03*
X20505000Y20645000D03*
X20355000Y21135000D03*
X20090000Y22010000D03*
X20075000Y21555000D03*
X20070000Y21145000D03*
Y20780000D03*
X20250000Y21680000D03*
X20215000Y21984400D03*
X20485000Y22725000D03*
X20530000Y22495000D03*
X20260000Y23100000D03*
X20470000Y22365000D03*
X20250000Y22570000D03*
X20260000Y22865000D03*
X20270000Y23385000D03*
X20080000Y23330000D03*
X20085000Y22705000D03*
X20248000Y22140000D03*
X20092000Y22350000D03*
X20485000Y22960000D03*
X20480000Y23475000D03*
X20250000Y24130000D03*
X20092000Y23735000D03*
X20260000Y23680000D03*
X20270000Y24450000D03*
X20305000Y24620000D03*
X20095000Y24580000D03*
X20365000Y24750000D03*
X20084000Y24295000D03*
X20088000Y23955000D03*
X20500000Y23735000D03*
X20515000Y23980000D03*
X20405000Y25450000D03*
X20435000Y25175000D03*
X20565000Y25305000D03*
X20512000Y25105000D03*
X20285000Y25300000D03*
X20430000Y25000000D03*
X20480000Y26295000D03*
X20325000Y26290000D03*
X20125000Y26135000D03*
X20355000Y26125000D03*
X20085000Y26895000D03*
X20090000Y26995000D03*
X20545000Y27005000D03*
X20520000Y27665000D03*
Y27800000D03*
X20076700Y27620000D03*
X20096000Y27098600D03*
X20210000Y27340000D03*
X20170000Y26595000D03*
X20540000Y27110000D03*
X20524000Y27355000D03*
X20095000Y26750000D03*
X20080000Y27295000D03*
X20090000Y27485000D03*
X20245000Y27480000D03*
X20535000Y26565000D03*
X20330000Y26465000D03*
X20489900Y26779900D03*
X20190000Y27215000D03*
X20228000Y27562300D03*
X20137500Y28468000D03*
X20285000Y28285000D03*
X20305000Y27995000D03*
X20517300Y28352500D03*
X20508000Y28765000D03*
X20250000Y28975000D03*
X20508000Y28930000D03*
X20520000Y28170000D03*
Y28250000D03*
X20568000Y28870000D03*
X20368000Y27995000D03*
X20536000Y28640000D03*
X20190000Y28150000D03*
X21635000Y20515000D03*
X21105000Y20465000D03*
X20865000Y20590000D03*
X21880000Y20535000D03*
X21360000Y20580000D03*
X20800000Y20295000D03*
X21355000D03*
X21810000Y20290000D03*
X22035000Y21160000D03*
X22025000Y21305000D03*
X21805000Y21380000D03*
X21955000Y21480000D03*
X21935000Y21630000D03*
X21970000Y21895000D03*
X21690000Y21885000D03*
X21035000Y21715000D03*
X21395000Y21710000D03*
X21935000Y21790000D03*
X21865000Y21215000D03*
X20770000Y22050000D03*
X20830000Y21435000D03*
X20820000Y21650000D03*
X21275000Y21550000D03*
X21255000Y21840000D03*
X21885000Y20745000D03*
X20870000Y20940000D03*
X21375000Y21245000D03*
X21345000Y20920000D03*
X21905000Y21030000D03*
X20910000Y21185000D03*
X20685000Y21940000D03*
X21060000Y21525000D03*
X21585000Y20795000D03*
X20945000Y21935000D03*
X21440000Y21490000D03*
X21675000Y21425000D03*
Y21170000D03*
X21170000Y21135000D03*
X21020000Y20755000D03*
X21225000Y23125000D03*
X21425000Y23490000D03*
X21605000Y23320000D03*
X21420000Y23295000D03*
X21595000Y23120000D03*
X21948000Y23420000D03*
X21285000Y22065000D03*
X22035000Y22225000D03*
X21355000Y22355000D03*
X21705000Y23200000D03*
X21255000Y23460000D03*
X21620000Y22685000D03*
X20775000Y22555000D03*
X20765000Y23290000D03*
X21084000Y22995000D03*
X20765000Y22800000D03*
X21065000D03*
X21475000Y22465000D03*
X21645700Y22782500D03*
X21635000Y22485000D03*
X21935000Y22640000D03*
X21370000Y22725000D03*
X21948000Y22560000D03*
X21045000Y22260000D03*
X21948000Y23190000D03*
X21100000Y23430000D03*
X21520000Y23005000D03*
X21385000Y23145000D03*
X21035000Y23265000D03*
X22052000Y23140000D03*
X21700000Y23420000D03*
X21808000Y23310000D03*
X21260000Y23260000D03*
X21960000Y22735000D03*
X21220000Y22215000D03*
X21265000Y22580000D03*
X22048000Y23285000D03*
X21480000Y22840000D03*
X21035000Y22550000D03*
X21710000Y22397500D03*
X21715000Y22555000D03*
X21830000Y22560000D03*
X21620000Y22585000D03*
X21470000Y22640000D03*
X21835000Y23060000D03*
X21245000Y23675000D03*
X21948000Y23785000D03*
Y23595000D03*
X20990000Y24735000D03*
X21625000Y24070000D03*
X20770000Y23985000D03*
X21405000Y24320000D03*
X21724000Y24435000D03*
X21930000Y24860000D03*
X21520000Y24770000D03*
X21648000Y24635000D03*
X21324000Y24035000D03*
X21940000Y24495000D03*
X22036000Y24085000D03*
X21844000Y23905000D03*
X20770000Y23815000D03*
X21120000Y24620000D03*
X21140000Y24430000D03*
X21805000Y24105000D03*
X21095000Y23845000D03*
X21060000Y23655000D03*
X21005000Y23525000D03*
X21645000Y23755000D03*
X21832000Y23705000D03*
X21400000Y23715000D03*
X21824000Y23530000D03*
X21500000Y23915000D03*
X22056000Y23920000D03*
X21725000Y23900000D03*
X21760000Y24285000D03*
X21892000Y24645000D03*
X22050000Y24785000D03*
Y24925000D03*
X21440000Y24880000D03*
X21515000Y24430000D03*
X21305000Y24225000D03*
X21280000Y23870000D03*
X21130000Y24110000D03*
X21250000Y24485000D03*
X21300000Y24860000D03*
X20775000Y24590000D03*
X21364000Y24635000D03*
X21575000Y24925000D03*
X21948000Y23915000D03*
X21952000Y24285000D03*
X21505000Y24160000D03*
X21540000Y23605000D03*
X22048000Y23715000D03*
X21340000Y24765000D03*
X21060000Y24305000D03*
X21775000Y24925000D03*
X21795000Y24780000D03*
X21655000Y24835000D03*
X21190000Y24735000D03*
X22056000Y23525000D03*
X21704000Y23620000D03*
X21898000Y24125000D03*
X21020000Y24020000D03*
X22000000Y23985000D03*
X21272000Y25595000D03*
X21520000Y25545000D03*
X21260000Y25865000D03*
X21010000Y25595000D03*
X20920000Y25415000D03*
X21676000Y26182300D03*
X21530000Y25940000D03*
X20815000Y25340000D03*
X21156000Y25890000D03*
X21140000Y26177700D03*
X21565000Y26065000D03*
X20700000Y25410000D03*
X22005000Y25930000D03*
X21920000Y26145000D03*
X21308000Y26230000D03*
X21276000Y25950000D03*
X20688000Y26088700D03*
X20784000D03*
X21744000Y25905000D03*
X21780000Y26140000D03*
X20860000Y25940000D03*
X20865000Y25585000D03*
X20640000Y25775000D03*
X21750000Y25821500D03*
X21860000Y26360000D03*
X20969900Y26283800D03*
X20991500Y26023500D03*
X20768000Y25033500D03*
X21495000Y24985000D03*
X21575000Y26180000D03*
X20885000Y26090000D03*
X21130000Y26283800D03*
X20620000Y26210000D03*
X21230000Y27475000D03*
X21560000Y27170000D03*
X21192000Y27070000D03*
X21813700Y27140000D03*
X21731700Y27823300D03*
X21810000Y27750000D03*
X21448000Y26675000D03*
X21784000D03*
X21675000Y27085000D03*
X21320000Y27375000D03*
X20645000Y27290000D03*
X20985000Y27800000D03*
X20615000D03*
X21810000Y27435000D03*
X20648000Y27560000D03*
X21170000Y26510000D03*
X20889900Y26519900D03*
X21810000Y27545000D03*
X21160000Y27810000D03*
X21780000Y27665000D03*
X21140000Y27560000D03*
X21505000Y27550000D03*
X21480000Y27440000D03*
X21665000Y27445000D03*
X21640000Y27550000D03*
X21665000Y27665000D03*
X21415000Y27610000D03*
X21355000Y27720000D03*
X21510000Y27750000D03*
X21550000Y27665000D03*
X21255000Y27620000D03*
X21355000Y27510000D03*
X21585000Y27320000D03*
X21750000Y27315000D03*
X21415000Y27325000D03*
X21105000Y27680000D03*
X20670000Y26970000D03*
X20865000D03*
X21075000D03*
X21300000Y26975000D03*
X21560000Y26980000D03*
X21785000Y26975000D03*
X20765000Y26875000D03*
X21170000D03*
X20775000Y27090000D03*
X20975000D03*
X21450000Y27085000D03*
X21325000Y27170000D03*
X21105000Y27160000D03*
X20855000D03*
X20995000Y27295000D03*
X21230000Y27290000D03*
X21330000Y26875000D03*
X21790000Y26795000D03*
X21672000Y26790000D03*
X21055000Y26755000D03*
X20640000Y26700000D03*
X20850000Y26735000D03*
X21620000Y26675000D03*
X21552000Y26785000D03*
X20624000Y27690000D03*
X20824000Y27365000D03*
X20840000Y27555000D03*
X20990000Y27565000D03*
X21050000Y27415000D03*
X20965000Y26875000D03*
X20720000Y26550000D03*
X21090000Y26605000D03*
X21700000Y26580000D03*
X21528000Y26585000D03*
X21295000Y26570000D03*
Y26655000D03*
X20740300Y27805000D03*
X22030000Y27090000D03*
X20650000Y28785000D03*
X21920000Y29160000D03*
X21835000Y28065000D03*
X21452300Y28115700D03*
X21620000Y28330000D03*
X20990000Y28385000D03*
X20905000Y28300000D03*
X21095000Y28490000D03*
X21090000Y28302500D03*
X20870000Y28500000D03*
X21820000Y28920000D03*
X22020000Y28995000D03*
X21660000Y29250000D03*
X22030000Y29195000D03*
X22000000Y28560000D03*
X21405000Y28602300D03*
X21780000Y28330000D03*
X21175000Y28722300D03*
X21451700Y28392500D03*
X21844000Y28607700D03*
X21280000Y28675000D03*
X21705000Y28825000D03*
Y28720000D03*
X21920000Y29040200D03*
X21745000Y29140000D03*
X21825000Y29340000D03*
X21428000Y28531300D03*
X21340000Y28870000D03*
X21225000Y28150000D03*
X21355000Y28760000D03*
X21010000Y28865000D03*
Y28905000D03*
X21600000Y28660000D03*
Y28610000D03*
X20675000Y28260000D03*
X21450000D03*
X20752000Y28645000D03*
X21090000Y28895000D03*
X20696000Y28720000D03*
X21155000Y28900000D03*
X20640000Y28860000D03*
X20630000Y28117300D03*
X21600000Y28110000D03*
X21880000Y28130000D03*
X20812000Y28830000D03*
X21294800Y28120500D03*
X21335500Y28535500D03*
X21660000Y29440000D03*
X21885000D03*
X22320000Y20425000D03*
X22530000Y20405000D03*
X22695000Y20420000D03*
X22405000Y20300000D03*
X23250000Y20490000D03*
X22763700Y20535000D03*
X23020000Y20379800D03*
X22165000Y20500000D03*
X23170000Y20295000D03*
X23425000Y20400000D03*
X22435000Y20530000D03*
X22805000Y20370000D03*
X23075700Y20450000D03*
X23020000Y20510000D03*
X23355000Y20290000D03*
X22215000Y20295000D03*
X22615000Y20290000D03*
X22805000Y20295000D03*
X22810000Y20475000D03*
Y20595000D03*
X23020000Y20290000D03*
X22435000Y20890000D03*
X22505000Y20645000D03*
X22330000Y20690000D03*
X22520000Y20795000D03*
X22710000Y20760000D03*
X22805000Y20700000D03*
X22680000Y20880000D03*
X22320000Y20945000D03*
X22465000Y21420000D03*
X23375000Y21280000D03*
X23060000Y21380000D03*
X23400000Y21400000D03*
X23355000Y21135000D03*
X23455000Y21030000D03*
X23055000Y21850000D03*
X22920000Y21845000D03*
X23210000Y21570000D03*
X23230000Y21770000D03*
X23480000Y21635000D03*
X22985000Y21930000D03*
X23085000Y21740000D03*
X23310000Y22015000D03*
X23380000Y21775000D03*
X22770000Y21825000D03*
X23180000Y20675000D03*
X23025000Y20975000D03*
X23335000Y20895000D03*
X23295000Y21505000D03*
X23485000D03*
X23110000Y21500000D03*
X22990000Y21280000D03*
X23265000Y21250000D03*
X23130000Y21655000D03*
X23340000Y21645000D03*
X23460000Y21955000D03*
X23010000Y21595000D03*
X23000000Y21780000D03*
X23170000Y22020000D03*
X22980000Y22040000D03*
X22885000Y21975000D03*
X22950000Y21680000D03*
X23220000Y21380000D03*
X23070000Y21225000D03*
X22940000Y21185000D03*
X22840000Y21290000D03*
X22925000Y21470000D03*
X22805000Y21517300D03*
X22855000Y21660000D03*
X22846300Y21580000D03*
X22785000Y21632700D03*
X22845000Y21765000D03*
X22760000Y21720000D03*
X22845000Y21890000D03*
X22765000Y21920000D03*
X22785000Y21997300D03*
X22846300Y22055000D03*
X22805000Y21020000D03*
X22335000Y21500000D03*
X22590000Y21370000D03*
X22215000Y21420000D03*
X22090000Y21565000D03*
X22252000Y21730000D03*
X22090000Y21715000D03*
X22125000Y21890000D03*
X22415000Y21590000D03*
X22285000Y21615000D03*
X22412000Y21750000D03*
X22545000Y21935000D03*
X22543700Y21820000D03*
X22500000Y21655000D03*
X22590000Y21495000D03*
X22615000Y21560000D03*
X22620000Y21660000D03*
X22605000Y21762300D03*
X22600000Y21877700D03*
X22615000Y22020000D03*
X23140000Y21055000D03*
X22570000Y21120000D03*
X23255000Y21015000D03*
X22160000Y21035000D03*
X22655000Y20625000D03*
Y21015000D03*
X22450000Y21045000D03*
X23140000Y21160000D03*
X23485000Y21255000D03*
X22325000Y21320000D03*
X22460000Y21275000D03*
X22590000Y21245000D03*
X22930000Y21365000D03*
X23135000Y20895000D03*
X23020000Y20700000D03*
X22805000Y21400000D03*
X22072000Y22020000D03*
X23015000Y21110000D03*
X22695000Y21130000D03*
X23385000Y20655000D03*
X22320000Y21145000D03*
X22160000Y21265000D03*
X22145000Y20750000D03*
X22810000Y20845000D03*
X22464000Y22000000D03*
X22204000Y21980000D03*
X22340000Y22025000D03*
X22436000Y21870000D03*
X22296000Y21855000D03*
X23465000Y22210000D03*
X23330000D03*
X23120000Y22224600D03*
X22905000Y22080000D03*
X23465000Y22065000D03*
X22980000Y22165000D03*
X22915000Y22235000D03*
X22897700Y22140000D03*
X22572000Y22115000D03*
X22224000D03*
X22560000Y22370000D03*
X22490000Y22310000D03*
X22570000Y22205000D03*
X22372000Y22260000D03*
X22125000Y22175000D03*
X23356000Y23395000D03*
X23505000Y23060000D03*
X23364000Y23510000D03*
X22500000Y22230000D03*
X22588000Y22485000D03*
X22544000Y22440000D03*
X22422300Y22375000D03*
X22284000Y22380000D03*
X22210000Y22560000D03*
X22192000Y23485000D03*
X22545000Y23435000D03*
X22755000Y23490000D03*
X23340000Y23190000D03*
X22290000Y22750000D03*
X22200000Y22240000D03*
X22064000Y22610000D03*
X23396000Y23275000D03*
X23475000Y23270000D03*
X22360000Y22450000D03*
X22456000Y22125000D03*
X22316000Y22175000D03*
X22148000Y23370000D03*
X23492000Y23155000D03*
X22315000Y22820000D03*
X22310000Y23350000D03*
X22144000Y23240000D03*
X23075000Y22120000D03*
X22424000Y23237400D03*
X22420000Y23300000D03*
X22535000Y23315000D03*
X22407500Y22822500D03*
X23420000Y23045000D03*
X23340000Y22485000D03*
X22425000Y22490000D03*
X22420000Y22637500D03*
X22150000Y23150000D03*
X22872500Y23247500D03*
X22928000Y23257500D03*
X23036000Y24890000D03*
X23320000Y24625000D03*
X23392000Y24825000D03*
X23380000Y24125000D03*
X22995000Y24495000D03*
X23472000Y23995000D03*
X22565000Y24880000D03*
X22840000Y24645000D03*
X23360000Y24030000D03*
X22436000Y24225000D03*
X22200000Y23650000D03*
X23236000Y24710000D03*
X23384000Y23665000D03*
X23356000Y23830000D03*
X22645000Y23945000D03*
X23000000Y24360000D03*
X22708000Y24385000D03*
X22592000Y24500000D03*
X22575000Y24660000D03*
X22420000Y24645000D03*
X22424000Y24400000D03*
X22256000Y23545000D03*
X22188000Y24235000D03*
X22172000Y24480000D03*
X22125000Y24640000D03*
X22312000Y24915000D03*
X22784000Y23945000D03*
X22892000Y23675000D03*
X22415000Y23730000D03*
X22650000Y23570000D03*
X22550000Y23520000D03*
X22405000Y23945000D03*
X22975000Y23875000D03*
X22196000Y23815000D03*
X22192000Y23950000D03*
X23150000Y24810000D03*
X22608000Y24305000D03*
X22784000Y24215000D03*
X22412000Y24080000D03*
X22608000Y24085000D03*
X22768000Y24080000D03*
X22320000Y24800000D03*
X22705000Y24770000D03*
X22545000Y23715000D03*
X22510000Y23935000D03*
X22788000Y23790000D03*
X22592000Y23795000D03*
X22400000Y23840000D03*
X22184000Y24085000D03*
X23392000Y24555000D03*
X22504000Y23820000D03*
X22712000Y23850000D03*
X22788000Y24500000D03*
X22752000Y23720000D03*
X22680000D03*
X22100000Y24295000D03*
X22500000Y24340000D03*
X22416300Y24881300D03*
X23222500Y24070000D03*
X23292500Y24055000D03*
X23400000Y24700000D03*
X23172000Y24145000D03*
X23122500Y24230000D03*
X23006500Y24153500D03*
X23020000Y23981500D03*
X22295000Y23745000D03*
Y23665000D03*
X22644000Y24562500D03*
X22520000Y24780000D03*
X22968000Y23775000D03*
X23500000Y24870000D03*
X23073000Y24290000D03*
Y23570000D03*
X23022500Y23679500D03*
X22780000Y25580000D03*
X23055000Y25410000D03*
X22116000Y25948700D03*
X22895000Y25075000D03*
X23335000Y25010000D03*
X23100000Y25050000D03*
X22228000Y25955000D03*
X22965700Y25970000D03*
X22060000Y26350000D03*
X22908000Y26370000D03*
X22724000Y26132500D03*
X23411400Y25880000D03*
X22510000Y26346300D03*
X23276000Y26360000D03*
X23272000Y26255000D03*
X23184000Y26310000D03*
X23128000Y26360000D03*
Y26250000D03*
X23164000Y26095000D03*
X22800000Y26350000D03*
X22308500Y26140000D03*
X22585000Y26405000D03*
X22628000Y25955000D03*
X22828000D03*
X22456000Y25950000D03*
X22345000Y25035000D03*
X22715000Y25070000D03*
X23349000Y25969000D03*
X23435000Y26022500D03*
X22374900Y25875000D03*
X22564000Y25805000D03*
X22391000Y26355000D03*
X23344000Y26415000D03*
X23416000Y26246000D03*
X22175000Y26235000D03*
X22575000Y26220000D03*
X22845000Y26265000D03*
X23055000Y26035000D03*
X22895000Y26150000D03*
X22563800Y26135000D03*
X22169400Y26155600D03*
X22900000Y26570000D03*
X22261300Y27660000D03*
X22227700Y27165000D03*
X23352300Y26721700D03*
X22120000Y27115000D03*
X23512700Y26530000D03*
X22132000Y26460000D03*
X22765000Y26574800D03*
X23110000Y27630000D03*
X22261300Y27565000D03*
X22255300Y27445000D03*
X23480000Y27300000D03*
X23510000Y27140000D03*
X23495000Y26815000D03*
X23295000Y27690000D03*
X23400000D03*
X23295000Y27500000D03*
X23400000D03*
X23345000Y27595000D03*
X23020000Y27825000D03*
X23316000Y26755000D03*
X23428000Y27040000D03*
X23420000Y27100000D03*
X22890300Y26880000D03*
X23005300Y26710000D03*
X23027800Y26930900D03*
X23045000Y27304300D03*
X23430000Y27170000D03*
X23120000Y27305000D03*
X23380000D03*
X22495000Y27550000D03*
Y27660000D03*
X22494500Y27435000D03*
Y27340000D03*
Y27245000D03*
X22700000Y27780000D03*
X22704000Y27665000D03*
Y27550000D03*
X22720000Y27395000D03*
X22672000Y27235000D03*
X22532000Y27100000D03*
X23024000Y27510000D03*
X22104000Y26967500D03*
X22365000Y26700000D03*
X22560000Y26705000D03*
X22390000Y26592500D03*
X22680000Y26465000D03*
X22480000Y26500000D03*
X23195000Y26645000D03*
X22070000Y26520000D03*
X22330000D03*
X22304000Y27150000D03*
X22237500Y27052500D03*
X22504000Y27805000D03*
X22452000Y27180000D03*
X22428000Y27780000D03*
X22610000Y27230000D03*
X22564000Y27865000D03*
X23460000Y27400000D03*
X23115000Y27480000D03*
X22375000Y27225000D03*
Y27855000D03*
X22670000Y27295000D03*
X22655000Y27860000D03*
X23045000Y26590000D03*
X23225000Y27010000D03*
X23252000Y26700000D03*
X23194800Y26555100D03*
X23400000Y26770000D03*
X23105000Y27225000D03*
X22235400Y27795000D03*
X22177600Y26717600D03*
X22119700Y27307700D03*
X23290000Y29317300D03*
X22615000Y28250000D03*
X22130000Y28625000D03*
X23295000Y28225000D03*
X22372000Y28595000D03*
X22970000Y29255000D03*
X22790000Y29190000D03*
X22385000Y29245000D03*
X22595000Y29295000D03*
X22095000Y28995000D03*
X23305000Y28005000D03*
X22072000Y28100000D03*
X22475000Y29080200D03*
X23425000Y28315000D03*
X22197500Y28685000D03*
X22385200D03*
X22710000Y28250000D03*
X22525000Y28355000D03*
X22620000D03*
X22920000Y28365000D03*
X22525000Y28245000D03*
X22710000Y28355000D03*
X22890000Y28290000D03*
X22380000Y28285000D03*
X22167300Y28290000D03*
X22170000Y28970000D03*
X22360000Y29095000D03*
X23100000Y29015000D03*
X23295000Y29020000D03*
X23100000Y28910000D03*
X23295000D03*
X23195000Y29020000D03*
X23200000Y28910000D03*
X23225000Y28600000D03*
Y28700000D03*
X23132000Y28160000D03*
X22520000Y28740000D03*
X22505000Y28605000D03*
X22610000Y28555000D03*
X22980000Y28710000D03*
X22945000Y28905000D03*
X22755000D03*
X22685000Y29035000D03*
X22965000Y29045000D03*
X22830000Y29040000D03*
X22245000Y28140000D03*
Y27940000D03*
X22140000Y28035000D03*
X22390000Y28185000D03*
X22157600Y29097700D03*
X23413000Y29205000D03*
X23510200Y28145000D03*
X22715000Y28070000D03*
X23100000Y29180000D03*
X23072000Y28725000D03*
X22770000Y28580000D03*
X22860000D03*
X23135000Y28275000D03*
Y28367000D03*
X22105000Y28450000D03*
X22160000D03*
X22468000Y28515000D03*
X22427600Y28092700D03*
X23285000Y29440000D03*
X22970000D03*
X22590000Y29445000D03*
X23225000Y29375000D03*
X22450000Y29455000D03*
X22205000Y29450000D03*
X22480000Y29345000D03*
X23730000Y20400000D03*
X23540000Y20515000D03*
X24800000Y20430000D03*
X24105000Y20340000D03*
X24235000Y20480000D03*
X23820000Y20530000D03*
X24970000Y20495000D03*
X24580000Y20305000D03*
X24305000D03*
X23860000D03*
X23545000Y20300000D03*
X24130000Y22045000D03*
X24755000Y21175000D03*
X24590000Y21230000D03*
X23975000Y21690000D03*
X24820000Y22005000D03*
X23795000Y21160000D03*
X23585000Y21145000D03*
X24045000Y21205000D03*
X23890000Y21065000D03*
X23865000Y21560000D03*
X23630000Y21635000D03*
X23535000Y21880000D03*
X23700000Y21505000D03*
X23795000Y21370000D03*
X23995000Y21510000D03*
X24020000Y21920000D03*
X23920000Y21855000D03*
X23820000Y21755000D03*
X23675000Y21785000D03*
X23820000Y21935000D03*
X23655000D03*
X23520000Y21775000D03*
X24672000Y21835000D03*
X24832000D03*
X24400000Y21745000D03*
X24340000Y21795000D03*
X24960000Y21725000D03*
X24305000Y21060000D03*
X23695000Y21260000D03*
X23690000Y21040000D03*
X24945000Y20775000D03*
X24596000Y21625000D03*
X24730000Y21630000D03*
X24800000Y21460000D03*
X24925000Y21005000D03*
X24075000Y21365000D03*
X24335000Y21260000D03*
X23580000Y21345000D03*
X24475000Y20800000D03*
X24330000Y20620000D03*
X24170000Y20645000D03*
X23930000Y20670000D03*
X23675000Y20665000D03*
X24565000Y20700000D03*
X24770000Y20650000D03*
X24740000Y20935000D03*
X24360000Y20940000D03*
X24592000Y21475000D03*
X24070000Y20890000D03*
X23805000Y20895000D03*
X23910000Y21270000D03*
X23555000Y20895000D03*
X24888000Y21345000D03*
X24912000Y21180000D03*
X24732000Y21330000D03*
X24516000Y21360000D03*
X24224000Y21370000D03*
X24884000Y21620000D03*
X24530000Y21745000D03*
X24555000Y21930000D03*
X24490000Y22025000D03*
X24645000Y21695000D03*
X24150000Y21550000D03*
X24315000Y22000000D03*
X24220000Y21610000D03*
X23840000Y22215000D03*
X24544000Y22150000D03*
X24664000Y22080000D03*
X24108000Y22505000D03*
X23525000Y22155000D03*
X24128000Y22180000D03*
X24440000Y22110000D03*
X23610000Y22075000D03*
X24236000Y23315000D03*
X24225000Y23100000D03*
X24484000Y22455000D03*
X24644000Y22320000D03*
X24624000Y22475000D03*
X23928000Y23500000D03*
X23852000Y23295000D03*
X24228000Y22225000D03*
X24776000Y22210000D03*
X24240000Y23510000D03*
X23676000Y23360000D03*
X23684000Y23015000D03*
Y23165000D03*
X23585000Y22485000D03*
X23816000Y23135000D03*
X24048000Y23245000D03*
X24112000Y23030000D03*
X23684000Y23510000D03*
X23930000Y22075000D03*
X24484000Y22305000D03*
X23936000Y22535000D03*
X23784000Y22505000D03*
X23985000Y22230000D03*
X24340000Y22290000D03*
X24660000Y22625000D03*
X23570000Y22995000D03*
X24075000Y23435000D03*
X23675000Y22230000D03*
X23735000Y22120000D03*
X23580000Y23275000D03*
X23530000Y22540000D03*
X23592000Y23120000D03*
X23812000Y23005000D03*
X23972000Y23065000D03*
X23520000Y23455000D03*
X24848000Y22850000D03*
X24836000Y22975000D03*
X24104000Y22645000D03*
X24470000Y23305000D03*
X23988000Y22695000D03*
X24248600Y22595000D03*
X24470000Y22816400D03*
X24148000Y22895000D03*
X24255000Y22935000D03*
X24020000Y22945000D03*
X23908000Y23950000D03*
X24104000Y23990000D03*
X24244000Y23950000D03*
X24248000Y24080000D03*
X23604000Y23960000D03*
X23612000Y24130000D03*
X24335000Y24530000D03*
X24008000Y23655000D03*
X24088000Y24135000D03*
X23528000Y24415000D03*
X23784000Y24025000D03*
X24105000Y24550000D03*
X24416000Y24775000D03*
X24910000Y23550000D03*
X24244000Y23815000D03*
X23764000D03*
X23524000D03*
X23805000Y23655000D03*
X24244000Y23645000D03*
X24610000Y24530000D03*
X24780000Y24715000D03*
X23608000Y23670000D03*
X23605000Y24895000D03*
X24012000Y23820000D03*
X24655000Y24770000D03*
X24292000Y24775000D03*
X24790000Y24525000D03*
X24550000Y24655000D03*
X24210000D03*
X24915000Y24620000D03*
X23803800Y24947100D03*
X24390000Y23825000D03*
X23816000Y24765000D03*
X24024300Y24772000D03*
X23672000Y24770000D03*
X23525000Y24775200D03*
X23899900Y24934900D03*
X24537500Y24130000D03*
X24485000Y24190000D03*
X24160000Y24780000D03*
X24385000Y24070000D03*
X24548000Y25610000D03*
X23600000Y25055000D03*
X23837300Y26372300D03*
X24772500Y25790000D03*
X24164000Y25587500D03*
X24007700Y25120000D03*
X24724000Y25615000D03*
X24775000Y24980000D03*
X23832000Y25435000D03*
X24835000Y26250000D03*
X23868000Y25915000D03*
X24020000Y25300000D03*
X23630000Y26010000D03*
X23900000Y25690000D03*
X23560000Y25655000D03*
X23972000Y25232500D03*
X23970000Y25234500D03*
X24065000Y25355000D03*
X23705000Y25045000D03*
X23696000Y26019800D03*
X23997700Y25868300D03*
X24448900Y25650000D03*
X24175000Y25683100D03*
X23780000Y25920000D03*
X23988000Y25980000D03*
X24321900Y25687700D03*
X24756000Y26420000D03*
X23648000Y26178000D03*
Y26246000D03*
X24696000Y26075000D03*
X23856000Y26220000D03*
X24065000Y26440000D03*
X24320000Y26438500D03*
X24450000D03*
X23912300Y26585000D03*
X24125000Y26595000D03*
X23614700Y26830000D03*
X24933500Y27090000D03*
X24115000Y27045000D03*
X23600000Y27075000D03*
X23609900Y27005000D03*
X23675000Y26594800D03*
X24290000Y27105000D03*
X24800000Y27073700D03*
X24668000Y27070000D03*
X24295000Y27200000D03*
X24525000Y27455000D03*
X24420000D03*
X24924700Y27160000D03*
X24508000Y27050000D03*
X24652000Y26695000D03*
X24588000Y26780000D03*
X24480000Y26700000D03*
X24390000Y27735000D03*
X23700000Y27840000D03*
X23668000Y27585000D03*
X23776000Y27560000D03*
X23780000Y27490000D03*
X23805000Y26585000D03*
X23555000Y26580000D03*
X23670000Y26500000D03*
X23895000Y27460000D03*
X23990000Y27370000D03*
X24100000Y27255000D03*
X24120000Y27615000D03*
X24690000Y27450000D03*
X24815000Y27400000D03*
X24590000Y27720000D03*
X24715000Y27715000D03*
X23870000Y26825000D03*
X24264000Y27450000D03*
X24581300Y27790000D03*
X23800000Y27755000D03*
X24105000Y27710000D03*
X23870000Y26970000D03*
X23835000Y27340000D03*
X23870000Y27050000D03*
X24815000Y27525000D03*
X24632400Y27569700D03*
X24915000Y27417300D03*
X24575900Y26434100D03*
X24156000Y29175000D03*
X23980000Y28965000D03*
X24193300Y29270000D03*
X23570000Y29075000D03*
X24540000Y29160000D03*
X24910200Y28075000D03*
X23630000Y28275000D03*
X24264000Y27975000D03*
X24136000Y28010000D03*
X23695000Y27980000D03*
X23700000Y28080000D03*
X23904000Y28000000D03*
X23875000Y28960200D03*
X24112700Y28965000D03*
X23990000Y28815000D03*
X24335000Y28695000D03*
X24320000Y28480000D03*
X23885000Y28490000D03*
X23825000Y28575000D03*
X24655000Y28780000D03*
X24745000Y28630000D03*
X24740000Y28450000D03*
X24556000Y28365000D03*
X23915000Y29275000D03*
X24070000Y29280000D03*
X23750000Y29285000D03*
X24700000Y27975000D03*
X24128000Y28220000D03*
X24355000Y29325000D03*
X24925000Y28305000D03*
X24525000Y28650000D03*
X24580000Y28515000D03*
X24425000Y28445000D03*
X23524000Y28380000D03*
X24935000Y29065000D03*
X23672000Y28830000D03*
X24595000Y28055000D03*
X24228000Y28295000D03*
X24924000Y27985000D03*
X24865000Y29370000D03*
X24485000Y29365000D03*
X24805000Y29445000D03*
X24655000Y29425000D03*
X23648000Y29445000D03*
X25575000Y20510000D03*
X25320000Y20350000D03*
X25410000Y20485000D03*
X25745000Y20465000D03*
X25625000Y20305000D03*
X25135000D03*
X25044000Y21975000D03*
X25690000Y21150000D03*
X25450000Y20995000D03*
X25220000Y21960000D03*
X25350000Y21865000D03*
X25736000Y21615000D03*
X25545000Y21135000D03*
X25510000Y20790000D03*
X25008000Y21525000D03*
X25440000Y22000000D03*
X25445000Y21420000D03*
X25175000Y20885000D03*
X25245000Y20660000D03*
X24995000Y21840000D03*
X25735000Y21860000D03*
X25740000Y21315000D03*
X25750000Y20895000D03*
X25008000Y21080000D03*
X25460000Y21715000D03*
X25740000Y22100000D03*
X25716000Y23435000D03*
X25720000Y22920000D03*
X25428000Y22285000D03*
X25440000Y23285000D03*
X25435000Y22905000D03*
Y22590000D03*
X25750000Y23225000D03*
Y22625000D03*
X25740000Y22360000D03*
X25215000Y24675000D03*
X25090000Y24300000D03*
X25736000Y23825000D03*
X25100000Y23590000D03*
X25085000Y24055000D03*
X25490000Y24155000D03*
X25475000Y23750000D03*
X25205000Y24805000D03*
X25755000Y24335000D03*
X25750000Y24025000D03*
Y23625000D03*
X25576000Y24870000D03*
X25760000Y24550000D03*
X25485000Y24460000D03*
X25170000Y25015000D03*
X25185000Y25600000D03*
X24980000Y25030000D03*
X25110000Y26140000D03*
X24980000Y25290000D03*
X25148000Y25915000D03*
X25230000Y25270000D03*
X25308000Y25060000D03*
X25630000Y26013700D03*
X25364000Y26330000D03*
X25310000Y26255000D03*
X25408000D03*
X25700000Y26070000D03*
X25595000Y25525000D03*
X25490000Y25425000D03*
X25320000Y25705000D03*
X25435000Y25845000D03*
X25705000Y25745000D03*
X25750000Y26195000D03*
X25475000Y25990000D03*
X25505000Y25700000D03*
X25615000Y25895000D03*
X25090000Y25145000D03*
X25532000Y25085000D03*
X25115000Y26325000D03*
X25589500Y26425500D03*
X25135000Y26410000D03*
X25720000Y26295000D03*
X25585000Y26345000D03*
X25120000Y26250000D03*
X25315000Y26435000D03*
X25420000Y26440000D03*
X25047700Y26565000D03*
X24990000Y27595000D03*
X25750000Y27075000D03*
X25316000Y26820000D03*
X25075300Y27330000D03*
X25735000Y27520000D03*
X25755000Y27305000D03*
X25615000Y27085000D03*
X25575200Y27235000D03*
X25675000Y27220000D03*
X25415000Y27500000D03*
X25595000Y27515000D03*
X25304800Y27705000D03*
X25190000Y27500000D03*
X25043900Y26445000D03*
X25430000Y27350200D03*
X25610000Y26775000D03*
X25620000Y26505000D03*
X25700000Y27770000D03*
X25200000Y26655000D03*
X25516000Y27095000D03*
X25092000Y27010000D03*
X25175000Y27624700D03*
X25588000Y27310000D03*
X25085000Y27875000D03*
X25720000Y26835000D03*
X25725000Y28945000D03*
X25120000Y29190000D03*
X25005000Y29325000D03*
X25130000Y28995000D03*
X25115000Y28865000D03*
X25175000Y28800000D03*
X25180000Y28700000D03*
X25175000Y28500000D03*
X25005000Y28245000D03*
X25730000Y27915000D03*
X25725000Y28325000D03*
X25660000Y28295000D03*
X25250000Y28010000D03*
Y27945000D03*
X25290000Y29010000D03*
X25520000Y28940000D03*
X25345000Y28825000D03*
X25315000Y28605000D03*
X25470000Y28550000D03*
X25610000Y28765000D03*
X25300000Y28475000D03*
X25265000Y28140000D03*
X25425000D03*
X25430000Y27950000D03*
X25360000Y28040000D03*
X25195000Y28595000D03*
X25152000Y28435000D03*
X25245000Y29410000D03*
G54D21*
G01X20532300Y21396000D02*
X20640000D01*
G01X20532300Y21650000D02*
X20640000D01*
G01X20212100Y25672100D02*
X20300000Y25760000D01*
G01D02*
X20387900Y25847900D01*
G01X20087800Y29107800D02*
X20250000Y29270000D01*
G01D02*
X20412200Y29432200D01*
G01X20368000Y27995000D02*
X20456000Y28083000D01*
Y28560000D01*
X20536000Y28640000D01*
G01X20640000Y21288300D02*
Y21396000D01*
G01D02*
Y21503700D01*
G01Y21396000D02*
X20747700D01*
G01X20640000Y21542300D02*
Y21650000D01*
G01D02*
Y21757700D01*
G01Y21650000D02*
X20747700D01*
G01X21898000Y24125000D02*
Y23022000D01*
X21813500Y22937500D01*
X21737000D01*
X21563800Y22764300D01*
Y22231300D01*
G01X22000000Y23985000D02*
Y23010000D01*
X21776000Y22786000D01*
Y22380000D01*
X21817800Y22338200D01*
Y22231300D01*
G01X21835000Y23060000D02*
X21794800D01*
X21784800Y23050000D01*
X20764300D01*
X20638300Y23176000D01*
G01X20892300Y24192000D02*
Y24299700D01*
G01X20784600Y24192000D02*
X20892300D01*
G01D02*
X21000000D01*
G01X20638300D02*
X20765300Y24065000D01*
X20975000D01*
X21020000Y24020000D01*
G01X21146300Y25608300D02*
Y25716000D01*
G01D02*
Y25823700D01*
G01X21038600Y25716000D02*
X21146300D01*
G01D02*
X21254000D01*
G01X21146300Y25354300D02*
Y25462000D01*
G01D02*
Y25569700D01*
G01X21038600Y25462000D02*
X21146300D01*
G01D02*
X21254000D01*
G01X21750000Y25821500D02*
X22409400D01*
X22457900Y25870000D01*
X23250000D01*
X23349000Y25969000D01*
G01X22391000Y26355000D02*
X22347500Y26398500D01*
X21898500D01*
X21860000Y26360000D01*
G01X20991500Y26023500D02*
Y26263500D01*
X20971200Y26283800D01*
X20969900D01*
G01X20768000Y25033500D02*
X21406300D01*
X21454800Y24985000D01*
X21495000D01*
G01X20764000Y27930000D02*
X20772000Y27922000D01*
G01X20742000Y27805000D02*
X20740300D01*
G01X21355000Y28760000D02*
X21358000D01*
G01X20675000Y28260000D02*
X20725000Y28210000D01*
X21028000D01*
X21203000Y28035000D01*
X21376000D01*
X21408000Y28067000D01*
Y28218000D01*
X21450000Y28260000D01*
G01X20752000Y28645000D02*
Y28862500D01*
X20864500Y28975000D01*
X21073000D01*
X21088000Y28960000D01*
Y28897000D01*
X21090000Y28895000D01*
G01X20696000Y28720000D02*
Y28738000D01*
X20708000Y28750000D01*
Y28927500D01*
X20795500Y29015000D01*
X21140000D01*
X21155000Y29000000D01*
Y28900000D01*
G01X22770000Y28580000D02*
X22772000Y28582000D01*
Y28810000D01*
X22612000Y28970000D01*
Y29110000D01*
X22542000Y29180000D01*
X22086000D01*
X21996000Y29090000D01*
X20750000D01*
X20640000Y28980000D01*
Y28860000D01*
G01X20630000Y27932000D02*
X20628000Y27930000D01*
G01X22100000Y24295000D02*
Y23192000D01*
X22142000Y23150000D01*
X22150000D01*
G01X22644000Y24562500D02*
X22840000Y24366500D01*
Y23310000D01*
X22872500Y23277500D01*
Y23247500D01*
G01X22520000Y24780000D02*
X22589000D01*
X22925500Y24443500D01*
Y23734000D01*
X22943500Y23716000D01*
Y23313200D01*
X22928000Y23297700D01*
Y23257500D01*
G01X24220000Y21610000D02*
Y21814000D01*
X24256000Y21850000D01*
X24365000D01*
X24400000Y21885000D01*
Y22037000D01*
X24292000Y22145000D01*
X24239000D01*
X23752000Y22632000D01*
Y23187000D01*
X23604000Y23335000D01*
X23048000D01*
X23008000Y23375000D01*
Y23572000D01*
X22980000Y23600000D01*
Y23763000D01*
X22968000Y23775000D01*
G01X22416300Y24881300D02*
X22482100Y24947100D01*
X23803800D01*
G01X22500000Y24340000D02*
Y24685000D01*
X22416300Y24768700D01*
Y24881300D01*
G01X23222500Y24070000D02*
Y24455500D01*
X23392000Y24625000D01*
X23676000D01*
X23816000Y24765000D01*
G01X24024300Y24772000D02*
X23807300Y24555000D01*
X23462500D01*
X23292500Y24385000D01*
Y24055000D01*
G01X23672000Y24770000D02*
X23602000Y24700000D01*
X23400000D01*
G01D02*
X23322900D01*
X23172500Y24549600D01*
Y24185700D01*
X23172000Y24185200D01*
Y24145000D01*
G01X23525000Y24775200D02*
X23206100D01*
X23122500Y24691600D01*
Y24230000D01*
G01X23006500Y24153500D02*
X22977500Y24124500D01*
Y23959500D01*
X23002000Y23935000D01*
X23492000D01*
X23637000Y24080000D01*
X24117000D01*
X24167000Y24130000D01*
X24537500D01*
G01X24485000Y24190000D02*
X23584500D01*
X23376000Y23981500D01*
X23020000D01*
G01X22968000Y23775000D02*
X23083000Y23890000D01*
X24807500D01*
X24855500Y23938000D01*
X24958300D01*
G01X23073000Y23570000D02*
X24675000D01*
X24815000Y23430000D01*
X24958300D01*
G01X23500000Y24870000D02*
X23129000D01*
X23073000Y24814000D01*
Y24290000D01*
G01X23022500Y23679500D02*
X23083000Y23740000D01*
X24799500D01*
X24855500Y23684000D01*
X24958300D01*
G01X22715000Y25070000D02*
X22380000D01*
X22345000Y25035000D01*
G01X22374900Y25875000D02*
X22404900Y25905000D01*
X23159000D01*
X23276500Y26022500D01*
X23435000D01*
G01X24448900Y25650000D02*
X24408700D01*
X24388700Y25630000D01*
X23932600D01*
X23893800Y25591200D01*
X23049100D01*
X22924300Y25716000D01*
G01X23432300D02*
X23505000Y25788700D01*
Y25895100D01*
X23529900Y25920000D01*
X23780000D01*
G01X23178300Y25716000D02*
X23065800Y25828500D01*
X22634300D01*
X22610800Y25805000D01*
X22564000D01*
G01X23178300Y25716000D02*
X23417300Y25955000D01*
X23464000D01*
X23571300Y26062300D01*
X23905700D01*
X23988000Y25980000D01*
G01X22563800Y26135000D02*
X22603800Y26175000D01*
X22829800D01*
X22854800Y26150000D01*
X22895000D01*
G01X22563800Y26135000D02*
X22514700Y26184100D01*
X22197900D01*
X22169400Y26155600D01*
G01X22330000Y26520000D02*
X22070000D01*
G01X22157600Y29097700D02*
X22197800D01*
X22304000Y28991500D01*
Y27150000D01*
G01X22504000Y27805000D02*
X22540000Y27769000D01*
Y27181000D01*
X22411500Y27052500D01*
X22237500D01*
G01X22452000Y27180000D02*
Y27756000D01*
X22428000Y27780000D01*
G01X22610000Y27230000D02*
Y27819000D01*
X22564000Y27865000D01*
G01X22375000Y27225000D02*
Y27855000D01*
G01X22670000Y27295000D02*
Y27335200D01*
X22655000Y27350200D01*
Y27860000D01*
G01X24104000Y22645000D02*
Y22608000D01*
X24457000Y22255000D01*
X24512000D01*
X24592000Y22175000D01*
Y21967000D01*
X24555000Y21930000D01*
G01X24490000Y22025000D02*
Y22137100D01*
X24397100Y22230000D01*
X24315000D01*
X23988000Y22557000D01*
Y22695000D01*
G01X24645000Y21695000D02*
X24685200D01*
X24746500Y21756300D01*
Y22117500D01*
X24269000Y22595000D01*
X24248600D01*
G01X24470000Y23305000D02*
X25083300D01*
X25212300Y23176000D01*
G01X24470000Y22816400D02*
X24698600Y23045000D01*
X25089300D01*
X25212300Y22922000D01*
G01X24148000Y22895000D02*
X24207000D01*
X24557000Y22545000D01*
X25081300D01*
X25212300Y22414000D01*
G01X24255000Y22935000D02*
X24440000Y22750000D01*
X24533000D01*
X24578000Y22795000D01*
X25085300D01*
X25212300Y22668000D01*
G01Y22160000D02*
X25082300Y22290000D01*
X24808000D01*
X24712500Y22385500D01*
X24712000Y22385000D01*
X24636000D01*
Y22386000D01*
X24344500Y22677500D01*
X24287500D01*
X24020000Y22945000D01*
G01X24390000Y23825000D02*
X24430200D01*
X24445200Y23810000D01*
X25084300D01*
X25212300Y23938000D01*
G01X23970000Y25234500D02*
X23960000Y25224500D01*
Y24855000D01*
X23870000Y24765000D01*
X23816000D01*
G01X24024300Y24772000D02*
X24065000Y24812700D01*
Y25355000D01*
G01X23525000Y24775200D02*
X23589800Y24840000D01*
X23805000D01*
X23899900Y24934900D01*
G01X24958300Y24192000D02*
X24599500D01*
X24537500Y24130000D01*
G01X24958300Y24446000D02*
X24741000D01*
X24485000Y24190000D01*
G01X24385000Y24070000D02*
X25031000D01*
X25080300Y24119300D01*
X25139600D01*
X25212300Y24192000D01*
G01X23970000Y25234500D02*
X23972000Y25232500D01*
G01X23997700Y25868300D02*
X23874700Y25991300D01*
X23724500D01*
X23696000Y26019800D01*
G01X24175000Y25683100D02*
X24016900D01*
X23780000Y25920000D01*
G01X24321900Y25687700D02*
X24324000Y25689800D01*
Y25940000D01*
X24284000Y25980000D01*
X23988000D01*
G01X25210000Y21288300D02*
Y21396000D01*
G01D02*
Y21503700D01*
G01X25102300Y21396000D02*
X25210000D01*
G01D02*
X25317700D01*
G01X25210000Y21542300D02*
Y21650000D01*
G01D02*
Y21757700D01*
G01X25102300Y21650000D02*
X25210000D01*
G01D02*
X25317700D01*
G01X25212300Y24338300D02*
Y24446000D01*
G01D02*
Y24553700D01*
G01X25104600Y24446000D02*
X25212300D01*
G01D02*
X25320000D01*
G01X25417800Y29107800D02*
X25580000Y29270000D01*
G01X25417800Y29432200D02*
X25580000Y29270000D01*
G54D12*
X20640000Y21650000D03*
Y21396000D03*
Y21142000D03*
X20638300Y22160000D03*
Y22414000D03*
Y22668000D03*
Y22922000D03*
Y23176000D03*
Y23430000D03*
Y23684000D03*
Y23938000D03*
Y24192000D03*
Y24446000D03*
X21817800Y21977300D03*
X21563800D03*
X20892300Y22160000D03*
Y22414000D03*
Y22668000D03*
Y22922000D03*
Y23176000D03*
Y23430000D03*
X21817800Y22231300D03*
X21563800D03*
X20892300Y23684000D03*
Y23938000D03*
Y24192000D03*
Y24446000D03*
X21146300Y25462000D03*
X21400300D03*
X21654300D03*
X21908300D03*
X21146300Y25716000D03*
X21400300D03*
X21654300D03*
X21908300D03*
X22162300Y25462000D03*
X22416300D03*
X22670300D03*
X22924300D03*
X23178300D03*
X23432300D03*
X22162300Y25716000D03*
X22416300D03*
X22670300D03*
X22924300D03*
X23178300D03*
X23432300D03*
X24958300Y22160000D03*
Y22414000D03*
Y22668000D03*
Y22922000D03*
Y23176000D03*
Y23430000D03*
Y23684000D03*
Y23938000D03*
Y24192000D03*
Y24446000D03*
X24990000Y25462000D03*
Y25716000D03*
Y25970000D03*
X23686300Y25462000D03*
Y25716000D03*
X25210000Y21650000D03*
Y21396000D03*
Y21142000D03*
X25212300Y22160000D03*
Y22414000D03*
Y22668000D03*
Y22922000D03*
Y23176000D03*
Y23430000D03*
Y23684000D03*
Y23938000D03*
Y24192000D03*
Y24446000D03*
G54D22*
G01X20636000Y25070000D02*
X20638300Y25072300D01*
G01D02*
X20796000Y25230000D01*
X21712000D01*
G01X20474000Y29270000D02*
X20250000D01*
G01D02*
Y29057700D01*
G01X20638300Y24446000D02*
Y25072300D01*
G01X21654300Y25462000D02*
Y25287700D01*
X21712000Y25230000D01*
G01D02*
X22152000D01*
G01X21654300Y25716000D02*
Y25949300D01*
X21745000Y26040000D01*
X22173400D01*
X22174400Y26041000D01*
X22910000D01*
X23040000Y26171000D01*
Y26585000D01*
X23045000Y26590000D01*
G01X21295000Y26570000D02*
Y26655000D01*
G01D02*
X21520000Y26880000D01*
X22445000D01*
X22958200Y27393200D01*
X22995800D01*
G01X22295000Y23745000D02*
Y24644000D01*
X22164000Y24775000D01*
Y25218000D01*
G01X22295000Y23745000D02*
Y23665000D01*
G01X23756000Y25230000D02*
X22152000D01*
G01X22796000Y28070000D02*
Y27593000D01*
X22995800Y27393200D01*
G01X23116000D02*
X23475500D01*
X23476000Y27392700D01*
X23476500Y27393200D01*
X23768200D01*
X23821400Y27340000D01*
G01X22995800Y27393200D02*
X23116000D01*
G01X25092000Y27010000D02*
X25033400Y26951400D01*
X24591400D01*
X24480000Y26840000D01*
X24080000D01*
X23935000Y26695000D01*
X23508000D01*
X23368000Y26555000D01*
X23275100D01*
X23275000Y26555100D01*
X23194800D01*
G01X22860000Y28580000D02*
X22770000D01*
G01X22860000D02*
Y28538000D01*
X22796000Y28474000D01*
Y28070000D01*
G01X23135000Y28275000D02*
Y28367000D01*
G01D02*
X23141000D01*
X23309000Y28535000D01*
X23313000D01*
X23448000Y28670000D01*
X23883000D01*
X24024000Y28529000D01*
Y27865000D01*
X23988000Y27829000D01*
Y27575000D01*
X24268000Y27295000D01*
X24965200D01*
X25040200Y27220000D01*
X25288000D01*
X25328000Y27180000D01*
Y27019000D01*
X24940000Y26631000D01*
Y26165200D01*
X24990000Y26115200D01*
Y25970000D01*
G01Y25462000D02*
X24983000Y25455000D01*
X24224000D01*
G01X25210000Y21142000D02*
X25366000D01*
X25608000Y21384000D01*
Y24506000D01*
X25412000Y24702000D01*
Y25295000D01*
X25242000Y25465000D01*
X25228000D01*
X25225000Y25462000D01*
X24990000D01*
G01X24224000Y25455000D02*
X23981000D01*
X23756000Y25230000D01*
G01X25336000Y26155000D02*
X25346000Y26145000D01*
Y25927000D01*
X25135000Y25716000D01*
X24990000D01*
G01X23868200Y26970000D02*
Y27050000D01*
G01D02*
Y27293200D01*
X23821400Y27340000D01*
G01X25200000Y26655000D02*
Y26475000D01*
X25135000Y26410000D01*
G01X25720000Y26835000D02*
Y26295000D01*
G01X25501000Y26305000D02*
Y26205000D01*
X25451000Y26155000D01*
X25336000D01*
G01D02*
X25231000D01*
X25181400Y26204600D01*
G01X25516000Y27095000D02*
Y26755000D01*
X25416000Y26655000D01*
X25200000D01*
G01X25317000Y29270000D02*
X25580000D01*
G01D02*
Y29058000D01*
G54D13*
G01X25242500Y15451200D02*
X25256130Y15372500D01*
X25271700Y15451200D01*
X25287270Y15372500D01*
X25300900Y15451200D01*
G01X25371810Y15444640D02*
X25365970Y15448580D01*
X25359160Y15451200D01*
X25351370D01*
X25342610Y15447260D01*
X25335800Y15440710D01*
X25330930Y15432840D01*
X25327040Y15419720D01*
X25326070Y15407910D01*
X25328010Y15396110D01*
X25330930Y15388240D01*
X25336770Y15380370D01*
X25343590Y15375120D01*
X25350400Y15372500D01*
X25357210D01*
X25364030Y15375120D01*
X25369870Y15379060D01*
X25374730Y15384300D01*
G01X25408660Y15382990D02*
X25416450Y15376430D01*
X25425210Y15372500D01*
X25432990D01*
X25440780Y15376430D01*
X25446620Y15382990D01*
X25449540Y15392180D01*
X25447590Y15401360D01*
X25442730Y15409230D01*
X25433970Y15414470D01*
X25422290Y15417100D01*
X25415470Y15422340D01*
X25412550Y15431520D01*
X25414500Y15440710D01*
X25419370Y15447260D01*
X25426180Y15451200D01*
X25432990D01*
X25439810Y15448580D01*
X25445650Y15442020D01*
G01X25507800Y15451200D02*
X25500010Y15448580D01*
X25494170Y15442020D01*
X25490280Y15434150D01*
X25487360Y15423650D01*
X25486390Y15411850D01*
X25487360Y15400040D01*
X25490280Y15389550D01*
X25494170Y15381680D01*
X25500010Y15375120D01*
X25507800Y15372500D01*
X25515590Y15375120D01*
X25521430Y15381680D01*
X25525320Y15389550D01*
X25528240Y15400040D01*
X25529210Y15411850D01*
X25528240Y15423650D01*
X25525320Y15434150D01*
X25521430Y15442020D01*
X25515590Y15448580D01*
X25507800Y15451200D01*
G01X25598180Y15372500D02*
Y15451200D01*
X25562170Y15394800D01*
X25610830D01*
G01X25646710Y15438080D02*
X25652550Y15445950D01*
X25659360Y15449890D01*
X25667150Y15451200D01*
X25676880Y15448580D01*
X25683690Y15442020D01*
X25685640Y15434150D01*
X25684670Y15426280D01*
X25680770Y15419720D01*
X25661310Y15406600D01*
X25652550Y15397420D01*
X25646710Y15384300D01*
X25644760Y15372500D01*
X25685640D01*
G01X25801190D02*
Y15451200D01*
X25820650D01*
X25828440Y15447260D01*
X25834280Y15442020D01*
X25839150Y15434150D01*
X25843040Y15424970D01*
X25844010Y15411850D01*
X25843040Y15398730D01*
X25839150Y15389550D01*
X25834280Y15381680D01*
X25828440Y15376430D01*
X25820650Y15372500D01*
X25801190D01*
G01X25237230Y15641200D02*
Y15562500D01*
X25276170D01*
G01X25311070D02*
X25335400Y15641200D01*
X25359730Y15562500D01*
G01X25350970Y15590040D02*
X25319830D01*
G01X25392690Y15641200D02*
Y15584800D01*
X25396580Y15572990D01*
X25404370Y15565120D01*
X25414100Y15562500D01*
X25423830Y15565120D01*
X25431620Y15572990D01*
X25435510Y15584800D01*
Y15641200D01*
G01X25470410Y15562500D02*
Y15641200D01*
X25515190Y15562500D01*
Y15641200D01*
G01X25592910Y15634640D02*
X25587070Y15638580D01*
X25580260Y15641200D01*
X25572470D01*
X25563710Y15637260D01*
X25556900Y15630710D01*
X25552030Y15622840D01*
X25548140Y15609720D01*
X25547170Y15597910D01*
X25549110Y15586110D01*
X25552030Y15578240D01*
X25557870Y15570370D01*
X25564690Y15565120D01*
X25571500Y15562500D01*
X25578310D01*
X25585130Y15565120D01*
X25590970Y15569060D01*
X25595830Y15574300D01*
G01X25629760Y15562500D02*
Y15641200D01*
G01X25670640D02*
Y15562500D01*
G01Y15601850D02*
X25629760D01*
G01X25708460Y15562500D02*
X25749340Y15641200D01*
G01X25708460D02*
X25749340Y15562500D01*
G01X25788130Y15641200D02*
Y15562500D01*
X25827070D01*
G01X25873650Y15588730D02*
X25898950D01*
G01X25986410Y15634640D02*
X25980570Y15638580D01*
X25973760Y15641200D01*
X25965970D01*
X25957210Y15637260D01*
X25950400Y15630710D01*
X25945530Y15622840D01*
X25941640Y15609720D01*
X25940670Y15597910D01*
X25942610Y15586110D01*
X25945530Y15578240D01*
X25951370Y15570370D01*
X25958190Y15565120D01*
X25965000Y15562500D01*
X25971810D01*
X25978630Y15565120D01*
X25984470Y15569060D01*
X25989330Y15574300D01*
G01X26065110Y15634640D02*
X26059270Y15638580D01*
X26052460Y15641200D01*
X26044670D01*
X26035910Y15637260D01*
X26029100Y15630710D01*
X26024230Y15622840D01*
X26020340Y15609720D01*
X26019370Y15597910D01*
X26021310Y15586110D01*
X26024230Y15578240D01*
X26030070Y15570370D01*
X26036890Y15565120D01*
X26043700Y15562500D01*
X26050510D01*
X26057330Y15565120D01*
X26063170Y15569060D01*
X26068030Y15574300D01*
G01X26122400Y15562500D02*
Y15641200D01*
X26110720Y15625460D01*
G01Y15562500D02*
X26134080D01*
G01X26179690Y15578240D02*
X26185530Y15569060D01*
X26193310Y15563810D01*
X26202070Y15562500D01*
X26209860Y15563810D01*
X26217650Y15570370D01*
X26222510Y15578240D01*
X26223490Y15586110D01*
X26221540Y15595290D01*
X26214730Y15601850D01*
X26207910Y15604470D01*
X26199150D01*
G01X26207910D02*
X26213750Y15608410D01*
X26218620Y15614970D01*
X26220570Y15622840D01*
X26218620Y15630710D01*
X26213750Y15637260D01*
X26204990Y15641200D01*
X26196230Y15639890D01*
X26187470Y15634640D01*
G01X26279800Y15562500D02*
Y15641200D01*
X26268120Y15625460D01*
G01Y15562500D02*
X26291480D01*
G01X26340010Y15628080D02*
X26345850Y15635950D01*
X26352660Y15639890D01*
X26360450Y15641200D01*
X26370180Y15638580D01*
X26376990Y15632020D01*
X26378940Y15624150D01*
X26377970Y15616280D01*
X26374070Y15609720D01*
X26354610Y15596600D01*
X26345850Y15587420D01*
X26340010Y15574300D01*
X26338060Y15562500D01*
X26378940D01*
G01X26417730D02*
Y15641200D01*
X26442070D01*
X26449850Y15637260D01*
X26454720Y15632020D01*
X26456670Y15621520D01*
X26454720Y15611030D01*
X26448880Y15604470D01*
X26442070Y15600540D01*
X26417730D01*
G01X26442070D02*
X26456670Y15562500D01*
G01X26515900D02*
Y15641200D01*
X26504220Y15625460D01*
G01Y15562500D02*
X26527580D01*
G01X26651890D02*
Y15641200D01*
X26671350D01*
X26679140Y15637260D01*
X26684980Y15632020D01*
X26689850Y15624150D01*
X26693740Y15614970D01*
X26694710Y15601850D01*
X26693740Y15588730D01*
X26689850Y15579550D01*
X26684980Y15571680D01*
X26679140Y15566430D01*
X26671350Y15562500D01*
X26651890D01*
X20315000Y24972100D03*
Y25202100D03*
X22172500Y19832500D03*
X21927100Y29280000D03*
X22157100D03*
X23672500Y19832500D03*
X25540000Y24967900D03*
Y25197900D03*
G54D23*
G01X20177500Y17600000D02*
X25685000D01*
G03X25855000Y17795000I-14022J183827D01*
G01Y24500000D01*
G03X25745000Y24815000I-506023J0D01*
G02X25635000Y25130000I396023J315000D01*
G02X25745000Y25445000I506023J0D01*
G03X25855000Y25760000I-396023J315000D01*
G01Y29433800D01*
G03X25708800Y29580000I-146200J0D01*
G01X21585000D01*
Y29460000D01*
X21425000D01*
Y29250000D01*
X21335000D01*
Y29460000D01*
X20955000D01*
Y29250000D01*
X20865000D01*
Y29460000D01*
X20705000D01*
Y29580000D01*
X20151200D01*
G03X20005000Y29433800I0J-146200D01*
G01Y25760000D01*
G03X20115000Y25445000I506023J0D01*
G02X20225000Y25130000I-396023J-315000D01*
G02X20115000Y24815000I-506023J0D01*
G03X20005000Y24500000I396023J-315000D01*
G01Y17795000D01*
G03X20177500Y17600000I205417J7917D01*
G01X24353700Y15588000D02*
Y15397500D01*
X24448500D01*
G01X24539460Y15435600D02*
X24553680Y15413370D01*
X24572640Y15400670D01*
X24593970Y15397500D01*
X24612930Y15400670D01*
X24631890Y15416550D01*
X24643740Y15435600D01*
X24646110Y15454650D01*
X24641370Y15476870D01*
X24624780Y15492750D01*
X24608190Y15499100D01*
X24586860D01*
G01X24608190D02*
X24622410Y15508620D01*
X24634260Y15524500D01*
X24639000Y15543550D01*
X24634260Y15562600D01*
X24622410Y15578470D01*
X24601080Y15588000D01*
X24579750Y15584830D01*
X24558420Y15572120D01*
G01X24153160Y14886200D02*
Y15076700D01*
X24200560D01*
X24219520Y15067170D01*
X24233740Y15054470D01*
X24245590Y15035430D01*
X24255070Y15013200D01*
X24257440Y14981450D01*
X24255070Y14949700D01*
X24245590Y14927470D01*
X24233740Y14908420D01*
X24219520Y14895720D01*
X24200560Y14886200D01*
X24153160D01*
G01X24336550D02*
X24395800Y15076700D01*
X24455050Y14886200D01*
G01X24433720Y14952870D02*
X24357880D01*
G01X24586300Y15076700D02*
Y14886200D01*
G01X24531790Y15076700D02*
X24640810D01*
G01X24824200Y14886200D02*
X24729400D01*
Y15076700D01*
X24824200D01*
G01X24786280Y14984630D02*
X24729400D01*
G01X24967300Y14879850D02*
X24962560Y14883030D01*
Y14889370D01*
X24967300Y14892550D01*
X24972040Y14889370D01*
Y14883030D01*
X24967300Y14879850D01*
G01Y14965570D02*
X24962560Y14968750D01*
Y14975100D01*
X24967300Y14978270D01*
X24972040Y14975100D01*
Y14968750D01*
X24967300Y14965570D01*
G01X25303270Y15044950D02*
X25317490Y15064000D01*
X25334080Y15073530D01*
X25353040Y15076700D01*
X25376740Y15070350D01*
X25393330Y15054470D01*
X25398070Y15035430D01*
X25395700Y15016370D01*
X25386220Y15000500D01*
X25338820Y14968750D01*
X25317490Y14946520D01*
X25303270Y14914770D01*
X25298530Y14886200D01*
X25398070D01*
G01X25538800Y15076700D02*
X25519840Y15070350D01*
X25505620Y15054470D01*
X25496140Y15035430D01*
X25489030Y15010020D01*
X25486660Y14981450D01*
X25489030Y14952870D01*
X25496140Y14927470D01*
X25505620Y14908420D01*
X25519840Y14892550D01*
X25538800Y14886200D01*
X25557760Y14892550D01*
X25571980Y14908420D01*
X25581460Y14927470D01*
X25588570Y14952870D01*
X25590940Y14981450D01*
X25588570Y15010020D01*
X25581460Y15035430D01*
X25571980Y15054470D01*
X25557760Y15070350D01*
X25538800Y15076700D01*
G01X25729300Y14886200D02*
Y15076700D01*
X25700860Y15038600D01*
G01Y14886200D02*
X25757740D01*
G01X25919800D02*
X25936390Y14889370D01*
X25955350Y14898900D01*
X25967200Y14914770D01*
X25971940Y14937000D01*
X25967200Y14959220D01*
X25952980Y14978270D01*
X25931650Y14987800D01*
X25907950D01*
X25893730Y14994150D01*
X25881880Y15010020D01*
X25877140Y15032250D01*
X25884250Y15054470D01*
X25900840Y15070350D01*
X25919800Y15076700D01*
X25938760Y15070350D01*
X25955350Y15054470D01*
X25962460Y15032250D01*
X25957720Y15010020D01*
X25945870Y14994150D01*
X25931650Y14987800D01*
X25907950D01*
X25886620Y14978270D01*
X25872400Y14959220D01*
X25867660Y14937000D01*
X25872400Y14914770D01*
X25884250Y14898900D01*
X25903210Y14889370D01*
X25919800Y14886200D01*
G01X26079490Y14949700D02*
X26141110D01*
G01X26300800Y14886200D02*
Y15076700D01*
X26272360Y15038600D01*
G01Y14886200D02*
X26329240D01*
G01X26491300Y15076700D02*
X26472340Y15070350D01*
X26458120Y15054470D01*
X26448640Y15035430D01*
X26441530Y15010020D01*
X26439160Y14981450D01*
X26441530Y14952870D01*
X26448640Y14927470D01*
X26458120Y14908420D01*
X26472340Y14892550D01*
X26491300Y14886200D01*
X26510260Y14892550D01*
X26524480Y14908420D01*
X26533960Y14927470D01*
X26541070Y14952870D01*
X26543440Y14981450D01*
X26541070Y15010020D01*
X26533960Y15035430D01*
X26524480Y15054470D01*
X26510260Y15070350D01*
X26491300Y15076700D01*
G01X26650990Y14949700D02*
X26712610D01*
G01X26872300Y14886200D02*
Y15076700D01*
X26843860Y15038600D01*
G01Y14886200D02*
X26900740D01*
G01X27062800Y15076700D02*
X27043840Y15070350D01*
X27029620Y15054470D01*
X27020140Y15035430D01*
X27013030Y15010020D01*
X27010660Y14981450D01*
X27013030Y14952870D01*
X27020140Y14927470D01*
X27029620Y14908420D01*
X27043840Y14892550D01*
X27062800Y14886200D01*
X27081760Y14892550D01*
X27095980Y14908420D01*
X27105460Y14927470D01*
X27112570Y14952870D01*
X27114940Y14981450D01*
X27112570Y15010020D01*
X27105460Y15035430D01*
X27095980Y15054470D01*
X27081760Y15070350D01*
X27062800Y15076700D01*
G01X24200300Y16071700D02*
Y15881200D01*
G01X24145790Y16071700D02*
X24254810D01*
G01X24438200Y15881200D02*
X24343400D01*
Y16071700D01*
X24438200D01*
G01X24400280Y15979630D02*
X24343400D01*
G01X24531530Y15881200D02*
X24631070Y16071700D01*
G01X24531530D02*
X24631070Y15881200D01*
G01X24712550D02*
X24771800Y16071700D01*
X24831050Y15881200D01*
G01X24809720Y15947870D02*
X24733880D01*
G01X24912530Y15906590D02*
X24931490Y15890720D01*
X24952820Y15881200D01*
X24971780D01*
X24990740Y15890720D01*
X25004960Y15906590D01*
X25012070Y15928830D01*
X25007330Y15951050D01*
X24995480Y15970100D01*
X24974150Y15982800D01*
X24945710Y15989150D01*
X24929120Y16001850D01*
X24922010Y16024070D01*
X24926750Y16046300D01*
X24938600Y16062170D01*
X24955190Y16071700D01*
X24971780D01*
X24988370Y16065350D01*
X25002590Y16049470D01*
G01X25314860Y16071700D02*
X25371740D01*
G01X25343300D02*
Y15881200D01*
G01X25314860D02*
X25371740D01*
G01X25479290D02*
Y16071700D01*
X25588310Y15881200D01*
Y16071700D01*
G01X25674530Y15906590D02*
X25693490Y15890720D01*
X25714820Y15881200D01*
X25733780D01*
X25752740Y15890720D01*
X25766960Y15906590D01*
X25774070Y15928830D01*
X25769330Y15951050D01*
X25757480Y15970100D01*
X25736150Y15982800D01*
X25707710Y15989150D01*
X25691120Y16001850D01*
X25684010Y16024070D01*
X25688750Y16046300D01*
X25700600Y16062170D01*
X25717190Y16071700D01*
X25733780D01*
X25750370Y16065350D01*
X25764590Y16049470D01*
G01X25914800Y16071700D02*
Y15881200D01*
G01X25860290Y16071700D02*
X25969310D01*
G01X26057900Y15881200D02*
Y16071700D01*
X26117150D01*
X26136110Y16062170D01*
X26147960Y16049470D01*
X26152700Y16024070D01*
X26147960Y15998670D01*
X26133740Y15982800D01*
X26117150Y15973270D01*
X26057900D01*
G01X26117150D02*
X26152700Y15881200D01*
G01X26243660Y16071700D02*
Y15935180D01*
X26253140Y15906590D01*
X26272100Y15887550D01*
X26295800Y15881200D01*
X26319500Y15887550D01*
X26338460Y15906590D01*
X26347940Y15935180D01*
Y16071700D01*
G01X26424680Y15881200D02*
Y16071700D01*
X26486300Y15912950D01*
X26547920Y16071700D01*
Y15881200D01*
G01X26724200D02*
X26629400D01*
Y16071700D01*
X26724200D01*
G01X26686280Y15979630D02*
X26629400D01*
G01X26812790Y15881200D02*
Y16071700D01*
X26921810Y15881200D01*
Y16071700D01*
G01X27057800D02*
Y15881200D01*
G01X27003290Y16071700D02*
X27112310D01*
G01X27198530Y15906590D02*
X27217490Y15890720D01*
X27238820Y15881200D01*
X27257780D01*
X27276740Y15890720D01*
X27290960Y15906590D01*
X27298070Y15928830D01*
X27293330Y15951050D01*
X27281480Y15970100D01*
X27260150Y15982800D01*
X27231710Y15989150D01*
X27215120Y16001850D01*
X27208010Y16024070D01*
X27212750Y16046300D01*
X27224600Y16062170D01*
X27241190Y16071700D01*
X27257780D01*
X27274370Y16065350D01*
X27288590Y16049470D01*
G54D14*
X20300000Y25760000D03*
G54D15*
G01X20090000Y16222500D02*
Y14722500D01*
X27590000D01*
Y16222500D01*
X20090000D01*
G01X23840000D02*
Y14722500D01*
G01Y15222500D02*
X27590000D01*
G01Y15722500D02*
X23840000D01*
G01X25107600D02*
Y15222500D01*
X20375000Y28855000D03*
X20172000D03*
X20273500Y28093000D03*
G54D16*
X21535000Y29265000D03*
X20745000D03*
G54D17*
X22742500Y22615000D03*
X22842500D03*
X22942500D03*
X23042500D03*
X23142500D03*
Y22715000D03*
X23042500D03*
X22942500D03*
X22842500D03*
X22742500D03*
X23142500Y22815000D03*
X23042500D03*
X22942500D03*
X22842500D03*
X22742500D03*
X23142500Y22915000D03*
X23042500D03*
X22942500D03*
X22842500D03*
X22742500D03*
X23142500Y23015000D03*
X23042500D03*
X22942500D03*
X22842500D03*
X22742500D03*
G54D18*
G01X22468000Y28515000D02*
Y28133100D01*
X22427600Y28092700D01*
G01X25115000Y26325000D02*
X25241000D01*
X25296000Y26380000D01*
X25432000D01*
X25477500Y26425500D01*
X25589500D01*
G54D19*
G01X20638300Y24446000D02*
X20430000D01*
X20159000Y24175000D01*
Y22040400D01*
X20215000Y21984400D01*
G01X20300000Y25760000D02*
X20410200D01*
G01X20300000D02*
Y25870200D01*
G01Y25760000D02*
X20189800D01*
G01X20300000D02*
Y25649800D01*
G01X20190000Y27215000D02*
Y27197000D01*
X20232000Y27155000D01*
X20364000D01*
X20380400Y27138600D01*
G01X20190000Y28150000D02*
X20187500Y28147500D01*
Y27949500D01*
X20278600Y27858400D01*
X20380400D01*
G01X20885000Y26090000D02*
Y26414000D01*
X20884000Y26415000D01*
G01X21130000Y26283800D02*
Y26415000D01*
G01X21575000Y26180000D02*
Y26412000D01*
X21572000Y26415000D01*
G01X21944000Y26720000D02*
X21946400Y26717600D01*
X22177600D01*
G01X21944000Y27260000D02*
X22072000D01*
X22119700Y27307700D01*
G01X22235400Y27795000D02*
X21944000D01*
G01X22030000Y27090000D02*
X21944000D01*
G01X20772000Y27922000D02*
Y27835000D01*
X20742000Y27805000D01*
G01X20812000Y28830000D02*
Y28827000D01*
X20924000Y28715000D01*
Y28607000D01*
X20936000Y28595000D01*
G01X21880000Y28130000D02*
X21705000D01*
X21700000Y28125000D01*
G01X21600000Y28110000D02*
Y27930000D01*
G01X20630000Y28117300D02*
Y27932000D01*
G01X23420000Y23045000D02*
X23304000D01*
X23284000Y23065000D01*
G01X22575000Y26220000D02*
Y26277500D01*
X22576000Y26278500D01*
G01X22175000Y26235000D02*
Y26277500D01*
X22176000Y26278500D01*
G01X23856000Y26220000D02*
X23748500Y26112500D01*
X23294500D01*
X23217000Y26035000D01*
X23055000D01*
G01X23115000Y27480000D02*
Y27394200D01*
X23116000Y27393200D01*
G01X23460000Y27400000D02*
X23122800D01*
X23116000Y27393200D01*
G01X23072000Y28725000D02*
X23028000Y28769000D01*
Y29150000D01*
X23058000Y29180000D01*
X23100000D01*
G01X22715000Y28070000D02*
X22796000D01*
G01X24150000Y21550000D02*
X24149000D01*
X24104000Y21595000D01*
Y21919000D01*
X24185000Y22000000D01*
X24315000D01*
G01X25210000Y21142000D02*
X25208000Y21140000D01*
X25080000D01*
X24988000Y21232000D01*
Y21405000D01*
X24843000Y21550000D01*
X24150000D01*
G01X24756000Y26420000D02*
X24696000D01*
G01X24581300Y27790000D02*
Y27847600D01*
X24584000Y27850300D01*
G01X24815000Y27525000D02*
X24770000Y27570000D01*
X24680500D01*
X24680200Y27569700D01*
X24632400D01*
G01X25240300Y27417300D02*
X24915000D01*
G01X24935000Y29065000D02*
X25007000D01*
X25012000Y29060000D01*
G01X24595000Y28055000D02*
X24723000D01*
X24732000Y28064000D01*
G01X24655000Y29425000D02*
X23668000D01*
X23648000Y29445000D01*
G01X25240300Y27417300D02*
X25300000Y27477000D01*
Y27595000D01*
X25270300Y27624700D01*
X25175000D01*
G01X25240300Y27417300D02*
X25480700D01*
X25588000Y27310000D01*
G01X25085000Y27875000D02*
X25152000Y27942000D01*
Y28435000D01*
M02*
