G04 ================== begin FILE IDENTIFICATION RECORD ==================*
G04 Layout Name:  LAUNCHXL-CC1312R1.brd*
G04 Film Name:    WCS042D_LAUNCHXL-CC1312R1_D_paste_bottom*
G04 File Format:  Gerber RS274X*
G04 File Origin:  Cadence Allegro 17.2-S024*
G04 Origin Date:  Wed Oct 10 12:29:48 2018*
G04 *
G04 Layer:  DRAWING FORMAT/TITLE_BLOCK*
G04 Layer:  BOARD GEOMETRY/BOTTOM PASTE*
G04 Layer:  PIN/FILMMASKBOTTOM*
G04 Layer:  BOARD GEOMETRY/OUTLINE*
G04 *
G04 Offset:    (0.0000 0.0000)*
G04 Mirror:    No*
G04 Mode:      Positive*
G04 Rotation:  0*
G04 FullContactRelief:  No*
G04 UndefLineWidth:     0.0990*
G04 ================== end FILE IDENTIFICATION RECORD ====================*
%FSLAX25Y25*MOMM*%
%IR0*IPPOS*OFA0.00000B0.00000*MIA0B0*SFA1.00000B1.00000*%
%ADD10C,1.27*%
%ADD11C,.1*%
%ADD12C,.099*%
G75*
%LPD*%
G75*
G54D10*
X20215000Y18300000D03*
X25645000D03*
Y28505000D03*
G54D11*
G01X20090000Y16222500D02*
Y14722500D01*
X27590000D01*
Y16222500D01*
X20090000D01*
G01X23840000D02*
Y14722500D01*
G01Y15222500D02*
X27590000D01*
G01Y15722500D02*
X23840000D01*
G01X25107600D02*
Y15222500D01*
G54D12*
G01X20177500Y17600000D02*
X25685000D01*
G03X25855000Y17795000I-14022J183827D01*
G01Y24500000D01*
G03X25745000Y24815000I-506023J0D01*
G02X25635000Y25130000I396023J315000D01*
G02X25745000Y25445000I506023J0D01*
G03X25855000Y25760000I-396023J315000D01*
G01Y29433800D01*
G03X25708800Y29580000I-146200J0D01*
G01X21585000D01*
Y29460000D01*
X21425000D01*
Y29250000D01*
X21335000D01*
Y29460000D01*
X20955000D01*
Y29250000D01*
X20865000D01*
Y29460000D01*
X20705000D01*
Y29580000D01*
X20151200D01*
G03X20005000Y29433800I0J-146200D01*
G01Y25760000D01*
G03X20115000Y25445000I506023J0D01*
G02X20225000Y25130000I-396023J-315000D01*
G02X20115000Y24815000I-506023J0D01*
G03X20005000Y24500000I396023J-315000D01*
G01Y17795000D01*
G03X20177500Y17600000I205417J7917D01*
G01X23968700Y15397500D02*
Y15588000D01*
X24025580D01*
X24044540Y15578470D01*
X24058760Y15556250D01*
X24063500Y15530850D01*
X24058760Y15505450D01*
X24046910Y15486400D01*
X24025580Y15476870D01*
X23968700D01*
G01X24144980Y15397500D02*
Y15588000D01*
X24206600Y15429250D01*
X24268220Y15588000D01*
Y15397500D01*
G01X24606560Y15499100D02*
X24616040Y15508620D01*
X24623150Y15524500D01*
X24627890Y15546730D01*
X24623150Y15565770D01*
X24613670Y15578470D01*
X24597080Y15588000D01*
X24533090D01*
Y15397500D01*
X24611300D01*
X24627890Y15410200D01*
X24637370Y15429250D01*
X24642110Y15451480D01*
X24637370Y15473700D01*
X24623150Y15492750D01*
X24606560Y15499100D01*
X24533090D01*
G01X24778100Y15397500D02*
X24759140Y15400670D01*
X24742550Y15413370D01*
X24728330Y15432420D01*
X24718850Y15454650D01*
X24714110Y15480050D01*
Y15505450D01*
X24718850Y15530850D01*
X24728330Y15553080D01*
X24742550Y15572120D01*
X24759140Y15584830D01*
X24778100Y15588000D01*
X24797060Y15584830D01*
X24813650Y15572120D01*
X24827870Y15553080D01*
X24837350Y15530850D01*
X24842090Y15505450D01*
Y15480050D01*
X24837350Y15454650D01*
X24827870Y15432420D01*
X24813650Y15413370D01*
X24797060Y15400670D01*
X24778100Y15397500D01*
G01X24968600Y15588000D02*
Y15397500D01*
G01X24914090Y15588000D02*
X25023110D01*
G01X24153160Y14886200D02*
Y15076700D01*
X24200560D01*
X24219520Y15067170D01*
X24233740Y15054470D01*
X24245590Y15035430D01*
X24255070Y15013200D01*
X24257440Y14981450D01*
X24255070Y14949700D01*
X24245590Y14927470D01*
X24233740Y14908420D01*
X24219520Y14895720D01*
X24200560Y14886200D01*
X24153160D01*
G01X24336550D02*
X24395800Y15076700D01*
X24455050Y14886200D01*
G01X24433720Y14952870D02*
X24357880D01*
G01X24586300Y15076700D02*
Y14886200D01*
G01X24531790Y15076700D02*
X24640810D01*
G01X24824200Y14886200D02*
X24729400D01*
Y15076700D01*
X24824200D01*
G01X24786280Y14984630D02*
X24729400D01*
G01X24967300Y14879850D02*
X24962560Y14883030D01*
Y14889370D01*
X24967300Y14892550D01*
X24972040Y14889370D01*
Y14883030D01*
X24967300Y14879850D01*
G01Y14965570D02*
X24962560Y14968750D01*
Y14975100D01*
X24967300Y14978270D01*
X24972040Y14975100D01*
Y14968750D01*
X24967300Y14965570D01*
G01X25303270Y15044950D02*
X25317490Y15064000D01*
X25334080Y15073530D01*
X25353040Y15076700D01*
X25376740Y15070350D01*
X25393330Y15054470D01*
X25398070Y15035430D01*
X25395700Y15016370D01*
X25386220Y15000500D01*
X25338820Y14968750D01*
X25317490Y14946520D01*
X25303270Y14914770D01*
X25298530Y14886200D01*
X25398070D01*
G01X25538800Y15076700D02*
X25519840Y15070350D01*
X25505620Y15054470D01*
X25496140Y15035430D01*
X25489030Y15010020D01*
X25486660Y14981450D01*
X25489030Y14952870D01*
X25496140Y14927470D01*
X25505620Y14908420D01*
X25519840Y14892550D01*
X25538800Y14886200D01*
X25557760Y14892550D01*
X25571980Y14908420D01*
X25581460Y14927470D01*
X25588570Y14952870D01*
X25590940Y14981450D01*
X25588570Y15010020D01*
X25581460Y15035430D01*
X25571980Y15054470D01*
X25557760Y15070350D01*
X25538800Y15076700D01*
G01X25729300Y14886200D02*
Y15076700D01*
X25700860Y15038600D01*
G01Y14886200D02*
X25757740D01*
G01X25919800D02*
X25936390Y14889370D01*
X25955350Y14898900D01*
X25967200Y14914770D01*
X25971940Y14937000D01*
X25967200Y14959220D01*
X25952980Y14978270D01*
X25931650Y14987800D01*
X25907950D01*
X25893730Y14994150D01*
X25881880Y15010020D01*
X25877140Y15032250D01*
X25884250Y15054470D01*
X25900840Y15070350D01*
X25919800Y15076700D01*
X25938760Y15070350D01*
X25955350Y15054470D01*
X25962460Y15032250D01*
X25957720Y15010020D01*
X25945870Y14994150D01*
X25931650Y14987800D01*
X25907950D01*
X25886620Y14978270D01*
X25872400Y14959220D01*
X25867660Y14937000D01*
X25872400Y14914770D01*
X25884250Y14898900D01*
X25903210Y14889370D01*
X25919800Y14886200D01*
G01X26079490Y14949700D02*
X26141110D01*
G01X26300800Y14886200D02*
Y15076700D01*
X26272360Y15038600D01*
G01Y14886200D02*
X26329240D01*
G01X26491300Y15076700D02*
X26472340Y15070350D01*
X26458120Y15054470D01*
X26448640Y15035430D01*
X26441530Y15010020D01*
X26439160Y14981450D01*
X26441530Y14952870D01*
X26448640Y14927470D01*
X26458120Y14908420D01*
X26472340Y14892550D01*
X26491300Y14886200D01*
X26510260Y14892550D01*
X26524480Y14908420D01*
X26533960Y14927470D01*
X26541070Y14952870D01*
X26543440Y14981450D01*
X26541070Y15010020D01*
X26533960Y15035430D01*
X26524480Y15054470D01*
X26510260Y15070350D01*
X26491300Y15076700D01*
G01X26650990Y14949700D02*
X26712610D01*
G01X26872300Y14886200D02*
Y15076700D01*
X26843860Y15038600D01*
G01Y14886200D02*
X26900740D01*
G01X27062800Y15076700D02*
X27043840Y15070350D01*
X27029620Y15054470D01*
X27020140Y15035430D01*
X27013030Y15010020D01*
X27010660Y14981450D01*
X27013030Y14952870D01*
X27020140Y14927470D01*
X27029620Y14908420D01*
X27043840Y14892550D01*
X27062800Y14886200D01*
X27081760Y14892550D01*
X27095980Y14908420D01*
X27105460Y14927470D01*
X27112570Y14952870D01*
X27114940Y14981450D01*
X27112570Y15010020D01*
X27105460Y15035430D01*
X27095980Y15054470D01*
X27081760Y15070350D01*
X27062800Y15076700D01*
G01X24200300Y16071700D02*
Y15881200D01*
G01X24145790Y16071700D02*
X24254810D01*
G01X24438200Y15881200D02*
X24343400D01*
Y16071700D01*
X24438200D01*
G01X24400280Y15979630D02*
X24343400D01*
G01X24531530Y15881200D02*
X24631070Y16071700D01*
G01X24531530D02*
X24631070Y15881200D01*
G01X24712550D02*
X24771800Y16071700D01*
X24831050Y15881200D01*
G01X24809720Y15947870D02*
X24733880D01*
G01X24912530Y15906590D02*
X24931490Y15890720D01*
X24952820Y15881200D01*
X24971780D01*
X24990740Y15890720D01*
X25004960Y15906590D01*
X25012070Y15928830D01*
X25007330Y15951050D01*
X24995480Y15970100D01*
X24974150Y15982800D01*
X24945710Y15989150D01*
X24929120Y16001850D01*
X24922010Y16024070D01*
X24926750Y16046300D01*
X24938600Y16062170D01*
X24955190Y16071700D01*
X24971780D01*
X24988370Y16065350D01*
X25002590Y16049470D01*
G01X25314860Y16071700D02*
X25371740D01*
G01X25343300D02*
Y15881200D01*
G01X25314860D02*
X25371740D01*
G01X25479290D02*
Y16071700D01*
X25588310Y15881200D01*
Y16071700D01*
G01X25674530Y15906590D02*
X25693490Y15890720D01*
X25714820Y15881200D01*
X25733780D01*
X25752740Y15890720D01*
X25766960Y15906590D01*
X25774070Y15928830D01*
X25769330Y15951050D01*
X25757480Y15970100D01*
X25736150Y15982800D01*
X25707710Y15989150D01*
X25691120Y16001850D01*
X25684010Y16024070D01*
X25688750Y16046300D01*
X25700600Y16062170D01*
X25717190Y16071700D01*
X25733780D01*
X25750370Y16065350D01*
X25764590Y16049470D01*
G01X25914800Y16071700D02*
Y15881200D01*
G01X25860290Y16071700D02*
X25969310D01*
G01X26057900Y15881200D02*
Y16071700D01*
X26117150D01*
X26136110Y16062170D01*
X26147960Y16049470D01*
X26152700Y16024070D01*
X26147960Y15998670D01*
X26133740Y15982800D01*
X26117150Y15973270D01*
X26057900D01*
G01X26117150D02*
X26152700Y15881200D01*
G01X26243660Y16071700D02*
Y15935180D01*
X26253140Y15906590D01*
X26272100Y15887550D01*
X26295800Y15881200D01*
X26319500Y15887550D01*
X26338460Y15906590D01*
X26347940Y15935180D01*
Y16071700D01*
G01X26424680Y15881200D02*
Y16071700D01*
X26486300Y15912950D01*
X26547920Y16071700D01*
Y15881200D01*
G01X26724200D02*
X26629400D01*
Y16071700D01*
X26724200D01*
G01X26686280Y15979630D02*
X26629400D01*
G01X26812790Y15881200D02*
Y16071700D01*
X26921810Y15881200D01*
Y16071700D01*
G01X27057800D02*
Y15881200D01*
G01X27003290Y16071700D02*
X27112310D01*
G01X27198530Y15906590D02*
X27217490Y15890720D01*
X27238820Y15881200D01*
X27257780D01*
X27276740Y15890720D01*
X27290960Y15906590D01*
X27298070Y15928830D01*
X27293330Y15951050D01*
X27281480Y15970100D01*
X27260150Y15982800D01*
X27231710Y15989150D01*
X27215120Y16001850D01*
X27208010Y16024070D01*
X27212750Y16046300D01*
X27224600Y16062170D01*
X27241190Y16071700D01*
X27257780D01*
X27274370Y16065350D01*
X27288590Y16049470D01*
G01X25242500Y15451200D02*
X25256130Y15372500D01*
X25271700Y15451200D01*
X25287270Y15372500D01*
X25300900Y15451200D01*
G01X25371810Y15444640D02*
X25365970Y15448580D01*
X25359160Y15451200D01*
X25351370D01*
X25342610Y15447260D01*
X25335800Y15440710D01*
X25330930Y15432840D01*
X25327040Y15419720D01*
X25326070Y15407910D01*
X25328010Y15396110D01*
X25330930Y15388240D01*
X25336770Y15380370D01*
X25343590Y15375120D01*
X25350400Y15372500D01*
X25357210D01*
X25364030Y15375120D01*
X25369870Y15379060D01*
X25374730Y15384300D01*
G01X25408660Y15382990D02*
X25416450Y15376430D01*
X25425210Y15372500D01*
X25432990D01*
X25440780Y15376430D01*
X25446620Y15382990D01*
X25449540Y15392180D01*
X25447590Y15401360D01*
X25442730Y15409230D01*
X25433970Y15414470D01*
X25422290Y15417100D01*
X25415470Y15422340D01*
X25412550Y15431520D01*
X25414500Y15440710D01*
X25419370Y15447260D01*
X25426180Y15451200D01*
X25432990D01*
X25439810Y15448580D01*
X25445650Y15442020D01*
G01X25507800Y15451200D02*
X25500010Y15448580D01*
X25494170Y15442020D01*
X25490280Y15434150D01*
X25487360Y15423650D01*
X25486390Y15411850D01*
X25487360Y15400040D01*
X25490280Y15389550D01*
X25494170Y15381680D01*
X25500010Y15375120D01*
X25507800Y15372500D01*
X25515590Y15375120D01*
X25521430Y15381680D01*
X25525320Y15389550D01*
X25528240Y15400040D01*
X25529210Y15411850D01*
X25528240Y15423650D01*
X25525320Y15434150D01*
X25521430Y15442020D01*
X25515590Y15448580D01*
X25507800Y15451200D01*
G01X25598180Y15372500D02*
Y15451200D01*
X25562170Y15394800D01*
X25610830D01*
G01X25646710Y15438080D02*
X25652550Y15445950D01*
X25659360Y15449890D01*
X25667150Y15451200D01*
X25676880Y15448580D01*
X25683690Y15442020D01*
X25685640Y15434150D01*
X25684670Y15426280D01*
X25680770Y15419720D01*
X25661310Y15406600D01*
X25652550Y15397420D01*
X25646710Y15384300D01*
X25644760Y15372500D01*
X25685640D01*
G01X25801190D02*
Y15451200D01*
X25820650D01*
X25828440Y15447260D01*
X25834280Y15442020D01*
X25839150Y15434150D01*
X25843040Y15424970D01*
X25844010Y15411850D01*
X25843040Y15398730D01*
X25839150Y15389550D01*
X25834280Y15381680D01*
X25828440Y15376430D01*
X25820650Y15372500D01*
X25801190D01*
G01X25237230Y15641200D02*
Y15562500D01*
X25276170D01*
G01X25311070D02*
X25335400Y15641200D01*
X25359730Y15562500D01*
G01X25350970Y15590040D02*
X25319830D01*
G01X25392690Y15641200D02*
Y15584800D01*
X25396580Y15572990D01*
X25404370Y15565120D01*
X25414100Y15562500D01*
X25423830Y15565120D01*
X25431620Y15572990D01*
X25435510Y15584800D01*
Y15641200D01*
G01X25470410Y15562500D02*
Y15641200D01*
X25515190Y15562500D01*
Y15641200D01*
G01X25592910Y15634640D02*
X25587070Y15638580D01*
X25580260Y15641200D01*
X25572470D01*
X25563710Y15637260D01*
X25556900Y15630710D01*
X25552030Y15622840D01*
X25548140Y15609720D01*
X25547170Y15597910D01*
X25549110Y15586110D01*
X25552030Y15578240D01*
X25557870Y15570370D01*
X25564690Y15565120D01*
X25571500Y15562500D01*
X25578310D01*
X25585130Y15565120D01*
X25590970Y15569060D01*
X25595830Y15574300D01*
G01X25629760Y15562500D02*
Y15641200D01*
G01X25670640D02*
Y15562500D01*
G01Y15601850D02*
X25629760D01*
G01X25708460Y15562500D02*
X25749340Y15641200D01*
G01X25708460D02*
X25749340Y15562500D01*
G01X25788130Y15641200D02*
Y15562500D01*
X25827070D01*
G01X25873650Y15588730D02*
X25898950D01*
G01X25986410Y15634640D02*
X25980570Y15638580D01*
X25973760Y15641200D01*
X25965970D01*
X25957210Y15637260D01*
X25950400Y15630710D01*
X25945530Y15622840D01*
X25941640Y15609720D01*
X25940670Y15597910D01*
X25942610Y15586110D01*
X25945530Y15578240D01*
X25951370Y15570370D01*
X25958190Y15565120D01*
X25965000Y15562500D01*
X25971810D01*
X25978630Y15565120D01*
X25984470Y15569060D01*
X25989330Y15574300D01*
G01X26065110Y15634640D02*
X26059270Y15638580D01*
X26052460Y15641200D01*
X26044670D01*
X26035910Y15637260D01*
X26029100Y15630710D01*
X26024230Y15622840D01*
X26020340Y15609720D01*
X26019370Y15597910D01*
X26021310Y15586110D01*
X26024230Y15578240D01*
X26030070Y15570370D01*
X26036890Y15565120D01*
X26043700Y15562500D01*
X26050510D01*
X26057330Y15565120D01*
X26063170Y15569060D01*
X26068030Y15574300D01*
G01X26122400Y15562500D02*
Y15641200D01*
X26110720Y15625460D01*
G01Y15562500D02*
X26134080D01*
G01X26179690Y15578240D02*
X26185530Y15569060D01*
X26193310Y15563810D01*
X26202070Y15562500D01*
X26209860Y15563810D01*
X26217650Y15570370D01*
X26222510Y15578240D01*
X26223490Y15586110D01*
X26221540Y15595290D01*
X26214730Y15601850D01*
X26207910Y15604470D01*
X26199150D01*
G01X26207910D02*
X26213750Y15608410D01*
X26218620Y15614970D01*
X26220570Y15622840D01*
X26218620Y15630710D01*
X26213750Y15637260D01*
X26204990Y15641200D01*
X26196230Y15639890D01*
X26187470Y15634640D01*
G01X26279800Y15562500D02*
Y15641200D01*
X26268120Y15625460D01*
G01Y15562500D02*
X26291480D01*
G01X26340010Y15628080D02*
X26345850Y15635950D01*
X26352660Y15639890D01*
X26360450Y15641200D01*
X26370180Y15638580D01*
X26376990Y15632020D01*
X26378940Y15624150D01*
X26377970Y15616280D01*
X26374070Y15609720D01*
X26354610Y15596600D01*
X26345850Y15587420D01*
X26340010Y15574300D01*
X26338060Y15562500D01*
X26378940D01*
G01X26417730D02*
Y15641200D01*
X26442070D01*
X26449850Y15637260D01*
X26454720Y15632020D01*
X26456670Y15621520D01*
X26454720Y15611030D01*
X26448880Y15604470D01*
X26442070Y15600540D01*
X26417730D01*
G01X26442070D02*
X26456670Y15562500D01*
G01X26515900D02*
Y15641200D01*
X26504220Y15625460D01*
G01Y15562500D02*
X26527580D01*
G01X26651890D02*
Y15641200D01*
X26671350D01*
X26679140Y15637260D01*
X26684980Y15632020D01*
X26689850Y15624150D01*
X26693740Y15614970D01*
X26694710Y15601850D01*
X26693740Y15588730D01*
X26689850Y15579550D01*
X26684980Y15571680D01*
X26679140Y15566430D01*
X26671350Y15562500D01*
X26651890D01*
M02*
